<svg id="Layer_1" xmlns="http://www.w3.org/2000/svg" viewBox="0 0 504 290" width="2500" height="1438"><style>.st0{fill:#0656a5}</style><path class="st0" d="M427 57.4h77l-38.2 162h-76.9l38.1-162zm-98.6 0h76.9L368 212.6c-9 37.6-35 77.4-88.4 77.4H164.3l17.7-52.6h53c25 0 52.9-13.8 59-38.8l34.4-141.2zM319.3 0h-79.2l-36.9 155.5c-3.6 15.1-8.6 23.8-26.6 23.8h-67.3c-15.3 0-14.9-9-11.7-22l10.4-43c2.6-10.7 6.1-15.5 20.3-15.5h66.3l9.9-41.5H75.7c-30.5 0-48.9 14.7-56.1 45L2.2 175c-7.2 30.4 4 44.4 26 44.4h188.2c39.5 0 54.8-15.4 61.7-44.7L319.3 0z"/></svg>