<svg xmlns="http://www.w3.org/2000/svg" width="2500" height="2500" viewBox="0 0 192.756 192.756"><g fill-rule="evenodd" clip-rule="evenodd"><path fill="#fff" d="M0 0h192.756v192.756H0V0z"/><path d="M132.627 54.422v57.807h20.969V54.422h-20.969zM126.73 54.422h-20.969v41.259c0 10.149-1.529 22.284-18.349 22.284H9.87l25.12 21.622h59.195c22.062-.44 32.546-20.96 32.546-32.874V54.422h-.001z"/><path d="M159.277 49.517v95.977H41.216l36.478 31.109h99.604c8.08 0 12.449-5.516 12.449-12.135V75.993l-30.47-26.476z"/><path d="M45.038 98.328V76.485H36.3v35.743H2.662V30.593c0-4.192 4.805-14.562 13.979-14.562h103.317l37.787 32.213H45.038c-3.277 0-8.956-.221-8.956 6.178h29.925V88.4c0 8.605 12.669 8.605 12.669-.221V54.422h20.969V98.99c0 9.046-4.15 13.238-12.45 13.238h-29.27c-8.082.001-12.887-4.192-12.887-13.9z"/></g></svg>