<svg xmlns="http://www.w3.org/2000/svg" width="200" height="215"><path fill="#63a0ff" d="M100.694.469A21.45 21.45 0 0 0 89.44 3.358L16.85 45.349A21.547 21.547 0 0 0 6.1 63.999v84.027a21.548 21.548 0 0 0 10.751 18.629l72.59 42.024a21.446 21.446 0 0 0 21.49 0l72.601-42.024a21.549 21.549 0 0 0 10.74-18.629V63.999a21.548 21.548 0 0 0-10.74-18.651L110.931 3.357A21.45 21.45 0 0 0 100.694.469zm-.233 47.494a11.8 11.8 0 0 1 5.634 1.582l39.932 23.099a11.85 11.85 0 0 1 5.908 10.259v46.22a11.85 11.85 0 0 1-5.908 10.237l-39.932 23.121a11.795 11.795 0 0 1-11.813 0L54.348 139.36a11.85 11.85 0 0 1-5.907-10.237v-46.22a11.85 11.85 0 0 1 5.907-10.259l39.934-23.099a11.8 11.8 0 0 1 6.179-1.582z"/><path fill="#3874d8" d="m191.389 53.265-41.052 23.748a11.87 11.87 0 0 1 1.588 5.92v46.208a11.85 11.85 0 0 1-5.907 10.249l-39.921 23.11a11.8 11.8 0 0 1-5.885 1.57v47.495a21.45 21.45 0 0 0 10.719-2.867l16.15-9.347 20.608 11.993c9.217 5.364 24.057 5.364 33.275 0l9.215-5.362c9.217-5.364 9.217-14.002 0-19.366l-20.494-11.927 13.848-8.015a21.547 21.547 0 0 0 10.74-18.629V64.029a21.581 21.581 0 0 0-2.883-10.764z"/><path fill="#99bfff" d="m9.003 53.229 41.044 23.759a11.838 11.838 0 0 1 4.32-4.34l39.927-23.104a11.797 11.797 0 0 1 11.808.004l39.93 23.098a11.837 11.837 0 0 1 4.3 4.323l41.036-23.747a21.523 21.523 0 0 0-7.836-7.87L110.92 3.346a21.447 21.447 0 0 0-21.465-.007L16.863 45.348a21.504 21.504 0 0 0-7.86 7.884z"/></svg>