<svg xmlns="http://www.w3.org/2000/svg" width="24" height="24" fill="none"><path fill="#D9272E" d="M12 1C5.925 1 1 5.925 1 12s4.925 11 11 11 11-4.925 11-11S18.075 1 12 1Zm5.71 14.89a.34.34 0 0 1-.34.34h-1.438a.34.34 0 0 1-.34-.34v-4.426c0-.036-.043-.055-.074-.03l-3.043 3.044a.68.68 0 0 1-.956 0l-3.044-3.044c-.024-.024-.073-.006-.073.03v4.426a.34.34 0 0 1-.34.34H6.624a.34.34 0 0 1-.341-.34V8.11a.34.34 0 0 1 .34-.34h.987c.176 0 .353.072.48.2l3.787 3.787c.067.066.17.066.238 0l3.786-3.787a.677.677 0 0 1 .481-.2h.986a.34.34 0 0 1 .341.34v7.78Z"/></svg>