<svg xmlns="http://www.w3.org/2000/svg" xmlns:xlink="http://www.w3.org/1999/xlink" width="500" height="500"><style>.B{stroke-linejoin:round}.C{stroke-miterlimit:10}.D{stroke-width:25.86}</style><path fill="#ff69ad" d="M250 482.637c-35.076 0-70.15-13.381-96.913-40.143l-91.371-91.371c-53.524-53.524-53.524-140.302 0-193.826 51.714-51.714 134.47-53.464 188.284-5.248 53.816-48.214 136.571-46.465 188.284 5.248 53.524 53.524 53.524 140.302 0 193.826l-91.371 91.371c-26.761 26.761-61.837 40.143-96.913 40.143"/><path fill="#e34198" d="M174.576 243.635c0-29.754-24.12-53.874-53.874-53.874s-53.874 24.12-53.874 53.874 24.12 53.874 53.874 53.874 53.874-24.12 53.874-53.874m150.848 0c0-29.754 24.12-53.874 53.874-53.874s53.874 24.12 53.874 53.874-24.12 53.874-53.874 53.874-53.874-24.12-53.874-53.874"/><g fill="none" stroke="#461036" stroke-linecap="round" class="B C"><path stroke-width="15.516" d="M266.162 195.149v5.387c0 11.902 9.647 21.55 21.55 21.55s21.55-9.647 21.55-21.55v-5.387m-75.424 0v5.387c0 11.902-9.647 21.55-21.55 21.55s-21.55-9.647-21.55-21.55v-5.387"/><path stroke-width="17.24" d="M212.311 254.424c13.909 33.578 61.472 33.578 75.379 0"/></g><use xlink:href="#B" fill="#ffc533"/><use xlink:href="#B" fill="none" stroke="#ffc431" class="B C D"/><use xlink:href="#C" fill="#ffc533"/><use xlink:href="#C" fill="none" stroke="#ffc431" class="B C D"/><defs><path id="B" d="m299.564 77.703 25.86-17.24-25.86-17.24-17.24-25.86-17.24 25.86-25.86 17.24 25.86 17.24 17.24 25.86z"/><path id="C" d="m412.485 136.749 20.688-13.792-20.688-13.792-13.792-20.688-13.792 20.688-20.688 13.792 20.688 13.792 13.792 20.688z"/></defs></svg>