<svg xmlns="http://www.w3.org/2000/svg" xml:space="preserve" viewBox="0 0 552 552" width="32" height="32" style="fill-rule:evenodd;clip-rule:evenodd;stroke-linejoin:round;stroke-miterlimit:2"><path d="M102 384V168c0-19.882 16.118-36 36-36h67.514a32.004 32.004 0 0 1 18.938 6.205l22.596 16.59A32.004 32.004 0 0 0 265.986 161H414c19.882 0 36 16.118 36 36v187c0 19.882-16.118 36-36 36H138c-19.882 0-36-16.118-36-36Z" style="fill:url(#a);fill-rule:nonzero" transform="translate(-134.828 -134.828) scale(1.48851)"/><path d="M102 384V168c0-19.882 16.118-36 36-36h67.514a32.004 32.004 0 0 1 18.938 6.205l22.596 16.59A32.004 32.004 0 0 0 265.986 161H414c19.882 0 36 16.118 36 36v187c0 19.882-16.118 36-36 36H138c-19.882 0-36-16.118-36-36Z" style="fill:url(#b);fill-rule:nonzero" transform="translate(-134.828 -134.828) scale(1.48851)"/><path d="M265.986 161H414c19.882 0 36 16.117 36 36v187c0 19.883-16.118 36-36 36h-38V232.162c0-15.527-12.635-28.089-28.161-28l-136.31.785a27.995 27.995 0 0 1-16.388-5.179l-30.355-21.586A27.995 27.995 0 0 0 148.559 173H102v-5c0-19.883 16.118-36 36-36h67.514a32.004 32.004 0 0 1 18.938 6.205l22.596 16.59A32.004 32.004 0 0 0 265.986 161Z" style="fill:url(#c)" transform="translate(-134.828 -134.828) scale(1.48851)"/><defs><linearGradient id="a" x1="0" x2="1" y1="0" y2="0" gradientTransform="rotate(85.935 145.517 141.403) scale(380.502)" gradientUnits="userSpaceOnUse"><stop offset="0" style="stop-color:#6d4aff;stop-opacity:1"/><stop offset="1" style="stop-color:#6d4aff;stop-opacity:1"/></linearGradient><linearGradient id="c" x1="0" x2="1" y1="0" y2="0" gradientTransform="matrix(435 478 -478 435 -15 84)" gradientUnits="userSpaceOnUse"><stop offset="0" style="stop-color:#6d4aff;stop-opacity:1"/><stop offset=".36" style="stop-color:#ae8cff;stop-opacity:1"/><stop offset="1" style="stop-color:#f8ccff;stop-opacity:1"/></linearGradient><radialGradient id="b" cx="0" cy="0" r="1" gradientTransform="matrix(-220.585 450.749 -701.265 -343.182 387.589 5.753)" gradientUnits="userSpaceOnUse"><stop offset="0" style="stop-color:#ff62c0;stop-opacity:0"/><stop offset=".56" style="stop-color:#ff62c0;stop-opacity:0"/><stop offset=".99" style="stop-color:#ff62c0;stop-opacity:1"/><stop offset="1" style="stop-color:#ff62c0;stop-opacity:1"/></radialGradient></defs></svg>
