<svg xmlns="http://www.w3.org/2000/svg" width="70" height="90" fill-rule="evenodd" stroke-linejoin="round" stroke-miterlimit="2" viewBox="0 0 48 48"><path fill="#455a64" d="M4.8 41.4H12V45H4.8zm31.2 0h7.2V45H36z"/><g fill-rule="nonzero"><path fill="#78909c" d="M43.2 43.8H4.8C2.16 43.8 0 41.64 0 39V7.8C0 5.16 2.16 3 4.8 3h38.4C45.84 3 48 5.16 48 7.8V39c0 2.64-2.16 4.8-4.8 4.8z"/><path fill="#90a4ae" d="M43.2 40.2H4.8A1.13 1.13 0 0 1 3.6 39V7.8a1.13 1.13 0 0 1 1.2-1.2h38.4a1.13 1.13 0 0 1 1.2 1.2V39a1.13 1.13 0 0 1-1.2 1.2z"/><path fill="#37474f" d="M30 11.4a12.04 12.04 0 0 0-12 12 12.04 12.04 0 0 0 12 12 12.04 12.04 0 0 0 12-12 12.04 12.04 0 0 0-12-12zm0 20.4c-4.68 0-8.4-3.72-8.4-8.4S25.32 15 30 15s8.4 3.72 8.4 8.4-3.72 8.4-8.4 8.4z"/><path fill="#b0bec5" d="m37.56 17.52.48-.48a1.16 1.16 0 0 0 0-1.68 1.16 1.16 0 0 0-1.68 0l-.48.48a11.12 11.12 0 0 1 1.68 1.68zm-15.12 0a11.12 11.12 0 0 1 1.68-1.68l-.48-.48a1.16 1.16 0 0 0-1.68 0 1.16 1.16 0 0 0 0 1.68l.48.48zM20.4 23.4c0-.36 0-.84.12-1.2h-.72a1.13 1.13 0 0 0-1.2 1.2 1.13 1.13 0 0 0 1.2 1.2h.72c-.12-.36-.12-.84-.12-1.2zm9.6-9.6c.36 0 .84 0 1.2.12v-.72A1.13 1.13 0 0 0 30 12a1.13 1.13 0 0 0-1.2 1.2v.72c.36-.12.84-.12 1.2-.12zm7.56 15.48a11.12 11.12 0 0 1-1.68 1.68l.48.48c.24.24.6.36.84.36s.6-.12.84-.36a1.16 1.16 0 0 0 0-1.68l-.48-.48zm-15.12 0-.48.48a1.16 1.16 0 0 0 0 1.68c.24.24.6.36.84.36s.6-.12.84-.36l.48-.48a11.12 11.12 0 0 1-1.68-1.68zM40.2 22.2h-.72c0 .36.12.84.12 1.2s0 .84-.12 1.2h.72a1.13 1.13 0 0 0 1.2-1.2 1.13 1.13 0 0 0-1.2-1.2zM30 33c-.36 0-.84 0-1.2-.12v.72a1.13 1.13 0 0 0 1.2 1.2 1.13 1.13 0 0 0 1.2-1.2v-.72c-.36.12-.84.12-1.2.12z"/><path fill="#455a64" d="M9.6 18.6A2.41 2.41 0 0 0 7.2 21v9.6A2.41 2.41 0 0 0 9.6 33a2.41 2.41 0 0 0 2.4-2.4V21a2.41 2.41 0 0 0-2.4-2.4z"/><path fill="#cfd8dc" d="M9.6 16.2a2.41 2.41 0 0 0-2.4 2.4v9.6a2.41 2.41 0 0 0 2.4 2.4 2.41 2.41 0 0 0 2.4-2.4v-9.6a2.41 2.41 0 0 0-2.4-2.4z"/></g></svg>