<svg xmlns:xlink="http://www.w3.org/1999/xlink" xmlns="http://www.w3.org/2000/svg" xmlns:v="https://vecta.io/nano" viewBox="0 0 490 490" width="490"  height="490" ><path d="M60 270h30v40H60zm340 0h30v40h-30z" fill="#546a79"/><path d="M400 270v40 45 125h-50v-90h-40V270zM230 380v75h-40v-75-110h80v110z" fill="#fff"/><path d="M310 390v45h-40v-55-110h40zm-170-10v100H90V355v-45-40h100v110z" fill="#e7eced"/><path d="M105 10h280v110H105z" fill="#fff"/><path d="M245 185c13.799 0 25 11.201 25 25s-11.201 25-25 25-25-11.201-25-25 11.201-25 25-25z" fill="#546a79"/><path d="M10 140c0-10.996 9.004-20 20-20h75 280 75c10.996 0 20 9.004 20 20v215h-80v-45h30v-40h-30-90-40-80H90 60v40h30v45H10V155v-15zm235 45c-13.799 0-25 11.201-25 25s11.201 25 25 25 25-11.201 25-25-11.201-25-25-25z" fill="#afb6bb"/><path d="M460 110h-65V10c0-5.523-4.478-10-10-10H105a10 10 0 0 0-10 10v100H30c-16.542 0-30 13.458-30 30v215c0 5.522 4.477 10 10 10h70v115c0 5.522 4.477 10 10 10h50c5.523 0 10-4.478 10-10v-90h30v65c0 5.522 4.477 10 10 10h40c5.523 0 10-4.478 10-10v-65h20v45c0 5.522 4.477 10 10 10h40c5.522 0 10-4.478 10-10v-35h20v80c0 5.522 4.478 10 10 10h50c5.522 0 10-4.478 10-10V365h70c5.522 0 10-4.478 10-10V140c0-16.542-13.458-30-30-30zM115 20h260v90H115V20zM80 300H70v-20h10v20zm50 170h-30V280h80v90h-30v-75h-20v175zm90-25h-20V280h60v90h-20v-60h-20v135zm80-20h-20v-45-100h20v145zm90 45h-30V295h-20v85h-20V280h70v190zm20-190h10v20h-10v-20zm60 65h-60v-25h20c5.522 0 10-4.478 10-10v-40c0-5.522-4.478-10-10-10H60c-5.523 0-10 4.478-10 10v40c0 5.522 4.477 10 10 10h20v25H20V165h355v-20H20v-5c0-5.514 4.486-10 10-10h430c5.514 0 10 4.486 10 10v205zm-65-190h35v20h-35zm-15 30h50v20h-50zm-145-10c-19.299 0-35 15.701-35 35s15.701 35 35 35 35-15.701 35-35-15.701-35-35-35zm0 50a15.02 15.02 0 0 1-15-15 15.02 15.02 0 0 1 15-15 15.02 15.02 0 0 1 15 15 15.02 15.02 0 0 1-15 15z" fill="#231f20"/></svg>