<svg xmlns="http://www.w3.org/2000/svg" width="119" height="90" stroke-linejoin="round" stroke-miterlimit="2" viewBox="0 0 97 57"><path fill="#d63085" d="M61.554 3.503h27.339c1.444 1.322 1.322 3.064 1.322 4.788l.088 43.174c-.473 1.103-1.427 1.147-2.442 1.138l-26.297-.105V49.26H83.09l.193-.823-15.249-13.621 2.705-2.267 16.107 13.726V9.622l-16.09 13.936c-1.287-.411-1.795-1.427-2.04-2.644L84.06 7.276H61.562l-.009-3.773z"/><path fill="#e13282" d="M61.554 49.26v3.239l-34.044.096c-.657 0-1.304-.018-1.795-.551l.709-2.048c.324-.018.674.035.972-.061 11.774-3.869 20.528-18.357 18.55-30.551-.236-1.436-.989-1.943-2.224-2.355-5.384-1.803-10.286-4.473-14.549-8.246-.762-.674-1.523-1.681-2.731-.639l-.683-2.687 1.287-1.961h34.499v3.773H31.948c4.368 4.123 8.719 6.189 13.385 7.555 1.821.534 3.038 1.278 2.88 3.169-.298 3.642 1.961 5.629 4.465 7.598 1.348 1.059 2.512 2.337 3.764 3.519-.525 1.024-.744 2.276-1.996 2.784-1.077-.875-1.978-1.217-3.23 0-2.924 2.836-6.25 5.217-8.316 8.92-1.795 3.204-4.683 5.629-8.369 8.421 9.752-.131 18.392-.42 27.023.026z"/><path fill="#db3485" d="M70.745 23.559c-1.479 1.497-3.992 2.898-4.158 4.526-.184 1.803 2.968 2.679 4.141 4.465l-2.705 2.267c-.516-.376-1.138-.665-1.523-1.147-2.311-2.941-4.359-3.125-7.021-.131-2.32 2.617-3.528-.464-5.025-1.628 1.252-.508 1.471-1.76 1.996-2.784 1.383.753 2.381.123 3.432-.788 2.898-2.512 5.874-4.946 8.815-7.415.263 1.208.762 2.224 2.048 2.635z"/><path fill="#ea3a84" d="M26.45 8.16c-4.036 4.027-8.876 6.819-14.269 8.509-2.6.814-3.309 2.259-3.353 4.648-.219 12.247 4.928 21.456 15.67 27.549.648.368 1.287.762 1.935 1.138l-.709 2.048c-13.227-4.421-22.638-21.929-18.9-35.068.271-.945.683-1.541 1.611-1.777 6.688-1.654 12.194-5.375 17.342-9.734l.674 2.687z"/><path fill="#e63280" d="M12.444 23.646c-.306-2.18.534-4.132 3.852-5.104 3.642-1.068 6.767-3.37 9.559-5.935 1.199-1.094 1.987-1.182 3.195-.079 3.3 3.011 7.056 5.349 11.336 6.714 1.374.438 1.742 1.269 1.917 2.556 1.243 9.183-5.007 20.082-13.534 23.732-1.549.665-2.67.245-3.904-.481-7.887-4.631-11.984-11.511-12.422-21.403zm26.218.928-1.821-1.891c-.805-.797-1.357-.149-1.882.385l-3.825 3.922c-4.482 4.683-4.473 4.692-9.235.193a2.79 2.79 0 0 1-.228-.228c-.875-1.024-1.654-1.497-2.836-.21-.98 1.068-1.287 1.777-.088 2.889a113.412 113.412 0 0 1 6.172 6.137c1.121 1.208 1.873.937 2.88-.088l9.594-9.559c.429-.464.797-.989 1.269-1.549z"/><path fill="#fdf5f9" d="m38.662 24.574-1.278 1.541-9.594 9.559c-1.007 1.024-1.76 1.296-2.88.088l-6.172-6.137c-1.199-1.112-.893-1.821.088-2.889 1.191-1.287 1.97-.805 2.836.21a2.79 2.79 0 0 0 .228.228c4.762 4.5 4.762 4.5 9.235-.193l3.825-3.922c.525-.534 1.077-1.182 1.882-.385l1.83 1.9z"/></svg>