<svg xmlns="http://www.w3.org/2000/svg" viewBox="0 0 24 24" fill="none"><g fill="#850120" clip-path="url(#a)"><path d="m1.913.388 4.104 4.1c.096.094.192.118.336.118h17.303c.12 0 .192-.142.072-.26L19.672.293c-.096-.095-.192-.142-.384-.142H2.01c-.168 0-.192.142-.096.237ZM1.313 23.66c-.024.094.024.19.144.19H18.52c.168 0 .24-.072.288-.214l5.16-16.447c.048-.166-.024-.213-.168-.213H6.689c-.144 0-.192.047-.24.166L1.313 23.66ZM.017 18.92c0 .19.24.19.288 0L4.217 6.336c.048-.142.048-.237-.072-.355L.257 2.165c-.096-.095-.24-.047-.24.071V18.92Z"/></g><defs><clipPath id="a"><path fill="#850120" d="M0 0h24v24H0z"/></clipPath></defs></svg>
