<svg xmlns="http://www.w3.org/2000/svg" width="566.929" height="566.929"><path fill="#141e8c" d="M566.929 566.929c-180.312-80.927-386.617-80.927-566.929 0V0h566.929v566.929z"/><path fill="#fff" d="M67.233 172.985c-15.194.09-27.751 11.876-28.801 27.034H25.709v-40.022h99.215s.795 30.922-28.536 63.699c0 0-27.918 32.424-28.625 46.648h16.079c23.059 0 25.444-27.034 25.444-27.034h13.252v40.11H21.115s-3.711-30.392 31.452-67.233c0 0 21.645-24.207 26.681-43.291l-12.015.089zm252.675 110.347v-13.075h-3.004a9.88 9.88 0 0 1-9.895-9.862v-77.426a9.88 9.88 0 0 1 9.862-9.895h3.037v-13.075h-65.819v13.076h3.004a9.9 9.9 0 0 1 9.983 9.813v77.475a9.9 9.9 0 0 1-9.901 9.895h-3.086v13.076l65.819-.002zm-79.425.088v-40.11h-13.252s-2.474 27.034-25.533 27.034h-13.252V228.29h4.682a9.92 9.92 0 0 1 9.983 9.851v5.08h13.076V200.02h-13.076v5.036a9.92 9.92 0 0 1-9.851 9.983h-4.815v-42.054h13.252c23.059 0 25.533 27.034 25.533 27.034h13.252v-40.11H135.968v13.164h3.004a9.88 9.88 0 0 1 9.895 9.862v77.426a9.88 9.88 0 0 1-9.862 9.895h-3.037v13.075l104.515.089zm148.513-110.435c15.199.038 27.761 11.865 28.713 27.034h12.81v-40.022h-94.797s-15.019 19.613 24.207 63.699c0 0 27.83 32.424 28.536 46.648h-15.991c-23.059 0-25.533-27.034-25.533-27.034H333.6v40.11h95.593s17.405-18.73-25.621-67.233c0 0-22.529-23.147-26.681-43.291l12.105.089zm110.877 0c15.182.08 27.72 11.884 28.713 27.034h12.722v-40.022h-94.709s-15.019 19.613 24.207 63.699c0 0 27.83 32.424 28.536 46.648h-15.991c-23.059 0-25.533-27.034-25.533-27.034h-13.252v40.11h95.592s17.316-18.73-25.621-67.233c0 0-22.529-23.147-26.593-43.291l11.929.089z"/></svg>