<?xml version="1.0" encoding="UTF-8" standalone="no"?>
<!DOCTYPE svg PUBLIC "-//W3C//DTD SVG 1.1//EN" "http://www.w3.org/Graphics/SVG/1.1/DTD/svg11.dtd">
<svg width="100%" height="100%" viewBox="0 0 2560 1440" version="1.1" xmlns="http://www.w3.org/2000/svg" xmlns:xlink="http://www.w3.org/1999/xlink" xml:space="preserve" xmlns:serif="http://www.serif.com/" style="fill-rule:evenodd;clip-rule:evenodd;stroke-linejoin:round;stroke-miterlimit:2;">
    <g transform="matrix(1,0,0,0.763194,2.27374e-13,170.5)">
        <path d="M2560,52.411L2560,1440L0,1440L0,0C0,0 341.333,52.411 512,52.411C682.667,52.411 853.333,0 1024,0C1194.67,0 1365.33,52.411 1536,52.411C1706.67,52.411 1877.33,0 2048,0C2218.67,0 2560,52.411 2560,52.411Z" style="fill:rgb(85,116,230);"/>
    </g>
    <g transform="matrix(1,0,0,0.763194,2.27374e-13,170.5)">
        <path d="M2560,0L2560,1440L0,1440L0,43.239C0,43.239 341.333,0 512,0C682.667,0 853.333,43.239 1024,43.239C1194.67,43.239 1365.33,0 1536,0C1706.67,0 1877.33,43.239 2048,43.239C2218.67,43.239 2560,0 2560,0Z" style="fill:rgb(85,116,230);fill-opacity:0.5;"/>
    </g>
    <g transform="matrix(1,0,0,0.763194,2.27374e-13,341)">
        <path d="M2560,52.411L2560,1440L0,1440L0,0C0,0 341.333,52.411 512,52.411C682.667,52.411 853.333,0 1024,0C1194.67,0 1365.33,52.411 1536,52.411C1706.67,52.411 1877.33,0 2048,0C2218.67,0 2560,52.411 2560,52.411Z" style="fill:rgb(85,116,230);"/>
    </g>
    <g transform="matrix(1,0,0,0.763194,2.27374e-13,341)">
        <path d="M2560,0L2560,1440L0,1440L0,43.239C0,43.239 341.333,0 512,0C682.667,0 853.333,43.239 1024,43.239C1194.67,43.239 1365.33,0 1536,0C1706.67,0 1877.33,43.239 2048,43.239C2218.67,43.239 2560,0 2560,0Z" style="fill:rgb(85,116,230);fill-opacity:0.5;"/>
    </g>
</svg>
