<svg xmlns="http://www.w3.org/2000/svg" fill="#fff" width="1200" height="423" viewBox="0 0 317.5 111.919"><path d="M188.383 15.081v4.234H212.196V15.08H188.383zm0 6.35v4.234H212.196V21.43H188.383zm52.388 0v4.234h23.812V21.43h-23.812zm-52.388 6.35v4.234H212.196V27.78H188.383zm26.194 0v4.234H238.39V27.78H214.577zm26.194 0v4.234h23.812V27.78h-23.812zm-52.388 6.35v4.234H212.196V34.13H188.383zm26.194 0v4.234H238.39V34.13H214.577zm26.194 0v4.234h23.812V34.13h-23.812zm30.56.133l-.078 2.05-.077 2.05h4.013l-.077-2.05-.078-2.05h-3.704zm20.496 10.27c-4.173-.036-7.803 2.156-9.746 6.101-2.191 4.452-2.446 11.442-.595 16.305 1.212 3.185 3.88 5.515 7.174 6.267 1.81.414 4.342.227 6.46-.476 1.735-.575 4.323-2.137 4.558-2.751.18-.47-.68-2.786-1.094-2.944-.167-.064-1.236.453-2.377 1.15l-2.074 1.267h-2.558c-2.391 0-2.622-.048-3.524-.736-2.3-1.755-3.208-4.913-3.02-10.509.075-2.228.279-4.07.543-4.894.93-2.912 2.78-4.694 5.217-5.03 2.294-.315 3.52.1 6.9 2.34l.697.46.82-1.453c.452-.8.76-1.615.684-1.812-.224-.585-3.006-2.283-4.457-2.72a12.903 12.903 0 00-3.608-.565zm-33.99.061c-2.064 0-2.605.102-4.05.765-5.217 2.387-6.178 8.915-1.822 12.359.736.581 2.715 1.715 4.398 2.518 3.626 1.731 4.709 2.498 5.206 3.686.508 1.218.462 2.127-.177 3.447-1.146 2.368-4.681 2.885-8.847 1.292-2.939-1.123-2.84-1.13-3.51.25-.325.67-.591 1.376-.591 1.57 0 .436 2.556 1.608 4.657 2.135 2.277.571 6.734.402 8.335-.316 2.67-1.198 4.41-3.607 4.668-6.463.35-3.858-1.234-5.784-7.096-8.626-2.1-1.018-4.098-2.12-4.442-2.45-1.558-1.492-1.713-4.039-.335-5.514 1.445-1.547 3.926-1.683 7.46-.408 1.013.366 1.968.585 2.124.49.156-.097.519-.727.808-1.4l.525-1.224-.58-.469c-1.102-.893-4.172-1.642-6.732-1.642zm-162.53.159c-4.914-.012-8.49 1.874-10.153 5.385-.813 1.716-.942 2.624-.421 2.96.52.338 5.187.786 5.625.541a.853.853 0 00.395-.67c.002-.746.983-2.118 1.826-2.554 1.128-.583 3.4-.528 4.444.109.99.604 1.474 2.007 1.35 3.922l-.08 1.238-2.778.322c-6.883.8-9.929 2.51-11.394 6.396-.836 2.218-.652 5.442.426 7.438.898 1.663 2.367 2.816 4.266 3.35 1.785.501 4.866.243 6.616-.554.753-.343 1.926-1.136 2.606-1.763l1.237-1.14.558.785c.872 1.231 2.465 2.77 2.863 2.769.535-.002 4.728-3.705 4.728-4.175 0-.222-.28-.772-.62-1.223-1.371-1.81-1.357-1.714-1.504-9.814-.134-7.369-.164-7.723-.76-8.937-1.323-2.693-4.053-4.139-8.23-4.357a20.09 20.09 0 00-1-.028zM29.5 44.86c-3.65-.015-5.398.402-7.432 1.77a8.735 8.735 0 00-3.46 4.6c-.449 1.42-.448 1.492.013 1.83.264.192 1.51.431 2.77.53 1.258.098 2.394.195 2.524.216.246.038.33-.093 1.146-1.791.632-1.315 1.89-2.009 3.641-2.008 2.565.002 3.72 1.429 3.53 4.36l-.086 1.318-2.777.324c-1.528.18-3.373.465-4.101.635-4.602 1.073-7.44 4.085-7.744 8.216-.31 4.214 1.628 7.337 5.179 8.341 2.957.837 6.873-.164 9.48-2.422l1.094-.949.956 1.303c.924 1.258 1.975 2.157 2.524 2.157.485 0 4.517-3.746 4.512-4.192-.002-.241-.359-.96-.791-1.6-.433-.638-.906-1.59-1.052-2.116-.146-.526-.266-3.881-.267-7.456-.002-7.793-.17-8.642-2.088-10.56-1.923-1.924-3.634-2.49-7.571-2.506zm143.36.12c-2.733 0-4.639 1.275-6.123 4.1l-.556 1.059-.012-1.998c-.007-1.186-.141-2.127-.33-2.315-.433-.434-5.545-.434-5.979 0-.464.464-.456 26.425.008 26.89.23.228 1.228.303 3.373.25l3.049-.073.132-9.128c.128-8.854.15-9.166.74-10.364.335-.679.927-1.443 1.315-1.697.96-.63 2.804-.606 3.534.044 1.229 1.095 1.29 1.639 1.29 11.447 0 7.572.066 9.291.369 9.542.244.203 1.384.28 3.373.23l3.005-.074.075-10.054c.097-12.853-.12-14.23-2.578-16.334-1.286-1.1-2.592-1.526-4.686-1.526zm39.43.004c-.687.013-1.331.098-1.845.265-1.509.492-3.196 1.736-3.997 2.945l-.702 1.061-.51-1.014c-1.246-2.479-3.002-3.407-6.07-3.207-2.27.149-3.72.805-5.238 2.37l-1.048 1.078v-1.17c0-.642-.142-1.312-.317-1.486-.33-.33-2.764-.439-3.498-.157-.374.144-.418 1.587-.418 13.582 0 7.381.08 13.5.176 13.598.097.097.978.176 1.957.176 1.378 0 1.815-.094 1.94-.419.088-.23.161-4.724.162-9.988 0-5.86.109-9.956.279-10.568.153-.55.634-1.406 1.069-1.902 1.522-1.733 4.897-2.207 6.314-.887 1.29 1.201 1.332 1.607 1.332 12.722 0 7.742.081 10.489.317 10.725.184.183 1.065.317 2.09.317 1.37 0 1.806-.095 1.93-.419.089-.23.161-4.877.161-10.327 0-10.962.005-10.996 1.677-12.464 2.264-1.988 5.482-1.736 6.718.525.42.768.482 1.98.6 11.705l.133 10.848H219.472l.07-10.969c.059-9.428.009-11.173-.356-12.43-.55-1.892-1.192-2.763-2.67-3.63-.996-.583-2.715-.908-4.226-.88zm-140.993.013c-.872.003-1.367.153-2.278.577-1.65.77-2.394 1.427-3.391 3l-.722 1.139-.43-.9c-.685-1.438-2.239-2.973-3.494-3.452-.814-.311-1.704-.412-2.99-.34-2.496.142-4.063 1.098-5.34 3.26l-.927 1.568-.132-2.105-.133-2.103h-6.085l-.069 13.361c-.038 7.349-.01 13.514.061 13.7.098.256.9.321 3.244.265l3.114-.074.166-9.128c.103-5.68.28-9.497.47-10.104.45-1.434 1.644-2.332 3.106-2.332 1.481 0 2.079.312 2.672 1.397.413.755.48 1.948.597 10.51l.133 9.657 3.02.075c1.913.048 3.126-.03 3.308-.211.19-.19.33-3.468.419-9.733.122-8.714.17-9.503.634-10.187 1.139-1.68 3.531-2.034 4.984-.736l.864.772.132 10.01.133 10.01 3.094.074c2.904.07 3.114.04 3.39-.475.208-.387.265-3.743.195-11.32-.109-11.817-.126-11.956-1.727-13.827-1.277-1.491-2.722-2.16-4.99-2.308a15.106 15.106 0 00-1.028-.04zm73.028.12c-2.766-.005-3.006.04-4.68.863-4.224 2.078-6.56 6.837-6.56 13.363 0 7.045 2.986 12.206 8.012 13.842.717.234 2.013.335 3.63.285 2.144-.067 2.738-.19 4.05-.841 3.039-1.51 5.496-4.857 6.43-8.762.587-2.454.573-6.825-.03-9.23-1.043-4.155-3.302-7.266-6.35-8.744-1.455-.705-1.83-.77-4.502-.775zm97.503.135c-.796 0-1.593.103-1.8.309-.234.235-.318 2.826-.322 9.988-.005 8.836-.048 9.762-.495 10.73-.984 2.133-3.278 3.409-6.162 3.427-1.604.01-1.843-.06-2.581-.767-.448-.428-.931-1.202-1.075-1.72-.152-.545-.262-5.246-.263-11.16-.002-8.48-.065-10.274-.375-10.532-.225-.186-1.043-.278-2.051-.23l-1.677.079v22.528l.794 1.542c.874 1.7 2.168 2.896 3.738 3.455 1.389.495 4.456.48 6.174-.03 1.045-.31 1.741-.76 2.694-1.737l1.284-1.32v1.156c0 .635.143 1.299.318 1.473.412.412 3.186.412 3.599 0 .457-.457.457-26.424 0-26.882-.207-.206-1.003-.309-1.8-.309zm-130.043.389V50.668l4.697.072c2.583.04 4.696.122 4.696.183 0 .06-2.218 3.303-4.93 7.204-2.711 3.9-5.093 7.476-5.291 7.944-.462 1.087-.495 5.657-.045 6.108.39.39.144.435 1.933-.357 4.713-2.084 11.494-2.022 15.74.144 1.662.848 1.89.518 1.797-2.609l-.076-2.53-.874-.588c-1.363-.917-4.05-1.7-6.688-1.947-1.326-.125-2.445-.264-2.487-.31-.041-.047 2.118-3.232 4.798-7.078l4.875-6.994-.077-2.135-.076-2.134h-17.992zm159.412.132v13.45c0 7.397.084 13.534.187 13.637.103.103.966.152 1.918.11l1.731-.077.07-13.56.067-13.56h-3.973zm-126.785 4.31c.83-.013 1.654.277 2.27.893 1.038 1.038 1.5 2.967 1.667 6.968.228 5.464-.504 8.856-2.143 9.93-.92.603-2.282.713-3.277.267-1.86-.835-2.915-5.232-2.606-10.859.18-3.284.442-4.435 1.3-5.71.648-.96 1.723-1.475 2.79-1.49zM98.425 59.47v1.737c0 3.268-.774 5.38-2.417 6.597-.913.676-2.799.85-3.7.34-1.552-.877-2.014-3.624-.96-5.713.762-1.511 2.686-2.523 5.291-2.783l1.786-.178zm-67.01.05c.91-.032.864.444.863 2.062-.003 3.253-.762 5.089-2.624 6.344-3.25 2.19-6.377-1.9-4.39-5.743.535-1.034 2.286-2.016 4.22-2.367.904-.164 1.516-.283 1.93-.297zm89.235 14.997c-3.431-.002-5.536.437-8.11 1.69-1.56.761-2.195 1.439-1.755 1.874.114.112 1.041.096 2.06-.036 2.588-.335 7.56-.315 8.565.035 1.498.522 1.679 1.553.835 4.775-.287 1.096-.942 3.093-1.455 4.438-.514 1.346-.934 2.555-.934 2.688 0 .685 1.161.072 2.372-1.253 2.296-2.513 4.001-6.607 4.41-10.59.304-2.979-.75-3.618-5.988-3.62zm-79.798 1.715c-.263.02-.37.19-.37.498 0 .588 1.183 1.734 4.203 4.072 9.772 7.565 21.417 11.934 34.558 12.965 2.728.214 9.912-.12 13.285-.62 9.565-1.412 19.255-5.085 25.125-9.522 1.345-1.016 1.659-1.647 1.135-2.279-.463-.557-1.576-.472-3.198.243-.782.345-3.09 1.17-5.126 1.833-9.253 3.012-17.02 4.25-26.459 4.221-14.137-.044-28.566-3.7-40.315-10.215-1.526-.846-2.399-1.229-2.838-1.196z"/></svg>