<svg xmlns="http://www.w3.org/2000/svg" viewBox="0 0 199.95 199.7">
  <path fill="#26ac5e" stroke="#000017" stroke-width=".45" d="M.22.22h199.55v199.55H.22z" paint-order="stroke fill markers"/>
  <path fill="#cd945d" stroke="#cd945d" stroke-width=".57" d="M78.82 155.87c-1.72-1.88-3.74-20.11-3.98-22.65-.88-5.6-.98-10.8-1.51-16.5-.08-.6-.15-1.25-.15-1.43 0-.3-.33-1.04-.63-1.4-.08-.1-.15-.2-.21-.32l-.47-.82a65.7 65.7 0 01-1.2-2.28 34.7 34.7 0 00-1.45-2.7c-1.36-3.13-2.72-6.04-3.64-9.45 0-.62-.79-1.44-1.37-1.44-.13 0-.38-.13-.55-.3l-.87-.75c-1.14-.96-1.47-1.8-1.61-4.05l-.24-3.55-.35-5c-.32-4.72-.42-5.6-1.01-9.11-.34-1.98-.36-2.47-.13-3.06.19-.49.45-.74.88-.84.16-.03.37-.1.46-.16.26-.16.6-.02 1.18.47.52.44.56.46 1.1.43.52-.03.57-.05.58-.28 1.08-10.99.67-33.15 7.11-42.84 3.41.07 51.12.74 56 3.74 1.8 2.58 6.14 40.75 13.78 38.39.77-.01.85 0 1.33.31.87.57 1.17 1.09 1.55 2.71.25 1.08.27 1.31.32 4.5.06 3.81-.05 5.1-.58 6.84l-.36 1.2c-.27.97-.6 1.93-1.01 2.85-.17.36-.36.82-.43 1.04a18.2 18.2 0 01-1.8 3c-.34.39-1.31 1.67-1.87 2.49a8.93 8.93 0 01-2.42 2.25 7.82 7.82 0 01-3.76 1.06c-.89.08-1.77.2-1.96.28a3.86 3.86 0 00-1.42 1.47c-1.44 5.53-3.09 10.95-3.64 16.81-.04.62-.03 3.37.01 6.09.13 7.7 1.55 29.46 1.26 30.67-4.85 1.1-37.9 2.7-46.94 2.33z" paint-order="stroke fill markers"/>
  <path fill="#151515" d="M.1 199.87c4.55-11.05 7.46-23.78 14.05-33.82.25-.31.67-.9.95-1.3 9.44-7.42 27.33-17.4 37.49-21.88 6.65-2.99 16.37-4.48 22.32-8.26 9.31 30.92 35.81 20.28 45.55 5.85 2.23-3.76 4.33-7.85 4.39-11.88-.02-.5 0-.91.03-.91.94.65 1.81 1.3 2.44 2.05.14.22.2.58.25 1.4.03.6.11 1.2.18 1.31 11.05 9.97 27.47 14.62 40.27 20.41 7.75 4.61 14.6 8.7 21.28 14.09l1.17 1.06c1.02.9 1.8 1.87 2.45 3.05 2.8 5.72 4.9 11 7.03 16.22v12.69c-66.59-1.14-133.27 1.51-199.85-.08zM131.61 77.86c-1.84-2.89-1.76-6.64-2.39-9.78-.6-3.36-1.23-6.55-1.81-9.75-.54-4.92-.3-8.52-.65-13.51-.15-2.47-.57-3.9-1.71-5.84a8.71 8.71 0 00-3.27-3.2 15.58 15.58 0 00-5.16-1.94c-1.35-.2-5.32-.24-6.85-.07-1.4.16-3.77.5-4.45.63-.82.16-4.76.23-6.26.1-2.28-.18-4.98-.86-6.21-1.58a20 20 0 01-1.25-.8c-1.76-1.24-3.95-1.58-9.92-1.54-4.75.03-5.13.1-7.58 1.22a17.8 17.8 0 00-3.27 1.64c-2.15 1.39-3.3 3.63-4.54 8.9-.8 4.14-1.7 8.7-1.8 11.75a161.2 161.2 0 01-.46 8.8c-.17 2.63-.54 5.25-.54 7.89h-.43a4.2 4.2 0 00-2.95-.85v-7.05l-.02-10.64c-.02-4.48 0-4.68 1.24-8.55 1.21-4.2 2.37-8 3.27-10.7 1.25-2.56 2.1-5.66 3-7.76 1.42-.14 2.51-.14 4.03-.19.14-1.25.32-2.48.47-3.4.1-.7.41-1.4 1.43-3.3.8-1.49.97-1.66 2.59-2.44.77-.37 1.52-.71 1.66-.75 5.04-1.96 9.6-5.32 14.5-7.04 2.38-.82 2.44-.83 5-1.1 3.16-.29 5.67-.24 8.84-.26 1.76.26 3.36 1.36 4.55 2.03 1.73.13 3.02.07 4.85.05 2.65-1.03 4.94-1.96 7.53-2.84 2.94-.55 5.89 2.92 6.86 4.85l.04 2.35.04 2.36.34.61c.43.8.95 1.45 2.13 2.7 1.53 1.4 1.57 2.86 1.58 3.98a6.15 6.15 0 01-.41 3.15c-.24.7-.52 1.46-.62 1.7-.1.28-.18.74-.18 1.2.35 2.16 2.39 4.24 3.29 6.45 1.1 7.36 2.35 14.5 3.09 21.8.2 1.81.33 3.66.5 7.04.08 1.52.22 3.35.31 4.07.1.73.14 1.4.11 1.48-.37.23-.86.36-1.23.51-3.04 2.46-3.7 3.96-5.39 7.05-.33.66-.86 1.19-1.18 1.19-.2 0-.36-.13-.72-.62z"/>
  <path fill="#c98b4f" d="M72.66 114.74c14.92 11.24 29.04 15.69 52.84-3.46-1.52 5.87-.83 11.98-.76 17.99.33 3.4-.76 4.06-1.48 5.63l-.06-19.16c-12.74 10.49-28.31 16.18-50.03 2z"/>
</svg>