<svg xmlns="http://www.w3.org/2000/svg" fill="#fff" width="695.87" height="238.769" viewBox="0 0 184.116 63.174"><path d="M26.09 62.792c-4.608-.773-9.49-2.866-13.256-5.683C2.97 49.73-1.656 37.94.534 25.753 2.945 12.351 14.11 1.947 27.899.256c3.051-.374 4.616-.347 7.884.139C42.754 1.43 48.732 4.4 53.565 9.23c3.971 3.97 6.95 9.139 8.39 14.564.691 2.601.737 3.106.723 7.937-.014 4.718-.075 5.382-.714 7.756-1.542 5.727-3.976 9.986-8.13 14.225-4.985 5.089-10.281 7.873-17.298 9.095-2.844.495-7.44.489-10.447-.015zm10.372-2.883c8.699-1.517 16.48-7.343 20.497-15.346 2.1-4.185 2.993-7.949 3.012-12.7.03-7.917-2.577-14.439-8.05-20.141C40.854.196 22.592.033 11.266 11.36-3.899 26.526 2.26 52.166 22.704 58.97c3.992 1.328 9.408 1.698 13.758.94zM25.26 49.987c-.638-.637-.671-1.143-.114-1.7.316-.317.984-.416 2.787-.416h2.372l-.076-2.825-.075-2.825-1.323-.303c-4.162-.952-7.46-3.918-8.898-8.004-.657-1.866-.986-6.556-.52-7.426.347-.649 1.631-.801 2.082-.247.148.182.312 1.645.365 3.251.088 2.656.175 3.079.954 4.663a10.028 10.028 0 004.78 4.677c1.279.6 1.857.704 3.889.704 2.158 0 2.554-.082 4.133-.86a9.916 9.916 0 004.668-4.782c.562-1.224.717-2.04.836-4.412.08-1.6.243-3.06.36-3.241.273-.421 1.566-.43 1.983-.013.459.459.402 4.803-.088 6.683-1.18 4.53-4.655 7.97-9.06 8.968l-1.515.344-.075 2.824-.075 2.824h2.371c2.509 0 3.203.287 3.203 1.326 0 1.16-.818 1.32-6.806 1.32-5.277 0-5.662-.034-6.158-.53zm4.33-13.237c-1.473-.454-3.362-1.932-4.19-3.278l-.802-1.3-.084-6.334-.083-6.333.692-1.415c.745-1.522 1.685-2.45 3.413-3.367 1.625-.862 4.848-.83 6.604.068 1.507.77 2.68 2.025 3.453 3.697.513 1.11.557 1.665.557 7.025v5.821l-.741 1.51c-1.24 2.524-3.413 3.937-6.27 4.078-.946.046-2.093-.03-2.55-.172zm4.004-2.873c1.224-.565 2.095-1.435 2.496-2.494.164-.434.282-2.882.282-5.87 0-5.31-.131-6.141-1.142-7.244-.743-.81-2.472-1.608-3.488-1.608-1.229 0-2.894.887-3.735 1.99l-.763.999-.08 5.493c-.075 5.018-.037 5.58.434 6.504.623 1.22 1.216 1.783 2.432 2.31 1.227.533 2.287.51 3.564-.08zm45.98 8.937c-1.781-.684-3.626-2.486-4.515-4.41-.936-2.024-1.156-6.14-.445-8.303 1.396-4.242 4.973-6.577 9.545-6.231 3.377.255 5.754 1.738 7.126 4.445.357.705.65 1.345.65 1.423 0 .077-.745.137-1.654.133l-1.654-.008-.692-1.142c-1.002-1.653-2.598-2.372-4.971-2.238-2.227.126-3.626.955-4.697 2.782-.625 1.066-.748 1.613-.84 3.719-.143 3.268.236 4.579 1.79 6.183 2.597 2.68 6.975 2.379 8.83-.607l.792-1.272h1.565c1.5 0 1.559.025 1.388.595-.316 1.054-1.758 3.12-2.657 3.805-2.27 1.732-6.646 2.247-9.561 1.127zm20.637 0c-6.003-2.307-7.544-11.841-2.676-16.56 1.744-1.691 3.34-2.303 6.041-2.316 2.764-.013 4.337.62 6.01 2.416l1.134 1.217v-3.513h3.175v19.05h-3.175v-3.514l-1.114 1.266c-1.6 1.818-3.237 2.51-5.897 2.496-1.461-.008-2.545-.175-3.498-.542zm7.137-2.825c2.436-1.298 3.513-3.554 3.317-6.948-.148-2.549-1.022-4.174-2.937-5.462-3.126-2.102-7.37-.974-9.15 2.432-.59 1.131-.689 1.65-.68 3.572.01 1.897.12 2.456.702 3.572 1.054 2.02 2.518 3.175 4.479 3.537 1.576.29 2.775.093 4.269-.703zm14.341 2.757c-1.916-.892-2.953-2.208-3.416-4.334l-.187-.86h3.112l.538 1.272c.648 1.535 1.757 2.167 3.8 2.167 3.377 0 5.137-2.606 3.11-4.604-.718-.707-1.42-.993-4.245-1.728-5-1.3-6.144-2.266-6.136-5.181.006-2.233.923-3.61 3.163-4.755 1.403-.717 1.8-.796 3.958-.787 1.92.01 2.61.123 3.458.572 1.893 1.002 3.307 3.012 3.307 4.701 0 .636-.074.67-1.463.67-1.166 0-1.492-.094-1.6-.463-.68-2.304-2.452-3.466-4.759-3.12-1.769.265-3.026 1.511-3.026 3 0 .88.158 1.196.936 1.878.514.452.973.822 1.02.822.046 0 1.475.344 3.175.764 4.71 1.165 5.982 2.327 5.982 5.462 0 1.806-.589 2.92-2.05 3.88-1.53 1.004-2.596 1.27-5.067 1.268-1.83-.002-2.538-.124-3.61-.624zm31.83.24c-4.836-1.846-7.185-7.555-5.343-12.988 1.362-4.02 5.41-6.502 9.981-6.12 5.75.482 9.467 5.593 8.437 11.6-.564 3.29-2.165 5.478-5.13 7.012-1.22.631-1.754.733-4.177.799-1.93.052-3.08-.04-3.767-.303zm6.3-2.736c2.163-1.114 3.397-2.998 3.71-5.667.508-4.316-2.048-7.854-5.85-8.096-2.114-.135-3.362.282-4.788 1.596-1.54 1.42-2.088 2.935-2.082 5.765.004 1.779.128 2.5.593 3.45.743 1.521 2.085 2.83 3.404 3.32 1.333.497 3.668.325 5.013-.368zm13.607 2.583c-1.975-.915-3.107-2.32-3.56-4.421l-.186-.86h3.088l.593 1.292c.71 1.549 1.756 2.147 3.752 2.147 1.775 0 3.056-.557 3.572-1.553.645-1.247.52-2.099-.446-3.051-.717-.707-1.42-.993-4.245-1.728-4.992-1.298-6.14-2.264-6.14-5.174 0-2.226.924-3.615 3.168-4.762 1.398-.715 1.807-.797 3.958-.793 2.152.004 2.544.085 3.808.78 1.594.879 2.654 2.388 2.885 4.11l.142 1.059h-1.499c-1.198 0-1.525-.093-1.635-.463-.698-2.36-2.398-3.474-4.758-3.12-2.519.377-3.832 2.751-2.476 4.475.765.972 1.158 1.142 4.619 1.999 1.754.434 3.48 1.038 4.059 1.422 2.057 1.36 2.633 4.554 1.192 6.604-1.235 1.758-2.85 2.43-6.046 2.517-2.234.06-2.843-.015-3.845-.48zm-33.47-.098c-1.105-.492-1.883-1.426-2.222-2.67-.17-.621-.289-3.597-.29-7.21v-6.151H135.062v-2.646h2.38v-4.762h3.175V24.058H145.645v2.646H140.618v12.724l.65.65c.566.566.887.649 2.513.649h1.864V43.108l-2.447-.01c-1.444-.006-2.773-.155-3.241-.363z"/></svg>