<svg xmlns="http://www.w3.org/2000/svg" width="100%" height="100%" viewBox="0 0 245 240" fill-rule="nonzero" stroke-linejoin="round" stroke-miterlimit="2" fill="#fff" xmlns:v="https://vecta.io/nano"><path d="M38.746 6.843a25.44 25.44 0 0 0-13.344 11.47l-2.555 4.77v167.111l3.464 5.621c2.103 3.46 5.029 6.347 8.517 8.404l5.054 2.839 67.855.341c54.625.227 67.855 0 67.855-1.136 0-.852-.965-4.94-2.215-9.142-2.726-9.539-2.953-9.596 9.085 1.874a1075.63 1075.63 0 0 0 24.587 22.372l14.536 12.833.568-211.117-2.612-5.11c-1.76-3.464-4.429-6.189-8.177-8.517l-5.508-3.407-81.824-.227c-55.42-.114-82.959.227-85.287 1.022zm60.133 55.363c-9.085 3.237-24.189 11.924-22.94 13.23.227.227 4.883-1.363 10.278-3.521 27.028-10.902 47.924-9.994 81.426 3.691 1.192.454 1.022-.114-.511-1.874-1.874-2.101-13.23-8.177-23.338-12.379l-2.839-1.192 3.009-.114c4.713-.114 16.41 3.918 23.11 8.006 9.88 5.962 18.909 31.401 21.691 60.984l.738 8.233-4.883 4.656c-5.678 5.394-13.798 9.483-22.599 11.3l-6.133 1.249-3.18-3.804c-4.088-4.883-4.088-4.883 1.703-7.098 4.997-1.874 15.274-10.334 14.082-11.527-.341-.397-3.634.852-7.382 2.726-24.246 12.265-53.659 12.095-76.259-.511-2.726-1.533-5.281-2.498-5.621-2.158-1.136 1.136 5.849 7.268 11.924 10.448 7.041 3.691 6.927 3.237 2.726 8.12l-3.237 3.804L84 153.112c-8.461-1.76-18.795-7.211-23.281-12.322-6.133-6.927-2.101-32.877 9.426-60.984 3.691-9.028 9.256-13.457 22.202-17.603 8.745-2.782 14.366-2.782 6.53 0zm-2.669 40.259c-6.644 3.691-8.063 15.615-2.498 21.237 6.416 6.36 17.943 3.35 20.101-5.167 2.896-11.697-7.836-21.464-17.603-16.069zm42.189-.397c-4.315 1.703-7.325 7.722-6.7 13.514 1.42 13.855 19.874 15.729 23.451 2.385 2.953-11.073-6.473-20.044-16.751-15.899z"/></svg>