<svg xmlns="http://www.w3.org/2000/svg" version="1.0" viewBox="0 0 245 240">
  <g fill="#fff">
    <path d="M49.5 21.2a22.4 22.4 0 00-11.75 10.1l-2.25 4.2V182.65l3.05 4.95a21.63 21.63 0 007.5 7.4l4.45 2.5 59.75.3c48.1.2 59.75 0 59.75-1 0-.75-.85-4.35-1.95-8.05-2.4-8.4-2.6-8.45 8 1.65a946 946 0 0021.65 19.7l12.8 11.3.25-92.95.25-92.95-2.3-4.5c-1.55-3.05-3.9-5.45-7.2-7.5l-4.85-3-72.05-.2c-48.8-.1-73.05.2-75.1.9zm52.95 48.75c-8 2.85-21.3 10.5-20.2 11.65.2.2 4.3-1.2 9.05-3.1 23.8-9.6 42.2-8.8 71.7 3.25 1.05.4.9-.1-.45-1.65-1.65-1.85-11.65-7.2-20.55-10.9l-2.5-1.05 2.65-.1c4.15-.1 14.45 3.45 20.35 7.05 8.7 5.25 16.65 27.65 19.1 53.7l.65 7.25-4.3 4.1c-5 4.75-12.15 8.35-19.9 9.95l-5.4 1.1-2.8-3.35c-3.6-4.3-3.6-4.3 1.5-6.25 4.4-1.65 13.45-9.1 12.4-10.15-.3-.35-3.2.75-6.5 2.4-21.35 10.8-47.25 10.65-67.15-.45-2.4-1.35-4.65-2.2-4.95-1.9-1 1 5.15 6.4 10.5 9.2 6.2 3.25 6.1 2.85 2.4 7.15l-2.85 3.35-5.85-1.2c-7.45-1.55-16.55-6.35-20.5-10.85-5.4-6.1-1.85-28.95 8.3-53.7C80.4 77.5 85.3 73.6 96.7 69.95c7.7-2.45 12.65-2.45 5.75 0z"/>
    <path d="M100.1 105.4c-5.85 3.25-7.1 13.75-2.2 18.7 5.65 5.6 15.8 2.95 17.7-4.55 2.55-10.3-6.9-18.9-15.5-14.15zM137.25 105.05c-3.8 1.5-6.45 6.8-5.9 11.9 1.25 12.2 17.5 13.85 20.65 2.1 2.6-9.75-5.7-17.65-14.75-14z"/>
  </g>
</svg>