<svg xmlns="http://www.w3.org/2000/svg" width="200" height="230.488" xmlns:v="https://vecta.io/nano"><g fill="#fefefe"><path d="M97.365 220.088a89.016 89.013 0 0 1-46.294-14.483 90.14 90.137 0 0 1-12.627-9.95l-3.965-3.985a90.98 90.977 0 0 1-8.686-10.882c-.532-.772-.664-.996-.6-.996.012 0 .456-.16.988-.356 11.723-4.281 27.602-7.497 45.238-9.154a248.295 248.287 0 0 1 7.954-.628c.008.008 4.653 8.042 10.314 17.851l10.314 17.835c.012 0 4.653-8.026 10.314-17.839a3110.772 3110.679 0 0 1 10.346-17.855c.104-.04 4.429.284 7.426.56 17.988 1.636 33.803 4.793 45.954 9.178l.856.32c.028.024-.088.208-.752 1.184a90.764 90.761 0 0 1-8.622 10.782 89.412 89.409 0 0 1-47.883 26.721 91.168 91.165 0 0 1-13.555 1.648c-.736.04-6.041.08-6.721.048zm38.484-65.652c-5.629-.288-11.226-2.332-16.292-5.949-4.141-2.961-7.842-6.973-10.714-11.63-5.153-8.35-7.602-18.556-6.83-28.445.924-11.75 6.417-22.016 14.791-27.645a26.938 26.937 0 0 1 12.619-4.529c.852-.088 3.281-.12 4.209-.06 6.405.416 12.615 3.005 18.08 7.545a40.289 40.288 0 0 1 4.941 4.921 44.93 44.929 0 0 1 7.594 13.086c2.901 7.741 3.769 16.267 2.465 24.165-1.184 7.173-4.125 13.683-8.438 18.68a28.658 28.657 0 0 1-11.703 8.234 27.126 27.125 0 0 1-10.722 1.624zm-21.133-33.246a6.365 6.365 0 0 0 5.481-8.594 6.569 6.569 0 0 0-3.177-3.461 6.349 6.349 0 0 0-6.509.6 8.12 8.12 0 0 0-1.276 1.24 6.341 6.341 0 0 0-.692 6.641 6.721 6.721 0 0 0 2.329 2.609 6.57 6.57 0 0 0 2.865.96c.212.016.408.032.432.04l.548-.04zM61.45 154.007a27.07 27.069 0 0 1-9.27-2.136 34.456 34.455 0 0 1-3.241-1.652 30.059 30.058 0 0 1-8.61-7.833c-3.993-5.321-6.541-11.982-7.35-19.204-.32-2.861-.36-6.033-.12-8.986.784-9.45 4.401-18.6 10.106-25.541a42.605 42.604 0 0 1 5.661-5.661c4.649-3.769 10.062-6.237 15.371-7.001a28.07 28.069 0 0 1 7.014-.14c7.154.792 13.567 4.333 18.468 10.202 4.701 5.621 7.706 13.211 8.45 21.328.148 1.648.176 2.276.176 4.253s-.024 2.588-.176 4.261c-.788 8.734-3.937 17.055-9.018 23.833a39.577 39.576 0 0 1-7.762 7.817c-3.593 2.701-7.51 4.613-11.503 5.617a27.314 27.313 0 0 1-4.709.784c-.904.072-2.653.104-3.489.06zm25.538-32.698a6.373 6.373 0 0 0 4.961-7.569 6.373 6.373 0 0 0-6.189-5.013 6.377 6.377 0 0 0-5.705 3.533 6.333 6.333 0 0 0 .92 7.001 6.457 6.457 0 0 0 4.065 2.136c.076.012.46.012.86.004a5.361 5.361 0 0 0 1.088-.092z"/><g stroke="#0f0e0d"><ellipse cx="114.617" cy="115.15" rx="7.959" ry="8.496" stroke-width="3.9" paint-order="stroke fill markers"/><ellipse cy="115.683" cx="95.885" rx="8.276" ry="8.378" transform="matrix(1 0 -.091024 .995849 0 0)" stroke-width="3.908" paint-order="stroke fill markers"/></g></g><path fill="#fab314" d="M97.617 230.482a101.942 101.939 0 0 1-8.986-.624 99.906 99.903 0 0 1-10.51-1.752l-2.224-.52a106.395 106.392 0 0 1-9.378-2.833 99.422 99.419 0 0 1-32.351-18.964 122.615 122.611 0 0 1-4.309-3.989l-.3-.304 3.657-3.665 3.657-3.661.74.712a90.772 90.769 0 0 0 6.85 5.993 89.18 89.177 0 0 0 55.54 19.252l7.422-.288c22.841-1.868 43.974-12.386 59.389-29.558a90.748 90.745 0 0 0 9.23-12.266 89.06 89.057 0 0 0 13.451-42.02c.16-2.625.208-6.709.104-9.006a92.396 92.394 0 0 0-1.196-11.562l-.136-.784 4.345-4.345a244.526 244.518 0 0 1 4.373-4.321 100.454 100.451 0 0 1 2.865 18.564c.128 2.216.152 3.149.152 5.945s-.024 3.729-.152 5.937a99.598 99.595 0 0 1-22.365 57.331 103.303 103.3 0 0 1-10.81 11.302 99.654 99.651 0 0 1-60.753 25.273c-1.992.12-2.805.14-5.333.152h-2.969zm-7.994-43.1l-12.735-22.064-2.389-4.141 12.751-.012h25.502l12.751.012-2.389 4.141-23.113 39.988z"/><path fill="#279ad5" d="M188.249 114.544l-.26-1.324a89.232 89.229 0 0 0-17.416-38.031 92.156 92.154 0 0 0-6.521-7.441l-.632-.656 3.665-3.665 3.661-3.661 1.04 1.068a99.434 99.431 0 0 1 25.074 44.608l.12.484-4.353 4.357-4.377 4.261z"/><path fill="#7cbb41" d="M162.808 66.506a94.985 94.982 0 0 0-4.473-4.097 89.492 89.489 0 0 0-22.545-14.147 88.796 88.793 0 0 0-18.536-5.761l-1.32-.268c-.056-.02.88-.976 4.281-4.373l4.349-4.353.484.12a99.718 99.715 0 0 1 28.006 12.03 100.158 100.155 0 0 1 16.804 13.243l.88.86-3.649 3.657-3.673 3.653c-.012 0-.284-.256-.608-.568z"/><path fill="#ee5128" d="M28.578 200.508a99.454 99.451 0 0 1-20.06-29.51A100.042 100.039 0 0 1 .156 136.58L0 130.487l.16-6.093A100.286 100.283 0 0 1 6.345 95.28a99.518 99.515 0 0 1 6.974-14.771 100.694 100.691 0 0 1 21.605-25.997A99.422 99.419 0 0 1 61.45 38.157a100.202 100.199 0 0 1 32.463-7.513l6.089-.156 6.093.16c4.529.276 8.962.844 13.383 1.72 1.908.376 4.949 1.068 5.029 1.144l-4.317 4.369-4.345 4.345-1.052-.176a90.408 90.405 0 0 0-32.199.476 89.156 89.153 0 0 0-31.431 12.762 90.28 90.277 0 0 0-26.358 26.361 89.26 89.257 0 0 0-9.926 20.628 89.804 89.801 0 0 0-4.309 34.579 89.248 89.245 0 0 0 13.119 40.712 88.852 88.849 0 0 0 12.147 15.539l1.032 1.064-3.645 3.653-3.669 3.653a30.727 30.726 0 0 1-.976-.968z"/><path fill="#131313" d="M85.099 121.381c-1.428-.16-2.717-.76-3.725-1.732a6.221 6.221 0 0 1-1.948-4.829 6.141 6.141 0 0 1 1.84-4.201 5.829 5.829 0 0 1 1.576-1.164 6.337 6.337 0 0 1 9.122 4.401c.068.336.08.52.08 1.216.004.708-.008.88-.084 1.232a6.317 6.317 0 0 1-1.64 3.137 6.205 6.205 0 0 1-3.545 1.88 7.42 7.42 0 0 1-1.676.06zm28.306-.252a6.349 6.349 0 0 1-5.377-5.157c-.104-.544-.104-1.68 0-2.228a6.781 6.781 0 0 1 1.068-2.56c.144-.2.456-.56.692-.8a6.349 6.349 0 0 1 3.241-1.744c.536-.12 1.844-.128 2.389-.016a6.369 6.369 0 0 1 5.137 5.533 7.24 7.24 0 0 1-.08 1.932 6.357 6.357 0 0 1-7.07 5.041z"/><path fill="#100f0e" d="M24.913 179.448a89.22 89.217 0 0 1-13.579-35.739 91.012 91.009 0 0 1-.724-19.864 89.1 89.097 0 0 1 11.435-37.623A90.076 90.073 0 0 1 42.549 61.69a89.336 89.333 0 0 1 62.254-20.712 89.196 89.193 0 0 1 39.461 11.554 90.02 90.017 0 0 1 24.533 20.504 89.34 89.337 0 0 1 20.717 62.252 89.22 89.217 0 0 1-14.515 44.288l-.08.096-.852-.312c-6.537-2.392-15.019-4.601-23.961-6.229a256.496 256.489 0 0 0-28.242-3.461l-1.176-.092 2.433-4.221 2.437-4.229-51.107.012 2.441 4.241 2.437 4.241-1.556.116a280.12 280.12 0 0 0-11.19 1.024c-16.164 1.82-30.235 4.873-41.113 8.922l-.32.12zm113.237-24.973a26.566 26.565 0 0 0 9.094-1.896c7.758-3.081 14.031-9.858 17.396-18.8 1.52-4.041 2.401-8.366 2.641-12.942.052-.984.052-3.593 0-4.573a47.747 47.745 0 0 0-6.629-22.072 41.733 41.732 0 0 0-8.87-10.454c-5.105-4.265-11.042-6.881-17.004-7.497-1.58-.16-3.813-.18-5.257-.04-6.545.62-12.363 3.401-17.132 8.182-4.777 4.793-8.138 11.302-9.646 18.684-1.368 6.681-1.172 13.763.58 20.736 2.629 10.47 8.782 19.648 16.88 25.173 5.089 3.469 10.786 5.389 16.372 5.513l.488.02zm-72.844-.52c5.689-.588 10.958-2.701 15.823-6.361 9.49-7.129 15.771-19.06 16.86-32.014.16-1.92.208-4.813.104-6.465-.376-6.069-1.78-11.49-4.241-16.403-2.264-4.513-5.401-8.406-9.07-11.262a27.086 27.085 0 0 0-15.043-5.737 37.08 37.08 0 0 0-3.401 0c-6.858.44-13.487 3.389-19.228 8.546-.84.752-2.481 2.42-3.233 3.273-5.873 6.713-9.662 15.335-10.842 24.693a41.089 41.088 0 0 0-.34 5.273c-.028 2.384.04 3.853.28 5.921.76 6.461 2.913 12.474 6.261 17.479 3.541 5.289 8.27 9.19 13.743 11.334a29.206 29.206 0 0 0 4.173 1.248 31.927 31.926 0 0 0 3.721.524c.752.056 3.721.024 4.433-.052z"/><g fill="#0f0e0d"><path d="M158.725 63.084c-5.62-.347-111.336-8.909-114.094-9.087-.869-.104-.961-.059-.747-.626C52.428 35.994 59.27 18.079 67.042 2.566c.696-1.463.968-.88 2.285-.428 2.1.951 22.583 9.251 24.819 10.139.357.131.538.238 1.655.243 15.559-.544 43.695-3.849 50.536-4.305 1.612.1 1.757.574 1.968 1.485l12.167 52.696c.259.951-.659.776-1.747.688z" stroke="#fefefe" stroke-width="3.269"/><path d="M22.851 85.556c-3.699-.76-2.751-2.311-.985-2.974C81.011 60.464 135.333 65.279 180.14 95.215c2.694 2.152 2.838 3.412.699 3.387L22.851 85.556z" stroke="#fff" stroke-width="3.9"/></g><path d="M96.447 112.828h7.086v.644h-7.086z" fill="#fefefe" stroke="#0f0e0d" stroke-width="3.9" paint-order="stroke fill markers"/></svg>