<?xml version="1.0" encoding="UTF-8" standalone="no"?>
<svg
   xmlns:dc="http://purl.org/dc/elements/1.1/"
   xmlns:cc="http://creativecommons.org/ns#"
   xmlns:rdf="http://www.w3.org/1999/02/22-rdf-syntax-ns#"
   xmlns:svg="http://www.w3.org/2000/svg"
   xmlns="http://www.w3.org/2000/svg"
   xmlns:sodipodi="http://sodipodi.sourceforge.net/DTD/sodipodi-0.dtd"
   xmlns:inkscape="http://www.inkscape.org/namespaces/inkscape"
   viewBox="0 0 200 230.4876"
   version="1.1"
   id="svg973"
   sodipodi:docname="goincognitofinal.svg"
   inkscape:version="1.0.1 (c497b03c, 2020-09-10)"
   width="200"
   height="230.48759">
  <metadata
     id="metadata979">
    <rdf:RDF>
      <cc:Work
         rdf:about="">
        <dc:format>image/svg+xml</dc:format>
        <dc:type
           rdf:resource="http://purl.org/dc/dcmitype/StillImage" />
        <dc:title></dc:title>
      </cc:Work>
    </rdf:RDF>
  </metadata>
  <defs
     id="defs977" />
  <sodipodi:namedview
     pagecolor="#ffffff"
     bordercolor="#666666"
     borderopacity="1"
     objecttolerance="10"
     gridtolerance="10"
     guidetolerance="10"
     inkscape:pageopacity="0"
     inkscape:pageshadow="2"
     inkscape:window-width="1792"
     inkscape:window-height="1016"
     id="namedview975"
     showgrid="false"
     inkscape:zoom="1.0866213"
     inkscape:cx="-109.06453"
     inkscape:cy="-136.30914"
     inkscape:window-x="0"
     inkscape:window-y="23"
     inkscape:window-maximized="0"
     inkscape:current-layer="svg973" />
  <path
     fill="#fefefe"
     d="M 97.365421,220.08761 A 89.015584,89.012911 0 0 1 51.071236,205.60486 90.139831,90.137125 0 0 1 38.444458,195.65497 c -0.976215,-0.92418 -3.124688,-3.08059 -3.964872,-3.98476 a 90.980016,90.977285 0 0 1 -8.685911,-10.88206 c -0.532117,-0.77215 -0.664146,-0.99619 -0.600132,-0.99619 0.012,0 0.4561,-0.16003 0.988217,-0.35607 11.722579,-4.28081 27.602073,-7.49743 45.237952,-9.15374 a 248.29463,248.28717 0 0 1 7.95375,-0.62812 c 0.008,0.008 4.653024,8.04153 10.314269,17.85139 5.661246,9.80987 10.302269,17.83539 10.314269,17.83539 0.012,0 4.65302,-8.02552 10.31427,-17.83939 a 3110.7724,3110.679 0 0 1 10.34628,-17.85539 c 0.10402,-0.04 4.42897,0.28405 7.42563,0.5601 17.98796,1.63632 33.80344,4.79292 45.95411,9.17775 0.4601,0.16803 0.84819,0.30806 0.85619,0.32006 0.028,0.024 -0.088,0.20804 -0.75217,1.18422 a 90.763968,90.761244 0 0 1 -8.62189,10.78205 89.411671,89.408987 0 0 1 -47.88254,26.72108 91.168057,91.16532 0 0 1 -13.55498,1.64831 c -0.73616,0.04 -6.04133,0.08 -6.721479,0.048 z m 38.484469,-65.65247 c -5.62924,-0.28806 -11.22647,-2.33244 -16.29159,-5.94913 -4.14091,-2.96056 -7.84172,-6.97333 -10.71435,-11.63021 -5.15314,-8.34959 -7.60168,-18.55553 -6.82951,-28.4454 0.92421,-11.750236 6.41742,-22.016186 14.79126,-27.645256 a 26.937926,26.937118 0 0 1 12.61877,-4.528861 c 0.85219,-0.08802 3.28073,-0.120023 4.20893,-0.06001 6.40541,0.416079 12.61477,3.004572 18.07998,7.545435 a 40.288864,40.287654 0 0 1 4.94108,4.920935 44.929885,44.928536 0 0 1 7.59367,13.086487 c 2.90064,7.74147 3.76883,16.26709 2.46455,24.16459 -1.18426,7.17336 -4.12491,13.6826 -8.43786,18.67955 a 28.658305,28.657445 0 0 1 -11.70257,8.23356 27.125968,27.125153 0 0 1 -10.72236,1.62431 z m -21.13265,-33.24632 a 6.3654004,6.3652093 0 0 0 5.4812,-8.59363 6.5694453,6.5692481 0 0 0 -3.1767,-3.46066 6.3493969,6.3492063 0 0 0 -6.50943,0.60012 c -0.38808,0.28405 -0.96421,0.84816 -1.27628,1.24023 a 6.3413951,6.3412048 0 0 0 -0.69215,6.64126 6.7214787,6.721277 0 0 0 2.32851,2.6085 c 0.81218,0.5201 1.88842,0.88017 2.86463,0.96018 0.21205,0.016 0.40809,0.032 0.4321,0.04 l 0.54812,-0.04 z m -53.267721,32.81824 a 27.069955,27.069143 0 0 1 -9.270039,-2.13641 34.45558,34.454546 0 0 1 -3.240713,-1.65231 30.058613,30.057711 0 0 1 -8.609895,-7.83349 c -3.992878,-5.32101 -6.541439,-11.98228 -7.349617,-19.20365 -0.32007,-2.86054 -0.360079,-6.03314 -0.120026,-8.9857 0.784173,-9.4498 4.400968,-18.599538 10.106223,-25.540857 a 42.605373,42.604094 0 0 1 5.661246,-5.661075 c 4.649023,-3.768716 10.062214,-6.237186 15.371382,-7.001332 a 28.070175,28.069333 0 0 1 7.013543,-0.140026 c 7.153573,0.79215 13.566984,4.332824 18.468063,10.201939 4.701034,5.621068 7.705695,13.21051 8.449859,21.328051 0.148032,1.64831 0.176038,2.27643 0.176038,4.25281 0,1.97237 -0.024,2.58849 -0.176038,4.26081 -0.788174,8.73366 -3.936866,17.05524 -9.017984,23.83252 a 39.576707,39.575519 0 0 1 -7.761708,7.81749 c -3.59279,2.70051 -7.509652,4.61288 -11.50253,5.61707 a 27.314009,27.313189 0 0 1 -4.709036,0.78415 c -0.904199,0.072 -2.652584,0.10402 -3.488768,0.06 z m 25.537618,-32.69821 a 6.3734022,6.3732108 0 0 0 4.961092,-7.56944 6.3734022,6.3732108 0 0 0 -6.189362,-5.01295 6.377403,6.3772116 0 0 0 -5.705255,3.53267 6.3333934,6.3332032 0 0 0 0.920202,7.00133 6.4574206,6.4572268 0 0 0 4.064895,2.1364 c 0.07602,0.012 0.460101,0.012 0.860189,0.004 a 5.3611795,5.3610185 0 0 0 1.088239,-0.092 z"
     id="path959"
     style="stroke-width:0.999995" />
  <ellipse
     style="fill:#fefefe;fill-opacity:1;stroke:#0f0e0d;stroke-width:3.90002;stroke-miterlimit:4;stroke-dasharray:none;stroke-opacity:1;paint-order:stroke fill markers"
     id="path1621-3"
     cx="114.61732"
     cy="115.1496"
     rx="7.9587383"
     ry="8.4962387" />
  <ellipse
     style="fill:#fefefe;fill-opacity:1;stroke:#0f0e0d;stroke-width:3.90813;stroke-miterlimit:4;stroke-dasharray:none;stroke-opacity:1;paint-order:stroke fill markers"
     id="path1621"
     cy="115.68303"
     cx="95.885277"
     rx="8.2757072"
     ry="8.3777857"
     transform="matrix(1,0,-0.09102445,0.99584866,0,0)" />
  <path
     fill="#fab314"
     d="m 97.617476,230.48159 a 101.94243,101.93937 0 0 1 -8.985977,-0.62412 99.905979,99.90298 0 0 1 -10.510312,-1.75233 c -0.580128,-0.12003 -1.652364,-0.37208 -2.22449,-0.5201 a 106.39541,106.39221 0 0 1 -9.378063,-2.83254 99.421873,99.418888 0 0 1 -32.351117,-18.9636 122.61498,122.61129 0 0 1 -4.308948,-3.98876 l -0.300066,-0.30406 3.656804,-3.6647 3.656805,-3.66069 0.740163,0.71213 a 90.77197,90.769245 0 0 0 6.849507,5.99314 89.17962,89.176943 0 0 0 55.540218,19.25166 c 2.90864,0 4.78105,-0.072 7.42163,-0.28806 22.84103,-1.86835 43.97368,-12.38635 59.38907,-29.55761 a 90.747965,90.745241 0 0 0 9.23003,-12.26633 89.059593,89.05692 0 0 0 13.45096,-42.01998 c 0.16003,-2.6245 0.20804,-6.70928 0.10402,-9.00571 a 92.396327,92.393554 0 0 0 -1.19626,-11.5622 l -0.13603,-0.78415 4.34495,-4.34483 a 244.5258,244.51846 0 0 1 4.37297,-4.32082 100.4541,100.45108 0 0 1 2.86463,18.56353 c 0.12803,2.21642 0.15203,3.1486 0.15203,5.94513 0,2.80053 -0.024,3.72871 -0.15203,5.93713 a 99.597912,99.594922 0 0 1 -22.36492,57.33089 103.30273,103.29963 0 0 1 -10.81038,11.30215 99.653924,99.650933 0 0 1 -60.75337,25.2728 c -1.99244,0.12002 -2.80461,0.14002 -5.33317,0.15203 -1.40431,0.008 -2.740604,0.008 -2.968654,0 z m -7.993759,-43.10019 -12.734801,-22.06419 -2.388526,-4.14079 12.750805,-0.012 h 25.501615 l 12.7508,0.012 -2.38852,4.14079 -23.11309,39.98759 z"
     id="path961"
     style="stroke-width:0.999995" />
  <path
     fill="#279ad5"
     d="m 188.24942,114.54356 -0.26006,-1.32425 A 89.231631,89.228953 0 0 0 170.57353,75.188084 92.156275,92.153508 0 0 0 164.05209,67.74667 l -0.63214,-0.656125 3.66481,-3.664696 3.6608,-3.660696 1.04023,1.068203 a 99.433876,99.430891 0 0 1 25.07352,44.608474 l 0.12003,0.48409 -4.35296,4.35683 c -3.85685,3.85673 -4.36096,4.34483 -4.37696,4.26081 z"
     id="path963"
     style="stroke-width:0.999995" />
  <path
     fill="#7cbb41"
     d="M 162.80782,66.506434 A 94.984897,94.982046 0 0 0 158.33483,62.409656 89.491688,89.489002 0 0 0 135.78987,48.262969 88.795535,88.79287 0 0 0 117.2538,42.501875 l -1.32029,-0.268051 c -0.056,-0.02 0.88019,-0.976186 4.28094,-4.372831 l 4.34895,-4.352827 0.48411,0.120022 a 99.717938,99.714945 0 0 1 28.00616,12.030286 100.15803,100.15503 0 0 1 16.8037,13.242515 l 0.88019,0.860164 -3.6488,3.656694 c -2.01244,2.008382 -3.66481,3.652694 -3.67281,3.652694 -0.012,0 -0.28406,-0.256048 -0.60813,-0.568108 z"
     id="path965"
     style="stroke-width:0.999995" />
  <path
     fill="#ee5128"
     d="M 28.578287,200.50789 A 99.45388,99.450895 0 0 1 8.5178738,170.99829 100.04201,100.03901 0 0 1 0.156034,136.57975 C 0.020004,134.32732 0,133.57918 0,130.48659 0,127.394 0.02,126.64586 0.160035,124.39343 A 100.28606,100.28305 0 0 1 6.345396,95.279902 99.517894,99.514907 0 0 1 13.31893,80.509096 100.69415,100.69113 0 0 1 34.923683,54.512156 99.421873,99.418888 0 0 1 61.449519,38.157049 100.20204,100.19904 0 0 1 93.912661,30.643621 c 2.248495,-0.136026 2.996659,-0.156029 6.089339,-0.156029 3.09268,0 3.84085,0.02 6.09334,0.16003 4.529,0.276052 8.96197,0.84416 13.38295,1.720327 1.90842,0.376071 4.94908,1.068203 5.0291,1.144217 l -4.31695,4.36883 -4.34495,4.344826 -1.05224,-0.176033 a 90.40789,90.405176 0 0 0 -32.199079,0.47609 89.155614,89.152938 0 0 0 -31.430915,12.762425 90.279862,90.277152 0 0 0 -26.357799,26.361008 89.259637,89.256958 0 0 0 -9.926184,20.627918 89.803757,89.801061 0 0 0 -4.308948,34.57857 89.247635,89.244956 0 0 0 13.118887,40.71173 88.851547,88.84888 0 0 0 12.146672,15.53896 l 1.032227,1.0642 -3.644802,3.65269 -3.668807,3.6527 a 30.72676,30.725838 0 0 1 -0.976215,-0.96819 z"
     id="path967"
     style="stroke-width:0.999995" />
  <path
     fill="#131313"
     d="m 85.098722,121.38086 c -1.428314,-0.16003 -2.716598,-0.76014 -3.72482,-1.73233 a 6.2213687,6.221182 0 0 1 -1.948428,-4.82892 6.1413511,6.1411668 0 0 1 1.840405,-4.20079 5.8292825,5.8291075 0 0 1 1.576346,-1.16423 6.3373942,6.337204 0 0 1 9.122007,4.40084 c 0.06801,0.33606 0.08002,0.5201 0.08002,1.21623 0.004,0.70814 -0.008,0.88017 -0.08402,1.23224 a 6.3173898,6.3172002 0 0 1 -1.64036,3.13659 6.2053652,6.2051789 0 0 1 -3.54478,1.88036 c -0.440097,0.08 -1.268279,0.10802 -1.676369,0.06 z m 28.306228,-0.25205 a 6.3493969,6.3492063 0 0 1 -5.37718,-5.15698 c -0.10403,-0.5441 -0.10403,-1.68032 0,-2.22842 a 6.7814919,6.7812884 0 0 1 1.06823,-2.56049 c 0.14403,-0.20004 0.4561,-0.5601 0.69215,-0.80015 a 6.3493969,6.3492063 0 0 1 3.24072,-1.74433 c 0.53611,-0.12002 1.8444,-0.12803 2.38852,-0.016 a 6.3694013,6.3692101 0 0 1 5.13713,5.53305 c 0.064,0.5401 0.028,1.42027 -0.08,1.93237 a 6.3573986,6.3572078 0 0 1 -7.06955,5.04096 z"
     id="path969"
     style="stroke-width:0.999995" />
  <path
     fill="#100f0e"
     d="M 24.913481,179.44789 A 89.219628,89.21695 0 0 1 11.334494,143.7091 91.012023,91.009291 0 0 1 10.610334,123.84533 89.099602,89.096927 0 0 1 22.04485,86.222181 90.075817,90.073113 0 0 1 42.549361,61.689519 89.335654,89.332972 0 0 1 104.80306,40.977585 a 89.195623,89.192946 0 0 1 39.46068,11.554195 90.019804,90.017102 0 0 1 24.5334,20.503895 89.339655,89.336973 0 0 1 20.71655,62.251825 89.219628,89.21695 0 0 1 -14.51519,44.28842 l -0.08,0.096 -0.85219,-0.31206 c -6.53743,-2.39245 -15.0193,-4.60087 -23.96127,-6.22918 a 256.49643,256.48873 0 0 0 -28.24221,-3.46066 l -1.17626,-0.092 2.43254,-4.22081 2.43653,-4.2288 -51.107241,0.012 2.440537,4.24081 2.436536,4.2408 -1.556343,0.11603 c -3.452759,0.24004 -7.68169,0.62812 -11.190462,1.02419 -16.163556,1.82035 -30.234651,4.87293 -41.113045,8.9217 l -0.32007,0.12002 z M 138.15039,154.47515 a 26.565845,26.565047 0 0 0 9.094,-1.89636 c 7.75771,-3.08059 14.03109,-9.85788 17.39583,-18.79958 1.52034,-4.04076 2.40053,-8.36558 2.64058,-12.94245 0.052,-0.98419 0.052,-3.59269 0,-4.57287 a 47.746504,47.745071 0 0 0 -6.62946,-22.072195 41.733181,41.731929 0 0 0 -8.86995,-10.453986 c -5.10512,-4.26481 -11.04243,-6.881308 -17.00374,-7.497425 -1.58035,-0.160031 -3.81284,-0.180035 -5.25716,-0.04001 -6.54544,0.620118 -12.36272,3.400647 -17.13176,8.181555 -4.77706,4.792911 -8.13779,11.302148 -9.64613,18.683551 -1.3683,6.68127 -1.17225,13.76261 0.58013,20.73594 2.62858,10.46999 8.78193,19.64773 16.87971,25.17278 5.08912,3.46866 10.78638,5.38902 16.37161,5.51305 l 0.4881,0.02 z m -72.844022,-0.5201 c 5.689251,-0.58811 10.95841,-2.70052 15.823481,-6.36121 9.490088,-7.12936 15.771469,-19.05962 16.859709,-32.01408 0.160035,-1.92037 0.208046,-4.81292 0.104023,-6.46523 C 97.717498,103.04538 96.313189,97.624347 93.852648,92.711414 91.58815,88.198556 88.451459,84.305817 84.782652,81.449274 A 27.085959,27.085146 0 0 0 69.739343,75.712183 c -0.800176,-0.05201 -2.596571,-0.05201 -3.400748,0 -6.857509,0.440084 -13.486968,3.388645 -19.228231,8.545625 -0.840184,0.752143 -2.480545,2.42046 -3.232711,3.272622 -5.873292,6.713275 -9.662126,15.33491 -10.842385,24.69269 a 41.08904,41.087806 0 0 0 -0.340075,5.273 c -0.02801,2.38446 0.04001,3.85273 0.280062,5.92113 0.760167,6.46122 2.91264,12.47437 6.261377,17.47932 3.540779,5.289 8.269819,9.18974 13.743024,11.33415 a 29.206425,29.205549 0 0 0 4.172918,1.24824 31.927024,31.926066 0 0 0 3.720818,0.5241 c 0.752166,0.056 3.720819,0.024 4.432976,-0.052 z"
     id="path971"
     style="stroke-width:0.999995" />
  <path
     style="fill:#0f0e0d;stroke:#fefefe;stroke-width:3.2693;stroke-miterlimit:4;stroke-dasharray:none;stroke-opacity:1"
     d="M 158.72486,63.083766 C 153.10484,62.736299 47.3886,54.174941 44.630826,53.997167 43.761683,53.893499 43.670045,53.938647 43.883494,53.370955 52.428305,35.994092 59.269766,18.078909 67.042259,2.5662787 c 0.696031,-1.462788 0.968486,-0.879969 2.284876,-0.428397 2.1004,0.951459 22.582598,9.2511973 24.818708,10.1392243 0.35689,0.131069 0.53792,0.237565 1.65525,0.242888 15.558797,-0.543614 43.694997,-3.8494433 50.535857,-4.3050013 1.61179,0.09976 1.75736,0.573622 1.96819,1.484597 0.74475,3.1936743 8.39064,35.6389263 12.16692,52.6958193 0.25908,0.950705 -0.65869,0.775951 -1.7472,0.688357 z"
     id="path954"
     sodipodi:nodetypes="ccccccccccc" />
  <path
     style="mix-blend-mode:normal;fill:#0f0e0d;stroke:#ffffff;stroke-width:3.9;stroke-miterlimit:4;stroke-dasharray:none;stroke-opacity:1"
     d="M 22.851096,85.555964 C 19.151814,84.796131 20.10052,83.244926 21.866258,82.581931 81.010739,60.463981 135.33337,65.278693 180.13973,95.214916 c 2.69447,2.152274 2.83846,3.412268 0.69893,3.38732 C 128.27124,93.701862 70.655974,88.682113 22.851096,85.555964 Z"
     id="path942"
     sodipodi:nodetypes="ccccc" />
  <rect
     style="fill:#fefefe;fill-opacity:1;stroke:#0f0e0d;stroke-width:3.9;stroke-miterlimit:4;stroke-dasharray:none;stroke-opacity:1;paint-order:stroke fill markers"
     id="rect1638"
     width="7.0855246"
     height="0.64420724"
     x="96.447029"
     y="112.8283"
     ry="0" />
</svg>
