<?xml version="1.0" encoding="UTF-8" standalone="no"?>
<!DOCTYPE svg PUBLIC "-//W3C//DTD SVG 1.1//EN" "http://www.w3.org/Graphics/SVG/1.1/DTD/svg11.dtd">
<svg width="100%" height="100%" viewBox="0 0 400 461" version="1.1" xmlns="http://www.w3.org/2000/svg" xmlns:xlink="http://www.w3.org/1999/xlink" xml:space="preserve" xmlns:serif="http://www.serif.com/" style="fill-rule:evenodd;clip-rule:evenodd;">
    <g transform="matrix(2,0,0,2,0,0)">
        <g>
            <path d="M97.365,220.088C80.892,219.639 64.863,214.624 51.071,205.605C46.574,202.671 42.348,199.341 38.444,195.655L34.479,191.67C31.31,188.27 28.406,184.632 25.793,180.788C25.261,180.016 25.129,179.792 25.193,179.792C25.205,179.792 25.649,179.632 26.181,179.436C37.904,175.155 53.783,171.939 71.419,170.282C74.067,170.03 76.718,169.821 79.373,169.654C79.381,169.662 84.026,177.696 89.687,187.505L100.001,205.34C100.013,205.34 104.654,197.314 110.315,187.501C113.744,181.538 117.193,175.586 120.661,169.646C120.765,169.606 125.09,169.93 128.087,170.206C146.075,171.842 161.89,174.999 174.041,179.384L174.897,179.704C174.925,179.728 174.809,179.912 174.145,180.888C171.549,184.696 168.667,188.3 165.523,191.67C152.757,205.37 136.003,214.719 117.64,218.391C113.169,219.278 108.638,219.829 104.085,220.039C103.349,220.079 98.044,220.119 97.364,220.087L97.365,220.088ZM135.849,154.436C130.22,154.148 124.623,152.104 119.557,148.487C115.416,145.526 111.715,141.514 108.843,136.857C103.69,128.507 101.241,118.301 102.013,108.412C102.937,96.662 108.43,86.396 116.804,80.767C120.561,78.218 124.902,76.66 129.423,76.238C130.275,76.15 132.704,76.118 133.632,76.178C140.037,76.594 146.247,79.183 151.712,83.723C153.498,85.217 155.151,86.864 156.653,88.644C159.906,92.545 162.474,96.97 164.247,101.73C167.148,109.471 168.016,117.997 166.712,125.895C165.528,133.068 162.587,139.578 158.274,144.575C155.132,148.265 151.105,151.098 146.571,152.809C143.143,154.066 139.496,154.619 135.849,154.433L135.849,154.436ZM114.716,121.19C118.02,120.943 120.607,118.156 120.607,114.843C120.607,114.075 120.468,113.314 120.197,112.596C119.601,111.091 118.469,109.857 117.02,109.135C114.909,108.118 112.4,108.35 110.511,109.735C110.042,110.1 109.614,110.516 109.235,110.975C107.765,112.875 107.497,115.454 108.543,117.616C109.075,118.676 109.879,119.576 110.872,120.225C111.739,120.763 112.72,121.092 113.737,121.185C113.949,121.201 114.145,121.217 114.169,121.225L114.717,121.185L114.716,121.19ZM61.45,154.007C58.258,153.848 55.12,153.125 52.18,151.871C51.071,151.378 49.989,150.826 48.939,150.219C45.586,148.194 42.661,145.533 40.329,142.386C36.336,137.065 33.788,130.404 32.979,123.182C32.659,120.321 32.619,117.149 32.859,114.196C33.643,104.746 37.26,95.596 42.965,88.655C44.67,86.595 46.565,84.699 48.626,82.994C53.275,79.225 58.688,76.757 63.997,75.993C66.32,75.653 68.676,75.606 71.011,75.853C78.165,76.645 84.578,80.186 89.479,86.055C94.18,91.676 97.185,99.266 97.929,107.383C98.077,109.031 98.105,109.659 98.105,111.636C98.105,113.613 98.081,114.224 97.929,115.897C97.141,124.631 93.992,132.952 88.911,139.73C86.701,142.685 84.088,145.316 81.149,147.547C77.556,150.248 73.639,152.16 69.646,153.164C68.102,153.562 66.527,153.825 64.937,153.948C64.033,154.02 62.284,154.052 61.448,154.008L61.45,154.007ZM86.988,121.309C89.945,120.706 92.088,118.082 92.088,115.064C92.088,114.619 92.042,114.175 91.949,113.74C91.315,110.837 88.731,108.744 85.76,108.727C83.346,108.728 81.132,110.1 80.055,112.26C78.914,114.559 79.279,117.335 80.975,119.261C82.022,120.447 83.469,121.207 85.04,121.397C85.116,121.409 85.5,121.409 85.9,121.401C86.265,121.407 86.629,121.377 86.988,121.309Z" style="fill:rgb(254,254,254);fill-rule:nonzero;"/>
            <g>
                <ellipse cx="114.617" cy="115.15" rx="7.959" ry="8.496" style="fill:rgb(254,254,254);stroke:rgb(15,14,13);stroke-width:3.9px;"/>
                <g transform="matrix(1,0,-0.091024,0.995849,0,0)">
                    <ellipse cx="95.885" cy="115.683" rx="8.276" ry="8.378" style="fill:rgb(254,254,254);stroke:rgb(15,14,13);stroke-width:3.91px;"/>
                </g>
            </g>
        </g>
        <path d="M97.617,230.482C94.614,230.406 91.616,230.198 88.631,229.858C85.099,229.461 81.591,228.877 78.121,228.106L75.897,227.586C72.729,226.786 69.6,225.841 66.519,224.753C54.63,220.541 43.651,214.105 34.168,205.789C32.7,204.494 31.263,203.164 29.859,201.8L29.559,201.496L33.216,197.831L36.873,194.17L37.613,194.882C39.795,196.993 42.081,198.993 44.463,200.875C60.265,213.382 79.85,220.171 100.003,220.127L107.425,219.839C130.266,217.971 151.399,207.453 166.814,190.281C170.232,186.46 173.319,182.357 176.044,178.015C183.981,165.359 188.607,150.907 189.495,135.995C189.655,133.37 189.703,129.286 189.599,126.989C189.443,123.114 189.044,119.252 188.403,115.427L188.267,114.643L192.612,110.298C194.052,108.839 195.509,107.399 196.985,105.977C198.518,112.062 199.477,118.277 199.85,124.541C199.978,126.757 200.002,127.69 200.002,130.486C200.002,133.282 199.978,134.215 199.85,136.423C198.634,157.412 190.803,177.486 177.485,193.754C174.172,197.789 170.559,201.567 166.675,205.056C149.873,220.113 128.446,229.026 105.922,230.329C103.93,230.449 103.117,230.469 100.589,230.481L97.62,230.481L97.617,230.482ZM89.623,187.382L76.888,165.318L74.499,161.177L87.25,161.165L112.752,161.165L125.503,161.177L123.114,165.318L100.001,205.306L89.623,187.382Z" style="fill:rgb(250,179,20);fill-rule:nonzero;"/>
        <path d="M188.249,114.544L187.989,113.22C185.279,99.343 179.309,86.306 170.573,75.189C168.534,72.594 166.357,70.11 164.052,67.748L163.42,67.092L170.746,59.766L171.786,60.834C183.892,73.26 192.537,88.641 196.86,105.442L196.98,105.926L192.627,110.283L188.25,114.544L188.249,114.544Z" style="fill:rgb(39,154,213);fill-rule:nonzero;"/>
        <path d="M162.808,66.506C161.361,65.093 159.869,63.727 158.335,62.409C151.567,56.596 143.968,51.828 135.79,48.262C129.84,45.67 123.625,43.738 117.254,42.501L115.934,42.233C115.878,42.213 116.814,41.257 120.215,37.86L124.564,33.507L125.048,33.627C134.945,36.178 144.39,40.236 153.054,45.657C159.112,49.459 164.746,53.898 169.858,58.9L170.738,59.76L167.089,63.417L163.416,67.07C163.404,67.07 163.132,66.814 162.808,66.502L162.808,66.506Z" style="fill:rgb(124,187,65);fill-rule:nonzero;"/>
        <path d="M28.578,200.508C20.167,191.961 13.371,181.963 8.518,170.998C3.706,160.114 0.874,148.459 0.156,136.58L0,130.487L0.16,124.394C0.762,114.436 2.847,104.623 6.345,95.28C8.261,90.174 10.593,85.233 13.319,80.509C19.004,70.688 26.309,61.898 34.924,54.512C42.851,47.7 51.803,42.18 61.45,38.157C71.776,33.859 82.749,31.319 93.913,30.644L100.002,30.488L106.095,30.648C110.624,30.924 115.057,31.492 119.478,32.368C121.386,32.744 124.427,33.436 124.507,33.512L120.19,37.881L115.845,42.226L114.793,42.05C104.118,40.281 93.212,40.442 82.594,42.526C71.397,44.729 60.726,49.062 51.163,55.288C40.639,62.145 31.661,71.124 24.805,81.649C20.625,88.07 17.289,95.004 14.879,102.277C11.199,113.411 9.735,125.159 10.57,136.856C11.578,151.289 16.081,165.262 23.689,177.568C27.149,183.182 31.223,188.394 35.836,193.107L36.868,194.171L33.223,197.824L29.554,201.477C29.221,201.162 28.896,200.839 28.578,200.509L28.578,200.508Z" style="fill:rgb(238,81,40);fill-rule:nonzero;"/>
        <path d="M85.099,121.381C83.671,121.221 82.382,120.621 81.374,119.649C80.051,118.402 79.338,116.636 79.426,114.82C79.474,113.235 80.134,111.729 81.266,110.619C81.722,110.145 82.255,109.751 82.842,109.455C83.74,108.991 84.737,108.75 85.748,108.75C88.761,108.75 91.379,110.9 91.964,113.856C92.032,114.192 92.044,114.376 92.044,115.072C92.048,115.78 92.036,115.952 91.96,116.304C91.723,117.484 91.154,118.573 90.32,119.441C89.379,120.443 88.132,121.104 86.775,121.321C86.22,121.404 85.658,121.424 85.099,121.381ZM113.405,121.129C110.694,120.754 108.516,118.665 108.028,115.972C107.924,115.428 107.924,114.292 108.028,113.744C108.204,112.826 108.567,111.955 109.096,111.184C109.24,110.984 109.552,110.624 109.788,110.384C110.672,109.496 111.8,108.889 113.029,108.64C113.565,108.52 114.873,108.512 115.418,108.624C118.149,109.144 120.239,111.395 120.555,114.157C120.615,114.802 120.588,115.451 120.475,116.089C119.815,119.35 116.702,121.569 113.405,121.13L113.405,121.129Z" style="fill:rgb(19,19,19);fill-rule:nonzero;"/>
        <path d="M24.913,179.448C17.858,168.657 13.225,156.463 11.334,143.709C10.368,137.134 10.125,130.473 10.61,123.845C11.572,110.609 15.479,97.754 22.045,86.222C27.362,76.888 34.306,68.579 42.549,61.69C59.917,47.145 82.183,39.737 104.803,40.978C118.676,41.704 132.19,45.66 144.264,52.532C153.6,57.848 161.909,64.792 168.797,73.036C183.344,90.403 190.753,112.668 189.514,135.288C188.685,151.075 183.675,166.361 174.999,179.576L174.919,179.672L174.067,179.36C167.53,176.968 159.048,174.759 150.106,173.131C140.763,171.456 131.335,170.3 121.864,169.67L120.688,169.578L123.121,165.357L125.558,161.128L74.451,161.14L76.892,165.381L79.329,169.622L77.773,169.738C74.037,170.004 70.306,170.346 66.583,170.762C50.419,172.582 36.348,175.635 25.47,179.684L25.15,179.804L24.913,179.448ZM138.15,154.475C141.269,154.382 144.348,153.74 147.244,152.579C155.002,149.498 161.275,142.721 164.64,133.779C166.16,129.738 167.041,125.413 167.281,120.837C167.333,119.853 167.333,117.244 167.281,116.264C166.907,108.476 164.631,100.897 160.652,94.192C158.292,90.242 155.295,86.71 151.782,83.738C146.677,79.473 140.74,76.857 134.778,76.241C133.198,76.081 130.965,76.061 129.521,76.201C122.976,76.821 117.158,79.602 112.389,84.383C107.612,89.176 104.251,95.685 102.743,103.067C101.375,109.748 101.571,116.83 103.323,123.803C105.952,134.273 112.105,143.451 120.203,148.976C125.292,152.445 130.989,154.365 136.575,154.489L137.063,154.509L138.15,154.475ZM65.306,153.955C70.995,153.367 76.264,151.254 81.129,147.594C90.619,140.465 96.9,128.534 97.989,115.58C98.149,113.66 98.197,110.767 98.093,109.115C97.717,103.046 96.313,97.625 93.852,92.712C91.588,88.199 88.451,84.306 84.782,81.45C80.466,78.058 75.218,76.056 69.739,75.713C68.606,75.661 67.471,75.661 66.338,75.713C59.48,76.153 52.851,79.102 47.11,84.259C46.27,85.011 44.629,86.679 43.877,87.532C38.004,94.245 34.215,102.867 33.035,112.225C32.809,113.974 32.695,115.735 32.695,117.498C32.667,119.882 32.735,121.351 32.975,123.419C33.735,129.88 35.888,135.893 39.236,140.898C42.777,146.187 47.506,150.088 52.979,152.232C54.337,152.751 55.732,153.168 57.152,153.48C58.381,153.728 59.623,153.903 60.873,154.004C61.625,154.06 64.594,154.028 65.306,153.952L65.306,153.955Z" style="fill:rgb(16,15,14);fill-rule:nonzero;"/>
        <g>
            <path d="M158.725,63.084C153.105,62.737 47.389,54.175 44.631,53.997C43.762,53.893 43.67,53.938 43.884,53.371C52.428,35.994 59.27,18.079 67.042,2.566C67.738,1.103 68.01,1.686 69.327,2.138C71.427,3.089 91.91,11.389 94.146,12.277C94.503,12.408 94.684,12.515 95.801,12.52C111.36,11.976 139.496,8.671 146.337,8.215C147.949,8.315 148.094,8.789 148.305,9.7L160.472,62.396C160.731,63.347 159.813,63.172 158.725,63.084Z" style="fill:rgb(15,14,13);fill-rule:nonzero;stroke:rgb(254,254,254);stroke-width:3.27px;"/>
            <path d="M22.851,85.556C19.152,84.796 20.1,83.245 21.866,82.582C81.011,60.464 135.333,65.279 180.14,95.215C182.834,97.367 182.978,98.627 180.839,98.602L22.851,85.556Z" style="fill:rgb(15,14,13);fill-rule:nonzero;stroke:white;stroke-width:3.9px;"/>
        </g>
        <rect x="96.447" y="112.828" width="7.086" height="0.644" style="fill:rgb(254,254,254);fill-rule:nonzero;stroke:rgb(15,14,13);stroke-width:3.9px;"/>
    </g>
</svg>
