<svg xmlns="http://www.w3.org/2000/svg" fill="#fff" width="200mm" height="106.598" viewBox="0 0 200 28.204"><path d="M14.107 0a1.771 1.771 0 00-1.573 1.006l-.159.322-.016 1.258c-.013 1.054-.003 1.304.064 1.54.193.677.721 1.162 1.392 1.28.744.132 1.535-.271 1.883-.958l.144-.285.016-1.294c.019-1.484-.007-1.673-.288-2.094A1.714 1.714 0 0014.107 0zm31.008 3.8c-.706-.003-1.484.046-1.904.139-2.8.617-5.028 2.342-6.201 4.801a8.287 8.287 0 00-.392 6.293c1.01 3.04 3.745 5.324 6.98 5.828.58.09 2.101.091 2.739 0 1.594-.225 2.954-.841 4.14-1.876 1.492-1.3 2.264-2.951 2.455-5.248.053-.634.01-1.664-.083-2.018l-.03-.11H44.92v2.296h5.629l-.034.297c-.115 1.02-.673 2.168-1.37 2.82-1.162 1.087-2.484 1.586-4.2 1.587-.8 0-1.32-.077-1.958-.292-2.157-.724-3.672-2.459-4.153-4.754-.108-.512-.12-1.755-.024-2.295a6.87 6.87 0 011.008-2.49c.316-.477 1.122-1.288 1.587-1.598a6.27 6.27 0 015.188-.864c.779.207 2.01.89 2.4 1.33.051.059.118.106.147.106.058 0 1.64-1.565 1.64-1.622 0-.06-.792-.702-1.205-.978-1.025-.685-2.086-1.09-3.36-1.285a8.19 8.19 0 00-1.1-.066zm45.267.631v16.26h2.392V4.432h-1.196zm21.046.342v15.87h2.148v-6.446h2.067c2.286 0 2.625-.03 3.402-.304a4.783 4.783 0 001.257-.631c.751-.507 1.301-1.13 1.651-1.872.325-.69.387-.995.387-1.905 0-.896-.061-1.208-.37-1.873-.546-1.179-1.732-2.168-3.109-2.595-.72-.224-1.063-.243-4.345-.244zm33.35 0v2.453c0 1.349.025 2.811.055 3.25.03.438.039.813.02.831-.019.019-.125-.076-.237-.21-.61-.735-1.403-1.227-2.417-1.498-.48-.13-1.654-.177-2.197-.09-1.115.178-2.056.674-2.916 1.536-1.48 1.481-2.03 3.633-1.485 5.795.557 2.207 2.544 3.948 4.726 4.143 1.709.152 3.406-.482 4.262-1.593.111-.143.221-.26.245-.26.023 0 .043.34.043.756v.757h2.05V4.773h-1.074zM20.358 5.62a1.693 1.693 0 00-.37.049c-.617.152-1.082.574-1.273 1.155-.077.232-.088.442-.087 1.538.001 1.204.007 1.284.112 1.548.188.472.63.893 1.098 1.046.312.102.978.062 1.265-.075.342-.164.635-.447.823-.794l.167-.309v-2.88l-.137-.28a1.746 1.746 0 00-1.598-.998zm-12.499.01c-.35 0-.461.022-.713.137-.374.17-.705.503-.884.886l-.136.293-.015 3.418c-.014 3.09-.007 3.448.068 3.729.156.586.672 1.09 1.26 1.23.91.218 1.864-.342 2.101-1.232.074-.278.08-.648.067-3.727l-.014-3.418-.137-.293a1.867 1.867 0 00-.883-.886c-.252-.115-.363-.136-.714-.136zm176.376.852v3.32h-2.051v1.806l1.013.013 1.013.013.027 3.296c.03 3.55.022 3.45.294 4.085.149.346.51.826.794 1.052.463.368 1.248.667 1.937.738.38.04 1.04.03 1.4-.018.469-.063.944-.19.944-.251 0-.042-.676-1.654-.709-1.69-.007-.01-.13.018-.271.06-.331.099-.98.099-1.31 0a1.314 1.314 0 01-.78-.699c-.186-.435-.204-.788-.19-3.74l.013-2.833 1.404-.013 1.404-.013V9.803h-2.832v-3.32h-1.05zm-70.658.187l2.088.02c1.77.018 2.132.033 2.38.103 1.394.393 2.325 1.73 2.128 3.054-.172 1.153-1.165 2.168-2.325 2.374-.291.052-.875.07-2.33.071l-1.94.002V9.481zm-99.468.572c-.37.002-.51.024-.697.11-.347.158-.73.545-.896.903l-.14.304v11.084l.137.293c.214.458.566.787 1.024.957.366.137.937.108 1.315-.065a1.88 1.88 0 00.86-.858l.13-.278V8.509l-.13-.278a1.904 1.904 0 00-.86-.861c-.242-.114-.34-.13-.743-.129zm151.47 2.22c-.635-.002-1.316.056-1.73.164-.932.242-1.844.815-2.437 1.529-.24.288-.603.883-.56.914.059.042 1.906.77 1.918.755.008-.01.075-.124.15-.254.308-.532 1.045-1.033 1.783-1.21.395-.095 1.369-.08 1.758.026 1.062.29 1.83 1.039 2.03 1.976.061.294.096.885.051.885-.01 0-.147-.057-.305-.127a6.28 6.28 0 00-1.6-.44c-.678-.1-2.149-.07-2.716.055-1.764.388-2.98 1.318-3.383 2.588-.091.29-.108.453-.108 1.074 0 .635.015.778.113 1.074.455 1.375 1.818 2.343 3.536 2.512.797.079 1.774-.04 2.436-.295.649-.25 1.167-.63 1.678-1.228.155-.181.3-.33.324-.33.024 0 .043.341.043.757v.757h2.059l-.02-3.625c-.02-3.425-.027-3.65-.12-4.067-.415-1.839-1.815-3.075-3.875-3.42a6.676 6.676 0 00-1.025-.07zm-37.179 0c-1.798 0-3.103.531-4.28 1.742-.495.51-.76.889-1.054 1.51-.651 1.375-.697 3.332-.11 4.794.424 1.062 1.296 2.077 2.309 2.688.695.42 1.649.717 2.522.785.282.022.535.043.561.046.027.004.31-.015.63-.042 1.593-.132 2.776-.677 3.803-1.752.747-.782 1.193-1.637 1.434-2.75.066-.302.088-.62.088-1.259 0-.907-.06-1.328-.287-1.992a5.624 5.624 0 00-2.863-3.205c-.865-.414-1.601-.565-2.753-.565zm48.31.001a6.314 6.314 0 00-.974.07c-1.753.293-3.084 1.28-3.37 2.498-.135.57-.047 1.344.208 1.845.231.453.865.983 1.626 1.363.583.29.846.37 2.347.715.7.161 1.392.332 1.538.379.396.127.824.436.997.718.13.212.148.285.148.61 0 .261-.027.424-.09.55-.204.41-.731.772-1.35.926-.388.096-1.407.081-1.807-.027-.878-.237-1.562-.803-2.051-1.697l-.126-.229-.922.363c-.507.2-.932.373-.944.385-.04.04.334.677.602 1.03.925 1.216 2.209 1.906 3.758 2.02.295.021.548.042.562.045.103.027 1.267-.109 1.583-.184 1.06-.252 1.966-.836 2.492-1.608.865-1.269.565-3.01-.68-3.946-.65-.49-1.118-.657-3.056-1.088a37.978 37.978 0 01-1.585-.377c-.975-.312-1.373-.96-1.023-1.663.185-.37.607-.65 1.247-.824.431-.119 1.459-.118 1.9.001.689.186 1.235.576 1.523 1.087.117.206.163.25.227.217.045-.022.46-.189.923-.369l.842-.328-.104-.204c-.523-1.03-1.514-1.776-2.814-2.117-.408-.107-1.035-.164-1.628-.161zm18.554 0a6.336 6.336 0 00-.975.07c-1.378.231-2.58.935-3.093 1.81-.427.727-.454 1.773-.066 2.533.222.435.856.976 1.577 1.345.538.275.941.399 2.396.733.7.161 1.392.332 1.538.379.396.127.824.436.997.718.13.212.147.285.147.61 0 .261-.026.424-.089.55-.2.404-.742.775-1.351.926-.387.096-1.407.081-1.803-.026-.879-.238-1.542-.773-2.014-1.625l-.167-.3-.919.359c-.505.198-.93.37-.944.384-.038.039.314.654.582 1.017.468.633 1.27 1.287 1.964 1.602.471.213 1.203.389 1.812.433.295.022.548.043.561.046.105.027 1.268-.109 1.583-.185 1.398-.334 2.49-1.225 2.843-2.318.16-.498.18-1.21.047-1.662-.248-.836-.836-1.525-1.654-1.938-.467-.235-1.065-.41-2.477-.724-1.802-.4-2.016-.473-2.392-.812-.368-.333-.44-.859-.18-1.303.534-.912 2.753-1.149 3.903-.417.27.173.64.568.771.826l.092.181.91-.359c.501-.197.92-.366.929-.376.01-.01-.08-.186-.201-.392-.553-.945-1.478-1.604-2.699-1.924-.408-.107-1.035-.164-1.628-.161zm-40.763.005c-.105 0-.217.003-.336.006-.717.02-.945.046-1.339.15-1.11.291-1.95.775-2.7 1.554-1.163 1.206-1.644 2.534-1.57 4.339.067 1.646.58 2.807 1.728 3.91.991.954 2.124 1.45 3.554 1.558.916.069 1.903-.04 2.64-.29 1.19-.405 2.25-1.31 2.877-2.456l.181-.33-.163-.068c-.09-.038-.52-.211-.957-.386l-.793-.318-.147.277c-.45.843-1.163 1.396-2.124 1.647-.252.065-.522.089-1.026.089-.62 0-.72-.012-1.074-.135-1.75-.608-2.789-2.346-2.565-4.292.161-1.405.91-2.493 2.126-3.09 1.301-.64 2.966-.4 3.935.566.294.293.728.933.728 1.073 0 .032.027.047.06.034.848-.329 1.874-.737 1.89-.751.035-.031-.187-.458-.428-.82-.646-.975-1.663-1.732-2.748-2.046-.586-.17-1.011-.227-1.749-.221zm-71.087.39a4.78 4.78 0 00-1.007.095c-1.02.207-1.852.658-2.648 1.438-.775.758-1.223 1.522-1.522 2.594-.125.45-.134.544-.132 1.41.002.847.013.97.131 1.405a5.782 5.782 0 002.063 3.059c.431.324 1.298.75 1.807.886.491.131 1.523.181 2.007.097.724-.126 1.471-.494 1.951-.96.122-.118.245-.214.274-.214.096 0 .019 1.523-.1 1.967-.355 1.335-1.357 2.083-2.79 2.084-.228 0-.552-.032-.72-.072-.808-.19-1.558-.8-1.968-1.598-.129-.25-.155-.275-.253-.237-.06.023-.45.185-.867.36l-.942.394-.184.077.153.307c.8 1.598 2.352 2.702 4.098 2.916.502.062 1.392.017 1.968-.099 2.156-.433 3.531-1.995 3.865-4.39.064-.46.076-1.329.076-5.862v-5.32h-2.295v.439c0 .292-.019.44-.055.44-.03 0-.19-.127-.356-.282-.634-.593-1.56-.922-2.554-.934zm15.835.159a5.116 5.116 0 00-2.212.47c-1.881.88-3.04 2.796-3.04 5.024 0 2.925 2.035 5.234 4.882 5.539 1.845.197 3.741-.582 4.89-2.008.157-.196.286-.374.286-.395 0-.021-.413-.313-.917-.65l-.918-.611-.144.194c-.429.575-1.146 1.065-1.803 1.232-.374.095-1.179.095-1.584 0-.464-.11-.96-.391-1.3-.736-.263-.27-.652-.828-.604-.869.01-.009 1.681-.703 3.713-1.542l3.694-1.526-.255-.623c-.646-1.58-1.667-2.671-2.97-3.176a4.916 4.916 0 00-1.718-.323zm-39.992.002c-1.693.013-3.368.754-4.418 2.171-1.443 1.947-1.443 4.756 0 6.702.796 1.075 2.157 1.895 3.462 2.088.202.03.421.064.488.076.226.04 1.242-.016 1.616-.088 1.953-.378 3.527-1.739 4.145-3.584.7-2.09.145-4.426-1.396-5.873-1.081-1.015-2.495-1.503-3.897-1.492zm12.275.013c-.406-.005-.815.014-1.072.06a6.263 6.263 0 00-1.653.566 5.394 5.394 0 00-2.72 3.418c-.101.382-.135.645-.155 1.203-.03.838.029 1.33.24 1.996.663 2.084 2.47 3.536 4.703 3.778.344.037 1.307-.011 1.689-.085 2.068-.4 3.72-1.926 4.242-3.917.41-1.57.163-3.249-.671-4.537-.811-1.254-2.018-2.068-3.551-2.396-.243-.052-.646-.081-1.052-.086zm69.747 1.245a3.58 3.58 0 013.183 2.018c.332.69.39.984.386 1.953-.002.685-.02.896-.105 1.203-.352 1.28-1.335 2.276-2.575 2.608a4.778 4.778 0 01-.83.098c-1.065.038-1.855-.26-2.62-.991-.818-.782-1.165-1.65-1.165-2.916 0-1.313.35-2.2 1.168-2.966.443-.414.79-.634 1.258-.797a3.766 3.766 0 011.3-.21zm-12.857.02c.73 0 1.057.074 1.684.384.762.376 1.336.943 1.685 1.663.315.652.365.907.365 1.88 0 .972-.05 1.227-.365 1.88-.443.918-1.372 1.683-2.368 1.951-.41.11-1.335.14-1.734.054-1.209-.26-2.14-.985-2.639-2.054-.242-.52-.336-.915-.37-1.562-.081-1.507.466-2.731 1.574-3.522.672-.48 1.293-.672 2.168-.673zm-126.667.075a.953.953 0 00-.134.008c-.074.011-.013.02.134.02.148 0 .209-.009.135-.02a.952.952 0 00-.135-.008zm24.667.013a1.783 1.783 0 00-1.642 1.322c-.056.219-.074.566-.074 1.394 0 1.269.044 1.531.33 1.953.22.322.618.606.988.704.34.09.494.092.837.01a1.886 1.886 0 001.23-.998c.101-.218.106-.296.106-1.67 0-1.65-.006-1.68-.447-2.151-.282-.302-.579-.46-1.008-.54a1.54 1.54 0 00-.32-.024zm-24.667.055c-.466 0-.536.012-.77.136a1.82 1.82 0 00-.81.857l-.153.325v.096c-.003-.003-.005-.006-.007-.006-.007 0-.012.017-.014.052-.002.046.007.074.02.068v2.279c-.002-.004-.004-.006-.006-.006-.007-.001-.012.017-.014.052-.002.046.007.074.02.068v.083l.155.324c.226.479.603.816 1.091.976.067.022.32.034.562.027.338-.01.491-.038.667-.123.363-.176.654-.465.832-.827l.16-.326v-2.788l-.16-.326a1.816 1.816 0 00-.832-.83c-.194-.095-.304-.111-.74-.111zm81.795.568h.096a2.775 2.775 0 011.923.848c.367.375.58.726.778 1.28.148.416.153.453.152 1.259 0 .772-.01.857-.132 1.222-.32.95-1.018 1.688-1.887 1.995-.39.138-1.287.159-1.69.039-.801-.237-1.558-.876-1.922-1.62-.304-.623-.373-.94-.37-1.685.003-.584.016-.672.16-1.096.088-.254.235-.587.328-.74.593-.976 1.58-1.496 2.564-1.502zm15.769.122c.433 0 .84.093 1.19.27.26.133.654.51.769.736l.094.185-.11.043c-.062.023-1.156.475-2.432 1.004l-2.38.988c-.045.018-.061-.056-.06-.286.003-1.564 1.374-2.94 2.929-2.94zm-40.018.023c.785 0 1.57.307 2.174.92.408.412.716.951.866 1.516.133.497.118 1.48-.029 1.953-.19.61-.426 1.008-.86 1.442-.428.428-.883.694-1.416.829-.364.092-1.133.09-1.49-.004a3.194 3.194 0 01-2.018-1.68 3.377 3.377 0 01-.361-1.806c.05-.926.355-1.638.962-2.253a3.041 3.041 0 012.172-.917zm12.106.005a3.015 3.015 0 012.2.89c.19.191.417.472.506.623.35.593.53 1.38.48 2.09-.04.558-.138.92-.384 1.416-.39.783-1.178 1.424-2.014 1.636-.364.092-1.133.09-1.491-.004-1.157-.304-2.062-1.288-2.315-2.521-.297-1.441.282-2.935 1.414-3.65a3.097 3.097 0 011.604-.48zm-51.024.699c-.4-.001-.47.013-.766.16-.54.265-.882.737-.969 1.338-.062.433-.058 6.333.005 6.722.118.725.581 1.253 1.269 1.445.79.221 1.663-.183 2.036-.942l.135-.277.025-3.345c.013-1.84.01-3.459-.008-3.599a1.818 1.818 0 00-1.008-1.372c-.235-.109-.347-.13-.719-.13zM165.874 15.3c.916.004 1.1.017 1.44.11.447.12 1.189.469 1.23.577.046.118-.073.726-.206 1.056-.345.86-1.385 1.734-2.392 2.011-.414.114-1.241.14-1.631.052-.402-.092-.948-.354-1.21-.582a1.737 1.737 0 01-.341-.458c-.117-.237-.137-.339-.136-.67.002-.319.026-.443.133-.674.19-.41.645-.865 1.078-1.077.636-.311.857-.349 2.035-.345zM1.754 16.791a.953.953 0 00-.134.008c-.074.012-.013.02.134.02.148 0 .209-.008.135-.02a.952.952 0 00-.135-.008zm6.104.41c-.491 0-.525.007-.821.167a1.754 1.754 0 00-.784.834l-.128.268v2.784l.14.304c.218.47.688.862 1.19.988.1.026.333.038.515.027a1.756 1.756 0 001.484-1.021l.138-.298V18.47l-.129-.268a1.754 1.754 0 00-.783-.834c-.296-.16-.33-.167-.822-.167zm6.25 5.58c-.795 0-1.424.468-1.664 1.24-.093.301-.1.422-.085 1.587.016 1.245.018 1.265.145 1.535.233.499.66.867 1.162 1.002a1.752 1.752 0 001.904-.72c.28-.422.307-.61.288-2.094l-.016-1.294-.144-.285c-.308-.608-.901-.97-1.59-.971z" stroke-width="4.563"/></svg>