<svg xmlns="http://www.w3.org/2000/svg" viewBox="0 0 300 300" xmlns:v="https://vecta.io/nano"><path fill="#df352f" stroke="#000017" stroke-width=".45" d="M.22.22h299.55v299.55H.22z" paint-order="stroke fill markers"/><path fill="#e64a3b" d="M499324.84 0H-500000 500000h-675.16z"/><path fill="#fdca91" d="M114.559 197.769c-4.03-4.62-7.7-8.38-10.67-13.19-12.477-20.416-22.339-54.144-22.059-75.819 3.23-15.85 3.846-37.664 9.512-47.537 21.025-5.122 56.629-6.49 87.656-7.512 18.614 25.848 17.67 30.055 30.912 42.718 1.2 1.16 2.5 3.8 3.6 7.22.72 2.28.95 3.54.83 4.58-.05.51-.02 2.9.08 5.29.17 4.15.16 4.52-.15 7.63-.4 3.84-.95 7.52-1.3 8.53-.34 1.01-2.1 4.6-2.73 5.6-1.58 2.48-4.5 5.6-5.89 6.32-.46.23-1.16.4-2.17.5l-1.5.17-.12.67c.27 5.55-.9 15.39-.44 20.85.1 1.18 17.13 44.02 26.35 44.01-1.91 3.98-34.8 46.07-55.67 53.05-10.96-7.81-51.301 14.445-54.991-9.525-6.262-17.654-6.969-40.034-1.249-53.546z"/><path fill="#e9bb88" d="M121.78 204.03c11.841 5.115 26.014 3.749 37.82-1.25 15.236-6.703 33.549-24.676 40.43-39.21 3.42 10.02 4.87 16.93 5.44 23.48 9.9 5.97 14.44 10.04 17.54 16-.18 1.22-3.85 8.6-4.23 7.73.5-8.85-4.15-11.18-13.1-13.98-1.39-1.51-2.24-2.8-5.33-5.04.1-3.37-1.1-11.13-1.24-14.38 0-4.73.26-5.1-6.89 5.02-15.33 18.24-22.9 20.08-31.84 24.87-13.91 4.59-29.326 6.187-39.106-.133-4.6-2.2-7.465-7.242-7.465-7.472l.75-1.886c2.946 2.59 4.048 4.35 7.221 6.251z"/><path fill="#1d384b" d="M-.2 263.08c8-3.96 15.03-7.72 22.92-10.76.18 0 3.46-1.29 5.46-2.14 22.78-8.36 86.402-36.397 79.69-28.4 58.57 57.85 64.22 30.3 84.73 20.48-1.92-8.17 45.27-40.99 50.57-40.45 4.54.92 9.36 3.03 13.49 3.12 6.52.15 8.64.26 12.15.62 2.23.23 4.9.59 5.7.77l22.04 5.69 2.29.61 1.01.3-.06 87.29-300-.21z"/><g stroke-width=".45"><path fill="#152b39" stroke="#000017" d="M178.9 250.56c13.4-13.93 32.48-27.7 42.2-43.27.32-2.09.02-4.31-.4-4.63-4-5.8-9.54-8.03-15.83-10.01a3.8 3.8 0 01-1.55-1.68c-1.55-8.98-2.78-17.46-2.72-25.44 4.1 2.58 8.88 3.2 13.23 5.13.8.35 3.34 1.53 4.3 2.29 3.96 3.23 7.19 6.2 10.06 10.4 2.34 2.68 4.35 4.96 6.43 7.6 1.48 2 2.82 3.87 4.18 6.2a10.6 10.6 0 004.37 4.66c.05.06.1 2.05.12 4.43 3.5 15 6.28 28.73 12.96 41.3.3.56.5 1.58.37 1.8-.07.12-.15.17-.18.13a83.3 83.3 0 00-1.77-2.1c-15.94-19.99-56.56-4.87-66.16.04-2.56.93-9.78 5.03-9.61 3.15zm-40.85-.88c-28.74.06-25.02-27.02-52.41-15.65-1.93.73-4.17.99-5.7.3 0-.25 1.18-1.41 2.73-2.68 7.62-6.07 18.22-11.45 22.19-18.7 3.07-3.63 4.13-9.9 8.35-11.74.11.11.13.48.04.72a137.9 137.9 0 004.28 12c5.17 19.11 12.17 24.86 23.63 34.64-.13.7-.88 1-1.53 1.41l-1.58-.3z"/><path fill="#141514" stroke="#141514" d="M190.22 116.72c-.1-.16-.37-1.48-.53-2.51l-.22-1.2a104.23 104.23 0 0 0-1.81-5.25l-.53-1.28c-8.031-11.959-28.553-43.05-43.85-45.91a33.83 33.83 0 0 0-8.28-.58c-8.62.19-11.8.76-17.78 3.18-8.72 4.28-17.36 8.24-23.91 14.67-1.76 1.74-3.21 3.45-3.22 3.78-.54.8-1.08 1.43-1.66 2.27a14.69 14.69 0 0 1-.6 1 33.8 33.8 0 0 0-2.77 8.02c-.11.37-.29 1.08-.38 1.57l-1.74 7.98c-.92 2.93-.83 12.41-1.44 10-.1-.56-.79-2.72-.87-2.8-.32-1.03-.29-2.6-.47-3.5-.53-2.06-.71-4.07-1.01-6.09-.22-.54-.6-3.42-.8-6.04.288-10.165-1.134-22.91 2.99-31.64l.52-1.2c0-.24.97-2.02 1.83-3.34 15.444-19.912 36.076-37.094 60.15-41.71l3.08-.54c12.654-.914 28.494 1.852 37.57 10.95 0 .07.07.12.15.12.2 0 2.4 1.8 2.4 1.97 0 .07.05.11.11.1 11.92 9.2 16.8 21.26 20.87 34.17.44 1.4.8 2.87.96 3.9.65 4.32.7 4.87.77 10.5.06 3.92.02 6.57-.11 8.48-.121 2.088-.174 4.179-.16 6.27.03 3.44.02 3.5-.27 3.34-1-.54-4.2-.71-5.04-.28-.72.38-4.38 3.86-6.08 5.8a56.9 56.9 0 0 1-1.58 1.7 24.68 24.68 0 0 0-3.69 4.94c-.9 1.76-1.49 4.02-1.49 5.75 0 .77-.3 2.36-.6 3.14-.14.36-.37.49-.5.26z"/></g></svg>