<?xml version="1.0" encoding="UTF-8" standalone="no"?>
<svg
   xmlns:dc="http://purl.org/dc/elements/1.1/"
   xmlns:cc="http://creativecommons.org/ns#"
   xmlns:rdf="http://www.w3.org/1999/02/22-rdf-syntax-ns#"
   xmlns:svg="http://www.w3.org/2000/svg"
   xmlns="http://www.w3.org/2000/svg"
   xmlns:sodipodi="http://sodipodi.sourceforge.net/DTD/sodipodi-0.dtd"
   xmlns:inkscape="http://www.inkscape.org/namespaces/inkscape"
   viewBox="0 0 300 300"
   version="1.1"
   id="svg847"
   sodipodi:docname="henry.svg"
   inkscape:version="1.0.1 (c497b03c, 2020-09-10)">
  <metadata
     id="metadata853">
    <rdf:RDF>
      <cc:Work
         rdf:about="">
        <dc:format>image/svg+xml</dc:format>
        <dc:type
           rdf:resource="http://purl.org/dc/dcmitype/StillImage" />
      </cc:Work>
    </rdf:RDF>
  </metadata>
  <defs
     id="defs851" />
  <sodipodi:namedview
     pagecolor="#ffffff"
     bordercolor="#666666"
     borderopacity="1"
     objecttolerance="10"
     gridtolerance="10"
     guidetolerance="10"
     inkscape:pageopacity="0"
     inkscape:pageshadow="2"
     inkscape:window-width="1792"
     inkscape:window-height="1016"
     id="namedview849"
     showgrid="false"
     inkscape:zoom="2.693729"
     inkscape:cx="147.85271"
     inkscape:cy="133.00699"
     inkscape:window-x="0"
     inkscape:window-y="23"
     inkscape:window-maximized="0"
     inkscape:current-layer="svg847" />
  <path
     fill="#df352f"
     stroke="#000017"
     stroke-width=".45"
     d="M.22.22h299.55v299.55H.22z"
     paint-order="stroke fill markers"
     id="path833" />
  <path
     fill="#e64a3b"
     d="M499324.84 0H-500000 500000h-675.16z"
     id="path835" />
  <path
     fill="#fdca91"
     d="m 114.55931,197.76939 c -4.03,-4.62 -7.7,-8.38 -10.67,-13.19 C 91.412689,164.16321 81.550508,130.43513 81.83,108.76 85.06,92.91 85.676181,71.096395 91.342465,61.22344 112.36785,56.101937 147.97105,54.733008 178.99809,53.711553 197.61191,79.560033 196.66812,83.767007 209.91,96.43 c 1.2,1.16 2.5,3.8 3.6,7.22 0.72,2.28 0.95,3.54 0.83,4.58 -0.05,0.51 -0.02,2.9 0.08,5.29 0.17,4.15 0.16,4.52 -0.15,7.63 -0.4,3.84 -0.95,7.52 -1.3,8.53 -0.34,1.01 -2.1,4.6 -2.73,5.6 -1.58,2.48 -4.5,5.6 -5.89,6.32 -0.46,0.23 -1.16,0.4 -2.17,0.5 l -1.5,0.17 -0.12,0.67 c 0.27,5.55 -0.9,15.39 -0.44,20.85 0.1,1.18 17.13,44.02 26.35,44.01 -1.91,3.98 -34.8,46.07 -55.67,53.05 -10.96,-7.81 -51.30125,14.4449 -54.99125,-9.5251 -6.26237,-17.65415 -6.96917,-40.03364 -1.24944,-53.54551 z"
     id="path837"
     sodipodi:nodetypes="cccccccccccccccccccccc" />
  <path
     fill="#e9bb88"
     d="m 121.78,204.03 c 11.8406,5.1151 26.01358,3.74938 37.82,-1.25 15.23578,-6.70253 33.54918,-24.67609 40.43,-39.21 3.42,10.02 4.87,16.93 5.44,23.48 9.9,5.97 14.44,10.04 17.54,16 -0.18,1.22 -3.85,8.6 -4.23,7.73 0.5,-8.85 -4.15,-11.18 -13.1,-13.98 -1.39,-1.51 -2.24,-2.8 -5.33,-5.04 0.1,-3.37 -1.1,-11.13 -1.24,-14.38 0,-4.73 0.26,-5.1 -6.89,5.02 -15.33,18.24 -22.9,20.08 -31.84,24.87 -13.91,4.59 -29.32566,6.1867 -39.10566,-0.1333 -4.6,-2.2 -7.46515,-7.24162 -7.46515,-7.47162 l 0.75012,-1.88569 c 2.94602,2.5904 4.04752,4.34967 7.22069,6.25061 z"
     id="path839"
     sodipodi:nodetypes="ccccccccccccccc" />
  <path
     fill="#1d384b"
     d="m -0.2,263.08 c 8,-3.96 15.03,-7.72 22.92,-10.76 0.18,0 3.46,-1.29 5.46,-2.14 22.780471,-8.35976 86.40152,-36.39668 79.69,-28.4 58.57,57.85 64.22,30.3 84.73,20.48 -1.92,-8.17 45.27,-40.99 50.57,-40.45 4.54,0.92 9.36,3.03 13.49,3.12 6.52,0.15 8.64,0.26 12.15,0.62 2.23,0.23 4.9,0.59 5.7,0.77 7.38,1.8 14.77,3.8 22.04,5.69 l 2.29,0.61 1.01,0.3 -0.06,87.29 -300,-0.21 z"
     id="path841"
     sodipodi:nodetypes="ccccccccccccccc" />
  <path
     fill="#152b39"
     stroke="#000017"
     stroke-width=".44999999999999996"
     d="M178.9 250.56c13.4-13.93 32.48-27.7 42.2-43.27.32-2.09.02-4.31-.4-4.63-4-5.8-9.54-8.03-15.83-10.01a3.8 3.8 0 01-1.55-1.68c-1.55-8.98-2.78-17.46-2.72-25.44 4.1 2.58 8.88 3.2 13.23 5.13.8.35 3.34 1.53 4.3 2.29 3.96 3.23 7.19 6.2 10.06 10.4 2.34 2.68 4.35 4.96 6.43 7.6 1.48 2 2.82 3.87 4.18 6.2a10.6 10.6 0 004.37 4.66c.05.06.1 2.05.12 4.43 3.5 15 6.28 28.73 12.96 41.3.3.56.5 1.58.37 1.8-.07.12-.15.17-.18.13a83.3 83.3 0 00-1.77-2.1c-15.94-19.99-56.56-4.87-66.16.04-2.56.93-9.78 5.03-9.61 3.15zm-40.85-.88c-28.74.06-25.02-27.02-52.41-15.65-1.93.73-4.17.99-5.7.3 0-.25 1.18-1.41 2.73-2.68 7.62-6.07 18.22-11.45 22.19-18.7 3.07-3.63 4.13-9.9 8.35-11.74.11.11.13.48.04.72a137.9 137.9 0 004.28 12c5.17 19.11 12.17 24.86 23.63 34.64-.13.7-.88 1-1.53 1.41l-1.58-.3z"
     id="path843" />
  <path
     fill="#141514"
     stroke="#141514"
     stroke-width="0.45"
     d="m 190.22,116.72 c -0.1,-0.16 -0.37,-1.48 -0.53,-2.51 -0.0577,-0.40272 -0.13105,-0.80302 -0.22,-1.2 -0.21,-0.76 -1.62,-4.85 -1.81,-5.25 -0.19,-0.42 -0.37,-0.85 -0.53,-1.28 -8.031,-11.95928 -28.55332,-43.050246 -43.85,-45.91 -2.72573,-0.532471 -5.50666,-0.72727 -8.28,-0.58 -8.62,0.19 -11.8,0.76 -17.78,3.18 -8.72,4.28 -17.36,8.24 -23.91,14.67 -1.76,1.74 -3.21,3.45 -3.22,3.78 -0.54,0.8 -1.08,1.43 -1.66,2.27 -0.19,0.34 -0.38,0.67 -0.6,1 -1.256546,2.546367 -2.187211,5.240926 -2.77,8.02 -0.11,0.37 -0.29,1.08 -0.38,1.57 -0.23,0.99 -1.46,7 -1.74,7.98 -0.92,2.93 -0.83,12.41 -1.44,10 -0.1,-0.56 -0.79,-2.72 -0.87,-2.8 -0.32,-1.03 -0.29,-2.6 -0.47,-3.5 -0.53,-2.06 -0.71,-4.07 -1.01,-6.09 -0.22,-0.54 -0.6,-3.42 -0.8,-6.04 0.288345,-10.16533 -1.134077,-22.910278 2.99,-31.64 0.28,-0.62 0.52,-1.16 0.52,-1.2 0,-0.24 0.97,-2.02 1.83,-3.34 15.443666,-19.912386 36.07559,-37.094098 60.15,-41.71 0.96,-0.18 2.34,-0.42 3.08,-0.54 12.65369,-0.913784 28.49407,1.852015 37.57,10.95 0,0.07 0.07,0.12 0.15,0.12 0.2,0 2.4,1.8 2.4,1.97 0,0.07 0.05,0.11 0.11,0.1 11.92,9.2 16.8,21.26 20.87,34.17 0.44,1.4 0.8,2.87 0.96,3.9 0.65,4.32 0.7,4.87 0.77,10.5 0.06,3.92 0.02,6.57 -0.11,8.48 -0.12094,2.087727 -0.1743,4.178821 -0.16,6.27 0.03,3.44 0.02,3.5 -0.27,3.34 -1,-0.54 -4.2,-0.71 -5.04,-0.28 -0.72,0.38 -4.38,3.86 -6.08,5.8 -0.51505,0.57735 -1.04183,1.14413 -1.58,1.7 -1.43167,1.48594 -2.67135,3.14555 -3.69,4.94 -0.9,1.76 -1.49,4.02 -1.49,5.75 0,0.77 -0.3,2.36 -0.6,3.14 -0.14,0.36 -0.37,0.49 -0.5,0.26 z"
     id="path845"
     sodipodi:nodetypes="cccccccccccccccccccccsccccsscccccccccccsccc" />
</svg>
