<svg xmlns="http://www.w3.org/2000/svg" fill="#fff" width="459.781" height="111.927" viewBox="0 0 121.65 29.614"><path d="M5.865 29.11c-.47-.287-1.41-1.27-2.09-2.182-3.56-4.793-4.769-11.09-2.907-15.16.88-1.922 1.756-2.886 3.384-3.716 2.031-1.037 3.1-1.082 5.69-.24l2.274.74 2.147-.709c2.428-.801 4.027-.883 5.753-.295 1.29.44 3.141 1.82 3.141 2.341 0 .18-.431.736-.958 1.238-2.904 2.763-2.548 7.648.721 9.901l1.218.84-.484 1.232c-.943 2.401-3.18 5.472-4.473 6.14-1.05.543-2.634.492-4.226-.136-1.7-.67-3.064-.67-4.826 0-1.764.67-3.27.672-4.364.006zm56.805-1.924c-.953-.48-1.331-.897-1.963-2.163-.78-1.562-.784-1.585-.893-7.21l-.11-5.642h3.505v4.352c0 5.254.267 6.757 1.364 7.68 1.423 1.197 3.723.707 4.651-.99.391-.716.482-1.69.554-5.949l.086-5.093H73v5.648c0 3.107.078 6.566.172 7.688l.173 2.038-1.562-.08-1.561-.08-.132-1.017-.133-1.017-.661.72c-1.57 1.712-4.473 2.2-6.625 1.115zm37.846.363c-3.787-.835-5.73-3.73-5.502-8.197.137-2.693.872-4.406 2.536-5.91 1.348-1.217 2.669-1.657 4.89-1.628 2.521.032 3.96.936 5.15 3.233.747 1.443.863 1.932.863 3.63v1.96H98.077l.163.65c.32 1.275.645 1.874 1.389 2.556 1.411 1.294 3.503 1.613 6.119.935l1.379-.358.265.953c.145.524.265 1.088.266 1.252.003.688-5.176 1.358-7.142.924zm4.762-9.83c0-1.433-1.344-3.211-2.662-3.522-1.11-.261-2.555.293-3.297 1.265-.705.925-1.247 2.38-.984 2.642.084.084 1.68.152 3.548.152 3.237 0 3.395-.025 3.395-.537zm8.07 9.833c-.978-.256-1.985-.783-1.983-1.037.004-.545.583-2.173.772-2.173.121 0 .648.178 1.17.397.522.218 1.595.396 2.384.396 1.805 0 2.64-.586 2.64-1.853 0-1.055-.81-1.795-2.715-2.48-1.67-.6-3.34-2.045-3.73-3.229-.631-1.911.398-4.122 2.393-5.14 1.28-.653 4.56-.727 5.976-.135.988.412.993.444.34 2.188-.264.706-.194.696-1.386.198-2.052-.857-4.141-.123-4.141 1.457 0 .875.771 1.515 2.701 2.24 1.536.577 3.2 1.966 3.646 3.043.464 1.122.215 3.2-.507 4.213-.905 1.272-2.427 1.92-4.76 2.03-1.104.052-2.364 0-2.8-.115zM37.28 19.844V12.17h3.44v15.346h-3.44zm12.171-1.588v-9.26h-6.085V6.085h15.61v2.911h-6.085v18.52h-3.44zm28.31 1.588V12.17h2.843l.174 1.085.173 1.084.547-.695c.994-1.264 2.46-1.804 4.598-1.696 2.3.116 3.443.841 4.404 2.794.585 1.188.628 1.612.715 7.019l.092 5.755h-3.491V22.87c0-5.048-.253-6.644-1.191-7.525-.936-.88-2.45-.971-3.572-.216-1.675 1.127-1.851 1.835-1.852 7.426v4.96h-3.44zM37.545 8.996c-.328-.328-.53-.882-.53-1.455 0-1.19.771-1.985 1.926-1.985 1.4 0 2.043.626 2.043 1.985 0 .899-.132 1.253-.588 1.572-.826.579-2.213.522-2.851-.117zm-25.4-3.184c0-1.372 1.062-3.473 2.179-4.31C15.513.613 16.776 0 17.424 0c.45 0 .541.168.539.992-.006 2.244-2.104 5.035-4.23 5.627-1.48.411-1.588.356-1.588-.807z"/></svg>