<svg xmlns="http://www.w3.org/2000/svg" class="icon lbry-icon" viewBox="0 0 874.47 257.35">
  <defs>
    <path id="a" d="M339 70.14h237.92v122.4H339z"/>
  </defs>
  <path fill="#fff" fill-opacity=".9" d="M242.75 192.3c35.39-21.58 65.62-40.07 67.2-41.09l2.86-1.85-.4 3.5c-.33 3.04-.19 3.5 1.1 3.52.82 0 2.22.2 3.12.44 1.52.41 1.71-.16 3-8.8.76-5.08 1.23-9.4 1.05-9.58-.4-.4-17.46-3.37-17.76-3.09-.11.11-.29 1.59-.4 3.28-.17 2.93-.05 3.1 2.45 3.49 2.43.37-2.54 3.57-62.44 40.23l-65.08 39.83-64.36-31.87-64.36-31.87.22-18.56.2-18.56 67.86-41.87 67.84-41.86 60.72 29.28 60.73 29.27v2.51c0 2.47-.94 3.09-62.9 41.26-34.6 21.31-63.64 39.1-64.54 39.53-1.35.65-10.27-3.46-52.54-24.2-28-13.75-51.07-24.84-51.26-24.64-.2.2-.41 2.2-.47 4.47l-.11 4.12 51.03 25.15c28.07 13.84 51.52 25.18 52.11 25.2.6.03 31.84-18.87 69.43-41.99l68.34-42.05V91.02l-23.53-11.38c-54.38-26.3-100.53-48.49-103.99-49.99l-3.7-1.6-72.05 44.57-72.06 44.58.04 23.34.04 23.34 68.2 33.76c37.51 18.56 68.62 33.78 69.14 33.82.52.04 29.9-17.59 65.27-39.16zm373.03 10.88c3.82-1.96 6.64-4.56 9.2-8.52 1.75-2.68 31.42-82.23 31.42-84.23 0-.41-3.29-.75-7.37-.75h-7.38l-8.61 26.5c-4.74 14.59-8.82 26.51-9.06 26.51-.25 0-4.33-11.92-9.08-26.5l-8.63-26.5h-7.43c-7.34 0-7.42.02-6.88 1.77.3.98 6 16.86 12.65 35.3l12.1 33.5-1.32 3.62a22.08 22.08 0 01-3.86 6.32c-2.41 2.58-2.75 2.7-7.25 2.43l-4.73-.27-1.64 5.48c-.9 3-1.48 5.63-1.29 5.82 2.14 2.14 14.66 1.82 19.16-.48zm-101.71-24.81c11.02-5.05 17.32-16.98 17.32-32.83 0-12.57-2.76-21.09-9-27.76-10.81-11.56-29.33-11.6-37.67-.07l-2.35 3.24-.22-16.9-.21-16.91-6.92-.23-6.93-.23v92.63h13.45v-5.14c0-2.83.27-5.14.6-5.14.32 0 1.37 1.22 2.33 2.7 2.14 3.31 6.1 6.4 10.2 7.96 4.73 1.8 13.93 1.18 19.4-1.32zm-18.98-10.14c-8.16-1.93-13.06-10.88-13-23.76.06-11.14 4.48-20 11.07-22.17 3.92-1.3 10.66-1.14 13.48.32 3.79 1.96 7.94 7.2 9.28 11.69 1.58 5.32 1.58 15.47 0 20.91-1.72 5.9-7.02 11.72-11.77 12.91-3.94 1-5.2 1.01-9.06.1zm235.88 11.48c3.36-.54 3.44-.86 1.88-7.52l-1.01-4.35-3.93-.08c-4.71-.1-7.24-1.31-8.26-3.98-.41-1.09-.75-11.04-.75-22.1v-20.13h14.24V109.68H718.9V93.01l-6.92.23-6.92.22-.23 8.08-.22 8.07-4.92.24-4.92.23v11.08l4.9.23 4.88.23.25 23.11c.22 19.94.44 23.44 1.6 25.56 1.62 2.95 6.34 7.23 9.23 8.36 2.77 1.08 8.81 2.08 10.79 1.78.87-.13 2.92-.45 4.55-.72zm-51.15-2.3c2.24-2.24 2.69-3.27 2.69-6.15 0-3.96-1.47-6.47-4.76-8.17-6.83-3.54-14.21 1.74-13.18 9.42.62 4.65 4.09 7.59 8.93 7.59 3.07 0 4.04-.41 6.32-2.69zM449.7 133.22l-.2-46.08-6.93-.23-6.93-.23v92.63h14.26zM560 156.17c.28-25.24.32-25.46 5.13-30.02 3.23-3.05 6.22-3.97 12.73-3.92l5.74.05V108.9h-4c-2.2 0-5.58.4-7.51.89-3.82.96-10.15 5.95-11.2 8.83-.47 1.31-.73.45-1.03-3.39l-.4-5.14-6.52-.23-6.53-.23v69.69h13.34zm233.97-10.7l12.55-34.8c.27-.74-1.48-.99-7.2-.99h-7.58l-8.43 25.92c-4.63 14.25-8.63 26.26-8.9 26.69-.25.43-4.4-11.14-9.2-25.71l-8.74-26.5-7.32-.23c-4.02-.12-7.32.06-7.33.4 0 .34 5.57 16.02 12.4 34.84l12.41 34.22 7.58-.01 7.58-.01z"/>
</svg>