<svg xmlns="http://www.w3.org/2000/svg" viewBox="0 0 63.85 61.38">
  <path fill="#049be0" d="M28.6 38.44a13.11 13.11 0 01-4.86-6.69 12.1 12.1 0 01.74-8.6c.42-.7.4-.72 1.26-1.73 1.3-1.49 3.68-3.8 5.55-5.66l5.84-5.84a7.56 7.56 0 014.05-1.94 16.6 16.6 0 015.92.21 12.44 12.44 0 018.56 8.57c.47 1.73.43 4.5-.08 6.17-.9 2.92-1.17 3.29-7.23 9.4a224.25 224.25 0 01-6.07 5.86c.54-2.63.5-5.45-.56-8.05l3.68-3.49c4.15-3.94 4.42-4.65 4.42-6.9a5.47 5.47 0 00-3.22-5.15 5.8 5.8 0 00-4.98-.01c-.99.48-1.82 1.24-6.1 5.55-5.19 5.25-5.52 5.67-5.9 7.58a5.74 5.74 0 002.26 5.5c.89.67.93.73.92 1.5 0 .46-.16 1.18-.36 1.62-.36.8-2.19 2.82-2.56 2.82-.11 0-.69-.32-1.28-.72z"/>
  <path fill="#0078d2" d="M18.21 55.55a11.61 11.61 0 01-6.22-3.1c-4.01-3.79-4.95-9.32-2.42-14.26.67-1.3 1.16-1.86 6.12-6.85 4.82-4.87 6.94-6.83 7.15-6.62-1.37 3.74-.66 5.63.12 7.95l-3.8 3.83c-4.43 4.46-4.77 4.97-4.78 7.25 0 1.15.08 1.5.57 2.5a5.47 5.47 0 005.16 3.21c2.29 0 2.53-.17 8.29-5.96 3.2-3.21 5.21-5.38 5.54-5.96.66-1.15.84-3.17.4-4.48a6.16 6.16 0 00-2.8-3.25l-1.07-.57.1-.94a5.63 5.63 0 011.73-3.5l.95-1.01c2.03.9 4.02 2.36 5.27 3.96a12 12 0 01.26 14c-.75 1.1-9.2 9.66-10.89 11.02a13.2 13.2 0 01-4.77 2.53c-1.38.35-3.68.47-4.91.25z"/>
</svg>