<svg xmlns="http://www.w3.org/2000/svg" viewBox="0 0 562.18 562.19">
  <path fill="#000" stroke="#000" stroke-width="6" d="M503.1 559.21c-5.04-1.09-11.94-4.32-16.48-7.73-1.93-1.44-39.6-38.7-83.68-82.79l-80.18-80.16-2.5 1.4-8.55 4.84a229.02 229.02 0 01-15.7 7.71c-67.6 30.07-146.1 22.28-206.14-20.44-47.76-33.98-78.78-85.39-86.4-143.18-1.92-14.66-1.92-40.28 0-54.75 1.87-14 5.62-30.34 9.3-40.58 8.6-23.86 18.84-42.57 33.74-61.75 6.03-7.76 9.52-11.63 17.88-19.84 31.82-31.25 72.89-51.6 116.54-57.78 65.16-9.22 129.04 11.5 175.73 57.02 28.99 28.25 48.1 61.5 57.7 100.35 3.94 15.9 5.19 25.81 5.56 44.16.48 23.39-1.03 37.64-6.1 57.6-4.7 18.52-14.27 41.47-23.18 55.54-1.03 1.63-1.87 3.43-1.87 4 0 .57 36.7 37.63 81.55 82.37l81.56 81.33 3.04 6c13.75 27.12-.54 59.3-29.56 66.58-5.24 1.31-16.48 1.37-22.27.1zm-281.15-153.7c35.2-2.04 67.76-12.85 96.83-32.16 39.7-26.37 68.77-66.96 80.58-112.5 4.68-18.08 6.06-29.24 6.07-49.41 0-16.76-.65-24.37-3.24-37.06C384.9 89.66 316.05 26.43 231.44 17.61a191.18 191.18 0 00-50.74 1.28C102.43 31.04 39.4 89.76 21.15 167.53c-3.47 14.8-4.64 25.68-4.65 43.33-.02 18.28 1.25 29.7 5.03 45.34 12.6 52.15 45.07 95.98 91.25 123.18 25.58 15.07 56.47 24.42 86.23 26.12 4.82.27 9.37.54 10.1.59.73.05 6.5-.21 12.84-.58z" paint-order="markers fill stroke" style="mix-blend-mode:normal"/>
  <path fill="#fefefe" d="M204.74 386.21a173.93 173.93 0 01-90.46-28.3 176.13 176.13 0 01-24.67-19.44c-1.9-1.8-6.1-6.01-7.75-7.78a177.77 177.77 0 01-16.97-21.27c-1.04-1.5-1.3-1.94-1.17-1.94.02 0 .9-.31 1.93-.7 22.9-8.36 53.93-14.65 88.4-17.88a485.16 485.16 0 0115.54-1.23c0 .02 9.09 15.71 20.15 34.88 11.06 19.17 20.13 34.85 20.15 34.85.03 0 9.1-15.68 20.16-34.86a6078.34 6078.34 0 0120.2-34.89c.2-.08 8.67.56 14.52 1.1 35.15 3.2 66.05 9.36 89.8 17.93.9.33 1.65.6 1.67.63.05.04-.17.4-1.47 2.31a177.35 177.35 0 01-16.85 21.07 174.7 174.7 0 01-93.56 52.21 178.14 178.14 0 01-26.5 3.22c-1.42.08-11.8.16-13.12.1zm75.2-128.28c-11-.56-21.94-4.56-31.84-11.62a78.95 78.95 0 01-20.93-22.73A93.3 93.3 0 01213.82 168c1.8-22.96 12.54-43.02 28.9-54.02a52.64 52.64 0 0124.66-8.85c1.67-.17 6.4-.24 8.23-.12 12.5.81 24.65 5.87 35.32 14.74a78.72 78.72 0 019.66 9.62 87.8 87.8 0 0114.84 25.57c5.67 15.13 7.36 31.79 4.8 47.22-2.3 14.02-8.05 26.74-16.47 36.5a56 56 0 01-22.87 16.09 53 53 0 01-20.95 3.17zm-41.3-64.96a12.44 12.44 0 0010.72-16.8 12.84 12.84 0 00-6.21-6.76 12.4 12.4 0 00-12.72 1.17c-.76.56-1.88 1.66-2.5 2.43a12.4 12.4 0 00-1.35 12.98 13.13 13.13 0 004.55 5.1 12.84 12.84 0 005.6 1.87c.4.03.8.06.84.08l1.08-.08zm-104.08 64.12a52.9 52.9 0 01-18.11-4.17 67.32 67.32 0 01-6.33-3.23 58.73 58.73 0 01-16.83-15.3c-7.8-10.4-12.78-23.42-14.36-37.53a93.91 93.91 0 01-.23-17.56c1.53-18.46 8.6-36.34 19.75-49.9a83.25 83.25 0 0111.06-11.07c9.08-7.36 19.66-12.19 30.03-13.68a54.85 54.85 0 0113.7-.27c13.98 1.55 26.52 8.46 36.1 19.93 9.18 10.99 15.05 25.82 16.5 41.68.3 3.22.35 4.45.35 8.3 0 3.86-.05 5.07-.35 8.33-1.54 17.07-7.7 33.33-17.62 46.57a77.33 77.33 0 01-15.16 15.28 63.38 63.38 0 01-22.48 10.97 53.37 53.37 0 01-9.2 1.54c-1.77.14-5.18.2-6.82.11zm49.9-63.89a12.45 12.45 0 009.7-14.79 12.45 12.45 0 00-12.1-9.8 12.46 12.46 0 00-11.15 6.9 12.38 12.38 0 001.8 13.69 12.62 12.62 0 007.94 4.17c.15.03.9.03 1.69.01a10.48 10.48 0 002.12-.18z"/>
  <path fill="#fab314" d="M205.23 406.53a199.2 199.2 0 01-17.55-1.22 195.21 195.21 0 01-20.54-3.43 116.7 116.7 0 01-4.35-1.01 207.9 207.9 0 01-18.32-5.54 194.27 194.27 0 01-63.22-37.05 239.59 239.59 0 01-8.42-7.8l-.58-.6 7.14-7.15 7.15-7.16 1.45 1.4a177.37 177.37 0 0013.38 11.7 174.25 174.25 0 00108.52 37.62 174.75 174.75 0 00130.55-58.32 177.32 177.32 0 0018.03-23.96 174.02 174.02 0 0026.29-82.11c.3-5.13.4-13.11.2-17.6a180.54 180.54 0 00-2.34-22.6l-.26-1.52 8.49-8.5a477.8 477.8 0 018.54-8.44 196.28 196.28 0 015.6 36.28c.25 4.33.3 6.15.3 11.61 0 5.48-.05 7.3-.3 11.6a194.61 194.61 0 01-43.7 112.03 201.85 201.85 0 01-21.13 22.09 194.72 194.72 0 01-118.7 49.38c-3.9.23-5.5.27-10.43.3zm-15.62-84.22l-24.88-43.12-4.67-8.09 24.92-.02h49.83l24.9.02-4.66 8.1-45.16 78.13z"/>
  <path fill="#279ad5" d="M382.33 179.98l-.51-2.59a174.36 174.36 0 00-34.03-74.31 180.07 180.07 0 00-12.76-14.54l-1.23-1.28 7.16-7.16 7.15-7.16 2.04 2.1a194.29 194.29 0 0148.99 87.16l.23.94-8.5 8.52c-7.54 7.53-8.52 8.49-8.56 8.32z"/>
  <path fill="#7cbb41" d="M332.6 86.11a185.6 185.6 0 00-8.73-8 174.86 174.86 0 00-44.05-27.64 173.5 173.5 0 00-36.22-11.26l-2.58-.52c-.1-.04 1.72-1.91 8.37-8.55l8.5-8.5.94.23a194.85 194.85 0 0154.72 23.5 195.7 195.7 0 0132.84 25.88l1.72 1.69-7.13 7.14a959.1 959.1 0 01-7.18 7.14 32 32 0 01-1.2-1.11z"/>
  <path fill="#ee5128" d="M70.33 347.96a194.33 194.33 0 01-39.2-57.66 195.48 195.48 0 01-16.33-67.26c-.27-4.4-.3-5.86-.3-11.9 0-6.05.03-7.51.3-11.91a195.96 195.96 0 0112.1-56.89 194.45 194.45 0 0113.62-28.86 196.75 196.75 0 0142.2-50.8 194.27 194.27 0 0151.84-31.96 195.8 195.8 0 0163.43-14.68c4.4-.27 5.86-.3 11.9-.3 6.05 0 7.5.03 11.9.3a194.93 194.93 0 0135.99 5.6l-8.44 8.54-8.5 8.5-2.05-.35a176.65 176.65 0 00-62.91.93 174.2 174.2 0 00-61.42 24.94 176.4 176.4 0 00-51.5 51.5 174.41 174.41 0 00-19.4 40.31 175.47 175.47 0 00-8.41 67.57 174.39 174.39 0 0025.63 79.55A173.61 173.61 0 0084.5 333.5l2.02 2.07-7.12 7.14-7.17 7.14a60.04 60.04 0 01-1.9-1.9z"/>
  <path fill="#131313" d="M180.77 193.34a12.38 12.38 0 01-7.28-3.38 12.16 12.16 0 01-3.8-9.44 12 12 0 013.6-8.2 11.39 11.39 0 013.07-2.28 12.38 12.38 0 0117.83 8.6c.13.65.15 1.01.15 2.37a9.14 9.14 0 01-.16 2.41 12.34 12.34 0 01-3.2 6.13 12.13 12.13 0 01-6.93 3.67c-.86.16-2.48.22-3.28.12zm55.3-.5a12.4 12.4 0 01-10.5-10.07c-.2-1.06-.2-3.28 0-4.35a13.25 13.25 0 012.09-5c.28-.4.9-1.1 1.35-1.57a12.4 12.4 0 016.34-3.4c1.04-.24 3.6-.26 4.66-.04a12.45 12.45 0 0110.04 10.81 14.1 14.1 0 01-.16 3.78 12.42 12.42 0 01-13.8 9.85z"/>
  <path fill="#100f0e" d="M63.17 306.81a174.33 174.33 0 01-26.53-69.84 177.83 177.83 0 01-1.42-38.81 174.1 174.1 0 0122.35-73.52 176 176 0 0140.06-47.93 174.56 174.56 0 01121.64-40.47 174.28 174.28 0 0177.1 22.58 175.9 175.9 0 0147.95 40.06 174.57 174.57 0 0140.48 121.65 174.33 174.33 0 01-28.37 86.54l-.15.18-1.67-.6c-12.77-4.68-29.35-9-46.82-12.18a501.18 501.18 0 00-55.18-6.76l-2.3-.18 4.75-8.25 4.76-8.26-99.86.02 4.77 8.29 4.76 8.29-3.04.22c-6.75.47-15 1.23-21.87 2-31.58 3.56-59.07 9.53-80.33 17.44l-.62.23zm221.26-48.8a51.9 51.9 0 0017.77-3.7c15.16-6.03 27.42-19.27 34-36.74a83.95 83.95 0 005.15-25.3c.1-1.91.1-7.01 0-8.93a93.3 93.3 0 00-12.95-43.13 81.55 81.55 0 00-17.33-20.42c-9.98-8.34-21.58-13.45-33.23-14.65a60.3 60.3 0 00-10.27-.08c-12.8 1.2-24.16 6.64-33.47 15.98-9.34 9.37-15.9 22.09-18.85 36.51a91.22 91.22 0 001.13 40.52c5.14 20.46 17.16 38.4 32.98 49.19 9.95 6.78 21.08 10.53 32 10.77l.95.04zm-142.33-1.02c11.12-1.15 21.4-5.27 30.92-12.43 18.54-13.93 30.8-37.24 32.94-62.55.3-3.76.4-9.4.2-12.64-.73-11.86-3.48-22.45-8.28-32.05-4.43-8.82-10.56-16.42-17.73-22a52.92 52.92 0 00-29.4-11.22c-1.55-.1-5.06-.1-6.63 0-13.4.86-26.36 6.63-37.58 16.7a103.79 103.79 0 00-6.31 6.4c-11.48 13.11-18.88 29.96-21.2 48.25a80.29 80.29 0 00-.66 10.3c-.06 4.66.08 7.53.54 11.57 1.49 12.63 5.7 24.38 12.24 34.16 6.92 10.33 16.16 17.95 26.85 22.14a57.07 57.07 0 008.16 2.44 62.38 62.38 0 007.27 1.03c1.47.1 7.27.04 8.66-.1z"/>
</svg>