<svg xmlns="http://www.w3.org/2000/svg" xmlns:xlink="http://www.w3.org/1999/xlink" viewBox="0 0 500 500"><defs><linearGradient xlink:href="#prefix__a" id="prefix__b" x1="-19.248" y1="-17.109" x2="533.596" y2="700.412" gradientUnits="userSpaceOnUse"/><linearGradient id="prefix__a"><stop offset="0" stop-color="#1126be" stop-opacity=".8"/><stop offset="1" stop-color="#05c7ad" stop-opacity=".8"/></linearGradient></defs><path fill="url(#prefix__b)" paint-order="stroke markers fill" d="M-1.828-2.362h503.655v504.724H-1.828z"/><path fill="#fefefe" d="M246.043 389.35a142.425 142.425 0 01-74.07-23.173 144.224 144.224 0 01-20.204-15.92c-1.561-1.478-4.998-4.93-6.343-6.376a145.568 145.568 0 01-13.897-17.411c-.852-1.236-1.063-1.594-.96-1.594.019 0 .729-.256 1.58-.57 18.756-6.85 44.164-11.996 72.382-14.647a397.272 397.272 0 0112.725-1.005c.013.013 7.445 12.867 16.503 28.564 9.058 15.695 16.484 28.537 16.503 28.537.019 0 7.445-12.841 16.502-28.544a4977.236 4977.236 0 0116.554-28.57c.167-.064 7.087.455 11.882.897 28.78 2.618 54.085 7.668 73.526 14.685.736.268 1.357.493 1.37.512.045.038-.14.333-1.204 1.895a145.222 145.222 0 01-13.795 17.251 143.058 143.058 0 01-76.611 42.755 145.869 145.869 0 01-21.688 2.637c-1.178.064-9.666.128-10.755.077zm61.576-105.046c-9.008-.461-17.963-3.733-26.067-9.52-6.625-4.736-12.547-11.157-17.143-18.608-8.245-13.36-12.163-29.69-10.928-45.514 1.48-18.801 10.269-35.228 23.667-44.234a43.101 43.101 0 0120.19-7.246c1.363-.142 5.249-.193 6.734-.097 10.248.666 20.184 4.808 28.928 12.073a64.462 64.462 0 017.905 7.874 71.888 71.888 0 0112.15 20.94c4.641 12.386 6.031 26.027 3.944 38.664-1.895 11.477-6.6 21.892-13.5 29.888a45.853 45.853 0 01-18.725 13.174 43.402 43.402 0 01-17.155 2.599zm-33.813-53.197a10.184 10.184 0 008.77-13.75 10.511 10.511 0 00-5.082-5.537 10.16 10.16 0 00-10.416.96c-.62.455-1.542 1.357-2.042 1.984a10.146 10.146 0 00-1.107 10.627 10.754 10.754 0 003.725 4.173c1.3.833 3.022 1.41 4.584 1.537.34.026.653.051.691.064l.877-.064zm-85.228 52.51a43.312 43.312 0 01-14.832-3.417 55.13 55.13 0 01-5.186-2.644 48.094 48.094 0 01-13.775-12.533c-6.389-8.515-10.466-19.173-11.76-30.728-.512-4.577-.576-9.653-.192-14.377 1.255-15.12 7.042-29.76 16.17-40.866a68.168 68.168 0 019.059-9.06c7.438-6.029 16.099-9.979 24.594-11.2a44.912 44.912 0 0111.22-.225c11.447 1.267 21.708 6.933 29.55 16.323 7.522 8.994 12.329 21.138 13.52 34.126.236 2.638.282 3.643.282 6.805 0 3.156-.038 4.142-.282 6.818-1.261 13.973-6.299 27.289-14.43 38.133a63.323 63.323 0 01-12.418 12.508c-5.748 4.32-12.015 7.38-18.404 8.988a43.703 43.703 0 01-7.534 1.255c-1.447.114-4.244.166-5.582.096zm40.86-52.318a10.197 10.197 0 007.938-12.11 10.197 10.197 0 00-9.903-8.021 10.204 10.204 0 00-9.128 5.651 10.133 10.133 0 001.472 11.203 10.331 10.331 0 006.503 3.418c.122.02.736.02 1.377.006a8.578 8.578 0 001.741-.147z"/><path fill="#fab314" d="M246.447 405.981a163.109 163.109 0 01-14.377-.998 159.85 159.85 0 01-16.817-2.804 96.893 96.893 0 01-3.56-.832 170.232 170.232 0 01-15.005-4.532 159.075 159.075 0 01-51.761-30.343 196.184 196.184 0 01-6.895-6.383l-.48-.486 5.852-5.863 5.85-5.858 1.184 1.14a145.235 145.235 0 0010.96 9.589 142.687 142.687 0 0088.864 30.803c4.653 0 7.65-.115 11.875-.46 36.545-2.99 70.357-19.82 95.022-47.294a145.196 145.196 0 0014.768-19.627A142.495 142.495 0 00393.45 254.8c.256-4.2.333-10.736.166-14.41a147.834 147.834 0 00-1.914-18.5l-.218-1.255 6.952-6.952a391.241 391.241 0 016.997-6.914 160.727 160.727 0 014.584 29.703c.204 3.547.243 5.038.243 9.512 0 4.482-.039 5.966-.244 9.5a159.357 159.357 0 01-35.784 91.732 165.285 165.285 0 01-17.296 18.084 159.446 159.446 0 01-97.205 40.438c-3.189.192-4.488.224-8.534.243-2.247.013-4.384.013-4.75 0zm-12.79-68.962l-20.376-35.304-3.822-6.625 20.401-.02h40.803l20.402.02-3.822 6.625-36.981 63.982z"/><path fill="#279ad5" d="M391.458 220.475l-.416-2.119a142.77 142.77 0 00-27.866-60.852 147.45 147.45 0 00-10.434-11.907l-1.011-1.049 5.863-5.864 5.858-5.857 1.664 1.709a159.094 159.094 0 0140.118 71.375l.192.775-6.966 6.971c-6.17 6.172-6.977 6.952-7.002 6.818z"/><path fill="#7cbb41" d="M350.75 143.613a151.976 151.976 0 00-7.156-6.555 143.187 143.187 0 00-36.07-22.635 142.072 142.072 0 00-29.659-9.217l-2.112-.43c-.09-.031 1.408-1.561 6.85-6.996l6.958-6.965.775.192a159.549 159.549 0 0144.81 19.25 160.253 160.253 0 0126.884 21.187l1.409 1.376-5.839 5.852c-3.22 3.212-5.863 5.843-5.876 5.843-.02 0-.454-.409-.973-.909z"/><path fill="#ee5128" d="M135.984 358.022a159.126 159.126 0 01-32.096-47.217 160.067 160.067 0 01-13.38-55.07c-.217-3.605-.25-4.802-.25-9.75 0-4.949.033-6.146.257-9.75a160.457 160.457 0 019.897-46.583 159.229 159.229 0 0111.157-23.634 161.11 161.11 0 0134.568-41.596 159.075 159.075 0 0142.44-26.17 160.323 160.323 0 0151.942-12.02c3.597-.219 4.795-.25 9.743-.25s6.145.031 9.749.255c7.246.442 14.339 1.351 21.413 2.753 3.053.602 7.919 1.709 8.047 1.83l-6.908 6.991-6.951 6.952-1.684-.282a144.653 144.653 0 00-51.519.762 142.65 142.65 0 00-50.29 20.42 144.448 144.448 0 00-42.172 42.18 142.815 142.815 0 00-15.882 33.005 143.686 143.686 0 00-6.894 55.328 142.796 142.796 0 0020.99 65.14 142.162 142.162 0 0019.435 24.863l1.652 1.703-5.832 5.844-5.87 5.845a49.163 49.163 0 01-1.562-1.55z"/><path fill="#131313" d="M226.416 231.415c-2.285-.256-4.346-1.217-5.96-2.772a9.954 9.954 0 01-3.116-7.726 9.826 9.826 0 012.944-6.722 9.326 9.326 0 012.522-1.863 10.14 10.14 0 0114.595 7.042c.11.537.128.832.128 1.946.006 1.133-.013 1.408-.134 1.972a10.108 10.108 0 01-2.624 5.018 9.928 9.928 0 01-5.672 3.01c-.705.127-2.03.171-2.682.095zm45.29-.404a10.16 10.16 0 01-8.603-8.251c-.166-.87-.166-2.688 0-3.566a10.85 10.85 0 011.71-4.097c.23-.32.729-.896 1.107-1.28a10.16 10.16 0 015.185-2.79c.857-.192 2.95-.206 3.822-.026a10.191 10.191 0 018.218 8.853c.103.864.046 2.272-.128 3.092a10.171 10.171 0 01-11.31 8.065z"/><path fill="#100f0e" d="M130.12 324.325a142.751 142.751 0 01-21.727-57.184 145.619 145.619 0 01-1.158-31.783 142.56 142.56 0 0118.295-60.198 144.122 144.122 0 0132.808-39.254 142.937 142.937 0 0199.605-33.14 142.712 142.712 0 0163.138 18.487 144.032 144.032 0 0139.253 32.807 142.943 142.943 0 0133.147 99.606 142.751 142.751 0 01-23.225 70.864l-.128.154-1.364-.5c-10.459-3.828-24.03-7.362-38.337-9.967a410.394 410.394 0 00-45.189-5.537l-1.882-.147 3.894-6.754 3.898-6.766-81.772.019 3.905 6.785 3.898 6.786-2.49.186a449.307 449.307 0 00-17.905 1.638c-25.861 2.913-48.375 7.797-65.78 14.276l-.512.192zm181.18-39.957a42.505 42.505 0 0014.55-3.035c12.412-4.93 22.449-15.773 27.833-30.08 2.432-6.466 3.841-13.385 4.225-20.709.083-1.575.083-5.748 0-7.316a76.395 76.395 0 00-10.607-35.317 66.773 66.773 0 00-14.192-16.727c-8.168-6.824-17.669-11.01-27.206-11.996-2.529-.257-6.1-.289-8.412-.065-10.472.993-19.78 5.442-27.41 13.091-7.644 7.67-13.022 18.084-15.435 29.895-2.189 10.69-1.875 22.02.93 33.179 4.205 16.752 14.05 31.437 27.006 40.277 8.143 5.55 17.26 8.623 26.195 8.822l.781.032zm-116.552-.833c9.104-.941 17.534-4.32 25.319-10.178 15.184-11.408 25.234-30.497 26.975-51.224.256-3.073.333-7.701.166-10.345-.602-9.71-2.848-18.384-6.785-26.246-3.623-7.22-8.642-13.449-14.512-18.02a43.337 43.337 0 00-24.07-9.179c-1.28-.084-4.154-.084-5.44 0-10.972.704-21.58 5.422-30.766 13.673-1.344 1.204-3.968 3.873-5.172 5.237-9.398 10.741-15.46 24.536-17.348 39.51a65.742 65.742 0 00-.544 8.436c-.045 3.815.064 6.164.448 9.474 1.216 10.34 4.66 19.96 10.018 27.968 5.666 8.463 13.232 14.704 21.989 18.135a46.73 46.73 0 006.676 1.998 51.083 51.083 0 005.954.838c1.204.09 5.953.038 7.093-.083z"/></svg>