<svg xmlns="http://www.w3.org/2000/svg" viewBox="0 0 300 300" xmlns:v="https://vecta.io/nano"><path d="M289.922 98.497c0-65.079-42.656-84.161-42.656-84.161-41.859-19.216-153.029-19.015-194.487 0 0 0-42.663 19.082-42.663 84.161 0 77.465-4.419 173.678 70.723 193.563 27.123 7.164 50.429 8.704 69.183 7.633 34.019-1.875 53.108-12.119 53.108-12.119l-1.138-24.706s-24.311 7.633-51.635 6.762c-27.056-.937-55.571-2.946-60.011-36.155-.412-3.085-.613-6.195-.603-9.307 57.332 13.993 106.222 6.093 119.68 4.486 37.574-4.486 70.301-27.652 74.472-48.809 6.561-33.343 6.026-81.349 6.026-81.349zm-50.296 83.826h-31.22v-76.461c0-33.276-42.85-34.548-42.85 4.62v41.846h-31.02v-41.853c0-39.168-42.85-37.896-42.85-4.62v76.461H60.399c0-81.75-3.482-99.024 12.326-117.169 17.341-19.35 53.442-20.622 69.518 4.084l7.767 13.056 7.767-13.056c16.143-24.84 52.304-23.3 69.518-4.084 15.875 18.278 12.319 35.485 12.319 117.169l.013.007z" fill="#fff"/></svg>