<svg xmlns="http://www.w3.org/2000/svg" version="1.0" viewBox="0 0 300 300">
  <g fill="#fff">
    <path d="M16 152.5V237h45v-19H40V87h21V68H16v84.5zM235 77.5V87h21v131h-21v19h46V68h-46v9.5zM117.5 103.85c-2.2 1-6.15 4.15-8.75 6.95l-4.75 5.1V103H79v98h26v-30.75c0-40.9 1.85-46.25 16.05-46.25 13.05 0 13.4 1.1 13.75 42.25l.3 34.75h26.75l.35-32.25c.4-41.1 1.8-44.9 16.3-44.9 12.4 0 13.5 3.6 13.5 44.1V201h27l.1-34.25c.15-47.35-.1-48.9-9.75-57.95-11.8-11.1-38-9-47.8 3.8l-3.35 4.45-2.35-4.25c-5.5-9.9-26.05-14.7-38.35-8.95z"/>
  </g>
</svg>