<svg xmlns="http://www.w3.org/2000/svg" viewBox="0 0 179.63 37.78">
  <path fill="#e06e2e" d="M14.29 18.9V9.7l13.75 9.22-13.66 9.16z"/>
  <path fill="#6f6f6f" d="M.18 19.08l13.87 9.29L.18 37.6z"/>
  <path fill="#fff" d="M.27.39l13.55 9L.18 18.73z"/>
  <path fill="#fff" d="M61.56 33.12a8.1 8.1 0 01-6.03-5.3c-.36-.93-.4-1.37-.4-3.53 0-2.57.11-3.12 1.07-5.03.49-.97 2.5-2.87 3.6-3.38 1.48-.7 3.2-.94 4.69-.69 3.15.54 5.05 2.37 5.8 5.56.26 1.17.36 3.88.15 4.64l-.1.4h-10.4l.11.48c.07.27.32.83.56 1.24 1.12 1.92 3.73 2.45 6.56 1.33a5.26 5.26 0 011.17-.38c.19.25 1.51 2.78 1.51 2.9 0 .15-.62.5-2.12 1.21-1.55.74-4.25.98-6.17.55zm4.45-10.78c.2-.07.22-.28.13-.84-.17-1.05-.46-1.57-1.12-2.02-.71-.5-2.3-.54-3.23-.1-1 .48-2.1 2.29-1.73 2.88.11.18 5.49.26 5.95.08zm13.75 10.75c-4.14-.9-6.8-4.77-6.5-9.42a9.3 9.3 0 012.59-6.17A7.48 7.48 0 0180 15.27a7.2 7.2 0 016.3 1.52c1.94 1.71 2.61 3.9 2.46 7.98l-.04 1.02H78.14l.35.9c.7 1.85 2.08 2.71 4.32 2.7 1.15 0 1.61-.1 2.45-.48.57-.26 1.1-.48 1.18-.48.23 0 1.76 2.84 1.64 3.04-.2.32-2.6 1.34-3.83 1.62-1.43.34-2.97.34-4.5 0zm4.45-10.76c.58-.22.08-2.05-.77-2.8-.58-.52-2.71-.6-3.47-.12-1.05.66-2.11 2.56-1.61 2.88.26.16 5.44.2 5.85.04zm43.7 10.7a4.06 4.06 0 01-2.44-2.2c-.82-1.6-.93-2.7-.94-9.23v-6.04h5.12v5.42c0 2.98.08 5.78.16 6.21.33 1.68 2 2.3 3.65 1.33 1.52-.9 1.48-.7 1.48-7.22v-5.75l2.6.05 2.6.05.05 8.29c.03 4.55 0 8.46-.05 8.68-.09.39-.17.4-2.1.4-2.26 0-2.15.07-2.33-1.51-.06-.53-.16-.96-.22-.96s-.43.33-.82.73a6.4 6.4 0 01-6.75 1.76zm24.09-.09a5.47 5.47 0 01-2.2-1.4c-.62-.57-.64-.55-.89.69l-.14.7h-4.04l-.05-12.3-.04-12.3h5.34l-.09 4.23c-.05 2.33-.03 4.23.04 4.23s.32-.15.55-.33a6.29 6.29 0 018.43.52c1.86 1.9 2.7 5.52 2.12 9.16a9.1 9.1 0 01-2.54 5.21c-1.87 1.88-4.33 2.49-6.5 1.6zm2.33-4.32a4 4 0 001.05-1.4c.42-.9.46-1.2.46-3.1 0-1.64-.07-2.32-.32-2.97-.8-2.06-3.13-2.48-4.9-.88l-.69.62v3.57c0 3.2.03 3.6.31 3.85 1.02.92 3.02 1.07 4.09.3zm16.2 4.5a8.02 8.02 0 01-4.02-2.2c-1.75-1.74-2.52-3.76-2.53-6.63 0-4.77 2.77-8.35 7.04-9.1 2.31-.4 4.53.25 6.16 1.79 1.55 1.47 2.39 3.72 2.38 6.43 0 .87-.05 1.76-.1 1.98l-.11.4h-5.19c-5.85 0-5.5-.1-4.73 1.42 1.1 2.16 3.81 2.83 6.68 1.63.85-.36 1.07-.4 1.25-.2.24.26 1.5 2.58 1.5 2.76 0 .07-.34.3-.75.5-2.64 1.37-5.1 1.76-7.57 1.22zm4.6-11.2c.09-.66-.32-1.7-.9-2.25-.44-.43-.67-.5-1.77-.55-1.1-.06-1.35-.01-1.89.35-1 .68-1.77 2.05-1.52 2.7.08.23.54.27 3.06.23l2.96-.05zm-138.97-.45V9.9h3.79c6.08 0 8.52.4 10.42 1.69 1.63 1.1 2.52 2.79 2.68 5.05.18 2.57-.5 4.55-2.06 6.1-1.65 1.61-3.58 2.25-7.47 2.45l-2.25.11v7.71H36.16zm10.1-.87c.38-.18.9-.61 1.15-.95.41-.54.49-.82.53-2.05.07-1.8-.25-2.4-1.6-3.02-.8-.38-1.17-.43-3-.43h-2.07v6.9l2.17-.06c1.67-.04 2.3-.13 2.83-.39zm46.25 12.2c-.05-.12-.07-4.03-.04-8.69l.05-8.46 2.05-.05c2.36-.06 2.16-.22 2.36 1.8l.13 1.24.37-.51c1.76-2.42 3.73-3.42 5.83-2.94.54.12.99.28.99.35 0 .08-.16.89-.35 1.8-.2.91-.36 1.82-.36 2.02 0 .34-.1.36-1.57.35-1.47 0-1.62.03-2.33.53-.42.29-1 .87-1.3 1.29l-.53.76-.1 5.32-.08 5.32-2.52.05c-1.91.04-2.53 0-2.6-.18zm18.97-9.13v-9.35h-6.36l.05-2.16.05-2.16H122.85l.05 2.16.05 2.15-3.13.05-3.14.05-.04 9.3-.05 9.3H111.48z"/>
</svg>