<svg xmlns="http://www.w3.org/2000/svg" version="1.0" viewBox="0 0 128 128">
  <g fill="#fff">
    <path d="M70.4 8.45C63.95 11.25 59 22 59 33.2c0 4.15-.25 4.8-2.05 4.8-3.95 0-17.5 3.2-23.05 5.45-4.85 2-5.9 2.1-8 .95-15.55-8.5-33 9.3-23.8 24.3 1.65 2.75 2.45 6 2.95 11.8 1.95 24.75 24.4 40 58.95 40 34.55 0 57.2-15.3 59-40 .45-5.85 1.2-9 2.9-11.8 9.15-14.9-7.9-32.6-23.55-24.4-2.4 1.3-3.25 1.2-8.5-.95-3.2-1.3-9.9-3.15-14.85-4.05l-9-1.7v-4.05C70 19.8 75.45 14.8 82.5 22a28.32 28.32 0 008.45 5.7c2.5.95 6 3.2 7.8 5 8.25 8.2 22.7 3.35 24-8.05 1.7-15.1-14.7-22.55-25-11.35l-3.8 4.1-4.25-4.2c-6.1-5.95-12.75-7.6-19.3-4.75zm43.5 8.15c7.25 6.1-.35 17.3-8.8 12.95-4.9-2.5-5.7-9.05-1.65-13.1 3.15-3.15 6.6-3.1 10.45.15zM85.5 50.45c34.3 11.6 38.05 41.55 7 55.65C47.3 126.55-8.35 90.35 23.4 61.15c14.3-13.1 41.2-17.75 62.1-10.7zm-67.2 2.2c-.7.3-3.05 2.75-5.25 5.55L9 63.25v-3.6c0-4.7 2.85-7.7 7.25-7.55 1.8 0 2.7.3 2.05.55zM117 54c1.25 1.25 2 3.35 2 5.65v3.6l-4.05-5.05c-2.2-2.8-4.55-5.25-5.25-5.55-.65-.25.25-.55 2.05-.55 2-.05 4 .65 5.25 1.9z"/>
    <path d="M37.45 65.45c-3.35 3.35-3.35 9.35-.05 13.2 5.5 6.4 16.05 1.95 16.05-6.75 0-8.05-10.25-12.15-16-6.45zM77.35 65.4c-6.35 5.4-1.95 16.05 6.6 16.05 5.7 0 9.05-3.4 9.05-9.15 0-8.55-9.1-12.55-15.65-6.9zM39.95 95.9c7.15 13.3 34.7 14.65 46.5 2.2 3.95-4.2 2.8-4.75-4.15-2-8.35 3.35-28.15 3.4-36.3.1-6.7-2.7-7.35-2.7-6.05-.3z"/>
  </g>
</svg>