<svg xmlns="http://www.w3.org/2000/svg" fill="#fff" width="949.31" height="284.168" viewBox="0 0 251.172 75.186"><path d="M32.722 75c-8.173-1.13-15.635-4.813-21.53-10.63C3.844 57.126.001 47.969 0 37.703c-.002-10.29 3.731-19.307 11.01-26.59C21.257.86 35.859-2.595 49.549 1.992 62.375 6.289 71.83 17.15 74.57 30.737c.661 3.276.66 10.71-.003 13.857-1.629 7.735-5.078 14.178-10.487 19.587-5.348 5.348-11.645 8.766-19.005 10.317-2.995.631-9.506.896-12.352.503zM54.459 54.81c.579-.498.736-.862.736-1.699 0-1.486-.504-1.934-4.203-3.741-4.607-2.25-8.287-3.309-13.909-4.001-5.116-.63-14.787.107-19.918 1.519-1.562.43-2.047 2.753-.829 3.972.624.623.818.67 2.183.527.824-.086 2.451-.336 3.616-.556 10.26-1.94 20.742-.585 28.21 3.648 1.998 1.132 3.081 1.219 4.114.33zm4.605-10.195c.649-.648.774-.986.774-2.096 0-1.777-.709-2.454-4.541-4.342-7.281-3.587-14.97-5.282-24.034-5.298-5.066-.009-9.029.447-13.23 1.522-3.071.787-3.968 1.558-3.968 3.416 0 1.395.692 2.383 1.963 2.802.73.241 1.283.198 2.972-.233 11.423-2.912 24.61-1.545 34.09 3.533 3.295 1.765 4.738 1.933 5.974.696zm4.662-11.323c.888-.582 1.404-1.7 1.402-3.037-.002-1.983-.648-2.651-4.29-4.434-5.52-2.703-11.837-4.48-19.433-5.469-4.658-.606-14.129-.606-18.609 0-4.161.562-8.628 1.615-9.753 2.299-1.838 1.118-2.105 3.82-.537 5.437 1.202 1.24 2.064 1.326 5.294.527 4.407-1.09 8.517-1.525 14.389-1.523 9.818.004 18.282 1.7 24.976 5.002 1.397.689 2.898 1.4 3.334 1.579.923.379 2.319.214 3.227-.381zm52.388 29.39c-.102-.1-.185-7.724-.185-16.94V28.984h6.615v3.22l1.225-1.078c1.969-1.734 3.784-2.487 6.311-2.62 5.978-.313 10.854 3.45 12.432 9.595.512 1.993.514 5.6.005 7.758-1.386 5.88-6.106 9.71-11.904 9.662-2.637-.021-4.643-.734-6.633-2.355l-1.425-1.16-.072 5.356-.072 5.356-3.056.074c-1.682.041-3.14-.009-3.242-.11zm15.323-13.186c2.83-.84 4.57-3.34 4.805-6.906.17-2.554-.398-4.418-1.843-6.06-1.452-1.65-2.77-2.24-5.012-2.248-3.36-.01-5.83 2.03-6.735 5.565-1.068 4.167 1.031 8.519 4.646 9.633 1.577.486 2.543.49 4.14.016zm87.868 12.744c-.988-.344-1.923-.753-2.077-.907-.197-.197.035-.973.785-2.622.585-1.288 1.163-2.315 1.283-2.283.12.033.694.236 1.276.452 2.3.852 4.108.34 5.02-1.424.364-.704.21-1.136-3.817-10.758l-4.196-10.025-2.8-.075-2.8-.075-.069 10.262-.07 10.261h-6.349l-.07-10.252-.069-10.253h-3.168v-5.556h3.06l.293-2.468c.44-3.7 1.454-5.446 3.923-6.75 1.222-.647 1.564-.7 4.497-.69 1.828.006 3.484.142 3.903.322l.728.312v2.813c0 2.572-.04 2.798-.463 2.633-.255-.1-1.093-.308-1.863-.464-2.796-.566-4.289.509-4.289 3.088v1.204H222.196l3.421 8.971c1.882 4.934 3.481 8.914 3.554 8.845.073-.07 1.518-4.077 3.211-8.906l3.079-8.778 3.337-.074c1.955-.043 3.338.029 3.338.174 0 .387-10.468 27.34-11.123 28.641-.883 1.753-2.266 3.322-3.636 4.125-1.068.626-1.57.733-3.754.803-2.11.068-2.816-.021-4.318-.546zm-63.615-6.915c-4.875-1.111-9.035-5.061-10.289-9.769-.464-1.742-.464-5.207 0-6.949 1.596-5.991 7.103-10.151 13.44-10.151 3.976 0 7.1 1.288 9.894 4.08 2.16 2.16 3.131 3.979 3.767 7.054.741 3.583-.212 7.543-2.558 10.634-1.49 1.963-4.228 3.898-6.634 4.688-2.213.726-5.472.903-7.62.413zm6.445-6.182c2.432-1.242 3.79-3.418 4.005-6.416.341-4.767-2.859-8.445-7.348-8.445-4.973 0-8.34 4.68-7.034 9.777.709 2.768 2.245 4.49 4.886 5.479 1.343.502 4.125.302 5.49-.395zm-66.167 5.746c-1.156-.284-2.955-.927-3.999-1.43-2.029-.975-5.144-3.173-5.144-3.628 0-.152.841-1.267 1.87-2.478l1.869-2.202 1.636 1.215c2.262 1.68 4.618 2.7 7.063 3.056 4.793.698 7.955-1.06 7.598-4.226-.238-2.115-1.5-2.883-7.256-4.417-1.863-.496-4.054-1.153-4.87-1.458-3.15-1.18-5.654-3.62-6.344-6.182-.16-.599-.252-2.05-.202-3.223.204-4.768 3.362-8.28 8.458-9.403.93-.205 2.618-.283 4.498-.206 2.443.1 3.435.27 5.264.908 2.095.73 6.08 3.002 6.08 3.466 0 .297-3.158 4.685-3.445 4.786-.134.047-.633-.207-1.11-.566-2.388-1.791-6.126-2.974-8.693-2.75-2.824.247-4.478 1.636-4.478 3.76 0 2.322 1.366 3.238 7.09 4.753 4.097 1.085 5.723 1.723 7.718 3.03 2.866 1.877 4.168 4.592 3.9 8.13-.35 4.628-3.304 7.941-8.256 9.26-1.974.526-6.719.425-9.247-.195zm85.282.204c-2.588-.965-3.883-2.469-4.44-5.153-.169-.814-.291-4.34-.291-8.4V34.54h-3.175v-5.556h3.16l.073-3.506.074-3.506h6.35l.074 3.506.074 3.506h6.864v5.556h-6.88v6.732c0 6.601.012 6.746.596 7.425.797.926 2.311 1.117 4.297.54.915-.267 1.624-.349 1.768-.205.132.133.206 1.301.163 2.598l-.077 2.357-1.322.655c-1.073.531-1.794.669-3.836.73-1.637.05-2.849-.048-3.472-.28zm11.858-.083c-.102-.101-.185-5.998-.185-13.105v-12.92h6.355l-.069 13.03-.068 13.031-2.924.075c-1.609.04-3.008-.01-3.11-.11zm52.198-18.578c-.507-.27-1.187-.955-1.512-1.522-1.576-2.748.33-5.977 3.474-5.886l1.35.039-1.467.16c-1.769.191-2.674.738-3.256 1.965-1.185 2.497.242 5.055 3.048 5.463 1.33.193 1.35.207.348.238-.587.018-1.475-.186-1.985-.457zm3.894-.293c1.243-.758 1.75-1.916 1.604-3.67-.104-1.262-.248-1.572-1.083-2.337-.53-.486-.86-.883-.733-.883.505 0 2.145 2.147 2.173 2.845.05 1.265-.074 2.029-.449 2.754-.394.764-1.589 1.81-2.064 1.809-.162 0 .087-.234.552-.518zm-3.625-3.318v-1.984h1.402c.772 0 1.546.143 1.72.317.446.447.395 1.276-.114 1.838-.4.441-.399.527.006 1.145.356.544.368.669.065.669-.205 0-.567-.298-.806-.662-.238-.364-.668-.661-.956-.661-.382 0-.523.179-.523.661 0 .412-.15.662-.397.662-.318 0-.397-.397-.397-1.985zm2.717-.463c.224-.642-.138-.992-1.025-.992-.782 0-.898.086-.898.661 0 .577.116.662.904.662.497 0 .956-.149 1.02-.33zm-54-7.258c-1.32-.651-2.163-2.06-2.163-3.62 0-4.59 6.177-5.66 7.821-1.355.382 1 .408 1.377.156 2.218-.805 2.689-3.428 3.932-5.813 2.757z"/></svg>