<svg xmlns="http://www.w3.org/2000/svg" version="1.0" viewBox="0 0 300 300">
  <path fill="#fff" d="M134 13.6c-1.4.2-5.6.9-9.5 1.5-3.8.6-11.7 2.6-17.5 4.5C58.9 35 23.2 77.3 15.5 128c-4.2 27.1.3 54 13 79.5 7.8 15.6 13.8 24 26 36.1 18.3 18.1 41.1 30.3 67.5 36 10.7 2.3 39.8 2.6 50.5.5 42.6-8.3 77.8-35.1 96.6-73.6 21.6-44.3 17.8-94.6-10.3-135.7-19.1-28-49.3-47.8-84.3-55.5-6.7-1.4-35.1-2.7-40.5-1.7zM214 87c1.6 1.6 1.9 2.8 1.4 6.3-1.6 10.5-14.2 73.9-22.1 110.6-2.1 10-4.5 13.1-9.8 13.1-3.2 0-6.1-1.9-21.3-13.5-9.8-7.4-22.3-17.2-28-21.8l-10.3-8.2 7.3-6.7c4-3.7 18.6-17 32.5-29.5 13.8-12.6 25.4-23.4 25.8-24.2.9-2.3-1.1-3.6-3.7-2.4-1.3.6-20.5 12.6-42.8 26.8l-40.5 25.7-10.5-3.3c-20.9-6.7-25.4-8.6-27.4-11.2-1.7-2.4-1.8-2.8-.4-5 1.5-2.2 19.3-10.2 53.8-24.2 26-10.6 90.7-34.5 93.3-34.5.4 0 1.6.9 2.7 2zm-28.6 28c-1.6 1.7-16.4 15.3-32.9 30.3l-29.9 27.2-1.7 12.5c-.9 6.9-2 15.2-2.4 18.5-.4 3.8-1 5.4-1.5 4.5-1.5-2.8-13.1-41.4-12.8-42.8.3-1.4 83-54.4 83.7-53.6.3.3-.8 1.8-2.5 3.4zm-50.6 69.5l8.3 6.8-9.7 9.1c-10.4 9.7-12 11-13.2 10.2-.6-.3 2.5-28.5 3.7-34.5.1-.4.6-.1 10.9 8.4z"/>
</svg>