<svg xmlns="http://www.w3.org/2000/svg" version="1.0" viewBox="0 0 300 300">
  <path fill="#fff" d="M136.5.6C72.6 7.1 20.4 51.5 4.9 112.5c-8.8 35-5 72.3 10.6 103.8 21 42.1 58.5 70.9 105.5 80.8 15.1 3.2 42.9 3.2 58 0 57.7-12.2 102-54.1 116.1-109.7 21.2-84.1-31.7-168.1-116.5-184.5C168.9 1 145.2-.3 136.5.6zm31.6 85.5c1.8 1.8 1.9 2.8 1.4 7.7-1 8.1-3.4 19.7-11 52.2-13.1 56.4-15.3 64.3-18.1 66.8-3.2 2.8-6.3 2.8-10.2-.1-22.8-16.5-29.7-21.6-41.2-30.6-7.4-5.7-13.7-10.6-14-10.9-.3-.2.2-.9 1.2-1.6 1.4-1.1 22.4-20.9 48.8-46.3 5.2-5 10.6-9.9 11.8-11 1.6-1.2 2.3-2.7 2-4.1-.3-2.1-4.3.1-44.3 25.1l-44 27.3-17-5.4c-19.8-6.3-21.7-7.3-21.3-10.9.3-3.1 3.6-4.9 20-11.4 30.1-12 130-48.6 133.1-48.8.4-.1 1.6.8 2.8 2zm-36.7 28c-1 1.2-14.7 14.4-30.4 29.2l-28.5 27.1-1.2 10.5c-.6 5.8-1.4 14.6-1.8 19.5-.4 4.8-1 8.4-1.4 8-.4-.5-1.7-3.6-2.9-6.9-1.1-3.3-4.6-13.1-7.6-21.8-3.1-8.6-5.6-16.1-5.6-16.6s13.6-9.3 30.3-19.7c16.6-10.3 34.7-21.6 40.2-25.1 5.5-3.4 10.2-6.3 10.4-6.3.2 0-.4 1-1.5 2.1zm107.2 3.8c9.1 5.6 11 20.5 3.7 29.2-1.4 1.6-2.4 3.1-2.2 3.3.2.2 5.2 2.6 11.2 5.5L262 161v10.2c0 5.7-.4 10.9-.8 11.6-.7.9-7.3 1.2-29.8 1l-28.9-.3-.5-10.5c-.4-8.4-.2-10.7 1-12.1.8-.9 5.9-3.6 11.3-5.9 8.6-3.9 11.7-6 8.7-6-.5 0-2.1-2-3.5-4.3-3.4-6-3.6-15.8-.2-20.8 5-7.4 12.9-9.9 19.3-6zm-27.2 12.8c-.5 6.5-.3 8.6 1.4 12.5 2.4 5.4 2.7 5.1-7.3 10.1-8.5 4.2-9.5 6-9.5 16.3v7.5l-6.7-.3-6.8-.3-.3-8.8-.3-8.8 9.5-4.5 9.5-4.5-2.4-2.3c-5.5-5.5-5.2-16 .5-21.8 2.4-2.3 3.7-2.8 7.9-2.8h5l-.5 7.7zm52.4-6.1c5.7 4 7.1 15.3 2.7 21.8L264 150l8.5 4.2 8.5 4.2V176.7l-3.9.6c-2.1.2-5 .3-6.4 0-2.4-.5-2.5-.8-2.9-8.8-.4-9.9-1.2-11.2-11-16.1-3.6-1.8-6.9-3.7-7.1-4.2-.3-.4.3-3.2 1.3-6.2 1.8-5.1 1.9-13.7.3-16.4-1.7-2.7 8.8-3.6 12.5-1zM85.6 182.1c5.7 4.4 10.4 8.4 10.4 8.8 0 .5-1.5 2-3.2 3.4-1.8 1.4-6.7 5.7-10.8 9.6-7.5 7-11 8.7-11 5.3-.1-3.3 3.4-35.2 3.8-35.2.2 0 5.1 3.6 10.8 8.1z"/>
</svg>