<svg xmlns="http://www.w3.org/2000/svg" version="1.0" viewBox="0 0 300 300">
  <path fill="#fff" d="M136.5.6C72.6 7.1 20.4 51.5 4.9 112.5c-8.8 35-5 72.3 10.6 103.8 21 42.1 58.5 70.9 105.5 80.8 15.1 3.2 42.9 3.2 58 0 57.7-12.2 102-54.1 116.1-109.7 21.2-84.1-31.7-168.1-116.5-184.5C168.9 1 145.2-.3 136.5.6zm31.1 84.8c3.5 2.6 2.2 11.7-8.5 57.6-13 56.4-16.1 67.9-18.8 70-1.4 1.1-3.6 2-4.8 2-1.2 0-6.9-3.5-12.6-7.8-5.8-4.2-18.9-13.9-29.2-21.6C83.4 178 75 171.4 75 171c0-.4 1.9-2.4 4.3-4.5 2.3-2.1 16.6-15.6 31.8-30.1 24.8-23.6 30.2-29.5 28.1-30.8-.4-.2-5.2 2.5-10.7 5.9C123 115 103 127.3 84 139l-34.5 21.2-16.5-5.3c-9.1-2.9-17.5-5.8-18.7-6.6-3-1.8-3-5.6.1-7.6 5.3-3.5 94.4-37.1 148.6-56 2.3-.8 2.5-.8 4.6.7zm-35.1 27.7c-1.1 1.1-15.1 14.5-31.2 29.7-23.3 22-29.4 28.3-29.8 30.7-.6 3.5-2.5 28.4-2.5 32.9-.1 4.3-1 2.4-6.6-13-8.1-22.6-11.3-32.4-10.6-32.4.4 0 18.9-11.2 41.2-25 22.3-13.7 40.7-24.9 40.9-25 .2 0-.4.9-1.4 2.1zm126.9 10.7c-3.4 6.3-3.7 6.4-6.1 4.7l-2.1-1.5 3-5.5c2.9-5.4 3-5.4 5.3-3.9l2.5 1.6-2.6 4.6zm-13.4 5.4c19.5 36.8 18.1 33.7 15.7 34.3-1.2.2-15.1 3-30.8 6-33.8 6.6-34.5 6.7-37.8 9.9l-2.6 2.5-4.1-7.9-4.2-7.8 4-.6c3.6-.6 6.6-3.2 28.2-24.6 13.2-13.2 24.3-24 24.6-24 .3 0 3.4 5.5 7 12.2zm25.2 6.6c-.9.8-3.3 2.2-5.3 3.2l-3.6 1.9-1.2-2.6c-.6-1.4-1-2.7-.9-2.8.2-.1 2.5-1.4 5.3-2.9l4.9-2.6 1.3 2.3c1 1.8.9 2.4-.5 3.5zm2 11.8c4.2.6 4.4.8 4 3.5-.4 2.7-.5 2.8-5.6 2.3-7.2-.8-7.4-.9-6.9-3.8.6-2.8 1.3-3 8.5-2zm-39.6 28.6c-1.2 5.9-3 7.5-9.9 8.7-9.4 1.6-10.1 1.5-13.5-2.8l-3.2-3.9 3.1-.7c2.4-.5 3.5-.2 5 1.4 1.5 1.6 2.7 1.9 5.2 1.5 4.1-.8 7.7-3 7.7-4.8 0-1.6 1.5-2.4 4.4-2.5 1.6-.1 1.8.4 1.2 3.1zm-142.8 10l6.2 4.6-2.5 2c-1.3 1.1-6.1 5.3-10.5 9.3-8.3 7.6-11.5 9.7-12.7 8.6-.6-.7 1.4-30.1 2.4-34.5.6-2.5-.3-3 17.1 10z"/>
</svg>