<?xml version="1.0" encoding="UTF-8" standalone="no"?>
<!DOCTYPE svg PUBLIC "-//W3C//DTD SVG 1.1//EN" "http://www.w3.org/Graphics/SVG/1.1/DTD/svg11.dtd">
<svg width="100%" height="100%" viewBox="0 0 1117 1117" version="1.1" xmlns="http://www.w3.org/2000/svg" xmlns:xlink="http://www.w3.org/1999/xlink" xml:space="preserve" xmlns:serif="http://www.serif.com/" style="fill-rule:evenodd;clip-rule:evenodd;stroke-linejoin:round;stroke-miterlimit:2;">
    <g transform="matrix(4.22804,0,0,4.22804,-2333.83,-1709.06)">
        <g id="Layer-1" serif:id="Layer 1">
            <g>
                <g transform="matrix(1,0,0,1,701.462,553.165)">
                    <path d="M0,-104.883C2.224,-100.968 4.447,-97.054 6.671,-93.139C6.988,-91.57 7.304,-90.002 7.621,-88.433C7.723,-86.443 7.438,-84.337 7.991,-82.482C10.977,-72.453 10.323,-62.432 8.478,-52.34C8.025,-49.863 8.042,-47.298 7.875,-44.771C7.378,-37.2 7.853,-29.413 6.198,-22.107C3.382,-9.668 -2.665,-2.687 -14.665,-1.928C-17.125,-1.773 -19.889,-3.058 -22.06,-2.33C-29.012,0 -33.424,-3.922 -38.012,-7.838C-39.919,-9.465 -41.866,-11.047 -43.777,-12.67C-47.474,-15.806 -51.959,-18.407 -54.613,-22.266C-57.048,-25.808 -57.503,-30.712 -58.831,-35.016C-56.745,-33.624 -54.659,-32.233 -52.696,-30.922C-46.604,-34.709 -42.58,-32.779 -41.806,-26.195C-41.654,-24.908 -40.946,-23.284 -39.952,-22.577C-37.605,-20.907 -34.999,-19.55 -32.368,-18.348C-30.491,-17.491 -19.016,-21.551 -17.646,-23.244C-16.175,-25.064 -14.858,-27.085 -13.102,-28.582C-7.948,-32.975 -6.416,-39.299 -4.412,-45.181C-1.569,-53.526 0.49,-62.146 2.702,-70.695C5.23,-80.469 6.936,-90.229 1.303,-99.686C0.427,-101.156 0.413,-103.138 0,-104.883" style="fill:rgb(221,221,221);"/>
                </g>
                <g transform="matrix(1,0,0,1,642.692,419.477)">
                    <path d="M0,81.261C1.088,77.013 2.175,72.766 3.263,68.518C3.527,68.274 3.865,68.075 4.043,67.781C17.165,46.212 29.658,24.314 39.423,0.96C40.015,-0.455 41.683,-1.419 42.852,-2.593C44.024,-1.357 45.585,-0.306 46.283,1.157C47.512,3.729 48.106,6.595 49.158,9.262C50.858,13.576 52.715,17.828 54.505,22.107C54.272,30.163 54.066,38.22 53.796,46.275C53.658,50.407 53.973,54.669 53.043,58.628C52.118,62.569 50.23,66.411 48.115,69.902C46.672,72.282 44.111,73.985 41.97,76.068C40.162,71.864 38.101,67.635 39.132,62.709C40.209,61.107 41.783,59.643 42.274,57.878C44.191,50.98 43.49,43.908 42.764,36.928C42.552,34.897 41.201,32.859 39.987,31.089C38.546,28.987 36.566,29.208 35.248,31.405C34.791,32.167 34.564,33.082 34.316,33.952C32.578,40.059 31.054,46.243 26.693,51.216C26.015,51.989 25.797,53.183 25.423,54.203C20.911,66.521 13.656,76.661 2.126,83.854C1.326,82.878 0.663,82.07 0,81.261" style="fill:rgb(251,251,251);"/>
                </g>
                <g transform="matrix(1,0,0,1,642.631,505.717)">
                    <path d="M0,12.432C1.328,16.736 1.783,21.64 4.218,25.182C6.872,29.041 11.357,31.642 15.054,34.779C16.965,36.401 18.912,37.983 20.819,39.611C25.407,43.526 29.819,47.449 36.771,45.118C38.942,44.39 41.707,45.676 44.167,45.52C56.167,44.761 62.213,37.781 65.029,25.342C66.684,18.035 66.209,10.248 66.706,2.678C66.873,0.151 66.856,-2.415 67.309,-4.891C69.154,-14.984 69.808,-25.005 66.822,-35.033C66.269,-36.889 66.554,-38.995 66.453,-40.985C68.766,-37.506 71.165,-34.082 73.365,-30.533C75.239,-27.508 77.865,-24.495 78.385,-21.197C79.068,-16.865 78.087,-12.253 77.683,-7.773C77.31,-3.637 76.701,0.475 76.295,4.608C75.995,7.673 76.097,10.795 75.592,13.819C74.22,22.03 72.574,30.195 71.127,38.393C70.155,43.9 67.087,46.505 61.278,46.628C60.218,46.65 59.091,46.814 58.119,47.216C53.636,49.067 47.863,47.35 44.422,52.155C44.189,52.481 43.399,52.438 42.861,52.512C36.177,53.417 29.848,52.685 24.018,48.894C22.264,47.753 20.117,47.215 18.149,46.401C3.713,35.241 -2.987,20.651 -1.371,2.373C-1.181,2.804 -0.991,3.234 -0.802,3.664C-0.809,4.749 -0.815,5.834 -0.821,6.918C-0.566,8.036 -0.312,9.153 -0.058,10.27C-0.039,10.991 -0.019,11.711 0,12.432" style="fill:rgb(214,214,214);"/>
                </g>
                <g transform="matrix(1,0,0,1,660.78,472.135)">
                    <path d="M0,79.983C1.967,80.796 4.115,81.335 5.869,82.476C11.699,86.267 18.028,86.999 24.711,86.093C25.25,86.02 26.04,86.063 26.273,85.737C29.714,80.932 35.486,82.649 39.97,80.797C40.941,80.396 42.068,80.232 43.129,80.21C48.938,80.087 52.005,77.482 52.978,71.975C54.425,63.776 56.071,55.612 57.443,47.401C57.948,44.377 57.845,41.254 58.146,38.19C58.552,34.057 59.161,29.944 59.534,25.809C59.938,21.329 60.918,16.716 60.236,12.384C59.715,9.087 57.09,6.073 55.215,3.048C53.016,-0.5 50.616,-3.925 48.303,-7.403C47.986,-8.972 47.669,-10.54 47.353,-12.109C53.072,-3.294 59.378,5.2 64.395,14.399C77.103,37.705 71.079,72.783 41.81,85.671C27.227,92.092 12.759,90.532 0,79.983" style="fill:rgb(207,207,207);"/>
                </g>
                <g transform="matrix(1,0,0,1,603.185,602.973)">
                    <path d="M0,-39.407C1.33,-38.722 2.773,-38.197 3.971,-37.33C26.433,-21.067 51.599,-13.207 79.24,-12.515C108.177,-11.791 134.968,-18.435 159.169,-34.65C159.987,-35.198 161.007,-35.44 162.266,-35.962C159.173,-28.172 132.674,-14.279 112.945,-9.66C71.69,0 28.133,-11.137 -0.471,-38.398C-0.314,-38.734 -0.157,-39.071 0,-39.407" style="fill:rgb(253,253,253);"/>
                </g>
                <g transform="matrix(1,0,0,1,642.631,463.39)">
                    <path d="M0,54.759C-0.019,54.038 -0.039,53.318 -0.058,52.597C0.482,52.541 1.022,52.469 1.565,52.428C5.187,52.152 8.033,51.431 10.708,48.003C13.162,44.857 18.108,44.504 23.073,44.362C22.803,46.838 22.512,48.576 22.443,50.323C22.268,54.794 24.704,58.041 28.192,60.162C31.431,62.133 35.157,61.922 38.567,60.009C40.216,59.084 50.869,44.299 51.271,42.321C52.691,35.321 58.075,29.43 57.022,21.72C56.94,21.113 57.669,20.436 57.836,19.747C58.888,15.418 60.726,11.064 60.67,6.74C60.612,2.278 60.903,-2.884 56.631,-6.295C54.878,-10.069 55.347,-13.806 56.825,-17.525C57.494,-16.719 58.163,-15.913 58.831,-15.108C59.244,-13.363 59.258,-11.381 60.134,-9.911C65.767,-0.453 64.061,9.306 61.533,19.08C59.321,27.63 57.262,36.249 54.419,44.594C52.415,50.476 50.883,56.801 45.729,61.193C43.973,62.691 42.656,64.712 41.185,66.531C39.815,68.224 28.34,72.284 26.463,71.427C23.833,70.226 21.226,68.868 18.879,67.198C17.885,66.491 17.177,64.867 17.025,63.58C16.251,56.996 12.227,55.067 6.135,58.853C4.172,57.543 2.086,56.151 0,54.759" style="fill:rgb(229,229,229);"/>
                </g>
                <g transform="matrix(1,0,0,1,633.392,627.512)">
                    <path d="M0,-14.274C34.179,-2.527 68.237,-2.513 102.925,-15.075C97.585,-7.522 69.575,0.581 51.222,0.691C32.697,0.801 15.385,-3.229 0,-14.274" style="fill:rgb(252,252,252);"/>
                </g>
                <g transform="matrix(1,0,0,1,641.83,448.464)">
                    <path d="M0,60.917C-0.19,60.487 -0.38,60.057 -0.57,59.626C-0.093,57.175 0.385,54.725 0.862,52.274C1.524,53.083 2.188,53.891 2.988,54.868C14.518,47.675 21.772,37.534 26.285,25.217C26.659,24.196 26.877,23.002 27.555,22.229C31.916,17.257 33.439,11.073 35.178,4.966C35.426,4.096 35.652,3.18 36.11,2.418C37.428,0.221 39.408,0 40.849,2.103C42.063,3.873 43.414,5.91 43.625,7.941C44.352,14.921 45.053,21.994 43.136,28.892C42.645,30.657 41.071,32.121 39.994,33.723L39.987,33.717C42.387,25.913 42.94,18.171 39.309,9.642C38.125,11.194 37.149,12.012 36.773,13.047C34.992,17.945 33.829,23.118 31.604,27.793C26.687,38.126 19.714,47.002 10.776,54.231C8.293,56.24 5.673,58.093 3.022,59.878C2.169,60.454 1.016,60.584 0,60.917" style="fill:rgb(245,245,245);"/>
                </g>
                <g transform="matrix(1,0,0,1,699.456,505.625)">
                    <path d="M0,-59.76C-1.478,-56.041 -1.947,-52.304 -0.193,-48.53C0.025,-47.288 0.187,-46.032 0.47,-44.805C2.392,-36.484 2.953,-28.46 -3.165,-21.286C-4.324,-19.926 -4.426,-17.588 -4.802,-15.659C-5.211,-13.552 -5.372,-11.399 -5.64,-9.265C-7.618,-7.143 -9.843,-5.195 -11.501,-2.846C-13.02,-0.696 -13.926,1.888 -15.101,4.281C-15.584,4.2 -16.066,4.12 -16.549,4.04C-17.08,2.209 -17.612,0.379 -18.142,-1.452C-18.844,-3.882 -19.165,-6.517 -20.339,-8.692C-21.908,-11.596 -21.826,-14.122 -20.386,-16.936C-19.316,-19.027 -18.543,-21.269 -17.638,-23.445L-17.632,-23.439C-18.663,-18.513 -16.602,-14.284 -14.794,-10.08C-12.653,-12.163 -10.092,-13.865 -8.649,-16.246C-6.533,-19.737 -4.646,-23.579 -3.721,-27.52C-2.791,-31.479 -3.106,-35.741 -2.967,-39.873C-2.697,-47.928 -2.491,-55.985 -2.258,-64.041C-1.787,-63.619 -1.314,-63.197 -0.843,-62.774C-0.562,-61.769 -0.281,-60.765 0,-59.76" style="fill:rgb(245,245,245);"/>
                </g>
                <g transform="matrix(1,0,0,1,717.633,658.504)">
                    <path d="M0,-10.228C-15.558,-1.055 -50.725,0 -62.919,-8.916C-52.615,-8.305 -42.254,-7.052 -31.924,-7.259C-21.513,-7.469 -11.131,-9.13 0,-10.228" style="fill:rgb(247,247,247);"/>
                </g>
                <g transform="matrix(1,0,0,1,681.817,497.865)">
                    <path d="M0,-15.684C-0.905,-13.509 -1.678,-11.266 -2.748,-9.175C-4.188,-6.361 -4.27,-3.836 -2.701,-0.932C-1.527,1.244 -1.206,3.878 -0.503,6.309C0.026,8.139 0.558,9.97 1.089,11.8C1.572,11.881 2.054,11.961 2.537,12.041C3.712,9.649 4.619,7.065 6.137,4.915C7.795,2.566 10.02,0.618 11.998,-1.504C10.601,5.739 7.894,12.152 1.865,16.98C-0.575,18.934 -2.206,21.898 -3.943,24.075C-6.418,21.74 -9.104,19.486 -11.453,16.922C-14.717,13.357 -14.34,10.503 -10.9,7.205C-9.868,6.215 -9.133,4.686 -8.775,3.274C-8.178,0.92 -8.145,-1.574 -7.592,-3.943C-7.097,-6.066 -6.904,-7.762 -10.042,-8.453C-10.482,-3.875 -13.407,-1.402 -16.841,0.702C-17.592,1.162 -18.381,1.844 -18.736,2.616C-21.41,8.44 -29.603,7.213 -32.207,13.179C-32.392,13.604 -33.897,13.405 -34.771,13.586C-36.523,13.948 -38.263,14.372 -40.007,14.77C-40.001,13.686 -39.996,12.602 -39.989,11.517C-38.971,11.183 -37.818,11.053 -36.965,10.477C-34.314,8.692 -31.694,6.839 -29.211,4.83C-20.273,-2.398 -13.3,-11.274 -8.383,-21.607C-6.158,-26.283 -4.996,-31.456 -3.214,-36.353C-2.838,-37.389 -1.862,-38.206 -0.678,-39.759C2.953,-31.23 2.399,-23.488 0,-15.684" style="fill:rgb(239,239,239);"/>
                </g>
                <g transform="matrix(1,0,0,1,641.81,469.983)">
                    <path d="M0,42.652C1.745,42.254 3.484,41.83 5.236,41.467C6.11,41.287 7.616,41.485 7.801,41.061C10.405,35.095 18.597,36.321 21.271,30.498C21.626,29.726 22.416,29.044 23.167,28.584C26.601,26.48 29.525,24.007 29.966,19.429C33.103,20.12 32.911,21.816 32.415,23.939C31.862,26.308 31.829,28.801 31.232,31.155C30.874,32.568 30.14,34.097 29.107,35.087C25.667,38.385 25.291,41.239 28.555,44.804C30.903,47.368 33.589,49.622 36.064,51.957C37.801,49.78 39.433,46.816 41.873,44.862C47.901,40.034 50.608,33.621 52.005,26.378C52.274,24.244 52.434,22.09 52.843,19.984C53.219,18.055 53.322,15.716 54.481,14.357C60.598,7.183 60.038,-0.841 58.116,-9.162C57.833,-10.39 57.67,-11.645 57.452,-12.888C61.724,-9.477 61.433,-4.315 61.491,0.148C61.547,4.471 59.708,8.825 58.657,13.154C58.49,13.843 57.761,14.521 57.843,15.128C58.896,22.837 53.512,28.728 52.091,35.728C51.69,37.706 41.037,52.491 39.388,53.416C35.978,55.329 32.252,55.54 29.013,53.569C25.525,51.448 23.088,48.201 23.264,43.73C23.333,41.984 23.624,40.245 23.894,37.769C18.929,37.911 13.982,38.264 11.528,41.41C8.854,44.838 6.008,45.559 2.386,45.836C1.843,45.877 1.303,45.948 0.763,46.005C0.509,44.887 0.254,43.77 0,42.652" style="fill:rgb(234,234,234);"/>
                </g>
            </g>
        </g>
    </g>
</svg>
