<svg xmlns="http://www.w3.org/2000/svg" version="1.0" viewBox="0 0 240 240">
  <path fill="#fff" d="M158 22.7c-24.5 4.1-41.15 24.4-41.2 50.2v9.35l-7.65-.6c-29.5-2.5-60.3-17.8-83.65-41.5L16.55 31l-1.95 3.75c-9.05 17.65-5.05 41.7 9.5 56.4l5.55 5.65-3.55-.5c-2-.3-6.45-1.65-9.9-3-7.75-3.05-7.8-3.05-6.3 5.95 2.85 17.5 14.9 32.7 30.6 38.5 6.65 2.45 5.55 3.25-4.5 3.25-10.15 0-10.1-.1-6.35 7.3 7.3 14.45 24.85 26.6 38.7 26.75h3.15l-3 2.5c-12.5 10.3-36 17.7-56.65 17.85-6.4.05-11.5.4-11.25.75 2.05 3.3 26.75 13.95 40.05 17.25 89.8 22.35 175.3-43.75 175.35-135.6 0-5.7.3-6.9 2.15-8.2 5.9-4.15 21.85-21.3 21.85-23.55 0-.45-3 .3-6.7 1.65-3.7 1.3-9.5 3-12.9 3.7l-6.15 1.3 6.35-5.95c5.6-5.2 14.45-19.05 13.05-20.4-.2-.2-4.1 1.4-8.75 3.55-4.6 2.2-11.6 4.85-15.55 5.95l-7.15 1.95-3.35-3.45c-8.3-8.6-27.05-13.95-40.85-11.65z"/>
</svg>