<svg xmlns="http://www.w3.org/2000/svg" version="1.0" viewBox="0 0 300 67">
  <g fill="#fff">
    <path d="M21.3 1C4.1 2.1 2.3 3.9.8 21.9-.5 36.2.9 55.7 3.4 59.5c3.4 5.2 5.5 5.7 25.6 6.8 12.7.6 25.4.6 38.1 0 25.6-1.4 26.3-1.9 28.1-21.5.7-7.4.7-14.9 0-22.3C93.5 3.6 92.1 2.2 72.9.9 57.7 0 37.7 0 21.3 1zm29.2 25.3c6.1 3.4 10.9 6.7 10.8 7.2-.2 1-21.1 13.5-22.5 13.5-.5 0-.8-6.1-.8-13.5s.3-13.5.8-13.5c.4 0 5.7 2.8 11.7 6.3zM244 32.5V62h4c2.5 0 4.3-.5 4.6-1.4.4-1 1.3-.9 4.3.6 7.1 3.5 11.4.6 13.2-8.8 1.3-7 .6-24.8-1.1-28.6-2.3-5-9.3-5.5-14.2-1.1-1.7 1.5-1.8 1-1.8-9V3h-9v29.5zm16-4.6c.5 1.1 1 7.1 1 13.5 0 9.1-.3 11.8-1.6 13-1.9 2-2.9 2-4.8 0-2.3-2.2-2.3-23 0-26.2 1.9-2.7 4-2.8 5.4-.3zM106.5 9.7c8.2 28.1 9.5 34.1 9.5 43.1V62h9v-8.8c0-7.4.7-11.4 5-26.7 2.8-9.9 5.3-18.8 5.6-19.8.5-1.6 0-1.8-4.3-1.5l-4.8.3-2.6 12.1c-1.4 6.6-2.8 12.6-3 13.3-.3.7-1.7-4.9-3.3-12.3L114.7 5h-9.6l1.4 4.7zM188 9v4h9v49h9V13h10V5h-28v4zM142.1 20.3c-6.3 2.2-7.6 5.3-7.9 19-.4 15 .8 19.4 5.8 22 4.3 2.2 11.1 1.8 14.8-1 4-3 5.4-9.1 5-21.3-.4-10.9-2-15.9-5.6-17.9-3.2-1.7-8.6-2.1-12.1-.8zm6.7 6.9c1.3 1.3 1.8 24.2.6 27.2-1 2.5-4.3 1.9-5.4-1-.6-1.4-1-7-1-12.4 0-13.2 1.9-17.7 5.8-13.8zM283.1 20.3c-6.1 2.2-7.5 5.3-7.9 18-.6 18.5 2.2 24.1 12.2 24.1 6.9 0 10.2-2.1 11.6-7.5.6-2.3 1-4.2.8-4.4-.2-.1-2-.5-4-.8-3.6-.5-3.8-.4-4.6 2.6-.6 2.2-1.5 3.3-2.9 3.5-2.8.4-4.5-2.8-4.1-7.6l.3-3.7 7.9-.3 7.9-.3-.5-8.8c-.6-10.3-2.3-13.6-7.7-15.1-4.4-1.2-4.7-1.2-9 .3zm7.3 7.3c.3.9.6 3.8.6 6.5v5l-3.2-.3c-3.1-.3-3.3-.6-3.6-4.5-.2-2.3.2-5.1.8-6.3 1.3-2.4 4.5-2.7 5.4-.4z"/>
    <path d="M165 39v19.1l2.6 2.6c2.1 2.1 3.2 2.4 6.1 2 2-.4 4.7-1.6 6-2.9l2.4-2.2.6 2.2c.4 1.7 1.3 2.2 3.9 2.2h3.4V20h-9v16.8c0 17.3-.4 19.2-4.1 19.2-.9 0-2-.7-2.3-1.6-.3-.9-.6-9-.6-18V20h-9v19zM213 37.5c0 20.7.8 24 6.3 25 3.6.7 9.7-1.6 9.7-3.5 0-.6.5-1 1-1 .6 0 1 .9 1 2 0 1.7.7 2 4 2h4V20h-10v16.9c0 13.7-.3 17.1-1.5 18.1-.8.7-2.2 1-3 .6-1.3-.4-1.5-3.3-1.5-18.1V20h-10v17.5z"/>
  </g>
</svg>
