<svg xmlns="http://www.w3.org/2000/svg" version="1.0" viewBox="0 0 254 254">
  <path fill="#fff" d="M67.5 37.1c-24.2 1.2-39 3.2-45.1 6.1-6.2 2.9-12.3 8.9-15.2 15C2.1 69.1-.6 99.5.3 136c1 37.3 3.5 52.3 10.5 61.5 10.5 13.8 26.4 16 116.2 15.9 53.3 0 76-.8 93-3.5 15.3-2.4 25.2-10.9 29-24.9 3.9-14.4 5.9-58.1 4.1-86.4-2-30.3-4.8-41.3-12.6-49.1-10.7-10.7-24.8-12.4-103.5-13-28.3-.2-59.6.1-69.5.6zm70.8 71.8C153 117.4 165 124.6 165 125c0 .3-4.4 3.1-9.7 6.2-5.4 3-19.6 11.2-31.5 18.1L102 161.9V88l4.8 2.7c2.6 1.6 16.8 9.7 31.5 18.2z"/>
</svg>