<svg xmlns="http://www.w3.org/2000/svg" viewBox="0 0 24 24" width="40" height="40" fill="none"><g clip-path="url(#a)"><path fill="#000" d="M5.048 8.525H.493A.496.496 0 0 0 0 9.02v5.962a.496.496 0 0 0 .493.494h4.555a.496.496 0 0 0 .493-.494v-5.96a.496.496 0 0 0-.493-.496Zm-.823 5.388H1.71v-.592h.98v-2.3c-.171.198-.448.297-.832.297H1.71v-.637H2c.424 0 .71-.152.857-.456h.535v3.097h.832v.591Zm6.948-5.388H6.62a.496.496 0 0 0-.494.494v5.962a.496.496 0 0 0 .494.494h4.554a.496.496 0 0 0 .494-.494v-5.96a.496.496 0 0 0-.494-.496Zm-1.192 4.979c-.278.32-.65.48-1.116.48-.407 0-.734-.108-.982-.322-.247-.215-.38-.5-.396-.857h.705a.62.62 0 0 0 .185.425c.114.114.284.17.507.17.26 0 .452-.092.58-.276.127-.185.2-.49.216-.917-.23.209-.534.313-.913.313a1.515 1.515 0 0 1-.561-.098 1.07 1.07 0 0 1-.634-.643 1.265 1.265 0 0 1-.08-.448c0-.35.127-.636.38-.857.254-.22.579-.33.976-.33.163-.002.326.02.483.063a1.34 1.34 0 0 1 .767.573c.103.17.177.357.221.551.058.246.085.498.082.751-.002.628-.142 1.102-.42 1.421Zm-.588-2.561c.135.148.224.399.269.754a1.323 1.323 0 0 1-.784.244c-.209 0-.37-.055-.487-.165a.58.58 0 0 1-.174-.444.582.582 0 0 1 .177-.443.67.67 0 0 1 .47-.168.684.684 0 0 1 .529.222Zm4.946.31c0-.187.067-.326.202-.418a.968.968 0 0 1 .991 0c.135.091.202.23.202.417a.455.455 0 0 1-.104.307.56.56 0 0 1-.256.172c-.11.034-.224.05-.339.049a.892.892 0 0 1-.493-.13c-.135-.087-.203-.22-.203-.398Zm1.478 1.594a.459.459 0 0 1-.22.412c-.146.094-.331.14-.556.14-.224 0-.411-.046-.56-.14a.456.456 0 0 1-.225-.412c0-.191.074-.332.221-.423.147-.091.335-.137.564-.137.228 0 .414.046.56.137.144.09.217.232.216.423Zm1.537-4.322h-4.558a.496.496 0 0 0-.493.493v5.963a.496.496 0 0 0 .493.493h4.555a.497.497 0 0 0 .493-.493V9.02a.497.497 0 0 0-.49-.496Zm-.932 4.856a.958.958 0 0 1-.341.337c-.15.088-.312.153-.481.194-.371.089-.758.089-1.128 0a1.79 1.79 0 0 1-.482-.194.959.959 0 0 1-.341-.337.904.904 0 0 1-.126-.473c0-.235.06-.421.178-.56.125-.142.283-.253.46-.32-.368-.177-.552-.446-.552-.807a1.027 1.027 0 0 1 .081-.415.904.904 0 0 1 .216-.31c.095-.085.203-.155.32-.208a1.67 1.67 0 0 1 .385-.122c.279-.05.564-.05.842 0a1.7 1.7 0 0 1 .388.122c.117.052.226.122.321.208a.905.905 0 0 1 .216.31c.055.131.083.273.08.415 0 .36-.183.629-.552.807.178.066.335.176.458.32.12.137.18.323.18.56a.903.903 0 0 1-.122.473Zm3.865-.916 1.085-1.305v1.305h-1.085Zm3.22-3.94h-4.555a.496.496 0 0 0-.493.494v5.963a.496.496 0 0 0 .493.493h4.555a.496.496 0 0 0 .493-.493V9.02a.496.496 0 0 0-.493-.495Zm-.827 4.523h-.623v.881h-.685v-.88h-1.927v-.454l1.994-2.402h.618v2.272h.623v.583Z"/></g><defs><clipPath id="a"><path fill="#fff" d="M0 0h24v24H0z"/></clipPath></defs></svg>
