<svg xmlns="http://www.w3.org/2000/svg" width="40" height="40" fill="none"><path fill="#231F20" d="M2.177 9.775h15.381c.098 0 .178.079.178.177v4.257h20.087c.097 0 .177.08.177.178v15.66a.178.178 0 0 1-.177.178H2.177A.178.178 0 0 1 2 30.048V9.952c0-.098.08-.177.177-.177Z"/><path fill="#fff" fill-rule="evenodd" d="M17.38 14.564h20.265v15.307H17.381V14.564Z" clip-rule="evenodd"/><path fill="#231F20" d="M26.764 16.206h2.33c.049 0 .088.04.088.09v10.44a.089.089 0 0 1-.088.089h-2.33a.088.088 0 0 1-.089-.089v-10.44c0-.05.04-.09.09-.09Zm-7.774 0h6.37c.05 0 .09.04.09.09v2.329c0 .02-.007.039-.019.054l-3.684 5.64h3.614c.049 0 .088.039.088.088v2.33a.089.089 0 0 1-.088.088h-6.596a.089.089 0 0 1-.089-.089V24.58c0-.02.007-.038.018-.053l3.657-5.814H18.99a.09.09 0 0 1-.09-.088v-2.33c0-.049.04-.089.09-.089Zm15.082 2.507h-.708v1.901h.73a.563.563 0 0 0 .475-.288 1.278 1.278 0 0 0 .16-.708c-.008-.255-.072-.503-.203-.676a.547.547 0 0 0-.454-.229Zm-3.126-2.507h3.522c.867 0 1.48.348 1.893.888.494.645.698 1.564.714 2.49l.001.13c0 .84-.137 1.677-.52 2.312-.39.645-1.03 1.078-2.03 1.095H33.364v3.615c0 .05-.04.089-.088.089h-2.33a.089.089 0 0 1-.089-.089v-10.44c0-.05.04-.09.09-.09Z"/><path fill="#fff" d="M4.816 12.642h10.272c.05 0 .09.04.09.089v2.888c0 .026-.012.048-.029.065-1.375 1.48-2.53 3.317-3.336 5.288-.781 1.91-1.234 3.946-1.24 5.904 0 .05-.039.089-.088.089H7.079a.089.089 0 0 1-.089-.089v-.004c-.058-1.802.25-3.66.839-5.432a17.851 17.851 0 0 1 2.554-4.944H4.816a.088.088 0 0 1-.089-.089v-3.676c0-.05.04-.089.089-.089Z"/></svg>