<svg xmlns="http://www.w3.org/2000/svg" xml:space="preserve" id="Layer_1" viewBox="0 0 512 512" width="32" height="32" x="0" y="0" style="enable-background:new 0 0 512 512" version="1.1"><style>.st0{fill:#2d7aae}</style><path d="M384 288c0 23.7-12.9 44.3-32 55.4V384c0 17.7-14.3 32-32 32 22.5 0 43.5-5.8 61.9-16 1.3-5.1 2.1-10.5 2.1-16v-96z" class="st0"/><linearGradient id="SVGID_1_" x1="44.378" x2="447.022" y1="108.378" y2="511.022" gradientUnits="userSpaceOnUse"><stop offset="0" style="stop-color:#3ae7e1"/><stop offset=".948" style="stop-color:#1993d2"/></linearGradient><path d="M320 224H192c-17.7 0-32 14.3-32 32v128c0 17.7 14.3 32 32 32h128c17.7 0 32-14.3 32-32V256c0-17.7-14.3-32-32-32zm-32 128h-64v-64h64v64z" style="fill:url(#SVGID_1_)"/><linearGradient id="SVGID_00000172402524082644261950000017850675858297515650_" x1="158.782" x2="561.426" y1="-6.027" y2="396.617" gradientUnits="userSpaceOnUse"><stop offset="0" style="stop-color:#3ae7e1"/><stop offset=".948" style="stop-color:#1993d2"/></linearGradient><path d="M200.7 96c11.1-19.1 31.7-32 55.3-32s44.3 12.9 55.3 32h8.7c21.4 0 42.7 4.4 62.4 12.8C373.1 47.3 320 0 256 0S138.9 47.3 129.6 108.8c19.7-8.4 41-12.8 62.4-12.8h8.7z" style="fill:url(#SVGID_00000172402524082644261950000017850675858297515650_)"/><path d="M128 145.3c18.8-10.9 40.7-17.3 64-17.3 0-11.7 3.2-22.6 8.7-32H192c-21.4 0-42.7 4.4-62.4 12.8-1 6.3-1.6 12.7-1.6 19.2v17.3zM311.3 96c5.5 9.4 8.7 20.3 8.7 32 23.3 0 45.2 6.4 64 17.3V128c0-6.5-.6-12.9-1.6-19.2-19.7-8.4-41-12.8-62.4-12.8h-8.7z" class="st0"/><linearGradient id="SVGID_00000134226740407654928070000009802432056583808703_" x1="44.343" x2="446.986" y1="108.413" y2="511.057" gradientUnits="userSpaceOnUse"><stop offset="0" style="stop-color:#3ae7e1"/><stop offset=".948" style="stop-color:#1993d2"/></linearGradient><path d="M384 384c0 5.5-.8 10.9-2.1 16 39.4-21.8 66.1-63.8 66.1-112v-32c0-47.4-25.8-88.6-64-110.7-18.8-10.9-40.7-17.3-64-17.3H192c-23.3 0-45.2 6.4-64 17.3-38.2 22.1-64 63.3-64 110.7v128c0 70.7 57.3 128 128 128h128c0-35.3-28.7-64-64-64h-64c-35.3 0-64-28.7-64-64V256c0-35.3 28.7-64 64-64h128c35.3 0 64 28.7 64 64v128z" style="fill:url(#SVGID_00000134226740407654928070000009802432056583808703_)"/></svg>
