<svg xmlns="http://www.w3.org/2000/svg" id="Capa_2" data-name="Capa 2" viewBox="0 0 500 500"><defs><style>.cls-1{fill:#fff;stroke-width:0}</style></defs><g id="Capa_1-2" data-name="Capa 1"><path d="M250 8.66c133.29 0 241.34 108.05 241.34 241.34S383.29 491.34 250 491.34 8.66 383.28 8.66 250 116.71 8.66 250 8.66M250 0C112.15 0 0 112.15 0 250s112.15 250 250 250 250-112.15 250-250S387.84 0 250 0Z" class="cls-1"/><path d="M385.6 377.84c-.39.08-.77.17-1.16.25.71 2.47 1.37 4.82 1.96 7.19 1.4 5.64 2.81 11.28 4.21 16.91 9.54-8.85 18.25-18.57 26.01-29.04-6.35.75-12.86 1.53-19.23 2.43-3.92.55-7.75 1.38-11.8 2.26Z" class="cls-1"/><path d="M405 288.35c-78.81-12.75-161.7 12.77-228.94 53.36-15.77 9.52-33.12 18.95-44.36 34-7.65 10.28-11.68 22.52-14.14 35 6.45 5.28 13.23 10.18 20.31 14.67.01-.69.02-1.38.04-2.07.27-8.54 1.34-17.22 4.77-25.12 3.8-8.75 9.96-14.14 17.56-19.54 15.75-11.21 33.3-20.14 50.25-29.01 1.16-.61 2.81-.6 4.22-.88.32 1.28.99 2.59.9 3.85-.43 5.88-.3 11.81-.16 17.71.46 21.16 1.84 42.32 3.27 63.47.49 7.29 1 14.58 1.5 21.85a210.03 210.03 0 0 0 28.99 2.02c47.79 0 91.82-16.12 126.94-43.21-2.94-10.22-5.89-20.43-8.85-30.64-.12-.44-.27-.87-.43-1.3-.45.1-.9.21-1.33.34-25.77 7.16-51.97 17.21-80.11 30.75-.24.12-.49.25-.74.38-1.23.65-2.91 1.54-4.94 1.55h-.04c-2.47 0-5.79-1.37-7.08-3.94-1.33-2.67-.35-6.37 1.33-8.29 1.37-1.57 3.16-2.52 4.59-3.29l.79-.43a380.648 380.648 0 0 1 79.26-33.27c.75-.22 1.5-.45 2.25-.68-.48-1.23-.97-2.47-1.45-3.73-2.1-5.43-4.28-11.04-6.68-16.45-3.08-6.93-6.59-13.87-9.99-20.58l-1.75-3.47c-1.13-2.24-2.28-5.18-1.14-8.09.5-1.28 1.65-3.01 4.27-3.99 3.64-1.35 9.07 1.35 10.65 4.46 8.63 17 16.03 32.19 22.63 46.44.29.62.49.98.62 1.17.19-.02.51-.06.97-.16 16.55-3.77 32.97-5.37 48.79-4.77a206.84 206.84 0 0 0 18.46-39.79c-11.35-14.57-24.88-25.64-41.25-28.3Z" class="cls-1"/><path d="M455.59 229.46c-.46-4.53-1.19-9.03-2.04-13.52-.63-3.33-1.32-6.65-2.01-9.96-.74-3.57-1.38-7.17-2.26-10.71a191.17 191.17 0 0 0-16.52-43.66 198.68 198.68 0 0 0-7.62-13.22c-2.7-4.28-5.56-8.45-8.58-12.5a198.04 198.04 0 0 0-9.48-11.76c-3.3-3.79-6.74-7.45-10.31-10.98-3.56-3.52-7.26-6.92-11.07-10.17-3.81-3.26-7.75-6.36-11.78-9.33-4.04-2.97-8.18-5.79-12.42-8.47-4.24-2.68-8.58-5.2-13-7.56-4.43-2.37-8.94-4.58-13.52-6.64a214.17 214.17 0 0 0-28.32-10.37c-9.71-2.8-19.61-4.89-29.62-6.28-5.03-.69-10.08-1.21-15.14-1.54a210.5 210.5 0 0 0-15.28-.43c-5.12.05-10.25.29-15.35.71-5.14.44-10.27 1.06-15.36 1.89a202.245 202.245 0 0 0-30.51 7.42 194.41 194.41 0 0 0-15.01 5.59c-5.02 2.1-9.94 4.39-14.77 6.88-2.28 1.17-4.52 2.42-6.77 3.64-59.26 34.17-98.24 95-104.51 163.13-1.04 19.63.34 39.3 4.04 58.6h-.03s3.98 23.43 6.22 27.81c10.96 41.42 30.06 77.99 55.15 71.21a3.466 3.466 0 0 0 2.33-4.32c-.05-.15-.1-.31-.17-.45a19.924 19.924 0 0 1-10.91-7.84c-13.87-23.27 56.73-73.11 153.16-109.78 88.57-33.73 168.56-44.67 186.77-26.77 3.6 2.95 5 7.84 3.49 12.25a63.244 63.244 0 0 1-19.45 29.8c-.76.73-1.2 1.74-1.2 2.79s.43 2.07 1.19 2.8a3.783 3.783 0 0 0 5.1.24 73.937 73.937 0 0 0 24.37-35.04c.58-1.78.7-3.89.94-5.75.24-1.96.42-3.93.52-5.9.2-3.93.11-7.89-.29-11.83Zm-325.31 76.13c-11.8 8.37-32.37 23.36-40.98 40.1-3.36 6.45-6.5 1.43-8.46-2.24a203.578 203.578 0 0 1-11.27-31.61c-.01-.02-.02-.05-.03-.07-1.38-5.03-5.87-21.66-6.31-26.6.01-.01.02-.03.03-.03a223.567 223.567 0 0 1-3.9-54.95c5.86-62.88 41.87-119 96.56-150.56 4.94-2.76 9.9-5.27 14.9-7.55 4.9-2.23 24.81-9.65 5.11 7.81a175.388 175.388 0 0 0-56.81 114.21c-1.91 22.42 4.6 64.4 16.1 95.21 3.62 9.65.66 12.34-4.95 16.29Zm233.46-103.5a9.082 9.082 0 0 1-6.16 4.02 354.99 354.99 0 0 0-65.42 15.52c-2.48.75-5.17.42-7.4-.93a9.109 9.109 0 0 1-4.23-6.14l-1.68-7.68c-.41-1.94.57-3.91 2.37-4.74 24.87-9.94 51.13-16 77.84-17.97 1.99-.1 3.75 1.29 4.12 3.26l1.75 7.39c.64 2.48.21 5.12-1.19 7.26Zm42.35-39.08a3.47 3.47 0 0 1-3.82 2.2c-61.41-9.13-147.26 22.36-147.26 22.36a368.787 368.787 0 0 0-84.37 39.83c-4.73 3.11-11.09 1.79-14.2-2.95-.74-1.13-1.25-2.39-1.5-3.71-1.48-7.84-2.38-15.77-2.73-23.73-1.71-21.62 2.42-43.3 11.97-62.77.58-1.08 1.16-2.16 1.82-3.2.08-.27.21-.53.38-.76l.3-.54.74-1.25.36-.55c29.76-48.75 96.58-68.19 149.92-52.31 26.73 8.2 50.75 23.48 69.49 44.23 2.93 3.44 22.71 30.94 18.9 43.15Z" class="cls-1"/><path d="m374.15 129.69-.05.11A83.714 83.714 0 0 0 334.38 95a121.444 121.444 0 0 0-58.84-8.95c-7.13.56-14.13 2.11-20.83 4.58a2.832 2.832 0 0 0-2.02 3.07 2.816 2.816 0 0 0 2.74 2.45 172.28 172.28 0 0 1 45.36 1.21c55.24 11.04 72.92 37.62 74.86 38.67.55.27 1.21-.27.94-.82-.72-1.88-1.54-3.73-2.44-5.53Z" class="cls-1"/></g></svg>