<svg xmlns="http://www.w3.org/2000/svg" viewBox="0 0 24 24" width="32" height="32" fill="#fff"><path d="M11.39.605 8.635 7.132c.693.735 1.543 1.589 2.923 2.554-1.484-.61-2.496-1.224-3.253-1.859C6.86 10.842 4.595 15.138 0 23.395c3.612-2.085 6.412-3.37 9.021-3.862a6.61 6.61 0 0 1-.171-1.547l.004-.115c.058-2.314 1.261-4.094 2.687-3.973s2.534 2.096 2.478 4.409a6.52 6.52 0 0 1-.146 1.243c2.581.505 5.352 1.787 8.914 3.844l-1.929-3.569c-.944-.731-1.927-1.683-3.933-2.713 1.379.359 2.367.771 3.136 1.234C13.97 7.011 13.479 5.504 11.39.605zM22.898 21.36v-.624h-.234v-.084h.562v.084h-.234v.624h-.094m.425 0v-.708h.142l.167.501.034.106c.008-.025.02-.064.038-.114l.169-.493H24v.708h-.091v-.593l-.206.593h-.084l-.205-.603v.603h-.091"/></svg>
