<svg xmlns="http://www.w3.org/2000/svg" viewBox="0 0 24 24" width="32" height="32" fill="none"><g clip-path="url(#a)"><path fill="#fff" d="M20.746 5.67c.814 1.769.987 2.134 1.61 3.934.36 1.13-.359 2.805-3.317 1.381-2.108-1.004-3.632-1.716-2.376-3.39a16.114 16.114 0 0 1 2.069-2.26c.813-.71 1.317-1.158 2.014.334Zm-.701 11.333c1.55-1.524 3.702.181 2.198 2.227-3.03 4.142-8.32 5.794-13.06 4.13-4.74-1.665-7.937-6.216-7.936-11.422-.012-3.12 1.023-5.722 3-8.066C6.148 1.742 8.981.036 11.775 0c3.927 0 5.682 3.436 4.299 5.351-1.546 2.13-3.343 1.957-4.68 1.044 0 0-1.839-1.305-2.381-1.74-.837-.651-1.756-.651-2.09.392-.585 1.87-.877 3.044-1.336 4.913-.214.94-.326 1.903-.334 2.87.01 1.779.793 3.457 2.13 4.565a22.319 22.319 0 0 0 2.967 2.348c.846.577 1.83.893 2.842.913h.083a5.222 5.222 0 0 0 2.841-.913 35.683 35.683 0 0 0 3.928-2.74ZM8.995 14.85c-.556-.204-1.818-1.305-1.447-2.122.148-.449 1.225-.57 1.559-.57 1.969-.041 2.043 3.468-.111 2.692Zm3.464 3.739c-.252-.225-.713-.676-1.133-1.052a.38.38 0 0 1-.057-.448.472.472 0 0 1 .434-.229c.74-.037 1.482-.037 2.222 0 .171.013.32.112.382.256a.373.373 0 0 1-.09.42c-.418.377-.879.828-1.089 1.053a.51.51 0 0 1-.335.113.51.51 0 0 1-.334-.113Zm4.415-3.739c-2.153.776-2.08-2.733-.11-2.693.333 0 1.373.122 1.559.571.37.817-.891 1.918-1.449 2.122Z"/></g><defs><clipPath id="a"><path fill="#fff" d="M0 0h24v24H0z"/></clipPath></defs></svg>
