<svg xmlns="http://www.w3.org/2000/svg" viewBox="0 0 300 300" width="40" height="40" fill="none">
  <g clip-path="url(#a)">
    <path fill="#175DDC" d="M300 253.125C300 279.023 279.023 300 253.125 300H46.875C20.977 300 0 279.023 0 253.125V46.875C0 20.977 20.977 0 46.875 0h206.25C279.023 0 300 20.977 300 46.875v206.25Z"/>
    <path fill="#fff" d="M243.105 37.676c-1.904-1.904-4.16-2.842-6.738-2.842H63.633c-2.608 0-4.834.938-6.739 2.842-1.904 1.904-2.841 4.16-2.841 6.738V159.58c0 8.584 1.67 17.109 5.01 25.576 3.34 8.438 7.5 15.938 12.45 22.5 4.952 6.533 10.84 12.92 17.696 19.131 6.855 6.211 13.184 11.338 18.955 15.44a242.463 242.463 0 0 0 18.135 11.63c6.299 3.663 10.781 6.123 13.418 7.413 2.637 1.289 4.775 2.314 6.357 2.988a8.758 8.758 0 0 0 3.897.908c1.406 0 2.695-.293 3.896-.908 1.612-.703 3.721-1.699 6.387-2.988 2.637-1.29 7.119-3.78 13.418-7.413a242.463 242.463 0 0 0 18.135-11.63c5.8-4.102 12.129-9.258 18.984-15.44 6.855-6.211 12.744-12.568 17.695-19.131 4.952-6.562 9.082-14.033 12.452-22.5 3.339-8.437 5.009-16.963 5.009-25.576V44.443c.03-2.607-.937-4.863-2.842-6.767ZM220.84 160.664c0 41.69-70.84 77.607-70.84 77.607V59.502h70.84v101.162Z"/>
  </g>
  <defs>
    <clipPath id="a">
      <path fill="#fff" d="M0 0h300v300H0z"/>
    </clipPath>
  </defs>
</svg>
