<svg xmlns="http://www.w3.org/2000/svg" xmlns:xlink="http://www.w3.org/1999/xlink" width="299.801" height="261.963"><defs><linearGradient xlink:href="#a" id="A" x1="33.431" x2="21.748" y1="31.965" y2="11.781" gradientUnits="userSpaceOnUse"/><linearGradient xlink:href="#b" id="y" x1="23.688" x2="23.688" y1="11.319" y2="26.357" gradientUnits="userSpaceOnUse"/><linearGradient xlink:href="#d" id="z" x1="12.378" x2="44.096" y1="4.433" y2="47.621" gradientUnits="userSpaceOnUse"/><linearGradient xlink:href="#f" id="x" x1="12.277" x2="12.222" y1="37.206" y2="33.759" gradientUnits="userSpaceOnUse"/><linearGradient xlink:href="#g" id="u" x1="7.605" x2="36.183" y1="28.481" y2="40.944" gradientUnits="userSpaceOnUse"/><linearGradient xlink:href="#h" id="w" x1="7.063" x2="24.688" y1="35.281" y2="35.281" gradientTransform="translate(.795 -1.326)" gradientUnits="userSpaceOnUse"/><linearGradient id="h"><stop offset="0" style="stop-color:#838383;stop-opacity:1"/><stop offset="1" style="stop-color:#bbb;stop-opacity:0"/></linearGradient><linearGradient id="g"><stop offset="0" style="stop-color:#bbb;stop-opacity:1"/><stop offset="1" style="stop-color:#9f9f9f;stop-opacity:1"/></linearGradient><linearGradient id="f"><stop offset="0" style="stop-color:#eee;stop-opacity:1"/><stop offset="1" style="stop-color:#eee;stop-opacity:0"/></linearGradient><linearGradient id="e"><stop offset="0" style="stop-color:#e4e4e4;stop-opacity:1"/><stop offset="1" style="stop-color:#d3d3d3;stop-opacity:1"/></linearGradient><linearGradient id="d"><stop offset="0" style="stop-color:#fff;stop-opacity:1"/><stop offset="1" style="stop-color:#fff;stop-opacity:0"/></linearGradient><linearGradient id="c"><stop offset="0" style="stop-color:#000;stop-opacity:1"/><stop offset="1" style="stop-color:#000;stop-opacity:0"/></linearGradient><linearGradient id="b"><stop offset="0" style="stop-color:#fff;stop-opacity:.25490198"/><stop offset="1" style="stop-color:#fff;stop-opacity:1"/></linearGradient><linearGradient id="a"><stop offset="0" style="stop-color:#fff;stop-opacity:1"/><stop offset=".5" style="stop-color:#e6e6e6;stop-opacity:1"/><stop offset=".75" style="stop-color:#fff;stop-opacity:1"/><stop offset=".842" style="stop-color:#e1e1e1;stop-opacity:1"/><stop offset="1" style="stop-color:#fff;stop-opacity:1"/></linearGradient><linearGradient xlink:href="#i" id="r" x1="302.857" x2="302.857" y1="366.648" y2="609.505" gradientTransform="matrix(2.77439 0 0 1.9697 -1892.179 -872.885)" gradientUnits="userSpaceOnUse"/><linearGradient id="i"><stop offset="0" style="stop-color:black;stop-opacity:0"/><stop offset=".5" style="stop-color:black;stop-opacity:1"/><stop offset="1" style="stop-color:black;stop-opacity:0"/></linearGradient><linearGradient id="j"><stop offset="0" style="stop-color:black;stop-opacity:1"/><stop offset="1" style="stop-color:black;stop-opacity:0"/></linearGradient><linearGradient xlink:href="#k" id="D" x1="9.562" x2="14.767" y1="6.953" y2="14.2" gradientUnits="userSpaceOnUse"/><linearGradient xlink:href="#m" id="K" x1="11.997" x2="17.774" y1="19.592" y2="16.235" gradientTransform="matrix(1.0149 0 0 1.00592 -.332 -.14)" gradientUnits="userSpaceOnUse"/><linearGradient xlink:href="#n" id="L" x1="10.615" x2="2.007" y1="28.123" y2="27.235" gradientTransform="translate(-.82 -5.307) scale(1.1767)" gradientUnits="userSpaceOnUse"/><linearGradient xlink:href="#o" id="C" x1="12.233" x2="16.871" y1="12.363" y2="17.111" gradientTransform="matrix(.96593 .2621 -.25882 .97818 2.957 -5.94)" gradientUnits="userSpaceOnUse"/><linearGradient xlink:href="#p" id="J" x1="16.929" x2="14.045" y1="34.011" y2="29" gradientTransform="matrix(.86603 -.5 .86149 1.49214 -17.88 -13.91)" gradientUnits="userSpaceOnUse"/><linearGradient xlink:href="#p" id="I" x1="14.045" x2="14.045" y1="37.576" y2="29" gradientTransform="matrix(.86603 -.5 .8013 1.3879 -12.818 -11.145)" gradientUnits="userSpaceOnUse"/><linearGradient xlink:href="#p" id="H" x1="15.097" x2="14.045" y1="36.968" y2="29" gradientTransform="matrix(.86603 -.5 .84348 1.46095 -19.74 -11.134)" gradientUnits="userSpaceOnUse"/><linearGradient xlink:href="#p" id="G" x1="19.616" x2="18.486" y1="39.253" y2="29.909" gradientTransform="matrix(.86603 -.5 .79796 1.38211 -15.73 -9.277)" gradientUnits="userSpaceOnUse"/><linearGradient xlink:href="#p" id="F" x1="9.105" x2="10.147" y1="38.828" y2="30.141" gradientTransform="matrix(.86603 -.5 .7975 1.3813 -15.7 -9.225)" gradientUnits="userSpaceOnUse"/><linearGradient id="p"><stop offset="0" style="stop-color:#c4a000;stop-opacity:1"/><stop offset="1" style="stop-color:#c4a000;stop-opacity:0"/></linearGradient><linearGradient id="o"><stop offset="0" style="stop-color:#c17d10;stop-opacity:1"/><stop offset="1" style="stop-color:#9b650c;stop-opacity:1"/></linearGradient><linearGradient id="n"><stop offset="0" style="stop-color:#b30000;stop-opacity:1"/><stop offset=".5" style="stop-color:#ff5c5c;stop-opacity:1"/><stop offset="1" style="stop-color:#c30000;stop-opacity:1"/></linearGradient><linearGradient id="q"><stop offset="0" style="stop-color:#000;stop-opacity:1"/><stop offset="1" style="stop-color:#000;stop-opacity:0"/></linearGradient><linearGradient id="m"><stop offset="0" style="stop-color:#dac203;stop-opacity:1"/><stop offset=".5" style="stop-color:#fdec69;stop-opacity:1"/><stop offset="1" style="stop-color:#fdef7e;stop-opacity:1"/></linearGradient><linearGradient id="l"><stop offset="0" style="stop-color:#fef088;stop-opacity:1"/><stop offset=".5" style="stop-color:#fde63a;stop-opacity:1"/><stop offset="1" style="stop-color:#dac203;stop-opacity:1"/></linearGradient><linearGradient id="k"><stop offset="0" style="stop-color:#fff;stop-opacity:1"/><stop offset="1" style="stop-color:#fff;stop-opacity:0"/></linearGradient><radialGradient xlink:href="#e" id="v" cx="15.571" cy="2.959" r="20.936" fx="15.571" fy="2.959" gradientTransform="matrix(1.28624 .7817 -.71078 1.16955 -2.354 -4.877)" gradientUnits="userSpaceOnUse"/><radialGradient xlink:href="#j" id="s" cx="605.714" cy="486.648" r="117.143" fx="605.714" fy="486.648" gradientTransform="matrix(2.77439 0 0 1.9697 -1891.633 -872.885)" gradientUnits="userSpaceOnUse"/><radialGradient xlink:href="#j" id="t" cx="605.714" cy="486.648" r="117.143" fx="605.714" fy="486.648" gradientTransform="matrix(-2.77439 0 0 1.9697 112.762 -872.885)" gradientUnits="userSpaceOnUse"/><radialGradient xlink:href="#l" id="E" cx="20.764" cy="19.541" r="14.8" fx="20.764" fy="19.541" gradientTransform="matrix(.4494 -.2165 .56442 1.17162 -1.432 2.546)" gradientUnits="userSpaceOnUse"/><radialGradient xlink:href="#q" id="B" cx="22.571" cy="30.857" r="15.571" fx="22.571" fy="30.857" gradientTransform="matrix(1 0 0 .65138 0 10.758)" gradientUnits="userSpaceOnUse"/></defs><path d="M-1559.252-150.697h1339.633V327.66h-1339.633z" style="opacity:.40206185;color:#000;fill:url(#r);fill-opacity:1;fill-rule:nonzero;stroke:none;stroke-width:1;marker:none;visibility:visible;display:inline;overflow:visible" transform="matrix(.14273 0 0 .12143 281.849 222.175)"/><path d="M-219.619-150.68v478.33c142.874.9 345.4-107.17 345.4-239.196S-33.655-150.68-219.619-150.68z" style="opacity:.40206185;color:#000;fill:url(#s);fill-opacity:1;fill-rule:nonzero;stroke:none;stroke-width:1;marker:none;visibility:visible;display:inline;overflow:visible" transform="matrix(.14273 0 0 .12143 281.849 222.175)"/><path d="M-1559.252-150.68v478.33c-142.875.9-345.4-107.17-345.4-239.196s159.436-239.134 345.4-239.134z" style="opacity:.40206185;color:#000;fill:url(#t);fill-opacity:1;fill-rule:nonzero;stroke:none;stroke-width:1;marker:none;visibility:visible;display:inline;overflow:visible" transform="matrix(.14273 0 0 .12143 281.849 222.175)"/><path d="M11.286 7.963c-.625 0-1.032.29-1.282.843L3.536 25.91s-.25.671-.25 1.781v9.65c0 1.083.657 1.625 1.656 1.625h38.562c.985 0 1.594-.718 1.594-1.844v-9.65s.106-.77-.094-1.312L38.286 8.963c-.185-.512-.637-.988-1.125-1H11.286z" style="fill:none;stroke:#535353;stroke-width:2;stroke-linecap:round;stroke-linejoin:round;stroke-miterlimit:4;stroke-opacity:1;stroke-dasharray:none" transform="matrix(5.81915 0 0 5.81915 15.968 11.791)"/><path d="m3.274 26.997.764-.692 37.61.062 3.462.317v10.439c0 1.125-.607 1.843-1.592 1.843H4.935c-.998 0-1.661-.542-1.661-1.624V26.997z" style="fill:url(#u);fill-opacity:1;fill-rule:evenodd;stroke:none" transform="matrix(5.81915 0 0 5.81915 15.968 11.791)"/><path d="M3.55 25.914c-.715 1.465-.002 2.393 1.035 2.393h39c1.119-.024 1.845-1.012 1.428-2.143L38.3 8.954c-.184-.512-.655-.988-1.143-1H11.3c-.625 0-1.036.303-1.286.857L3.55 25.914z" style="fill:url(#v);fill-opacity:1;fill-rule:evenodd;stroke:none" transform="matrix(5.81915 0 0 5.81915 15.968 11.791)"/><path d="M7.858 31.174h17.625v5.563H7.858z" style="color:#000;fill:url(#w);fill-opacity:1;fill-rule:evenodd;stroke:none;stroke-width:2.40899992;marker:none;visibility:visible;display:inline;overflow:visible" transform="matrix(5.81915 0 0 5.81915 15.968 11.791)"/><path d="M7.858 36.737v-4.012c1.836 3.18 8.296 4.012 12.937 4.012H7.858z" style="opacity:.81142853;fill:url(#x);fill-opacity:1;fill-rule:evenodd;stroke:none" transform="matrix(5.81915 0 0 5.81915 15.968 11.791)"/><path d="M44.796 25.629c.064 1.25-.414 2.316-1.322 2.343H5.355c-1.289 0-1.867-.325-2.084-.868.092.945.826 1.65 2.084 1.65h38.119c1.076-.033 1.753-1.424 1.352-2.995l-.03-.13z" style="fill:#fff;fill-opacity:1;fill-rule:evenodd;stroke:none" transform="matrix(5.81915 0 0 5.81915 15.968 11.791)"/><path d="M10.969 10.156c-.046.2-.188.387-.188.594 0 .949.591 1.79 1.344 2.594.24-.154.365-.355.625-.5-.94-.816-1.553-1.717-1.781-2.688zm26.656 0c-.229.97-.842 1.873-1.781 2.688.274.153.404.368.656.531.757-.807 1.313-1.673 1.313-2.625 0-.207-.142-.393-.188-.594zm2.188 8.438c-.614 4.04-7.3 7.25-15.532 7.25-8.212 0-14.86-3.193-15.5-7.219-.032.197-.125.392-.125.594 0 4.318 6.99 7.844 15.625 7.843 8.636 0 15.656-3.525 15.657-7.843 0-.213-.09-.418-.126-.625z" style="opacity:.69142857;color:#000;fill:url(#y);fill-opacity:1;fill-rule:evenodd;stroke:none;stroke-width:2;marker:none;visibility:visible;display:inline;overflow:visible" transform="matrix(5.81915 0 0 5.81915 15.968 11.791)"/><path d="M8.574 25.594c0 .56-.614 1.016-1.37 1.016-.757 0-1.37-.455-1.37-1.016 0-.562.613-1.017 1.37-1.017.756 0 1.37.455 1.37 1.017z" style="color:#000;fill:#fff;fill-opacity:.45762712;fill-rule:evenodd;stroke:none;stroke-width:2;marker:none;visibility:visible;display:inline;overflow:visible" transform="matrix(5.81915 0 0 5.81915 16.483 12.82)"/><path d="M8.574 25.594c0 .56-.614 1.016-1.37 1.016-.757 0-1.37-.455-1.37-1.016 0-.562.613-1.017 1.37-1.017.756 0 1.37.455 1.37 1.017z" style="color:#000;fill:#fff;fill-opacity:.45762712;fill-rule:evenodd;stroke:none;stroke-width:2;marker:none;visibility:visible;display:inline;overflow:visible" transform="matrix(5.81915 0 0 5.81915 213.628 12.306)"/><path d="M11.643 8.416c-.602 0-.993.28-1.234.812l-6.415 16.59s-.24.647-.24 1.716v9.29c0 1.354.443 1.627 1.594 1.627h37.687c1.323 0 1.534-.317 1.534-1.838v-9.29s.102-.742-.09-1.264L37.886 9.253c-.178-.492-.551-.826-1.02-.837H11.642z" style="fill:none;stroke:url(#z);stroke-width:1.00000024;stroke-linecap:round;stroke-linejoin:round;stroke-miterlimit:4;stroke-opacity:1;stroke-dasharray:none" transform="matrix(5.81915 0 0 5.81915 15.968 11.791)"/><path d="M40.5 31.43v5.02M38.5 31.489v5.02M36.5 31.489v5.02M34.5 31.489v5.02M32.5 31.489v5.02M30.5 31.489v5.02" style="fill:none;stroke:#fff;stroke-width:1.00000048px;stroke-linecap:square;stroke-linejoin:miter;stroke-opacity:.42372885" transform="matrix(5.81915 0 0 5.81915 15.968 11.791)"/><path d="M39.5 31.48v5.02M37.5 31.539v5.02M35.5 31.539v5.02M33.5 31.539v5.02M31.5 31.539v5.02" style="opacity:.09714284;fill:none;stroke:#000;stroke-width:1.00000048px;stroke-linecap:square;stroke-linejoin:miter;stroke-opacity:1" transform="matrix(5.81915 0 0 5.81915 15.968 11.791)"/><path d="M7.875 31.188v5.53h12.563l-12.22-.343-.343-5.188z" style="opacity:.43999999;fill:#fff;fill-opacity:1;fill-rule:evenodd;stroke:none" transform="matrix(5.81915 0 0 5.81915 15.968 11.791)"/><path d="M39.875 19.563c0 3.693-6.66 6.687-14.875 6.687s-14.875-2.994-14.875-6.688c0-3.693 6.66-6.687 14.875-6.687s14.875 2.994 14.875 6.688z" style="opacity:.20571427;color:#000;fill:url(#A);fill-opacity:1;fill-rule:evenodd;stroke:none;stroke-width:.93365198;marker:none;visibility:visible;display:inline;overflow:visible" transform="matrix(6.0392 0 0 6.17265 6.466 -.398)"/><g transform="matrix(5.20483 0 0 5.20483 -12.764 5.175)"><path d="M38.143 30.857C38.143 36.46 31.17 41 22.57 41 13.971 41 7 36.459 7 30.857s6.972-10.143 15.571-10.143c8.6 0 15.572 4.541 15.572 10.143z" style="opacity:.47368421;color:#000;fill:url(#B);fill-opacity:1;fill-rule:nonzero;stroke:none;stroke-width:1;marker:none;visibility:visible;display:inline;overflow:visible" transform="matrix(1.43578 0 0 .8257 -5.05 13.432)"/><path d="M6.916 1.778c1.73-.878 4.126.004 5.012 1.557l4.17 9.485c.886 1.554.634 3.37-.566 4.07-1.2.702-2.878.016-3.764-1.538L5.85 6.996c-.886-1.554-.63-4.357 1.066-5.218z" style="fill:url(#C);fill-opacity:1;fill-rule:evenodd;stroke:#8f5902;stroke-width:1.00632107;stroke-linecap:round;stroke-linejoin:miter;stroke-miterlimit:4;stroke-opacity:1;stroke-dashoffset:0"/><path d="M7.446 2.736c1.422-.786 2.821-.193 3.696 1.34l4.448 10.086-2.432 1.42-6.296-8.82c-.875-1.533-.877-3.219.584-4.026z" style="opacity:.42307691;fill:none;stroke:url(#D);stroke-width:1.00569046;stroke-linecap:round;stroke-linejoin:miter;stroke-miterlimit:4;stroke-opacity:1;stroke-dashoffset:0"/><path d="M14.78 22.794c-.795 4.286.635 13.952 6.26 19.694 4.347.14 13.99-3.418 20.531-10.197-9.236-4.517-15.536-15.723-20.435-13.283l-6.355 3.786z" style="fill:url(#E);fill-opacity:1;fill-rule:evenodd;stroke:#c4a000;stroke-width:1.00000048;stroke-linecap:butt;stroke-linejoin:miter;stroke-miterlimit:4;stroke-opacity:1;stroke-dasharray:none"/><path d="M16.338 24.367c2.35 6.27 2.49 12.789 7.184 17.92" style="fill:none;stroke:url(#F);stroke-width:.99999988;stroke-linecap:round;stroke-linejoin:miter;stroke-miterlimit:4;stroke-opacity:1;stroke-dasharray:none"/><path d="M15.919 23.414c-.912.508-.16 12.52 5.584 18 7.386-.186 15.524-6.396 18.393-8.837-9.5-5.984-14.925-14.762-18.48-12.574l-5.497 3.411z" style="opacity:.46153846;fill:none;stroke:#fff;stroke-width:.99999976;stroke-linecap:butt;stroke-linejoin:miter;stroke-miterlimit:4;stroke-opacity:1;stroke-dasharray:none"/><path d="M23.848 22.273c.867-.749 5.75 6.088 14.999 12.382" style="fill:none;stroke:url(#G);stroke-width:.9999997;stroke-linecap:round;stroke-linejoin:miter;stroke-miterlimit:4;stroke-opacity:1;stroke-dasharray:none"/><path d="M18.013 22.864c3.712 5.347 2.963 12.424 8.84 18.081" style="fill:none;stroke:url(#H);stroke-width:1.00000024;stroke-linecap:round;stroke-linejoin:miter;stroke-miterlimit:4;stroke-opacity:1;stroke-dasharray:none"/><path d="M22.984 22.776S31.16 35.847 34.166 37.88" style="fill:none;stroke:url(#I);stroke-width:1.00000024;stroke-linecap:round;stroke-linejoin:miter;stroke-miterlimit:4;stroke-opacity:1;stroke-dasharray:none"/><path d="M19.3 22.2c3.447 2.918 8.703 14.164 11.31 17.478" style="fill:none;stroke:url(#J);stroke-width:1.00000012;stroke-linecap:round;stroke-linejoin:miter;stroke-miterlimit:4;stroke-opacity:1;stroke-dasharray:none"/><path d="m8.509 18.062 11.462-6.559c.598 2.383-.342 3.24 1.796 7.148l-7.91 4.526c-1.454-3.477-3.566-3.41-5.348-5.115z" style="fill:url(#K);fill-opacity:1;fill-rule:evenodd;stroke:#c4a000;stroke-width:1.01039541;stroke-linecap:round;stroke-linejoin:round;stroke-miterlimit:4;stroke-opacity:1;stroke-dasharray:none;stroke-dashoffset:0"/><path d="M14.043 21.246c-.814-1.422-2.562-2.237-3.679-3.128l8.758-4.933c-.02 1.48.566 3.088.875 4.518l-5.954 3.543z" style="opacity:.2472527;fill:none;stroke:#fff;stroke-width:1;stroke-linecap:butt;stroke-linejoin:miter;stroke-miterlimit:4;stroke-opacity:1;stroke-dasharray:none"/><rect width="13.015" height="3.46" x="-1.413" y="24.175" rx="1" ry="1" style="fill:url(#L);fill-opacity:1;fill-rule:evenodd;stroke:#690000;stroke-width:.99999803;stroke-linecap:round;stroke-linejoin:miter;stroke-miterlimit:4;stroke-opacity:1;stroke-dasharray:none;stroke-dashoffset:0" transform="rotate(-30)"/><path d="M-17.173 4.084a2.147 2.147 0 1 1-4.293 0 2.147 2.147 0 0 1 4.293 0z" style="fill:#fff;fill-opacity:1;fill-rule:evenodd;stroke:#8f5902;stroke-width:1.65524161;stroke-linecap:round;stroke-linejoin:round;stroke-miterlimit:4;stroke-opacity:1;stroke-dasharray:none;stroke-dashoffset:0" transform="scale(.60414) rotate(15 -15.499 132.875)"/><path d="M27.735 40.555s1.506-.5 2.176-.942c-1.238-1.944-3.403-5.895-5.403-8.875 1.193 6.54 3.227 9.817 3.227 9.817zM31.142 39.058l2.026-1.085c-1.945-1.856-7.469-10.116-7.469-10.116l5.443 11.201zM35.659 36.388l2.436-1.744c-3.182-1.326-11.587-9.88-11.587-9.88 2.383 3.012 6.768 8.612 9.15 11.624zM39.154 33.917l1.692-1.41c-3.315-1.502-12.496-9.911-12.496-9.911s6.075 9.2 10.804 11.321z" style="opacity:.31730772;fill:#fff;fill-opacity:1;fill-rule:evenodd;stroke:none"/><path d="M24.376 41.572s1.197-.28 2.044-.456c-1.459-1.237-3.801-4.437-5.094-8.61.53 6.894 3.05 9.066 3.05 9.066zM21.37 41.97l1.249-.014c-2.298-2.52-3.138-5.366-4.431-9.406-.133 4.684 3.183 9.42 3.183 9.42z" style="opacity:.31730766;fill:#fff;fill-opacity:1;fill-rule:evenodd;stroke:none"/></g></svg>