<svg xmlns:xlink="http://www.w3.org/1999/xlink" xmlns="http://www.w3.org/2000/svg" xmlns:v="https://vecta.io/nano" fill="#fff" viewBox="0 0 24 24" width="24"  height="24" ><path d="M15.68 0l2.096 2.38s1.84-.512 2.709.358l1.584 1.638-.562 1.381.715 2.047-2.35 8.955c-.486 1.919-.818 2.66-2.198 3.633l-4.293 2.916c-.409.256-.92.692-1.38.692s-.97-.436-1.38-.692a185.796 185.796 0 0 1-4.293-2.916c-1.38-.973-1.712-1.714-2.197-3.633L1.78 7.804l.715-2.047-.562-1.381 1.585-1.638c.868-.87 2.708-.358 2.708-.358L8.321 0h7.36zm-3.679 14.936c-.14 0-1.038.317-1.758.69l-1.409.742c-.167.104-.065.301.087.409l2.393 1.866c.198.175.489.464.687.464s.49-.29.688-.464 2.24-1.759 2.392-1.866.254-.305.087-.41-.689-.368-1.41-.741-1.617-.69-1.757-.69zm0-11.278s-.409.001-1.022.206-1.278.46-1.584.46-2.581-.434-2.581-.434-2.695 3.262-2.695 3.959.339.881.68 1.243l2.02 2.149c.192.203.59.511.356 1.066s-.58 1.26-.196 1.977 1.042 1.194 1.464 1.115 1.412-.598 1.776-.834 1.518-1.19 1.518-1.554-1.193-1.02-1.413-1.168-1.226-.725-1.247-.95-.012-.293.284-.851.831-1.304.742-1.8-.95-.753-1.565-.986l-1.947-.74c-.148-.068-.11-.133.339-.175s1.719-.212 2.292-.052 1.552.403 1.632.532.149.134.067.579l-.541 2.96c-.04.38-.12.63.288.724l1.333.256c.236 0 .924-.162 1.333-.256s.329-.344.288-.723-.46-2.516-.541-2.961-.012-.45.067-.579 1.059-.372 1.632-.532 1.845.009 2.292.052.487.107.339.175-1.332.508-1.947.74-1.476.49-1.565.986.445 1.241.742 1.8.304.624.284.85-1.026.802-1.247.95-1.413.804-1.413 1.169 1.154 1.317 1.518 1.554 1.355.755 1.776.834 1.08-.4 1.464-1.115.039-1.422-.195-1.977.163-.863.355-1.066l2.02-2.149c.341-.362.68-.546.68-1.243s-2.695-3.96-2.695-3.96l-2.58.436c-.307 0-.972-.256-1.585-.461s-1.022-.206-1.022-.206z"/></svg>