<svg width="1024" height="1024" viewBox="0 0 1024 1024" fill="none" xmlns="http://www.w3.org/2000/svg">
<rect width="1024" height="1024" fill="#E9ECF1"/>
<g clip-path="url(#clip0_1148_2494)">
<path d="M735.724 473.208C727.855 481.052 721.305 489.119 716.879 500.941C712.453 512.762 710.262 525.634 707.11 545.992C702.594 574.976 693.786 586.372 686.812 593.568C672.572 608.25 652.341 607.423 627.683 602.552C612.191 599.49 608.167 603.177 589.747 619.088L492.638 715.224L492.593 861.171C492.593 863.785 495.768 865.104 497.623 863.25L784.436 577.009C788.303 573.143 790.493 567.914 790.493 562.439L790.851 417.788L735.724 473.185V473.208Z" fill="#FF630F"/>
<path d="M735.724 473.208C727.855 481.052 721.305 489.119 716.879 500.941C712.453 512.762 710.262 525.634 707.11 545.992C702.594 574.976 693.786 586.372 686.812 593.568C672.572 608.25 652.341 607.423 627.683 602.552C612.191 599.49 608.167 603.177 589.747 619.088L492.638 715.224L492.593 861.171C492.593 863.785 495.768 865.104 497.623 863.25L784.436 577.009C788.303 573.143 790.493 567.914 790.493 562.439L790.851 417.788L735.724 473.185V473.208Z" fill="url(#paint0_linear_1148_2494)"/>
<path d="M620.014 564.517C638.702 565.053 651.735 578.573 667.116 568.874C682.496 559.176 682.071 548.383 685.045 530.55C688.04 512.694 693.964 491.934 699.239 479.42C704.537 466.883 716.364 450.861 728.39 439.174L790.38 374.703L790.783 309.741C790.783 305.764 785.999 303.752 783.182 306.568L501.265 588.383C495.721 593.925 492.614 601.434 492.614 609.255V673.211L587.846 577.657C587.846 577.657 601.303 564.003 619.992 564.539L620.014 564.517Z" fill="#61C5FF"/>
<path d="M620.014 564.517C638.702 565.053 651.735 578.573 667.116 568.874C682.496 559.176 682.071 548.383 685.045 530.55C688.04 512.694 693.964 491.934 699.239 479.42C704.537 466.883 716.364 450.861 728.39 439.174L790.38 374.703L790.783 309.741C790.783 305.764 785.999 303.752 783.182 306.568L501.265 588.383C495.721 593.925 492.614 601.434 492.614 609.255V673.211L587.846 577.657C587.846 577.657 601.303 564.003 619.992 564.539L620.014 564.517Z" fill="url(#paint1_linear_1148_2494)"/>
<path d="M790.872 256.473L492.614 555.405V491.583C492.614 483.762 495.721 476.253 501.265 470.712L783.25 188.829C786.044 186.035 790.85 188.002 790.85 191.98V256.473H790.872Z" fill="#FFC414"/>
<path d="M790.872 256.473L492.614 555.405V491.583C492.614 483.762 495.721 476.253 501.265 470.712L783.25 188.829C786.044 186.035 790.85 188.002 790.85 191.98V256.473H790.872Z" fill="url(#paint2_linear_1148_2494)"/>
<path d="M767.913 142.879L262.984 252.848C244.899 256.781 232 272.781 232 291.285V659.851C232 665.325 234.168 670.577 238.058 674.465L450.518 886.849C454.855 891.184 462.277 888.123 462.277 881.978V486.975C462.3 473.947 467.486 461.433 476.696 452.226L774.262 154.477C779.113 149.628 774.641 141.427 767.935 142.879H767.913Z" fill="url(#paint3_linear_1148_2494)"/>
<path d="M767.913 142.879L262.984 252.848C244.899 256.781 232 272.781 232 291.285V659.851C232 665.325 234.168 670.577 238.058 674.465L450.518 886.849C454.855 891.184 462.277 888.123 462.277 881.978V486.975C462.3 473.947 467.486 461.433 476.696 452.226L774.262 154.477C779.113 149.628 774.641 141.427 767.935 142.879H767.913Z" fill="url(#paint4_linear_1148_2494)"/>
</g>
<defs>
<linearGradient id="paint0_linear_1148_2494" x1="783.05" y1="501.365" x2="493.661" y2="799.799" gradientUnits="userSpaceOnUse">
<stop stop-color="#FF7D38"/>
<stop offset="0.612828" stop-color="#FE6412"/>
<stop offset="1" stop-color="#EB4600"/>
</linearGradient>
<linearGradient id="paint1_linear_1148_2494" x1="717.521" y1="417.855" x2="485.762" y2="661.639" gradientUnits="userSpaceOnUse">
<stop stop-color="#61C5FF"/>
<stop offset="1" stop-color="#2A92FA"/>
</linearGradient>
<linearGradient id="paint2_linear_1148_2494" x1="790.872" y1="234.327" x2="513.468" y2="534.312" gradientUnits="userSpaceOnUse">
<stop stop-color="#FFC414"/>
<stop offset="1" stop-color="#FF9447"/>
</linearGradient>
<linearGradient id="paint3_linear_1148_2494" x1="775.223" y1="142.71" x2="265.623" y2="434.493" gradientUnits="userSpaceOnUse">
<stop offset="0.154904" stop-color="#403649"/>
<stop offset="1" stop-color="#312938"/>
</linearGradient>
<linearGradient id="paint4_linear_1148_2494" x1="876.101" y1="-272.802" x2="217.678" y2="827.291" gradientUnits="userSpaceOnUse">
<stop offset="0.105" stop-color="#776A83"/>
<stop offset="0.568693" stop-color="#312938"/>
<stop offset="0.960073" stop-color="#19151D"/>
</linearGradient>
<clipPath id="clip0_1148_2494">
<rect width="559" height="747" fill="white" transform="translate(232 142)"/>
</clipPath>
</defs>
</svg>
