<?xml version="1.0" encoding="UTF-8" standalone="no"?>
<!DOCTYPE svg PUBLIC "-//W3C//DTD SVG 1.1//EN" "http://www.w3.org/Graphics/SVG/1.1/DTD/svg11.dtd">
<svg width="100%" height="100%" viewBox="0 0 1024 1024" version="1.1" xmlns="http://www.w3.org/2000/svg" xmlns:xlink="http://www.w3.org/1999/xlink" xml:space="preserve" xmlns:serif="http://www.serif.com/" style="fill-rule:evenodd;clip-rule:evenodd;stroke-linejoin:round;stroke-miterlimit:2;">
    <g transform="matrix(1.21553,0,0,1.21553,-109.743,-114.605)">
        <path d="M735.724,473.208C727.855,481.052 721.305,489.119 716.879,500.941C712.453,512.762 710.262,525.634 707.11,545.992C702.594,574.976 693.786,586.372 686.812,593.568C672.572,608.25 652.341,607.423 627.683,602.552C612.191,599.49 608.167,603.177 589.747,619.088L492.638,715.224L492.593,861.171C492.593,863.785 495.768,865.104 497.623,863.25L784.436,577.009C788.303,573.143 790.493,567.914 790.493,562.439L790.851,417.788L735.724,473.185L735.724,473.208Z" style="fill:rgb(255,99,15);fill-rule:nonzero;"/>
        <path d="M735.724,473.208C727.855,481.052 721.305,489.119 716.879,500.941C712.453,512.762 710.262,525.634 707.11,545.992C702.594,574.976 693.786,586.372 686.812,593.568C672.572,608.25 652.341,607.423 627.683,602.552C612.191,599.49 608.167,603.177 589.747,619.088L492.638,715.224L492.593,861.171C492.593,863.785 495.768,865.104 497.623,863.25L784.436,577.009C788.303,573.143 790.493,567.914 790.493,562.439L790.851,417.788L735.724,473.185L735.724,473.208Z" style="fill:url(#_Linear1);fill-rule:nonzero;"/>
        <path d="M620.014,564.517C638.702,565.053 651.735,578.573 667.116,568.874C682.496,559.176 682.071,548.383 685.045,530.55C688.04,512.694 693.964,491.934 699.239,479.42C704.537,466.883 716.364,450.861 728.39,439.174L790.38,374.703L790.783,309.741C790.783,305.764 785.999,303.752 783.182,306.568L501.265,588.383C495.721,593.925 492.614,601.434 492.614,609.255L492.614,673.211L587.846,577.657C587.846,577.657 601.303,564.003 619.992,564.539L620.014,564.517Z" style="fill:rgb(97,197,255);fill-rule:nonzero;"/>
        <path d="M620.014,564.517C638.702,565.053 651.735,578.573 667.116,568.874C682.496,559.176 682.071,548.383 685.045,530.55C688.04,512.694 693.964,491.934 699.239,479.42C704.537,466.883 716.364,450.861 728.39,439.174L790.38,374.703L790.783,309.741C790.783,305.764 785.999,303.752 783.182,306.568L501.265,588.383C495.721,593.925 492.614,601.434 492.614,609.255L492.614,673.211L587.846,577.657C587.846,577.657 601.303,564.003 619.992,564.539L620.014,564.517Z" style="fill:url(#_Linear2);fill-rule:nonzero;"/>
        <path d="M790.872,256.473L492.614,555.405L492.614,491.583C492.614,483.762 495.721,476.253 501.265,470.712L783.25,188.829C786.044,186.035 790.85,188.002 790.85,191.98L790.85,256.473L790.872,256.473Z" style="fill:rgb(255,196,20);fill-rule:nonzero;"/>
        <path d="M790.872,256.473L492.614,555.405L492.614,491.583C492.614,483.762 495.721,476.253 501.265,470.712L783.25,188.829C786.044,186.035 790.85,188.002 790.85,191.98L790.85,256.473L790.872,256.473Z" style="fill:url(#_Linear3);fill-rule:nonzero;"/>
        <path d="M767.913,142.879L262.984,252.848C244.899,256.781 232,272.781 232,291.285L232,659.851C232,665.325 234.168,670.577 238.058,674.465L450.518,886.849C454.855,891.184 462.277,888.123 462.277,881.978L462.277,486.975C462.3,473.947 467.486,461.433 476.696,452.226L774.262,154.477C779.113,149.628 774.641,141.427 767.935,142.879L767.913,142.879Z" style="fill:url(#_Linear4);fill-rule:nonzero;"/>
        <path d="M767.913,142.879L262.984,252.848C244.899,256.781 232,272.781 232,291.285L232,659.851C232,665.325 234.168,670.577 238.058,674.465L450.518,886.849C454.855,891.184 462.277,888.123 462.277,881.978L462.277,486.975C462.3,473.947 467.486,461.433 476.696,452.226L774.262,154.477C779.113,149.628 774.641,141.427 767.935,142.879L767.913,142.879Z" style="fill:url(#_Linear5);fill-rule:nonzero;"/>
    </g>
    <defs>
        <linearGradient id="_Linear1" x1="0" y1="0" x2="1" y2="0" gradientUnits="userSpaceOnUse" gradientTransform="matrix(-289.389,298.434,-298.434,-289.389,783.05,501.365)"><stop offset="0" style="stop-color:rgb(255,125,56);stop-opacity:1"/><stop offset="0.61" style="stop-color:rgb(254,100,18);stop-opacity:1"/><stop offset="1" style="stop-color:rgb(235,70,0);stop-opacity:1"/></linearGradient>
        <linearGradient id="_Linear2" x1="0" y1="0" x2="1" y2="0" gradientUnits="userSpaceOnUse" gradientTransform="matrix(-231.759,243.784,-243.784,-231.759,717.521,417.855)"><stop offset="0" style="stop-color:rgb(97,197,255);stop-opacity:1"/><stop offset="1" style="stop-color:rgb(42,146,250);stop-opacity:1"/></linearGradient>
        <linearGradient id="_Linear3" x1="0" y1="0" x2="1" y2="0" gradientUnits="userSpaceOnUse" gradientTransform="matrix(-277.404,299.985,-299.985,-277.404,790.872,234.327)"><stop offset="0" style="stop-color:rgb(255,196,20);stop-opacity:1"/><stop offset="1" style="stop-color:rgb(255,148,71);stop-opacity:1"/></linearGradient>
        <linearGradient id="_Linear4" x1="0" y1="0" x2="1" y2="0" gradientUnits="userSpaceOnUse" gradientTransform="matrix(-509.6,291.783,-291.783,-509.6,775.223,142.71)"><stop offset="0" style="stop-color:rgb(64,54,73);stop-opacity:1"/><stop offset="0.15" style="stop-color:rgb(64,54,73);stop-opacity:1"/><stop offset="1" style="stop-color:rgb(49,41,56);stop-opacity:1"/></linearGradient>
        <linearGradient id="_Linear5" x1="0" y1="0" x2="1" y2="0" gradientUnits="userSpaceOnUse" gradientTransform="matrix(-658.423,1100.09,-1100.09,-658.423,876.101,-272.802)"><stop offset="0" style="stop-color:rgb(119,106,131);stop-opacity:1"/><stop offset="0.11" style="stop-color:rgb(119,106,131);stop-opacity:1"/><stop offset="0.57" style="stop-color:rgb(49,41,56);stop-opacity:1"/><stop offset="0.96" style="stop-color:rgb(25,21,29);stop-opacity:1"/><stop offset="1" style="stop-color:rgb(25,21,29);stop-opacity:1"/></linearGradient>
    </defs>
</svg>
