<svg xmlns="http://www.w3.org/2000/svg" viewBox="0 0 24 24" width="32" height="32" fill="none"><path fill="#00B8FA" d="M13.016 23.993a12.026 12.026 0 0 1-5.913-1.96c-.325-.215-.843-.586-.89-.639a2.44 2.44 0 0 0-.156-.128c-.218-.168-.418-.356-.858-.795-.458-.456-.87-.924-1.114-1.267a7.03 7.03 0 0 1-.171-.238 7.758 7.758 0 0 1-.268-.387 12.565 12.565 0 0 1-1.114-2.134c-.103-.252-.331-.92-.378-1.092a14.331 14.331 0 0 1-.409-2.043c-.053-.431-.053-2.21 0-2.622.237-1.794.671-3.135 1.482-4.602.275-.496.955-1.482 1.227-1.778.034-.035.137-.156.234-.266.25-.287.686-.724.995-.998.144-.128.29-.26.328-.29.103-.094.64-.5.858-.652.93-.646 1.916-1.133 3.104-1.539.147-.05.721-.212.92-.259.413-.1.622-.137 1.483-.262.38-.056 2.262-.056 2.668 0 1.497.206 2.58.515 3.806 1.092.528.247 1.536.833 1.795 1.042.018.016.13.1.25.188.121.087.224.168.233.18.01.01.078.066.156.125.078.06.163.128.188.156.024.025.102.094.171.153.069.06.19.169.272.244l.15.134-1.732 1.732c-.952.951-1.748 1.731-1.766 1.731-.02 0-.072-.037-.116-.087a8.028 8.028 0 0 0-.761-.602 7.122 7.122 0 0 0-5.767-.999 6.92 6.92 0 0 0-3.232 1.857 6.953 6.953 0 0 0-1.944 3.622c-.103.522-.112.628-.112 1.373 0 .734.018.986.109 1.373.103.453.14.59.218.827a7.038 7.038 0 0 0 3.589 4.153 7.007 7.007 0 0 0 2.015.655c.584.1 1.688.1 2.272 0a7.038 7.038 0 0 0 2.05-.674c.434-.218 1.101-.642 1.245-.795a5.448 5.448 0 0 0 .462-.402l.168-.163.424.4c.235.221.49.461.568.54.078.077.228.218.328.311.103.094.406.375.67.624.266.25.581.543.7.656.761.714.87.83.836.892-.05.097-.696.699-.99.92-.049.041-.099.082-.108.091-.088.103-1.111.805-1.498 1.027a14.75 14.75 0 0 1-1.576.748c-1.02.403-1.903.624-3.058.768-.362.047-1.631.081-2.043.06Z"/><path fill="#00B8FA" d="M19.367 11.938a5.64 5.64 0 1 1-11.281 0 5.64 5.64 0 0 1 11.281 0Zm-6.582 2.495.355-1.03c.122-.353.3-.874.4-1.16.097-.29.184-.525.193-.525.01 0 .053.116.1.26.072.224.334.982.693 2.018l.2.577.087.25h.923l.216-.64c.115-.352.368-1.095.558-1.654.387-1.132.843-2.49.843-2.511 0-.01-.244-.016-.543-.016h-.543l-.031.103c-.019.053-.078.246-.131.427-.053.181-.11.362-.125.406-.016.044-.072.225-.125.406-.053.18-.137.455-.187.608-.128.409-.268.877-.328 1.086-.031.103-.062.172-.075.156a12.117 12.117 0 0 1-.268-.774c-.415-1.28-.764-2.33-.796-2.387-.025-.043-.084-.05-.465-.047-.243.003-.443.01-.449.02-.006.005-.19.56-.409 1.229-.221.67-.449 1.36-.505 1.535-.06.174-.106.34-.106.365a.091.091 0 0 1-.028.065c-.016.01-.075-.128-.128-.302-.053-.178-.153-.496-.219-.712-.065-.215-.165-.537-.218-.717-.112-.369-.2-.653-.28-.905l-.11-.365-.06-.197H10.09l.203.587.415 1.223c.174.515.901 2.658.98 2.88.009.028.024.075.034.1.012.04.084.046.47.04l.46-.01.134-.39Z"/></svg>
