<svg xmlns="http://www.w3.org/2000/svg" viewBox="0 0 200 117"><defs><linearGradient id="a" x1="43.57" x2="41.2" y1="220.31" y2="227.12" gradientUnits="userSpaceOnUse"><stop offset="0" stop-color="#ffd900"/><stop offset="1" stop-color="#fb7300" stop-opacity=".98"/></linearGradient></defs><g style="stroke-width:.26416191"><path d="m154.66-193.18-10.61 5.44-4.42-1.23-15.34 3.47-3.82 11.36-7.06 1.37 6.3-10.64-52.56 1.73 24.62 9.74-6.04 7.05 31.42 13.44 1.58 38.31L103.39-77h55.43l5.45-12.16 35.6-15.05 5.5-13.14 32.84 13.73-2.32-17.33 31.37 16.5.67-33.36-48.61-12.91 2.15 14.79-9.09-4.11.64-3.75-2.93-1.84 7.69-18.4-7.88-10.7-7.73-2.91-4.66.82-1.27-7.32-16.29-6.8-10.16.68z" style="stroke-width:.26416191" transform="matrix(.99612 0 0 1.00708 -66.9 194.55)"/><path d="m69.05 228.35-9.04-3.2.27 3.86-4.27-1.7-1.08 3.55 6.5 2.8-.13-4.55 7.85 3.7zm-40.2-12.47-6-.07 3.5 1.39-1.38 2.12 7.58 3.16 1.12-1.32-1.52-2.6-4.24-.22z" style="fill:url(#a);stroke-width:.26416191" transform="matrix(3.76491 0 0 3.80632 -66.9 -807)"/><path d="m45.4 225.16-.83 3.74s.66.76 2.78.75l2.9.08s-.1.44-1.17.65a8.65 8.65 0 0 1-2.78-.18s.46.85 1.68.86l1.65-.04s-.52 1.25-1.44 1.1c-.92-.15-2.8-1.5-3.88-1.86-1.07-.37-1.94.33-2.3 1-.35.66-.71 2.88-.71 2.88s-.5-1.93-.07-2.97c.44-1.04.94-1.65.94-1.65l-1.65-.93-.27-1.5-3.61-1.29s-1.19 2.8-.56 5.02a22 22 0 0 0 1.59 4l-3 7.93h5.91l1.79-4.32-2.94-2.54s2.66 1.44 4.31 1.4c1.66-.05 6.44-1.72 7.43-2.53 1-.81 3.47-8.68 3.47-8.68s-2.73.08-5.32-.18c-2.58-.27-3.93-.75-3.93-.75zm6.8-7.7s1.4-.23 2.62.77a8.47 8.47 0 0 1 1.52 1.45l-1.92 4.59s-.8.15-2.05.2a4.95 4.95 0 0 1-1.94-.24l1.4-4.72.37-2.05zm-4.34-3.7 2.65 1.1s.6 1.72.25 3.3a74.1 74.1 0 0 1-2.05 6.08s-1.05-.03-2.3-.39c-1.25-.35-1.63-.6-1.63-.6l2.19-6.6.88-2.9zm-6-.3 2.59.26a5 5 0 0 0 .63 3.78 35.82 35.82 0 0 1-1.93 4.99l-3.43-.78 1.85-6.17.3-2.08zm-6.43 1.72s.9-.77 1.9-.43c1 .33 1.47.77 1.47.77l-.79 5.4s-.25.22-1.3.2c-1.05-.02-1.58-.33-1.58-.33l.13-3.62.17-1.97z" style="fill:#c4a43f;stroke-width:.26416191" transform="matrix(3.76491 0 0 3.80632 -66.9 -807)"/><path d="m38.3 214.36 2.3-1s.51 1.11.27 2.08c-.24.96-1.8 4.47-1.8 4.47s.9-4.28.5-4.7c-.4-.4-1.28-.85-1.28-.85zm-3.42.37-1.35.5-.77 2.04 1.48 2.5.12-3.22zm11.16 1.64.93-2.63H45.6zm-1.75 8.66-.78 3.84-2.09-.87.56-3.69zm-2.73-1.87-2.46-.55-1.5 2.23 2.6.84.8-2.28zm-3.88-1.06s-.66.22-1.53-.06l-1.2-.43-.9 1.58 2.16 1.07zm-4.93 2.03-.13 9.09 1.01.9-1.2.15-3.65 8.48h4.73l2.7-7.39-1.14-.97 1.36.25-1.42-4.6a8.13 8.13 0 0 1-.2-1.7c0-.09-.69-.33-.69-.33s.7-.13.7-.22c.02-.63.1-1.04.1-1.04l-.89-.62.85.1.62-1.1z" style="fill:#796621;stroke-width:.26416191" transform="matrix(3.76491 0 0 3.80632 -66.9 -807)"/></g></svg>
