<svg xmlns="http://www.w3.org/2000/svg" viewBox="0 0 24 24" width="40" height="40" fill="none"><g clip-path="url(#a)"><path fill="#F18121" d="M6.3 18.935c-.459-.284-.498-.4-1.594-5.078-.225-.939-.704-2.974-.998-4.177-.254-1.096-.127-1.595.528-1.928.167-.088.979-.313 1.781-.509.812-.185 1.732-.4 2.055-.479.323-.078 1.31-.313 2.201-.528.89-.216 2.192-.529 2.886-.695.705-.166 1.448-.342 1.664-.391.215-.059 1.409-.343 2.641-.636 1.243-.294 2.456-.587 2.7-.656.578-.137.92-.049 1.312.343.323.332.391.548 1.223 4.128a88.34 88.34 0 0 0 .557 2.32c.06.224-.313.234-.743.019-.411-.206-.9-.127-1.33.205-.187.137-.46.245-.627.245-.254 0-.303-.04-.303-.245 0-.225-.03-.244-.49-.244h-.489v4.109h.979l.01-1.194c.01-1.438.117-1.82.587-2.054.46-.245 1.115-.225 1.36.02.176.175.195.322.195 1.711v1.517h.979v-1.174c0-.92.029-1.174.137-1.174.156 0 .479 1.144.479 1.722 0 .45-.264.9-.636 1.086-.196.107-.959.303-3.356.86-.323.08-1.399.333-2.397.578-.998.245-2.182.528-2.642.636a836.62 836.62 0 0 0-6.976 1.673c-.929.235-1.3.235-1.692-.01Zm2.359-.812c.058-.02-.274-.01-.734.02-.626.03-.92 0-1.194-.108-.44-.186-.48-.078-.088.255l.294.244.812-.196c.45-.097.86-.195.91-.215Zm-.44-3.004c0-.273.01-.283.489-.283h.489v.342c0 .186.049.343.098.343.058 0 .098-.196.098-.421 0-.401.029-.44.371-.597.196-.088.47-.245.597-.342.235-.176.235-.196.078-.43l-.156-.245-.42.215c-.343.166-.598.205-1.322.205-.85 0-.91-.01-1.272-.303-.587-.47-.763-.91-.763-1.947.01-.744.04-.94.235-1.242.382-.627.802-.813 1.82-.813.646 0 .969.05 1.213.176.352.177.362.177.597-.244.078-.137.01-.206-.44-.42-.529-.265-.538-.275-.538-.695 0-.235-.04-.431-.098-.431-.05 0-.098.157-.098.342v.343h-.49c-.479 0-.489-.01-.489-.284 0-.166-.039-.323-.097-.352-.06-.04-.098.088-.098.323 0 .362-.01.381-.558.606-1.125.46-2.025 1.703-2.015 2.78.01 1.271.86 2.435 2.103 2.876.45.156.47.176.47.538 0 .225.039.352.098.313.058-.03.097-.186.097-.352Zm6.251-.44c.91-.264 1.673-1.213 1.673-2.074 0-.567-.626-1.458-1.262-1.78-.499-.245-1.174-.333-1.653-.206-.89.245-1.703 1.184-1.722 2.006-.01.606.381 1.31.959 1.702.773.519 1.203.597 2.005.352Zm3.61-2.015.02-2.035h-1.076v4.119l.519-.03.508-.029.03-2.025Zm-.078-3.552c0-.342 0-.342-.44-.342s-.44 0-.44.342c0 .343 0 .343.44.343s.44 0 .44-.343Z"/><path fill="#F18121" d="M12.885 13.857c-.342-.274-.499-.792-.43-1.448.078-.734.43-1.105 1.125-1.174 1.057-.098 1.585.353 1.585 1.37 0 .646-.098.959-.401 1.243-.313.293-1.507.293-1.879.01Z"/><path fill="#FFFEFE" d="M7.73 15.452c0-.362-.02-.381-.47-.538-.95-.342-1.722-1.155-1.996-2.074-.186-.636-.157-1.693.068-2.31.264-.723 1.067-1.545 1.84-1.858.548-.225.557-.245.557-.607 0-.381 0-.381.372-.352.333.03.362.059.391.352.02.235.079.313.225.313.147 0 .186-.068.186-.342 0-.333.01-.343.392-.343h.391v.431c0 .42.01.43.528.685.793.391.803.43.392 1.115l-.352.597-.353-.225c-.548-.342-1.066-.48-1.565-.41-.959.126-1.517.782-1.526 1.77-.02 1.78 1.741 2.593 3.199 1.477l.333-.254.41.577.402.578-.313.264a4.277 4.277 0 0 1-.734.47c-.401.195-.42.224-.42.625v.421h-.392c-.382 0-.392-.01-.392-.342 0-.274-.039-.343-.186-.343-.146 0-.205.079-.225.323-.029.284-.058.313-.39.343-.373.029-.373.029-.373-.343Z"/><path fill="#FFFEFE" d="M12.954 15.022c-.587-.167-1.243-.695-1.507-1.214-.342-.684-.342-1.673 0-2.299.294-.518.94-1.027 1.497-1.184.568-.156 1.712-.058 2.192.196.45.225.978.783 1.164 1.243.166.391.176 1.213.03 1.741-.157.568-.91 1.282-1.566 1.468-.558.166-1.33.186-1.81.049Zm1.516-1.468c.617-.577.49-1.604-.254-1.908-.43-.186-.812-.107-1.125.235-.695.744-.245 1.878.744 1.878.283 0 .479-.068.635-.205Zm2.26-.87v-2.349h1.664l-.02 2.329-.03 2.319-.801.029-.813.03v-2.359Zm2.25 0v-2.349h.784c.773 0 .782 0 .782.254v.245l.352-.274c.284-.205.49-.274.97-.303.84-.059 1.28.156 1.555.753.176.392.205.675.235 2.24l.039 1.781h-1.585v-1.516c0-1.409-.02-1.536-.206-1.722-.146-.147-.274-.186-.46-.137-.733.176-.9.597-.9 2.24v1.135h-1.565v-2.348ZM16.82 9.708c-.02-.02-.02-.313-.01-.636l.039-.597h1.448v1.272h-.714c-.401 0-.744-.02-.763-.039Z"/><path fill="#FFC313" d="M6.702 21.577a1.49 1.49 0 0 1-.558-.352c-.43-.46-5.44-7.847-5.557-8.19-.157-.489.098-1.046.675-1.457 1.292-.94 2.074-1.429 2.113-1.311.079.254 1.057 4.314 1.566 6.526.49 2.123.695 2.465 1.624 2.73.391.107.558.087 1.85-.226.782-.186 1.897-.45 2.484-.596.587-.137 1.077-.235 1.096-.216.04.03-3.953 2.779-4.305 2.965-.332.176-.675.215-.988.127Z"/><path fill="#FFC313" d="M6.36 18.583c-.255-.245-.333-.45-.636-1.742-.186-.802-.313-1.477-.294-1.497.02-.029.264.421.548.999.538 1.105.783 1.389 1.32 1.487.206.039 2.095-.235 5.382-.783 2.779-.47 5.078-.832 5.097-.802.03.029-.049.078-.176.107-6.212 1.487-10.517 2.495-10.703 2.495-.137 0-.372-.117-.538-.264Zm5.655-14.402c1.399-.959 2.68-1.79 2.847-1.85.274-.097.538-.068 1.017.128.137.059.812.969 1.174 1.575.04.069-.264.186-.89.333-.518.117-1.37.323-1.879.45-.508.127-1.496.362-2.2.528-.695.167-1.537.362-1.87.44a7.873 7.873 0 0 1-.675.147c-.039 0 1.077-.782 2.476-1.751Z"/><path fill="#F7F285" d="M8.316 22.438c-.724-.382-.714-.372-.215-.705.695-.45 2.642-1.79 3.2-2.191.264-.196.44-.284.39-.206-.117.206-.85 1.272-1.496 2.172-.705.989-1.252 1.253-1.879.93Zm-4.5-3.111c-.401-.284-1.253-.871-1.879-1.321a31.053 31.053 0 0 0-1.35-.92C.264 16.91 0 16.391 0 15.932c0-.333.088-.548.41-1.028.353-.518.422-.577.51-.42.058.088.332.489.597.87.273.392.978 1.41 1.565 2.27a62.414 62.414 0 0 0 1.301 1.889c.127.166.225.313.196.313-.02 0-.362-.226-.763-.5Zm2.407-12.73c.41-.684 3.346-4.774 3.541-4.94.196-.167.392-.225.764-.225.42 0 .577.058 1.076.4.313.226.783.559 1.037.725l.46.323-1.615 1.105c-.89.617-1.996 1.38-2.465 1.713-.734.508-.979.626-1.752.802-1.046.254-1.144.254-1.046.098Z"/></g><defs><clipPath id="a"><path fill="#fff" d="M0 0h24v24H0z"/></clipPath></defs></svg>
