<svg xmlns="http://www.w3.org/2000/svg" width="44" height="33" fill="none">
  <g fill="#5fd800" clip-path="url(#a)">
    <path d="M1.436 15.5c-.866 0-1.559-.734-1.418-1.588C1.278 6.306 7.952.5 16.171.5h3.38c.71 0 1.286.576 1.286 1.286 0 7.574-6.14 13.714-13.714 13.714H1.436ZM1.436 17.5c-.866 0-1.559.734-1.418 1.588C1.278 26.694 7.952 32.5 16.171 32.5h3.38c.71 0 1.286-.576 1.286-1.286 0-7.574-6.14-13.714-13.714-13.714H1.436ZM36.551 17.5c-7.574 0-13.714 6.14-13.714 13.714 0 .71.576 1.286 1.286 1.286h3.38c8.219 0 14.893-5.806 16.153-13.412.141-.854-.552-1.588-1.418-1.588h-5.687ZM42.238 15.5c.866 0 1.56-.734 1.418-1.588C42.396 6.306 35.722.5 27.503.5h-3.38c-.71 0-1.286.576-1.286 1.286 0 7.574 6.14 13.714 13.714 13.714h5.687Z"/>
  </g>
  <defs>
    <clipPath id="a">
      <path fill="#fff" d="M0 0h44v33H0z"/>
    </clipPath>
  </defs>
</svg>
