<svg xmlns="http://www.w3.org/2000/svg" viewBox="0 0 24 24" width="32" height="32" fill="none"><path fill="#000" d="M2.458 22.598c-.394-.081-.51-.134-.97-.422-.475-.302-.672-.475-1.032-.902-.187-.226-.307-.735-.317-1.373-.005-.514 0-.552.202-1.109.158-.451.379-.878 1.003-1.968.802-1.392 1.037-1.795 4.32-7.44.965-1.66 2.26-3.898 2.875-4.968 1.085-1.882 1.133-1.954 1.435-2.208.864-.72.75-.658 1.421-.797l.61-.13.61.13.614.135.557.46.552.466 1.219 2.112c.667 1.162 2.357 4.08 3.753 6.48 4.056 6.965 4.114 7.066 4.35 7.742.196.567.206.615.2 1.104-.009.624-.129 1.143-.316 1.364-.355.427-.557.6-1.032.902-.47.298-.562.336-1.008.427-.49.101-.547.101-9.547.096-8.803-.005-9.067-.01-9.5-.1Zm18.604-1.401c.461-.058.95-.346 1.205-.701.178-.26.197-.312.197-.576 0-.442-.312-1.056-1.742-3.432a258.344 258.344 0 0 1-2.712-4.632A337.685 337.685 0 0 0 15.6 7.68a802.726 802.726 0 0 1-1.57-2.688c-.816-1.416-.907-1.55-1.281-1.915l-.312-.307H12l-.442.004-.288.279c-.35.34-.604.73-1.382 2.083-.326.566-.98 1.69-1.454 2.496-.476.806-1.479 2.544-2.232 3.864a290.82 290.82 0 0 1-2.756 4.718c-1.57 2.621-1.91 3.279-1.91 3.696 0 .24.024.308.202.567.168.25.254.326.561.49.307.163.432.201.773.235.514.048 17.582.043 17.99-.005Z"/><path fill="#572606" d="M9.029 20.342c0-.09.437-1.2 1.017-2.582l1.018-2.424-.648-.029c-.355-.019-1.18-.033-1.834-.038l-1.19-.005v-.134c0-.096.624-1.22 1.925-3.47 1.06-1.834 1.944-3.351 1.963-3.37.02-.024.898.004 1.949.057 1.056.058 1.93.101 1.953.101.02 0 .034.077.034.168 0 .154-.192.422-1.613 2.27l-1.613 2.098.74.029c.403.019 1.29.033 1.972.038l1.234.005v.168c0 .149-.254.437-3.293 3.72-3.1 3.34-3.307 3.552-3.456 3.552-.153 0-.163-.01-.158-.154Z"/><path fill="#F97B25" d="M2.928 21.346c-.34-.034-.466-.072-.773-.236-.307-.163-.393-.24-.561-.49-.197-.287-.202-.302-.202-.71 0-.403.01-.432.26-.97.143-.302.887-1.598 1.65-2.87a290.82 290.82 0 0 0 2.756-4.718c.753-1.32 1.756-3.058 2.232-3.864.475-.806 1.128-1.93 1.454-2.496.778-1.358 1.032-1.742 1.387-2.083l.293-.288H12l.571-.005.322.312c.374.37.465.504 1.281 1.92.346.595 1.052 1.805 1.57 2.688.523.883 1.608 2.765 2.41 4.176.806 1.411 2.025 3.5 2.712 4.632.681 1.138 1.353 2.304 1.492 2.602.245.528.25.552.25.974 0 .432 0 .437-.197.72-.254.355-.744.643-1.205.7-.408.049-17.76.054-18.278.006Zm9.773-4.762 3.11-3.36-1.867-.034a115.32 115.32 0 0 1-2.093-.048l-.225-.014 1.728-2.246c.95-1.239 1.718-2.256 1.708-2.266-.033-.038-3.614-.211-3.643-.178-.019.02-.897 1.532-1.953 3.36l-1.92 3.322h.945c.523 0 1.373.014 1.887.034.835.024.94.038.916.105-.019.043-.465 1.123-.998 2.405a617.69 617.69 0 0 0-1.051 2.52l-.082.192.211-.216c.12-.12 1.613-1.728 3.327-3.576Z"/></svg>
