<svg xmlns="http://www.w3.org/2000/svg" width="511.98" height="426.74"><path fill="#ff5722" d="m506.23 195.34-102.79-53.357-5.562-17.171a11.902 11.902 0 0 0-.672-1.594c-.438-.859-11.062-21.155-35.186-42.748-22.078-19.78-60.325-44.623-117.06-50.623-.062-.016-.141-.016-.203-.016l-66.403-5.672a10.8 10.8 0 0 0-.734-.031L10.84 21.44c-3.155-.015-6.155 1.297-8.233 3.672a10.695 10.695 0 0 0-2.484 8.656l60.263 383.98a10.69 10.69 0 0 0 4.734 7.312 10.704 10.704 0 0 0 5.797 1.688c.938 0 1.875-.094 2.797-.344 6.483-1.781 159.48-43.278 198.16-64.997 33.812-18.999 107.98-47.279 120.45-51.967h38.546c2.719 0 5.328-1.031 7.312-2.906l33.998-31.997c.219-.188.422-.406.609-.625l9.625-10.656a10.55 10.55 0 0 0 1.187-1.594l15.468-25.374c.266-.438.484-.844.672-1.281l11.328-25.913a10.655 10.655 0 0 0-4.844-13.751z"/><path fill="#212121" d="M351.99 138.78c0 5.891-4.781 10.656-10.672 10.656s-10.672-4.766-10.672-10.656 4.781-10.671 10.672-10.671 10.672 4.781 10.672 10.671z"/><path fill="#ff5722" d="M296.91 10.578c-4.031-5.859-9.953-9.438-17.141-10.375A23.685 23.685 0 0 0 276.581 0c-20.78 0-46.998 26.796-52.045 32.155a10.651 10.651 0 0 0-2.374 10.593 10.666 10.666 0 0 0 8.124 7.188l57.982 11.156c.672.125 1.344.188 2.016.188 4.828 0 9.188-3.297 10.359-8.156 1.111-4.595 6.126-28.188-3.733-42.546z"/><path d="M479.25 266.75H395.5l65.22 18.59z" opacity=".2"/><path fill="#212121" d="m506.23 195.34-15.843-8.219s-13.374 15.062-4.172 22.984c9.188 7.922 21.483 6.703 21.483 6.703l3.375-7.719a10.652 10.652 0 0 0-4.843-13.749z"/><path d="M392.33 309.43H255.99l83.14 21.03zM228.2 28.405l-44.31-3.781 40.65 7.531z" opacity=".2"/></svg>