<svg xmlns="http://www.w3.org/2000/svg" xml:space="preserve" style="fill-rule:evenodd;clip-rule:evenodd;stroke-linejoin:round;stroke-miterlimit:2" viewBox="0 0 128 128"><g transform="matrix(1.48478 0 0 1.51295 8.594 -75.163)"><path d="M80.42 70.83v42.302c0 11.673-9.658 21.151-21.552 21.151H15.764c-11.895 0-21.552-9.478-21.552-21.151V70.83c0-11.673 9.657-21.15 21.552-21.15h43.104c11.894 0 21.552 9.477 21.552 21.15Z" style="fill:#86fcbb"/><clipPath id="a"><path d="M80.42 70.83v42.302c0 11.673-9.658 21.151-21.552 21.151H15.764c-11.895 0-21.552-9.478-21.552-21.151V70.83c0-11.673 9.657-21.15 21.552-21.15h43.104c11.894 0 21.552 9.477 21.552 21.15Z"/></clipPath><g clip-path="url(#a)"><g transform="matrix(.86208 0 0 .84603 -5.788 47.474)"><clipPath id="b"><path d="M0 0h600v100H0z"/></clipPath><g clip-path="url(#b)"><path d="M274.854 26.766c-4.202 0-8.06.986-11.576 2.958-3.516 1.973-6.303 4.717-8.36 8.233-2.059 3.473-3.089 7.396-3.089 11.77 0 4.415 1.03 8.383 3.088 11.898 2.058 3.473 4.845 6.196 8.361 8.168 3.516 1.972 7.374 2.959 11.576 2.959 4.202 0 8.06-.987 11.577-2.959 3.516-1.972 6.281-4.695 8.297-8.168 2.058-3.515 3.087-7.483 3.087-11.899 0-4.373-1.03-8.296-3.087-11.77-2.016-3.515-4.781-6.26-8.297-8.232-3.473-1.972-7.332-2.958-11.577-2.958Zm119.046 0c-4.202 0-8.06.986-11.576 2.958-3.516 1.973-6.303 4.717-8.36 8.233-2.059 3.473-3.089 7.396-3.089 11.77 0 4.415 1.03 8.383 3.088 11.898 2.058 3.473 4.845 6.196 8.36 8.168 3.517 1.972 7.375 2.959 11.577 2.959s8.062-.987 11.578-2.959 6.28-4.695 8.295-8.168c2.058-3.515 3.088-7.483 3.088-11.899 0-4.373-1.03-8.296-3.088-11.77-2.015-3.515-4.779-6.26-8.295-8.232-3.473-1.972-7.333-2.958-11.578-2.958Zm-291.665.58v44.956h26.047v-7.333h-17.044V53.07h15.115v-7.14h-15.115V34.677h17.044v-7.331h-26.047Zm247.29.514v8.81h-4.246v7.397h4.246V61.24c0 7.375 3.794 11.063 11.383 11.063h5.66v-7.59h-4.181c-1.372 0-2.358-.257-2.958-.771-.558-.557-.838-1.437-.838-2.637V44.067h7.976v-7.396h-7.976v-8.81l-9.066-.001Zm117.951 0v8.81h-4.244v7.397h4.244V61.24c0 7.375 3.796 11.063 11.385 11.063h5.66v-7.59h-4.18c-1.373 0-2.359-.257-2.96-.771-.557-.557-.836-1.437-.836-2.637V44.067h7.976v-7.396h-7.976v-8.81l-9.069-.001Zm-192.622 7.01c2.702 0 5.081.6 7.14 1.8 2.057 1.201 3.666 2.937 4.823 5.21 1.158 2.23 1.737 4.845 1.737 7.846 0 3.001-.579 5.639-1.737 7.911-1.157 2.273-2.766 4.031-4.824 5.274-2.058 1.2-4.437 1.801-7.139 1.801-2.7 0-5.101-.6-7.202-1.8-2.058-1.244-3.667-3.002-4.824-5.275-1.158-2.272-1.737-4.91-1.737-7.91 0-3.002.579-5.617 1.737-7.847 1.157-2.273 2.766-4.009 4.824-5.21 2.1-1.2 4.501-1.8 7.202-1.8Zm119.046 0c2.701 0 5.08.6 7.139 1.8 2.058 1.201 3.666 2.937 4.824 5.21 1.158 2.23 1.736 4.845 1.736 7.846 0 3.001-.578 5.639-1.736 7.911-1.158 2.273-2.766 4.031-4.824 5.274-2.058 1.2-4.438 1.801-7.139 1.801-2.701 0-5.101-.6-7.202-1.8-2.058-1.244-3.667-3.002-4.825-5.275-1.157-2.272-1.736-4.91-1.736-7.91 0-3.002.579-5.617 1.736-7.847 1.158-2.273 2.767-4.009 4.825-5.21 2.1-1.2 4.501-1.8 7.202-1.8Zm-243.494 1.221c-3.044 0-5.81.752-8.297 2.252-2.444 1.501-4.395 3.643-5.853 6.43-1.415 2.787-2.12 5.983-2.12 9.584 0 3.645.705 6.882 2.12 9.712 1.458 2.787 3.41 4.952 5.853 6.495 2.487 1.544 5.232 2.316 8.233 2.316 2.659 0 4.994-.536 7.01-1.608 2.058-1.115 3.666-2.509 4.824-4.181v5.21h9.068v-35.63h-9.068v5.08c-1.2-1.629-2.81-2.979-4.824-4.05-1.973-1.072-4.287-1.61-6.946-1.61Zm42.641 0c-2.873 0-5.382.473-7.525 1.416-2.101.943-3.73 2.229-4.888 3.858a9.36 9.36 0 0 0-1.673 5.402c0 2.402.602 4.31 1.802 5.724 1.244 1.415 2.702 2.466 4.374 3.152 1.715.686 3.9 1.351 6.559 1.994 2.572.686 4.438 1.329 5.595 1.93 1.2.557 1.8 1.416 1.8 2.573 0 1.072-.493 1.95-1.479 2.635-.943.686-2.272 1.03-3.987 1.03-1.758 0-3.237-.45-4.437-1.351-1.158-.9-1.822-2.036-1.994-3.408h-9.068c.128 2.186.857 4.18 2.187 5.982 1.372 1.8 3.214 3.235 5.53 4.307 2.315 1.03 4.93 1.545 7.846 1.545 2.83 0 5.297-.45 7.398-1.351 2.144-.944 3.771-2.229 4.886-3.858 1.158-1.63 1.738-3.473 1.738-5.53-.043-2.359-.686-4.247-1.93-5.662-1.2-1.457-2.637-2.528-4.31-3.215-1.672-.686-3.794-1.35-6.367-1.994-2.53-.643-4.395-1.265-5.595-1.865-1.2-.644-1.8-1.565-1.8-2.766 0-1.072.428-1.908 1.285-2.509.9-.6 2.167-.899 3.796-.899 1.758 0 3.151.428 4.18 1.286 1.072.815 1.672 1.93 1.8 3.345h8.618c-.257-3.601-1.65-6.453-4.18-8.554-2.53-2.144-5.916-3.217-10.16-3.217h-.001Zm132.23 0c-2.615 0-4.952.558-7.01 1.673-2.015 1.072-3.601 2.424-4.759 4.053V36.67h-9.004v52.61h9.004V67.22c1.244 1.63 2.85 2.98 4.823 4.051 2.015 1.072 4.331 1.608 6.947 1.608 3.044 0 5.787-.772 8.231-2.316 2.487-1.543 4.438-3.708 5.853-6.495 1.458-2.83 2.187-6.067 2.187-9.712 0-3.644-.73-6.84-2.187-9.584-1.415-2.787-3.366-4.929-5.853-6.43-2.444-1.5-5.187-2.252-8.231-2.252l-.001.001Zm178.73 0c-2.873 0-5.381.473-7.525 1.416-2.101.943-3.729 2.229-4.887 3.858a9.359 9.359 0 0 0-1.672 5.402c0 2.402.6 4.31 1.8 5.724 1.244 1.415 2.702 2.466 4.374 3.152 1.715.686 3.902 1.351 6.56 1.994 2.573.686 4.437 1.329 5.594 1.93 1.2.557 1.802 1.416 1.802 2.573 0 1.072-.493 1.95-1.479 2.635-.943.686-2.274 1.03-3.989 1.03-1.758 0-3.237-.45-4.437-1.351-1.158-.9-1.822-2.036-1.994-3.408h-9.068c.128 2.186.857 4.18 2.187 5.982 1.372 1.8 3.216 3.235 5.532 4.307 2.315 1.03 4.93 1.545 7.846 1.545 2.83 0 5.295-.45 7.396-1.351 2.144-.944 3.773-2.229 4.888-3.858 1.158-1.63 1.736-3.473 1.736-5.53-.043-2.359-.686-4.247-1.93-5.662-1.2-1.457-2.637-2.528-4.31-3.215-1.671-.686-3.794-1.35-6.367-1.994-2.53-.643-4.393-1.265-5.593-1.865-1.201-.644-1.802-1.565-1.802-2.766 0-1.072.43-1.908 1.287-2.509.9-.6 2.165-.899 3.794-.899 1.758 0 3.151.428 4.18 1.286 1.072.815 1.672 1.93 1.8 3.345h8.62c-.257-3.601-1.65-6.453-4.18-8.554-2.53-2.144-5.918-3.217-10.163-3.217Zm-293.016.58 14.277 34.73-7.717 17.75h9.583l22.06-52.48h-9.583l-9.327 24.89-9.196-24.89h-10.097Zm212.237 0v20.901c0 3.173.6 5.918 1.8 8.233 1.244 2.272 2.938 4.008 5.082 5.209 2.144 1.158 4.609 1.738 7.396 1.738 2.187 0 4.202-.429 6.046-1.286 1.887-.9 3.408-2.124 4.565-3.667v4.503h9.069V36.67h-9.069v19.615c0 2.83-.706 5.017-2.12 6.56-1.416 1.501-3.367 2.253-5.854 2.253-2.444 0-4.374-.752-5.789-2.253-1.415-1.543-2.12-3.73-2.12-6.56V36.671h-9.006Zm-270.507 7.331a9.112 9.112 0 0 1 4.696 1.286c1.458.815 2.615 2.015 3.473 3.602.857 1.543 1.286 3.409 1.286 5.595 0 2.187-.429 4.075-1.286 5.661-.858 1.544-2.015 2.744-3.473 3.602a9.476 9.476 0 0 1-4.696 1.22c-1.63 0-3.172-.428-4.63-1.285-1.414-.858-2.573-2.079-3.474-3.665-.857-1.63-1.286-3.517-1.286-5.66 0-2.145.429-3.988 1.286-5.531.9-1.587 2.06-2.787 3.475-3.602a9.115 9.115 0 0 1 4.629-1.223Zm170.177 0a9.118 9.118 0 0 1 4.63 1.223c1.458.815 2.616 2.015 3.473 3.602.9 1.543 1.352 3.386 1.352 5.53 0 2.187-.451 4.074-1.352 5.66-.857 1.587-2.015 2.808-3.472 3.666a8.776 8.776 0 0 1-4.631 1.286 9.351 9.351 0 0 1-4.631-1.221c-1.415-.858-2.572-2.08-3.473-3.667-.857-1.586-1.286-3.452-1.286-5.596 0-2.143.429-4.009 1.286-5.595.9-1.587 2.058-2.787 3.473-3.602 1.458-.857 3.001-1.286 4.63-1.286h.001ZM51.602 70.575c-1.625 2.837-2.19 5.218-1.29 6.581.519.784 1.709.67 3.274.674l-7.041-.096 5.057-7.159Zm185.654 7.156h11.08v6.709h-11.08v-6.709Z" style="fill:#3f3f3f;fill-rule:nonzero"/><path d="M35.829 77.731h178.417v6.709H35.829v-6.709Zm-3.803-42.818-4.744 8.454" style="fill:#3f3f3f;fill-rule:nonzero"/><path d="m17.284 61.144 9.998-17.817 30.1 16.89-9.998 17.817c-3.356 5.98-11.038 8.14-17.018 4.784l-8.298-4.656c-5.98-3.356-8.14-11.038-4.784-17.018Zm14.742-26.271 37.876-67.49 6.652 3.733-37.876 67.49-6.652-3.733Zm8.397 4.713L78.3-27.904l13.305 7.466-37.876 67.49-13.306-7.466Zm15.048 8.445 37.876-67.49L100-15.727l-37.876 67.49-6.653-3.732Z" style="fill:#3f3f3f;fill-rule:nonzero"/></g></g></g></g></svg>