<svg xmlns="http://www.w3.org/2000/svg" viewBox="0 0 24 24" width="40" height="40" fill="none"><g clip-path="url(#a)"><path fill="#518B91" d="m5.74 18.53-.2-.03c-.05 0-.1 0-.16-.02l-.06-.02-.2-.04a1.66 1.66 0 0 0-.23-.05.3.3 0 0 0-.1-.02.16.16 0 0 1-.09-.03l-.05-.02H4.6c0-.02-.05-.03-.1-.05a1.4 1.4 0 0 1-.31-.1c-.02 0-.04 0-.04-.02l-.04-.02a.5.5 0 0 1-.12-.04l-.1-.04-.49-.24A6.68 6.68 0 0 1 .35 14.2v-.02c-.02 0-.03-.02-.03-.03l-.01-.06a5.65 5.65 0 0 1-.24-.89l-.04-.25c-.04-.3-.04-1.6 0-1.9l.04-.26c.05-.24.1-.47.18-.7l.05-.15C.4 9.62.54 9.3.69 9l.08-.14.18-.31a6.47 6.47 0 0 1 3.8-2.87l.2-.05.07-.02.04-.02.19-.03.23-.04.08-.01a6.75 6.75 0 0 1 2.61.14l.18.05.26.08.08.02a.9.9 0 0 0 .1.04l.13.05.13.05a6.43 6.43 0 0 1 2.81 2.24l.12.17c.01.01.02.02.03 0l.26-.36.1-.12c.6-.7 1.32-1.29 2.13-1.73l.49-.22.32-.12.14-.05.06-.02.18-.05.21-.05.1-.02c.1-.04.2-.06.31-.08h.12a6.87 6.87 0 0 1 2.02-.01 6.8 6.8 0 0 1 2.63 1l.2.14a6.6 6.6 0 0 1 1.8 1.96l.12.21a1 1 0 0 1 .1.2c.06.08.1.17.13.26l.01.01.02.03.04.1.1.26.05.14.02.06c0 .02 0 .04.02.04v.01l.03.1.04.13.03.1a3.53 3.53 0 0 1 .16.7c.06.62.07 1.23.03 1.85-.06.46-.17.9-.32 1.34l-.03.1-.03.06-.04.1a6.62 6.62 0 0 1-5.3 4.1 6.7 6.7 0 0 1-.8.03 5.96 5.96 0 0 1-4.14-1.44 7.25 7.25 0 0 1-1.34-1.44 6.5 6.5 0 0 1-6.24 2.86Zm1.21-.82.14-.02.47-.06.16-.04.34-.08c.13-.03.17-.04.17-.06l.1-.03.1-.04.05-.01c.01 0 .05 0 .07-.02l.06-.03.06-.02c.15-.05.3-.12.43-.21a.7.7 0 0 0 .23-.11c0-.01.02-.03.04-.03.03 0 .13-.07.14-.09l.03-.01c.03 0 .22-.14.23-.16l.03-.02c.03 0 .15-.09.15-.11 0-.01.01-.02.03-.02.04 0 .25-.17.25-.2 0-.02.01-.03.03-.03.03 0 .16-.13.16-.16l.02-.01c.02 0 .08-.05.13-.1l.18-.2a.25.25 0 0 0 .08-.1c0-.02.02-.04.05-.05l.04-.05c0-.02.02-.04.04-.05.02 0 .03-.02.03-.04l.02-.04c.03 0 .18-.2.23-.3a.24.24 0 0 1 .05-.08l.01-.03c0-.01.01-.02.03-.02l.05-.07.05-.07.01-.03.04-.08a4.9 4.9 0 0 0 .71-2.03l.01-.09.02-.15.03-.33a8 8 0 0 1 .38-2.18l.05-.07a6.6 6.6 0 0 1 .9-1.46c.45-.47.97-.87 1.55-1.16l.2-.1c.04-.01.07-.03.07-.04l.04-.02c.05 0 .16-.04.17-.06l.06-.02c.02 0 .04 0 .04-.02 0 0 .02-.02.05-.02.05 0 .23-.05.25-.07l.07-.01.04-.02.1-.02c.2-.06.4-.1.6-.1.07 0 .12-.02.12-.02a5.5 5.5 0 0 1 2.1.22 5.3 5.3 0 0 1 2.79 2.16l.02.01.02.03.01.03c.01 0 .03.02.04.05l.03.07c.02.02.1.17.1.2l.02.02c.01 0 .03.02.03.05l.1.22.08.2c.11.27.2.56.24.85l.05.18a6 6 0 0 1 .04.76c.03.42 0 .84-.1 1.25-.08.43-.22.84-.43 1.22a2.84 2.84 0 0 1-.44.72.7.7 0 0 1-.08.11.3.3 0 0 0-.06.08l-.04.05-.05.05-.06.08a2.68 2.68 0 0 1-.57.54c-.01.03-.04.04-.06.04-.02 0-.03.02-.04.04 0 .02-.02.03-.04.03-.03 0-.04.01-.04.03 0 .01-.01.02-.03.02a.04.04 0 0 0-.04.04l-.08.06a.25.25 0 0 0-.07.05l-.03.01c-.02 0-.03 0-.03.02l-.02.01c-.02 0-.03.01-.03.02 0 .02-.2.14-.22.14l-.06.04a.14.14 0 0 1-.06.03.23.23 0 0 0-.09.03c-.1.07-.17.1-.23.12a.22.22 0 0 0-.09.04.12.12 0 0 1-.06.04l-.05.01-.06.03a.53.53 0 0 0-.13.04.32.32 0 0 1-.1.04l-.04.01c0 .01-.03.02-.07.02-.03 0-.06 0-.07.02a6.93 6.93 0 0 1-3.03-.02 5.24 5.24 0 0 1-3.07-2.57l-.07-.15-.02.05a.31.31 0 0 0-.02.08l-.06.13-.15.38.02.04.03.05c.05.06.09.13.12.2l.1.13.26.34c.42.52.93.96 1.51 1.3l.78.39c.04 0 .09.03.12.04l.27.1.1.03c.05 0 .13.03.2.05l.17.04.05.01a6.03 6.03 0 0 0 2.85-.12l.15-.05.2-.06a.25.25 0 0 1 .07-.03l.02-.01c0-.01.02-.02.05-.02a.6.6 0 0 0 .17-.07l.2-.09c.04 0 .07-.03.1-.05a.07.07 0 0 1 .05-.03c.04 0 .14-.07.14-.1h.05c.02 0 .04-.02.04-.03 0-.02.01-.03.03-.03.2-.09.38-.21.54-.36l.04-.02.04-.04c.02 0 .04-.02.04-.04 0-.01.02-.03.04-.03l.06-.04.05-.04.3-.27.36-.4a.68.68 0 0 0 .15-.2c0-.02 0-.03.02-.03s.13-.14.13-.18l.02-.02.18-.27c.32-.5.55-1.06.67-1.64a4.74 4.74 0 0 0-.01-2.74l-.02-.06c-.01 0-.03-.05-.04-.11a.4.4 0 0 0-.03-.13l-.02-.06c0-.03 0-.05-.02-.05 0 0-.02-.02-.02-.05a6.76 6.76 0 0 0-2.71-3.17l-.13-.06-.32-.15-.12-.06a5.5 5.5 0 0 0-2.66-.38 3.9 3.9 0 0 0-.96.18l-.06.01-.06.02c-.02 0-.05 0-.06.02a.72.72 0 0 1-.14.05l-.21.08a.95.95 0 0 1-.15.05.14.14 0 0 0-.06.03l-.05.01-.04.02c0 .02-.12.09-.16.09a.45.45 0 0 0-.1.05.36.36 0 0 1-.11.05l-.07.04c-.03.03-.06.05-.08.05-.02 0-.04 0-.04.02l-.02.01c-.02 0-.03.01-.03.02l-.21.14-.05.03-.06.04-.03.01c0 .03-.16.14-.2.14 0 0-.02.01-.02.03 0 .02-.13.13-.15.13l-.06.05c-.02.03-.05.05-.07.05a4.78 4.78 0 0 1-.61.66l-.05.05c0 .02 0 .03-.02.03l-.03.03-.08.12a4.8 4.8 0 0 0-.47.75l-.16.32-.07.16-.05.13c-.04.1-.08.2-.1.3-.1.32-.18.64-.24.97l-.03.3-.04.5c-.02.02-.03.06-.03.14l-.01.12a4.4 4.4 0 0 1-.38 1.72 6.15 6.15 0 0 1-.81 1.3c0 .03-.06.1-.09.1l-.03.05c0 .02-.09.1-.18.2a17.8 17.8 0 0 0-.45.39l-.04.02c-.02 0-.03.02-.04.04 0 .01-.03.04-.06.05l-.06.04a.7.7 0 0 1-.24.15c-.02 0-.03.01-.03.03 0 .01-.02.02-.05.02-.02 0-.04.01-.04.03 0 .02-.02.03-.04.03-.03 0-.05 0-.06.02-.01.04-.1.08-.14.08l-.04.01c0 .02-.12.08-.15.08l-.02.01-.03.03-.28.11-.05.02-.04.02c-.03 0-.06 0-.08.02a.5.5 0 0 1-.15.05c-.05 0-.1.02-.16.04-.08.04-.3.1-.44.1l-.2.04c-.84.11-1.7.03-2.5-.24l-.05-.01c-.02 0-.05 0-.05-.02l-.06-.02A5.55 5.55 0 0 1 2 14.5l-.1-.2a2.15 2.15 0 0 0-.12-.24c0-.03-.03-.1-.05-.14a.42.42 0 0 1-.05-.12l-.01-.03a5.08 5.08 0 0 1-.13-3.2l.02-.05c.01 0 .02 0 .02-.03.09-.31.2-.61.35-.9l.01-.04c.26-.45.57-.87.93-1.25.14-.1.24-.19.24-.21a5.34 5.34 0 0 1 2.66-1.22l.38-.02c.18 0 .26-.01.32-.03.06-.02.1-.03.21-.02l.24.02c.33.02.58.06.72.1l.21.05c.11.02.22.06.33.1.9.3 1.7.85 2.32 1.58.03.04.07.1.1.12l.16.22.03.04.02.04.08.12c0 .02.01.03.02.03l.02.03.01.03c.01 0 .05.06.08.13l.08.14c.03.02.09.16.09.19 0 .02 0 .02.01.01.02-.02.13-.28.13-.3l.07-.17.07-.14-.03-.06a5.82 5.82 0 0 0-5.38-2.81c0 .02-.05.02-.1.02a.83.83 0 0 0-.22.03 2.3 2.3 0 0 1-.24.03l-.14.03c0 .01-.02.02-.05.02-.04 0-.08 0-.12.02l-.16.04c-.05 0-.09.02-.09.03l-.04.01a.2.2 0 0 0-.07.02.65.65 0 0 1-.2.07.5.5 0 0 0-.13.05l-.16.06c-.03 0-.06.02-.06.03l-.04.01a.25.25 0 0 0-.09.05.5.5 0 0 1-.1.05.49.49 0 0 0-.13.06.37.37 0 0 1-.1.05 1.83 1.83 0 0 1-.3.18l-.06.03a.6.6 0 0 1-.1.08.2.2 0 0 0-.08.05h-.04l-.03.03a.5.5 0 0 1-.16.13l-.1.08a.5.5 0 0 1-.1.08l-.05.05a.13.13 0 0 1-.07.05c-.02 0-.04.02-.06.05 0 .02-.1.12-.2.22-.1.08-.18.17-.26.27l-.06.07s-.01.03-.04.05a.18.18 0 0 0-.05.06c0 .02-.02.03-.03.03 0 0-.02.01-.02.03L2 8.54l-.04.04c0 .01-.01.04-.04.07a.23.23 0 0 0-.04.05 2 2 0 0 1-.21.32l-.02.04-.31.6-.08.15a.68.68 0 0 0-.04.12c-.05.1-.09.22-.12.33l-.07.2a.54.54 0 0 0-.02.1c0 .01 0 .03-.02.03l-.02.08-.05.25c-.13.73-.12 1.49.02 2.22l.02.12.06.23c.04.09.06.18.08.27l.07.17c.18.47.41.91.69 1.33.64.9 1.52 1.6 2.54 2.04l.03.01a5.54 5.54 0 0 0 2.17.41l.36-.01h-.01ZM7 16.32l.1-.01c.06 0 .2-.02.3-.05.1-.03.21-.05.32-.06.02-.02.24-.1.28-.1l.04-.01.1-.05a4.3 4.3 0 0 0 2.36-2.29l.13-.31.05-.16a4.5 4.5 0 0 0-.25-3.2l-.08-.14a4.05 4.05 0 0 0-2.28-2l-.12-.04a3.8 3.8 0 0 0-.65-.17L7 7.67h-.5l-.52.02a8.8 8.8 0 0 0-.98.25.74.74 0 0 0-.1.05h-.07l-.05.05c-.36.16-.7.36-1 .6-.2.19-.52.5-.58.58l-.12.16c-.25.3-.45.65-.58 1.02-.06.14-.1.29-.14.44-.03.05-.1.34-.1.4l-.01.06c-.01 0-.02 0-.01.01l-.01.13a5.4 5.4 0 0 0 .14 1.78c0 .04.04.16.07.21l.02.08.06.14.05.13c0 .03.02.05.03.05l.01.02c.06.14.13.27.21.4l.1.17A4.45 4.45 0 0 0 7 16.32Zm11.02 0c.23-.03.77-.16.93-.24l.18-.06a4.42 4.42 0 0 0 2.27-2.19l.01-.02.1-.21.06-.21.07-.21c.05-.15.08-.3.1-.46l.01-.07.03-.27c.03-.3.02-.66-.03-.98l-.01-.13a2.7 2.7 0 0 0-.12-.5c-.04-.15-.09-.3-.15-.44l-.08-.17a1.23 1.23 0 0 1-.08-.18s0-.02-.02-.02l-.01-.02a3.8 3.8 0 0 0-1.06-1.29l-.38-.28a4.15 4.15 0 0 0-1.04-.49c-.3-.1-.3-.1-.61-.16-.25-.05-.5-.06-.76-.04-.5 0-.53 0-.79.06a1.6 1.6 0 0 1-.2.04l-.06.01-.08.04a.58.58 0 0 0-.18.04c-.04 0-.08.02-.08.03 0 0-.01.02-.03.02-.3.1-.6.24-.87.42-.18.11-.23.15-.36.25a4.73 4.73 0 0 0-1.34 1.8l-.02.03-.02.04c0 .01 0 .05-.02.08l-.06.16-.05.18c-.12.49-.17 1-.13 1.5l.03.25.04.25.05.21.05.2.05.12.05.16.04.1.06.12a4.35 4.35 0 0 0 4.51 2.53Z"/><path fill="#518B91" d="M4.43 12.93v-1.67h.6v-.63c0-.6.02-.71.07-.81l.01-.06.05-.13.06-.1a1.51 1.51 0 0 1 .85-.69l.14-.05a1.51 1.51 0 0 1 1.76.99c.07.15.08.24.08.86l.01.62h.59v3.33H4.43v-1.66Zm3.1-2.22c0-.62-.02-.7-.12-.9a1 1 0 0 0-.93-.52l-.22.03-.04.02c-.06 0-.3.15-.4.26-.1.1-.18.25-.24.41 0 .04-.02.27-.02.6l-.01.6v.05h1.97v-.55h.01Zm9.96 4.83c-.2-.36-.42-.71-.64-1.06l-.01-1.45V11.6l-.06-.02a2.4 2.4 0 0 1-.76-.35 1.3 1.3 0 0 1-.45-.64 1.1 1.1 0 0 1 .03-.47c.12-.3.36-.54.74-.74l.22-.08.21-.07.23-.03c.3-.03.6-.03.9.02.4.07.76.26 1.05.53.09.09.17.2.2.3.08.15.08.18.08.36 0 .3-.08.46-.31.7-.2.2-.39.31-.64.4l-.17.06-.2.03-.16.03v1.32l.16.17c.1.09.17.17.17.18 0 0-.08.1-.18.19l-.18.18.31.3c.17.17.3.32.3.33l-.14.17-.3.31-.14.15v.33l-.01.32h-.1c-.1.01-.12.01-.14-.03l-.01-.01Zm.34-5.3a.44.44 0 1 0-.88 0 .44.44 0 0 0 .88 0Z"/><path fill="#86C4C5" d="M18.71 18.44c.03-.03.1-.04.1-.01l-.02.01c-.01 0-.04 0-.06.02-.04 0-.05 0-.02-.02Zm-3.02-.1c-.02 0-.03-.01-.03-.02.02-.02.06-.02.07.01v.02h-.04v-.01ZM9 18.1c0-.02.04-.04.04-.01 0 0-.01.02-.03.02h-.02L9 18.1Zm-2.7-.31-.17-.01-.2-.02a.66.66 0 0 0-.17-.02c-.06 0-.12 0-.13-.02H5.6l-.05-.01H5.5s-.05 0-.09-.02l-.1-.03-.11-.02-.14-.03a5.88 5.88 0 0 1-4.05-3.87c0-.02 0-.04-.02-.04v-.02c0-.02 0-.03-.02-.03v-.05c-.02 0-.02-.02-.03-.03l-.03-.16a.42.42 0 0 1-.03-.15v-.03c-.02 0-.02 0-.02-.02v-.04c-.02 0-.02-.02-.02-.03l-.01-.12a5.41 5.41 0 0 1-.07-1.4v-.24l.02-.06c0-.08.02-.23.05-.37a.3.3 0 0 0 .01-.11l.01-.03c.01 0 .02-.01.01-.03l.01-.04v-.03l.01-.04c.02 0 .02-.02.02-.06 0-.03 0-.07.02-.07a.53.53 0 0 0 .06-.22c0-.02 0-.05.02-.05v-.02l.01-.03v-.02l.01-.01c.02 0 .05-.1.05-.15 0 0 0-.02.02-.03l.06-.13.06-.16.02-.06s0-.03.03-.05c.01-.02.03-.05.02-.06 0-.02 0-.04.02-.05.01 0 .02-.02.01-.03 0-.01 0-.03.02-.03a.9.9 0 0 0 .14-.27s.01-.03.04-.05l.03-.07.01-.02c.03 0 .05-.05.04-.08l.01-.01a.9.9 0 0 0 .2-.3v-.01c.04 0 .1-.09.09-.1-.01 0 0-.02.03-.03a.05.05 0 0 0 .03-.05L2 8.41c.02 0 .02-.02.02-.03l.01-.03c.03 0 .09-.07.07-.09l.02-.01c.02 0 .11-.1.11-.11l.2-.2c.1-.1.19-.2.2-.23l.05-.04c.04 0 .11-.07.1-.09l.01-.01c.04 0 .19-.12.18-.14l.01-.02c.04 0 .19-.1.19-.13 0-.01.01-.02.03-.02.02 0 .04 0 .04-.02l.07-.04a.6.6 0 0 0 .11-.08.17.17 0 0 1 .06-.04c.02 0 .2-.11.24-.14a.1.1 0 0 1 .06-.03l.1-.05L4 6.8a.5.5 0 0 0 .11-.06.27.27 0 0 1 .08-.04l.1-.05.05-.01.14-.06a.5.5 0 0 1 .13-.05c.02 0 .12-.02.18-.06a.2.2 0 0 1 .07-.01c.02 0 .04 0 .04-.02l.06-.02c.02 0 .05 0 .05-.02h.03a.3.3 0 0 0 .13-.03c.06-.02.1-.03.12-.02l.03-.01c0-.01.04-.03.08-.03l.08-.01h.05l.16-.02a.76.76 0 0 1 .21-.03c.06 0 .11 0 .12-.02.48-.03.97 0 1.45.06h.05l.04.01.07.02c.04 0 .08 0 .09.02l.06.01.16.04.12.03h.03c0 .01.01.02.02.01l.03.01.06.02a.2.2 0 0 1 .1.03l.05.02c0-.01.04 0 .07.02l.09.03.05.02.18.08c.17.06.34.14.5.23.12.05.23.12.34.2l.24.16c.7.5 1.3 1.13 1.73 1.88l-.07.17c-.1.2-.18.4-.25.6-.02.01-.07-.06-.09-.13 0-.03-.02-.05-.03-.05V9.7l-.03-.04c-.01-.02-.02-.03 0-.03l-.01-.01-.09-.15a.6.6 0 0 0-.08-.13l-.01-.03-.02-.02-.02-.03a.37.37 0 0 0-.08-.13l-.02-.03-.03-.05-.16-.22c-.03-.02-.07-.08-.1-.12a6.22 6.22 0 0 0-1.24-1.07 4.92 4.92 0 0 0-1.67-.67l-.1-.02a1.93 1.93 0 0 0-.26-.03 1 1 0 0 1-.23-.04l-.04.01c-.01 0-.1 0-.18-.02-.13-.01-.15-.01-.21.01-.1.03-.2.04-.31.03-.23 0-.41.02-.6.07L5.44 7c-.05 0-.1.02-.1.03l-.07.01c-.04 0-.07.02-.07.03h-.02l-.07.03a.26.26 0 0 1-.1.02c-.03 0-.05 0-.05.02l-.05.01-.04.02-.04.02-.06.01-.11.06-.21.08a3.23 3.23 0 0 0-.59.3 5.35 5.35 0 0 0-.66.48c-.02 0-.03.01-.02.02a1 1 0 0 1-.24.23c-.04.03-.08.06-.07.07l-.1.13-.3.33c-.02 0-.03.01-.02.02l-.08.15a4.8 4.8 0 0 0-.37.55v.01l-.08.2a5 5 0 0 0-.3.76v.01l-.04.18-.04.2-.02.04-.02.1-.01.1c-.01 0-.02.03 0 .06l-.01.05c-.01 0-.02.04-.01.08 0 .04 0 .08-.02.08v.49a3.52 3.52 0 0 0 .08 1.06l.03.13.02.05v.04l.01.01c.01 0 .02.02.01.03l.06.23.04.11.01.05v.02l.02.02s.02.01.02.04l.01.05.1.24c-.01 0-.01 0 0 0l.1.2.14.26a5.24 5.24 0 0 0 1.74 1.82c.38.21.77.39 1.18.53l.03.01.04.01.17.05c.1.03.18.06.28.07h.03l.05.02a.1.1 0 0 0 .06 0c.05 0 .1 0 .15.02l.14.02h.06c0 .02.06.02.1.02h.1c.25.03.5.02.75-.01l.22-.02c.08-.03.34-.07.37-.06l.02-.01c0-.02.02-.02.04-.02h.04l.06-.01.1-.03a.83.83 0 0 1 .26-.08c0 .01.05 0 .08-.02a.3.3 0 0 1 .1-.03c.02 0 .04-.02.05-.03.01-.02.04-.02.06-.02.02 0 .03 0 .04-.02l.04-.02c.02 0 .05 0 .08-.02a.21.21 0 0 1 .09-.03l.03-.03.03-.03c.03 0 .15-.05.15-.07l.03-.01c.05 0 .15-.05.13-.07 0-.02.04-.04.08-.04.02 0 .04 0 .04-.02s.01-.03.04-.03.04 0 .04-.02.02-.03.04-.03c.04 0 .25-.14.23-.16l.02-.01c.04 0 .11-.06.11-.08 0-.02.02-.03.04-.03l.04-.02c0-.02.02-.03.03-.03.03 0 .09-.06.07-.07 0-.01 0-.02.02-.02s.07-.02.1-.06l.23-.22a.91.91 0 0 0 .2-.24c.04 0 .11-.08.1-.1l.01-.02c.03 0 .2-.2.18-.22l.01-.02c.03 0 .09-.08.07-.1 0-.02 0-.02.02-.02.03 0 .1-.12.09-.14l.01-.02c.03 0 .16-.22.15-.24l.01-.02c.11-.17.2-.35.26-.54.02 0 .03-.04.04-.07l.06-.16c.02-.05.03-.1.02-.11l.01-.02c.01 0 .02-.01.02-.03l.03-.1c.01-.04.02-.07.01-.09 0-.01 0-.02.02-.03l.02-.06.01-.05v-.04l.01-.03.01-.04.04-.21a.8.8 0 0 0 .03-.22l.01-.04c.01 0 .02-.02.01-.07l.01-.07v-.12l.01-.12c.02 0 .02-.04.02-.12 0-.08 0-.13.03-.15.02-.02.03-.06.02-.2l.01-.17v-.11c0-.07 0-.12.02-.12v-.13c.02 0 .02-.05.02-.1l.02-.14a.61.61 0 0 0 .05-.25v-.02c.02 0 .06-.16.05-.19v-.02a.9.9 0 0 0 .09-.29l.01-.02c.02-.01.04-.07.05-.16l.02-.05c.01-.01.1-.2.1-.23 0-.01 0-.03.02-.04V9.7l.01-.03c.03 0 .08-.1.07-.13V9.5h.01c0-.01 0-.04.03-.06.02-.02.03-.04.02-.06l.01-.02c.01 0 .02 0 .01-.01v-.02c.02 0 .02 0 .02-.02l.01-.02c.03 0 .1-.15.1-.17-.02-.01 0-.02 0-.02.03 0 .04 0 .04-.05 0-.02.02-.04.03-.05a.05.05 0 0 0 .03-.05l.01-.02.07-.08a8.02 8.02 0 0 1 1.07-1.24l.05-.05c.03 0 .16-.11.16-.13 0-.02 0-.03.02-.03.04 0 .2-.12.2-.14l.02-.01.07-.04a.15.15 0 0 1 .04-.03c.03 0 .22-.13.22-.14 0-.01.01-.02.03-.02.01 0 .02 0 .01-.02l.04-.01c.02 0 .06-.02.09-.05l.07-.04.11-.05.1-.05c.03 0 .16-.07.16-.1h.04l.05-.02.06-.03c.03 0 .1-.03.14-.05a.84.84 0 0 1 .18-.07c.04 0 .16-.05.18-.07l.06-.02.09-.02c.02-.01.06-.02.07-.01.01 0 .04 0 .05-.02.02-.02.04-.03.06-.02l.06-.01a.73.73 0 0 1 .27-.06h.02c0-.02.02-.02.05-.02h.06l.06-.02a7.7 7.7 0 0 1 1.68 0h.1c.02 0 .03 0 .04.02h.04l.04.01.08.02.1.01.1.03c.1.02.12.02.15.04h.06c.01.02.04.03.06.03l.05.02h.05l.14.05.1.03s.02 0 .03.02h.03l.1.04.2.08.34.16.13.07c.1.05.21.11.31.18l.17.11.2.14.27.21c.48.43.9.92 1.25 1.47l.01.02c.2.3.36.62.47.96l.04.12.02.03.01.04.03.1.03.1c0 .01 0 .04.02.04v.07l.03.06c0 .04.02.13.05.2.02.08.03.15.02.16l.01.03c.01 0 .02.01.02.04.17 1.02.24 1.02-.09 2.42l-.02.08-.01.06-.01.02a5.55 5.55 0 0 1-1.13 2.18 11.55 11.55 0 0 1-.77.75c-.02 0-.04 0-.04.02s-.01.04-.04.05c-.02 0-.04.02-.04.03l-.04.02a1.9 1.9 0 0 1-.54.36c-.01 0-.03.01-.03.03 0 .01-.01.02-.04.02s-.05.01-.05.02c0 .03-.1.09-.14.09a.07.07 0 0 0-.06.03.23.23 0 0 1-.1.05 1.6 1.6 0 0 0-.2.1.58.58 0 0 1-.16.06c-.03 0-.05 0-.05.02 0 0 0 .02-.02.02a.37.37 0 0 0-.1.03.99.99 0 0 1-.16.05l-.1.04h-.02l-.04.01a.63.63 0 0 1-.2.06l-.34.09a.44.44 0 0 1-.13.02h-.05c0 .01-.02.02-.04.01l-.05.01c0 .01 0 .02-.03.01l-.17.01a4.67 4.67 0 0 1-1.94-.08l-.08-.03a.94.94 0 0 1-.23-.05l-.2-.06-.14-.05-.15-.05-.1-.04A5.88 5.88 0 0 1 13 15.7c-.12-.14-.13-.16-.26-.35a4.27 4.27 0 0 0-.12-.17l-.1-.16c-.02 0-.02-.01-.02-.03l-.03-.05c-.03-.03-.04-.13-.02-.13s.09-.15.08-.17l.01-.03c.02 0 .03-.02.02-.04v-.04c.03 0 .12-.2.1-.23l.01-.03c.02 0 .02 0 .01-.01v-.02c.02 0 .03-.03.04-.07l.04-.08s.06.08.11.19c.4.82 1.01 1.52 1.78 2.01a4.17 4.17 0 0 0 1.23.59l.03.01.04.02c.02 0 .05 0 .07.02.04.02.23.07.28.07.1.01.32.05.36.07a7.5 7.5 0 0 0 1.93-.06c.02 0 .24-.06.32-.1H19c.02 0 .03 0 .04-.02 0-.02.03-.03.06-.03s.07 0 .1-.02a.15.15 0 0 1 .07-.03l.02-.02c0-.01.02-.02.04-.01.02 0 .04 0 .05-.02 0-.02.02-.03.04-.02.02 0 .04 0 .06-.02a.2.2 0 0 1 .1-.04l.12-.06.22-.1.04-.04c0-.01 0-.02.03-.02.04 0 .24-.12.23-.14 0-.01 0-.02.03-.02.02 0 .03 0 .02-.01 0-.01 0-.02.03-.02.02 0 .03 0 .02-.02 0 0 0-.02.02-.02.05 0 .15-.06.15-.1 0 0 .01-.02.03-.02l.04-.02c0-.02.01-.03.03-.03.02 0 .04-.01.05-.03 0-.02.02-.04.04-.04.03 0 .1-.07.07-.07l.03-.01a.18.18 0 0 0 .08-.07l.06-.06c.03 0 .34-.3.32-.33v-.01c.04 0 .13-.1.13-.12v-.02c.04 0 .1-.07.08-.09 0 0 0-.02.02-.02.03 0 .15-.16.14-.19l.01-.02c.03 0 .12-.13.1-.15 0-.01 0-.02.02-.02.03 0 .09-.1.07-.12 0-.01 0-.02.02-.02l.03-.01.05-.1.13-.24.13-.28.05-.14v-.03c.01 0 .02 0 .01-.01l.01-.02a.8.8 0 0 0 .1-.28v-.02a.8.8 0 0 0 .08-.28l.01-.03c.01 0 .02-.01 0-.03 0-.02 0-.04.02-.04l.01-.06c0-.04 0-.09.02-.1a.9.9 0 0 0 .05-.3v-.02c.02 0 .02-.03.01-.07l.01-.07c.01 0 .02-.21.02-.55.02-.4-.02-.8-.13-1.2-.02-.1-.03-.16-.05-.16v-.01a.4.4 0 0 0-.05-.17v-.03l-.01-.01c-.01 0-.02-.02-.01-.03l-.01-.03c-.01 0-.02 0-.01-.01 0-.02 0-.06-.06-.19a3.37 3.37 0 0 1-.1-.2v-.02c0-.03-.03-.1-.04-.1v-.01l-.01-.02c-.02 0-.02-.02-.02-.03a.1.1 0 0 0-.03-.06L22 9.65a.86.86 0 0 0-.1-.2l-.03-.06-.04-.05c-.01 0-.02-.01-.02-.03l-.01-.02-.02-.02c-.05-.1-.12-.2-.2-.3l-.02-.04c-.02-.02-.1-.1-.17-.2-.16-.2-.54-.58-.76-.76a5.81 5.81 0 0 0-1.92-.94c-.01-.01-.02-.02-.03-.01h-.04c0-.02-.02-.02-.02-.02l-.1-.02a2.6 2.6 0 0 0-.41-.06l-.29-.03a3.2 3.2 0 0 0-.96.02c-.16 0-.32.03-.48.07-.08.04-.14.05-.17.04h-.03c0 .02-.03.03-.05.03l-.07.01a.98.98 0 0 1-.26.08c-.01 0-.03 0-.05.02l-.04.02-.05.01a.37.37 0 0 1-.17.07l-.06.03a.15.15 0 0 1-.05.04l-.18.07a.9.9 0 0 1-.2.08c-.01 0-.02 0-.01.01.01.02-.29.2-.33.2-.01 0-.02 0-.02.02l-.01.01-.04.02-.18.15c-.5.38-.92.84-1.27 1.35l-.1.17c-.21.39-.38.8-.51 1.22l-.05.14a.3.3 0 0 0-.02.1l-.01.05c-.01 0-.02 0-.01.02 0 .02-.01.13-.04.25l-.04.33-.01.14a.7.7 0 0 0-.03.2l-.01.16c-.01 0-.02.06-.01.12v.31l-.04.29-.02.11-.02.12-.02.1v.07l-.02.08c-.02 0-.02.02-.02.03a.8.8 0 0 1-.06.26l-.01.04-.18.57a5 5 0 0 1-.53 1.01c-.01 0-.02.01-.01.03 0 .01 0 .02-.02.02s-.03.01-.02.02c0 0 0 .03-.03.06l-.03.05a1 1 0 0 1-.2.25c-.02 0-.03 0-.02.01.02.02-.02.08-.05.08l-.02.01c0 .04-.01.06-.05.08a6.86 6.86 0 0 0-.62.62c-.01 0-.03.01-.03.03a.7.7 0 0 1-.25.2c-.02 0-.03 0-.02.01.01.02-.12.13-.16.13l-.02.01a.93.93 0 0 1-.26.17c-.01.03-.12.1-.15.1-.02 0-.03 0-.04.02a.58.58 0 0 1-.23.11 1.8 1.8 0 0 1-.43.2l-.12.06a.18.18 0 0 1-.07.02.1.1 0 0 0-.05.02l-.04.02c-.05 0-.15.03-.15.04 0 .02-.15.07-.21.07-.07 0-.28.05-.31.07a.48.48 0 0 1-.23.05H7.5c0 .01-.01.02-.04.01h-.04c0 .02-.06.03-.13.03-.05 0-.1 0-.16.02l-.1.02h-.74l.01.02Zm14.73-.28c0-.02.05-.04.05-.01 0 0-.01.02-.03.02h-.02v-.01Zm.19-.13c0-.02.02-.04.03-.04.03 0 .02.04-.02.06-.03.01-.03.01-.01-.02Z"/><path fill="#86C4C5" d="M6.14 16.34c-.02 0-.02-.01.04-.01.05 0 .06 0 .04.01-.03.02-.03.02-.08 0Zm10.94 0c-.02 0-.02-.01.01-.01l.05.01c.01.03-.03.03-.06 0Zm.56-.77a.2.2 0 0 0 .07-.04c.03-.02.03-.02.03 0 0 .03-.03.04-.07.05-.03 0-.05 0-.03-.01Zm.26-.85.01-.03c.03-.02.05 0 .02.03h-.03Zm-9.3-.15c0-.02 0-.03.02-.03s.03.01.03.03c0 .01 0 .02-.02.02 0 0-.02 0-.02-.02H8.6Zm9.78-3.14.03-.02c.02-.01.02 0 .02.01l-.03.03c-.02 0-.02 0-.02-.02Zm.22-.12.04-.03c.03 0 .02.03-.02.05-.03.02-.03.02-.02-.02Zm-2.15-1.97a.19.19 0 0 1 .06-.03h.03c-.04.03-.12.05-.1.03h.01Zm-9.67-.02c-.04-.01-.04-.01-.02-.03l.06.01c.02.03 0 .03-.04.02Zm-.44-.03c0-.01.01-.02.03-.02.01 0 .02 0 .02.02l-.02.01-.03-.01Zm-1.26-1.4c0-.02.05-.04.05-.01l-.03.03c-.02 0-.02 0-.02-.02Zm.51-.14c.01-.03.08-.03.08-.01 0 0-.02.02-.05.02-.03.01-.04 0-.03-.01Zm10.95 0c0-.02.01-.03.03-.03l.02.02c0 .01 0 .02-.02.02s-.03 0-.03-.02v.01Zm-10.2-.1h.14c-.03.03-.16.03-.15 0h.01Zm.24.01a.1.1 0 0 0 .04-.02c.01-.02.1 0 .1.02l-.09.01c-.05 0-.07 0-.05-.01Zm10.69 0c0-.03.06-.03.12 0l-.04.01-.08-.01Zm.26 0c.06-.03.1-.03.1 0l-.07.01c-.06 0-.07 0-.03-.01Zm4.67-.17-.07-.08.1.08c.1.1.08.1-.03 0Z"/></g><defs><clipPath id="a"><path fill="#fff" d="M0 0h24v24H0z"/></clipPath></defs></svg>
