<svg xmlns="http://www.w3.org/2000/svg" viewBox="0 0 24 24" fill="none"><g clip-path="url(#a)"><path fill="#14285E" d="M2.98 12c.27-.97-.53-1.61-1.37-1.61-1 0-1.61.76-1.61 1.66 0 .97.69 1.66 1.55 1.66.73 0 1.11-.25 1.47-.62l-.25-.24c-.16.2-.51.44-.91.44-.65 0-.78-.42-.78-1.28h1.9ZM1.6 10.79c.53 0 .57.53.42.84h-.95c0-.51.14-.84.53-.84Zm4.14 1.27c0 .82-.16 1.17-.51 1.17-.24 0-.5-.23-.6-.46v-1.42c.1-.24.36-.47.6-.47.35 0 .5.35.5 1.18Zm-2.02-.77v3.15l-.44.44h1.8l-.44-.44v-1.18c.18.26.51.46.9.46.67 0 1.26-.7 1.26-1.66 0-.97-.59-1.66-1.27-1.66-.36 0-.67.18-.9.45v-.45l-1.34.46.43.43ZM8.55 9.6a.47.47 0 0 0-.46-.46.47.47 0 0 0-.46.46c0 .25.21.46.46.46s.46-.21.46-.46ZM9 13.63l-.44-.45v-2.8l-1.35.47.43.43v1.9l-.44.45H9Zm3.03-.38-.21-.28c-.2.18-.45.33-.73.33-.54 0-.75-.36-.75-1.25 0-.77.02-1.27.53-1.27a.7.7 0 0 1 .55.24l.6.6v-.94c-.35-.2-.7-.3-1.2-.3-.83 0-1.55.66-1.55 1.67 0 1 .73 1.66 1.55 1.66.53 0 .84-.12 1.21-.46Zm1.6-.06a.5.5 0 0 0-.84-.35.5.5 0 0 0 0 .7.5.5 0 0 0 .7 0 .5.5 0 0 0 .15-.35Zm4.04-1.14c0-.94-.77-1.66-1.7-1.66-.95 0-1.71.72-1.71 1.66s.76 1.66 1.7 1.66 1.7-.72 1.7-1.66Zm-1.08 0c0 .59-.07 1.3-.63 1.3s-.63-.71-.63-1.3c0-.6.07-1.3.63-1.3s.63.7.63 1.3Zm2.63-.54.56-.56.74.75v-1.26a1.08 1.08 0 0 0-1.1.28l-.2.22v-.55l-1.35.46.43.43v1.9l-.45.45h1.8l-.43-.45v-1.67ZM24 10.47h-1.73c-.65 0-1.4.29-1.4.95 0 .38.26.66.62.81v1.4s.49-.07.81-.07c.4 0 .75.14.75.48 0 .26-.31.44-.79.44-.17 0-.42-.06-.42-.06l-.39-.55-.77.74.84.19c.22.04.47.07.75.07.78 0 1.54-.32 1.54-1.05 0-.7-.58-1.08-1.38-1.08l-.33.02v-.38h.16c.6 0 1.4-.34 1.4-.96a.84.84 0 0 0-.13-.42l.47-.53Zm-1.26.95c0 .32-.18.63-.47.63-.3 0-.48-.31-.48-.63 0-.3.18-.62.48-.62s.47.31.47.62Z"/></g><defs><clipPath id="a"><path fill="#fff" d="M0 0h24v24H0z"/></clipPath></defs></svg>
