<svg xmlns="http://www.w3.org/2000/svg" width="819" height="819"><path fill="#FEFEFE" d="M0 0h819v819H0V0Z"/><path fill="#010101" d="M614 279h54l1 87 12-9c7.876-4.05 15.374-7.079 24-9l2.46-.621c20.53-4.58 44.337-1.022 62.29 9.871 14.912 10.21 23.754 22.588 29.25 39.75l.707 2.203c2.622 9.281 2.44 19.224 2.407 28.786v3.463c0 3.739-.008 7.477-.016 11.216l-.005 7.822c-.003 6.138-.01 12.275-.021 18.412-.012 7.682-.018 15.363-.023 23.045-.01 13.685-.03 27.369-.049 41.053h-53l-.113-23.238c-.03-4.872-.062-9.744-.096-14.616-.054-7.724-.105-15.449-.137-23.174-.027-6.23-.067-12.462-.117-18.693-.017-2.371-.028-4.743-.035-7.115-.01-3.334-.037-6.667-.07-10.001l.005-2.94c-.145-10.697-2.633-21.803-9.875-29.973L736 401l-2.313-2.125c-10.08-7.033-24.142-6.454-35.856-4.516-9.314 2.24-16.833 8.226-22.452 15.836-5.33 8.825-6.827 18.548-6.811 28.692l-.031 3.109c-.03 3.349-.04 6.698-.049 10.047a5324.717 5324.717 0 0 0-.158 25.386c-.035 7.364-.092 14.728-.145 22.092-.078 11.16-.129 22.32-.185 33.479h-54V279ZM160.723 366.848c13.702 12.95 20.73 31.055 21.366 49.777.034 3.07.035 6.137.025 9.207v3.52c0 3.82-.008 7.64-.016 11.46l-.005 7.97c-.003 6.265-.01 12.53-.021 18.795-.011 7.136-.017 14.273-.022 21.41-.01 14.67-.028 29.342-.05 44.013h-50l-1-20-3.875 4.625c-11.46 12.655-27.758 17.627-44.452 18.496-19.97.787-39.781-1.994-55.673-15.121l-2.559-2.11c-8.092-7.34-15.748-18.947-16.618-30.173C7.279 466.53 7.279 466.53 12 457l1.285-2.656c6.974-12.899 19.875-20.75 33.625-24.922 12.146-3.391 23.383-4.57 35.996-4.52l4.002.005c3.485.003 6.97.013 10.455.024 3.567.01 7.133.015 10.7.02 6.979.01 13.958.028 20.937.049-.289-2.075-.586-4.15-.887-6.223l-.498-3.5C126.33 408.434 122.96 402.884 118 398c-2.36-1.456-4.512-2.662-7-3.813l-1.828-.904c-14.642-7.05-35.724-4.725-50.813.08-5.925 2.111-11.517 4.871-17.039 7.867-2.75 1.466-5.423 2.646-8.32 3.77a52062.472 52062.472 0 0 1-11.426-22.07l-.947-1.829c-.879-1.699-1.753-3.4-2.627-5.101l-1.745-3.302C15 370 15 370 15.344 367.898c2.552-2.925 5.752-4.525 9.156-6.273l2.296-1.188c39.446-19.798 98.575-23.44 133.927 6.41Z"/><path d="M230 349h53l.078 23.133c.025 4.858.052 9.716.082 14.574.048 7.698.092 15.396.111 23.094.015 6.212.05 12.423.097 18.635.015 2.36.023 4.722.024 7.083-.315 23.893-.315 23.893 10.608 44.481 10.837 9.008 22.497 9.056 36 8 10.435-1.907 18.595-7.059 24.688-15.734 5.766-9.955 7.604-21.232 7.63-32.56l.031-2.988c.03-3.23.048-6.46.065-9.69a7511.33 7511.33 0 0 0 .187-24.465c.047-7.096.109-14.191.168-21.287.088-10.758.158-21.517.231-32.276h53v184h-50v-21h-2l-.727 1.758c-6.169 10.862-21.733 16.06-32.972 19.383L327 534l-2.041.542c-5.737 1.416-11.186 1.808-17.084 1.77l-2.777-.014c-21.034-.359-40.78-7.75-56.098-22.298-14.676-16.65-19.186-38.04-19.114-59.648v-3.462c0-3.755.008-7.51.016-11.265l.005-7.835c.003-6.159.01-12.317.021-18.476.012-7.705.018-15.41.023-23.115.01-13.733.03-27.466.049-41.199ZM472 308h53v45h46v41h-46c.062 14.153.062 14.153.16 28.305.048 5.778.092 11.555.111 17.334.015 4.662.05 9.324.097 13.985.015 1.773.023 3.545.024 5.318-.33 14.773-.33 14.773 6.02 27.684 5.213 4.693 10.456 5.762 17.275 5.749l2.14.004c5.253-.106 9.425-1.121 14.157-3.504C567 488 567 488 571 488c1.858 4.785 3.709 9.572 5.554 14.362.629 1.629 1.26 3.257 1.892 4.885.908 2.34 1.81 4.68 2.71 7.023l.862 2.206c1.142 2.985 1.982 5.3 1.982 8.524-22.172 11.552-46.507 15.215-70.87 7.736-16.35-5.651-27.293-14.634-35.345-30.064-6.286-13.949-6.213-29.725-6.078-44.707a3162.926 3162.926 0 0 1 .087-20.071c.031-4.955.044-9.91.06-14.865.031-9.676.084-19.353.146-29.029h-28v-41h28v-45Z"/><path fill="#FCFCFC" d="m92.574 455.707 3.182.013c3.31.017 6.62.054 9.931.092 2.263.016 4.525.03 6.788.042 5.508.032 11.017.082 16.525.146.06 3.223.097 6.445.129 9.668l.052 2.756c.05 6.703-.636 11.405-5.181 16.576l-1.469 1.867c-6.378 7.285-16.92 12.287-26.502 13.352-11.413.653-21.423-.158-30.591-7.656-3.783-3.39-5.197-6.578-5.81-11.614-.184-9.09 1.44-13.67 7.497-20.262 7.845-4.604 16.557-5.119 25.45-4.98Z"/></svg>