<svg xmlns="http://www.w3.org/2000/svg" width="122pt" height="122pt" viewBox="0 0 122 122"><path d="M117.297 61.11c0-30.747-25.156-55.672-56.188-55.672-31.035 0-56.191 24.925-56.191 55.671s25.156 55.668 56.191 55.668c31.032 0 56.188-24.922 56.188-55.668Zm0 0" style="stroke:none;fill-rule:nonzero;fill:#684971;fill-opacity:1"/><path d="M51.23 59.078c-9.792-3.45-14.687-8.668-14.687-15.66 0-5.516 2.598-9.926 7.789-13.223 5.195-3.3 11.645-4.949 19.348-4.949 7.008 0 12.574 1.145 16.699 3.434 4.125 2.289 6.191 5.035 6.191 8.238 0 1.672-.648 3.137-1.941 4.395-1.293 1.253-2.781 1.882-4.473 1.882-2.781 0-5.07-1.922-6.86-5.761-2.484-5.32-6.21-7.977-11.183-7.977-3.925 0-7.156 1.277-9.691 3.84-2.535 2.562-3.8 6.133-3.8 10.71 0 9.013 4.694 13.52 14.089 13.52.992 0 2.137-.101 3.43-.297 2.238-.296 3.976-.445 5.218-.445 3.032 0 4.547.863 4.547 2.586 0 1.922-1.539 2.883-4.62 2.883-1.095 0-2.735-.172-4.923-.52-1.64-.293-2.906-.441-3.8-.441-9.942 0-14.91 5.023-14.91 15.07 0 4.875 1.316 8.801 3.949 11.782 2.636 2.976 6.312 4.468 11.035 4.468 5.914 0 9.84-3.027 11.781-9.086.992-3.203 2.098-5.418 3.316-6.648 1.22-1.23 2.844-1.848 4.883-1.848 1.692 0 3.219.606 4.586 1.813 1.367 1.203 2.05 2.742 2.05 4.613 0 4.484-2.534 8.188-7.605 11.117-5.07 2.93-11.207 4.399-18.414 4.399-7.902 0-14.925-1.875-21.062-5.618-6.14-3.742-9.207-8.738-9.207-14.992 0-7.832 6.086-13.593 18.265-17.285Zm0 0" style="stroke:none;fill-rule:nonzero;fill:#fff;fill-opacity:1"/></svg>