<svg xmlns="http://www.w3.org/2000/svg" width="48" height="48" fill="none"><path fill="#8AB000" fill-rule="evenodd" d="m45.082 3.264-4.25 5.5Z" clip-rule="evenodd"/><path stroke="#769616" stroke-linecap="round" stroke-width="2.5" d="m45.082 3.264-4.25 5.5"/><path fill="#fff" fill-opacity=".298" fill-rule="evenodd" d="M45.06 2.011c.453.012.761.19.98.449-2.026 2.409-2.368 2.791-5.135 6.221-1.02 1.32-2.081.638-1.062-.681l4.25-5.5c.229-.306.585-.478.967-.489Z" clip-rule="evenodd"/><path fill="#263238" fill-opacity=".2" fill-rule="evenodd" d="M46.05 2.472c.123.148.56.805.022 1.557l-4.25 5.5c-1.02 1.319-1.15-.613-1.15-.613s3.734-4.51 5.377-6.444Z" clip-rule="evenodd"/><path fill="#8AB000" fill-rule="evenodd" d="M45.333 2.246c.438 0 .96.142.825.799-.104.501-4.661 6.074-4.661 6.074-1.02 1.32-2.494.676-1.474-.642l4.234-5.473c.26-.29.609-.744 1.076-.758ZM2.26 3.264l4.25 5.5Z" clip-rule="evenodd"/><path stroke="#769616" stroke-linecap="round" stroke-width="2.5" d="m2.26 3.264 4.25 5.5"/><path fill="#fff" fill-opacity=".298" fill-rule="evenodd" d="M2.283 2.011c-.454.012-.762.19-.981.449C3.329 4.869 3.67 5.25 6.437 8.68 7.457 10.001 8.52 9.32 7.5 8L3.25 2.5a1.239 1.239 0 0 0-.966-.489Z" clip-rule="evenodd"/><path fill="#263238" fill-opacity=".2" fill-rule="evenodd" d="M1.293 2.472a1.25 1.25 0 0 0-.022 1.557l4.25 5.5c1.02 1.319 1.15-.613 1.15-.613s-3.735-4.51-5.378-6.444Z" clip-rule="evenodd"/><path fill="#8AB000" fill-rule="evenodd" d="M2.01 2.246c-.44 0-.96.142-.825.799.103.501 4.66 6.074 4.66 6.074 1.02 1.32 2.494.676 1.475-.642L3.085 3.004c-.26-.29-.608-.744-1.076-.758Z" clip-rule="evenodd"/><path fill="#AEEA00" d="M39.671 6.764h-32a3 3 0 0 0-3 3v7a3 3 0 0 0 3 3h32a3 3 0 0 0 3-3v-7a3 3 0 0 0-3-3Z"/><path fill="#263238" fill-opacity=".2" d="M39.671 9.764h-32a3 3 0 0 0-3 3v4a3 3 0 0 0 3 3h32a3 3 0 0 0 3-3v-4a3 3 0 0 0-3-3Z"/><path fill="#fff" fill-opacity=".298" d="M39.671 6.764h-32a3 3 0 0 0-3 3v4a3 3 0 0 0 3 3h32a3 3 0 0 0 3-3v-4a3 3 0 0 0-3-3Z"/><path fill="#AEEA00" d="M39.671 7.764h-32c-1.657 0-3 1.137-3 2.538v5.924c0 1.402 1.343 2.538 3 2.538h32c1.657 0 3-1.136 3-2.538v-5.923c0-1.402-1.343-2.539-3-2.539Z"/><path fill="#1976D2" d="M39.671 20.764h-32a3 3 0 0 0-3 3v20a3 3 0 0 0 3 3h32a3 3 0 0 0 3-3v-20a3 3 0 0 0-3-3Z"/><path fill="#263238" fill-opacity=".2" d="M39.671 33.764h-32a3 3 0 0 0-3 3v7a3 3 0 0 0 3 3h32a3 3 0 0 0 3-3v-7a3 3 0 0 0-3-3Z"/><path fill="#fff" fill-opacity=".2" d="M39.671 20.764h-32a3 3 0 0 0-3 3v7a3 3 0 0 0 3 3h32a3 3 0 0 0 3-3v-7a3 3 0 0 0-3-3Z"/><path fill="#1976D2" d="M39.671 21.764h-32c-1.657 0-3 1.24-3 2.77v18.46c0 1.53 1.343 2.77 3 2.77h32c1.657 0 3-1.24 3-2.77v-18.46c0-1.53-1.343-2.77-3-2.77Z"/><path fill="#0D47A1" d="M23.671 27.514c-2.88 0-5.32 1.985-6.033 4.65h3.213a3.215 3.215 0 0 1 2.82-1.65 3.228 3.228 0 0 1 3.25 3.25 3.228 3.228 0 0 1-3.25 3.25 3.219 3.219 0 0 1-2.93-1.85h-3.154c.643 2.766 3.132 4.85 6.084 4.85 3.434 0 6.25-2.816 6.25-6.25s-2.816-6.25-6.25-6.25Z"/><path stroke="#0D47A1" stroke-linecap="round" stroke-width="1.9" d="M23.671 43.314a9.55 9.55 0 1 0 0-19.1 9.55 9.55 0 0 0 0 19.1Z"/><path fill="#263238" fill-opacity=".2" d="M14.046 17.264c1.864 0 3.375-1.735 3.375-3.875 0-2.14-1.51-3.875-3.375-3.875-1.864 0-3.375 1.735-3.375 3.875 0 2.14 1.511 3.875 3.375 3.875Z"/><path fill="#fff" d="M14.046 17.264a3.375 3.375 0 1 0 0-6.75 3.375 3.375 0 0 0 0 6.75Z"/><path fill="#263238" fill-opacity=".2" d="M33.546 17.264c1.864 0 3.375-1.735 3.375-3.875 0-2.14-1.51-3.875-3.375-3.875-1.864 0-3.375 1.735-3.375 3.875 0 2.14 1.511 3.875 3.375 3.875Z"/><path fill="#fff" d="M33.546 17.264a3.375 3.375 0 1 0 0-6.75 3.375 3.375 0 0 0 0 6.75Z"/><path fill="url(#a)" fill-rule="evenodd" d="M2.285 2a1.25 1.25 0 0 0-1.012 2.03l3.603 4.664a2.993 2.993 0 0 0-.203 1.07v7c0 1.662 1.338 3 3 3h32c1.663 0 3-1.338 3-3v-7c0-.38-.077-.74-.205-1.074l3.602-4.66a1.25 1.25 0 1 0-1.978-1.53L40.66 6.942a2.987 2.987 0 0 0-.986-.178h-32c-.35 0-.678.07-.989.178L3.251 2.5a1.25 1.25 0 0 0-.966-.5Zm5.388 18.764c-.207 0-.41.021-.605.061a2.971 2.971 0 0 0-2.395 2.91v20.029c0 1.662 1.338 3 3 3h32c1.663 0 3-1.338 3-3V23.735a2.971 2.971 0 0 0-2.394-2.91 3.093 3.093 0 0 0-.606-.061h-32Z" clip-rule="evenodd"/><defs><radialGradient id="a" cx="0" cy="0" r="1" gradientTransform="matrix(0 44.7702 -48.0002 0 1.003 2.001)" gradientUnits="userSpaceOnUse"><stop stop-color="#fff" stop-opacity=".098"/><stop offset="1" stop-color="#fff" stop-opacity="0"/></radialGradient></defs></svg>