<svg xmlns="http://www.w3.org/2000/svg" viewBox="0 0 24 24" width="32" height="32" fill="none"><g clip-path="url(#a)"><path fill="url(#b)" fill-rule="evenodd" d="M13.94 6.9c.07.1.17.19.25.2l.1-.03a.8.8 0 0 0 .13-.53c-.01-.15.03-.17.11-.08v-.02l.03.05c.03.05.07.11.1.19.12.25.16.39.11.47v.08a.46.46 0 0 1-.06.22c0 .06-.07.15-.19.27a.72.72 0 0 1-.27.2.58.58 0 0 1-.24.07h-.1c-.1 0-.22-.03-.37-.08a1.96 1.96 0 0 1-.68-.55c-.52-.6-.76-.69-1.42-.55a2.1 2.1 0 0 1-.54.05 4.42 4.42 0 0 0-1.5-.53l-.48-.06.3-.08-.06-.02h.12c.2-.06.51-.09.7-.07.14.02.26.02.31.02a.67.67 0 0 0-.07-.1 2.75 2.75 0 0 0-.7-.3 2.9 2.9 0 0 0-1.34.3c-.05.04-.12.07-.15.04-.09-.08.52-.63.89-.79a2.12 2.12 0 0 1 2 .28l.1.08.1.03-.07-.12a2.2 2.2 0 0 0-1.03-.79 3.26 3.26 0 0 0-1.87.32l-.1.06.01-.03h-.03c0-.01.03-.16.09-.33.18-.52.4-.75 1.04-1.13.14-.08.14-.1.02-.34-.18-.33-.6-.57-1.16-.66H8a22.22 22.22 0 0 0-.74-.05c-.32.08-2 .04-2.43-.06a2.2 2.2 0 0 1-1.58-1.44c-.2-.47-.16-.48.2-.08.19.2.5.45.7.57.34.2.46.22 1.35.25.43.01.68.02.81.05a14.55 14.55 0 0 0 1.29-.11c0-.14-.65-.33-1.14-.33-.8 0-1.3-.25-1.56-.75L4.78.46l.28.2c.39.3.48.32 1.62.38.72.05 1.17.11 1.46.22.23.1.42.13.42.1a.1.1 0 0 0-.01-.05 3 3 0 0 1-.04-.05 2.1 2.1 0 0 0-.87-.5C7.17.62 6.88.41 6.88.18L6.86.13l.02.02c0-.09.04-.07.18.06.13.12.67.29 1.05.35a.78.78 0 0 1 .27 0 .1.1 0 0 1 .06-.01h.1c.19 0 .52.16.75.39.04.03.07.05.07.07l.03.04.13.14.15.16-.1-.6.32.3a3.26 3.26 0 0 0 .9.67 7.48 7.48 0 0 0 1.4.3l.12-.02a3.87 3.87 0 0 1 .3.03 1.5 1.5 0 0 1 .84.42 1 1 0 0 1 .23.26l.1.13.1.09.04.04.12.05.15.08.23.01.25.01a2.87 2.87 0 0 0 .3-.08c.23-.12.65-.19.9-.12.04 0 .08.02.1.03a.6.6 0 0 1 .28.08c.07.04.12.08.14.11a.86.86 0 0 1 .06.06c.05.02.1.07.13.13.2.2.25.57.15.96-.04.13-.07.22-.11.29a2.35 2.35 0 0 1-.1.25c-.02.03-.03.04-.05.04-.05 0-.05-.08-.02-.18l.02-.06a1.7 1.7 0 0 0-.05-.41.53.53 0 0 0-.07-.12.19.19 0 0 0-.13-.01.3.3 0 0 0-.15.07l-.11.15-.07.15-.1.19-.05-.18c-.03-.1-.07-.15-.13-.15a.87.87 0 0 0-.2.09c-.08.04-.17.08-.26.1a9.98 9.98 0 0 1-.07.02l-.06.01a.98.98 0 0 1-.66.05 6.5 6.5 0 0 0-.66-.15c-.46-.05-.9-.06-1.18-.02l-.18.07-.04.02c-.3.1-.44.15-.48.25-.03.1.04.23.17.5l.01.02c.14.28.37.66.5.85l.16.24.17.15.26.25h.14c.12.02.2.01.26-.02l.07-.07.13-.14.02-.02c.02-.04.03-.06.05-.05l.08-.09v.2a4.1 4.1 0 0 1 .1.32Zm-1.32-4.08c.44.16.52.25.28.32l-.2.07-.07.02c-.07.03-.17 0-.26-.1a2.04 2.04 0 0 0-.54-.32c-.21-.1-.39-.2-.39-.21 0-.07.78.06 1.18.22Z" clip-rule="evenodd"/><path fill="url(#c)" d="m4.1 13.05.1.09c.22.23.66.56.95.73l.47.31c.04.04.06.08.06.1v.1c0 .05.07.1.16.1.13 0 .16-.06.16-.28v-.06a3.42 3.42 0 0 0 0-.42v-.05c.05-.02.07-.08.08-.21a1.93 1.93 0 0 0 0-.26 4.77 4.77 0 0 0 0-.41v-.63h-.54a.75.75 0 0 1-.04-.13 37.88 37.88 0 0 0-.3-2.33l-.03-.26h-.04a.13.13 0 0 0-.08-.08A.17.17 0 0 0 5 9.3l-.03-.02c-.09 0-.1-.12-.08-.58A3.37 3.37 0 0 1 7 5.9c.2-.08.34-.14.43-.2.13-.05.17-.1.18-.2l.04-.2a5.75 5.75 0 0 1 .23-.88 3.3 3.3 0 0 1 .27-.46l.02-.03.17-.2.18-.2c.02 0 .03-.02.05-.03.11-.07.1-.13.16-.2l-.12-.02a1.93 1.93 0 0 0-.2-.06 6.47 6.47 0 0 0-1.92-.23c-.13-.02-.3-.02-.52-.02h-.48.01c-.12.01-.08.03.07.09a3.77 3.77 0 0 1 1.02.68c.1.13.02.12-.26-.02a8.01 8.01 0 0 0-1.74-.44c-.05 0-.1.01-.13.03a2.58 2.58 0 0 0-.74 0 3.9 3.9 0 0 0-1.45.63c-.08.1 0 .1.4.1.44.02 1.26.26 1.26.4 0 0-.25.03-.55.03-1.08 0-1.74.27-2.43 1-.48.49-.6.7-.28.49.28-.18 1-.29 1.42-.22l.36.06-.44.26A3.2 3.2 0 0 0 .52 8c-.06.2-.06.2.23-.06.32-.28.67-.48 1.03-.59l.24-.06-.16.17c-.24.28-.48.7-.7 1.3-.18.46-.22.7-.23 1.32-.02 1.22.17 1.91.3 1.17.06-.31.51-1.25.6-1.25.03 0 .07.15.07.34.02.44.08.7.28 1.34.25.82.62 1.36 1.2 1.82l.36.26c.01 0 .02-.1.02-.24a.7.7 0 0 0 0-.1v-.22c0-.16 0-.3.02-.38.04-.02.12.04.3.2v.01l.02.02Z"/><path fill="url(#d)" d="M5.1 15.94a3.72 3.72 0 0 1-.85-1.84c-.08-.4-.03-.43.2-.12.1.12.39.37.66.56l.45.32.08-.08v-.01l.03-.06v-.05c.01-.05.07-.1.13-.1s.09.04.1.2a.74.74 0 0 1 .02.2V15a2.16 2.16 0 0 1 0 .13 15.1 15.1 0 0 1 0 .49c-.01.2-.03.27-.08.3a2.65 2.65 0 0 1 0 .21 3.16 3.16 0 0 1 0 .2c0 .26-.02.32-.16.32-.1 0-.16-.06-.16-.14a1.17 1.17 0 0 1 0-.04.79.79 0 0 0-.12-.22v.02l-.3-.32Z"/><path fill="url(#e)" fill-rule="evenodd" d="m15.04 6.3.18.08.03.02.04.01c.33.18.54.43.77.85l.18.3c.16.27.32.55.38.62.08.08.12.13.14.13.16.17.31.3.46.38.13.07.57.19.97.27.4.08.86.2 1.01.27l.16.07.04.01c.13.1.17.18.14.28-.05.22.16.41.45.41.21 0 .25-.03.25-.2 0-.08.03-.15.09-.2.12 0 .23.01.3.03l.01.11c0 .13.02.26.06.28.02.04.22.06.44.06a2.8 2.8 0 0 0 .18 0c.2 0 .28-.04.28-.12a.12.12 0 0 0-.12-.12c-.16 0-.56-.4-.63-.62a.44.44 0 0 0-.02-.05c0-.03-.03-.07-.05-.13a.47.47 0 0 0-.09-.1c.01-.03-.02-.07-.09-.14-.07-.08-.26-.2-.4-.24a.72.72 0 0 1-.19-.08c-.16-.12-.06-.27.31-.42l.22-.12a6.8 6.8 0 0 1 .85.06l.1.06c.33.12.4.12.25-.04-.1-.09-.12-.12-.07-.17l.02-.01h.01a.62.62 0 0 0 .08-.06c.11-.06.14-.09.06-.09-.01-.06-.14-.1-.38-.08-.23 0-.55-.06-.8-.16a2.58 2.58 0 0 0-.62-.17c-.16 0-.2-.04-.2-.2 0-.25-.28-.28-.34-.04l-.01.04c-.06.06-.18.14-.31.22-.3.19-.7.54-.6.54.02 0 .2-.07.39-.16.18-.08.34-.13.45-.15l.04.01.1.02c0 .05-.02.08-.04.11a3.8 3.8 0 0 1-1.46.3c-.35-.04-.53-.17-.74-.58a1.2 1.2 0 0 0-.06-.12l-.02-.04a2.96 2.96 0 0 0-.42-.86v-.01l-.01-.01a2.7 2.7 0 0 0-.42-.46h-.01a1.38 1.38 0 0 0-.4-.24.35.35 0 0 0-.16-.08c-.2-.05-.3-.06-.35-.01h-.15c-.01-.03-.04-.04-.06-.04h-.1a.83.83 0 0 0-.34.05h-.03l-.42.05a1.14 1.14 0 0 0-.23-.08c-.19-.05-.52-.2-.72-.34-.36-.22-.38-.22-.3-.06.34.64.78.94 1.52 1.06.13.02.28.06.4.1Zm1.04 1.76c0 .3.2.7.44.88.1.08.17.12.25.14l.15.06a.5.5 0 0 0 .18.05c.1.04.13.08.1.08h-.02l-.22.01-.44.02.06.01c-.02.01 0 .02.05.02l.09.03c0 .04.1.07.24.08l.11.03c.04.03.11.05.22.05.16 0 .22-.02.21-.09v-.05c-.01-.1.04-.15.26-.16.24-.03.23-.05-.2-.16a.14.14 0 0 0-.08-.02l-.04-.01a2.46 2.46 0 0 1-.42-.16 2.74 2.74 0 0 1-.79-.75c-.13-.22-.15-.22-.15-.06Zm5.5.92.1.1a.3.3 0 0 1 .08.08l.01.01.02.01a.47.47 0 0 1 .05.04.33.33 0 0 0 .15.06h.03c.08 0 .14.06.14.16 0 .09-.03.16-.08.16-.04 0-.08.06-.08.12s-.07.12-.16.12c-.11 0-.16-.06-.16-.18v-.11a.72.72 0 0 1-.08-.14 3.03 3.03 0 0 1-.19-.3 5.75 5.75 0 0 1-.61-.69c0-.05.53.33.78.56Zm-2.82.41-.24-.11.25.02h.15c.17.01.26.03.3.08a.1.1 0 0 1 .04.04v.08c.03.14-.01.18-.13.18-.1 0-.17-.05-.17-.12a.17.17 0 0 0-.04-.1 1.7 1.7 0 0 1-.16-.07Zm1.16.33c0-.06-.03-.12-.08-.12-.04 0-.08.06-.08.12s.04.12.08.12c.05 0 .08-.06.08-.12Z" clip-rule="evenodd"/><path fill="#fff" d="M8.32 21.2c-.87-.05-.82-.12.2-.23.38-.05.72-.1.74-.12.02-.03-.16-.1-.4-.16a11.4 11.4 0 0 0-2.64-.43l-.94-.04v-.35c0-.44.13-2.06.28-3.55.14-1.36.28-3.29.28-3.66 0-.24-.02-.26-.28-.26-.15 0-.28-.03-.28-.07 0-.1-.32-2.49-.37-2.79l-.05-.26h.98v.28c0 .28 0 .28.36.28s.36 0 .36-.28v-.28H7.6v.28c0 .2.03.28.14.28.12 0 .12-.15.08-1.68-.05-1.65-.05-1.68.1-1.68.3 0 .72.23 1.05.56.17.18.37.32.42.32.07 0 .27-.07.46-.16.48-.22.66-.2 1.07.08.37.26.6.3.85.16.21-.12.2.04-.03.2-.23.15-.39.15-.86-.02-.38-.13-.38-.13-.7.08-.48.33-.72.34-1.42.07a8.96 8.96 0 0 0-.65-.25c-.01 0-.03.53-.03 1.17 0 .9.02 1.16.1 1.13.05-.02.1-.15.12-.3l.03-.25.5.03c.48.02.49.02.49.26 0 .22.02.24.34.26l.34.03v-.57h.52c.36 0 .52.03.52.1 0 .25-.4 2.94-.44 3.01-.02.05-.14.09-.26.09-.22 0-.22 0-.2.52.04.5.04.52.25.52.19 0 .22-.03.21-.22 0-.2.02-.22.36-.22.34 0 .36.02.38.22.03.16.08.22.21.22.14 0 .18-.05.17-.22 0-.2.02-.22.36-.22.34 0 .36.02.38.22.03.16.08.22.21.22.14 0 .18-.05.17-.22 0-.2.02-.22.36-.22.34 0 .36.02.38.22.03.17.08.22.22.22s.2-.05.22-.22c.02-.2.05-.22.36-.24.33-.03.34-.02.34.21 0 .21.03.25.2.25.14 0 .2-.05.22-.22.02-.2.05-.22.36-.24.33-.03.34-.02.34.21 0 .21.03.25.2.25.14 0 .2-.05.22-.22.02-.2.04-.22.38-.22s.36.02.36.22c0 .19.02.22.22.22.22 0 .22 0 .22-.52 0-.49 0-.52-.18-.52a.66.66 0 0 1-.28-.06 6.3 6.3 0 0 1-.26-1.34c-.09-.7-.18-1.4-.22-1.54l-.04-.27.5.03.52.02.02.26c.03.25.04.26.39.26.35 0 .35 0 .35-.28v-.28h.47c.49 0 .57.06.57.4 0 .09.05.16.11.16.19 0 .23-.6.19-2.06-.04-1.25-.04-1.3.12-1.3.23 0 .62.22 1 .57.39.36.47.37.9.15.43-.22.63-.2 1.07.09.3.2.43.24.65.2.33-.05.36.04.08.19-.17.09-.26.1-.54 0-.64-.18-.7-.18-.85-.05a1.7 1.7 0 0 1-.51.24c-.36.11-.4.1-.92-.12-.62-.26-.78-.28-.85-.1a9.83 9.83 0 0 0 0 1.94c.06.3.22.29.25-.01.03-.21.05-.22.47-.22.29 0 .44.03.45.1l.01.22c.01.09.12.13.38.14.35.03.37.01.43-.2a.6.6 0 0 1 .14-.28c.1-.06.86-.08.86-.03 0 .16-.42 3.05-.45 3.1-.02.04-.15.07-.29.07-.23 0-.24.02-.2.26.03.14.1.95.14 1.78l.15 2.56c.07 1.17.08 1.16-.6 1.82a9.53 9.53 0 0 1-2.92 1.42 7.8 7.8 0 0 1-2.13.37c-.03-.03.05-.12.16-.22.28-.21.3-.57.02-.83-.16-.16-.27-.2-.62-.2h-.44l-.04-.94c-.04-1.01-.1-1.25-.52-1.64a1.76 1.76 0 0 0-2.32-.04c-.4.37-.5.7-.5 1.7v.92h-.4c-.69 0-1.07.33-.93.78.03.1.27.33.53.55.26.21.47.41.47.45.01.07-2.32.05-3.51-.02Z"/><path fill="#fff" d="M11.66 20.69c-.34-.3-.62-.57-.62-.61 0-.05.07-.15.16-.24.15-.15.26-.16 2.58-.16 2.07 0 2.45.02 2.6.13.26.17.21.35-.19.69-.5.42-1.18.56-3 .67l-.91.05-.62-.53Z"/><path fill="url(#f)" d="m22.2 16.18.05.07c.21.1.74 1.66.86 2.57.35 2.5-1.25 4.13-4.59 4.66a21.9 21.9 0 0 1-2.3.2.37.37 0 0 1-.17-.03h-1.23c-.03.02-.08.03-.16.02h-.12a2.7 2.7 0 0 1-.72-.04.2.2 0 0 1-.08-.05l-.21-.01a.4.4 0 0 1-.21.02.4.4 0 0 1-.07 0h-.15c-.14 0-.32-.02-.4-.05a.2.2 0 0 1-.08-.03l-.08-.01a.45.45 0 0 1-.18 0h-.09a.92.92 0 0 1-.48-.08h-.02a.28.28 0 0 1-.13 0h-.09a116.11 116.11 0 0 1-1.41-.2c-.17-.01-.35-.04-.54-.07a16.21 16.21 0 0 1-1.62-.28.46.46 0 0 1-.26-.03 6.5 6.5 0 0 0-.78-.18 9.37 9.37 0 0 1-.16-.04.78.78 0 0 1-.41-.07 1.3 1.3 0 0 1-.23-.05.31.31 0 0 1-.1-.04h-.03c-.14-.03-.2-.03-.24.02v.03l.02.07c.02.08.04.14.04.19.03.04.05.1.07.15l.04.13a4.01 4.01 0 0 0 .33.55 1.08 1.08 0 0 1 .13.12l.08.08c.22.23.2.23-.14.08a11.1 11.1 0 0 1-1.02-.48v.03l-.34-.15-.21-.12-.03-.01a58.46 58.46 0 0 0-.94-.47c-.26-.14-.6-.38-.76-.51l-.28-.24h.02a4.56 4.56 0 0 1-.18-.19v.05l-.27-.31a8.1 8.1 0 0 1-1.37-2.4c0-.02.22.08.5.23a8.28 8.28 0 0 0 3.13.93h.03c.68 0 1 0 1.7.04 1 .06 3.36.56 2.76.6-.8.05-1.48.16-1.48.25v.04a4.67 4.67 0 0 1-.2-.05l-.13.01a5.06 5.06 0 0 1-.87.13 4.33 4.33 0 0 0-.18.06l-.14.05s0 .02.02.02l.12.03.1.02h.02l.23.01a.48.48 0 0 1 .22 0 .7.7 0 0 1 .23.02c.09 0 .16.02.22.05h.18l.18.02a.49.49 0 0 1 .27-.01h.17a.58.58 0 0 1 .22 0h.09a.83.83 0 0 1 .43.06l.88.04a.6.6 0 0 1 .24-.03c.15 0 .27 0 .37.03a12.27 12.27 0 0 1 1.28-.02c.54 0 .81 0 .95.03.57-.02 1.08-.12 1.64-.12.02 0 .04.01.05.03l.4-.05 1.09-.14c2.54-.29 4.57-.98 5.74-1.93.45-.35.5-.42.4-.52l-.01-.01-.01-.01a.41.41 0 0 1-.05-.03.6.6 0 0 1-.12-.03.26.26 0 0 1-.12.05h-.01c.08-.06.2-.18.36-.37l.3-.33-.06-.7-.04-.65-.04-.6c-.03-.24-.02-.73-.02-.45 0 .06.09.24.2.4Z"/></g><defs><linearGradient id="b" x1="16.78" x2="6.79" y1="4.05" y2="2.31" gradientUnits="userSpaceOnUse"><stop stop-color="#F08A2C"/><stop offset="1" stop-color="#EB2226"/></linearGradient><linearGradient id="e" x1="22.16" x2="13.5" y1="9.77" y2="5.51" gradientUnits="userSpaceOnUse"><stop stop-color="#F8F056"/><stop offset="1" stop-color="#DF5143"/></linearGradient><linearGradient id="f" x1=".96" x2="23.16" y1="19.48" y2="19.83" gradientUnits="userSpaceOnUse"><stop stop-color="#EB2226"/><stop offset=".39" stop-color="#F08A2C"/><stop offset="1" stop-color="#EB2226"/></linearGradient><radialGradient id="c" cx="0" cy="0" r="1" gradientTransform="matrix(-3.1159 7.15582 -4.30824 -1.87596 7.41 5.3)" gradientUnits="userSpaceOnUse"><stop stop-color="#F08A2C"/><stop offset="1" stop-color="#EB2226"/></radialGradient><radialGradient id="d" cx="0" cy="0" r="1" gradientTransform="matrix(-3.1159 7.15582 -4.30824 -1.87596 7.41 5.3)" gradientUnits="userSpaceOnUse"><stop stop-color="#F08A2C"/><stop offset="1" stop-color="#EB2226"/></radialGradient><clipPath id="a"><path fill="#fff" d="M0 0h24v24H0z"/></clipPath></defs></svg>
