<svg xmlns="http://www.w3.org/2000/svg" viewBox="0 0 70 92" width="32" height="40" version="1.0"><path d="M0 44.9h70V92H0z" style="opacity:1;fill:#0093dd;fill-opacity:1;fill-rule:nonzero;stroke:none;stroke-width:2.5;stroke-miterlimit:4;stroke-dasharray:none;stroke-dashoffset:0;stroke-opacity:1"/><path d="M4.74 25.469h15.009v19.485H4.74zM50.118 25.695h15.185v19.24H50.118z" style="opacity:1;fill:#0093dd;fill-opacity:1;fill-rule:nonzero;stroke:none;stroke-width:2.5;stroke-miterlimit:4;stroke-dasharray:none;stroke-dashoffset:0;stroke-opacity:1"/><path d="M35.625 0C13.156.162 4.75 20.998 4.75 25.563c6.147 0 12.812.343 14.219.343h.718c1.679-6.87 7.866-11.968 15.25-11.968 7.353 0 13.508 5.05 15.22 11.874h.968c12.64 0 14.125.094 14.125.094S60.201-.176 35.625 0z" style="opacity:1;fill:#0093dd;fill-opacity:1;fill-rule:evenodd;stroke:none;stroke-width:1px;stroke-linecap:butt;stroke-linejoin:miter;stroke-opacity:1"/><path d="M10.27 25.206C21.69 1.917 37.7 5.157 46.957 6.592c0 0-12.173-5.83-23.874-.082-11.475 5.637-12.815 18.696-12.815 18.696zM-.25 68.25s7.789-8.701 14.063-11c8.187-3 18.187-2.063 34.75-5.375 5.862-1.173 7.687-2.625 16.624-7.25.755-.39 5.376-.313 5.376-.313l-.376 6.25C60 61.25 36.75 67.22 34.813 67.126c19.667 2.638 30.165-7.557 34.437-8.188C59.312 80.064 24.062 79 24.062 79c20.438 5.563 37.063-2.75 37.063-2.75-9.313 15.406-43.688 13.313-43.688 13.313-3.593.312-6.5 2.624-6.5 2.624L-.124 92.5-.25 68.25z" style="fill:#fff;fill-rule:evenodd;stroke:none;stroke-width:.1;stroke-linecap:butt;stroke-linejoin:miter;stroke-opacity:1;stroke-miterlimit:4;stroke-dasharray:none;fill-opacity:1"/></svg>
