<svg xmlns="http://www.w3.org/2000/svg" viewBox="0 0 24 24" width="32" height="32" fill="none"><g clip-path="url(#a)"><path fill="#a9c939" d="M11.389 2.087C8.878 2.652 7.622 6 7.622 12.13c0 6.12 1.256 9.38 3.767 9.783V24h-.343c-1.402 0-2.685-.31-3.848-.93a9.343 9.343 0 0 1-2.983-2.56c-1.761-2.293-2.642-5.102-2.642-8.429 0-3.304.903-6.103 2.707-8.396C5.454 2.185 6.9 1.13 8.617.522A8.957 8.957 0 0 1 11.389 0v2.087ZM12.839 0c1.446.141 2.81.63 4.093 1.467.24.153.435.229.587.229.25 0 .544-.397.88-1.19h1.468v8.478H18.66c-.25-.294-.538-.897-.864-1.81a28.091 28.091 0 0 0-.848-2.152 5.752 5.752 0 0 0-.88-1.419c-.826-.967-1.902-1.473-3.228-1.516V0Zm0 21.913c.881-.087 1.5-.418 1.86-.994.369-.588.554-1.31.554-2.169a37.4 37.4 0 0 0-.05-2.12 4.6 4.6 0 0 0-.293-1.5c-.391-.978-1.206-1.467-2.445-1.467v-1.272h9.962a35.182 35.182 0 0 1-.294 1.337c-.587.261-.978.598-1.174 1.011-.195.402-.293.897-.293 1.484v1.973c0 3.25-1.609 5.098-4.826 5.543-.946.13-1.946.217-3 .261v-2.087Z"/></g><defs><clipPath id="a"><path fill="#fff" d="M0 0h24v24H0z"/></clipPath></defs></svg>
