<svg xmlns="http://www.w3.org/2000/svg" viewBox="0 0 516 550"><path fill="#F0482D" d="M236 5c1.172 2.289 2.338 4.581 3.5 6.875l1.116 2.176c1.889 3.74 3.624 7.45 5.064 11.386C251.953 42.172 264.763 52.56 278 64c3.363-1.243 6.166-2.639 9.08-4.721l2.329-1.648 2.478-1.768c1.76-1.23 3.521-2.458 5.283-3.685 2.763-1.93 5.52-3.867 8.26-5.828a661.007 661.007 0 0 1 8.02-5.612l2.447-1.786c5.22-3.557 8.595-4.527 14.857-3.441L333 36l3.104.506c21.306 4.553 21.306 4.553 27.345 13.03L365 52c3.582 5.457 8.669 8.221 14.125 11.563 1.985 1.239 3.97 2.48 5.953 3.722l3.01 1.88c4.306 2.713 8.553 5.51 12.787 8.335l2.137 1.416c17.967 12.007 17.967 12.007 19.433 19.276l.658 3.137.667 3.374 1.505 7.098c.773 3.722 1.537 7.445 2.29 11.171.734 3.603 1.499 7.198 2.267 10.794l.648 3.35c1.56 7.203 3.928 11.976 9.52 16.884l2 1 4-5c4.263.596 7.305 2.097 11.016 4.246l1.723.99c1.841 1.06 3.676 2.13 5.511 3.202l3.81 2.211c1.896 1.1 3.79 2.201 5.683 3.306a423.153 423.153 0 0 0 10.46 5.908c8.372 4.615 15.001 9.603 21.477 16.668 2.262 2.594 2.262 2.594 5.32 4.469a9547.99 9547.99 0 0 1-3.026 25.373c-.473 3.926-.943 7.853-1.405 11.78-.446 3.788-.9 7.575-1.362 11.36a970.313 970.313 0 0 0-.514 4.344 939.964 939.964 0 0 1-.732 6.063l-.417 3.492L503 256c-3.003 1.502-5.79 1.093-9.125 1.063l-3.883-.028L487 257c.332 7.683 1.748 13.922 4.695 20.996.725 1.877 1.446 3.755 2.164 5.635a321.122 321.122 0 0 0 3.466 8.666c7.348 17.659 7.348 17.659 3.883 26.471-1.652 3.427-3.499 6.718-5.404 10.01-2.12 3.786-4.047 7.644-5.959 11.539l-1.123 2.286-2.328 4.738c-2.03 4.114-4.093 8.212-6.156 12.31l-1.27 2.525-2.56 5.087c-13.594 26.917-13.594 26.917-26.853 53.999l-1.266 2.626c-3.393 7.13-6.514 14.282-8.606 21.905-1.61 4.904-4.315 6.89-8.613 9.52l-2.104 1.37a480.909 480.909 0 0 1-6.841 4.317c-1.581 1.01-3.161 2.02-4.74 3.033-13.202 8.416-26.652 16.417-40.252 24.17-4.249 2.437-8.462 4.932-12.674 7.432-4.3 2.387-7.648 2.498-12.506 2.54l-4.25.073c-2.223.035-4.445.064-6.668.078a489.59 489.59 0 0 0-6.457.1l-3.893.044c-6.921.995-11.455 4.95-16.435 9.717-4.733 4.463-9.608 8.663-14.68 12.743-2.618 2.017-2.618 2.017-4.848 4.457-5.019 4.16-11.656 5.03-17.85 6.496a1722.34 1722.34 0 0 1-15.193 3.703c-3.697.89-7.388 1.8-11.08 2.707-12.18 2.987-24.373 5.912-36.599 8.707-2.02-5.208-3.885-10.464-5.688-15.75l-.686-1.969C206.504 525.957 206 523.559 206 520l-1.922-.262A267.199 267.199 0 0 1 194 518l-2.338-.44c-11.012-2.164-19.495-4.604-28.076-12.199-3.135-2.69-6.477-5.123-9.774-7.611a15208.95 15208.95 0 0 0-21.563-16.5l-2.124-1.625-6.375-4.875-2.126-1.626-4.24-3.242c-3.591-2.747-7.183-5.492-10.775-8.237a7932.222 7932.222 0 0 1-22.25-17.063c-6.045-4.65-12.11-9.277-18.17-13.909-3.563-2.723-7.126-5.448-10.689-8.173l-2.095-1.602a42097.02 42097.02 0 0 1-17.874-13.673A963.639 963.639 0 0 0 26 400c.56-3.617 1.763-5.017 4.563-7.313l2.16-1.804L35 389a972.453 972.453 0 0 0 4.5-3.938L43 382c-4.542-3.72-9.293-7.089-14.092-10.465-6.757-4.784-6.757-4.784-7.42-8.086l-.374-3.292-.442-3.773-.46-4.162a3609.653 3609.653 0 0 1-1.848-16.249c-.465-4.146-.94-8.291-1.413-12.437-.794-6.968-1.582-13.937-2.365-20.907-.904-8.048-1.818-16.094-2.737-24.14-.884-7.744-1.763-15.488-2.64-23.233-.372-3.292-.746-6.585-1.122-9.877-.442-3.885-.88-7.77-1.315-11.657-.16-1.422-.32-2.844-.484-4.266-2.252-19.69-2.252-19.69.915-25.495l1.451-2.719 1.596-2.867 1.658-3.078A1093.24 1093.24 0 0 1 17 186c1.835-3.332 3.669-6.666 5.5-10l1.43-2.595c6.129-11.207 11.89-22.606 17.69-33.985 8.655-16.979 17.48-33.871 26.631-50.588 3.218-5.908 6.236-11.802 8.933-17.973 7.753-17.34 7.753-17.34 14.254-20.57 3.961-1.464 7.956-2.235 12.124-2.857 4.778-.846 9.329-2.597 13.92-4.14 3.08-.94 5.149-1.383 8.307-.605C128 44 128 44 129.344 45.578c3.494 3 9.123 2.273 13.527 2.078 6.72-.732 10.477-5.119 15.129-9.656 2.436-2.055 4.935-4.026 7.438-6l1.734-1.397c1.223-.983 2.457-1.95 3.7-2.906 2.207-1.718 2.207-1.718 4.449-3.845 9.69-8.355 20.935-10.492 33.117-13.415 2.12-.534 4.238-1.071 6.357-1.61 7.743-1.943 7.743-1.943 11.605-2.868l2.333-.564c2.462-.429 4.773-.463 7.267-.395Z"/><path fill="#C43F3D" d="M382.676 104.012c21.919 18.75 33.475 46.85 46.354 72.087.645 1.264 1.29 2.527 1.937 3.79 27.481 53.725 27.481 53.725 22.224 74.271-5.024 13.474-15.797 22.765-26.527 31.809-6.725 5.53-6.725 5.53-10.11 13.347-.423 6.04.964 9.317 4.848 13.872L423 315c4.268 5.999 5.995 10.561 5 18-3.604 13.903-13.34 27.566-25.727 35.042C393.023 373.29 381.823 379 371 379v36h-1V164h-65v97h-94v-97h-66v223c-1.53-3.059-2.302-5.006-3.063-8.188C138.411 366.79 131.454 355.168 123 346l-2.3-2.508c-5.158-5.379-10.665-9.885-16.677-14.273-19.604-14.387-30.467-31.11-35.398-54.969-2.53-19.52.597-38.106 4.375-57.25.339-1.812.676-3.625 1.012-5.438C79.168 184.531 89.72 158.976 109 139l1.602-1.68c10.88-10.322 24.177-14.068 38.761-13.797 8.512.469 16.176 3.492 24.068 6.51 4.151 1.562 8.359 2.948 12.569 4.342l2.229.758c7.68 2.59 14.347 3.05 22.396 3.054l3.121.038c6.168.011 11.893-.516 17.929-1.806 5.129-.924 8.906.333 13.387 2.643 7.796 3.626 16.768 2.957 24.813.375 7.382-3.093 13.004-8.165 17.148-14.996 1.262-3.153 1.497-6.2 1.914-9.566.825-4.094 1.25-6.194 4.481-8.898 3.781-1.741 7.568-2.93 11.582-3.977l2.878-.78c52.911-14.102 52.911-14.102 74.798 2.792Z"/><path fill="#FEFEFE" d="M145 164h66v97h94v-97h65v251h-65V312h-94v103h-66V164Z"/><path fill="#C43F3D" d="M211 312h94c.12 25.585.12 25.585.146 36.467.018 7.433.04 14.867.08 22.3.033 5.991.05 11.982.059 17.974.005 2.289.016 4.578.032 6.867.022 3.199.025 6.397.024 9.596l.032 2.886-.012 2.639.008 2.293c-.472 2.53-1.478 3.286-3.369 4.978a357.8 357.8 0 0 0-4.375 7.188c-5.04 8.275-10.904 15.649-17.141 23.044-2.029 2.417-4.004 4.875-5.984 7.33-3.648 4.45-7.37 8.83-11.125 13.188l-1.596 1.862c-8.947 10.328-19.122 21.48-33.447 22.7-8.448.364-15.66-.57-23.332-4.312l-2.766-1.32c-6.762-3.457-12.477-7.759-18.234-12.68l-2.238-1.797c-16.148-13.422-29.396-34.086-33.024-54.719L148 416l-3-1h66V312Z"/><path fill="#7D3257" d="M263.524 162.794c3.961.019 7.923.02 11.884.02l7.65.018 3.542.003 3.343.02 2.896.011c4.068.172 8.115.684 12.161 1.134v97h-94v-95c13.678-6.839 37.629-3.278 52.524-3.206Z"/><path fill="#7E3257" d="M211 312h94v103h-1l-1-32-7.438 4.563c-19.041 11.331-40.224 19.127-62.687 14.375C225.695 399.9 215.532 396.24 211 390c-.28-2.583-.38-4.92-.34-7.5l-.002-2.345c.003-2.504.025-5.007.049-7.51.004-1.546.008-3.092.01-4.638.015-5.731.057-11.463.095-17.195L211 312Z"/><path fill="#552A63" d="M276.836 208.066c5.934 5.303 8.788 9.99 9.539 17.871-.105 9.138-5.048 17.901-9.36 25.747-1.353 2.829-1.353 2.829-2.015 8.316h-64v-54c19.921-9.96 47.246-12.012 65.836 2.066Z"/><path fill="#FEFDFD" d="M275 80c7.447 5.3 13.486 12.086 16 21 1.157 9.802.178 19.13-5.648 27.316A74.785 74.785 0 0 1 280 134l-2.25 2.25c-8.565 5.45-17.706 7.209-27.75 5.75-8.825-2.882-16.71-8.179-21.34-16.371-4.07-8.823-5.628-18.485-2.601-27.934 4.559-9.711 10.859-16.75 20.886-20.847C256.45 74.21 266.34 75.32 275 80Z"/><path fill="#7D3155" d="M145 186v76c-26.637-4.843-26.637-4.843-34.625-15.063-3.392-5.75-3.397-11.463-2.375-17.937 1.221-3.964 2.934-7.411 5-11l1.61-2.813C119.292 207.453 134.217 186 145 186Z"/><path fill="#552A63" d="M230 313h54c-4.136 8.272-10.227 13.138-18 18l-1.887 1.184c-7.208 2.784-17.905 1.441-25.113-1.184-4.326-2.323-7.156-4.39-9-9v-9Z"/><path fill="#7C3056" d="M211 240c7.932 6.8 7.932 6.8 10.875 11.125l1.742 2.508C225 256 225 256 226 260h-15v-20Z"/></svg>
