<svg xmlns="http://www.w3.org/2000/svg" width="40" height="40" class="img-fluid" style="transform:none;transform-origin:50% 50%;cursor:move" viewBox="0 0 5120 5120"><g fill="#0F2D35" style="transform:none"><path d="M1745 4471c-27-3-71-18-97-34l-47-27h-230c-224 0-231-1-231-20s-7-20-202-21c-136-1-188-4-158-10 25-4 100-8 168-8 96-1 122-4 122-15 0-7-27-48-60-91s-63-90-66-104-12-42-19-61c-8-19-14-62-13-95 2-50-4-71-30-122-18-34-32-74-32-88 0-38 59-189 187-480 63-143 135-316 160-383 25-68 56-136 68-150 32-38 82-141 96-197 9-36 19-52 42-64 53-29 75-51 82-80 10-46 63-85 178-131 60-24 111-48 113-55 7-17-32-188-50-224-26-49-20-66 38-116 59-50 70-74 80-168 8-75 41-160 116-302 45-84 73-125 105-151 24-19 48-48 54-64 5-16 47-90 92-164 58-94 91-138 109-145 21-8 86-23 334-76 31-7 75 23 175 119 53 50 146 131 207 179 61 49 117 100 123 113 10 23 8 29-24 57-50 44-46 68 32 210 36 67 88 164 115 216l50 93-13 65c-11 56-11 76 4 146 9 45 25 93 35 107 13 17 62 42 157 81 121 48 145 62 194 110 114 111 130 137 131 212 0 56 2 60 53 114l52 55 1 97c1 105 15 150 133 440 111 270 202 609 202 749 0 73-24 133-109 270-29 46-52 88-52 93s37 9 83 10c119 1 169 10 157 29-8 13-65 16-383 20l-374 5-37 33-37 32-867-1c-477-1-889-5-917-8zm-322-243c126-9 157-14 157-26 0-8-10-74-21-147l-21-133-40 6c-28 3-43 1-49-9-6-11-28 6-92 69-76 76-87 83-118 80-34-3-34-3-37-61-3-53 0-61 28-94 17-19 29-37 27-39s-23 3-47 11c-23 8-62 15-86 15h-44v-48c0-44 2-49 30-59 17-6 30-18 30-27s13-18 35-22c65-12 37-25-40-18l-75 7v-36c0-31 4-36 40-51 23-9 69-16 105-16 71 0 85-15 41-43-38-26-67-81-65-124 2-28-5-50-24-78-17-24-27-53-27-75 0-30-8-18-61 90-71 146-149 333-149 358 0 9 14 46 30 80 19 40 30 80 30 107 0 26 6 47 15 55 8 7 15 23 15 37 0 48 62 131 129 175 52 32 60 33 284 16zm2666-114c40-41 51-61 61-110 8-32 19-70 26-84 9-19 10-37 2-71-9-39-14-45-32-42-19 4-21 10-17 55 2 28-2 69-8 90-11 35-15 38-47 38-21 0-72-19-134-50-55-27-102-50-105-50s-5 16-5 35c0 32-2 35-30 35-17 0-48-11-70-25s-42-25-45-25-5 28-5 63c0 34-7 89-15 122s-14 64-15 68c0 5 88 7 196 5l195-3 48-51zm16-536c-29-99-99-291-138-380l-24-53-17 35c-10 19-32 50-49 68-26 27-31 39-28 72 2 33-3 46-26 70-15 17-35 30-44 30-13 0-18 11-21 45l-3 45h92c91 0 92 0 122 33 17 17 31 35 31 39 0 9 122 99 127 94 3-3-7-47-22-98zm-2774-218c5 0 9-17 9-39s6-44 15-51c24-20 28-74 11-149-9-38-16-111-16-160v-91h40c33 0 40 3 40 20 0 13 7 20 20 20 16 0 20 7 20 35 0 25-4 35-15 35-13 0-15 7-9 38 9 48 9 48 38 28 17-10 47-16 87-16 53 0 60-2 49-15-7-8-27-15-46-15-61 0-73-33-55-156 6-42 4-56-11-74-23-29-38-84-38-142 0-47 1-48 31-48 24 0 51 16 113 67 44 37 95 80 111 95 23 21 31 24 33 13 2-8 12-15 23-15 16 0 13-8-22-52-55-69-69-105-69-173v-56l38 3c33 3 40 8 62 50l24 46 106 4c58 2 106 4 107 3 11-2-206-120-245-132-51-16-55-16-125 6-86 28-177 74-207 106-12 13-30 56-41 97s-32 90-49 113c-59 80-82 126-129 257-27 73-58 157-70 186l-21 52h28c23 0 38 14 87 78 50 65 61 73 63 55 2-13 8-23 13-23zm2469-252c0-4-8-8-18-8s-28-13-40-30c-18-23-22-43-22-98v-69l31-7c52-10 81-7 101 11 17 15 18 13 18-55v-70l-46-40-47-40-24 47c-14 25-31 53-39 62-8 8-14 34-14 57 0 39-2 42-27 42-21 0-34 9-51 35-18 28-19 35-7 35 10 0 15 10 15 33 0 25 9 42 35 67 31 30 35 40 35 84v50l50-49c28-27 50-53 50-57zm-1808-126c-29-26-52-51-52-55 0-13-41-69-47-63-3 2 7 22 21 43 28 40 34 91 14 111-9 9 2 12 53 12l64-1-53-47zm926-73 3-107-40-4c-32-3-41 0-44 14-4 13-15 18-41 18-20 0-36 4-36 9 0 14-143 26-148 12-2-6-18-11-36-11-17 0-86-18-151-40-69-23-121-36-123-30-2 5-17 10-33 10h-29v240l338-2 337-3 3-106zm262 101c0-5-9-10-20-10-16 0-20-7-20-32 1-35 19-68 39-68 6 0 11-7 11-15 0-11 11-15 40-15 24 0 40 5 40 12 0 6 48-39 106-100 100-105 109-112 145-112s39 2 39 29c0 16-18 58-41 96-22 37-38 69-36 72 6 5 76-79 152-180 41-54 55-67 78-67 27 0 28-2 25-42l-3-42-69-20c-52-15-71-17-74-8-2 8-30 12-80 12-123 1-262 43-262 81 0 22-8 27-90 60l-65 27-7 48c-8 65-9 167-2 232l7 52h43c24 0 44-4 44-10zm-1106-247-7-61-79-17c-44-9-82-15-84-12-3 2 34 39 81 82 48 42 89 75 91 72 2-2 1-31-2-64zm804-188c68-65 58-73-12-10-28 25-53 45-58 45-4 0-8 5-8 10 0 22 24 8 78-45zm-254 8c22-18 20-18-72-19-94-1-95 0-72 18 30 24 113 25 144 1zm145-121c33-26 12-35-38-15-35 14-41 20-41 45v29l28-20c15-11 38-29 51-39zm390-161c51-74 24-50-119 104l-65 69 83-73c45-40 91-85 101-100zm0-407c-30-32-88-62-111-57-12 3 8 18 55 42 39 21 74 39 76 40 3 0-6-11-20-25zm-1057-121c17-3 25-10 21-19-4-11-13-9-44 6-39 20-54 38-21 25 9-3 29-9 44-12zm203-38c93-11 91-10 87-55-3-28 0-40 9-40 7 0 10-2 7-5-5-5-74 18-133 44-11 5-35 15-52 23-21 8-33 20-33 32 0 15 5 17 33 13 17-3 55-9 82-12zm831-166c-101-199-108-206-283-263-78-25-157-46-177-46-54 0-66-8-66-46v-34h68l67-1-67-63c-60-55-68-66-68-99 0-36 1-37 39-37 40 0 46 4 184 120 59 49 147 107 147 96 0-2-27-21-60-42-49-32-60-44-60-66 0-21-21-48-96-120-53-51-104-94-115-96-20-4-105 16-211 49-83 26-117 56-163 142l-37 68 37-16c21-8 53-15 71-15 32 0 34 2 34 34 0 19-8 43-17 54-10 11-78 57-150 102-117 71-153 101-153 125 0 4 12-2 28-13 50-35 111-62 142-62 29 0 30 2 30 44 0 41-4 47-52 87-29 23-57 47-63 51-5 5 26-7 70-28 117-53 249-84 388-91l117-6v36c0 30-4 37-30 46-22 7-30 16-30 34 0 20-14 29-117 69l-118 47h158l157 1v-25c0-23 4-25 44-25 53 0 289 71 366 110 30 15 56 27 57 26s-30-67-71-147z"/><path d="M3310 2675v-55h34c54 0 66 8 66 46 0 19-4 34-10 34-5 0-10 7-10 15 0 11-11 15-40 15h-40v-55z"/></g><g fill="#818B8D" style="transform:none"><path d="M4020 4390c-52-4-11-7 133-8 132-1 207 2 207 8 0 11-212 11-340 0zm-2911-148c-67-44-129-127-129-175 0-14-7-30-15-37-9-8-15-29-15-55 0-27-11-67-30-107-17-34-33-77-36-94-7-39 38-156 151-394 45-96 106-238 134-315 84-227 91-243 143-312 26-37 51-78 54-92 22-95 37-132 66-156 67-57 221-115 302-115 64 1 131 28 261 107 55 33 129 75 164 92 34 18 61 34 60 35-4 3-41-1-199-23-41-6-104-11-139-11-54 0-62 2-51 14 6 8 36 20 67 26 46 10 54 15 50 30-3 11 3 26 14 36 13 12 19 31 19 61v43l-27-17c-42-27-152-162-184-225-33-66-49-80-49-43 0 43 24 86 113 200 84 108 86 110 59 113-14 2-28-1-30-7-5-14-62-15-62-1 0 6-8 10-18 10-21 0-52-29-52-48 0-7-9-12-19-12-11 0-26-6-33-13s-50-43-95-81c-88-72-94-71-72 7 5 21 34 64 65 98 29 34 54 65 54 70 0 14-34 10-58-7-33-23-29 3 8 54 16 23 30 53 30 67 0 22-4 25-35 25-19 0-35-4-35-10 0-5-6-10-13-10-43 0-83-44-110-120-3-8-6 12-8 45-1 33-4 48-6 33-2-16-9-28-14-28-15 0-10 115 7 192 20 86 15 179-10 207-17 18-16 22 4 91 12 40 24 79 27 86 3 8 1 14-4 14s-20-23-34-52c-29-62-38-41-10 25 23 53 15 63-13 16-11-18-23-28-32-25-16 6-36-14-107-107-35-47-53-63-55-52-4 19 42 92 114 181 26 32 51 65 57 72 20 25-24 12-51-16-71-72-87-75-35-4 16 22 20 32 11 32-10 0-13 10-10 35 4 32 7 35 38 35s34 3 34 30c0 24-7 34-40 52-39 23-58 48-21 28 27-14 51-13 51 4 0 16-30 26-77 26-22 0-36 6-43 19-5 11-26 25-45 32-22 8-35 20-35 31 0 24 9 23 134-17 60-19 123-35 140-35l31 1-25 17c-13 9-55 48-92 86-49 51-68 77-68 96 0 15 3 30 6 33 4 4 61-45 126-108 66-63 124-115 129-115s3 13-6 29c-17 35-11 65 12 53 8-5 20-19 26-32 16-32 35-36 41-8 13 68 63 414 60 416-1 2-18-1-37-7-26-9-67-9-154-2-65 6-154 11-199 11-71 0-85-3-125-28zm71-558c64-6 79-9 86-17 17-17-103-5-141 13-24 12-30 18-15 14 14-3 45-7 70-10zm391-731c-25-43-31-49-31-31 0 9 7 24 16 32 20 21 27 20 15-1zm2049 1213c0-19 7-65 16-103 11-48 14-89 9-140-8-88-6-89 88-34 37 22 67 36 67 32 0-11-50-55-98-86-23-15-40-30-38-33 13-13 159 37 276 94 73 35 134 64 136 64 9 0 26-81 21-102-6-23-129-148-212-215l-40-33 40 17c52 23 139 77 192 119 23 19 43 34 46 34s7-11 9-25c4-21-2-29-46-54-52-30-98-70-149-130-27-31-32-33-85-30-32 1-65 1-74 1-24-3-23-32 1-32 34 0 42-72 11-105l-20-22 26-27c15-14 24-29 20-33s-18 7-32 25c-21 26-29 30-44 22-10-5-26-7-34-4-32 12-14-15 37-57 130-106 162-150 174-236 6-45 5-47-12-33-10 8-29 32-43 54-28 46-111 136-123 136s-11-97 1-105c17-11 11-25-14-35-35-13-53-46-61-112-5-48-10-58-26-58-34 0-21-41 41-134 63-94 68-107 48-124-10-8-30 12-81 79-70 92-97 105-97 48 0-26-4-29-31-29h-30l21-30c32-44 10-36-40 15-25 25-50 43-57 41-7-3-30 15-51 39-31 35-46 45-71 45-26 0-31-4-31-23 0-26-35-46-115-67-53-13-55-13-55 10 0 13-7 20-20 20-17 0-19-7-19-69 0-42 5-73 12-79 7-5 39-19 72-32 72-28 85-37 85-60 0-37 140-79 263-80 81 0 95-8 50-28-48-20 61-5 152 21l80 23 6 54c9 82 15 94 73 144l54 46 4 97c4 90 9 108 57 228 132 323 158 400 230 673l41 153-18 37c-10 20-24 64-31 96-11 49-22 69-62 110l-48 51-225 3-226 3v-35zm164-1137c-15-16-29-27-32-25-7 8 41 65 50 60 5-4-3-19-18-35zm65-11c1 6 6 12 11 12 13 0-14-67-37-92-23-26-37-22-19 4 23 33 19 45-6 21-59-52-58-43 2 40 33 46 35 47 41 25 4-13 7-17 8-10z"/><path d="M3945 3824c-45-35-116-64-171-69-32-3-62-9-67-14-11-11 3-39 31-64 19-18 22-16 119 57 98 73 134 106 117 106-5 0-18-8-29-16zm-2524-754c-16-74-14-90 9-90 12 0 20 7 20 18 0 9 3 41 6 70 6 43 4 52-9 52-10 0-19-16-26-50zm735-75c-3-8-1-25 4-37 8-20 9-18 9 15 1 39-3 47-13 22zm-6-297c0-12 1-19 3-17 1 2 9 12 16 22 12 14 11 17-3 17-10 0-16-8-16-22zm880-122c0-2 41-46 91-97l90-94-6 43c-4 23-3 42 2 42 4 0 37-9 72-20 36-11 66-18 67-17s-8 14-19 28c-16 20-57 38-159 72-76 25-138 44-138 43zm270-102c0-2-11-4-25-4s-25 4-25 9c0 4 11 6 25 3 14-2 25-6 25-8zm231-85c-18-11-31-22-28-25 5-6 87 25 102 38 19 17-41 7-74-13zm-301-594c-48-50-147-98-299-144-73-23-140-41-147-41-33 0-9 31 46 61 33 17 60 36 60 41 0 6-8 7-17 3-128-49-166-56-297-54-72 1-137 4-144 7-23 8 7 31 36 28 15-2 19-1 10 1-10 2-18 9-18 14 0 13-68 11-72-2-2-7-38 0-103 20-55 17-112 31-127 31-25 0-28-3-28-35 0-19 5-35 11-35s27-7 47-16c81-36 99-43 162-64 111-36 280-104 280-111 0-8-18-4-225 54-232 66-235 66-235 57 0-11 115-51 329-115 101-29 186-57 190-61 3-4-35-4-84-1-183 13-353 74-598 216-60 34-111 60-115 57-7-8 149-154 258-242 92-75 108-109 33-70-43 21-135 84-216 146l-27 22 21-49c11-26 36-76 55-110 33-60 41-66 175-149 77-48 144-95 150-105 13-26 9-25-87 20-81 38-84 39-84 18 0-12 12-42 26-67s40-70 56-100c39-70 52-85 95-105 47-23 184-61 266-75l67-12 113 108c61 60 111 111 110 114s-4 12-7 20c-4 11 21 32 87 74 109 71 147 103 147 127 0 31-17 31-92-1-105-44-193-100-271-170-80-71-115-95-124-86-6 6 110 118 193 186 24 19 41 36 40 38-2 1-34-4-70-13-76-17-180-21-156-5 8 5 32 10 53 10s102 21 180 46c122 40 147 52 177 83 40 42 208 373 217 425 7 47-8 51-47 11z"/><path d="M2798 1749c-2-6-51-13-121-16-87-4-117-9-117-19 0-19 62-28 146-20 76 7 164 37 164 56 0 13-67 13-72-1z"/></g><g fill="#F3F3F3" style="transform:none"><path d="M4175 4390c19-8 193-14 184-6-2 2-49 6-104 9-59 3-92 2-80-3zm-2633-491c-19-23-21-32-12-49 6-11 15-20 19-20 8 0 26 89 19 95-2 1-13-10-26-26zm-81-48c-11-7-9-11 8-20 21-12 27-6 13 16-5 7-13 9-21 4zm-131-21c-19-3-30-8-25-12 12-7 105-20 105-14 0 14-50 31-80 26zm-157-32c4-12 1-14-14-11-33 9-21-5 37-44 41-27 54-42 51-55-3-10-1-16 3-13 5 3 11 1 14-4 4-5-5-11-20-13l-25-3 20-21 20-22-25-23c-27-25-33-76-9-76 8 0 12 3 10 7s15 19 38 34 62 44 86 66c38 33 43 41 32 54-8 10-22 14-35 10-21-5-131 47-121 58 3 3 29-1 58-9 28-7 59-12 67-10 26 7-62 40-117 45-35 3-53 9-53 18 0 7-5 16-12 20-7 5-9 2-5-8zm116-260c-28-28-30-34-14-36 10-3 27 8 41 25 43 52 23 61-27 11zm2401-8c0-6 7-13 15-16 22-9 18-23-5-17-11 3-20 1-20-5 0-5 11-13 25-16 14-4 25-13 25-21 0-25-21-28-44-6-21 20-56 21-56 1 0-11 60-92 87-117l23-23 21 21c20 20 20 22 3 40-21 23-8 25 18 2 17-15 19-15 37 1 25 23 32 61 19 119l-10 47h-69c-41 0-69-4-69-10zm25-146c11-17 13-25 4-22-16 5-44 48-31 48 5 0 17-12 27-26zm-33-126c-7-7-12-35-12-64 0-48-3-55-40-88-26-23-54-38-80-42-22-4-40-10-40-14 0-11 158-248 171-256 7-4 7 1-1 16-16 29-30 80-23 80 3 0 16-12 29-27l24-28-12 33c-10 27-10 34 1 41 7 5 9 11 4 14-13 8 0 91 17 112 7 8 24 21 39 28 32 15 38 49 16 84-9 14-15 34-12 44 3 13-6 28-29 49-40 35-37 33-52 18zm-2247-137c-7-27-21-107-31-176-4-22-11-43-18-47-6-4 3-8 20-8 22 0 37 7 47 23l16 22 1-25c1-23 2-24 14-7 8 10 23 19 35 20 11 0 18 3 16 6-3 2 5 12 17 23 28 24 37 14 12-14-10-12-14-18-7-15 6 4 13 1 16-5 5-16 51 23 75 64 19 33 77 50 155 45 45-2 63-9 83-28l25-25-30-41c-16-22-64-67-106-99-105-80-105-80-105-88 0-3 9-6 20-6 13 0 18-5 14-15-10-26 33-17 55 11 12 15 21 24 21 20s13 0 30 9c16 8 38 15 49 15 24 0 83 60 106 106 8 17 47 58 85 89 52 42 68 61 60 69-7 7-106 12-296 14l-285 3-44 43-43 44-7-27zm413-297c-9-9-21-13-28-9-14 9 5 25 30 25 12 0 12-3-2-16zm372 228c-6-2-10-72-10-179v-175l28 6c15 4 36 8 47 10s62 18 113 36c61 22 92 38 92 48 0 13 14 14 95 9 65-4 95-2 95 5 0 6 8 4 18-4 24-22 89-32 95-16 4 8 8 6 12-8 9-29 70-50 92-32 14 11 16 11 11-3-9-23 11-40 32-29 16 9 17 24 13 162-3 84-8 156-12 160-6 7-701 16-721 10zm-59-2c-1-3-5-86-8-185-4-156-3-178 9-165 12 12 13 45 8 185-4 94-8 168-9 165zm829-175c2-171 11-222 24-129 3 26 6 105 6 175 0 109-2 129-15 129-14 0-16-24-15-175zm65 102c-4-41-5-112-3-158l4-84 35 3c64 5 134 24 178 48 33 18 47 21 57 13 8-6 14-8 14-3 0 4 5 3 12-4s27-12 45-12c32 0 33-1 33-40 0-33 3-40 20-40 11 0 20 5 20 12 0 6 10 2 23-9 25-23 60-43 76-43 7 0 11 26 11 65v65l28-17c39-26-59 99-115 145l-43 35v-62c0-62 3-71 58-154 33-50 21-58-18-13-18 20-37 33-43 29-5-3-7-1-4 4 4 6-47 66-113 133-66 68-120 131-120 142 0 16-9 18-74 18h-74l-7-73zm153-16c11-6 10-10 0-19-11-8-17-6-26 9-10 15-10 19 0 19 7 0 19-4 26-9zm-1176-109c-45-43-82-84-82-93 0-8-16-30-35-49-21-20-35-44-35-58 0-26-11-27 138 4 63 13 82 21 82 34 0 9 5 65 11 124s9 109 7 111-40-31-86-73z"/><path d="M2668 2699c-10-5-18-14-18-19s37-35 83-67c106-74 130-96 257-223 96-95 187-197 248-274 12-16 25-26 28-23 4 3 1 34-5 69l-11 62-231 228c-127 126-239 229-248 229-9 1-21 1-27 0s-17 6-24 14c-14 17-28 18-52 4zm-506-218c-187-99-232-133-312-242-62-83-125-219-115-248 8-25 217-205 280-241s363-152 378-147c7 3 3 8-8 12-129 49-241 102-232 111 2 2 62-15 133-38 103-33 148-42 227-46 66-3 102-1 110 7s-16 11-90 11c-94 0-128 9-108 28 3 3 70 7 148 9 189 3 211 7 343 63 63 26 114 45 114 41 0-5-50-31-111-60s-109-54-106-57c18-18 342 140 380 186 14 17 29 47 32 68 4 20 13 59 22 85 8 27 13 51 10 53-3 3-23-18-45-48-22-29-50-63-64-75-13-13-118-66-232-119-236-109-222-106-456-84-318 31-526 98-603 192-47 59-51 77-28 136 14 35 17 52 9 60s4 28 41 71c61 70 144 138 251 203 127 78 236 158 215 157-11-1-93-40-183-88z"/><path d="M2366 2541c-11-12-24-21-30-21-13-1-55-37-76-65-11-14 73 38 129 81 1 2 1 8-1 14-2 7-11 3-22-9z"/></g><path fill="#485B5F" d="M4117 4393c18-2 50-2 70 0 21 2 7 4-32 4-38 0-55-2-38-4zm-2847-723c0-5-25-10-55-10-61 0-69-11-26-36 28-17 28-18 14-51-16-40-9-80 11-64 7 6 16 9 19 6 4-3 5-2 2 2s12 25 34 47c32 34 38 45 30 64-4 12-13 22-18 22-6 0-8 7-5 15 4 8 3 15 0 15s-6-4-6-10zm260-647c-26-10-102-65-97-70 3-2-8-17-24-33-27-25-30-34-27-77s5-48 27-48c13 0 27 7 32 15 4 8 17 35 29 60s37 62 56 83c19 20 34 46 34 57 0 21-4 22-30 13zm2061-31c20-51 150-197 171-190 30 10 14 41-66 125-86 90-123 114-105 65zm-386-53c-8-12 1-24 18-24 7 0 12-5 12-11s43-55 95-108c64-65 102-96 117-96s23 6 23 17c0 14 3 14 23-3l22-19-19 22c-10 13-23 20-27 17-5-3-9 2-9 11s-5 13-10 10c-6-4-9-3-8 2 2 5-7 21-19 37-13 16-23 25-23 20 0-4-17 8-37 27-57 53-129 109-141 109-6 0-14-5-17-11zm-801-113c-55-14-132-54-155-82-12-16-12-17 1-9 8 5 21 10 30 10 8 1 50 10 93 20 43 9 80 15 83 12s31 4 62 14c43 15 70 19 110 14 67-8 68 8 1 23-64 15-159 14-225-2zm-668-66c-67-73-81-96-64-106 6-4 25 9 45 32 19 21 52 58 73 81s36 44 33 47c-15 14-35 2-87-54zm994 47c0-8 12-18 26-21 48-12 44 14-3 29-17 4-23 2-23-8zm80-30c0-17 69-42 82-29 6 6-5 15-32 26-49 19-50 19-50 3zm-100-81c8-10 21-21 30-25 9-3 53-48 98-98 46-51 88-92 95-90 6 1 11-3 12-8 0-6 71-80 158-165 170-168 188-174 122-44-29 59-59 93-199 227-160 153-205 185-263 189-16 1-37 9-48 17-19 15-19 15-5-3z" style="transform:none"/><path fill="#E8D0AC" d="M2520 2631c-56-6-104-34-154-90-11-12-24-21-30-21-26 0-136-131-136-162 0-20 66-24 114-7 41 14 73 16 187 12 75-3 145-3 156 1 40 16-20 27-169 31-83 3-156 9-162 15-7 7-1 10 17 10 22 0 30 7 43 39 11 27 26 45 49 56 42 19 171 24 203 6 43-23 19-36-76-41-88-5-113-12-98-27 4-5 50-11 101-14 114-7 207-39 224-75 15-34 35-20 27 19-6 30-6 30 14 12 13-12 20-31 20-57 0-40 13-48 49-29 13 7 16 19 13 46-4 37-27 61-217 224-74 64-72 63-175 52zm-15-342-30-19h69c75 0 78 2 25 23-31 13-37 13-64-4z" style="transform:none"/></svg>
