<svg xmlns="http://www.w3.org/2000/svg" viewBox="0 0 24 24" width="32" height="32" fill="#fff">
  <path fill-rule="evenodd" d="M1.927 8h1.724a.073.073 0 0 1 .072.086l-1.269 7.743a.073.073 0 0 1-.068.062L.491 16H.487a.074.074 0 0 1-.072-.086l1.07-6.473C1.463 8.477.283 8.244.14 8.208-.016 8.168 0 8 0 8zm9.235.035A.072.072 0 0 0 11.101 8H9.24a.072.072 0 0 0-.063.039l-2.565 4.964-.874-4.943a.072.072 0 0 0-.07-.06H3.796a.071.071 0 0 0-.055.026.073.073 0 0 0-.016.06l1.387 7.434a.072.072 0 0 0 .074.059l2.161-.125a.071.071 0 0 0 .06-.04l3.757-7.307a.073.073 0 0 0-.002-.071zm5.792 1.568a1.937 1.937 0 0 0-.152-.593 1.502 1.502 0 0 0-.288-.43 1.86 1.86 0 0 0-.352-.285A2.354 2.354 0 0 0 15.114 8h-3.552a.07.07 0 0 0-.07.06l-1.146 7.015a.072.072 0 0 0 .017.06.069.069 0 0 0 .052.023h.004l1.786-.104a.07.07 0 0 0 .064-.06l.214-1.322h1.738a2.866 2.866 0 0 0 1.11-.292c.295-.147.582-.383.855-.701.275-.322.466-.78.569-1.36l.163-.941c.047-.29.06-.551.036-.775zm-2.06 1.677a.721.721 0 0 1-.313.471.568.568 0 0 1-.317.078h-1.49l.315-1.998H14.6c.13 0 .224.026.28.077a.501.501 0 0 1 .132.185.703.703 0 0 1 .032.273zM23.929 8h-1.807a.072.072 0 0 0-.07.063l-.644 4.091-1.395-4.104a.071.071 0 0 0-.067-.05H18.14a.072.072 0 0 0-.07.063l-1.103 7.007a.078.078 0 0 0 .017.063.069.069 0 0 0 .052.025l1.839-.111a.072.072 0 0 0 .066-.063l.46-2.957.974 2.875c.011.031.04.05.071.05l2.45-.149a.072.072 0 0 0 .066-.063l1.037-6.653a.078.078 0 0 0-.016-.06A.07.07 0 0 0 23.93 8z"/>
</svg>
