<svg xmlns="http://www.w3.org/2000/svg" xmlns:xlink="http://www.w3.org/1999/xlink" xmlns:v="https://vecta.io/nano" viewBox="0 0 87 87" width="87"  height="87" ><defs><linearGradient id="A" x1="43.5" y1="-4.581" x2="43.5" y2="82.419" xlink:href="#I"><stop offset="0" stop-color="#414141"/><stop offset=".196" stop-color="#3e3e3e"/><stop offset="1" stop-color="#3a3a3a"/></linearGradient><radialGradient id="B" cx="285.391" cy="113.082" fx="285.391" fy="113.082" r="148.024" gradientTransform="translate(-60.2432 -4.0121) scale(.3539)" xlink:href="#I"><stop offset=".673" stop-color="#fcfcfc" stop-opacity="0"/><stop offset="1" stop-color="#fcfcfc"/></radialGradient><radialGradient id="C" cx="291.352" cy="132.58" fx="291.352" fy="132.58" r="123.135" gradientTransform="matrix(0.3539,0,0,0.3539,-60.2432,-4.0121)" xlink:href="#I"><stop offset=".109" stop-color="#0f0f0d" stop-opacity="0"/><stop offset=".886" stop-color="#414141" stop-opacity="0"/><stop offset=".934" stop-color="#1e1e1d" stop-opacity=".684"/><stop offset=".987" stop-color="#0f0f0d"/></radialGradient><radialGradient id="D" cx="295.456" cy="58.748" fx="295.456" fy="58.748" r="239.169" gradientTransform="translate(-60.2432 4.7822) scale(.3539 .2026)" xlink:href="#I"><stop offset="0" stop-color="#2e6b26"/><stop offset="1" stop-color="#6ab536"/></radialGradient><radialGradient id="E" cx="293.666" cy="57.487" fx="293.666" fy="57.487" r="46.709" gradientTransform="translate(-60.2432 -4.0121) scale(.3539)" xlink:href="#I"><stop offset="0" stop-color="#6ab536"/><stop offset="1" stop-color="#2e6b26"/></radialGradient><radialGradient id="F" cx="301.784" cy="84.645" fx="301.784" fy="84.645" r="68.989" gradientTransform="translate(-57.8398 -21.4365) scale(.3356 .5572)" xlink:href="#I"><stop offset="0"/><stop offset=".784" stop-color="#4f4f4f" stop-opacity="0"/></radialGradient><radialGradient id="G" cx="292.672" cy="43.448" fx="292.672" fy="43.448" r="159.65" gradientTransform="translate(-60.2432 -4.0121) scale(.3539)" xlink:href="#I"><stop offset="0" stop-color="#f5f5f5"/><stop offset=".504" stop-color="#f2f2f2"/></radialGradient><path id="H" d="M43.5 87C19.514 87 0 67.486 0 43.5S19.514 0 43.5 0 87 19.514 87 43.5 67.486 87 43.5 87zm0-83.34C21.542 3.66 3.678 21.532 3.678 43.5S21.542 83.34 43.5 83.34 83.322 65.468 83.322 43.5 65.458 3.66 43.5 3.66z"/><linearGradient id="I" gradientUnits="userSpaceOnUse"/></defs><use xlink:href="#H" fill="url(#A)"/><path d="M43.5.017C19.523.017.017 19.523.017 43.5S19.523 86.983 43.5 86.983 86.983 67.477 86.983 43.5 67.477.017 43.5.017z" style="mix-blend-mode:lighten" fill="url(#B)" opacity=".32"/><use xlink:href="#H" fill="url(#C)" opacity=".44"/><path d="M43.5 3.893c-22.127 0-40.129 18.002-40.129 40.129S21.373 84.151 43.5 84.151s40.129-18.002 40.129-40.129S65.628 3.893 43.5 3.893z" fill="rgba(15,15,13,.35)"/><path d="M43.5 87C19.514 87 0 67.486 0 43.5S19.514 0 43.5 0 87 19.514 87 43.5 67.486 87 43.5 87zm0-86.069C19.514.931 0 20.185 0 43.852s19.514 42.921 43.5 42.921S87 67.519 87 43.852 67.486.931 43.5.931z" fill="#0f0f0d" opacity=".35"/><path d="M43.5 3.66C21.532 3.66 3.66 21.532 3.66 43.5S21.532 83.34 43.5 83.34 83.34 65.468 83.34 43.5 65.468 3.66 43.5 3.66z" fill="url(#D)"/><path d="M43.5 6.972c-6.543 0-11.867 5.323-11.867 11.867S36.957 30.706 43.5 30.706s11.867-5.323 11.867-11.867S50.043 6.972 43.5 6.972z" style="mix-blend-mode:lighten" fill="url(#E)" opacity=".7"/><path d="M22.562 9.475l-.006.041c-.052.01-.053-.003.006-.041zm30.084 25.572l-.551 9.844 6.502 7.083-6.502 7.083 4.298 4.682-4.298 4.682.551 9.764H34.354V35.046c-7.273-3.722-12.232-11.765-12.232-21.009 0-1.547.217-2.976.435-4.521.789-.149 13.548-5.496 13.548-5.496-.106.578 14.896.578 14.791 0 0 0 12.327 5.304 13.564 5.564.313 1.519.419 2.929.419 4.453 0 9.244-5.069 17.288-12.232 21.01zM64.438 9.475l.021.109c.135.028.14-.002-.021-.109z" style="mix-blend-mode:multiply" fill="url(#F)" opacity=".3"/><path d="M22.155 69.523c-7.07-6.149-11.546-15.212-11.546-25.355 0-11.802 6.172-22.696 16.338-28.779-.181 1.18-.363 2.27-.363 3.45 0 6.99 4.084 13.073 10.075 15.887v31.865l7.534 7.535 7.534-7.535-.454-6.627 3.54-3.541-3.54-3.541 5.355-5.356-5.355-5.356.454-7.444c5.9-2.814 10.075-8.897 10.075-15.887 0-1.18-.091-2.27-.363-3.45a33.7 33.7 0 0 1 9.387 8.427c-6.132-8.421-16.092-13.899-27.34-13.899C24.847 9.917 9.74 24.952 9.74 43.5c0 10.495 4.838 19.864 12.415 26.023zm19.587-5.473H39.2V38.902h2.541V64.05zm-3.631-52.836c1.997-.363 4.084-.545 6.081-.545 2.088-.091 4.084.181 6.081.545.091.454.181.908.181 1.362a6.28 6.28 0 0 1-6.263 6.264 6.28 6.28 0 0 1-6.263-6.264c0-.454.091-.908.181-1.362z" style="mix-blend-mode:multiply" fill="#0f0f0d" opacity=".2"/><path d="M43.5 3.66C21.542 3.66 3.678 21.532 3.678 43.5S21.542 83.34 43.5 83.34 83.322 65.468 83.322 43.5 65.458 3.66 43.5 3.66zm-6.081 6.849c1.997-.363 4.084-.545 6.081-.545 2.088-.091 4.084.181 6.081.545.091.454.181.908.181 1.362a6.28 6.28 0 0 1-6.263 6.264 6.28 6.28 0 0 1-6.263-6.264c0-.454.091-.908.181-1.362zm3.631 27.689v25.147h-2.541V38.198h2.541zM43.5 77.054c-18.516 0-33.583-14.979-33.583-33.59 0-11.802 6.172-22.696 16.338-28.779-.181 1.18-.363 2.27-.363 3.45 0 6.99 4.084 13.073 10.075 15.887v31.865l7.533 7.535 7.534-7.535-.454-6.627 3.54-3.541-3.54-3.541 5.355-5.356-5.355-5.356.454-7.444c5.9-2.814 10.075-8.897 10.075-15.887 0-1.18-.091-2.27-.363-3.45 10.075 6.083 16.247 16.977 16.338 28.779 0 18.52-14.976 33.59-33.583 33.59z" fill="url(#G)"/></svg>