<svg xmlns:xlink="http://www.w3.org/1999/xlink" xmlns="http://www.w3.org/2000/svg" xmlns:v="https://vecta.io/nano" width="36" height="36" viewBox="0 0 36 36" fill-rule="nonzero" stroke-linejoin="round" stroke-miterlimit="2"><path d="M4.248 5.693v3.07L27.234 31.75h3.07v-3.071L7.318 5.693h-3.07z" fill="#ffa726"/><path d="M24.511 4.25a6.98 6.98 0 0 0-4.676 2.039c-2.727 2.726-2.727 7.147 0 9.873a6.98 6.98 0 0 0 9.873 0c2.727-2.726 2.727-7.147 0-9.873a6.98 6.98 0 0 0-5.196-2.039zm3.042 4.84c1.179 0 2.134.956 2.135 2.135s-.956 2.134-2.135 2.135-2.134-.956-2.135-2.135.956-2.134 2.135-2.135zM13.182 19.744l-8.934 8.934v3.07h3.07l3.268-3.268v.011h3.07v-3.07h-.012l.012-.011v.011h3.082v-2.12l-3.557-3.557z" fill="#fff"/></svg>