<svg xmlns:xlink="http://www.w3.org/1999/xlink" xmlns="http://www.w3.org/2000/svg" xmlns:v="https://vecta.io/nano" width="255.999" height="255.999" viewBox="0 0 67.733 67.733"><circle cx="33.866" cy="33.867" r="33.867" fill="#00acff"/><path d="M30.437 60.779c-4.744-.609-9.282-2.5-13.242-5.519-1.292-.985-3.715-3.424-4.773-4.804-2.962-3.865-4.804-8.251-5.412-12.887-.26-1.985-.259-5.633.003-7.447 1.308-9.068 7.015-16.845 15.209-20.729 3.812-1.806 7.3-2.571 11.731-2.571 7.166 0 13.526 2.567 18.681 7.541 2.483 2.396 4.148 4.668 5.574 7.607 1.929 3.975 2.71 7.433 2.71 11.995 0 6.006-1.734 11.244-5.337 16.117-1.071 1.448-3.162 3.647-4.549 4.785-3.807 3.12-8.659 5.232-13.473 5.863-1.664.218-5.593.245-7.121.049zm10.041-4.865c2.898-.914 5.26-2.141 7.541-3.92 1.212-.946 3.308-3.061 4.187-4.227 2.383-3.162 4.005-7.122 4.482-10.946.23-1.842.096-5.738-.254-7.43-.929-4.48-2.932-8.265-6.086-11.503-1.967-2.019-3.757-3.35-6.06-4.505-3.495-1.752-6.49-2.46-10.423-2.464-4.164-.004-7.815.95-11.429 2.988-3.29 1.855-6.691 5.26-8.553 8.563-1.372 2.433-2.376 5.32-2.768 7.959-.257 1.73-.262 5.165-.01 6.821.504 3.315 1.761 6.591 3.584 9.339.995 1.501.964 1.484 1.842.982 1.571-.899 1.98-1.333 2.836-3.01 1.001-1.96 2.07-3.673 3.037-4.863 1.116-1.373 1.269-1.618 1.829-2.915.282-.652.787-1.611 1.123-2.129l.611-.943-.79-.777c-1.05-1.032-1.923-2.202-2.087-2.797-.168-.608.03-.947.819-1.402.797-.461 1.368-.593 3.499-.812 1.038-.107 2.164-.302 2.519-.437s1.408-.708 2.344-1.276c2.703-1.639 2.932-1.723 4.552-1.688 1.369.03 1.371.029 2.183-.461 1.701-1.028 4.143-2.883 7.357-5.587.616-.519 1.21-.926 1.319-.905.455.088 1.29 2.136 1.416 3.476.077.812-.08 1.615-.562 2.873-.131.343-.192.67-.135.728.138.137.611-.453.611-.763 0-.394.261-.439.616-.106.258.242.481.312 1 .312.567 0 .707.053.929.348.376.501.464 1.867.176 2.732-.28.842-1.125 1.813-1.892 2.173-.686.323-2.076 1.679-2.726 2.662a31.64 31.64 0 0 0-1.037 1.742c-.321.582-.861 1.462-1.198 1.954-.664.97-1.233 2.322-1.782 4.238-.323 1.125-.35 1.418-.363 3.928-.016 3.032-.173 3.776-.993 4.709-.932 1.061-1.862 3.392-1.94 4.861-.049.928-.192 1.832-.395 2.501-.089.295.078.291 1.072-.022z" fill="#fff"/><path d="M34.955 27.756l1.222-1.565 1.966-.276-1.222 1.565z" fill="#00acff"/></svg>