<?xml version="1.0" encoding="UTF-8" standalone="no"?>
<!DOCTYPE svg PUBLIC "-//W3C//DTD SVG 1.1//EN" "http://www.w3.org/Graphics/SVG/1.1/DTD/svg11.dtd">
<svg width="100%" height="100%" viewBox="0 0 48 24" version="1.1" xmlns="http://www.w3.org/2000/svg" xmlns:xlink="http://www.w3.org/1999/xlink" xml:space="preserve" xmlns:serif="http://www.serif.com/" style="fill-rule:evenodd;clip-rule:evenodd;stroke-linejoin:round;stroke-miterlimit:2;">
    <g transform="matrix(1.15208,0,0,1.15208,-3.59323,-1.71507)">
        <path d="M40,12C38.856,11.994 37.763,12.478 37,13.33L36.77,13.24C35.223,12.63 33.627,12.152 32,11.81C32,7.421 28.389,3.81 24,3.81C19.611,3.81 16,7.421 16,11.81L15.78,11.81C14.211,12.148 12.673,12.612 11.18,13.2L10.95,13.29C10.192,12.452 9.113,11.973 7.983,11.973C5.789,11.973 3.983,13.779 3.983,15.973C3.983,18.167 5.789,19.973 7.983,19.973C10.178,19.973 11.983,18.167 11.983,15.973C11.983,15.669 11.949,15.366 11.88,15.07C13.273,14.525 14.707,14.093 16.17,13.78C17.021,17.377 20.259,19.938 23.955,19.938C27.651,19.938 30.889,17.377 31.74,13.78C33.202,14.09 34.637,14.518 36.03,15.06C35.956,15.368 35.918,15.683 35.918,15.999C35.918,18.193 37.724,19.999 39.918,19.999C42.113,19.999 43.918,18.193 43.918,15.999C43.918,13.836 42.163,12.044 40,12ZM8,18C6.903,18 6,17.097 6,16C6,14.903 6.903,14 8,14C9.097,14 10,14.903 10,16C10,17.097 9.097,18 8,18ZM24,18C20.708,18 18,15.292 18,12C18,8.708 20.708,6 24,6C27.292,6 30,8.708 30,12C30,15.292 27.292,18 24,18ZM40,18C38.903,18 38,17.097 38,16C38,14.903 38.903,14 40,14C41.097,14 42,14.903 42,16C42,17.097 41.097,18 40,18ZM27,12C27,13.646 25.646,15 24,15C22.354,15 21,13.646 21,12C21,10.354 22.354,9 24,9C25.646,9 27,10.354 27,12Z" style="fill:white;fill-rule:nonzero;"/>
    </g>
</svg>
