<svg width="32" height="32" viewBox="0 0 24 24" fill="none" xmlns="http://www.w3.org/2000/svg">
<path fill-rule="evenodd" clip-rule="evenodd" d="M24 19.9732C24 20.3632 23.685 20.6666 23.295 20.6666H20.265C19.875 20.6666 19.56 20.3632 19.56 19.9732V10.9166C19.56 10.8298 19.455 10.801 19.41 10.8444L13.005 17.0844C12.45 17.6332 11.55 17.6332 10.995 17.0844L4.59 10.8444C4.545 10.801 4.44 10.8298 4.44 10.9166V19.9732C4.44 20.3632 4.125 20.6666 3.735 20.6666H0.705C0.315 20.6666 0 20.3632 0 19.9732V4.02657C0 3.63657 0.315 3.33325 0.705 3.33325H2.79C3.165 3.33325 3.525 3.47769 3.795 3.73769L11.745 11.4944C11.88 11.6244 12.12 11.6244 12.255 11.4944L20.205 3.73769C20.475 3.47769 20.835 3.33325 21.21 3.33325H23.295C23.685 3.33325 24 3.63657 24 4.02657V19.9732Z" fill="white"/>
</svg>
