<svg width="470" height="470" viewBox="0 0 470 470" fill="none" xmlns="http://www.w3.org/2000/svg">
<g clip-path="url(#clip0_493_1934)">
<path d="M240.658 0.0679429C196.009 -1.00574 151.979 10.6651 113.724 33.7135C75.4699 56.7618 44.5754 90.2333 24.6595 130.207C4.74373 170.181 -3.36869 215.002 1.27254 259.421C5.91376 303.839 23.1164 346.015 50.8655 381.009L42.4455 395.78L21.8186 431.809C19.5966 435.69 18.4337 440.087 18.4466 444.559C18.4595 449.031 19.6476 453.421 21.8919 457.29C24.1361 461.158 27.3578 464.368 31.2338 466.599C35.1099 468.83 39.5042 470.003 43.9764 470H233.071C363.789 470 471.436 363.042 469.986 232.315C469.29 171.438 444.996 113.208 402.219 69.8867C359.443 26.5656 301.523 1.53553 240.658 0.0679429Z" fill="url(#paint0_linear_493_1934)"/>
<path d="M240.658 0.0679429C196.009 -1.00574 151.979 10.6651 113.724 33.7135C75.4699 56.7618 44.5754 90.2333 24.6595 130.207C4.74373 170.181 -3.36869 215.002 1.27254 259.421C5.91376 303.839 23.1164 346.015 50.8655 381.009L42.4455 395.78L21.8186 431.809C19.5966 435.69 18.4337 440.087 18.4466 444.559C18.4595 449.031 19.6476 453.421 21.8919 457.29C24.1361 461.158 27.3578 464.368 31.2338 466.599C35.1099 468.83 39.5042 470.003 43.9764 470H233.071C363.789 470 471.436 363.042 469.986 232.315C469.29 171.438 444.996 113.208 402.219 69.8867C359.443 26.5656 301.523 1.53553 240.658 0.0679429Z" fill="url(#paint1_linear_493_1934)"/>
<path d="M240.658 0.0679429C196.009 -1.00574 151.979 10.6651 113.724 33.7135C75.4699 56.7618 44.5754 90.2333 24.6595 130.207C4.74373 170.181 -3.36869 215.002 1.27254 259.421C5.91376 303.839 23.1164 346.015 50.8655 381.009L42.4455 395.78L21.8186 431.809C19.5966 435.69 18.4337 440.087 18.4466 444.559C18.4595 449.031 19.6476 453.421 21.8919 457.29C24.1361 461.158 27.3578 464.368 31.2338 466.599C35.1099 468.83 39.5042 470.003 43.9764 470H233.071C363.789 470 471.436 363.042 469.986 232.315C469.29 171.438 444.996 113.208 402.219 69.8867C359.443 26.5656 301.523 1.53553 240.658 0.0679429Z" fill="url(#paint2_linear_493_1934)"/>
<circle cx="130.999" cy="325" r="33" fill="#7753FF"/>
<circle cx="130.999" cy="235" r="33" fill="#A98DFF"/>
<circle cx="130.999" cy="145.001" r="33" fill="#CABAFF"/>
<circle cx="338.999" cy="145.001" r="33" fill="#CABAFF"/>
<circle cx="338.999" cy="235" r="33" fill="#A98DFF"/>
<circle cx="338.999" cy="325" r="33" fill="#7753FF"/>
<circle cx="234.999" cy="235" r="33" fill="#A98DFF"/>
<circle cx="234.999" cy="325" r="33" fill="#7753FF"/>
</g>
<defs>
<linearGradient id="paint0_linear_493_1934" x1="234.991" y1="470" x2="234.991" y2="0.000784396" gradientUnits="userSpaceOnUse">
<stop stop-color="#7661FF"/>
<stop offset="1" stop-color="#9C75FF"/>
</linearGradient>
<linearGradient id="paint1_linear_493_1934" x1="395.507" y1="513.007" x2="74.4932" y2="-43.0068" gradientUnits="userSpaceOnUse">
<stop offset="0.13" stop-color="#553BFF"/>
<stop offset="0.86" stop-color="#9064FF"/>
</linearGradient>
<linearGradient id="paint2_linear_493_1934" x1="234.991" y1="470" x2="234.991" y2="-0.00549084" gradientUnits="userSpaceOnUse">
<stop stop-color="#E1D6FF"/>
<stop offset="1" stop-color="white"/>
</linearGradient>
<clipPath id="clip0_493_1934">
<rect width="470" height="470" fill="white"/>
</clipPath>
</defs>
</svg>
