<svg xmlns="http://www.w3.org/2000/svg" viewBox="0 0 24 24" width="40" height="40" fill="none">
  <g clip-path="url(#a)">
    <path fill="#192E45" fill-rule="evenodd" d="M0 12.62c0 6.629 5.381 12 12 12s12-5.371 12-12-5.371-12-12-12-12 5.371-12 12Z" clip-rule="evenodd"/>
    <path fill="#D2943B" fill-rule="evenodd" d="M2.276 9.82 1.6 11.191l.914-1.276-.057 1.838.257-1.38c.686 1.304 2.2 3.314 4.324 4.809.162.114.372.314.438.39 0 0 2.029 1.029 5.153-1.352.028-.019.066-.038.095-.057l.047.028.686.458a35.234 35.234 0 0 0-.695-.181c-1.505 1.733-3.953 2.019-5.267 1.143-.057-.039-.38.095-.438.285-.038.105 0 .22.048.305.266.495.666.448.476 1.029a4.603 4.603 0 0 1-.533.904c-.439.59-1.124 1.115-1.058 1.429 3.105 3.829 10.105 3.295 12.772-.124-.038-.495-.82-.733-1.362-1.943.152.048.38.114.38.105 0-.01-.647-1.057-.675-1.162l.419.029s-.553-.686-.572-.753l.562-.076s-.704-.81-.714-.876l.714.114-.78-.943h.37l-.437-.638-3.553-1.4c-1.362-.847-2.571-1.886-3.485-2.686L7.79 8.316c-1.761-.133-3.41-.085-4.419.115l.648-1.105-.943 1.124a3.502 3.502 0 0 0-.124-.038l.067-1.43-.314 1.334-.429 1.505Z" clip-rule="evenodd"/>
    <path fill="#FFCD86" fill-rule="evenodd" d="M2.705 8.315c-.467-.219-1.01.096-1.105.524-.114.41.171.914.676.981.476-.295.886-1.057.429-1.505Z" clip-rule="evenodd"/>
    <path fill="#FFD524" fill-rule="evenodd" d="M9.638 7.277c-.143-.39-.105-.895.095-1.371.286-.657.829-1.095 1.343-1.095.105 0 .2.019.295.057a3.412 3.412 0 0 1 1.02-.638c2.095-.839 5.17.657 5.961 2.714.381 1 .267 2.086-.057 3.086-.266.819-1.238 2-.876 2.885-.143-.038-3.124-1.047-3.98-1.504-1.344-.839-2.544-1.867-3.449-2.658l-.028-.028-3.048-1.448c-.038-.019-.076-.038-.104-.057.419.02 2.085.22 2.828.057Z" clip-rule="evenodd"/>
    <path fill="#fff" d="M11.544 6.682c.286-.656.202-1.326-.188-1.496-.39-.171-.94.222-1.226.877-.287.656-.202 1.325.188 1.496.39.17.939-.222 1.226-.877Z"/>
    <path fill="#192E45" d="M11.438 5.01c-.505-.219-1.18.21-1.514.962-.333.753-.181 1.534.324 1.762.504.22 1.18-.21 1.514-.962.333-.752.18-1.533-.324-1.762Zm.048 1.648c-.267.6-.772.962-1.124.81-.362-.162-.438-.772-.171-1.381.266-.6.77-.962 1.133-.81.352.162.428.781.162 1.381Z"/>
  </g>
  <defs>
    <clipPath id="a">
      <path fill="#fff" d="M0 .62h24v24H0z"/>
    </clipPath>
  </defs>
</svg>
