<svg xmlns="http://www.w3.org/2000/svg" viewBox="0 0 24 24" width="32" height="32" fill="none"><g clip-path="url(#a)"><path fill="#fff" d="M19.177 11.91c-.015-1.082.816-1.996 1.848-2.01 1.032-.014 1.896.876 1.91 1.96.015 1.082-.824 1.979-1.856 1.993-1.032.014-1.887-.86-1.902-1.942Zm-1.064.015c.023 1.719 1.343 3.068 2.981 3.045 1.638-.022 2.93-1.406 2.906-3.125-.024-1.72-1.353-3.085-2.99-3.063-1.638.023-2.92 1.424-2.897 3.143Zm-5.142 2.021-.054-3.927.934-.013c1.064-.015 1.853.817 1.869 1.934.015 1.126-.751 1.98-1.816 1.994l-.933.012Zm-1.044.9c0 .086.067.162.15.161l1.94-.026c1.58-.022 2.855-1.389 2.833-3.056-.023-1.65-1.335-2.982-2.915-2.96l-1.94.026c-.083.001-.147.08-.146.165l.078 5.69Zm-6.59-2.025c.018 1.306 1.023 2.35 2.309 2.333 1.294-.018 2.27-1.089 2.252-2.395L9.85 9.184c0-.086-.076-.163-.157-.162l-.778.011c-.09.001-.155.08-.154.165l.048 3.524c.01.722-.465 1.305-1.177 1.314-.713.01-1.196-.56-1.205-1.29l-.048-3.515c-.002-.086-.068-.162-.158-.161l-.778.01c-.082.002-.155.08-.153.166l.048 3.575ZM.118 14.586c.166.16.78.66 1.81.646 1.155-.016 1.873-.843 1.86-1.728-.014-1.109-.938-1.595-1.737-1.919-.667-.275-.974-.545-.98-.95-.003-.274.246-.604.713-.61.45-.007 1.079.414 1.145.456.099.068.22-.003.285-.107l.304-.494c.057-.086.03-.232-.053-.283-.165-.126-.81-.565-1.645-.553-1.302.018-1.83.91-1.82 1.675.014 1.014.79 1.52 1.565 1.836.692.282 1.048.578 1.054 1.017.005.37-.31.666-.736.672-.533.007-1.203-.491-1.244-.516a.185.185 0 0 0-.278.064l-.287.536c-.072.139-.03.181.044.258Z"/><mask id="b" width="24" height="8" x="0" y="8" maskUnits="userSpaceOnUse" style="mask-type:luminance"><path fill="#fff" d="M19.177 11.91c-.015-1.082.816-1.996 1.848-2.01 1.032-.014 1.896.876 1.91 1.96.015 1.082-.824 1.979-1.856 1.993-1.032.014-1.887-.86-1.902-1.942Zm-1.064.015c.023 1.719 1.343 3.068 2.981 3.045 1.638-.022 2.93-1.406 2.906-3.125-.024-1.72-1.353-3.085-2.99-3.063-1.638.023-2.92 1.424-2.897 3.143Zm-5.142 2.021-.054-3.927.934-.013c1.064-.015 1.853.817 1.869 1.934.015 1.126-.751 1.98-1.816 1.994l-.933.012Zm-1.044.9c0 .086.067.162.15.161l1.94-.026c1.58-.022 2.855-1.389 2.833-3.056-.023-1.65-1.335-2.982-2.915-2.96l-1.94.026c-.083.001-.147.08-.146.165l.078 5.69Zm-6.59-2.025c.018 1.306 1.023 2.35 2.309 2.333 1.294-.018 2.27-1.089 2.252-2.395L9.85 9.184c0-.086-.076-.163-.157-.162l-.778.011c-.09.001-.155.08-.154.165l.048 3.524c.01.722-.465 1.305-1.177 1.314-.713.01-1.196-.56-1.205-1.29l-.048-3.515c-.002-.086-.068-.162-.158-.161l-.778.01c-.082.002-.155.08-.153.166l.048 3.575ZM.118 14.586c.166.16.78.66 1.81.646 1.155-.016 1.873-.843 1.86-1.728-.014-1.109-.938-1.595-1.737-1.919-.667-.275-.974-.545-.98-.95-.003-.274.246-.604.713-.61.45-.007 1.079.414 1.145.456.099.068.22-.003.285-.107l.304-.494c.057-.086.03-.232-.053-.283-.165-.126-.81-.565-1.645-.553-1.302.018-1.83.91-1.82 1.675.014 1.014.79 1.52 1.565 1.836.692.282 1.048.578 1.054 1.017.005.37-.31.666-.736.672-.533.007-1.203-.491-1.244-.516a.185.185 0 0 0-.278.064l-.287.536c-.072.139-.03.181.044.258Z"/></mask><g mask="url(#b)"><path fill="#fff" d="m24.77 7.908-25.642.349.107 7.835 25.64-.349-.106-7.835Z"/></g><path fill="#fff" d="M20.832 17.165a10.405 10.405 0 0 1-2.077 2.465A10.322 10.322 0 0 1 3.63 17.922a.641.641 0 0 1 .134-.893.632.632 0 0 1 .887.134 9.058 9.058 0 0 0 13.273 1.5 9.127 9.127 0 0 0 1.823-2.163.632.632 0 0 1 .872-.213.64.64 0 0 1 .212.878Zm-.144-10.57c-.58-.902-1.3-1.713-2.144-2.407a10.322 10.322 0 0 0-15.071 2.12c-.2.29-.13.687.158.889.288.202.683.13.883-.159.134-.193.275-.38.424-.564a9.058 9.058 0 0 1 12.804-1.297c.74.61 1.372 1.32 1.88 2.113.191.296.584.38.878.189a.64.64 0 0 0 .188-.883Z"/><mask id="c" width="18" height="22" x="3" y="1" maskUnits="userSpaceOnUse" style="mask-type:luminance"><path fill="#fff" d="M20.832 17.165a10.405 10.405 0 0 1-2.077 2.465A10.322 10.322 0 0 1 3.63 17.922a.641.641 0 0 1 .134-.893.632.632 0 0 1 .887.134 9.058 9.058 0 0 0 13.273 1.5 9.127 9.127 0 0 0 1.823-2.163.632.632 0 0 1 .872-.213.64.64 0 0 1 .212.878Zm-.144-10.57c-.58-.902-1.3-1.713-2.144-2.407a10.322 10.322 0 0 0-15.071 2.12c-.2.29-.13.687.158.889.288.202.683.13.883-.159.134-.193.275-.38.424-.564a9.058 9.058 0 0 1 12.804-1.297c.74.61 1.372 1.32 1.88 2.113.191.296.584.38.878.189a.64.64 0 0 0 .188-.883Z"/></mask><g mask="url(#c)"><path fill="#fff" d="m21.53.879-19.07.26.299 21.979 19.07-.26-.298-21.98Z"/></g></g><defs><clipPath id="a"><path fill="#fff" d="M0 0h24v24H0z"/></clipPath></defs></svg>
