<svg xmlns="http://www.w3.org/2000/svg" viewBox="0 0 24 24" width="40" height="40" fill="none"><path fill="#FF00FB" d="M11.6 17.84a121.68 121.68 0 0 1-2.48-2.23c0-.02.03-.05.07-.06.06-.02.19.08 2.16 1.82l2.37 2.09c.18.16.3.24.33.24.03 0 .38-.54 1.2-1.88a77.48 77.48 0 0 1 1.19-1.9c.05-.02.17-.02.2 0 0 .03-2.5 4.1-2.54 4.12a123 123 0 0 1-2.5-2.2Z"/><path fill="#FF00FB" d="M5.85 15.97c-.01-.02.03-.19.1-.37.18-.58.2-.6.43-.65l.2-.04c.12-.02.24-.05.52-.14l.4-.12a.59.59 0 0 0 .2-.1l.07-.06-.02-1.18c0-.65-.03-1.7-.06-2.32-.05-1.33-.03-1.73.06-1.93.04-.1.07-.14.11-.14.07 0 .2.11.25.22a12.29 12.29 0 0 1 .43 1.59c.01-.01.03-.28.04-.6l.05-.75a3.5 3.5 0 0 1 .63-1.4c.38-.46 1.05-.68 1.38-.44.14.1.24.28.31.59.05.2.06.27.05.67a3.64 3.64 0 0 1-1.11 2.6l-.25.28.5.06c.45.05.72.1.83.19H11c.01 0 .02-.18.02-.39 0-.77.07-1.4.18-1.74a2.82 2.82 0 0 1 1.9-1.76c.32-.08.57-.1 1.6-.1l1.01-.01c0-.02-.16-.2-.78-.89-.57-.63-.56-.62.42.26l.65.56c.03 0 .08-.07.54-.8a8.62 8.62 0 0 1 .58-.83l-.4.8-.43.88c0 .02.32.03 1.08.04 1.06 0 1.08.01 1.3.08a2.87 2.87 0 0 1 2.12 2.23c.05.2.05.37.05 1.44 0 1.14 0 1.23-.05 1.46a2.72 2.72 0 0 1-.77 1.42c-.53.54-1.1.8-1.9.85-.5.03-4.13.03-4.5 0-1-.1-1.7-.56-2.23-1.46-.21-.38-.23-.48-.1-.76.18-.41.2-.69.07-.9-.06-.13-.24-.3-.29-.3 0 0 .01.05.05.12.16.33.06.85-.27 1.35a4.9 4.9 0 0 1-.81.86 8.2 8.2 0 0 1-1.13.75c-.24.12-.4.25-.46.37-.02.04-.06.15-.08.26l-.07.23a.45.45 0 0 1-.19.05l-.14.02-.06-.18a.58.58 0 0 0-.1-.2l-.54.12c-.5.12-.97.2-1.27.24-.12.01-.15 0-.16-.03Zm2.95-1.85a16.9 16.9 0 0 0 1.47-1c.17-.17.35-.4.44-.58.1-.21.18-.2-1.01-.2H8.63v.9c0 .49 0 .9.02.9.03.03.05.03.15-.02Zm8.74-.11c.03-.02.34-.67.52-1.08l.13-.32.17-.38.16-.39c.22-.51.6-1.5.7-1.78.07-.24.07-.25-.41-.25h-.45c-.05-.01-.1.1-.52 1.14L17.4 12l-.07.14-.05-.09a20.9 20.9 0 0 1-.46-1.05 5.7 5.7 0 0 0-.54-1.2 3.32 3.32 0 0 0-.48-.01h-.46l.02.1c.02.1.11.32 1.15 2.78.49 1.15.56 1.3.68 1.34.05.02.3.02.34 0Zm-2.68-.1c.04-.04.05-.15.05-1.6 0-.85 0-1.55.02-1.56l.3-.02h.27l-.01-.07c-.05-.16-.3-.8-.32-.83a8.98 8.98 0 0 0-1.18-.03h-1.15v.92l.46.01.5.02c.02 0 .03.34.03 1.55 0 1.77-.03 1.62.26 1.63.4.03.72.02.77-.02Zm-6.1-2.43c.2-.13.64-.51.8-.69.3-.32.46-.6.66-1.11.21-.54.27-.79.27-1.27 0-.37 0-.42-.05-.47-.05-.05-.07-.05-.16-.04-.12.01-.24.1-.42.32-.2.24-.29.43-.43.94-.14.52-.47 1.6-.53 1.76l-.04.1h-.14c-.1 0-.15.02-.16.05-.03.07.02.48.05.48.02 0 .09-.03.15-.07Z"/><path fill="#FF00FB" d="m11.73 15.44-1.4-.08c-.15-.02-.16-.05-.04-.07a9.56 9.56 0 0 1 1.26-.51c.01 0 .12.05.23.12.22.15.43.26.63.33.08.03.12.06.1.07-.03.02-.03.03.01.04.1.03.18.07.17.07-.02.02-.66.03-.96.03Zm-8.31-.15c-.12-.05-.26-.4-.29-.7-.03-.28.04-1.65.1-2.05.06-.44.43-2.34.47-2.44a.3.3 0 0 1 .13-.13c.1-.05.11-.05.18-.01.1.05.14.1.27.4.13.3.32.88.66 1.96.2.63.22.68.24.7.11.07.12.04.15-.8.05-.98.14-1.72.36-2.75.2-.9.34-1.37.46-1.5.06-.06.07-.06.32-.04.3.01.33.02.35.09a60.43 60.43 0 0 1-.62 4.32l-.12.66c-.26 1.27-.35 1.6-.5 1.66a.42.42 0 0 1-.19.01l-.13-.01-.5-1.5-.54-1.54c-.02-.04-.03-.04-.06.06l-.05.24a.9.9 0 0 1-.03.16l-.02.19-.03.18-.02.16-.03.18-.03.18c0 .08-.02.17-.03.2l-.02.16-.1.68-.05.53c-.02.33-.02.38.03.5s.04.18-.05.25c-.05.04-.23.04-.31 0Zm1.84-2.17c0-.02-.02-.04-.05-.04-.03 0-.03.01 0 .04l.03.04.02-.04Z"/><path fill="#FF00FB" d="M1.55 8.91A41.2 41.2 0 0 1 0 7.5l1.76-.27A7499.68 7499.68 0 0 0 15.64 5.2l8.28-1.22c.07-.01.09 0 .08.02 0 .02-.7 1.16-1.55 2.54l-1.54 2.5-.06-.08a.4.4 0 0 1-.06-.1l1.37-2.25a78.57 78.57 0 0 0 1.39-2.3c.01-.06.01-.06-.14-.04-.09 0-2.54.36-5.46.8-6.18.9-9.64 1.4-14.14 2.07-1.8.26-3.27.48-3.29.5v.06c0 .02.6.56 1.31 1.2.72.63 1.32 1.17 1.34 1.2.03.03.02.19-.02.21-.01 0-.73-.62-1.6-1.39Z"/></svg>
