<svg xmlns="http://www.w3.org/2000/svg" viewBox="0 0 24 24" width="32" height="32" fill="#fff"><path d="M12.018 6.537c-2.5 0-4.6 1.712-5.241 4.015-.56-1.232-1.793-2.105-3.225-2.105A3.569 3.569 0 0 0 0 12a3.569 3.569 0 0 0 3.552 3.553c1.432 0 2.664-.874 3.224-2.106.641 2.304 2.742 4.016 5.242 4.016 2.487 0 4.576-1.693 5.231-3.977.569 1.21 1.783 2.067 3.198 2.067A3.568 3.568 0 0 0 24 12a3.569 3.569 0 0 0-3.553-3.553c-1.416 0-2.63.858-3.199 2.067-.654-2.284-2.743-3.978-5.23-3.977zm0 2.085A3.36 3.36 0 0 1 15.396 12a3.36 3.36 0 0 1-3.378 3.378A3.362 3.362 0 0 1 8.641 12a3.36 3.36 0 0 1 3.377-3.378zm-8.466 1.91A1.45 1.45 0 0 1 5.019 12a1.45 1.45 0 0 1-1.467 1.468A1.452 1.452 0 0 1 2.085 12a1.45 1.45 0 0 1 1.467-1.467zm16.895 0A1.45 1.45 0 0 1 21.915 12a1.45 1.45 0 0 1-1.468 1.468A1.452 1.452 0 0 1 18.98 12a1.45 1.45 0 0 1 1.467-1.467z"/></svg>
