<svg xmlns="http://www.w3.org/2000/svg" width="40" height="40" viewBox="0 0 24 24" fill="none"><g fill="#CC1B3F" clip-path="url(#a)"><path d="M13.838 14.585 8.913 17.43a.703.703 0 0 1-.957-.257L5.322 12.61a.703.703 0 0 1 .256-.958l4.925-2.843 3.335 5.776ZM16.19 11.518l-.489.284a.169.169 0 0 1-.23-.06l-.413-.71a.168.168 0 0 1 .06-.23l.488-.285a.169.169 0 0 1 .23.061l.414.71c.047.08.02.183-.06.23Zm-2.442-2.735a.169.169 0 0 1 .06-.23l.489-.285a.169.169 0 0 1 .23.06l.413.71c.047.08.02.184-.06.23l-.489.285a.169.169 0 0 1-.23-.06l-.413-.71Zm-2.466.516 2.495 4.323 4.938-2.851-2.495-4.323L11.282 9.3Z"/><path d="M12 1.888a.168.168 0 0 0-.065.013L3.438 5.492c-.08.034-.137.13-.137.231v7.468c0 .036.007.071.019.1.428 1.072 2.843 6.497 8.617 8.807a.171.171 0 0 0 .129 0c5.773-2.31 8.188-7.735 8.613-8.799a.304.304 0 0 0 .022-.108V5.723c0-.102-.055-.196-.133-.23l-8.503-3.592A.165.165 0 0 0 12 1.888ZM12 24c-.263 0-.52-.05-.766-.148-6.49-2.597-9.19-8.662-9.666-9.851a2.128 2.128 0 0 1-.157-.81V5.723A2.13 2.13 0 0 1 2.7 3.753L11.201.161a2.06 2.06 0 0 1 1.597 0l8.5 3.591a2.122 2.122 0 0 1 1.29 1.971v7.468c0 .273-.051.544-.154.805-.478 1.194-3.179 7.26-9.668 9.856A2.059 2.059 0 0 1 12 24Z"/></g><defs><clipPath id="a"><path fill="#fff" d="M0 0h24v24H0z"/></clipPath></defs></svg>
