<svg xmlns="http://www.w3.org/2000/svg" xml:space="preserve" id="noyb" width="80" height="80" x="0" y="0" style="enable-background:new 0 0 685 685" version="1.1" viewBox="0 0 685 685"><style>.logo{fill:#9c0a7d}</style><path d="M580.6 19.5H103.9c-47.2 0-85.4 38.2-85.4 85.4v476.5c0 47.2 38.2 85.4 85.4 85.4h476.5c47.2 0 85.4-38.2 85.4-85.4V104.9c.2-47.2-38-85.4-85.2-85.4z" style="fill:#fff"/><path d="M541.5 525.9c-7.8 0-15 5.9-16.9 14.3-.4 1.7-.6 3.4-.6 5.3v13.6c0 1.9.2 3.6.6 5.1 1.9 7.8 8.6 13.7 16.9 13.7 12.4 0 20-9.5 20-26.2 0-14.4-6.5-25.8-20-25.8zM331.4 524.2c-13.9 0-19 14.2-19 27.9 0 15.9 6.6 27.9 19 27.9 11.2 0 18.4-11.2 18.4-27.9 0-13.8-5.3-27.9-18.4-27.9z" class="logo"/><path d="M594.2 0H90.3C40.4 0 0 40.4 0 90.3v503.8c0 49.9 40.4 90.3 90.3 90.3h503.8c49.9 0 90.3-40.4 90.3-90.3V90.3C684.5 40.4 644.1 0 594.2 0zM264.6 598.6h-28.9v-51.5c0-11.9-4.1-20.1-14.6-20.1-7.9 0-12.7 5.5-14.6 10.8-.7 1.7-1.1 4.5-1.1 7.2v53.6h-28.9v-63.3c0-11.5-.4-21.4-.8-29.6h25.1l1.3 12.7h.6c3.8-5.9 13.3-14.8 28.7-14.8 19 0 33.3 12.5 33.2 39.9v55.1zm66 2.1c-27.2 0-48.1-17.9-48.1-47.9s19.8-49.2 49.6-49.2c28.5 0 47.5 19.6 47.5 47.5 0 34-24.1 49.6-49 49.6zm130.8-33.8c-13.3 36.9-22.2 51.7-32.7 61-10.1 8.7-20.7 11.8-27.9 12.7l-6.1-24.5c3.6-.6 8.2-2.3 12.5-4.9 4.4-2.3 9.1-6.8 12-11.6 1-1.3 1.5-2.9 1.5-4.2 0-1-.2-2.5-1.3-4.8l-34-84.9h32l13.9 45.6c1.5 5.5 3.4 12.4 4.6 17.3h.6c1.3-4.9 2.9-12 4.2-17.3l11.4-45.6h31l-21.7 61.2zm86.9 33.8c-10.8 0-21.3-4-27.9-15h-.4l-1.1 12.9h-24.5c.4-6.1.8-17.3.8-27.7V463.7H524v53h.4c5.5-8 15.2-13.1 28.1-13.1 22.2 0 38.6 18.4 38.4 46.9 0 33.4-21.3 50.2-42.6 50.2z" class="logo"/></svg>