<svg version="1.1" id="noyb" xmlns="http://www.w3.org/2000/svg" xmlns:xlink="http://www.w3.org/1999/xlink" x="0px" y="0px"
	 width="80px" height="80px" viewBox="0 0 685 685" style="enable-background:new 0 0 685 685;" xml:space="preserve">
<style type="text/css">
	.trans{fill:#FFFFFF;}
	.logo{fill:#9c0a7d;}
</style>
<path class="trans" d="M580.6,19.5H103.9c-47.2,0-85.4,38.2-85.4,85.4v476.5c0,47.2,38.2,85.4,85.4,85.4h476.5
		c47.2,0,85.4-38.2,85.4-85.4V104.9C666,57.7,627.8,19.5,580.6,19.5z"/>
<path class="logo" d="M541.5,525.9c-7.8,0-15,5.9-16.9,14.3c-0.4,1.7-0.6,3.4-0.6,5.3v13.6c0,1.9,0.2,3.6,0.6,5.1
	c1.9,7.8,8.6,13.7,16.9,13.7c12.4,0,20-9.5,20-26.2C561.5,537.3,555,525.9,541.5,525.9z"/>
<path class="logo" d="M331.4,524.2c-13.9,0-19,14.2-19,27.9c0,15.9,6.6,27.9,19,27.9c11.2,0,18.4-11.2,18.4-27.9
	C349.8,538.3,344.5,524.2,331.4,524.2z"/>
<path class="logo" d="M594.2,0H90.3C40.4,0,0,40.4,0,90.3v503.8c0,49.9,40.4,90.3,90.3,90.3h503.8c49.9,0,90.3-40.4,90.3-90.3V90.3
	C684.5,40.4,644.1,0,594.2,0z M264.6,598.6h-28.9v-51.5c0-11.9-4.1-20.1-14.6-20.1c-7.9,0-12.7,5.5-14.6,10.8
	c-0.7,1.7-1.1,4.5-1.1,7.2v53.6h-28.9v-63.3c0-11.5-0.4-21.4-0.8-29.6h25.1l1.3,12.7h0.6c3.8-5.9,13.3-14.8,28.7-14.8
	c19,0,33.3,12.5,33.2,39.9V598.6z M330.6,600.7c-27.2,0-48.1-17.9-48.1-47.9s19.8-49.2,49.6-49.2c28.5,0,47.5,19.6,47.5,47.5
	C379.6,585.1,355.5,600.7,330.6,600.7z M461.4,566.9c-13.3,36.9-22.2,51.7-32.7,61c-10.1,8.7-20.7,11.8-27.9,12.7l-6.1-24.5
	c3.6-0.6,8.2-2.3,12.5-4.9c4.4-2.3,9.1-6.8,12-11.6c1-1.3,1.5-2.9,1.5-4.2c0-1-0.2-2.5-1.3-4.8l-34-84.9h32v0l13.9,45.6
	c1.5,5.5,3.4,12.4,4.6,17.3h0.6c1.3-4.9,2.9-12,4.2-17.3l11.4-45.6h31L461.4,566.9z M548.3,600.7c-10.8,0-21.3-4-27.9-15H520
	l-1.1,12.9h-24.5v0c0.4-6.1,0.8-17.3,0.8-27.7V463.7H524v53h0.4c5.5-8,15.2-13.1,28.1-13.1c22.2,0,38.6,18.4,38.4,46.9
	C590.9,583.9,569.6,600.7,548.3,600.7z"/>
</svg>
