<svg xmlns="http://www.w3.org/2000/svg" viewBox="0 0 24 24" width="40" height="40" fill="none"><path fill="#93BF2A" d="M7.875 23.54c-.872-.28-1.547-.852-2.456-2.071-1.228-1.65-2.053-3.385-2.513-5.297-.665-2.738-.534-4.95.394-6.89.31-.648.525-.938 1.125-1.52.844-.825 1.528-1.209 2.578-1.443 1.106-.244 1.969-.15 3.44.375.657.234 1.35.431 1.529.431.178 0 .881-.197 1.556-.431 1.997-.694 3.281-.666 4.763.112 1.059.563 2.128 1.735 2.596 2.869.479 1.153.61 2.044.554 3.769-.075 2.465-.591 4.21-1.96 6.637-.581 1.032-1.8 2.54-2.362 2.935-1.04.712-1.65.74-3.347.13-1.631-.58-1.988-.571-3.853.095-.872.309-1.66.422-2.044.3Zm5.287-3.862c.872-.169 1.566-.581 2.363-1.416.956-1.003 1.266-1.724 1.331-3.084.047-1.06-.075-1.753-.46-2.503-.524-1.06-1.677-2.081-2.774-2.475-1.36-.478-3.01-.29-4.172.478-1.181.778-1.716 1.472-2.184 2.813-.582 1.659-.075 3.58 1.293 4.912 1.285 1.256 2.7 1.65 4.604 1.275Z"/><path fill="#798992" d="M11.344 18.544c-1.181-.178-2.288-1.032-2.794-2.119-.347-.769-.394-1.847-.113-2.728.207-.638.713-1.378 1.238-1.79.722-.563 1.95-.854 2.934-.704l.45.066-.309.15c-.169.084-.431.337-.572.572-.562.88-.244 1.93.731 2.409.882.431 1.716.131 2.194-.778l.263-.488.168.441c.122.319.17.694.17 1.378 0 .89-.02.966-.32 1.528a6.009 6.009 0 0 1-.675.985c-.74.853-2.09 1.284-3.365 1.078Zm-.122-12.966c-.684-.187-1.753-.731-2.185-1.106C8.56 4.05 7.912 3 7.687 2.269a7.574 7.574 0 0 1-.243-1.219L7.378.375l.319.056c.9.16 1.931.694 2.7 1.407.59.543 1.125 1.462 1.369 2.334.084.31.168.619.197.694.028.084.159-.066.346-.375.347-.582.957-1.078 1.435-1.172.178-.028.347-.038.375-.019.018.028-.01.263-.066.534-.131.629-.581 1.21-1.162 1.52-.591.318-1.097.383-1.67.224Z"/></svg>
