<svg xmlns="http://www.w3.org/2000/svg" viewBox="0 0 24 24" width="40" height="40" fill="none"><g clip-path="url(#a)"><path fill="#4E0D4E" d="M23.884 11.999c0 6.563-5.32 11.884-11.884 11.884S.115 18.563.115 12 5.436.114 12 .114C18.563.114 23.884 5.435 23.884 12Zm-9.836 8.177c1.12-.336 2.864-1.28 3.312-1.776.304-.336.304-.336-.768-1.392-.992-.992-1.072-1.056-1.344-.816-.8.704-1.36.848-3.248.848-1.6 0-1.92-.048-2.512-.368-1.552-.816-2.448-2.192-2.576-3.904l-.08-1.088h.592c.32 0 .576-.048.576-.096s-.624-.72-1.376-1.472l-1.36-1.36-1.472 1.456L2.32 11.68h1.2v.688c0 1.632 1.088 3.952 2.528 5.44 2.192 2.24 5.376 3.184 8 2.368Zm6.192-6.416 1.44-1.44h-1.2v-.688c0-.384-.112-1.088-.256-1.568-1.328-4.56-6.192-7.52-10.272-6.24-1.12.336-2.864 1.28-3.312 1.776-.304.336-.304.336.736 1.376l1.056 1.056.608-.416c.88-.608 1.728-.784 3.36-.704 1.632.08 2.416.384 3.36 1.328.848.864 1.232 1.76 1.328 3.088l.08 1.152h-1.152l1.312 1.344c.72.736 1.344 1.344 1.392 1.36.048.016.736-.624 1.52-1.424Z"/><path fill="#fff" d="M9.408 20.656c-1.392-.448-2.832-1.344-3.84-2.368-1.44-1.488-2.528-3.808-2.528-5.44v-.688h-.96c-.528 0-.96-.048-.96-.128 0-.064.928-1.04 2.064-2.176l2.08-2.064 2.08 2.08C8.496 11.024 9.376 12 9.328 12.064c-.048.048-.528.096-1.056.096h-.96l.112.656c.208 1.344 1.216 2.672 2.544 3.376.544.304.928.368 2.032.368 1.456-.016 1.936-.176 3.056-1.056l.56-.448 1.504 1.504 1.504 1.52-.544.576c-.704.704-2.288 1.616-3.552 2-1.28.4-3.84.4-5.12 0Zm7.216-6.592L14.592 12h2.096l-.096-.72c-.192-1.408-1.184-2.752-2.56-3.472-.544-.288-.928-.368-2.032-.368-1.456 0-1.92.16-3.056 1.056l-.56.448L6.88 7.44 5.376 5.92l.544-.576c.704-.704 2.288-1.616 3.552-2 1.312-.416 3.744-.416 5.056 0 1.44.448 2.88 1.312 3.904 2.368 1.44 1.488 2.528 3.808 2.528 5.44v.688h.96c.528 0 .96.048.96.128 0 .128-4.048 4.192-4.16 4.176-.048 0-.992-.944-2.096-2.08Z"/></g><defs><clipPath id="a"><path fill="#fff" d="M0 0h24v24H0z"/></clipPath></defs></svg>
