<svg xmlns="http://www.w3.org/2000/svg" viewBox="0 0 24 24" width="32" height="32" fill="none"><g fill="#ECF8F9" clip-path="url(#a)"><path fill-rule="evenodd" d="M3.95 10.78c-.1-.02-.37-.1-.59-.18l-.5-.17a3.21 3.21 0 0 1-.4-.24c-.18-.1-.34-.2-.37-.2-.02 0-.29-.24-.59-.54A4.61 4.61 0 0 1 .2 7.27c0-.04-.05-.19-.1-.31-.1-.2-.1-.32-.1-.98.02-.63.04-.76.1-.82a.3.3 0 0 0 .08-.06 1 1 0 0 1 0-.06l-.03.01c-.08.06.08-.45.27-.9A4.62 4.62 0 0 1 1.7 2.4a7.95 7.95 0 0 1 1.4-.8c.28-.18.9-.28 1.7-.3a3.6 3.6 0 0 1 1.32.08c.97.23 2.03.88 2.63 1.6A4.3 4.3 0 0 1 9.78 5.1c.09.47.09 1.34 0 1.77A4.61 4.61 0 0 1 8.36 9.5 4.66 4.66 0 0 1 6 10.76a2 2 0 0 1-.56.07c-.28 0-.38 0-.42-.02a5 5 0 0 1-.15 0 5.18 5.18 0 0 1-.93-.03ZM2.77 7.29v-.02a1.2 1.2 0 0 0-.08-.13 3.58 3.58 0 0 1-.06-1.91c0-.04.09-.26.2-.5.24-.5.64-.9 1.09-1.13.3-.16.35-.17.95-.17.62 0 .71 0 1.17.2a2.8 2.8 0 0 1 1.18 1.48c.1.36.08 1.56-.02 1.93a2.7 2.7 0 0 1-1.28 1.5c-.28.13-.38.15-.92.18-.56.02-.64 0-.94-.12a2.45 2.45 0 0 1-1.29-1.3ZM11.6 9.2c0 2.25.01 4.12.03 4.13.02.02.14.04.27.04h.16l.62-.01c.18 0 .32 0 .43-.02.04.02.1.03.22.04.14.01.22.02.28-.02.13-.08.13-.35.13-1.17v-.29c0-.86 0-1.03.07-1.06h.08c.05 0 .09-.01.1-.03.28.04.8.04 1.1.01l.3.02c1.06 0 1.91-.48 2.36-1.34a3.1 3.1 0 0 0 .25-.63 4.99 4.99 0 0 0 0-2.66 2.63 2.63 0 0 0-1.79-1.8c-.34-.1-1.04-.13-2.87-.13h-1.72l-.01.25c-.02.18-.01.23.05.24l-.01.36c-.05.15-.05.86-.05 4.06Zm3.82-.49h.05c.14-.03.32-.09.48-.16l.13-.1c.27-.18.38-.45.38-.87 0-.58-.22-.87-.78-1.03a5.67 5.67 0 0 0-1.9-.02c-.07.07-.07 2.02 0 2.12.01.03.32.05.78.04l.85.02ZM4.96 13.13c.62.01 1.04.07 1.16.16.2.04.48.13.64.2a4.7 4.7 0 0 1 2.71 6.3c-.13.43-.93 1.55-1.1 1.55-.06 0-.2.13-.2.2a4.64 4.64 0 0 1-3.2 1.18 5.8 5.8 0 0 1-.66-.03 1.3 1.3 0 0 0-.23-.05 4.6 4.6 0 0 1-3.04-1.78 5.28 5.28 0 0 1-.45-.68l-.05-.13-.06-.14a8.28 8.28 0 0 1-.4-1.05c-.1-.32-.1-1.52 0-1.87a5.16 5.16 0 0 1 2.41-3.23 2 2 0 0 0 .24-.12 2.42 2.42 0 0 1 .7-.27 6.24 6.24 0 0 1 .54-.13c.1-.1.4-.13 1-.11Zm-2.09 3.39a4.35 4.35 0 0 0 .07-.15c.21-.36.63-.72 1.13-.97.27-.14.36-.15.81-.15.65 0 .93.1 1.45.49.44.34.68.66.84 1.12.16.47.17 1.6.03 2.08-.17.51-.55 1-1.01 1.32a2 2 0 0 1-1.3.36 2.25 2.25 0 0 1-1.97-1.18 2.4 2.4 0 0 1-.35-1.04v-.02a6 6 0 0 1-.02-.46 8.17 8.17 0 0 0 0-.5c.06-.28.17-.58.32-.9Z" clip-rule="evenodd"/><path d="M12.63 22.17c.3.23.54.33 1.05.44.57.12 1.87.13 2.35.02a2.52 2.52 0 0 0 2-2.03c.06-.45.07-.72.06-1.57v-.6h-.02c.02-.15.02-.44.02-.97v-.84a.38.38 0 0 0 .03-.12c.06-.3-.01-.34-.88-.35a9.4 9.4 0 0 0-1.02.01l-.27.03-.01.26a14.58 14.58 0 0 0 .02 1.74c-.03.09-.03.32-.03.87 0 1.03-.07 1.37-.33 1.69a.8.8 0 0 1-.6.29l-.39-.01c-.32 0-.53-.17-.72-.54-.15-.3-.17-.46-.18-1.35 0-.34 0-.51-.02-.6a24.82 24.82 0 0 0-.01-1.76c.02-.04.03-.11.03-.27 0-.22-.02-.3-.1-.33-.1-.05-1.94-.04-2 0-.06.07-.02 4.3.05 4.54.15.6.45 1.06.97 1.45Zm8.41.29a.48.48 0 0 1-.16-.05c-.02-.03-.05-1.07-.07-2.33-.01-1.68-.04-2.3-.08-2.33a1.23 1.23 0 0 0-.4-.01c-.44.03-.5-.02-.5-.42 0-.14 0-.22.02-.26a6.34 6.34 0 0 1-.02-.52c0-.36.02-.37.44-.37s.51-.05.51-.28v-.08a14.4 14.4 0 0 0 .01-.66v-.45a.48.48 0 0 1 0-.18l.02-.23.28-.01h.65a9.91 9.91 0 0 1 1 0l.28.01.02.31c0 .16.01.23-.01.27a5.92 5.92 0 0 1 0 1.13l.04.06c.01.08.07.1.38.12h.15l.37.01.02.68c.01.77-.02.89-.27.88-.1-.01-.21-.02-.26-.04a6.9 6.9 0 0 0-.18-.03h-.06a.15.15 0 0 1-.07.03c-.06.02-.1.09-.11.2v.2c0 .02 0 .03-.03.04.04.25.04.76.02 1.03h.02l-.01 1.56c-.01 1.33-.03 1.59-.1 1.65-.06.07-.23.08-.92.08l-.98-.01Zm-.19-12.12-.02.13c0 .15.02.16.12.12a.74.74 0 0 0 .1-.03 11.88 11.88 0 0 0 1.68 0l.04.03c.22.06.25.01.27-.3 0-.17.01-.25-.02-.28l.02-1.8c0-1.08 0-1.68-.02-1.94.03-.02.03-.08.03-.18v-.02c0-.08 0-.13.02-.16.04-.05.14-.04.4-.03h.04c.47.01.49-.02.49-.83v-.16c0-.32 0-.47-.07-.54-.06-.05-.16-.06-.35-.07h-.1c-.17 0-.33-.03-.36-.06-.05-.03-.07-.19-.07-.49 0-.2 0-.31-.02-.37.03-.1.03-.22 0-.26a4.19 4.19 0 0 0-.04-.69c-.03-.02-.5-.04-1.04-.05-.75-.01-1.02-.02-1.1.1-.05.07-.04.18-.03.35.01.13.02.2.05.24l-.03.5-.03.64v.01c-.04.08-.07.1-.15.1h-.09l-.1-.01c-.3-.03-.47-.05-.55.03-.1.07-.1.26-.09.63v.15c0 .44 0 .62.09.69.06.05.17.05.35.04h.02c.36 0 .47.05.51.28l.02.07c.01.37.02 1.02.01 1.99l.02 2.17Z"/></g><defs><clipPath id="a"><path fill="#fff" d="M0 0h24v24H0z"/></clipPath></defs></svg>
