<?xml version="1.0" encoding="UTF-8" standalone="no"?>
<!DOCTYPE svg PUBLIC "-//W3C//DTD SVG 1.1//EN" "http://www.w3.org/Graphics/SVG/1.1/DTD/svg11.dtd">
<svg width="100%" height="100%" viewBox="0 0 30 30" version="1.1" xmlns="http://www.w3.org/2000/svg" xmlns:xlink="http://www.w3.org/1999/xlink" xml:space="preserve" xmlns:serif="http://www.serif.com/" style="fill-rule:evenodd;clip-rule:evenodd;stroke-linejoin:round;stroke-miterlimit:2;">
    <g transform="matrix(1.25,0,0,1.25,2.375,0.5)">
        <path d="M20.2,3.1L20.2,11.5C20.2,19.9 10.1,23.2 10.1,23.2C10.1,23.2 0,20 0,11.6L0,3.1L10.1,0L20.2,3.1Z" style="fill:rgb(77,129,241);fill-rule:nonzero;"/>
    </g>
    <g transform="matrix(1.25,0,0,1.25,2.375,0.5)">
        <path d="M16.5,11C16.5,14.6 13.7,17.5 10.2,17.5C6.7,17.5 3.9,14.6 3.9,11C3.9,7.4 6.7,4.5 10.2,4.5C13.6,4.5 16.5,7.5 16.5,11Z" style="fill:white;fill-rule:nonzero;"/>
    </g>
    <g transform="matrix(1.25,0,0,1.25,2.375,0.5)">
        <path d="M13.7,9.6L9.1,13.9L6.6,11.6L7.4,10.6L9.1,12.2L12.9,8.7L13.7,9.6Z" style="fill:rgb(77,129,241);"/>
    </g>
</svg>
