<svg xmlns="http://www.w3.org/2000/svg" width="40" height="40" viewBox="0 0 48 48"><path fill="none" stroke="#fff" stroke-linecap="round" stroke-linejoin="round" d="m20.88 4.5.21.17q4 3.11 2.69 7.33-4.37-1.8-2.95-7.33a.6.6 0 0 1 0-.17Zm6.62 3.84c-.24 2-1.23 3.26-2.95 3.66-.24-1.85.74-3.08 2.95-3.66m-7.09 3.77a28 28 0 0 0 3.76.62h0a12.6 12.6 0 0 0 3.39-.17A4.8 4.8 0 0 0 30.34 17a13.9 13.9 0 0 1 3.53 2.6A13.48 13.48 0 0 1 38 29.53h0a13.42 13.42 0 0 1-4.09 9.87 13.4 13.4 0 0 1-9.69 4.09H24a13.43 13.43 0 0 1-9.87-4.09A13.44 13.44 0 0 1 10 29.52a13.45 13.45 0 0 1 4.09-9.87 14.2 14.2 0 0 1 3.39-2.54l.41-.21a4.7 4.7 0 0 0 2.49-4.18Z"/><path fill="none" stroke="#fff" stroke-linecap="round" stroke-linejoin="round" d="M23.7 40.1a10.17 10.17 0 0 1 0-20.34h0"/><path fill="none" stroke="#fff" stroke-linecap="round" stroke-linejoin="round" d="M23.7 36.19a6.13 6.13 0 0 1 0-12.25h0"/><path fill="none" stroke="#fff" stroke-linecap="round" stroke-linejoin="round" d="M23.7 32.78a2.62 2.62 0 0 1 0-5.22h0"/></svg>
