<svg xmlns="http://www.w3.org/2000/svg" class="h-6 w-auto mr-4" data-name="Layer 1" viewBox="0 0 128 128"><g fill="#fff" fill-rule="evenodd" data-name="Main"><path d="m176.11 36.73-5-8.61a41.53 41.53 0 0 0-14.73 57.22l8.55-5.12a31.58 31.58 0 0 1 11.19-43.49zM222.36 72.63a31.55 31.55 0 0 1-45 19.35l-4.62 8.84a41.54 41.54 0 0 0 59.17-25.46z" opacity=".8" style="isolation:isolate" transform="translate(-127.99 .01)"/><path d="M197 83a19.66 19.66 0 0 1-19.25-32.57l-4.5-4.27A25.87 25.87 0 0 0 198.59 89z" opacity=".6" style="isolation:isolate" transform="translate(-127.99 .01)"/><path d="M64.01 112.74a48.64 48.64 0 1 1 48.64-48.64 48.64 48.64 0 0 1-48.64 48.64zm64-48.64a64 64 0 1 0-64 64 64 64 0 0 0 64-64z"/></g></svg>