<svg xmlns="http://www.w3.org/2000/svg" viewBox="0 0 24 24" width="32" height="32" fill="none"><g fill-rule="evenodd" clip-path="url(#a)" clip-rule="evenodd"><path fill="#FFD06F" d="M3.67 3.117c-.08.272-.035.59.056 1.227l1.153 8.067c.199 1.394.298 2.09.562 2.713.234.552.56 1.06.967 1.5.46.497 1.053.874 2.24 1.63l1.689 1.074c.81.515 1.214.773 1.65.873.334.078.68.088 1.017.03a5.2 5.2 0 0 1 7.098-6.732c.049-.31.1-.667.16-1.088l1.153-8.067c.09-.636.136-.955.055-1.227a1.3 1.3 0 0 0-.4-.617c-.216-.185-.525-.273-1.143-.45L13.142.11c-.213-.06-.319-.09-.427-.103a1.285 1.285 0 0 0-.289 0A2.736 2.736 0 0 0 12 .111L5.214 2.05c-.618.177-.927.265-1.143.45-.19.163-.33.377-.4.617Z"/><path fill="#28323F" d="M9.898 1.954a.67.67 0 0 1 .145 0c.041.005.087.016.32.082l6.785 1.939c.319.091.523.15.675.206a.72.72 0 0 1 .224.112.647.647 0 0 1 .2.309.72.72 0 0 1 .011.25 9.99 9.99 0 0 1-.087.7l-.968 6.774a5.851 5.851 0 0 0-5.024 7.548l-.324.206c-.85.541-1.146.719-1.446.788a1.946 1.946 0 0 1-.877 0c-.3-.07-.596-.247-1.446-.788l-1.689-1.074c-1.216-.775-1.723-1.103-2.11-1.523a4.546 4.546 0 0 1-.848-1.313c-.222-.526-.313-1.124-.517-2.551L1.77 5.552a10.53 10.53 0 0 1-.088-.7.722.722 0 0 1 .012-.25.65.65 0 0 1 .2-.309.733.733 0 0 1 .223-.112c.153-.056.357-.115.675-.206l6.786-1.939c.232-.066.279-.077.32-.082Zm9.564 3.76-.948 6.632a5.851 5.851 0 1 1-5.808 8.733l-.153.098-.097.061c-.715.456-1.21.771-1.755.897-.48.11-.98.11-1.461 0-.546-.126-1.04-.44-1.756-.897l-.096-.061-1.772-1.128c-1.108-.705-1.769-1.125-2.285-1.685a5.844 5.844 0 0 1-1.089-1.687c-.297-.7-.407-1.476-.593-2.776L.479 5.713C.436 5.414.4 5.155.385 4.936a1.97 1.97 0 0 1 .062-.704c.107-.36.316-.682.6-.926.19-.162.4-.263.619-.344.204-.076.457-.148.747-.231l.022-.006L9.22.786l.036-.01c.178-.05.334-.096.498-.114.144-.016.289-.016.433 0 .164.018.32.063.497.114l.036.01 6.807 1.945c.29.083.543.155.748.23.218.082.428.183.618.345.285.245.494.566.6.926.071.24.078.473.063.704-.015.219-.052.479-.095.777Zm-1.691 7.885a4.55 4.55 0 1 0 0 9.1 4.55 4.55 0 0 0 0-9.1Zm3.1 3.017a.652.652 0 0 0-.303-1.044.65.65 0 0 0-.696.211l-2.795 3.354-1.447-1.447a.65.65 0 0 0-.919.92l1.95 1.95a.651.651 0 0 0 .96-.044l3.25-3.9ZM6.72 9.049a3.25 3.25 0 1 1 5.2 2.6v2.6a1.95 1.95 0 0 1-3.9 0v-2.6a3.246 3.246 0 0 1-1.3-2.6Zm3.9 3.25h-1.3v1.95a.65.65 0 1 0 1.3 0V12.3Zm-.65-1.3a1.95 1.95 0 1 0 0-3.9 1.95 1.95 0 0 0 0 3.9Z"/></g><defs><clipPath id="a"><path fill="#fff" d="M0 0h24v24H0z"/></clipPath></defs></svg>
