<svg xmlns="http://www.w3.org/2000/svg" width="96" height="16" fill="none"><g clip-path="url(#a)"><mask id="b" width="112" height="28" x="-9" y="-6" maskUnits="userSpaceOnUse" style="mask-type:luminance"><path fill="#fff" d="M-8.427-5.857h110.854v27.714H-8.427V-5.857Z"/></mask><g mask="url(#b)"><path fill="#fff" d="M-8.427-5.857h110.854v27.714H-8.427V-5.857Z"/><path fill="#000" fill-rule="evenodd" d="M102.427-5.857v27.714H-8.427V-5.857h110.854ZM74.433.795c-.953 0-1.865.149-2.738.446a7.524 7.524 0 0 0-2.37 1.32c-.709.581-1.278 1.358-1.707 2.332-.43.97-.646 2.065-.646 3.283 0 1.164.216 2.209.646 3.135.43.925 1.004 1.666 1.726 2.221.72.555 1.528.985 2.39 1.27a8.6 8.6 0 0 0 2.738.437c1.455 0 2.798-.298 4.028-.893V11.43c-.847.766-2.037 1.15-3.57 1.15a6.025 6.025 0 0 1-1.796-.268 5.28 5.28 0 0 1-1.568-.783 3.626 3.626 0 0 1-1.12-1.379c-.279-.576-.418-1.234-.418-1.974 0-1.562.48-2.742 1.438-3.542.959-.8 2.114-1.2 3.463-1.2 1.374 0 2.533.363 3.473 1.09V1.687c-1.192-.595-2.514-.892-3.97-.892Zm-67.921.277h-5.24V14.96h2.976v-4.564h2.264c3.994 0 5.99-1.554 5.99-4.663 0-3.108-1.997-4.661-5.991-4.661v-.001Zm15.08 0H15.88V14.96h2.977v-4.862h2.182l3.75 4.862h3.433l-4.147-5.238c2.023-.648 3.035-2.024 3.035-4.127 0-.847-.155-1.574-.466-2.183a3.414 3.414 0 0 0-1.29-1.408 6.076 6.076 0 0 0-1.745-.714 8.754 8.754 0 0 0-2.017-.22Zm12.663 0H31.28V14.96h2.976V1.07Zm6.493 0h-3.215L42.93 14.96h3.056l5.416-13.888h-3.213l-3.73 10.396-3.71-10.396v-.001Zm19.318 0H56.85L51.175 14.96h3.076l1.032-2.598h6.349l1.011 2.598h3.075L60.067 1.073l-.001-.001Zm23.904 0h-3.353l5.436 8.968v4.92h2.956v-4.92l5.417-8.967h-3.353l-3.551 6.23-3.552-6.231Zm-25.512 2.76c.066.357.166.72.298 1.09L60.7 9.904h-4.484l1.925-4.98c.132-.318.238-.682.317-1.092ZM6.65 3.691c1.879 0 2.818.682 2.818 2.045 0 1.362-.94 2.044-2.818 2.044h-2.4V3.693H6.65Zm15.083 0c.688 0 1.25.16 1.686.477.438.317.656.813.656 1.488 0 .66-.222 1.155-.665 1.478-.444.323-1.002.485-1.677.485h-2.876V3.693h2.876Z" clip-rule="evenodd"/></g></g><defs><clipPath id="a"><path fill="#fff" d="M0 0h96v16H0z"/></clipPath></defs></svg>