<svg xmlns="http://www.w3.org/2000/svg" viewBox="0 0 16 16" fill="none"><g clip-path="url(#a)"><path fill="url(#b)" d="M4.811 2.021C5.927.905 6.486.347 7.13.138a2.818 2.818 0 0 1 1.742 0c.643.209 1.201.767 2.318 1.883l2.79 2.79c1.116 1.116 1.674 1.675 1.883 2.318a2.819 2.819 0 0 1 0 1.742c-.209.643-.767 1.201-1.883 2.318l-2.79 2.79c-1.117 1.116-1.675 1.674-2.318 1.883a2.819 2.819 0 0 1-1.742 0c-.643-.209-1.202-.767-2.318-1.883l-.524-.588c-.318-.356-.476-.534-.59-.736-.1-.18-.174-.373-.218-.574-.05-.226-.05-.465-.05-.942V4.861c0-.477 0-.716.05-.942.044-.2.118-.394.218-.573.114-.203.272-.38.59-.737l.524-.588Z"/><path fill="url(#c)" d="M4.811 2.021C5.927.905 6.486.347 7.13.138a2.818 2.818 0 0 1 1.742 0c.643.209 1.201.767 2.318 1.883l2.79 2.79c1.116 1.116 1.674 1.675 1.883 2.318a2.819 2.819 0 0 1 0 1.742c-.209.643-.767 1.201-1.883 2.318l-2.79 2.79c-1.117 1.116-1.675 1.674-2.318 1.883a2.819 2.819 0 0 1-1.742 0c-.643-.209-1.202-.767-2.318-1.883l-.524-.588c-.318-.356-.476-.534-.59-.736-.1-.18-.174-.373-.218-.574-.05-.226-.05-.465-.05-.942V4.861c0-.477 0-.716.05-.942.044-.2.118-.394.218-.573.114-.203.272-.38.59-.737l.524-.588Z"/><path fill="url(#d)" d="M4.612 2.22c.558-.558.837-.837 1.159-.941a1.41 1.41 0 0 1 .87 0c.323.104.602.383 1.16.941l4.185 4.186c.558.558.837.837.941 1.158.093.283.093.588 0 .871-.104.322-.383.601-.941 1.16L7.8 13.778c-.558.558-.837.837-1.16.942a1.41 1.41 0 0 1-.87 0c-.322-.105-.6-.384-1.159-.942l-2.59-2.59C.904 10.072.346 9.513.137 8.87a2.818 2.818 0 0 1 0-1.742C.347 6.485.905 5.927 2.02 4.81l2.591-2.59Z"/></g><defs><radialGradient id="b" cx="0" cy="0" r="1" gradientTransform="rotate(-58.142 17.085 3.813) scale(13.3561 20.8862)" gradientUnits="userSpaceOnUse"><stop stop-color="#FFD580"/><stop offset=".094" stop-color="#F6C592"/><stop offset=".205" stop-color="#EBB6A2"/><stop offset=".324" stop-color="#DFA5AF"/><stop offset=".429" stop-color="#D397BE"/><stop offset=".534" stop-color="#C486CB"/><stop offset=".649" stop-color="#B578D9"/><stop offset=".771" stop-color="#A166E5"/><stop offset=".891" stop-color="#8B57F2"/><stop offset="1" stop-color="#704CFF"/></radialGradient><radialGradient id="d" cx="0" cy="0" r="1" gradientTransform="rotate(-58.142 15.036 4.055) scale(10.7429 16.7998)" gradientUnits="userSpaceOnUse"><stop stop-color="#FFD580"/><stop offset=".094" stop-color="#F6C592"/><stop offset=".205" stop-color="#EBB6A2"/><stop offset=".324" stop-color="#DFA5AF"/><stop offset=".429" stop-color="#D397BE"/><stop offset=".534" stop-color="#C486CB"/><stop offset=".649" stop-color="#B578D9"/><stop offset=".771" stop-color="#A166E5"/><stop offset=".891" stop-color="#8B57F2"/><stop offset="1" stop-color="#704CFF"/></radialGradient><linearGradient id="c" x1="4.278" x2="7.389" y1="-3.177" y2="15.816" gradientUnits="userSpaceOnUse"><stop stop-color="#6D4AFF"/><stop offset=".392" stop-color="#B39FFB" stop-opacity=".978"/><stop offset="1" stop-color="#FFE8DB" stop-opacity=".8"/></linearGradient><clipPath id="a"><path fill="#fff" d="M0 0h16v16H0z"/></clipPath></defs></svg>
