<svg xmlns="http://www.w3.org/2000/svg" viewBox="0 0 979 785" width="32" height="28" fill-rule="evenodd" stroke-linejoin="round" stroke-miterlimit="2"><path fill="#6d4aff" fill-rule="nonzero" d="M71.138 76.228c0-16.301 18.989-25.22 31.524-14.805L434.2 336.896c32.059 26.638 78.54 26.638 110.599 0L876.338 61.423c12.534-10.415 31.523-1.496 31.523 14.805V641.45c0 47.829-38.753 86.603-86.557 86.603H157.696c-47.804 0-86.557-38.774-86.557-86.603V76.228z"/><path fill="url(#a)" d="m621.492 271.42.054.044-195.302 172.607c-33.269 29.404-82.998 30.145-117.128 1.746L0 188.604V22.554C0 3.486 22.212-6.946 36.874 5.236L424.677 327.46c37.5 31.159 91.869 31.159 129.369 0l67.446-56.04z" transform="matrix(.85491 0 0 .85491 71.138 56.947)"/><path fill="url(#b)" d="M770.604 147.526V785h106.872c55.917 0 101.247-45.358 101.247-101.301V22.555c0-19.068-22.213-29.502-36.874-17.318L770.604 147.526z" transform="matrix(.85491 0 0 .85491 71.138 56.947)"/><defs><linearGradient id="a" x1="738.261" x2="514.95" y1="384.02" y2="-568.829" gradientUnits="userSpaceOnUse"><stop offset="0" stop-color="#e2dbff"/><stop offset="1" stop-color="#6d4aff"/></linearGradient><linearGradient id="b" x1="1276.84" x2="514.868" y1="1301.35" y2="-325.53" gradientUnits="userSpaceOnUse"><stop offset="0" stop-color="#e2dbff"/><stop offset=".27" stop-color="#e2dbff"/><stop offset="1" stop-color="#6d4aff"/></linearGradient></defs></svg>
