<?xml version="1.0" encoding="utf-8"?>
<svg xmlns="http://www.w3.org/2000/svg" fill="none" height="36" viewBox="0 0 36 36" width="36">
<g clip-path="url(#clip0_4903_655)">
<path d="M21.1476 16.3644C21.1476 17.6261 20.4027 18.7097 19.3334 19.2123V21.4542C19.3334 22.1885 18.7381 22.7837 18.0003 22.7837C17.2625 22.7837 16.6708 22.1885 16.6708 21.4542V19.2123C15.598 18.7097 14.8566 17.6261 14.8566 16.3644C14.8566 14.625 16.2645 13.217 18.0003 13.217C19.7362 13.217 21.1476 14.625 21.1476 16.3644Z" fill="#E6E6E6"/>
<path d="M25.1573 24.4503C25.3637 24.2227 25.5557 23.9879 25.7371 23.7425C25.5593 23.9844 25.3637 24.2227 25.1573 24.4503Z" fill="#E6E6E6"/>
<path d="M26.8682 21.7679C27.1604 21.0764 27.3707 20.36 27.4955 19.6328C27.3743 20.3635 27.164 21.0764 26.8682 21.7679Z" fill="#E6E6E6"/>
<path d="M27.6382 17.9967C27.6382 18.1036 27.6347 18.2141 27.6311 18.3211C27.624 18.6133 27.599 18.9056 27.5598 19.1943C27.5955 18.8985 27.6204 18.6062 27.6275 18.3104C27.6347 18.207 27.6382 18.1036 27.6382 17.9967Z" fill="#E6E6E6"/>
<path d="M22.1845 4.18497C22.1845 4.26339 22.1809 4.33824 22.1774 4.41665C22.1774 4.45586 22.1738 4.49507 22.1667 4.53428C22.1631 4.61626 22.1524 4.69467 22.1417 4.77665C22.131 4.8622 22.1168 4.94418 22.0989 5.02616C22.0989 5.05467 22.0883 5.07962 22.0811 5.10101C22.0669 5.17229 22.049 5.24358 22.0277 5.31487C22.0027 5.41823 21.9671 5.51804 21.9314 5.61427C21.91 5.682 21.8815 5.74615 21.8566 5.81031C21.8423 5.84596 21.8281 5.87803 21.8138 5.90655C21.7782 5.98497 21.7425 6.05982 21.7033 6.1311C21.6641 6.20596 21.6213 6.28081 21.5786 6.35209C21.5073 6.46615 21.4324 6.57665 21.354 6.68358C21.2613 6.80833 21.158 6.92952 21.051 7.04358C20.9869 7.1113 20.9227 7.17902 20.855 7.23962C20.7837 7.30377 20.716 7.36793 20.6411 7.42496C20.4237 7.60318 20.1885 7.76001 19.939 7.89189H19.9354C18.834 7.18615 17.6756 6.61585 16.4744 6.17388C16.0752 6.02774 15.6724 5.89586 15.2661 5.77823C15.0594 5.71764 14.8562 5.66417 14.6495 5.61427C11.8122 4.90497 8.83601 4.89784 5.99166 5.58576C5.75998 5.64279 5.52473 5.70695 5.29305 5.7711C5.06136 5.83883 4.82968 5.91011 4.60156 5.98497C4.81542 5.74259 5.03998 5.50378 5.27166 5.2721C5.39285 5.15447 5.51047 5.04041 5.62809 4.92635C5.84552 4.71962 6.06295 4.52002 6.29106 4.33111C6.40869 4.22774 6.52631 4.13151 6.64393 4.0317C6.86492 3.84992 7.09304 3.67527 7.32116 3.50774C7.33542 3.49705 7.34611 3.48992 7.3568 3.47923C7.48156 3.39369 7.60274 3.30101 7.72393 3.21903C8.55799 2.63804 9.43125 2.13191 10.333 1.70775C10.5897 1.58656 10.8499 1.47607 11.1136 1.36557C11.2491 1.30854 11.3881 1.25508 11.5271 1.20161C11.659 1.14815 11.7944 1.10181 11.9263 1.05191C12.0617 1.00557 12.2008 0.959236 12.3362 0.9129C12.4716 0.866563 12.6107 0.823791 12.7425 0.781019C12.878 0.741811 13.017 0.702604 13.1524 0.663396C13.7049 0.510129 14.2609 0.381812 14.8205 0.282011C14.9596 0.25706 15.0986 0.235674 15.2411 0.214288C16.0823 0.0824072 16.9306 0.0146846 17.7825 0.00399159C17.8574 0.00399159 17.9287 0.000427246 17.9999 0.000427246C18.0712 0.000427246 18.1461 0.00399159 18.2174 0.00399159C20.4308 0.114486 22.1881 1.943 22.1845 4.18497Z" fill="white"/>
<path d="M22.1845 4.18497C22.1845 4.26339 22.1809 4.33824 22.1774 4.41665C22.1774 4.45586 22.1738 4.49507 22.1667 4.53428C22.1631 4.61626 22.1524 4.69467 22.1417 4.77665C22.131 4.8622 22.1168 4.94418 22.0989 5.02616C22.0989 5.05467 22.0883 5.07962 22.0811 5.10101C22.0669 5.17229 22.049 5.24358 22.0277 5.31487C22.0027 5.41823 21.9671 5.51804 21.9314 5.61427C21.91 5.682 21.8815 5.74615 21.8566 5.81031C21.8423 5.84596 21.8281 5.87803 21.8138 5.90655C21.7782 5.98497 21.7425 6.05982 21.7033 6.1311C21.6641 6.20596 21.6213 6.28081 21.5786 6.35209C21.5073 6.46615 21.4324 6.57665 21.354 6.68358C21.2613 6.80833 21.158 6.92952 21.051 7.04358C20.9869 7.1113 20.9227 7.17902 20.855 7.23962C20.7837 7.30377 20.716 7.36793 20.6411 7.42496C20.4237 7.60318 20.1885 7.76001 19.939 7.89189H19.9354C18.834 7.18615 17.6756 6.61585 16.4744 6.17388C16.0752 6.02774 15.6724 5.89586 15.2661 5.77823C15.0594 5.71764 14.8562 5.66417 14.6495 5.61427C11.8122 4.90497 8.83601 4.89784 5.99166 5.58576C5.75998 5.64279 5.52473 5.70695 5.29305 5.7711C5.06136 5.83883 4.82968 5.91011 4.60156 5.98497C4.81542 5.74259 5.03998 5.50378 5.27166 5.2721C5.39285 5.15447 5.51047 5.04041 5.62809 4.92635C5.84552 4.71962 6.06295 4.52002 6.29106 4.33111C6.40869 4.22774 6.52631 4.13151 6.64393 4.0317C6.86492 3.84992 7.09304 3.67527 7.32116 3.50774C7.33542 3.49705 7.34611 3.48992 7.3568 3.47923C7.48156 3.39369 7.60274 3.30101 7.72393 3.21903C8.55799 2.63804 9.43125 2.13191 10.333 1.70775C10.5897 1.58656 10.8499 1.47607 11.1136 1.36557C11.2491 1.30854 11.3881 1.25508 11.5271 1.20161C11.659 1.14815 11.7944 1.10181 11.9263 1.05191C12.0617 1.00557 12.2008 0.959236 12.3362 0.9129C12.4716 0.866563 12.6107 0.823791 12.7425 0.781019C12.878 0.741811 13.017 0.702604 13.1524 0.663396C13.7049 0.510129 14.2609 0.381812 14.8205 0.282011C14.9596 0.25706 15.0986 0.235674 15.2411 0.214288C16.0823 0.0824072 16.9306 0.0146846 17.7825 0.00399159C17.8574 0.00399159 17.9287 0.000427246 17.9999 0.000427246C18.0712 0.000427246 18.1461 0.00399159 18.2174 0.00399159C20.4308 0.114486 22.1881 1.943 22.1845 4.18497Z" fill="url(#paint0_linear_4903_655)" fill-opacity="0.73"/>
<path d="M35.9999 18.0003C35.9999 18.0716 35.9999 18.1429 35.9999 18.2178C35.9892 19.0697 35.9215 19.918 35.7896 20.7592C35.7718 20.9017 35.7468 21.0407 35.7219 21.1797C35.6221 21.7393 35.4973 22.2954 35.3405 22.8479C35.3013 22.9833 35.2656 23.1223 35.2229 23.2578C35.1801 23.3896 35.1373 23.5286 35.091 23.6641C35.0482 23.8031 34.9983 23.9385 34.952 24.074C34.9021 24.2059 34.8557 24.3413 34.8023 24.4732C34.7488 24.6122 34.6953 24.7512 34.6383 24.8867C34.5314 25.1504 34.4173 25.4106 34.2961 25.6673C33.872 26.569 33.3694 27.4423 32.7848 28.2764C32.7029 28.3975 32.6137 28.5187 32.5246 28.6435C32.5139 28.6542 32.5068 28.6649 32.4997 28.6791C32.3286 28.9037 32.1539 29.1354 31.9722 29.3564C31.8724 29.474 31.7761 29.5916 31.6763 29.7092C31.4839 29.9373 31.2842 30.1548 31.0775 30.3722C30.9635 30.4898 30.8494 30.6074 30.7318 30.7286C28.6787 32.7817 26.2478 34.2395 23.6672 35.0914C27.8767 30.4078 29.1991 24.049 27.6344 18.3211C27.6344 18.3176 27.6308 18.314 27.6308 18.3104C27.6379 18.2071 27.6415 18.1037 27.6415 17.9968C27.6415 15.6871 29.5128 13.8158 31.8225 13.8158C34.0609 13.8122 35.8894 15.5695 35.9999 17.7829C35.9999 17.8542 35.9999 17.9291 35.9999 18.0003Z" fill="white"/>
<path d="M35.9999 18.0003C35.9999 18.0716 35.9999 18.1429 35.9999 18.2178C35.9892 19.0697 35.9215 19.918 35.7896 20.7592C35.7718 20.9017 35.7468 21.0407 35.7219 21.1797C35.6221 21.7393 35.4973 22.2954 35.3405 22.8479C35.3013 22.9833 35.2656 23.1223 35.2229 23.2578C35.1801 23.3896 35.1373 23.5286 35.091 23.6641C35.0482 23.8031 34.9983 23.9385 34.952 24.074C34.9021 24.2059 34.8557 24.3413 34.8023 24.4732C34.7488 24.6122 34.6953 24.7512 34.6383 24.8867C34.5314 25.1504 34.4173 25.4106 34.2961 25.6673C33.872 26.569 33.3694 27.4423 32.7848 28.2764C32.7029 28.3975 32.6137 28.5187 32.5246 28.6435C32.5139 28.6542 32.5068 28.6649 32.4997 28.6791C32.3286 28.9037 32.1539 29.1354 31.9722 29.3564C31.8724 29.474 31.7761 29.5916 31.6763 29.7092C31.4839 29.9373 31.2842 30.1548 31.0775 30.3722C30.9635 30.4898 30.8494 30.6074 30.7318 30.7286C28.6787 32.7817 26.2478 34.2395 23.6672 35.0914C27.8767 30.4078 29.1991 24.049 27.6344 18.3211C27.6344 18.3176 27.6308 18.314 27.6308 18.3104C27.6379 18.2071 27.6415 18.1037 27.6415 17.9968C27.6415 15.6871 29.5128 13.8158 31.8225 13.8158C34.0609 13.8122 35.8894 15.5695 35.9999 17.7829C35.9999 17.8542 35.9999 17.9291 35.9999 18.0003Z" fill="url(#paint1_linear_4903_655)" fill-opacity="0.5"/>
<path d="M23.6639 35.0914C17.4084 37.1552 10.2477 35.7009 5.27183 30.7286C-1.52538 23.9314 -1.74994 13.0495 4.60173 5.98494C4.82985 5.91009 5.06153 5.8388 5.29321 5.77108C5.5249 5.70692 5.76014 5.64276 5.99183 5.58573C8.83618 4.89425 11.8124 4.90138 14.6496 5.61425C14.8564 5.66415 15.0595 5.71761 15.2663 5.77821C15.6726 5.89583 16.0754 6.02771 16.4746 6.17385C17.6758 6.61583 18.8342 7.18612 19.9356 7.89187C19.8643 7.93107 19.7894 7.96672 19.7146 8.00236C19.6397 8.03088 19.5649 8.06295 19.49 8.09147C19.4152 8.11998 19.3367 8.1485 19.2583 8.17345C19.2548 8.17345 19.2512 8.17345 19.2476 8.17701C18.934 8.27325 18.6061 8.33385 18.2639 8.35523C18.1783 8.3588 18.0928 8.36236 18.0037 8.36236C15.5371 8.36236 13.0706 9.30335 11.1886 11.1853C7.42826 14.9493 7.42469 21.0479 11.1886 24.8118C14.9526 28.5758 21.0548 28.5722 24.8151 24.8118C24.9328 24.6942 25.0468 24.5766 25.1573 24.4518C25.3641 24.2237 25.5565 23.9885 25.7383 23.7425C25.8274 23.6213 25.9165 23.493 26.0056 23.3647C26.0912 23.2399 26.1732 23.1081 26.2516 22.9798C26.33 22.8479 26.4048 22.716 26.4761 22.5841C26.551 22.4487 26.6187 22.3132 26.6829 22.1778C26.747 22.0423 26.8112 21.9069 26.8682 21.7679C27.1605 21.0764 27.3708 20.36 27.4955 19.6328C27.5205 19.4867 27.5419 19.3406 27.5597 19.1944C27.5953 18.8986 27.6203 18.6063 27.6274 18.3105C27.6274 18.314 27.631 18.3176 27.631 18.3211C29.1957 24.0491 27.8734 30.4079 23.6639 35.0914Z" fill="#6D4AFF"/>
<path d="M23.6639 35.0914C17.4084 37.1552 10.2477 35.7009 5.27183 30.7286C-1.52538 23.9314 -1.74994 13.0495 4.60173 5.98494C4.82985 5.91009 5.06153 5.8388 5.29321 5.77108C5.5249 5.70692 5.76014 5.64276 5.99183 5.58573C8.83618 4.89425 11.8124 4.90138 14.6496 5.61425C14.8564 5.66415 15.0595 5.71761 15.2663 5.77821C15.6726 5.89583 16.0754 6.02771 16.4746 6.17385C17.6758 6.61583 18.8342 7.18612 19.9356 7.89187C19.8643 7.93107 19.7894 7.96672 19.7146 8.00236C19.6397 8.03088 19.5649 8.06295 19.49 8.09147C19.4152 8.11998 19.3367 8.1485 19.2583 8.17345C19.2548 8.17345 19.2512 8.17345 19.2476 8.17701C18.934 8.27325 18.6061 8.33385 18.2639 8.35523C18.1783 8.3588 18.0928 8.36236 18.0037 8.36236C15.5371 8.36236 13.0706 9.30335 11.1886 11.1853C7.42826 14.9493 7.42469 21.0479 11.1886 24.8118C14.9526 28.5758 21.0548 28.5722 24.8151 24.8118C24.9328 24.6942 25.0468 24.5766 25.1573 24.4518C25.3641 24.2237 25.5565 23.9885 25.7383 23.7425C25.8274 23.6213 25.9165 23.493 26.0056 23.3647C26.0912 23.2399 26.1732 23.1081 26.2516 22.9798C26.33 22.8479 26.4048 22.716 26.4761 22.5841C26.551 22.4487 26.6187 22.3132 26.6829 22.1778C26.747 22.0423 26.8112 21.9069 26.8682 21.7679C27.1605 21.0764 27.3708 20.36 27.4955 19.6328C27.5205 19.4867 27.5419 19.3406 27.5597 19.1944C27.5953 18.8986 27.6203 18.6063 27.6274 18.3105C27.6274 18.314 27.631 18.3176 27.631 18.3211C29.1957 24.0491 27.8734 30.4079 23.6639 35.0914Z" fill="url(#paint2_radial_4903_655)" fill-opacity="0.85"/>
<path d="M21.1476 16.3644C21.1476 17.6261 20.4027 18.7097 19.3334 19.2123V21.4542C19.3334 22.1885 18.7381 22.7837 18.0003 22.7837C17.2625 22.7837 16.6708 22.1885 16.6708 21.4542V19.2123C15.598 18.7097 14.8566 17.6261 14.8566 16.3644C14.8566 14.625 16.2645 13.217 18.0003 13.217C19.7362 13.217 21.1476 14.625 21.1476 16.3644Z" fill="#BE3232"/>
<path d="M21.1476 16.3644C21.1476 17.6261 20.4027 18.7097 19.3334 19.2123V21.4542C19.3334 22.1885 18.7381 22.7837 18.0003 22.7837C17.2625 22.7837 16.6708 22.1885 16.6708 21.4542V19.2123C15.598 18.7097 14.8566 17.6261 14.8566 16.3644C14.8566 14.625 16.2645 13.217 18.0003 13.217C19.7362 13.217 21.1476 14.625 21.1476 16.3644Z" fill="#8F69FF"/>
</g>
<defs>
<linearGradient gradientUnits="userSpaceOnUse" id="paint0_linear_4903_655" x1="8.10054" x2="23.1819" y1="0.749331" y2="7.22234">
<stop stop-color="#6D4AFF"/>
<stop offset="1" stop-color="#6D4AFF" stop-opacity="0.5"/>
</linearGradient>
<linearGradient gradientUnits="userSpaceOnUse" id="paint1_linear_4903_655" x1="19.9545" x2="29.9547" y1="17.6909" y2="38.4144">
<stop offset="0.475962" stop-color="#6D4AFF"/>
<stop offset="0.730769" stop-color="#E6AD32"/>
<stop offset="0.903064" stop-color="#F2FB00"/>
</linearGradient>
<radialGradient cx="0" cy="0" gradientTransform="translate(18.3269 10.6785) rotate(114.098) scale(29.9627 32.4746)" gradientUnits="userSpaceOnUse" id="paint2_radial_4903_655" r="1">
<stop offset="0.475962" stop-color="#6D4AFF"/>
<stop offset="0.730769" stop-color="#E6AD32"/>
<stop offset="0.903064" stop-color="#F2FB00"/>
</radialGradient>
<clipPath id="clip0_4903_655">
<rect fill="white" height="36" width="36"/>
</clipPath>
</defs>
</svg>