<svg xmlns="http://www.w3.org/2000/svg" xmlns:xlink="http://www.w3.org/1999/xlink" viewBox="0 0 552 552" width="32" height="32" fill-rule="evenodd" stroke-linejoin="round" stroke-miterlimit="2">
  <g transform="translate(-144.036 -149.31) scale(1.51348)">
    <use xlink:href="#a" fill="url(#b)"/>
    <use xlink:href="#a" fill="url(#c)"/>
    <path fill="url(#d)" fill-rule="nonzero" d="m263.755 379.083-12.308 18.501c-4.987 7.497-16.146 7.035-20.497-.848l12.687 22.986c2.262 4.099 5.137 7.528 8.421 10.28l.001-.002c15.738 13.184 40.889 10.825 53.194-7.927l138.686-211.347c14.707-22.413.636-52.462-25.997-55.516l-272.591-31.259c-29.062-3.332-49.755 27.552-35.619 53.162l1.076 1.95 232.021 26.846c14.79 1.711 22.591 18.404 14.417 30.847l-93.491 142.327z"/>
  </g>
  <defs>
    <linearGradient id="b" x1="294.571" x2="306.3" y1="-66.981" y2="331.785" gradientUnits="userSpaceOnUse">
      <stop offset="0" stop-color="#6d4aff"/>
    </linearGradient>
    <linearGradient id="c" x1="296.864" x2="199.399" y1="-11.777" y2="407.86" gradientUnits="userSpaceOnUse">
      <stop offset="0" stop-color="#24ecc6" stop-opacity="0"/>
      <stop offset=".48" stop-color="#24ecc6" stop-opacity="0"/>
      <stop offset=".99" stop-color="#24ecc6"/>
    </linearGradient>
    <linearGradient id="d" x1="329.101" x2="113.001" y1="453.838" y2="84.283" gradientUnits="userSpaceOnUse">
      <stop offset="0" stop-color="#abffef"/>
      <stop offset=".07" stop-color="#abffef"/>
      <stop offset=".45" stop-color="#cac9ff"/>
      <stop offset="1" stop-color="#6d4aff"/>
    </linearGradient>
    <path id="a" d="M243.637 419.72c13.1 23.735 46.743 25.021 61.616 2.355l138.686-211.348c14.707-22.413.636-52.463-25.997-55.517l-272.591-31.258c-29.062-3.332-49.755 27.551-35.619 53.162L243.637 419.72z"/>
  </defs>
</svg>
