<svg xmlns="http://www.w3.org/2000/svg" viewBox="0 0 21 24" width="30" height="32" fill="#fff"><path d="M10.52 0a2.4 2.405 0 0 0-.063 0 2.4 2.405 0 0 0-.042.002 2.4 2.405 0 0 0-.001 0 2.4 2.405 0 0 0-.003 0 2.4 2.405 0 0 0-.041.002 2.4 2.405 0 0 0-.038.003 2.4 2.405 0 0 0-.005 0 2.4 2.405 0 0 0-.024.002 2.4 2.405 0 0 0-.043.004 2.4 2.405 0 0 0-.041.005 2.4 2.405 0 0 0-.004 0 2.4 2.405 0 0 0-.041.006 2.4 2.405 0 0 0-.043.006 2.4 2.405 0 0 0-.043.007 2.4 2.405 0 0 0-.128.027 2.4 2.405 0 0 0-.651.257l-5.408 3.13-2.7 1.562A2.4 2.405 0 0 0 0 7.096v9.384a2.4 2.405 0 0 0 1.2 2.08l8.108 4.693a2.4 2.405 0 0 0 1.202.323 2.4 2.405 0 0 0 .002 0 2.4 2.405 0 0 0 .055-.001 2.4 2.405 0 0 0 .076-.003 2.4 2.405 0 0 0 1.065-.317l1.803-1.044 2.302 1.34c1.029.599 2.686.599 3.716 0l1.029-.6c1.029-.598 1.029-1.563 0-2.162l-2.29-1.332 1.547-.895a2.4 2.405 0 0 0 1.2-2.05 2.4 2.405 0 0 0 0-.002 2.4 2.405 0 0 0 0-.028V7.099a2.4 2.405 0 0 0 0-.003 2.4 2.405 0 0 0 0-.04 2.4 2.405 0 0 0 0-.004 2.4 2.405 0 0 0-.002-.04 2.4 2.405 0 0 0-1.198-2l-3.58-2.07-4.529-2.62a2.4 2.405 0 0 0-.434-.196 2.4 2.405 0 0 0-.083-.027 2.4 2.405 0 0 0-.001 0 2.4 2.405 0 0 0-.04-.012 2.4 2.405 0 0 0-.002 0 2.4 2.405 0 0 0-.04-.01 2.4 2.405 0 0 0-.002-.001 2.4 2.405 0 0 0-.041-.01 2.4 2.405 0 0 0-.002 0 2.4 2.405 0 0 0-.04-.01 2.4 2.405 0 0 0-.002 0 2.4 2.405 0 0 0-.04-.01 2.4 2.405 0 0 0-.002 0 2.4 2.405 0 0 0-.042-.007 2.4 2.405 0 0 0-.001 0 2.4 2.405 0 0 0-.042-.008 2.4 2.405 0 0 0-.001 0 2.4 2.405 0 0 0-.085-.012 2.4 2.405 0 0 0-.001 0 2.4 2.405 0 0 0-.002 0 2.4 2.405 0 0 0-.128-.013 2.4 2.405 0 0 0-.11-.005 2.4 2.405 0 0 0-.02 0A2.4 2.405 0 0 0 10.52 0zm-.024 5.305a1.32 1.323 0 0 1 .288.029 1.32 1.323 0 0 1 .032.007 1.32 1.323 0 0 1 .031.008 1.32 1.323 0 0 1 .031.009 1.32 1.323 0 0 1 .031.01 1.32 1.323 0 0 1 .061.02 1.32 1.323 0 0 1 .06.025 1.32 1.323 0 0 1 .03.013 1.32 1.323 0 0 1 .023.01 1.32 1.323 0 0 1 .006.003 1.32 1.323 0 0 1 .008.005 1.32 1.323 0 0 1 .02.01 1.32 1.323 0 0 1 .009.005 1.32 1.323 0 0 1 .02.01 1.32 1.323 0 0 1 .008.005 1.32 1.323 0 0 1 .014.008L13.967 7.1l1.66.96a1.32 1.323 0 0 1 .005.003 1.32 1.323 0 0 1 .023.014 1.32 1.323 0 0 1 .027.017 1.32 1.323 0 0 1 .426.45v-.002a1.32 1.323 0 0 1 .003.004l-.003.002a1.32 1.323 0 0 1 .178.661v5.16a1.32 1.323 0 0 1-.056.381 1.32 1.323 0 0 1-.001.002 1.32 1.323 0 0 1-.01.029 1.32 1.323 0 0 1 0 .002 1.32 1.323 0 0 1-.01.029 1.32 1.323 0 0 1 0 .001 1.32 1.323 0 0 1-.01.029 1.32 1.323 0 0 1-.001.002 1.32 1.323 0 0 1-.571.667l-4.46 2.582a1.32 1.323 0 0 1-1.319 0l-4.46-2.582a1.32 1.323 0 0 1-.66-1.143V9.207a1.32 1.323 0 0 1 .178-.662l.002.001a1.32 1.323 0 0 1 .482-.484l4.46-2.58a1.32 1.323 0 0 1 .646-.177z"/></svg>
