<svg xmlns="http://www.w3.org/2000/svg" width="48" height="48" fill="none"><path fill="url(#a)" d="M46.45 23.725a22.726 22.726 0 1 1-45.451 0 22.726 22.726 0 0 1 45.45 0Z"/><path fill="url(#b)" d="M44.669 23.725a20.944 20.944 0 1 1-41.889 0 20.944 20.944 0 0 1 41.889 0Z"/><path fill="#F4F2F3" fill-rule="evenodd" d="M23.42 4.178a.305.305 0 1 1 .61 0v3.523a.305.305 0 1 1-.61 0V4.178ZM21.666 4a.305.305 0 0 1 .335.272l.154 1.473a.305.305 0 1 1-.608.063l-.153-1.473A.305.305 0 0 1 21.666 4Zm4.07 0a.305.305 0 0 0-.273.273l-.155 1.473a.305.305 0 1 0 .608.064l.155-1.473A.305.305 0 0 0 25.737 4Zm-6.122.303a.305.305 0 0 1 .362.236l.73 3.446a.305.305 0 1 1-.598.126l-.73-3.446a.305.305 0 0 1 .236-.362Zm8.175-.003a.304.304 0 0 0-.3.242l-.733 3.445a.305.305 0 1 0 .598.127l.732-3.445a.305.305 0 0 0-.297-.369Zm-10.192.563a.305.305 0 0 1 .385.196l.457 1.41a.305.305 0 1 1-.58.188l-.459-1.41a.305.305 0 0 1 .197-.384Zm12.14-.013a.305.305 0 0 0-.265.21l-.458 1.409a.305.305 0 1 0 .58.189l.459-1.41a.305.305 0 0 0-.317-.398Zm-14.075.734a.304.304 0 0 1 .403.155l1.43 3.219a.305.305 0 1 1-.557.248l-1.43-3.219a.305.305 0 0 1 .154-.403Zm16.033-.015a.305.305 0 0 0-.285.18l-1.435 3.217a.305.305 0 1 0 .558.25l1.435-3.217a.305.305 0 0 0-.273-.43Zm-17.886.98a.305.305 0 0 1 .417.112l.74 1.283a.305.305 0 1 1-.528.306l-.74-1.284a.305.305 0 0 1 .111-.417Zm19.659-.04a.304.304 0 0 0-.243.152l-.741 1.283a.305.305 0 1 0 .529.306l.74-1.284a.305.305 0 0 0-.285-.457Zm-21.4 1.147a.304.304 0 0 1 .426.068l2.07 2.85a.305.305 0 1 1-.495.36L12 8.081a.305.305 0 0 1 .068-.426Zm23.167-.043a.304.304 0 0 0-.258.126l-2.072 2.848a.305.305 0 1 0 .494.36l2.072-2.849a.305.305 0 0 0-.236-.485ZM10.457 8.984a.305.305 0 0 1 .431.023l.991 1.101a.305.305 0 1 1-.454.409l-.99-1.101a.305.305 0 0 1 .022-.432Zm26.319-.076a.306.306 0 0 0-.211.101l-.992 1.101a.305.305 0 1 0 .454.409l.992-1.101a.305.305 0 0 0-.243-.51ZM8.97 10.444a.305.305 0 0 1 .431-.023l2.618 2.356a.305.305 0 1 1-.409.454l-2.617-2.356a.305.305 0 0 1-.023-.431Zm29.307-.091a.304.304 0 0 0-.22.078l-2.62 2.355a.305.305 0 1 0 .409.454l2.62-2.355a.305.305 0 0 0-.189-.532ZM7.681 12.068A.305.305 0 0 1 8.108 12l1.198.87a.305.305 0 1 1-.36.495l-1.198-.871a.305.305 0 0 1-.067-.426Zm31.84-.115a.306.306 0 0 0-.17.058l-1.198.87a.305.305 0 1 0 .358.494l1.2-.87a.305.305 0 0 0-.19-.552ZM6.533 13.799a.306.306 0 0 1 .417-.112L10 15.45a.305.305 0 1 1-.305.529l-3.05-1.761a.305.305 0 0 1-.112-.418Zm34.142-.152a.302.302 0 0 0-.175.04l-3.05 1.762a.305.305 0 1 0 .305.529l3.05-1.761a.305.305 0 0 0-.13-.57Zm-35.062 2a.304.304 0 0 1 .403-.155l1.353.603a.305.305 0 1 1-.249.558l-1.353-.604a.305.305 0 0 1-.154-.403Zm35.946-.17c-.04.002-.08.01-.118.027l-1.354.603a.305.305 0 1 0 .248.558l1.354-.603a.305.305 0 0 0-.13-.584ZM4.85 17.576a.304.304 0 0 1 .385-.195l3.349 1.09a.305.305 0 1 1-.19.581l-3.348-1.09a.305.305 0 0 1-.196-.386Zm37.49-.197a.297.297 0 0 0-.12.014l-3.35 1.09a.305.305 0 1 0 .19.58l3.349-1.089a.305.305 0 0 0-.068-.595ZM4.327 19.602a.305.305 0 0 1 .3-.242c.02 0 .042.003.062.007l1.45.308a.305.305 0 1 1-.128.597l-1.449-.308a.305.305 0 0 1-.235-.362Zm38.499-.24c-.02.001-.041.004-.062.007l-1.449.308a.305.305 0 1 0 .127.598l1.449-.308a.305.305 0 0 0-.065-.604ZM3.983 21.639a.304.304 0 0 1 .336-.271l3.503.37a.305.305 0 1 1-.064.607l-3.503-.37a.305.305 0 0 1-.272-.336Zm39.214-.245a.28.28 0 0 0-.062 0l-3.503.366a.305.305 0 1 0 .063.607L43.198 22a.305.305 0 0 0-.001-.607ZM3.893 23.725c0-.169.136-.305.305-.305h1.481a.305.305 0 1 1 0 .61H4.199a.305.305 0 0 1-.305-.305Zm37.878-.305a.305.305 0 1 0 0 .61h1.482a.305.305 0 1 0 0-.61H41.77ZM7.756 25.085a.305.305 0 1 1 .063.607l-3.503.366a.305.305 0 1 1-.063-.607l3.503-.366Zm31.875.021a.305.305 0 0 0-.002.608l3.503.37a.305.305 0 1 0 .064-.607l-3.503-.37a.322.322 0 0 0-.062 0ZM6.01 27.176a.305.305 0 1 1 .127.598l-1.45.307a.305.305 0 1 1-.126-.597l1.449-.308Zm35.369-.004a.305.305 0 0 0-.065.604l1.449.308a.305.305 0 1 0 .127-.597l-1.45-.308a.295.295 0 0 0-.061-.007ZM8.39 28.39a.305.305 0 1 1 .189.58l-3.35 1.09a.305.305 0 1 1-.188-.581l3.35-1.09Zm30.544-.003a.305.305 0 0 0-.069.595l3.35 1.09a.305.305 0 1 0 .189-.58L39.056 28.4a.305.305 0 0 0-.12-.014Zm-31.82 2.4a.306.306 0 1 1 .249.558l-1.354.603a.305.305 0 1 1-.248-.558l1.353-.603Zm33.097-.015a.305.305 0 0 0-.13.584l1.353.604a.305.305 0 1 0 .248-.558l-1.353-.603a.306.306 0 0 0-.118-.027Zm-30.517.703a.304.304 0 0 1 .417.112.305.305 0 0 1-.111.416l-3.05 1.761a.305.305 0 1 1-.306-.528l3.05-1.761Zm27.887-.041a.305.305 0 0 0-.131.57l3.05 1.76a.305.305 0 1 0 .305-.528l-3.05-1.761a.305.305 0 0 0-.174-.041ZM8.939 34.076a.306.306 0 1 1 .36.494l-1.2.87a.305.305 0 1 1-.359-.494l1.2-.87Zm29.396-.048a.305.305 0 0 0-.19.553l1.199.87a.305.305 0 1 0 .359-.494l-1.199-.87a.305.305 0 0 0-.169-.06Zm-26.731.183a.304.304 0 0 1 .431.023.305.305 0 0 1-.023.431l-2.62 2.355a.305.305 0 1 1-.407-.454l2.619-2.355Zm24.015-.07a.305.305 0 0 0-.188.533l2.617 2.356a.305.305 0 1 0 .41-.454l-2.619-2.356a.304.304 0 0 0-.22-.078Zm-21.567 2.363a.304.304 0 0 1 .426-.067c.137.1.167.29.067.427l-2.072 2.848a.305.305 0 1 1-.494-.36l2.073-2.848Zm19.072-.113a.306.306 0 0 0-.236.485l2.068 2.851a.305.305 0 1 0 .494-.358l-2.068-2.852a.305.305 0 0 0-.258-.126Zm-21.7.541a.306.306 0 1 1 .453.409l-.991 1.1a.305.305 0 1 1-.454-.408l.992-1.1Zm24.39-.1a.305.305 0 0 0-.243.51l.992 1.101a.305.305 0 1 0 .453-.408l-.99-1.101a.304.304 0 0 0-.212-.101Zm-18.896 1.403a.304.304 0 0 1 .403-.154.305.305 0 0 1 .155.403l-1.435 3.217a.305.305 0 1 1-.558-.25l1.435-3.216Zm13.31-.172a.306.306 0 0 0-.273.43l1.43 3.218a.305.305 0 1 0 .559-.248l-1.43-3.219a.305.305 0 0 0-.285-.181ZM14.439 39.2a.304.304 0 0 1 .417-.112c.147.085.197.27.112.417l-.74 1.283a.305.305 0 1 1-.53-.305l.741-1.283Zm18.332-.152a.305.305 0 0 0-.286.458l.74 1.282a.305.305 0 1 0 .53-.305l-.741-1.283a.305.305 0 0 0-.243-.152Zm-12.673.288a.304.304 0 0 1 .3-.242.304.304 0 0 1 .297.369l-.732 3.445a.305.305 0 1 1-.597-.127l.732-3.445Zm6.945-.24a.305.305 0 0 0-.297.368l.73 3.446a.305.305 0 1 0 .597-.127l-.73-3.445a.305.305 0 0 0-.3-.242Zm-3.622.653a.305.305 0 1 1 .61 0v3.522a.305.305 0 1 1-.61 0V39.75Zm-5.3.832a.305.305 0 0 0-.264.21l-.458 1.41a.305.305 0 1 0 .58.188l.459-1.409a.305.305 0 0 0-.317-.399Zm11.088.015a.305.305 0 0 1 .385.196l.457 1.41a.305.305 0 1 1-.58.188l-.458-1.409a.305.305 0 0 1 .196-.385Zm-7.4.77a.305.305 0 0 0-.273.273l-.155 1.474a.305.305 0 1 0 .607.064l.155-1.474a.305.305 0 0 0-.333-.336Zm3.76.003a.304.304 0 0 1 .335.272l.154 1.473a.305.305 0 1 1-.607.064l-.154-1.474a.305.305 0 0 1 .272-.335Z" clip-rule="evenodd"/><path fill="#000" d="m38.037 11.511-16.706 9.707-10.563 16.629L26.22 26.401l11.816-14.89Z" opacity=".409"/><path fill="#FF5150" d="m26.12 26.232-4.79-5.015L38.319 9.79 26.119 26.232Z"/><path fill="#F1F1F1" d="m26.119 26.232-4.789-5.015L9.132 37.66l16.987-11.428Z"/><path fill="#000" d="m9.132 37.66 16.987-11.428L38.318 9.79 9.132 37.66Z" opacity=".243"/><defs><radialGradient id="b" cx="0" cy="0" r="1" gradientTransform="translate(23.82 20.671) scale(22.725)" gradientUnits="userSpaceOnUse"><stop stop-color="#06C2E7"/><stop offset=".25" stop-color="#0DB8EC"/><stop offset=".5" stop-color="#12AEF1"/><stop offset=".75" stop-color="#1F86F9"/><stop offset="1" stop-color="#107DDD"/></radialGradient><linearGradient id="a" x1="46.45" x2="46.45" y1="46.45" y2="1" gradientUnits="userSpaceOnUse"><stop stop-color="#BDBDBD"/><stop offset="1" stop-color="#fff"/></linearGradient></defs></svg>