<svg xmlns="http://www.w3.org/2000/svg" viewBox="0 0 24 24" width="32" height="32" fill="none"><g clip-path="url(#a)"><path fill="#fff" d="m6.046 4.95-.003.003h.007l-.004-.004Zm17.28.003H6.041l-.218.225-.037.041c-.166.174-.34.34-.513.497A11.058 11.058 0 0 1 .628 8.308c-.05.015-.098.026-.147.04l-.219.054-.05.218c-.018.08-.033.16-.05.242A9.042 9.042 0 0 0 5.52 18.893c.091.041.182.076.272.113l.11.041.014.004.007-.004s.017.004.026.004h17.374a.678.678 0 0 0 .678-.677V5.626a.669.669 0 0 0-.664-.673h-.01Zm-1.174 1.083-7.233 6.305a.394.394 0 0 1-.518-.004l-2.358-2.09a8.668 8.668 0 0 0-.163-1.497 8.827 8.827 0 0 1-.022-.128l-.05-.218-.218-.057c-.054-.011-.106-.026-.16-.037a10.802 10.802 0 0 1-3.358-1.58l-.782-.692h14.862v-.002Zm-9.736 5.948-.594.525c.069-.3.123-.604.16-.91l.434.385ZM5.93 18.282a8.372 8.372 0 0 1-5.203-7.713c0-.527.05-1.052.151-1.57a11.754 11.754 0 0 0 4.396-2.257c.268-.214.525-.445.772-.687A11.768 11.768 0 0 0 11.19 8.99a8.684 8.684 0 0 1 .137 1.505c0 .17-.004.34-.018.51a8.17 8.17 0 0 1-.518 2.42 8.355 8.355 0 0 1-4.861 4.859v-.002Zm2.109-.28a9.07 9.07 0 0 0 3.007-3.38l2.17-1.917 1.178 1.054c.15.131.371.131.521 0l1.2-1.065 6.022 5.301-14.098.008Zm8.894-6.021 6.026-5.353.011 10.678-6.037-5.324v-.001Zm-9.377 4.29c.287-.21.555-.448.8-.706l-.8.706Zm2.686-6.207a7.605 7.605 0 0 0-.068-.453 8.398 8.398 0 0 1-.703-.226c-.002 0-.003 0-.003-.003-.061-.019-.117-.045-.178-.069a6.143 6.143 0 0 1-.395-.173 4.651 4.651 0 0 1-.276-.132 8.518 8.518 0 0 1-.808-.46 6.177 6.177 0 0 1-.388-.26 10.39 10.39 0 0 1-1.09-.876 6.65 6.65 0 0 1-.29-.272c-.246.238-.503.467-.77.687A9.268 9.268 0 0 1 1.89 9.62c-.08.416-.12.84-.12 1.264a6.84 6.84 0 0 0 3.506 5.954c.219.12.444.228.675.322.135-.054.272-.11.403-.17.004 0 .006 0 .007-.004a5.86 5.86 0 0 0 .703-.375c.05-.03.098-.061.144-.09a.09.09 0 0 0 .03-.023c.085-.052.166-.109.245-.17a.327.327 0 0 0 .076-.057l.8-.706s.008 0 .008-.004a6.874 6.874 0 0 0 1.92-4.74 7.404 7.404 0 0 0-.044-.757Zm-3.896 3.878-.616.615h-.004L3.18 12.01l.782-.79 1.77 1.77.615-.616 2.148-2.151.785.785-2.933 2.934Z"/></g><defs><clipPath id="a"><path fill="#fff" d="M0 0h24v24H0z"/></clipPath></defs></svg>
