<svg xmlns="http://www.w3.org/2000/svg" viewBox="0 0 24 24" width="32" height="32" fill="none"><g fill="#231F20" clip-path="url(#a)"><path d="M3.776 10.338c1.954 0 3.469-.982 3.469-2.757 0-1.813-1.42-2.298-2.995-2.665-1.267-.285-1.919-.427-1.919-1.019 0-.474.486-.793 1.22-.793.782 0 1.28.367 1.363 1.018H6.96c-.083-1.776-1.503-2.604-3.339-2.604-1.894 0-3.362.793-3.362 2.604C.26 5.9 1.81 6.35 3.28 6.692c1.16.285 1.848.427 1.848 1.102 0 .64-.675.888-1.362.888-1.007 0-1.564-.355-1.659-1.208H0c.047 1.87 1.527 2.864 3.776 2.864ZM11 8.954c-.842 0-1.28-.734-1.28-1.836 0-1.101.438-1.848 1.28-1.848.84 0 1.29.747 1.29 1.848 0 1.102-.45 1.836-1.29 1.836Zm.011 1.373c1.954 0 3.232-1.384 3.232-3.209 0-1.824-1.278-3.208-3.232-3.208-1.942 0-3.243 1.384-3.243 3.208 0 1.825 1.301 3.209 3.243 3.209ZM16.86 1.672h-1.952v8.465h1.952V1.672ZM20.756 8.954c-.84 0-1.28-.734-1.28-1.836 0-1.101.44-1.848 1.28-1.848.841 0 1.292.747 1.292 1.848 0 1.102-.45 1.836-1.292 1.836Zm.012 1.373c1.954 0 3.232-1.384 3.232-3.209 0-1.824-1.278-3.208-3.232-3.208-1.942 0-3.244 1.384-3.244 3.208 0 1.825 1.302 3.209 3.244 3.209ZM.107 20.457H1.17v-3l1.362-1.363 3.185 4.363H6.96L3.255 15.37l3.422-3.39H5.339L1.17 16.188V11.98H.107v8.477Z"/><path d="M9.733 20.622c1.386 0 2.344-.744 2.628-2.06h-.934c-.214.83-.806 1.257-1.694 1.257-1.232 0-1.908-.948-1.979-2.192h4.737c0-2.024-.982-3.444-2.818-3.444-1.74 0-2.9 1.443-2.9 3.22 0 1.776 1.088 3.22 2.96 3.22Zm-.06-5.683c1.102 0 1.73.747 1.79 1.967H7.777c.142-1.114.758-1.967 1.895-1.967ZM14.209 22.482c.745 0 1.219-.26 1.716-1.526l2.616-6.62h-1.018l-1.396 3.813c-.19.51-.403 1.196-.403 1.196H15.7s-.225-.687-.414-1.196l-1.444-3.813H12.8l2.391 5.945-.237.603c-.236.593-.509.746-.911.746-.32 0-.52-.059-.651-.13h-.047v.852c.26.106.497.13.864.13ZM21.479 20.634c1.41 0 2.415-.626 2.415-1.858 0-1.409-1.03-1.681-2.261-1.93-1.055-.213-1.647-.344-1.647-1.007 0-.486.355-.876 1.232-.876.912 0 1.35.355 1.445 1.16h.982c-.142-1.196-.887-1.917-2.403-1.917-1.421 0-2.202.662-2.202 1.68 0 1.339 1.076 1.588 2.285 1.836 1.125.237 1.599.415 1.599 1.102 0 .568-.415 1.007-1.422 1.007-.912 0-1.622-.296-1.752-1.363h-.982c.095 1.375 1.029 2.166 2.71 2.166Z"/></g><defs><clipPath id="a"><path fill="#fff" d="M0 0h24v24H0z"/></clipPath></defs></svg>
