<svg xmlns="http://www.w3.org/2000/svg" viewBox="0 0 24 24" width="32" height="32" fill="none">
  <g clip-path="url(#a)">
    <path fill="#1F2845" d="M19.76 23.91c-.515-.166-.695-.335-1.603-1.499a379.59 379.59 0 0 0-2.216-2.76c-.414-.519-.99-1.232-1.276-1.586l-.576-.717c-.033-.04-.13-.165-.216-.28-.087-.113-.17-.206-.184-.206-.015 0-.21.086-.436.194-.887.422-1.798.606-3.005.613-1.017.003-1.68-.09-2.523-.364a8.588 8.588 0 0 1-3.993-2.66 13.994 13.994 0 0 0-.209-.234c-.047-.04-.565-.785-.713-1.027-.306-.5-.79-1.589-.854-1.924-.022-.1-.018-.104.205-.144.126-.022.476-.072.771-.112.3-.04.638-.09.757-.108.339-.05 1.326-.14 1.795-.158.425-.015.425-.015.457.072.087.223.346.702.498.915.212.299.688.796.944.987.53.397 1.182.696 1.856.854.313.076.45.087 1.044.087.635 0 .71-.007 1.035-.098 1.131-.317 2.086-1.005 2.821-2.028.296-.415.775-1.395.775-1.59 0-.043.285-.05 1.888-.05 1.042 0 1.9.011 1.907.029.025.043-.137.868-.25 1.258a11.949 11.949 0 0 1-.871 2.147c-.303.57-.436.815-.494.905-.05.075-.036.104.256.493l.41.537c.058.069.22.285.368.476.382.504 1.68 2.205 2.321 3.041l.573.754.63.825c.527.688.548.739.617 1.232.083.642-.007 1.042-.35 1.51-.184.249-.223.281-.493.41-.653.31-1.154.372-1.665.206Z"/>
    <path fill="#6673FF" d="M1.722 8.783a.875.875 0 0 0-.015-.12c-.025-.133.054-1.077.13-1.523.148-.901.403-1.687.814-2.512.152-.306.782-1.29.908-1.42.033-.032.137-.158.235-.274.245-.299.731-.767 1.127-1.088C6.152.862 7.748.21 9.383.033c.464-.05 1.517-.043 2 .018a8.525 8.525 0 0 1 3.387 1.16A8.59 8.59 0 0 1 17.59 3.89c.743 1.142 1.23 2.544 1.312 3.777l.022.331H15.14l-.025-.151c-.133-.843-.75-1.99-1.449-2.685-.641-.638-1.625-1.15-2.537-1.311-.44-.08-1.38-.062-1.837.036-1.46.31-2.67 1.225-3.298 2.49-.317.634-.483 1.24-.493 1.805l-.004.238-.562.021c-.735.033-1.77.155-2.79.336-.36.06-.42.06-.424.007Z"/>
  </g>
  <defs>
    <clipPath id="a">
      <path fill="#fff" d="M0 0h24v24H0z"/>
    </clipPath>
  </defs>
</svg>
