<svg xmlns="http://www.w3.org/2000/svg" viewBox="0 0 24 24" width="32" height="32" fill="none"><g clip-path="url(#a)"><path fill="#6573FF" d="M24 2.512C24 1.28 22.974.304 21.737.304H2.29C1.027.278 0 1.279 0 2.512v2.054s8.948 8.449 12.027 8.449C15.341 13.015 24 4.618 24 4.618V2.512Z"/><path fill="#202945" d="M0 21.488c0 1.233 1.027 2.209 2.266 2.209h19.468C23 23.697 24 22.695 24 21.488V6.98s-7.64 8.628-11.987 8.628C7.719 15.608 0 8.649 0 8.649v12.84Z"/></g><defs><clipPath id="a"><path fill="#fff" d="M0 0h24v24H0z"/></clipPath></defs></svg>
