<svg xmlns="http://www.w3.org/2000/svg" width="400" height="400"><g fill-rule="evenodd"><path fill="#f4f5f5" d="M192.969 62.129c-26.656 3.317-47.983 19.882-57.565 44.71-3.853 9.982-4.545 15.747-4.545 37.851v17.306l-6.738.232c-14.347.494-22.587 5.938-26.729 17.659l-1.103 3.121V212.5c0 32.127.031 32.689 2.391 43.3 7.874 35.404 34.139 64.851 68.117 76.367 64.962 22.019 132.511-23.702 137.132-92.819.687-10.284.297-55.379-.502-58.008-3.668-12.066-12.845-18.84-25.525-18.84-2.61 0-5.562-.112-6.558-.248l-1.813-.249v-16.507c0-21.046-.486-25.958-3.516-35.535-9.734-30.76-41.753-51.726-73.046-47.832m15.537 24.046c16.237 2.877 30.363 15.383 35.396 31.336 2.023 6.411 2.192 8.514 2.192 27.267v17.331h-91.797v-17.331c0-13.608.125-18.05.582-20.673 4.48-25.69 28.165-42.442 53.627-37.93m-2.898 121.866c16.242 4.187 21.698 24.248 9.976 36.683-4.224 4.481-4.355 4.975-3.637 13.767.717 8.774.689 10.256-.241 12.743-3.982 10.643-19.039 10.643-23.021 0-.93-2.485-.959-3.97-.244-12.722.716-8.755.61-9.191-3.224-13.329-15.541-16.775-1.291-42.732 20.391-37.142"/><path fill="#1444b4" d="M66.797.623C32.566 5.597 5.384 32.911.611 67.13c-.93 6.668-.93 259.072 0 265.74 4.796 34.385 32.134 61.723 66.519 66.519 6.668.93 259.072.93 265.74 0 34.385-4.796 61.723-32.134 66.519-66.519.93-6.668.93-259.072 0-265.74C394.594 32.754 367.246 5.406 332.87.611 326.655-.256 72.766-.244 66.797.623m147.07 62.252c28.834 6.201 50.351 28.799 55.107 57.871.535 3.274.698 7.656.843 22.669l.18 18.61 7.091.164c13.738.317 22.526 6.264 26.147 17.694 1.083 3.416 1.371 60.296.341 67.187-9.283 62.11-67.941 102.556-127.694 88.048-42.787-10.389-75.15-47.632-79.396-91.368-.9-9.268-.357-61.056.672-64.062 3.924-11.473 12.498-17.212 26.144-17.502l7.092-.15.179-18.616c.281-29.073 2.88-38.928 14.315-54.268 15.529-20.833 43.951-31.661 68.979-26.277m-20.508 23.266c-18.263 2.85-33.014 16.445-37.53 34.59-1.16 4.66-1.519 10.98-1.526 26.828l-.006 14.55h91.797l-.006-14.55c-.007-15.848-.367-22.168-1.527-26.828-5.762-23.154-28.041-38.204-51.202-34.59m3.259 121.686c-17.389 3.099-23.811 23.765-11.46 36.877 4.079 4.331 4.177 4.691 3.58 13.041-.882 12.331-.586 14.057 3.034 17.681 4.868 4.873 11.978 4.873 16.847 0 3.62-3.624 3.916-5.35 3.034-17.681-.598-8.35-.499-8.71 3.58-13.041 14.6-15.5 1.959-40.543-18.615-36.877"/><path fill="#6884c7" d="m273.026 307.715-1.346 1.465 1.465-1.346c.805-.741 1.464-1.4 1.464-1.465 0-.299-.33-.018-1.583 1.346"/><path fill="#4c6cc4" d="m150.952 82.129-1.147 1.269 1.269-1.147c1.184-1.069 1.449-1.392 1.148-1.392-.068 0-.639.572-1.27 1.27m-20.305 64.16c0 8.809.051 12.468.114 8.132a678.6 678.6 0 0 0 0-16.016c-.062-4.472-.114-.925-.114 7.884m139.059 3.32c0 6.983.053 9.839.118 6.348a419.72 419.72 0 0 0 0-12.695c-.065-3.491-.118-.635-.118 6.347"/><path fill="#8c9ccc" d="M274.121 162.399c1.343.076 3.54.076 4.883 0 1.343-.077.244-.139-2.441-.139-2.686 0-3.785.062-2.442.139m29.892 75.882c0 .967.076 1.363.169.879a5.574 5.574 0 0 0 0-1.758c-.093-.483-.169-.088-.169.879m-109.97 99.495a5.574 5.574 0 0 0 1.758 0c.483-.093.088-.17-.879-.17s-1.362.077-.879.17m10.547 0a5.574 5.574 0 0 0 1.758 0c.483-.093.088-.17-.879-.17s-1.363.077-.879.17"/><path fill="#3c62ba" d="M269.67 133.789c-.001 1.934.065 2.774.147 1.867.082-.906.083-2.488.002-3.515-.081-1.027-.148-.286-.149 1.648"/></g></svg>