<svg xmlns="http://www.w3.org/2000/svg" viewBox="0 0 24 24" width="32" height="32" fill="none"><g fill="#fff" clip-path="url(#a)"><path fill-rule="evenodd" d="M12.383 2.126c-5.453 0-9.874 4.42-9.874 9.874 0 5.453 4.42 9.874 9.874 9.874 5.453 0 9.874-4.42 9.874-9.874 0-5.453-4.42-9.874-9.874-9.874ZM1.053 12C1.053 5.743 6.126.67 12.383.67S23.713 5.743 23.713 12s-5.073 11.33-11.33 11.33S1.053 18.257 1.053 12Z" clip-rule="evenodd"/><path d="M21.117 9.404a2.177 2.177 0 0 0 2.766-1.358 2.177 2.177 0 0 0-1.359-2.766 2.177 2.177 0 0 0-2.766 1.358 2.178 2.178 0 0 0 1.359 2.766Z"/><path fill-rule="evenodd" d="m14.053 12.871 7.302-6.065.93 1.12-7.302 6.065-.93-1.12Z" clip-rule="evenodd"/><path d="M16.968 19.885a2.213 2.213 0 0 0 1.99 2.377 2.198 2.198 0 0 0 2.377-1.989 2.213 2.213 0 0 0-1.99-2.378c-1.212-.097-2.28.777-2.377 1.99Z"/><path fill-rule="evenodd" d="m15.116 13.017 4.61 6.647-1.197.83-4.61-6.648 1.197-.83Z" clip-rule="evenodd"/><path d="M12.698 14.62c.655 1.02 2.014 1.31 3.009.655 1.019-.655 1.31-2.013.655-3.008-.655-1.019-2.014-1.31-3.009-.655-1.018.63-1.31 1.99-.655 3.008ZM3.285 12.704c-1.043-.607-2.377-.267-2.984.752-.606 1.043-.267 2.377.752 2.984 1.043.606 2.378.267 2.984-.752.607-1.02.267-2.354-.752-2.984Z"/><path fill-rule="evenodd" d="m14.585 14.156-12.349 1.14-.134-1.449 12.349-1.14.134 1.45Z" clip-rule="evenodd"/></g><defs><clipPath id="a"><path fill="#fff" d="M0 0h24v24H0z"/></clipPath></defs></svg>
