<svg xmlns="http://www.w3.org/2000/svg" viewBox="0 0 24 24" width="40" height="40" fill="none"><path fill="#fff" d="M10.676 23.945c-.695-.1-1.486-.358-1.587-.519-.025-.045.075-.045.857.02.655.05 1.582.101 2.015.101.449 0 1.532-.065 1.588-.1.015-.006.216-.03.453-.051.237-.02.439-.04.454-.05.015-.005.207-.03.428-.05.222-.02.418-.046.439-.061.025-.01.04 0 .04.025 0 .141-1.285.544-2.096.665-.6.09-2.031.101-2.59.02Zm.348-2.741c-1.028-.076-2.187-.388-3.069-.832-.459-.226-1.114-.63-1.033-.63.03 0 .277.071.554.152.943.287 1.98.504 2.999.625.574.07 2.03.09 2.635.035a17.518 17.518 0 0 0 3.588-.731c.303-.096.56-.171.57-.161.045.05-.444.393-.811.574-1.517.741-3.558 1.104-5.433.968Zm.61-3.14a5.257 5.257 0 0 0-.56-.055c-2.368-.141-5.05-1.235-6.848-2.792-.408-.353-.484-.439-.403-.489.065-.04.186.025.705.378 1.94 1.31 3.981 2.036 6.365 2.253.54.05 2.258.05 2.807 0 1.34-.121 2.757-.479 4.057-1.018.61-.252.851-.378 1.577-.817.932-.559 1.073-.584.63-.11-.484.514-1.764 1.264-3.039 1.768a12.11 12.11 0 0 1-3.11.797c-.483.06-2.14.126-2.181.085ZM11.21 14.4c-.725-.196-1.436-.645-2.151-1.355-.892-.892-1.326-1.89-1.391-3.175-.03-.585.025-1.018.211-1.693.036-.136.101-.383.147-.544.06-.242.241-.615.483-.993.096-.156.907-1.563 1.33-2.318.46-.807 1.558-3.009 1.84-3.69.09-.211.232-.443.313-.523.14-.136.146-.136.246-.046.111.101.328.464.383.645.142.469.716 1.81.968 2.253.212.383.313.534 1.618 2.474 1.174 1.749 1.496 2.54 1.552 3.775.07 1.602-.423 2.953-1.451 3.976-.555.55-1.482 1.058-2.248 1.235-.499.11-1.396.106-1.85-.02Z"/></svg>
