<svg xmlns="http://www.w3.org/2000/svg" width="32" height="32" viewBox="0 0 22 22"><path d="m10.1.02-.37.03A11.04 11.04 0 0 0 .07 9.6c-.06.42-.09 1.86-.05 2.33a10.86 10.86 0 0 0 3.11 6.73 10.6 10.6 0 0 0 3.07 2.2 10.5 10.5 0 0 0 4.77 1.1 11.05 11.05 0 0 0 8.3-3.79 10.98 10.98 0 0 0-6.32-18c-.72-.13-.9-.15-1.84-.15h-1.02Zm2.72 2.75c.74.28.91.3 1.92.34.84.02 1.04.05 1.31.18l.14.08s-.17.04-.37.06c-.68.1-.81.15-1.24.4l-.62.36c-.43.25-.71.56-.94 1.04-.17.37-.22.56-.22.9 0 .7.32 1.7.9 2.8.2.38.5.92.55.98a7.67 7.67 0 0 1 1.02 3.03c0-.01.02 0 .02.03l.01.2c.01.1 0 .14-.01.12-.02 0-.03 0-.02.02l.03.11c.02.06.02.06-.02.01-.02-.03-.05-.04-.05-.02 0 .04-.08-.13-.08-.18 0-.03 0-.03-.02 0-.02.05-.03.05-.04.03-.04-.05-.1.02-.09.1v.02c-.02-.04-.02-.04-.04-.01s-.03.02-.03-.03c0-.03-.02-.06-.04-.06-.03 0-.04.03-.04.08 0 .07 0 .07.03.02.02-.05.02-.05.02 0-.01.07-.06.06-.07-.02 0-.05-.03-.07-.05-.06-.02 0-.04 0-.04-.02 0-.01-.01-.02-.03-.01-.02.01-.02.03 0 .06.03.03.02.03-.02.03h-.06l.03-.1c.02-.08.02-.1-.02-.08-.02 0-.04 0-.05-.02v.02c.01.08-.05.18-.1.18-.03 0-.05 0-.05-.02s.02-.03.04-.02c.02 0 .04 0 .04-.03s-.02-.04-.06-.02a.69.69 0 0 1-.1.01c-.02 0-.02.02-.02.04a.1.1 0 0 1-.02.07l-.03.03-.05-.08c-.04-.03-.06-.07-.06-.08.01-.01 0-.02-.02-.03-.01 0-.02.01-.02.03 0 .03-.02.05-.04.06-.02 0-.02.03.02.05.07.06.02.06-.05 0a.22.22 0 0 0-.1-.03c-.03 0-.06-.02-.06-.03 0-.02-.05-.02-.1-.02-.08 0-.1 0-.06.01.03 0 .05.03.05.05 0 .02.01.01.03-.01.02-.02.03-.03.04 0 .01.01 0 .04-.02.04a.08.08 0 0 1-.08-.02c-.02-.03-.02-.03-.02.01 0 .02.02.05.04.06.02 0 .02.02 0 .02-.03 0-.05-.03-.06-.06 0-.03-.03-.05-.05-.05-.03 0-.03.02-.02.04.02.05.02.05-.03 0-.06-.05-.1-.06-.11-.02-.02.03-.04.02-.06 0-.03-.02-.04-.02-.04 0 0 .03-.01.03-.04 0-.02-.01-.07-.02-.1 0-.07 0-.08 0-.08-.03s-.01-.05-.03-.06c-.02-.01-.02 0-.01.06 0 .06 0 .06-.01.02-.02-.04-.03-.04-.03-.01 0 .04 0 .04-.03 0-.02-.04-.03-.04-.03 0 0 .02 0 .03-.01.02v-.08c.03-.05.03-.07 0-.07s-.04.02-.03.04v.08c-.02.03-.02.03-.04 0s-.03-.02-.03.02-.02.03-.06-.05l-.05-.11.01.1.02.12-.05-.07c-.04-.04-.06-.05-.06-.02 0 .02-.02.06-.05.09-.03.05-.03.05-.02 0a.1.1 0 0 0-.03-.1c-.02-.02-.04 0-.04.04a.14.14 0 0 0 0 .07c.02 0 .02.01.02.03-.03.05-.06 0-.07-.12h-.03c-.02 0-.05 0-.07-.02-.04-.04-.1-.01-.08.04 0 .01-.01.05-.04.08-.05.05-.05.05-.04 0 .01-.04 0-.05-.06-.05-.05 0-.07 0-.05.03 0 .02 0 .03-.04.02l-.03-.04c0-.02-.02-.03-.04-.03a.12.12 0 0 1-.07-.04.18.18 0 0 0-.1-.04c-.06 0-.13-.06-.1-.1h-.03c-.04.02-.04.03 0 .07.05.05.1.14.08.16l-.06-.05c-.02-.04-.06-.08-.07-.08-.02 0-.02.01 0 .04.02.02.02.04-.01.08-.04.05-.07.04-.05-.02 0-.02 0-.04-.02-.06-.02 0-.03 0-.03.03 0 .05 0 .05-.13 0-.07-.02-.09-.03-.07-.09.01-.05 0-.06-.02-.05l-.03.12v.1l-.02-.1c-.04-.16-.07-.17-.05-.02v.08a.3.3 0 0 1-.04-.12v-.08l-.02.07c0 .04-.02.08-.03.08-.01 0-.02-.02 0-.04a.04.04 0 0 0-.04-.04c-.03 0-.04.02-.04.03.05.13.06.16.02.15-.02 0-.04-.03-.03-.05.01-.05-.05-.2-.08-.18-.02.02-.01.03 0 .04.03.02.03.05-.02.12-.05.08-.06.09-.05.02.02-.06.01-.07-.03-.09l-.06.01c0 .02.02.03.05.03.04 0 .04 0 0 .04s-.06.05-.07.02c-.01-.02-.04-.04-.05-.03-.06 0-.1 0-.1-.05 0-.02-.02-.04-.05-.04-.05 0-.06 0-.03.04.02.03.03.05.02.06 0 .01 0 .04.03.06.02.02.04.04.02.04-.05 0-.15-.13-.14-.17a.05.05 0 0 0-.03-.05c-.04-.01-.05.06 0 .1.02.02.01.03-.04.03s-.07-.01-.07-.04-.01-.05-.03-.06c-.03 0-.04 0-.03.03.03.06-.05.06-.14-.01a.33.33 0 0 0-.1-.06c-.02 0-.04-.02-.04-.06 0-.03 0-.04-.02-.03 0 .02-.02.04-.04.04-.01 0-.02-.02-.01-.04 0-.03 0-.03-.04-.02-.03 0-.05 0-.05-.02l-.02-.03a137.94 137.94 0 0 0-.88-.54l-1.15-.72-.83-.53-.35-.23c-.05-.03-.05-.04.07-.39.53-1.6.97-2.59 1.85-4.12a29.97 29.97 0 0 1 2.35-3.57 1.62 1.62 0 0 1 1.17-.36c.29 0 .32.01.68.14Zm2.32 10.63-.01-.04c0-.03 0-.05.01-.03v.07Zm-2.6.02-.07.01c-.04 0-.06 0-.04-.03.03-.03.1-.02.1.02Zm-1.02 0v.03c-.02 0-.03-.02-.04-.03l.01-.03c.02 0 .03.01.03.03Zm2.5 0c0 .01 0 .02-.03.01-.02 0-.05.02-.07.05-.01.04-.03.05-.04.03v-.03c.02 0 .03-.02.03-.05 0-.04.07-.05.1 0Zm-2.1.06c0 .02-.01.02-.01-.02 0-.03 0-.04.02-.03v.05Zm.9-.02c-.01.04-.06.06-.06.02 0-.02.02-.04.08-.06l-.02.04Zm.59-.02h-.05c-.02-.01-.01-.02.02-.02s.04.01.03.02Zm-.41.04v.02c-.02-.02-.04-.01-.07 0-.03.04-.05 0-.01-.04.03-.02.05-.01.08.02Zm2.2.06c0 .01-.02 0-.02-.04s.01-.05.02-.04v.08Zm-3.38.03c0 .02 0 0-.02-.01l-.03-.07c0-.02.02-.01.03.01l.02.07Zm.42-.04c0 .02-.01.03-.03.03-.01 0-.03-.02-.03-.05 0-.02.02-.03.03-.02.02 0 .03.03.03.04Zm.16-.03c0 .02 0 .03-.03.03-.01 0-.02-.01-.01-.03.01-.02.02-.02.03-.02l.01.02Zm.9-.02c0 .04-.04.05-.06.02 0-.01 0-.02.03-.02h.04Zm.5.02c0 .02 0 .03-.03.03 0 0-.02-.01 0-.03 0-.02.02-.02.02-.02l.01.02Zm.86.04c-.02.01-.03.02-.03 0 0-.04.03-.07.05-.05 0 0 0 .03-.02.05Zm-3.92 0-.01.02c-.02 0-.03-.02-.03-.03v-.03l.04.03Zm.81.02-.01.03-.03-.03c-.01-.02 0-.03.01-.03.02 0 .03 0 .03.03Zm-.41.06-.03.03h-.03c0-.03.02-.04.03-.04.02 0 .03 0 .03.02Zm0 0" style="stroke:none;fill-rule:nonzero;fill:#fff;fill-opacity:1"/><path d="M14.22 12.97c0 .03 0 .04.02.01v-.05c-.01 0-.02 0-.02.04Zm.48 0h.06c.01 0 0-.02-.04-.01-.03 0-.04 0-.01.01Zm-4.3.08h.06l-.04-.01c-.04 0-.05 0-.03.01Zm.44.03c0 .03 0 .07.02.1.03.03.03.03.03 0a.33.33 0 0 0-.03-.1l-.02-.06Zm.22-.01c-.02.03-.03.05 0 .06l.03.01c0-.05.02-.1 0-.1l-.03.03Zm-.09.09c0 .02 0 .04-.02.03h-.03c0 .02.01.04.03.04.03 0 .07-.08.04-.1-.01-.02-.02 0-.02.03Zm2.73-.02c-.04.02-.05.03-.03.03.03 0 .06.03.08.05.02.04.03.03.02-.04l.05-.04c.07-.03 0-.02-.11 0Zm.39.01c-.02.03 0 .04.08.04.07 0 .1 0 .07-.01-.03 0-.05-.02-.05-.04 0-.03-.06-.03-.1.01Zm.35-.01c0 .02-.01.03-.03.02-.02 0-.03 0-.03.02 0 .06.13.06.15 0 .03-.07.02-.08-.01-.02-.04.05-.04.05-.06 0 0-.03-.02-.04-.02-.02Zm.56.02v.06c0 .01.02 0 .03-.03v-.06l-.03.03Zm-4.75.03c-.03.06-.02.1 0 .1s.03-.04.03-.08c0-.08-.01-.08-.03-.02Zm.88-.01c-.03.03-.01.05.03.02.02-.01.03-.03.01-.04-.02 0-.04 0-.04.02Zm.37.01c.04.04.06.04.09 0 .02-.02.02-.02-.02-.01h-.06c-.01-.02-.03-.04-.05-.04-.02 0 0 .02.03.05Zm.58.05c0 .06 0 .1.02.1s.02-.03 0-.07c0-.07 0-.07.06-.06.04.02.05.01.04 0 0-.02-.04-.04-.07-.04-.04-.01-.05 0-.05.07Zm.62-.06c-.01.03 0 .05.02.06.07.02.08 0 .03-.05-.04-.04-.04-.04-.05 0Zm.48.01c0 .04.03.05.06.01 0-.01 0-.03-.02-.04-.02 0-.04 0-.04.03Zm-2.43-.01.04.05c.03.02.04.01.04-.02a.04.04 0 0 0-.04-.04l-.04.01Zm1.79.02c-.02.01-.03.03-.02.04 0 .01.03 0 .05-.03.04-.04.03-.05-.03-.01Zm1.76 0c0 .01.01.03.03.03.01 0 .02-.02.01-.03 0-.02-.02-.03-.03-.03v.03Zm-3.97.03h.05c.04 0 .07-.02.07-.02 0-.02-.1-.01-.12.02Zm1.29 0v.04l.05-.01v-.05c-.02 0-.04 0-.05.02Zm0 0" style="stroke:none;fill-rule:nonzero;fill:#fff;fill-opacity:1"/><path d="m13.68 13.23.01.02c.02 0 .03 0 .03-.02v-.03c-.02 0-.03.01-.04.03Zm-.43.06h.03c.02 0 .03-.02.03-.02s0-.02-.03-.02c-.01 0-.03.02-.03.04Zm.2-.01c0 .02.01.03.04.03.02 0 .04-.01.04-.03 0-.01-.02-.03-.04-.03-.03 0-.04.02-.04.03Zm.16 0c0 .02.02.03.03.03.02 0 .02-.01.01-.03l-.03-.03v.03Zm-2.09.02c0 .02.02.04.05.04.02 0 .03-.02.02-.03a.05.05 0 0 0-.04-.03c-.01 0-.03.01-.03.03Zm.78 0c0 .02 0 .04.02.04l.03-.03-.01-.03-.04.03Zm1.96 0c-.01.02 0 .04.01.04.02 0 .03-.02.03-.03l-.01-.03-.03.03Zm0 0" style="stroke:none;fill-rule:nonzero;fill:#fff;fill-opacity:1"/></svg>
