<svg xmlns:xlink="http://www.w3.org/1999/xlink" xmlns="http://www.w3.org/2000/svg" viewBox="0 0 61 60" width="64"  height="63" ><g fill="none" fill-rule="nonzero" transform="translate(.5)"><rect width="60" height="60" fill="#323232" rx="2.93"></rect><path fill="#FFFFFF" d="m21.552 40.359-9.657 2.414 2.063-8.255c-2.044-2.693-3.235-5.93-3.235-9.41 0-9.369 8.63-16.963 19.277-16.963s19.277 7.594 19.277 16.962c0 9.369-8.63 16.963-19.277 16.963-3.03 0-5.897-.615-8.448-1.711Zm2.98-16.66h-.216a.879.879 0 0 0-.878.88v7.706c0 .486.393.88.878.88h11.368a.879.879 0 0 0 .879-.88v-7.707a.879.879 0 0 0-.88-.879h-.214v-2.184a5.466 5.466 0 0 0-5.472-5.46 5.465 5.465 0 0 0-5.466 5.46V23.7Zm8.75 0h-6.563v-2.183a3.28 3.28 0 0 1 3.28-3.277 3.28 3.28 0 0 1 3.282 3.277v2.183Z"></path><path fill="#05A63F" d="M33.278 49.687a3.28 3.28 0 1 1-6.56 0 3.28 3.28 0 1 1 6.56 0Zm-11.833 0a3.28 3.28 0 1 1-6.56 0 3.28 3.28 0 1 1 6.56 0Zm23.666 0a3.28 3.28 0 1 1-6.56 0 3.28 3.28 0 1 1 6.56 0Z"></path></g></svg>