<svg xmlns="http://www.w3.org/2000/svg" width="2500" height="1444" viewBox="0 0 553.1 319.5"><path d="M46.1 80 0 .1h92.2L46.1 80z" style="fill:#20acd9"/><path d="M46.1 79.9 92.2.1 138.3 80l-92.2-.1z" style="fill:#27a7d4"/><path d="M92.2 159.8 46.1 80h92.2l-46.1 79.8z" style="fill:#259ed2"/><path d="M92.2 159.8 138.3 80l46.1 79.8H92.2z" style="fill:#2a8ece"/><path d="m138.3 239.7-46.1-79.8h92.2l-46.1 79.8z" style="fill:#3088c8"/><path d="m138.3 239.7 46.1-79.8 46.1 79.8h-92.2z" style="fill:#357abe"/><path d="m184.4 319.5-46.1-79.8h92.2l-46.1 79.8z" style="fill:#3a6db3"/><path d="m184.4 319.5 46.1-79.8 46.1 79.8h-92.2z" style="fill:#22697d"/><path d="m276.6 319.5-46.1-79.8h92.2l-46.1 79.8z" style="fill:#3a9ab1"/><path d="m230.5 239.7 46.1-79.8 46.1 79.8h-92.2z" style="fill:#3aa6ae"/><path d="m322.7 239.7-46.1-79.8h92.2l-46.1 79.8z" style="fill:#3bacac"/><path d="m276.6 159.8 46.1-79.9 46.1 79.9h-92.2z" style="fill:#3daaa0"/><path d="M368.8 159.8 322.7 80h92.2l-46.1 79.8z" style="fill:#3faa8d"/><path d="M322.7 79.9 368.8.1 414.9 80l-92.2-.1z" style="fill:#40ab86"/><path d="m322.9 239.6-46.1-79.8H369l-46.1 79.8z" style="fill:#2f6b54"/><path d="m276.8 159.7 46.1-79.8 46.1 79.8h-92.2z" style="fill:#44b496"/><path d="m369 159.7-46.1-79.8h92.2L369 159.7z" style="fill:#52b89b"/><path d="M322.9 79.8 369 0l46.1 79.8h-92.2z" style="fill:#5cba9d"/><path d="M415.1 79.9 369 0h92.2l-46.1 79.9z" style="fill:#6fc0a6"/><path d="M414.8 79.9 460.9.1 507 80l-92.2-.1z" style="fill:#88c9b2"/><path d="M507 79.9 460.9 0h92.2L507 79.9z" style="fill:#99d0bb"/><path d="m322.7 239.3 46.5-79.6 45.7 80.1-92.2-.5z" style="fill:#37a084"/><path d="m368.7 319.4 46.1-79.8 46.1 79.8h-92.2z" style="fill:#35896c"/><path d="m460.9 319.4-46.1-79.8H507l-46.1 79.8z" style="fill:#379b7f"/><path d="m460.9 319.4 46.1-79.8 46.1 79.8h-92.2z" style="fill:#3bad91"/><path d="m368.7 319.4-46.1-79.8h92.2l-46.1 79.8z" style="fill:#368f74"/></svg>