<svg xmlns="http://www.w3.org/2000/svg" xml:space="preserve" viewBox="0 0 377 500" width="32" height="40"><defs><radialGradient id="a" cx="250.34" cy="1008" r="26.421" gradientTransform="matrix(6.0417 -.0697 .08299 7.194 -1406.7 -6918.2)" gradientUnits="userSpaceOnUse"><stop offset="0" stop-color="#7ecff3" stop-opacity=".98"/><stop offset=".669" stop-color="#87d0ef" stop-opacity=".988"/><stop offset="1" stop-color="#0c84ce"/></radialGradient></defs><path fill="url(#a)" stroke="#000" stroke-width="14.121" d="M183.99 8.81C118.48 8.81 63.6 61.054 63.6 126.58v57.67a179.48 179.48 0 0 0-54.305 128.6 179.48 179.48 0 0 0 179.49 179.48 179.48 179.48 0 0 0 179.48-179.48 179.48 179.48 0 0 0-56.8-130.7v-55.575c0-65.52-52.062-117.77-117.57-117.77zm-.772 42.363h3.31c40.335 0 71.982 33.026 71.982 73.362v22.946a179.48 179.48 0 0 0-69.722-14.107 179.48 179.48 0 0 0-78.575 18.257v-27.097c0-40.336 32.668-73.362 73.004-73.362z"/><path fill-rule="evenodd" d="M105.05 287.47c1.022-53.659 17.886-91.986 31.173-91.986 16.353 0 39.86 22.485 56.213 22.485 10.22 0 33.217-16.352 51.103-16.352 9.198 0 23.973 29.135 24.484 78.195-64.485 3.695-107.33 28.814-162.97 7.659zm63.45 55.32c9.909-6.07 26.091-5.668 34.864-.692l.143 7.226c-9.226-5.057-25.394-4.736-34.863.692z"/><path fill="none" stroke="#000" stroke-linecap="round" stroke-linejoin="round" stroke-width="14.121" d="M217.19 408.59s-2.97 11.154-27.846 12.031c-27.605 1.295-31.039-9.302-31.039-9.302"/><path fill-rule="evenodd" d="M56.37 294.52c.489-19.557 81.344 14.867 106.31 11.618 38.92-2.814 145.96-36.063 151.34-11.129 3.911 22.001-30.062 4.72-93.272 14.339 0 0-164.38 17.93-164.38-14.828zm44.85 49.57c8.077-11.738 44.703-15.355 71.287-3.71 0 0 3.99 11.867-1.035 19.455-4.134 12.52-42.206 25.333-64.285 10.987-8.382-6.976-9.594-16.368-5.967-26.732zm168.96-8.16c-9.473-10.643-46.265-9.68-71.195 5.179 0 0-2.484 12.27 3.445 19.174 5.657 11.91 45.027 19.892 65.152 2.913 7.45-7.964 7.485-17.434 2.598-27.266z"/></svg>
