<?xml version="1.0" standalone="no"?>
<!DOCTYPE svg PUBLIC "-//W3C//DTD SVG 20010904//EN"
 "http://www.w3.org/TR/2001/REC-SVG-20010904/DTD/svg10.dtd">
<svg version="1.0" xmlns="http://www.w3.org/2000/svg"
 width="500.000000pt" height="500.000000pt" viewBox="0 0 500.000000 500.000000"
 preserveAspectRatio="xMidYMid meet">
<metadata>
Created by potrace 1.11, written by Peter Selinger 2001-2013
</metadata>
<g transform="translate(0.000000,500.000000) scale(0.100000,-0.100000)"
fill="#000000" stroke="none">
<path d="M2198 4985 c-750 -94 -1409 -513 -1814 -1150 -183 -286 -304 -610
-359 -960 -25 -155 -31 -491 -11 -659 64 -550 302 -1054 684 -1448 399 -411
878 -655 1477 -750 128 -20 534 -17 680 6 428 65 814 227 1162 487 126 94 378
346 472 472 260 348 419 724 486 1152 25 159 30 463 11 630 -68 584 -293 1065
-691 1474 -385 396 -873 650 -1420 737 -138 22 -535 28 -677 9z m-329 -1141
c290 -73 512 -350 566 -704 78 -508 -202 -1032 -633 -1183 -74 -27 -105 -32
-207 -35 -138 -4 -208 9 -320 63 -308 149 -493 546 -446 954 31 265 146 508
320 681 208 205 471 287 720 224z m1609 -15 c419 -110 729 -597 698 -1094 -33
-516 -396 -878 -827 -824 -501 62 -879 653 -784 1224 36 215 112 372 250 511
182 184 415 248 663 183z m-1240 -2749 c140 -242 257 -440 262 -440 4 0 122
198 261 440 l254 440 70 -6 c460 -38 874 -112 1174 -209 l111 -36 -41 -60
c-65 -97 -181 -229 -290 -333 -277 -263 -608 -447 -973 -541 -210 -54 -334
-69 -561 -69 -212 -1 -310 9 -493 50 -418 93 -784 294 -1087 598 -116 116
-285 321 -285 346 0 13 198 75 370 117 233 56 628 116 900 136 25 2 52 4 60 5
10 1 101 -148 268 -438z"/>
<path d="M2094 3039 c-42 -12 -101 -79 -110 -124 -10 -54 10 -108 55 -148 104
-94 263 -22 263 118 0 72 -43 131 -111 154 -39 13 -54 13 -97 0z"/>
<path d="M2800 3043 c-64 -24 -102 -82 -102 -155 2 -176 244 -218 307 -54 40
105 -36 217 -145 215 -25 0 -52 -3 -60 -6z"/>
</g>
</svg>
