<svg xmlns="http://www.w3.org/2000/svg" width="100%" height="100%" viewBox="0 0 6048 6048" fill-rule="evenodd" stroke-linejoin="round" stroke-miterlimit="2" xmlns:v="https://vecta.io/nano"><g transform="matrix(2.14229 0 0 2.14229 -3453.84 -3453.84)"><g transform="matrix(.946278 0 0 .946278 58.4097 253.617)"><circle cx="3133.55" cy="2927.26" r="1491.53" fill="#ee5128"/><clipPath id="A"><circle cx="3133.55" cy="2927.26" r="1491.53"/></clipPath><g clip-path="url(#A)"><g transform="matrix(.707107 -.707107 .707107 .707107 -1135.13 2924.48)"><path d="M651.828 3023.62h4729.24v1958.3H651.828z" fill="#fab314"/></g><path d="M3133.551 1257.521v1422.41l4.59 247.33 1276.58-1276.58-727.08-393.16h-554.09z" fill="#7cbb41"/><path d="M5030.341 2927.261h-1892.2l1363.48-1363.48 528.72 1363.48z" fill="#279ad5"/></g></g><g transform="matrix(.834404 0 0 .834404 408.972 581.101)"><circle cx="3133.55" cy="2927.26" r="1491.53"/><clipPath id="B"><circle cx="3133.55" cy="2927.26" r="1491.53"/></clipPath><g clip-path="url(#B)"><circle cx="3305.85" cy="4518.47" r="1209.3" fill="#fff" transform="matrix(2.13311 0 0 2.13311 -3918.18 -3725.29)"/><path d="M3152.177 3945.245c-11.642 6.198-25.61 6.198-37.245 0-52.229-28.929-204.381-123.192-328.011-299.375-92.13-131.308-133.949-279.825-150.927-358.496a54.55 54.55 0 0 1 7.854-41.48c8.07-12.212 20.721-20.667 35.097-23.47 59.236-11.619 157.68-35.489 240.671-77.469 85.092-43.043 151.359-100.446 186.386-134.272 15.361-14.853 39.74-14.853 55.109 0 35.02 33.826 101.293 91.229 186.378 134.272 82.998 41.98 181.435 65.85 240.678 77.469a54.6 54.6 0 0 1 35.097 23.47c8.077 12.212 10.903 27.158 7.854 41.48-16.986 78.671-58.797 227.188-150.935 358.496-123.623 176.183-275.775 270.446-328.004 299.375z" fill="#fab314"/><path d="M3098.964 2125.36a39.63 39.63 0 0 0 34.588 20.29 39.6 39.6 0 0 0 34.588-20.29c65.58-117.317 169.019-205.536 298.752-240.291 283.843-76.054 586.706 132.418 675.884 465.266 89.189 332.836-68.852 664.81-352.695 740.864-240.747 64.513-495.18-75.671-621.294-322.793-6.783-13.195-20.386-21.488-35.235-21.488a39.64 39.64 0 0 0-35.235 21.488c-126.114 247.122-380.535 387.306-621.282 322.793-283.855-76.054-441.884-408.028-352.707-740.864 89.189-332.848 392.04-541.32 675.884-465.266 129.733 34.755 233.184 122.974 298.752 240.291z" fill="#fff"/><circle cx="2728.54" cy="2896.83" r="108.215" transform="matrix(1.52514 0 0 1.52514 -1330.46 -1816.92)"/><circle cx="2728.54" cy="2896.83" r="108.215" transform="matrix(1.52514 0 0 1.52514 -725.25 -1816.92)"/></g></g></g></svg>