<?xml version="1.0" standalone="no"?>
<!DOCTYPE svg PUBLIC "-//W3C//DTD SVG 20010904//EN"
 "http://www.w3.org/TR/2001/REC-SVG-20010904/DTD/svg10.dtd">
<svg version="1.0" xmlns="http://www.w3.org/2000/svg"
 width="260.000000pt" height="260.000000pt" viewBox="0 0 260.000000 260.000000"
 preserveAspectRatio="xMidYMid meet">
<metadata>
Created by potrace 1.14, written by Peter Selinger 2001-2017
</metadata>
<g transform="translate(0.000000,260.000000) scale(0.100000,-0.100000)"
fill="#000000" stroke="none">
<path d="M1169 2596 c-2 -2 -24 -6 -49 -10 -482 -62 -901 -412 -1055 -881 -46
-141 -60 -229 -60 -395 0 -146 7 -215 34 -326 64 -261 214 -500 426 -679 167
-140 360 -233 586 -281 118 -25 381 -25 499 0 168 36 376 122 469 193 9 7 40
29 68 51 176 130 328 327 412 534 39 97 69 194 76 250 3 18 9 56 14 83 10 52
8 308 -3 360 -4 17 -11 55 -17 85 -27 137 -98 302 -185 435 -202 306 -518 510
-887 571 -40 7 -322 16 -328 10z m296 -161 c97 -12 222 -52 340 -109 340 -166
572 -484 630 -866 13 -83 12 -233 -2 -324 -71 -463 -399 -828 -849 -946 -209
-54 -459 -44 -658 27 -406 145 -708 511 -762 923 -72 555 253 1073 784 1250
90 30 119 36 212 46 30 3 56 7 58 9 5 5 186 -3 247 -10z"/>
<path d="M1598 2109 c-97 -14 -192 -77 -261 -171 -34 -46 -51 -48 -72 -8 -25
48 -106 121 -165 149 -47 22 -69 26 -150 26 -88 0 -101 -3 -164 -34 -171 -84
-278 -268 -278 -476 0 -181 85 -327 231 -398 56 -27 75 -31 145 -31 136 1 247
60 335 177 22 28 49 63 61 77 l20 25 20 -25 c12 -14 39 -49 61 -77 88 -117
199 -176 334 -176 66 -1 90 4 137 25 239 110 315 434 162 695 -31 54 -139 163
-160 163 -8 0 -14 4 -14 8 0 12 -97 45 -150 52 -25 3 -66 2 -92 -1z m-463
-453 c44 -29 60 -66 56 -131 -1 -12 -13 -35 -28 -53 -62 -74 -179 -54 -214 36
-14 35 -11 64 9 101 34 64 118 86 177 47z m469 -2 c27 -17 56 -71 56 -102 0
-50 -51 -120 -90 -123 -8 -1 -27 -2 -42 -3 -33 -3 -81 24 -103 58 -23 34 -22
102 2 135 42 57 120 73 177 35z"/>
<path d="M1240 1203 c-70 -55 -141 -90 -238 -117 -70 -20 -77 -24 -80 -49 -5
-39 41 -171 86 -247 58 -100 210 -246 284 -273 33 -12 173 101 253 203 72 93
140 255 133 316 -3 26 -9 30 -79 50 -99 27 -160 56 -229 108 -30 23 -59 45
-65 48 -5 3 -35 -14 -65 -39z"/>
</g>
</svg>
