<svg xmlns="http://www.w3.org/2000/svg" width="40" height="40" fill="none"><mask id="a" width="40" height="40" x="0" y="0" maskUnits="userSpaceOnUse" style="mask-type:alpha"><path fill="#5574E6" d="M19.998 39.995c11.044 0 19.997-8.953 19.997-19.997C39.995 8.953 31.042 0 19.998 0 8.953 0 0 8.953 0 19.998c0 11.044 8.953 19.997 19.998 19.997Z"/></mask><g mask="url(#a)"><path fill="#F7DF1E" d="M0 0h40v40H0V0Zm36.723 30.46c-.291-1.825-1.48-3.358-5.005-4.788-1.226-.575-2.59-.975-2.995-1.9-.151-.55-.175-.85-.076-1.175.25-1.077 1.525-1.4 2.525-1.1.65.2 1.25.7 1.626 1.5 1.724-1.127 1.724-1.127 2.925-1.875-.45-.7-.673-1.002-.976-1.3-1.05-1.175-2.449-1.775-4.724-1.724l-1.175.149c-1.126.275-2.2.875-2.85 1.675-1.9 2.151-1.351 5.901.949 7.451 2.275 1.7 5.601 2.074 6.026 3.675.4 1.95-1.45 2.575-3.276 2.35-1.352-.3-2.1-.976-2.925-2.226l-3.05 1.751c.35.8.75 1.149 1.35 1.849 2.9 2.926 10.15 2.776 11.451-1.674.049-.15.4-1.175.124-2.75l.076.112ZM21.752 18.385h-3.747c0 3.23-.015 6.44-.015 9.675 0 2.053.105 3.938-.23 4.518-.55 1.149-1.967 1.002-2.61.8-.66-.326-.995-.776-1.383-1.425-.105-.175-.184-.326-.212-.326l-3.042 1.875c.509 1.05 1.25 1.953 2.207 2.528 1.425.85 3.34 1.125 5.345.675 1.305-.377 2.43-1.152 3.018-2.352.85-1.55.67-3.45.662-5.576.02-3.424 0-6.849 0-10.299l.007-.093Z"/></g></svg>