<svg xmlns="http://www.w3.org/2000/svg" viewBox="0 0 24 24" fill="none" stroke-width="1" color="currentColor"><path stroke="currentColor" d="m4 11.5-.485.121A2 2 0 0 0 2 13.561v1.877a2 2 0 0 0 1.515 1.94l1.74.435A.6.6 0 0 0 6 17.231v-5.463a.6.6 0 0 0-.746-.582L4 11.5Zm0 0V11a8 8 0 1 1 16 0v.5m0 0 .485.121A2 2 0 0 1 22 13.561v1.877a2 2 0 0 1-1.515 1.94L20 17.5m0-6-1.255-.314a.6.6 0 0 0-.745.582v5.463a.6.6 0 0 0 .745.582L20 17.5m-5 3h3a2 2 0 0 0 2-2v-1m-5 3a1.5 1.5 0 0 0-1.5-1.5h-3a1.5 1.5 0 0 0 0 3h3a1.5 1.5 0 0 0 1.5-1.5Z"/></svg>