<svg xmlns="http://www.w3.org/2000/svg" viewBox="0 0 16 16"><path fill="currentColor" d="M8 5.67C6.71 5.67 5.67 6.72 5.67 8S6.72 10.33 8 10.33 10.33 9.28 10.33 8 9.28 5.67 8 5.67M15 8c0-.97 0-1.92-.05-2.89-.05-1.12-.31-2.12-1.13-2.93-.82-.82-1.81-1.08-2.93-1.13C9.92 1 8.97 1 8 1s-1.92 0-2.89.05c-1.12.05-2.12.31-2.93 1.13C1.36 3 1.1 3.99 1.05 5.11 1 6.08 1 7.03 1 8s0 1.92.05 2.89c.05 1.12.31 2.12 1.13 2.93.82.82 1.81 1.08 2.93 1.13C6.08 15 7.03 15 8 15s1.92 0 2.89-.05c1.12-.05 2.12-.31 2.93-1.13.82-.82 1.08-1.81 1.13-2.93.06-.96.05-1.92.05-2.89m-7 3.59c-1.99 0-3.59-1.6-3.59-3.59S6.01 4.41 8 4.41s3.59 1.6 3.59 3.59-1.6 3.59-3.59 3.59m3.74-6.49c-.46 0-.84-.37-.84-.84s.37-.84.84-.84.84.37.84.84a.8.8 0 0 1-.24.59.8.8 0 0 1-.59.24Z"/></svg>
