<svg xmlns="http://www.w3.org/2000/svg" viewBox="0 0 24 24" fill="none"><g clip-path="url(#a)"><path fill="currentColor" fill-rule="evenodd" d="M18.689 3.532c-.608 1.53-1.264 3.18-2.404 2.783-.007-3.513-3.05-8.276-7.34-5.464C5.744 2.954 6.39 5.14 7.002 7.205c.207.7.41 1.387.458 2.053 0 0-4.124 1.132-5.56 2.587-2.344 2.373-.667 6.016 1.486 4.203 2.189-1.845 5.174-3.242 5.108-2.813a38.882 38.882 0 0 1 2.296 3.912c.659 1.472-.284 2.551-1.745 2.455-3.191-.207-3.477 4.41-.519 4.398 3.41-.016 7.842-.49 6.919-7.468 2.806.52 2.73 2.25 2.665 3.746l-.014.36c-.114 3.776 5.603 2.905 4.689-.42-.075-.271-.152-.577-.236-.908-.573-2.269-1.443-5.715-3.805-7.11-.73-.43-.758-.876-.163-1.39 2.206-1.909 4.74-4.942 4.655-7.5-.08-2.412-2.55-3.652-3.846-1.359-.243.43-.468.996-.7 1.58Zm-7.54-1.664.19-.077c1.882-.772 2.735.265 3.137 1.874.318 1.277-.21 2.038-1.586 2.683-2.001.94-3.254.137-3.717-1.584-.507-1.887.507-2.299 1.976-2.896Z" clip-rule="evenodd"/></g><defs><clipPath id="a"><path fill="#fff" d="M0 0h24v24H0z"/></clipPath></defs></svg>
