<svg xmlns="http://www.w3.org/2000/svg" viewBox="0 0 24 24" fill="none"><g clip-path="url(#a)"><path fill="currentColor" d="M12 18a6 6 0 1 0 0-12 6 6 0 0 0 0 12Zm10-6h1ZM12 2V1Zm0 21v-1Zm8-3-1-1Zm0-16-1 1ZM4 20l1-1ZM4 4l1 1Zm-3 8h1Z"/><path stroke="currentColor" stroke-linecap="round" stroke-linejoin="round" stroke-width="1.5" d="M22 12h1M12 2V1m0 22v-1m8-2-1-1m1-15-1 1M4 20l1-1M4 4l1 1m-4 7h1m10 6a6 6 0 1 0 0-12 6 6 0 0 0 0 12Z"/></g><defs><clipPath id="a"><path fill="#fff" d="M0 0h24v24H0z"/></clipPath></defs></svg>
