<svg xmlns="http://www.w3.org/2000/svg" viewBox="0 0 24 24" fill="none"><path stroke="currentColor" d="M2 20V9a2 2 0 0 1 2-2h16a2 2 0 0 1 2 2v11a2 2 0 0 1-2 2H4a2 2 0 0 1-2-2Z"/><path stroke="currentColor" stroke-linecap="round" stroke-linejoin="round" d="M8.5 2.5 12 6l3.5-3.5"/><path fill="currentColor" d="m11.143 13.296.652-1.383a.224.224 0 0 1 .41 0l.652 1.383 1.459.223c.187.028.261.27.126.407l-1.056 1.076.25 1.52c.032.195-.164.344-.332.252L12 16.055l-1.304.717c-.168.093-.364-.056-.332-.251l.25-1.52-1.056-1.076c-.135-.138-.06-.379.127-.407l1.458-.223Z"/><path stroke="currentColor" stroke-linecap="round" stroke-linejoin="round" d="M17.067 14.534h1.014M12 9.466V8.453M12 20.615V19.6M16.054 18.588l-1.013-1.014M16.054 10.48l-1.013 1.013M7.946 18.588l1.014-1.014M7.946 10.48l1.014 1.013M5.92 14.534h1.013"/></svg>
