<svg xmlns="http://www.w3.org/2000/svg" viewBox="0 0 24 24" fill="none"><path fill="currentColor" fill-rule="evenodd" d="M22.666 9.763a5.997 5.997 0 0 1-3.868 1.183v4.524h3.55c.367-1.1.555-2.252.557-3.412 0-.787-.083-1.555-.24-2.295Zm-7.753.597-1.564.291.505-2.71a5.996 5.996 0 0 1-.806-3.012c0-1.348.442-2.593 1.19-3.596a11.049 11.049 0 0 0-2.286-.238C5.9 1.095 1 6 1 12.057c0 1.16.188 2.313.556 3.413h3.551V6.323l6.834 7.132 2.972-3.095Zm1.831 1.576-4.762 4.762-4.821-4.762v5.588H2.599C4.532 20.674 8.005 23 11.952 23c3.96.002 7.329-2.135 9.354-5.476h-4.562v-5.588Z" clip-rule="evenodd"/><path stroke="currentColor" stroke-linecap="round" stroke-linejoin="round" d="M15.16 7.592a.5.5 0 0 0-.058-.342 4.5 4.5 0 1 1 1.649 1.649.5.5 0 0 0-.343-.06l-1.533.286.286-1.533Z"/></svg>
