<svg xmlns="http://www.w3.org/2000/svg" width="100%" height="100%" viewBox="0 0 4396 4396" fill-rule="nonzero" stroke-linejoin="round" stroke-miterlimit="2" xmlns:v="https://vecta.io/nano"><path d="M4392.587 2199.527c0 1212.988-983.151 2196.31-2196.143 2196.31C983.338 4395.837 0 3412.515 0 2199.527 0 986.422 983.338 3.083 2196.443 3.083c1212.993 0 2196.143 983.338 2196.143 2196.443z" fill="#77ccf3"/><path d="M4170.045 2199.527c0 1089.951-883.53 1973.602-1973.602 1973.602S222.729 3289.478 222.729 2199.527c0-1090.072 883.647-1973.71 1973.714-1973.71s1973.602 883.638 1973.602 1973.71z" fill="#9eddf9"/><path d="M369.396 1452.643c-94.3 230.467-146.667 482.517-146.667 746.884 0 798.555 474.605 1485.86 1156.926 1796.551l180.092-328.992-165.138-2709.811-1025.213 495.367z" fill="#77ccf3"/><path d="M1644.314 1141.418v964.867c661.621-771.93 1323.122 771.696 1984.797 0v-964.867c-661.676 771.692-1323.176-771.926-1984.797 0z" fill="#ef4047"/><path d="M1644.314 1141.418v423.88c373.913-313.863 807.167-148.604 1343.589 62.396 309.109 121.567 512.896 88.904 641.209 23.925v-510.2c-661.676 771.692-1323.176-771.926-1984.797 0z" fill="#f0565c"/><path d="M1471.843 924.497c-73.6 0-133.179 59.521-133.179 133.004 0 33.717 12.608 64.679 33.308 88.138v2483.564c0 48.442 39.054 87.554 87.379 87.554h24.983c48.321 0 87.375-39.113 87.375-87.554V1145.347c20.646-23.167 33.313-54.129 33.313-87.846 0-73.483-59.583-133.004-133.179-133.004z" fill="#ad5c26"/><path d="M1456.068 926.08c-66.092 7.854-117.404 63.392-117.404 131.421 0 33.717 12.608 64.679 33.308 88.138v2483.564c0 47.329 37.413 85.092 84.096 86.913V926.08z" fill="#d97427"/></svg>