<?xml version="1.0" encoding="UTF-8" standalone="no"?>
<!DOCTYPE svg PUBLIC "-//W3C//DTD SVG 1.1//EN" "http://www.w3.org/Graphics/SVG/1.1/DTD/svg11.dtd">
<svg width="100%" height="100%" viewBox="0 0 4396 4396" version="1.1" xmlns="http://www.w3.org/2000/svg" xmlns:xlink="http://www.w3.org/1999/xlink" xml:space="preserve" xmlns:serif="http://www.serif.com/" style="fill-rule:evenodd;clip-rule:evenodd;stroke-linejoin:round;stroke-miterlimit:2;">
    <g transform="matrix(4.16667,0,0,4.16667,0,0)">
        <path d="M1054.22,527.886C1054.22,819.003 818.264,1055 527.146,1055C236.001,1055 0,819.003 0,527.886C0,236.741 236.001,0.74 527.146,0.74C818.264,0.74 1054.22,236.741 1054.22,527.886Z" style="fill:rgb(119,204,243);fill-rule:nonzero;"/>
        <path d="M1000.81,527.886C1000.81,789.474 788.763,1001.55 527.146,1001.55C265.53,1001.55 53.455,789.474 53.455,527.886C53.455,266.269 265.53,54.196 527.146,54.196C788.763,54.196 1000.81,266.269 1000.81,527.886Z" style="fill:rgb(158,221,249);fill-rule:nonzero;"/>
        <path d="M88.655,348.634C66.023,403.946 53.455,464.438 53.455,527.886C53.455,719.539 167.36,884.492 331.117,959.058L374.339,880.1L334.706,229.746L88.655,348.634Z" style="fill:rgb(119,204,243);fill-rule:nonzero;"/>
        <path d="M394.635,273.94L394.635,505.508C553.424,320.245 712.184,690.715 870.986,505.508L870.986,273.94C712.184,459.146 553.424,88.678 394.635,273.94Z" style="fill:rgb(239,64,71);fill-rule:nonzero;"/>
        <path d="M394.635,273.94L394.635,375.671C484.374,300.344 588.355,340.006 717.096,390.646C791.282,419.822 840.191,411.983 870.986,396.388L870.986,273.94C712.184,459.146 553.424,88.678 394.635,273.94Z" style="fill:rgb(240,86,92);fill-rule:nonzero;"/>
        <path d="M353.242,221.879C335.578,221.879 321.279,236.164 321.279,253.8C321.279,261.892 324.305,269.323 329.273,274.953L329.273,871.008C329.273,882.634 338.646,892.021 350.244,892.021L356.24,892.021C367.837,892.021 377.21,882.634 377.21,871.008L377.21,274.883C382.165,269.323 385.205,261.892 385.205,253.8C385.205,236.164 370.905,221.879 353.242,221.879Z" style="fill:rgb(173,92,38);fill-rule:nonzero;"/>
        <path d="M349.456,222.259C333.594,224.144 321.279,237.473 321.279,253.8C321.279,261.892 324.305,269.323 329.273,274.953L329.273,871.008C329.273,882.367 338.252,891.43 349.456,891.867L349.456,222.259Z" style="fill:rgb(217,116,39);fill-rule:nonzero;"/>
    </g>
</svg>
