<svg xmlns="http://www.w3.org/2000/svg" width="100%" height="100%" viewBox="0 0 4425 4425" fill-rule="nonzero" stroke-linejoin="round" stroke-miterlimit="2" xmlns:v="https://vecta.io/nano"><path d="M0 2213.723c0 1221.238 989.909 2211.281 2211.148 2211.281 1221.355 0 2211.398-990.042 2211.398-2211.281S3432.503 2.458 2211.148 2.458C989.909 2.458 0 992.488 0 2213.723z" fill="#437abe"/><path d="M224.125 2213.723c0 1097.488 889.538 1987.156 1987.022 1987.156s1987.147-889.667 1987.147-1987.156S3308.628 226.588 2211.148 226.588 224.125 1116.238 224.125 2213.723z" fill="#86d6f7"/><path d="M1950.652 686.821L481.196 1236.509c-163.371 288.6-257.071 621.896-257.071 977.213 0 973.851 700.601 1783.501 1625.205 1953.656l381.3-240.884V1840.514s-55.975-341.617-162.367-554.467-117.613-599.225-117.613-599.225z" fill="#437abe"/><path d="M2219.056 726.146c98.721 0 178.904 80.179 178.904 179.013 0 98.958-80.183 179.079-178.904 179.079-98.896 0-179.075-80.121-179.075-179.079 0-98.833 80.179-179.013 179.075-179.013zm113.483 1112.301c49.004 20.667 102.792 32.063 159.296 32.063 225.959 0 409.046-183.213 409.046-409.167 0-182.675-119.733-337.367-284.996-389.917 5.25-26.217 8.025-53.317 8.025-80.95 0-225.954-183.204-409.221-409.163-409.221-226.013 0-409.225 183.267-409.225 409.221 0 28.638 3.071 56.683 8.621 83.608-161.125 55.025-277.088 207.533-277.088 387.259 0 225.954 183.208 409.167 409.167 409.167 57.096 0 111.592-11.633 160.829-32.888v1986.485c0 56.508 45.879 102.388 102.563 102.388h20.542c56.508 0 102.383-45.879 102.383-102.388v-173.458h480.134l2.242-129.9H2693.11v-109.171h-109.342v-129.833h231.146v-170.75h-142.233v-160.538h142.233v-191.238h-482.375v-920.772z" fill="#35220f"/><path d="M2491.835 1870.51c225.959 0 409.046-183.213 409.046-409.167 0-182.675-119.733-337.367-284.996-389.917 5.25-26.217 8.025-53.317 8.025-80.95 0-222.471-177.717-403.2-398.888-408.692v144.95c95.888 3.246 172.938 81.658 172.938 178.425 0 96.892-77.05 175.242-172.938 178.488v2842.848h5.133c56.508 0 102.383-45.879 102.383-102.388v-173.458h480.134l2.242-129.9H2693.11v-109.171h-109.342v-129.833h231.146v-170.75h-142.233v-160.538h142.233v-191.238h-482.375v-920.772c49.004 20.667 102.792 32.063 159.296 32.063z" fill="#543010"/></svg>