<?xml version="1.0" encoding="UTF-8" standalone="no"?>
<!DOCTYPE svg PUBLIC "-//W3C//DTD SVG 1.1//EN" "http://www.w3.org/Graphics/SVG/1.1/DTD/svg11.dtd">
<svg width="100%" height="100%" viewBox="0 0 4425 4425" version="1.1" xmlns="http://www.w3.org/2000/svg" xmlns:xlink="http://www.w3.org/1999/xlink" xml:space="preserve" xmlns:serif="http://www.serif.com/" style="fill-rule:evenodd;clip-rule:evenodd;stroke-linejoin:round;stroke-miterlimit:2;">
    <g transform="matrix(4.16667,0,0,4.16667,0,0)">
        <path d="M0,531.293C0,824.39 237.578,1062 530.675,1062C823.8,1062 1061.41,824.39 1061.41,531.293C1061.41,238.197 823.8,0.59 530.675,0.59C237.578,0.59 0,238.197 0,531.293Z" style="fill:rgb(67,122,190);fill-rule:nonzero;"/>
        <path d="M53.79,531.293C53.79,794.69 267.279,1008.21 530.675,1008.21C794.07,1008.21 1007.59,794.69 1007.59,531.293C1007.59,267.897 794.07,54.381 530.675,54.381C267.279,54.381 53.79,267.897 53.79,531.293Z" style="fill:rgb(134,214,247);fill-rule:nonzero;"/>
        <path d="M468.156,164.837L115.487,296.762C76.278,366.026 53.79,446.017 53.79,531.293C53.79,765.017 221.934,959.333 443.839,1000.17L535.351,942.358L535.351,441.723C535.351,441.723 521.917,359.735 496.383,308.651C470.848,257.567 468.156,164.837 468.156,164.837Z" style="fill:rgb(67,122,190);fill-rule:nonzero;"/>
        <path d="M532.573,174.275C556.266,174.275 575.51,193.518 575.51,217.238C575.51,240.988 556.266,260.217 532.573,260.217C508.838,260.217 489.595,240.988 489.595,217.238C489.595,193.518 508.838,174.275 532.573,174.275ZM559.809,441.227C571.57,446.187 584.479,448.922 598.04,448.922C652.27,448.922 696.211,404.951 696.211,350.722C696.211,306.88 667.475,269.754 627.812,257.142C629.072,250.85 629.738,244.346 629.738,237.714C629.738,183.485 585.769,139.501 531.539,139.501C477.296,139.501 433.325,183.485 433.325,237.714C433.325,244.587 434.062,251.318 435.394,257.78C396.724,270.986 368.893,307.588 368.893,350.722C368.893,404.951 412.863,448.922 467.093,448.922C480.796,448.922 493.875,446.13 505.692,441.029L505.692,917.785C505.692,931.347 516.703,942.358 530.307,942.358L535.237,942.358C548.799,942.358 559.809,931.347 559.809,917.785L559.809,876.155L675.041,876.155L675.579,844.979L646.346,844.979L646.346,818.778L620.104,818.778L620.104,787.618L675.579,787.618L675.579,746.638L641.443,746.638L641.443,708.109L675.579,708.109L675.579,662.212L559.809,662.212L559.809,441.227Z" style="fill:rgb(53,34,15);fill-rule:nonzero;"/>
        <path d="M598.04,448.922C652.27,448.922 696.211,404.951 696.211,350.722C696.211,306.88 667.475,269.754 627.812,257.142C629.072,250.85 629.738,244.346 629.738,237.714C629.738,184.321 587.086,140.946 534.005,139.628L534.005,174.416C557.018,175.195 575.51,194.014 575.51,217.238C575.51,240.492 557.018,259.296 534.005,260.075L534.005,942.358L535.237,942.358C548.799,942.358 559.809,931.347 559.809,917.785L559.809,876.155L675.041,876.155L675.579,844.979L646.346,844.979L646.346,818.778L620.104,818.778L620.104,787.618L675.579,787.618L675.579,746.638L641.443,746.638L641.443,708.109L675.579,708.109L675.579,662.212L559.809,662.212L559.809,441.227C571.57,446.187 584.479,448.922 598.04,448.922Z" style="fill:rgb(84,48,16);fill-rule:nonzero;"/>
    </g>
</svg>
