<svg xmlns="http://www.w3.org/2000/svg" width="100%" height="100%" viewBox="0 0 4213 4213" fill-rule="nonzero" stroke-linejoin="round" stroke-miterlimit="2" xmlns:v="https://vecta.io/nano"><path d="M4209.128 2107.948c0 1162.309-942.151 2104.556-2104.456 2104.556C942.255 4212.503 0 3270.257 0 2107.948 0 945.584 942.255 3.333 2104.673 3.333c1162.305 0 2104.456 942.251 2104.456 2104.614z" fill="#3c4d21"/><path d="M3995.807 2107.948c0 1044.472-846.609 1891.193-1891.135 1891.193S213.421 3152.419 213.421 2107.948c0-1044.526 846.726-1891.247 1891.252-1891.247s1891.135 846.722 1891.135 1891.247z" fill="#49622d"/><path d="M213.421 2107.948c0 560.925 244.446 1064.588 632.346 1410.905l369.417-153.575s-142.117-420.384-337.496-1225.638c-195.388-805.251 598.013-1492.051 598.013-1492.051l-1037.167 565.03c-143.521 266.525-225.113 571.375-225.113 895.33z" fill="#3c4d21"/><path d="M3535.811 2359.244c-8.263 0-16.3.9-24.167 2.754 35.121-125.483 54.171-257.592 54.171-393.804-.113-805.363-652.801-1458.051-1458.164-1458.164-805.313.113-1457.997 652.801-1457.997 1458.164-.113 136.104 18.879 268.104 54.058 393.467-7.533-1.625-15.175-2.417-22.871-2.417-84.575 0-153.296 99.408-153.296 222.138 0 122.663 68.721 222.129 153.296 222.129 5.675 0 11.071-.45 16.521-1.292 46.133 330.979 214.434 576.375 416 577.334 238.654 1.063 433.588-340.534 435.442-763.055 1.967-422.405-189.821-765.746-428.475-766.813-67.321-.342-131.267 26.746-188.192 75.071 11.071-307.996 140.033-584.692 343.679-788.563 213.313-213.084 506.53-344.467 831.834-344.575 325.359.108 618.58 131.492 831.884 344.575 203.425 203.646 332.275 479.95 343.684 787.496-56.754-47.708-120.142-74.346-186.904-74.004-238.65 1.067-430.438 344.409-428.475 766.813.963 224.775 56.646 426.567 144.367 566.155-111.321 122.217-277.488 241.063-538.505 304.959-41.075-43.721-99.408-71.088-164.196-71.088-124.358 0-225.284 100.867-225.284 225.284 0 124.467 100.925 225.392 225.284 225.392 97.883 0 181.054-62.433 212.242-149.529 182.683-43.667 332.609-112.954 453.313-194.713 80.525-54.342 147.733-114.129 204.038-175.042 39.396 20.679 81.033 31.75 124.188 31.638 201.567-.958 369.867-246.354 416.004-577.334 5.45.842 10.842 1.292 16.521 1.292 84.571 0 153.296-99.467 153.296-222.129 0-122.729-68.725-222.138-153.296-222.138z" fill="#64c9f3"/><path d="M3535.811 2359.244c-8.263 0-16.3.9-24.167 2.754 35.121-125.483 54.171-257.592 54.171-393.804-.113-805.363-652.801-1458.051-1458.164-1458.164-25.288 0-50.463.675-75.413 1.908v283.496c25.063-1.571 49.958-3.817 75.413-3.817 325.359.108 618.58 131.492 831.884 344.575 203.425 203.646 332.275 479.95 343.684 787.496-56.754-47.708-120.142-74.346-186.904-74.004-238.65 1.067-430.438 344.409-428.475 766.813.963 224.775 56.646 426.567 144.367 566.155-111.321 122.217-277.488 241.063-538.505 304.959-41.075-43.721-99.408-71.088-164.196-71.088-27.254 0-53.104 5.621-77.267 14.5v421.675c24.163 8.879 50.013 14.5 77.267 14.5 97.883 0 181.054-62.433 212.242-149.529 182.683-43.667 332.609-112.954 453.313-194.713 80.525-54.342 147.733-114.129 204.038-175.042 39.396 20.679 81.033 31.75 124.188 31.638 201.567-.958 369.867-246.354 416.004-577.334 5.45.842 10.842 1.292 16.521 1.292 84.571 0 153.296-99.467 153.296-222.129 0-122.729-68.725-222.138-153.296-222.138z" fill="#9edbee"/></svg>