<?xml version="1.0" encoding="UTF-8" standalone="no"?>
<!DOCTYPE svg PUBLIC "-//W3C//DTD SVG 1.1//EN" "http://www.w3.org/Graphics/SVG/1.1/DTD/svg11.dtd">
<svg width="100%" height="100%" viewBox="0 0 4213 4213" version="1.1" xmlns="http://www.w3.org/2000/svg" xmlns:xlink="http://www.w3.org/1999/xlink" xml:space="preserve" xmlns:serif="http://www.serif.com/" style="fill-rule:evenodd;clip-rule:evenodd;stroke-linejoin:round;stroke-miterlimit:2;">
    <g transform="matrix(4.16667,0,0,4.16667,0,0)">
        <path d="M1010.19,505.907C1010.19,784.861 784.074,1011 505.121,1011C226.141,1011 0,784.861 0,505.907C0,226.94 226.141,0.8 505.121,0.8C784.074,0.8 1010.19,226.94 1010.19,505.907Z" style="fill:rgb(60,77,33);fill-rule:nonzero;"/>
        <path d="M958.993,505.907C958.993,756.58 755.807,959.793 505.121,959.793C254.435,959.793 51.221,756.58 51.221,505.907C51.221,255.221 254.435,52.008 505.121,52.008C755.807,52.008 958.993,255.221 958.993,505.907Z" style="fill:rgb(73,98,45);fill-rule:nonzero;"/>
        <path d="M51.221,505.907C51.221,640.529 109.888,761.408 202.984,844.524L291.644,807.666C291.644,807.666 257.536,706.774 210.645,513.513C163.752,320.253 354.168,155.421 354.168,155.421L105.248,291.028C70.803,354.994 51.221,428.158 51.221,505.907Z" style="fill:rgb(60,77,33);fill-rule:nonzero;"/>
        <path d="M848.594,566.218C846.611,566.218 844.682,566.434 842.794,566.879C851.223,536.763 855.795,505.057 855.795,472.366C855.768,279.079 699.123,122.434 505.836,122.407C312.561,122.434 155.917,279.079 155.917,472.366C155.89,505.031 160.448,536.711 168.891,566.798C167.083,566.408 165.249,566.218 163.402,566.218C143.104,566.218 126.611,590.076 126.611,619.531C126.611,648.97 143.104,672.842 163.402,672.842C164.764,672.842 166.059,672.734 167.367,672.532C178.439,751.967 218.831,810.862 267.207,811.092C324.484,811.347 371.268,729.364 371.713,627.959C372.185,526.582 326.156,444.18 268.879,443.924C252.722,443.842 237.375,450.343 223.713,461.941C226.37,388.022 257.321,321.615 306.196,272.686C357.391,221.546 427.763,190.014 505.836,189.988C583.922,190.014 654.295,221.546 705.488,272.686C754.31,321.561 785.234,387.874 787.972,461.685C774.351,450.235 759.138,443.842 743.115,443.924C685.839,444.18 639.81,526.582 640.281,627.959C640.512,681.905 653.876,730.335 674.929,763.836C648.212,793.168 608.332,821.691 545.688,837.026C535.83,826.533 521.83,819.965 506.281,819.965C476.435,819.965 452.213,844.173 452.213,874.033C452.213,903.905 476.435,928.127 506.281,928.127C529.773,928.127 549.734,913.143 557.219,892.24C601.063,881.76 637.045,865.131 666.014,845.509C685.34,832.467 701.47,818.118 714.983,803.499C724.438,808.462 734.431,811.119 744.788,811.092C793.164,810.862 833.556,751.967 844.629,672.532C845.937,672.734 847.231,672.842 848.594,672.842C868.891,672.842 885.385,648.97 885.385,619.531C885.385,590.076 868.891,566.218 848.594,566.218Z" style="fill:rgb(100,201,243);fill-rule:nonzero;"/>
        <path d="M848.594,566.218C846.611,566.218 844.682,566.434 842.794,566.879C851.223,536.763 855.795,505.057 855.795,472.366C855.768,279.079 699.123,122.434 505.836,122.407C499.767,122.407 493.725,122.569 487.737,122.865L487.737,190.904C493.752,190.527 499.727,189.988 505.836,189.988C583.922,190.014 654.295,221.546 705.488,272.686C754.31,321.561 785.234,387.874 787.972,461.685C774.351,450.235 759.138,443.842 743.115,443.924C685.839,444.18 639.81,526.582 640.281,627.959C640.512,681.905 653.876,730.335 674.929,763.836C648.212,793.168 608.332,821.691 545.688,837.026C535.83,826.533 521.83,819.965 506.281,819.965C499.74,819.965 493.536,821.314 487.737,823.445L487.737,924.647C493.536,926.778 499.74,928.127 506.281,928.127C529.773,928.127 549.734,913.143 557.219,892.24C601.063,881.76 637.045,865.131 666.014,845.509C685.34,832.467 701.47,818.118 714.983,803.499C724.438,808.462 734.431,811.119 744.788,811.092C793.164,810.862 833.556,751.967 844.629,672.532C845.937,672.734 847.231,672.842 848.594,672.842C868.891,672.842 885.385,648.97 885.385,619.531C885.385,590.076 868.891,566.218 848.594,566.218Z" style="fill:rgb(158,219,238);fill-rule:nonzero;"/>
    </g>
</svg>
