<?xml version="1.0" encoding="UTF-8" standalone="no"?>
<!DOCTYPE svg PUBLIC "-//W3C//DTD SVG 1.1//EN" "http://www.w3.org/Graphics/SVG/1.1/DTD/svg11.dtd">
<svg width="100%" height="100%" viewBox="0 0 4363 4363" version="1.1" xmlns="http://www.w3.org/2000/svg" xmlns:xlink="http://www.w3.org/1999/xlink" xml:space="preserve" xmlns:serif="http://www.serif.com/" style="fill-rule:evenodd;clip-rule:evenodd;stroke-linejoin:round;stroke-miterlimit:2;">
    <g transform="matrix(4.16667,0,0,4.16667,0,0)">
        <path d="M1046.14,523.925C1046.14,812.81 811.99,1047 523.076,1047C234.192,1047 0,812.81 0,523.925C0,235.012 234.192,0.82 523.076,0.82C811.99,0.82 1046.14,235.012 1046.14,523.925Z" style="fill:rgb(239,68,115);fill-rule:nonzero;"/>
        <path d="M993.108,523.925C993.108,783.508 782.688,993.957 523.076,993.957C263.466,993.957 53.017,783.508 53.017,523.925C53.017,264.314 263.466,53.865 523.076,53.865C782.688,53.865 993.108,264.314 993.108,523.925Z" style="fill:rgb(241,100,127);fill-rule:nonzero;"/>
        <path d="M594.754,747.153C544.543,628.633 293.438,434.79 293.438,434.79L265.84,260.99L66.383,412.681C57.723,448.366 53.017,485.587 53.017,523.925C53.017,783.508 263.466,993.957 523.076,993.957C555.646,993.957 587.449,990.633 618.147,984.334L677.143,879.696C677.143,879.696 644.963,865.674 594.754,747.153Z" style="fill:rgb(239,68,115);fill-rule:nonzero;"/>
        <path d="M447.224,598.646L578.454,848.871C597.197,884.654 641.402,898.439 677.143,879.696C712.953,860.911 726.752,816.707 708.008,780.924L576.778,530.726C631.751,468.561 645.745,376.549 604.879,298.727C564.739,222.163 483.174,181.422 402.112,189.508L486.331,349.999C506.051,387.625 491.498,434.161 453.872,453.924C416.232,473.645 369.724,459.134 349.989,421.48L265.84,260.99C213.116,323.071 200.239,413.309 240.379,489.888C281.162,567.724 364.821,608.535 447.224,598.646Z" style="fill:rgb(248,155,91);fill-rule:nonzero;"/>
        <path d="M460.102,449.804L679.377,878.244C713.399,858.773 726.332,815.91 708.008,780.924L576.778,530.726C631.751,468.561 645.745,376.549 604.879,298.727C564.739,222.163 483.174,181.422 402.112,189.508L486.331,349.999C504.878,385.376 492.839,428.338 460.102,449.804Z" style="fill:rgb(250,178,128);fill-rule:nonzero;"/>
    </g>
</svg>
