<svg xmlns="http://www.w3.org/2000/svg" width="100%" height="100%" viewBox="0 0 4363 4363" fill-rule="nonzero" stroke-linejoin="round" stroke-miterlimit="2" xmlns:v="https://vecta.io/nano"><path d="M4358.92 2183.023c0 1203.688-975.626 2179.481-2179.435 2179.481C975.801 4362.503 0 3386.711 0 2183.023 0 979.217 975.801 3.417 2179.485 3.417c1203.809 0 2179.435 975.801 2179.435 2179.606z" fill="#ef4473"/><path d="M4137.953 2183.023c0 1081.597-876.751 1958.468-1958.468 1958.468-1081.709 0-1958.581-876.872-1958.581-1958.468 0-1081.713 876.872-1958.585 1958.581-1958.585 1081.718 0 1958.468 876.872 1958.468 1958.585z" fill="#f1647f"/><path d="M2478.144 3113.14c-209.213-493.834-1255.484-1301.514-1255.484-1301.514l-114.992-724.167-831.071 632.046c-36.083 148.688-55.692 303.775-55.692 463.517 0 1081.597 876.872 1958.468 1958.581 1958.468 135.708 0 268.221-13.85 396.129-40.096l245.817-435.992s-134.083-58.425-343.288-552.263z" fill="#ef4473"/><path d="M1863.435 2494.36l546.792 1042.605c78.096 149.096 262.284 206.533 411.204 128.438 149.208-78.271 206.704-262.454 128.604-411.55L2403.244 2211.36c229.054-259.021 287.363-642.405 117.088-966.663-167.25-319.017-507.105-488.771-844.863-455.08l350.913 668.713c82.167 156.775 21.529 350.675-135.246 433.021-156.833 82.171-350.617 21.708-432.846-135.183l-350.621-668.709c-219.684 258.671-273.338 634.663-106.088 953.742 169.929 324.317 518.509 494.363 861.855 453.159z" fill="#f89b5b"/><path d="M1917.093 1874.185l913.647 1785.168c141.758-81.129 195.646-259.725 119.296-405.5L2403.244 2211.36c229.054-259.021 287.363-642.405 117.088-966.663-167.25-319.017-507.105-488.771-844.863-455.08l350.913 668.713c77.279 147.404 27.117 326.413-109.288 415.854z" fill="#fab280"/></svg>