<svg xmlns="http://www.w3.org/2000/svg" viewBox="0 0 400 400" xmlns:v="https://vecta.io/nano"><circle cx="200" cy="200" r="200" fill="#fff"/><path fill="#dbdbdb" d="M145 42.7h110a23.5 23.5 0 0 1 23.6 23.5v267.7a23.5 23.5 0 0 1-23.6 23.5H145a23.6 23.6 0 0 1-23.5-23.6V66.2A23.5 23.5 0 0 1 145 42.7z"/><path fill="#b4b4b4" d="M202.6 332.5a2.2 2.2 0 0 1 2.2 2.2v5.3a2.2 2.2 0 0 1-2.2 2.2h-5.2a2.2 2.2 0 0 1-2.3-2.2v-5.3a2.2 2.2 0 0 1 2.3-2.2h5.2m0-.8h-5.2a2.9 2.9 0 0 0-3 3v5.3a3 3 0 0 0 3 3h5.2a3 3 0 0 0 3-3v-5.3a2.9 2.9 0 0 0-3-3z"/><path fill="#707070" d="M211.2 69.9h-22.3a3.1 3.1 0 0 0-3 3 3 3 0 0 0 3 3H211a3 3 0 0 0 3-3 3.1 3.1 0 0 0-3-3z"/><path fill="#464646" d="M200 57.3a2.9 2.9 0 1 0 2.9 2.9 2.9 2.9 0 0 0-2.9-2.9z"/><path fill="#b7b7b7" d="M186 190.5c0 5.3 3.4 9.5 6.9 11.7l-2.4 20.8h3.6l5.9-47.1c-7.6 0-14 6.5-14 14.6z"/><path fill="#959595" d="M213.5 190.4c0-8.4-7.3-14.5-13.5-14.5-1.8 0-10.7 5.2-10.7 13.8 0 6.9 4.1 9.9 6.9 12.1l-2.1 21.2h15.3l-2.6-21c3.4-2.5 6.7-5.5 6.7-11.6z"/><path fill="#b7b7b7" d="M127.8 157.5c-11.7 0-21.1 14.8-21.1 33.1s9.4 33 21.1 33 21.1-14.8 21.1-33-9.5-33.1-21.1-33.1zm-2.7 53.2c-6.7 0-12.2-9.2-12.2-20.4s5.5-20.5 12.2-20.5 12.3 9.2 12.3 20.5-5.5 20.4-12.3 20.4z"/><path d="M106.8 190.6c0-18.3 9.4-33 21-33.1h-2.2c-12.9 0-23.4 14.9-23.4 33.3s10.5 33.4 23.4 33.4c1.7 0 4.8-.8 4.8-.8-13 0-23.6-13.2-23.6-32.8zm18.3-20.8c6.8 0 12.3 9.1 12.3 20.3s-5.5 20.5-12.3 20.5h-.9a9.7 9.7 0 0 0 2.4.1c8.1 0 14.6-9.4 14.6-21s-5.7-21.1-13.8-21a10.3 10.3 0 0 0-4.1 1 7 7 0 0 0-1.5.9 8.4 8.4 0 0 1 3.3-.8" fill="#959595"/><path fill="#b7b7b7" d="M203.4 198h-55.1l-.2-16h48.1a7.2 7.2 0 0 1 5.4 2.5 6.4 6.4 0 0 1 1.8 4.7z"/><path fill="#a1a1a1" d="m148.3 198 .6-7.4 54.5.4v7z"/><circle cx="200" cy="337.4" r="12" fill="none" stroke="#b4b4b4"/></svg>