<svg xmlns="http://www.w3.org/2000/svg" viewBox="0 0 296.8 360.1" xmlns:v="https://vecta.io/nano"><path d="M244.4 300.4l-83.6 56.3c-6.6 4.5-15.3 4.5-22 .1l-85.5-56.5C20 278.3 0 241.1 0 201.2V64.4c0-17.9 12.1-33.6 29.4-38.2l78.2-20.9c26.7-7.1 54.8-7.1 81.6 0l78.2 20.9c17.3 4.6 29.4 20.3 29.4 38.2v137.4c0 39.6-19.7 76.5-52.4 98.6z" fill="#ec1c24"/><path d="M217.6 120.6H79.1c-10.9 0-19.8-8.9-19.8-19.8h0c0-10.9 8.9-19.8 19.8-19.8h138.5c10.9 0 19.8 8.9 19.8 19.8h0c0 11-8.8 19.8-19.8 19.8zm-69.2 39.6h0c0-10.9-8.9-19.8-19.8-19.8H79.1c-10.9 0-19.8 8.9-19.8 19.8h0c0 10.9 8.9 19.8 19.8 19.8h49.5c10.9 0 19.8-8.9 19.8-19.8zm-49.5 59.4h0c0-10.9-8.9-19.8-19.8-19.8h0c-10.9 0-19.8 8.9-19.8 19.8h0c0 10.9 8.9 19.8 19.8 19.8h0c11 0 19.8-8.9 19.8-19.8z" fill="#fff"/></svg>