<svg xmlns="http://www.w3.org/2000/svg" baseProfile="full" width="24" height="24" xmlns:v="https://vecta.io/nano"><path fill="#67bb70" d="M12.018 0c6.886.325 11.549 2.616 11.568 2.861C24 17.72 12.24 24 12.007 24"/><path fill="#66b078" d="M12.118 0C5.231.325.568 2.616.55 2.861.135 17.72 11.895 24 12.128 24"/><path fill="#fff" d="M6.528 10.002c.547-.453.748-.569 1.238-.618.363-.036 1.071.093 1.34.384l2.469 2.906c.969-.81 5.431-5.748 5.594-5.932s.479-.372.75-.427.424.094.625.281L11.591 16l-5.062-5.998z"/></svg>