<svg xmlns="http://www.w3.org/2000/svg" fill="#fff" viewBox="0 0 24 24"><path d="M8.873 18.927c-1.198-.356-1.875-1.378-1.875-2.834 0-1.523.89-2.794 2.37-3.392 1.163-.47 2.13-.47 4.296 0 .681.146.492-.39-.292-.827-.903-.505-1.603-.66-3.037-.675-1.05-.01-1.423.056-2.203.399-1.127.496-1.942 1.276-2.406 2.302-.277.617-.343 1.066-.351 2.39-.005.967-.078 1.674-.177 1.742-.307.208-2.287.125-2.888-.121-1.121-.46-2.078-1.73-2.284-3.039-.19-1.205.68-2.87 1.794-3.435.243-.122.87-.222 1.394-.222h.952v-.545c0-.729.33-1.44.918-1.982.607-.558 1.713-.707 2.59-.348.58.237.59.235.848-.177 1.025-1.643 1.64-2.252 2.822-2.796 2.09-.963 4.576-.216 5.733 1.722.392.658.47.938.416 1.477l-.068.665.596-.098c1.187-.197 2.25.817 1.897 1.81-.247.694-.246.696.736.895 1.19.24 1.924.619 2.544 1.311.648.723.802 1.13.802 2.13 0 1.147-.609 2.294-1.486 2.796-1.22.7-3.53.483-5.004-.47-.736-.476-.994-.477-1.308-.008-.714 1.067-3.54 1.165-4.144.143-.153-.26-.218-.229-.764.356-.328.354-.836.717-1.13.81-.603.19-.715.192-1.29.021z" paint-order="markers fill stroke"/></svg>