<svg xmlns="http://www.w3.org/2000/svg" width="24" height="4.45"><path d="M13.565 3.55c-.064.18-.134.448-.134.448h-.01s-.074-.268-.134-.447l-.97-2.654h-.366l1.291 3.494h.368L14.902.897h-.367zM16.41.898H15.2V4.39h.343V3.019h.865c.62 0 1.078-.418 1.078-1.069 0-.646-.457-1.053-1.078-1.053zm-.045 1.814h-.82V1.205h.825c.462 0 .765.273.765.745 0 .478-.303.761-.77.761zm3.831.7c0 .185.03.473.03.473h-.01s-.169-.298-.288-.472L18.143.897h-.333V4.39h.343V1.876c0-.184-.03-.472-.03-.472h.01s.169.298.288.472l1.784 2.515h.333V.897h-.343zM1.238.862L0 4.392h.656l.298-.905h1.238l.303.905h.656L1.914.86zm-.125 2.104l.319-.945c.06-.199.139-.547.139-.547h.01s.08.348.139.547l.313.945zm2.834-.413c0-.16.134-.244.353-.244.224 0 .492.09.641.219l.234-.442c-.234-.204-.552-.289-.855-.289-.532 0-.97.264-.97.76 0 .83 1.258.731 1.258 1.13 0 .158-.129.253-.353.253-.253 0-.531-.105-.72-.279l-.284.418c.264.253.641.372.994.372.582 0 .96-.333.96-.78 0-.83-1.258-.716-1.258-1.118zm2.191.83v-.99h.577v-.501h-.577v-.726h-.631v2.297c0 .85.7.954 1.054.954.084 0 .144-.01.193-.015v-.552c-.05.01-.08.01-.114.01-.174 0-.502-.06-.502-.477zm1.58-.905h-.01s.01-.08.01-.174v-.447h-.606V4.39h.632V3.367c0-.477.228-.925.745-.925.055 0 .13.005.154.01v-.621a.986.986 0 00-.119-.01c-.383 0-.691.298-.805.656zm1.288-.621h.632V4.39h-.632zm0-.994h.632v.561h-.632zm1.033.01h.627v3.519h-.627zm.999 0h.626v3.519h-.626zM22.706.015A1.529 1.529 0 0022.497 0c-.744 0-1.384.556-1.487 1.294a1.504 1.504 0 001.489 1.71c.744 0 1.383-.556 1.486-1.294.115-.82-.459-1.58-1.28-1.695zm.983 1.654c-.05.363-.264.671-.56.855l-.021-.727.585-.43a1.221 1.221 0 01-.004.302zm-1.86-.052l-.222.692a1.195 1.195 0 01-.22-1.264zm-.372-.714a1.207 1.207 0 011.13-.6l-.408.596zm.946 1.268l.59.426a1.19 1.19 0 01-.662.097 1.192 1.192 0 01-.614-.277zm.566-1.16l-.225-.685a1.192 1.192 0 01.713.452 1.202 1.202 0 01.209.436z" fill="#fff"/></svg>