<svg xmlns="http://www.w3.org/2000/svg" fill="#fff" width="20.198" height="24" xmlns:v="https://vecta.io/nano"><path d="M14.32.002c-.266-.018-.557.078-.722.255-.047.052-.2.3-.34.55-.225.408-.253.483-.253.691a.86.86 0 0 0 .096.418c.087.165.167.236.564.495l.096.063-.986 1.68c-.044.047-.125.039-.504-.05-2.346-.555-4.899-.23-7.007.894a10.06 10.06 0 0 0-4.97 6.28c-.255.985-.295 1.34-.294 2.6 0 .988.013 1.188.098 1.664.387 2.172 1.414 4.118 2.965 5.62 1.573 1.523 3.621 2.51 5.738 2.765l.5.06c.319.038 1.83-.014 2.247-.078 2.492-.382 4.742-1.625 6.295-3.476 1.587-1.892 2.44-4.348 2.348-6.764-.056-1.497-.366-2.735-1.024-4.078-.48-.983-1.054-1.816-1.738-2.522l-.305-.317 1.014-1.755.282.148c.257.135.306.146.554.13.404-.025.551-.147.89-.732.206-.357.276-.519.29-.677a.846.846 0 0 0-.273-.714c-.151-.136-5.018-2.97-5.31-3.093a.794.794 0 0 0-.251-.057zm-4.29 5.952a7.87 7.87 0 0 1 5.547 2.216 7.41 7.41 0 0 1 1.613 2.211c.331.672.523 1.245.669 1.998.185 1.05.121 1.867.023 2.867a4.345 4.345 0 0 1-.132.567c-.026.048-.199.116-.509.201a8.4 8.4 0 0 1-1.825.298c-1.211.082-2.133-.028-3.181-.38-.978-.328-1.703-.734-3.485-1.955-1.824-1.248-2.607-1.661-3.778-1.991a9.447 9.447 0 0 0-1.902-.348l-.55-.05.123-.353c.42-1.207 1.274-2.473 2.234-3.309a8.555 8.555 0 0 1 2.77-1.58 7.91 7.91 0 0 1 2.383-.392zm.097 4.996c-.914.002-1.74.115-2.702.365-.467.122-2.084.562-1.703.539 1.27.322 2.913 1.485 3.702 2.133 1.826-.722 2.866-1.266 4.9-1.757-.037-.002.074-.05-.472-.319-1.532-.755-2.099-.918-3.328-.955a11.942 11.942 0 0 0-.397-.006zm4.793 1.475c-1.19.242-2.135.69-5.132 1.817 2.023 1.308 4.792 2.39 7.701 1.314.13-.801.241-1.878.02-3.44-.745-.083-1.81.173-2.589.309z"/></svg>