<svg xmlns="http://www.w3.org/2000/svg" viewBox="0 0 24 24"><path d="M15.486 17.27a6.76 6.76 0 01-1.77.8 6.145 6.145 0 01-1.79.243 6.305 6.305 0 01-3.019-.722 6.172 6.172 0 01-1.651-1.21 6.35 6.35 0 01-1.482-2.25 6.605 6.605 0 01.908-6.42 6.625 6.625 0 013.916-2.448c.484-.098.722-.12 1.329-.119.605.001.807.02 1.3.12a6.634 6.634 0 012.96 1.437 7.37 7.37 0 011.201 1.345 6.625 6.625 0 011.097 3.113 8.74 8.74 0 01-.038 1.48 6.602 6.602 0 01-.973 2.633c-.058.09-.105.17-.105.182 0 .02.706 1.61.785 1.737l.723 1.538-3.023-1.675m0 0c-.105.164.206.435.685.733.88.548 2.324 1.192 2.791 1.452l-.871-1.974c.067.007.716-.566 1.24-.916a14.015 14.015 0 004.168-4.39l.133-.223-.033-.068a14.28 14.28 0 00-.609-.964 14.031 14.031 0 00-3.345-3.386 13.789 13.789 0 00-8.178-2.556 13.782 13.782 0 00-9.737 4.184C1.317 9.752.545 10.767.05 11.642L0 11.73l.165.273a13.828 13.828 0 0011.187 6.674 17.31 17.31 0 001.738-.03 13.803 13.803 0 002.708-.486c.377-.11.711-.223.736-.248a49.246 49.246 0 00-1.048-.644m-3.48-10.875a.913.913 0 00-.943.82l-.011.122-.116-.047a.923.923 0 00-1 .23c-.195.21-.246.373-.247.783v.286l-.122-.05a1.096 1.096 0 00-.56-.043.94.94 0 00-.684.7c-.029.14-.03 4.233 0 4.521a3.704 3.704 0 003.172 3.308c.81.11 1.678-.062 2.371-.47a3.95 3.95 0 001.296-1.268c.206-.335.386-.795.466-1.193.07-.345.08-.617.08-2.149 0-1.602-.003-1.64-.104-1.84a1.055 1.055 0 00-.322-.356.865.865 0 00-.531-.145c-.2 0-.25.01-.454.094-.03.012-.033-.05-.039-.902-.006-.9-.007-.918-.051-1.04a.922.922 0 00-.714-.61.978.978 0 00-.581.088c-.026.011-.034-.004-.044-.088-.042-.353-.384-.684-.767-.742a.897.897 0 00-.095-.009zm-.037.464a.445.445 0 01.387.22l.06.095.01 2.23c.007 1.76.014 2.238.034 2.273.06.104.249.132.34.05.096-.085.094-.04.095-1.975 0-1.719.002-1.817.036-1.892a.517.517 0 01.273-.24.451.451 0 01.561.285c.037.105.04 4.615.004 4.625l-.222.037a2.603 2.603 0 00-2.014 1.56c-.102.24-.094.36.032.434a.24.24 0 00.353-.14c.037-.113.171-.372.268-.517.38-.567 1.068-.913 1.82-.913h.256v-2.58l.049-.097c.151-.298.58-.342.815-.083a.48.48 0 01.092.155c.014.05.021.591.021 1.622 0 1.261-.005 1.59-.029 1.77a3.245 3.245 0 01-1.452 2.296 3.255 3.255 0 01-1.45.503 63.49 63.49 0 00-.244.017 3.242 3.242 0 01-2.153-.772c-.536-.448-.916-1.089-1.086-1.83-.043-.189-.043-.2-.05-2.446L8.77 9.291l.052-.106a.435.435 0 01.303-.24.448.448 0 01.495.24l.05.101v1.275c0 1.377-.002 1.347.102 1.42.026.02.085.03.146.03.086 0 .11-.008.159-.057a.285.285 0 00.07-.12c.006-.033.012-.902.013-1.93 0-1.77.002-1.873.036-1.947a.45.45 0 01.81-.022l.042.08.01 1.83.01 1.831.047.05c.102.11.275.103.361-.014.041-.055.041-.059.051-2.306l.01-2.25.043-.07a.467.467 0 01.39-.229z" stroke-width="16.374"/></svg>