<svg xmlns="http://www.w3.org/2000/svg" width="100%" height="100%" viewBox="0 0 1080 1080" fill-rule="evenodd" stroke-linejoin="round" stroke-miterlimit="2" xmlns:v="https://vecta.io/nano"><path d="M556.78 842.244h155.417V649.671h45.946l112.268 192.573H1050.2L913.56 620.106c64.724-33.561 109.871-101.081 109.871-179.788 0-112.268-91.492-202.961-202.961-202.961H556.78v78.707c-57.133-53.537-132.244-87.098-216.146-87.098C169.635 228.966 29.8 367.203 29.8 539.8s139.836 311.234 311.234 311.234c83.901 0 159.013-33.561 216.146-87.098v78.308h-.4zM451.304 649.671c-28.367 28.367-67.521 45.946-110.67 45.946-85.499 0-155.417-69.918-155.417-155.417s69.918-155.417 155.417-155.417c43.149 0 81.904 17.18 110.67 45.946L556.78 325.253v429.894L451.304 649.671zm260.893-135.84V373.196h84.7c38.754 0 70.717 31.962 70.717 70.717s-31.962 69.918-70.717 69.918h-84.7z" fill="#00a726" fill-rule="nonzero"/></svg>