<?xml version="1.0" encoding="UTF-8" standalone="no"?>
<!DOCTYPE svg PUBLIC "-//W3C//DTD SVG 1.1//EN" "http://www.w3.org/Graphics/SVG/1.1/DTD/svg11.dtd">
<svg width="100%" height="100%" viewBox="0 0 1080 1080" version="1.1" xmlns="http://www.w3.org/2000/svg" xmlns:xlink="http://www.w3.org/1999/xlink" xml:space="preserve" xmlns:serif="http://www.serif.com/" style="fill-rule:evenodd;clip-rule:evenodd;stroke-linejoin:round;stroke-miterlimit:2;">
    <g transform="matrix(3.9953,0,0,3.9953,18.2136,211.786)">
        <g>
            <path d="M134.8,157.8L173.7,157.8L173.7,109.6L185.2,109.6L213.3,157.8L258.3,157.8L224.1,102.2C240.3,93.8 251.6,76.9 251.6,57.2C251.6,29.1 228.7,6.4 200.8,6.4L134.8,6.4L134.8,26.1C120.5,12.7 101.7,4.3 80.7,4.3C37.9,4.3 2.9,38.9 2.9,82.1C2.9,125.3 37.9,160 80.8,160C101.8,160 120.6,151.6 134.9,138.2L134.9,157.8L134.8,157.8ZM108.4,109.6C101.3,116.7 91.5,121.1 80.7,121.1C59.3,121.1 41.8,103.6 41.8,82.2C41.8,60.8 59.3,43.3 80.7,43.3C91.5,43.3 101.2,47.6 108.4,54.8L134.8,28.4L134.8,136L108.4,109.6ZM173.7,75.6L173.7,40.4L194.9,40.4C204.6,40.4 212.6,48.4 212.6,58.1C212.6,67.8 204.6,75.6 194.9,75.6L173.7,75.6Z" style="fill:rgb(0,167,38);fill-rule:nonzero;"/>
        </g>
    </g>
</svg>
