<?xml version="1.0" encoding="UTF-8" standalone="no"?>
<!DOCTYPE svg PUBLIC "-//W3C//DTD SVG 1.1//EN" "http://www.w3.org/Graphics/SVG/1.1/DTD/svg11.dtd">
<svg width="100%" height="100%" viewBox="0 0 180 179" version="1.1" xmlns="http://www.w3.org/2000/svg" xmlns:xlink="http://www.w3.org/1999/xlink" xml:space="preserve" xmlns:serif="http://www.serif.com/" style="fill-rule:evenodd;clip-rule:evenodd;stroke-linejoin:round;stroke-miterlimit:2;">
    <g transform="matrix(1,0,0,1,115,4)">
        <path d="M0,0C1.369,0.4 1.369,0.4 2.766,0.809C15.399,4.964 25.97,11.225 35.414,20.484C37.907,23.009 37.907,23.009 40.559,24.953C50.699,33.455 56.887,47.948 60.813,60.25C61.02,60.899 61.227,61.549 61.44,62.218C68.111,84.366 64.319,108.712 54.081,128.989C49.687,137.164 43.693,143.671 37,150C36.196,150.846 35.391,151.691 34.563,152.563C16.325,169.911 -6.163,175.604 -30.813,175.266C-52.066,174.605 -73.167,165 -88.102,149.871C-89.254,148.574 -90.377,147.25 -91.465,145.898C-92.966,143.978 -92.966,143.978 -94.691,142.289C-109.691,126.92 -114.374,103.928 -114.302,83.288C-113.905,61.602 -105.751,39.36 -90,24C-65.924,0.904 -32.62,-9.761 0,0Z" style="fill:rgb(203,243,233);fill-rule:nonzero;"/>
    </g>
    <g transform="matrix(1,0,0,1,115,4)">
        <path d="M0,0C0.936,0.278 1.872,0.557 2.836,0.844C10.355,3.343 17.126,7.11 24,11C23.414,14.261 3.555,36.003 0,40C-0.606,39.807 -1.212,39.613 -1.836,39.414C-19.636,33.882 -35.489,33.067 -52.75,41.563C-63.946,48.187 -72.767,58.638 -76.875,71C-80.105,84.517 -79.031,98.562 -71.875,110.5C-63.409,123.013 -53.102,132.554 -38,136C-33.948,136.38 -29.942,136.376 -25.875,136.313C-24.83,136.316 -23.784,136.319 -22.707,136.322C-17.067,136.283 -12.416,135.695 -7,134C-3.93,133.527 -3.93,133.527 -1,134C1.227,135.808 24.98,158.129 26,159C8.366,173.974 -14.796,176.237 -37,175C-56.561,173.007 -76.85,162.535 -89.875,147.875C-90.4,147.223 -90.924,146.57 -91.465,145.898C-92.966,143.978 -92.966,143.978 -94.691,142.289C-109.691,126.92 -114.374,103.928 -114.302,83.288C-113.905,61.602 -105.751,39.36 -90,24C-65.934,0.913 -32.611,-9.775 0,0Z" style="fill:rgb(71,186,145);fill-rule:nonzero;"/>
    </g>
    <g transform="matrix(1,0,0,1,109.465,61.4922)">
        <path d="M0,0C6.784,4.876 12.38,11.501 14.285,19.758C15.035,31.006 15.504,41.191 7.896,50.298C0.796,58.203 -6.725,62.781 -17.375,63.781C-26.853,64.087 -34.675,62.484 -42.109,56.313C-51.002,47.607 -54.518,40.036 -54.902,27.445C-54.624,16.824 -50.934,9.878 -43.465,2.508C-42.578,1.6 -41.691,0.693 -40.777,-0.242C-28.322,-10.041 -12.677,-7.674 0,0Z" style="fill:rgb(42,145,95);fill-rule:nonzero;"/>
    </g>
    <g transform="matrix(1,0,0,1,160,35)">
        <path d="M1,0C11.306,12.265 18.313,31.265 19.121,47.42C19.911,69.168 16.798,90.983 2,108C-1.43,105.411 -23.531,86.927 -25,85C-23.094,80.398 -19.898,74.726 -19,72.914C-14.69,62.052 -16.491,45.622 -20.93,34.969C-21.961,32.85 -21.961,31.85 -25,28C-24.825,24.926 -0.833,2.065 1,0Z" style="fill:rgb(52,156,111);fill-rule:nonzero;"/>
    </g>
</svg>
