<svg fill="#fff" xmlns="http://www.w3.org/2000/svg" width="75" height="90.709" viewBox="0 0 19.844 24"><path d="M113.612 241.929c0-.055.209-.264.463-.463.42-.33.43-.32.1.1-.346.44-.563.58-.563.363zm-77.027-41.11c-.33-.42-.32-.428.1-.1.254.2.463.409.463.464 0 .217-.218.077-.563-.363zm131.134-.33c.264-.291.539-.53.612-.53.072 0-.084.239-.347.53-.263.29-.538.529-.611.529-.073 0 .083-.238.346-.53zm7.806-7.773c0-.055.208-.263.463-.463.42-.33.429-.32.1.1-.346.44-.563.58-.563.363zm-147.936-.892c-.33-.42-.32-.43.1-.1.44.345.58.563.363.563-.055 0-.263-.209-.463-.463zm150.317-1.754c0-.055.208-.263.463-.463.42-.329.429-.32.1.1-.346.44-.563.581-.563.363zm-152.434-.628c-.329-.42-.32-.429.1-.1.44.346.581.564.363.564-.055 0-.263-.209-.463-.464zm130.738-.166c0-.054.208-.263.463-.463.42-.329.43-.32.1.1-.346.441-.563.581-.563.363zm5.689-5.456c1.303-1.31 2.43-2.381 2.502-2.381.073 0-.934 1.071-2.238 2.381-1.303 1.31-2.43 2.381-2.502 2.381-.073 0 .934-1.071 2.238-2.38zm-119.732.066l-1.712-1.786 1.786 1.712c.982.942 1.786 1.746 1.786 1.786 0 .195-.27-.053-1.86-1.712zm-4.524-4.762c-.33-.42-.32-.43.1-.1.255.2.463.408.463.463 0 .218-.217.077-.563-.363zm128.886-.166c0-.055.208-.264.463-.463.42-.33.429-.32.1.1-.346.44-.563.58-.563.363zM59.442 167.226c.403-.06.998-.06 1.323.004.326.063-.003.113-.73.11-.729-.001-.995-.053-.593-.114zm84.134 0c.4-.06 1.055-.06 1.455 0 .4.06.073.11-.727.11-.8 0-1.128-.05-.728-.11zm-91.38-2.654c-.33-.42-.32-.43.099-.1.44.345.58.563.363.563-.055 0-.263-.209-.463-.463zm16.172-.728c.342-.364.681-.661.754-.661.073 0-.147.297-.489.661-.342.364-.68.662-.754.662-.072 0 .148-.298.49-.662zm67.047-.198l-.504-.596.595.504c.328.278.596.545.596.596 0 .211-.213.055-.687-.504zm-45.5-7.343c0-3.856.037-5.433.082-3.505.046 1.928.046 5.083 0 7.011-.045 1.928-.082.35-.082-3.506zm-42.097-1.19c0-1.019.049-1.403.106-.854.057.549.056 1.382-.002 1.852-.059.47-.105.02-.104-.998zm108.479 0c0-1.019.049-1.403.106-.854.058.549.057 1.382-.002 1.852-.058.47-.105.02-.104-.998zm39.357.507c.013-.308.075-.371.16-.16.076.191.067.42-.021.507-.088.088-.15-.068-.14-.347zM8.174 97.169c0-30.56.03-43.022.068-27.694.038 15.328.038 40.33 0 55.563-.038 15.231-.069 2.69-.069-27.869zm13.957-.58c-.036-29.568.025-53.816.134-53.883.18-.111.178 36.395-.002 88.197-.037 10.696-.097-4.745-.132-34.314zm130.495 49.859l-1.046-1.125 1.124 1.046c1.046.973 1.246 1.203 1.046 1.203-.043 0-.549-.506-1.124-1.124zm-101.985.777c0-.046.387-.433.86-.86l.86-.777-.777.86c-.724.801-.943.981-.943.777zm95.73-4.067c.19-.076.42-.067.507.021.088.088-.068.15-.347.139-.308-.013-.371-.075-.16-.16zm-86.734-.188c0-.057.185-.175.41-.261.236-.09.342-.046.25.104-.156.251-.66.372-.66.157zm84.336-.07c.182-.074.48-.074.662 0 .181.072.033.133-.331.133s-.513-.06-.33-.134zm-14.75-28.219c0-.045.387-.432.86-.86l.86-.777-.778.86c-.724.802-.942.981-.942.777zm-15.304-1.505c0-.363.06-.512.133-.33.073.182.073.48 0 .661-.073.182-.133.033-.133-.33zm-42.798-1.653l-.504-.596.596.504c.56.474.715.687.504.687-.05 0-.318-.268-.596-.595zm61.012-.034c0-.055.208-.263.463-.463.42-.33.429-.32.1.1-.346.44-.563.58-.563.363zm-62.21-1.421c-.33-.42-.32-.43.1-.1.44.345.58.563.362.563-.055 0-.263-.209-.463-.463zm46.07-2.05c.342-.365.681-.662.754-.662.073 0-.147.297-.489.661-.342.364-.68.662-.754.662-.072 0 .148-.298.49-.662zm2.646-2.085c0-.055.209-.264.463-.463.42-.33.43-.32.1.1-.345.44-.563.58-.563.363zm-35.718-1.62c-.643-.655-1.11-1.19-1.037-1.19.073 0 .658.535 1.301 1.19.643.655 1.11 1.19 1.036 1.19-.072 0-.658-.535-1.3-1.19zm38.761-1.455c.263-.291.538-.53.611-.53.073 0-.083.239-.346.53-.264.29-.539.529-.612.529-.072 0 .084-.238.347-.53zm-20.434-4.946c.257-.067.615-.063.794.01.179.072-.032.127-.468.122-.437-.005-.583-.065-.326-.132zm39.902-5.263c.012-.308.075-.37.16-.16.076.191.067.42-.021.507-.088.088-.15-.068-.14-.347zm-79.11-.265c.012-.308.075-.37.16-.16.076.192.066.42-.022.508-.088.088-.15-.069-.139-.348zm79.395-1.433c0-.363.06-.512.134-.33.073.182.073.48 0 .661-.074.182-.134.033-.134-.33zm-79.66-.419c.012-.308.075-.37.16-.16.076.192.067.42-.021.508-.088.088-.15-.069-.14-.348zm65.881-.529c.013-.308.075-.37.16-.16.076.191.067.42-.021.508-.088.087-.15-.069-.139-.348zm-52.123-.264c.013-.309.075-.371.16-.16.076.19.067.419-.02.507-.089.088-.151-.068-.14-.347zm66.2-1.83c.003-.728.054-.994.115-.592.06.402.06.997-.004 1.323-.063.325-.113-.004-.11-.731zm-80.146-1.985c0-1.528.044-2.153.097-1.389.054.764.054 2.014 0 2.778-.053.764-.097.14-.097-1.389zm66.38 1.72c.002-.582.057-.789.12-.46.063.33.06.805-.005 1.058-.066.253-.118-.016-.115-.598zm-52.63-1.455c0-1.092.046-1.538.103-.992a11.52 11.52 0 010 1.984c-.057.546-.103.1-.103-.992zm37.238 1.433c.012-.308.075-.37.16-.16.076.191.067.42-.021.507-.088.088-.15-.068-.14-.347zm.02-1.698c0-.364.06-.512.134-.33.073.181.073.48 0 .661-.073.182-.133.033-.133-.33zm15.366-1.587c0-.51.055-.718.121-.463.067.254.067.671 0 .926-.066.254-.12.046-.12-.463zm13.773-.662c.002-.727.053-.994.114-.591.06.402.06.997-.004 1.323-.063.325-.113-.004-.11-.732zm-66.2-1.08c.012-.308.074-.371.159-.16.076.191.067.42-.02.507-.089.088-.151-.068-.14-.347zm-13.738-1.433c0-.364.06-.513.133-.331.073.182.073.48 0 .661-.073.182-.133.034-.133-.33zm79.618-.684c.013-.308.076-.37.16-.16.077.191.067.42-.02.508-.089.087-.151-.069-.14-.348zM62.04 79.42c.013-.308.076-.371.16-.16.077.191.067.42-.02.507-.089.088-.151-.068-.14-.347zm38.943-3.74c.402-.06.997-.059 1.323.004.325.063-.004.113-.731.11-.728-.001-.994-.053-.592-.113zm-37.905-.853c0-.137.117-.321.261-.41.15-.093.195.013.104.249-.176.458-.365.542-.365.161zm19.182-6.894c.263-.291.538-.53.611-.53.073 0-.083.239-.346.53-.264.29-.539.529-.612.529-.072 0 .084-.238.347-.53zm38.083-.86l-.777-.86.86.777c.802.724.982.943.777.943-.045 0-.432-.387-.86-.86zm-36.892-.299c0-.055.208-.263.463-.463.42-.329.429-.32.1.1-.346.441-.563.581-.563.363zM73.263 57.35c.569-.582 1.093-1.058 1.166-1.058.073 0-.333.476-.901 1.058-.569.582-1.093 1.059-1.166 1.059-.073 0 .333-.477.901-1.059zm25.868-11.825c.258-.067.615-.062.794.01.18.073-.031.127-.468.122-.437-.005-.583-.065-.326-.132zm4.625.008c.182-.073.48-.073.662 0 .182.074.033.134-.33.134-.365 0-.513-.06-.332-.134zM4.455 39.027l-.777-.86.86.777c.473.427.86.814.86.86 0 .204-.219.024-.943-.777zM15.653 10.86c.33-.063.806-.06 1.059.005.253.067-.017.118-.599.115-.582-.002-.789-.057-.46-.12zm171.715 0c.329-.063.805-.06 1.058.005.253.067-.016.118-.598.115-.582-.002-.79-.057-.46-.12z" fill="#e1e1e1"/><path d="M112.818 242.722c0-.055.209-.263.463-.463.42-.329.43-.32.1.1-.345.44-.563.581-.563.363zm-12.766-28.385c.182-.074.48-.074.662 0 .182.073.033.133-.331.133s-.513-.06-.33-.133zm2.663-.005c.19-.077.419-.067.507.02.088.088-.069.15-.347.14-.309-.013-.371-.076-.16-.16zm-67.048-14.438l-.504-.595.596.504c.559.473.715.686.504.686-.05 0-.319-.268-.596-.595zm133.11-.463c.264-.292.54-.53.612-.53.073 0-.083.238-.347.53-.263.29-.538.529-.61.529-.074 0 .082-.238.346-.53zm6.086-6.086c.264-.291.539-.53.611-.53.073 0-.083.239-.346.53-.264.291-.539.53-.611.53-.073 0 .083-.239.346-.53zm-146.34-.595l-.504-.596.596.504c.56.474.716.687.504.687-.05 0-.318-.268-.595-.595zm19.439-3.308c-.33-.42-.32-.429.1-.1.254.2.463.409.463.464 0 .217-.218.077-.563-.364zm111.026-2.711c.264-.292.539-.53.611-.53.073 0-.083.238-.346.53-.264.29-.539.529-.611.529-.073 0 .083-.238.346-.53zm-114.452-.464l-.642-.727.728.641c.68.6.849.814.642.814-.048 0-.375-.327-.728-.728zm-4.635-4.63l-.504-.595.595.504c.56.474.716.687.504.687-.05 0-.318-.268-.595-.596zm124.908-.727c.263-.291.538-.53.611-.53.073 0-.083.239-.346.53-.264.29-.539.529-.612.529-.072 0 .084-.238.347-.53zM8.33 155.355c.013-.308.075-.37.16-.16.076.191.067.42-.021.508-.088.087-.15-.069-.14-.348zm173.41-58.715c0-29.832.032-41.997.07-27.033.037 14.964.037 39.372 0 54.24-.038 14.868-.07 2.625-.07-27.207zm-88.128-2.05l-.504-.596.595.504c.328.277.596.545.596.595 0 .212-.213.056-.687-.504zm18.964-7.762c.012-.308.075-.37.16-.16.076.191.067.42-.021.508-.088.087-.15-.069-.14-.348zm-10.919-27.543c.191-.076.42-.067.507.021.088.088-.068.15-.347.14-.308-.014-.37-.076-.16-.16zm-.816-13.768c.47-.059 1.303-.06 1.852-.002.55.057.165.105-.854.106-1.018 0-1.468-.046-.998-.104zm98.604-29.773l-.504-.596.596.504c.327.277.595.545.595.596 0 .211-.213.055-.687-.504z" fill="#c5c5c5"/><path d="M38.172 202.142c-.329-.42-.32-.429.1-.1.255.2.463.409.463.464 0 .217-.217.077-.563-.364zm127.563.099c0-.055.208-.263.463-.463.42-.33.43-.32.1.1-.346.44-.563.58-.563.363zm-131.382-3.67l-.777-.86.86.777c.801.724.981.942.777.942-.046 0-.433-.386-.86-.86zm137.468-2.183c1.376-1.383 2.562-2.514 2.635-2.514.073 0-.994 1.131-2.37 2.514-1.378 1.382-2.564 2.513-2.636 2.513-.073 0 .994-1.13 2.37-2.513zM29.719 193.94l-.641-.727.727.641c.68.6.85.814.642.814-.048 0-.375-.327-.728-.728zm128.079-5.986c0-.055.208-.264.463-.463.42-.33.429-.32.1.1-.346.44-.563.58-.563.363zm-112.217-.628c-.33-.42-.32-.43.1-.1.44.346.58.563.363.563-.055 0-.264-.209-.463-.463zm-6.615-6.615c-.33-.42-.32-.429.1-.1.44.346.58.563.363.563-.055 0-.263-.208-.463-.463zm126.505-.43c0-.055.208-.264.463-.463.42-.33.429-.32.1.1-.346.44-.563.58-.563.363zm-56.224-85.625c.263-.292.538-.53.61-.53.074 0-.082.238-.346.53-.263.29-.538.529-.611.529-.073 0 .083-.238.347-.53zm19.413-38.564c-.33-.42-.32-.429.1-.1.254.2.463.409.463.464 0 .217-.218.077-.563-.364zm70.677-17.131c.342-.364.681-.662.754-.662.073 0-.147.298-.49.662-.341.364-.68.661-.753.661-.073 0 .147-.297.49-.661zM4.604 15.677c.342-.363.68-.661.754-.661.072 0-.148.298-.49.661-.341.364-.68.662-.753.662-.073 0 .147-.298.489-.662z" fill="#b4b4b4"/><path d="M151.977 164.423c0-.046.387-.433.86-.86l.86-.777-.778.86c-.724.801-.942.981-.942.777zm-100.826-.91l-.642-.727.728.641c.68.6.849.814.641.814-.047 0-.375-.328-.727-.728zm25.486-14.022c2.437-.044 6.426-.044 8.863 0 2.438.044.443.08-4.432.08s-6.869-.036-4.431-.08zm41.275 0c2.437-.044 6.426-.044 8.863 0 2.438.044.443.08-4.432.08s-6.869-.036-4.431-.08zm-45.046-36.182c-.642-.655-1.109-1.191-1.036-1.191.073 0 .658.536 1.3 1.19.644.655 1.11 1.191 1.037 1.191-.073 0-.658-.536-1.3-1.19zm16.425.771c.013-.308.076-.37.16-.16.077.191.067.42-.02.508-.089.087-.151-.069-.14-.348zm42.048-1.83c.342-.364.681-.661.754-.661.073 0-.147.297-.49.661-.34.364-.68.662-.753.662-.073 0 .148-.298.49-.662zm-42.048-.022c.013-.308.076-.37.16-.16.077.191.067.42-.02.508-.089.087-.151-.069-.14-.348zm-2.021-4.145l-.778-.86.86.777c.473.428.86.815.86.86 0 .205-.218.025-.942-.777zm-2.796-2.249c-.329-.42-.32-.429.1-.1.44.346.581.563.363.563-.055 0-.263-.208-.463-.463zm36.017-1.521c.494-.51.957-.926 1.03-.926.073 0-.271.417-.765.926-.494.51-.957.926-1.03.926-.073 0 .272-.417.765-.926zM81.3 102.659c-.329-.42-.32-.429.1-.1.44.346.581.563.363.563-.055 0-.263-.208-.463-.463zM61.775 89.74c.012-.309.075-.371.16-.16.076.19.067.419-.021.507-.088.088-.15-.068-.14-.347zm13.494-1.323c.012-.308.075-.371.16-.16.076.19.066.42-.022.507-.087.088-.15-.068-.138-.347zm66.456-2.624c.003-.582.057-.79.12-.46s.061.805-.005 1.058-.118-.016-.115-.598zm-66.456-1.874c.012-.308.075-.371.16-.16.076.191.066.42-.022.507-.087.088-.15-.068-.138-.347zm52.652-.794c.012-.308.075-.37.16-.16.076.191.066.42-.021.507-.088.088-.15-.068-.14-.347zm-66.146-1.058c.012-.308.075-.371.16-.16.076.19.067.42-.021.507-.088.088-.15-.068-.14-.347zm79.64-.794c.012-.308.075-.37.16-.16.076.191.066.42-.022.507-.088.088-.15-.068-.139-.347z" fill="#b0b0b0"/><path d="M101.248 214.328c.257-.067.615-.062.794.01.179.073-.032.128-.468.122-.437-.005-.583-.064-.326-.131zm62.635-10.5c0-.054.208-.263.463-.462.42-.33.43-.32.1.1-.346.44-.563.58-.563.363zm2.646-2.38c0-.056.208-.264.463-.464.42-.329.429-.32.1.1-.346.44-.563.581-.563.363zM31.98 196.188l-1.58-1.653 1.654 1.579c1.536 1.467 1.775 1.728 1.58 1.728-.041 0-.785-.744-1.654-1.654zm-4.92-5.159c-.33-.42-.32-.429.1-.1.44.346.58.563.363.563-.055 0-.264-.208-.463-.463zm21.96-.53c-.329-.419-.32-.428.1-.1.255.2.463.409.463.464 0 .218-.217.078-.563-.363zm107.984-1.753c0-.055.208-.263.463-.463.42-.329.429-.32.1.1-.346.44-.563.581-.563.363zm-110.63-.627c-.329-.42-.32-.43.1-.1.255.2.463.408.463.463 0 .217-.217.077-.563-.363zm-8.202-8.203c-.329-.42-.32-.429.1-.1.255.2.463.409.463.464 0 .217-.217.077-.563-.364zM8.33 154.562c.013-.309.075-.371.16-.16.076.19.067.419-.021.507-.088.088-.15-.068-.14-.347zm187.346-.64c0-.364.06-.512.133-.33.074.181.074.479 0 .66-.073.183-.133.034-.133-.33zm-14.044-2.535c.013-.309.075-.371.16-.16.076.19.067.419-.021.507-.088.088-.15-.069-.139-.347zm-72.41-72.408l-.504-.595.596.504c.56.473.715.686.504.686-.05 0-.318-.268-.596-.595zM82.656 67.304c0-.055.208-.264.463-.463.42-.33.429-.32.1.1-.346.44-.563.58-.563.363zm17.534-8.021c.257-.068.614-.063.793.01.18.072-.031.127-.468.122-.436-.005-.583-.065-.325-.132zm2.645 0c.258-.068.615-.063.794.01.18.072-.031.127-.468.122-.436-.005-.583-.065-.326-.132zm27.032-2l-.777-.86.86.777c.473.428.86.815.86.86 0 .205-.218.025-.943-.777zm-55.413-.827c0-.055.208-.264.463-.463.42-.33.429-.32.1.1-.346.44-.563.58-.563.363zM97.688 45.79c.19-.076.419-.067.507.021.088.088-.069.15-.348.14-.308-.013-.37-.076-.16-.16zM204.12 25.974c.012-.308.075-.37.16-.16.076.191.066.42-.021.507-.088.088-.15-.068-.14-.347z" fill="#a4a4a4"/><path d="M9.92 0L6.225.683l-3.696.682-.186-.092a1.456 1.456 0 00-.777-.184c-.24 0-.314.01-.483.07A1.61 1.61 0 00.046 2.242a1.957 1.957 0 00-.012.784c.087.355.308.69.595.903l.177.132.008 5.569.008 5.568.058.258c.27 1.179.942 2.274 2.162 3.518 1.218 1.242 2.829 2.45 4.806 3.606l.499.291.059.145c.193.476.624.84 1.121.948.733.159 1.519-.237 1.796-.905.048-.114.073-.139.25-.238 1.28-.72 2.64-1.627 3.64-2.427 2.17-1.734 3.411-3.378 3.748-4.965l.06-.282.007-5.553.008-5.552.128-.088c.2-.136.396-.366.512-.6a1.55 1.55 0 00-.308-1.819c-.49-.483-1.192-.591-1.822-.28-.183.09-.23.103-.32.09-.06-.01-1.727-.316-3.707-.682zM9.9 1.567l3.387.625c1.862.344 3.389.629 3.393.634.004.004.014.072.023.15l.015.141-1.984 1.29-1.983 1.29-.226-.215c-.506-.482-1.14-.808-1.883-.97-.37-.08-1.146-.08-1.51 0a4.05 4.05 0 00-1.853.943 1.546 1.546 0 00-.225.222c0 .013-.014.024-.032.023-.023 0-3.256-2.082-3.872-2.493-.056-.037-.057-.044-.028-.218l.03-.18 3.374-.621zm7.303 2.279l.125.089c.068.049.174.113.234.144l.11.055-.007 5.391-.007 5.392-.108.315c-.201.584-.57 1.221-1.062 1.834-.301.376-1.223 1.29-1.696 1.682a23.77 23.77 0 01-3.303 2.266 6.01 6.01 0 01-.488.264.485.485 0 01-.13-.09 1.843 1.843 0 00-.629-.31 1.432 1.432 0 00-.437-.03c-.337.015-.565.09-.84.276l-.194.132-.26-.147c-1.46-.824-2.948-1.872-3.912-2.753-1.328-1.214-2.113-2.334-2.381-3.397l-.074-.292V4.14l.105-.047c.058-.026.158-.085.223-.13l.116-.084.093.06c.051.031 1.173.754 2.494 1.605 1.32.851 2.41 1.55 2.42 1.552.01.003.077-.081.148-.187a2.645 2.645 0 011.51-1.07c.218-.058.312-.068.629-.07.42 0 .669.046 1.022.193.432.18.951.624 1.163.994.052.091.103.152.122.146.018-.006 1.1-.708 2.404-1.559 1.304-.851 2.425-1.581 2.49-1.622zm-3.58 3.399l-.592.39-.591.392.007.28c.013.492-.113.96-.369 1.366-.19.302-.301.428-.593.669-.314.258-.382.373-.382.643v.182l.816 1.656c.45.911.817 1.671.817 1.689 0 .025-.188.032-.849.032h-.848v1.311h2.083l.133.105c.163.128.288.194.464.24.277.076.614.034.872-.106a1.43 1.43 0 00.459-.472c.175-.343.167-.81-.02-1.13a1.235 1.235 0 00-1.02-.59h-.082l-.685-1.38-.685-1.38.195-.22c.487-.555.77-1.091.925-1.748.118-.508.108-1.301-.024-1.808zm-7.456.033c-.01.001-.014.007-.017.015-.01.026-.045.168-.077.314-.078.351-.085 1.065-.013 1.42.092.457.252.88.47 1.241.146.242.398.57.56.727a.48.48 0 01.118.148c0 .018-.305.644-.679 1.39l-.678 1.358-.186.03c-.472.072-.871.434-.974.883-.065.28-.011.63.134.877.133.227.426.448.687.518.376.101.778.01 1.084-.244l.12-.1h2.009v-1.311h-.848c-.467 0-.849-.01-.849-.022 0-.011.372-.772.827-1.69l.826-1.669v-.167c0-.232-.065-.37-.252-.528-.577-.49-.832-.839-.996-1.361a2.329 2.329 0 01-.115-.857L7.33 8l-.581-.378c-.417-.27-.542-.347-.583-.344zm3.708.097c-.267-.002-.537.1-.751.314a1.052 1.052 0 00-.2 1.223c.127.269.435.508.728.565.498.098.968-.143 1.19-.609.074-.158.081-.194.081-.43 0-.235-.007-.271-.082-.43a1.078 1.078 0 00-.966-.633z"/></svg>