<svg xmlns="http://www.w3.org/2000/svg" fill="#fff" viewBox="0 0 24 24"><path d="M12.025 1.709c-.312 0-.623.01-.803.032-1.266.146-2.284.604-3.071 1.383-.15.148-.348.368-.44.49-.786 1.038-1.257 2.475-1.311 4-.01.255-.026.47-.037.476a2.049 2.049 0 01-.187.064l-.166.052.01-.185.01-.185-.188-.045c-.287-.068-.934-.081-1.235-.025-.685.129-1.181.493-1.465 1.075-.15.308-.226.6-.265 1.02-.04.435-.044.415.07.415.11 0 .11-.038-.004.39-.074.279-.114.652-.083.777.01.04.08.138.154.216.131.14.134.146.105.235l-.03.092-.184-.013c-.261-.02-.432.043-.605.22-.123.124-.163.2-.442.855-.339.792-.37.915-.284 1.146l.057.16c.01.032-.04.05-.233.088-.282.055-.609.182-.69.27a.373.373 0 00-.03.478c.028.04.051.079.051.087 0 .008-.067.118-.15.244-.39.599-.58 1.18-.58 1.772 0 .6.194 1.082.623 1.552.236.258.317.309.54.34.352.049.612-.046.648-.236.02-.104-.044-.283-.157-.441a1.962 1.962 0 01-.296-.612c-.072-.257-.065-.824.012-1.113.06-.227.255-.646.359-.773l.061-.075.201.086c.111.047.304.12.43.16.201.066.229.083.245.15.01.042.051.364.09.715l.073.638-.228.236c-.47.489-.572.786-.288.849.178.039.634-.19 1.06-.532l.242-.194-.008-.643a18.9 18.9 0 00-.023-.824c-.015-.176-.014-.18.054-.197.095-.024.225-.178.246-.291a.446.446 0 00-.014-.187c-.036-.11-.288-.52-.418-.677l-.09-.11.102-.03a.788.788 0 00.387-.293c.034-.056.193-.403.352-.772.23-.533.292-.704.303-.832a.722.722 0 00-.128-.503c-.078-.117-.08-.128-.04-.188.04-.063.045-.063.202-.031.269.055.44-.018.725-.31.146-.15.148-.151.221-.11.085.049.086.053.036.398-.115.794-.073 1.23.194 2.019.172.51.466 1.156.732 1.615a1.9 1.9 0 01.105.193c0 .008-.348.017-.772.022l-.771.008-.182.086a1.304 1.304 0 00-.538.487c-.124.228-.278.99-.343 1.705-.088.963.077 2.53.323 3.063.138.3.495.572.823.628.072.012 1.031.02 2.13.018 2.264-.004 2.13.008 2.334-.223.114-.13.116-.137.214-.75a9.706 9.706 0 01.468-1.754 9.764 9.764 0 001.419.496l.342.09.342-.09a9.74 9.74 0 001.185-.4c.125-.052.23-.092.232-.09.022.024.185.529.264.816a8.9 8.9 0 01.244 1.163c.062.423.152.577.403.69.1.045.245.049 2.066.056 1.215.005 2.024-.003 2.132-.02.366-.056.715-.311.861-.63.246-.534.411-2.1.323-3.063-.065-.714-.218-1.477-.343-1.705a1.306 1.306 0 00-.538-.487l-.181-.086-.772-.008a11.064 11.064 0 01-.771-.022c0-.008.047-.095.104-.193.267-.46.56-1.106.732-1.615.268-.792.31-1.228.195-2.02-.05-.344-.05-.348.035-.397.074-.041.075-.04.227.113.291.295.45.362.72.307.156-.032.161-.032.202.03.04.06.037.072-.04.19a.722.722 0 00-.129.502c.01.128.073.299.303.832.16.37.325.723.368.788a.796.796 0 00.4.286l.078.018-.097.118c-.134.165-.379.559-.416.672a.445.445 0 00-.014.187c.022.113.152.267.246.29.069.018.069.019.054.238-.008.12-.019.492-.023.824l-.007.603.242.194c.426.342.882.57 1.06.53.284-.061.183-.36-.288-.847l-.228-.237.072-.638c.04-.35.08-.672.091-.714.016-.068.044-.084.246-.15.125-.04.318-.113.429-.16l.2-.087.062.076c.104.127.299.546.36.773.076.289.083.856.012 1.113a1.962 1.962 0 01-.297.612c-.113.157-.177.337-.157.44.036.19.296.286.648.237.223-.031.304-.082.54-.34.429-.47.623-.953.623-1.552 0-.59-.19-1.173-.58-1.772a2.718 2.718 0 01-.15-.244.46.46 0 01.058-.097c.08-.111.083-.31.008-.414a.776.776 0 00-.228-.162c-.171-.086-.57-.196-.707-.196h-.07l.06-.114c.046-.088.06-.16.06-.317.001-.2-.004-.214-.308-.925-.28-.66-.32-.735-.443-.86-.174-.176-.344-.238-.606-.22l-.183.014-.03-.092c-.03-.09-.027-.096.105-.235a.757.757 0 00.154-.216c.031-.125-.01-.5-.084-.778-.114-.427-.114-.39-.003-.39.114 0 .11.02.07-.415-.04-.42-.116-.711-.266-1.02-.284-.584-.777-.945-1.468-1.074-.297-.056-.946-.043-1.231.025l-.189.045.01.184.01.184-.186-.055-.188-.055-.018-.392c-.073-1.587-.425-2.83-1.077-3.812-.824-1.242-2.069-1.967-3.687-2.151a8.346 8.346 0 00-.807-.03zm-.075.365a6.348 6.348 0 011.783.22c1.49.43 2.505 1.433 3.069 3.03.231.655.36 1.386.419 2.359l.017.292-.103-.017-.439-.08-.335-.063-.018-.507c-.045-1.286-.439-2.304-1.179-3.044-.812-.812-2.093-1.231-3.58-1.171-1.398.057-2.412.534-3.116 1.467-.205.27-.483.823-.598 1.187-.167.53-.27 1.22-.27 1.818v.255l-.416.08-.416.08v-.235c0-.622.16-1.545.39-2.242.649-1.967 1.974-3.1 3.943-3.368.277-.038.563-.058.85-.061zm-.108 1.276c.54 0 .847.03 1.283.127.784.173 1.357.474 1.856.973.463.463.762 1.003.947 1.709.124.476.2 1.177.161 1.487l-.015.122-.165-.02c-.091-.01-.431-.026-.756-.037a10.7 10.7 0 00-2.59.222c-.257.052-.505.099-.55.103a1.773 1.773 0 01-.348-.057 10.758 10.758 0 00-2.066-.264c-.448-.013-1.536.022-1.66.053l-.07.017v-.331c0-1.23.378-2.315 1.062-3.052.333-.358.643-.57 1.107-.756.516-.207 1.066-.297 1.804-.296zm-1.653 1.64c-.205 0-.409.052-.576.16a1.121 1.121 0 00-.52.81l-.014.1.273.01c.15.004.647.01 1.103.014l.828.005-.014-.16c-.027-.3-.22-.598-.498-.775a1.1 1.1 0 00-.582-.164zm3.69.012c-.26 0-.296.007-.46.085a1.098 1.098 0 00-.475.407c-.09.14-.166.372-.166.506v.09h2.2v-.062c0-.111-.079-.37-.15-.492a1.19 1.19 0 00-.487-.445c-.168-.083-.197-.09-.462-.09zm4.91 3.103c.207 0 .433.008.523.024.42.073.825.3 1.04.584.187.246.337.642.384 1.015l.018.137-.359.014c-.622.024-1.01.199-1.495.672a1.684 1.684 0 00-.417.59l-.12.26c-.034.075-.027-.207.023-.858.033-.427.033-1.417 0-1.97a3.365 3.365 0 01-.01-.443c.016-.016.205-.024.413-.025zm-13.577 0c.208 0 .397.01.413.025.007.008 0 .249-.015.536-.032.588-.015 1.825.03 2.256.017.157.027.344.023.416l-.008.13-.038-.106a3.393 3.393 0 00-.268-.535c-.088-.13-.38-.413-.57-.555-.37-.273-.766-.4-1.26-.4h-.273l.018-.14c.048-.377.197-.772.385-1.02.215-.283.619-.51 1.04-.584.09-.015.316-.023.523-.022zm9.592.002c1.1-.008 1.956.112 2.903.4l.274.085.02.177c.037.3.026 1.437-.015 1.76-.021.163-.037.44-.036.618.003.312.02.45.144 1.22.068.422.08 1.044.028 1.316-.046.234-.251.857-.395 1.2a12.21 12.21 0 01-.71 1.37 6.949 6.949 0 01-.932 1.19c-1.041 1.07-2.146 1.744-3.556 2.17-.502.152-.555.154-.958.032-1.256-.38-1.848-.677-2.75-1.38-.446-.347-1.121-1.012-1.396-1.374-.674-.89-1.333-2.243-1.533-3.148-.076-.348-.062-.906.04-1.536.13-.795.147-1.08.093-1.551-.05-.426-.065-1.57-.026-1.887l.021-.177.273-.083c.54-.164 1.123-.285 1.723-.358.389-.047 1.877-.048 2.28-.001.469.054.964.137 1.35.224l.357.08.287-.066a10.158 10.158 0 012.291-.278zm-5.122.676c-.945-.005-1.88.128-2.69.396-.295.098-.268.02-.294.868a6.31 6.31 0 00.029 1.019c.052.486.044.667-.057 1.289-.083.505-.108 1.029-.064 1.33.043.296.25.92.452 1.363.677 1.485 1.748 2.635 3.145 3.38.43.229.922.418 1.543.592.24.067.256.067.496 0 1.307-.36 2.202-.855 3.147-1.742.632-.593 1.268-1.532 1.641-2.423.168-.402.328-.913.366-1.174.043-.297.017-.824-.065-1.327-.102-.62-.11-.803-.057-1.288.037-.342.043-.548.029-1.02-.026-.847 0-.77-.294-.867-1.366-.451-3.082-.521-4.606-.188-.352.077-.453.077-.805 0a9.28 9.28 0 00-1.916-.208zm-.137.112a9.397 9.397 0 012.005.204c.21.045.413.082.45.082.037 0 .24-.037.45-.082 1.498-.32 3.134-.26 4.438.16.228.075.261.093.275.155.04.187.05 1.13.013 1.478a4.92 4.92 0 00.044 1.476c.064.384.078.548.077.899 0 .383-.009.458-.073.693-.245.888-.875 2.06-1.488 2.768-.193.222-.59.617-.8.795-.66.559-1.687 1.095-2.56 1.338-.37.103-.382.106-.416.094a23.946 23.946 0 00-.335-.094c-.889-.247-1.92-.787-2.59-1.36a7.475 7.475 0 01-1.607-1.983 8.106 8.106 0 01-.664-1.61c-.094-.356-.088-.907.017-1.54.09-.543.1-.912.044-1.49-.036-.358-.028-1.277.013-1.464.013-.062.047-.08.274-.154.734-.237 1.573-.36 2.433-.365zM3.68 10.252c.572 0 1.175.438 1.498 1.09.09.182.094.203.059.262a2.31 2.31 0 01-.409.445.449.449 0 01-.137.076c-.084-.003-.438-.14-.687-.264-.324-.163-.502-.27-.664-.4-.108-.084-.114-.097-.114-.23 0-.142.093-.563.182-.822l.051-.147.166-.008zm16.864.01l.086.272c.12.377.178.727.136.814-.068.143-.803.566-1.232.71a2.177 2.177 0 01-.23.069c-.073 0-.321-.23-.499-.464l-.077-.1.048-.125c.073-.193.344-.577.523-.742.305-.283.648-.428 1.018-.432zm-8.596.338c-.22.003-.442.059-.627.167-.16.094-.401.36-.484.535a1.266 1.266 0 000 1.056c.096.204.349.468.54.564l.16.078c.003 0-.109.596-.249 1.324-.14.727-.253 1.343-.253 1.368 0 .036.086.068.422.157.233.06.438.11.458.113.036.002.888-.208.918-.227.009-.006-.094-.621-.229-1.368l-.244-1.358.15-.07c.205-.097.464-.36.565-.576a1.251 1.251 0 00-.51-1.612 1.198 1.198 0 00-.615-.151zm-8.642 1.175l.114.07c.116.072.545.284.779.385l.127.054-.154.243c-.16.252-.179.264-.329.218-.214-.065-.724-.395-.724-.468 0-.02.031-.111.07-.206l.094-.234zm17.388 0l.026.062c.084.2.162.41.162.44 0 .047-.304.27-.515.375-.098.05-.225.097-.281.106l-.103.015-.154-.244-.154-.245.127-.054c.233-.1.663-.313.778-.384zm-17.842.566c.1 0 .142.017.228.09.288.245.632.427.875.463.27.04.257.16-.102.99a8.84 8.84 0 01-.34.729.421.421 0 01-.306.143c-.095 0-1.074-.417-1.158-.493a.4.4 0 01-.138-.295c0-.088.506-1.306.606-1.46a.41.41 0 01.335-.167zm18.245.002c.023 0 .052 0 .088.004.236.017.268.06.61.849.303.697.33.796.257.938-.069.132-.16.186-.676.405-.282.12-.548.217-.59.216a.412.412 0 01-.298-.142c-.03-.038-.183-.366-.34-.73-.36-.83-.372-.95-.102-.99.244-.036.59-.22.876-.465.076-.064.104-.083.175-.084zm-19.275 2.42c.413-.002.824.17 1.144.483.183.18.404.475.512.684l.045.087-.102-.002a2.39 2.39 0 01-.289-.037 4.86 4.86 0 01-1.843-.77c-.277-.19-.317-.23-.262-.266.082-.053.397-.137.619-.166.059-.008.118-.011.176-.012zm20.366.004c.183.002.374.033.573.095.256.08.271.096.174.178-.471.398-1.301.783-1.99.922-.15.03-.317.055-.37.055h-.098l.073-.127c.429-.75.984-1.13 1.638-1.123zm-21.236.687c.015 0 .066.028.111.063.046.035.168.115.271.178.104.063.192.118.198.123.005.005-.015.042-.044.084-.105.149-.276.52-.345.752-.055.186-.073.313-.083.6-.022.582.069.923.36 1.357.082.122.143.24.138.269-.014.074-.374.084-.505.013-.119-.063-.412-.4-.545-.624-.357-.606-.342-1.414.04-2.184.117-.235.37-.631.404-.631zm22.097 0c.033 0 .286.396.403.63.383.77.398 1.579.04 2.185-.133.225-.426.56-.543.624-.094.05-.452.072-.493.03-.04-.04-.01-.11.127-.315.289-.431.38-.774.358-1.354-.01-.287-.028-.414-.084-.6a3.4 3.4 0 00-.344-.752c-.03-.041-.05-.08-.044-.084.005-.005.094-.06.197-.123.104-.063.226-.143.271-.178a.335.335 0 01.112-.063zm-2.003.888c.025 0 .024.024.013.108a67.75 67.75 0 00-.085.718l-.068.6.224.232c.123.127.27.289.327.36.057.07.098.133.092.14-.037.036-.593-.306-.818-.503l-.09-.08v-.315c0-.173.008-.515.017-.76l.018-.443.136-.018a2.547 2.547 0 00.234-.04zm-18.092 0a2.697 2.697 0 00.234.04l.137.017.018.444c.01.244.017.585.017.757 0 .306 0 .314-.074.38-.1.094-.335.26-.53.378a1.255 1.255 0 01-.24.117l-.08.02.093-.12c.051-.064.2-.228.33-.363l.236-.245-.069-.6c-.038-.33-.075-.652-.084-.717-.011-.084-.013-.108.012-.108zm3.747.183l.18.256.18.256H4.483l.049-.083a.993.993 0 01.407-.343l.15-.07.806-.008zm10.599 0l.805.008.805.008.15.07a1 1 0 01.408.343l.049.083H16.94l.18-.256zm-12.862.646h2.726l.13.155c.072.084.2.227.285.317l.155.164-.77.017c-.422.01-1.196.018-1.72.018h-.95l.018-.1c.01-.056.043-.207.073-.336zm12.398 0h2.727l.054.235c.03.13.062.28.072.335l.018.1-1.204-.005c-.662-.003-1.436-.012-1.721-.02l-.518-.014.097-.094c.054-.052.183-.194.286-.315zm-12.42.778c.276-.001.923.002 1.672.009l1.815.017.177.17c.097.092.221.204.275.248.093.075.098.086.085.203l-.014.123-.984.018c-.54.01-1.493.017-2.116.017H4.192v-.074c0-.042.018-.22.04-.396l.04-.332c0-.002.051-.002.144-.003zm15.17 0c.091 0 .142 0 .142.003l.04.332c.023.176.04.355.04.396v.075l-1.455-.006c-.8-.003-1.753-.01-2.116-.014l-.661-.008-.015-.127c-.013-.121-.01-.131.084-.207.054-.044.178-.156.276-.25l.177-.168 1.815-.017c.749-.007 1.395-.01 1.672-.01zm-11.168.94l-.005.382-.005.382-2.108.007c-1.718.006-2.112 0-2.123-.028a3.14 3.14 0 01-.006-.382l.008-.348 2.12-.007zm7.165 0l2.12.006 2.12.007v.752l-2.114.007c-1.162.004-2.113.004-2.114 0l-.007-.39zm-5.804.46l.115.055.115.056-.09.258a9.6 9.6 0 00-.429 1.747c-.05.35-.086.436-.208.51-.083.05-.148.053-2.125.052-1.973-.001-2.044-.003-2.179-.055-.199-.077-.49-.354-.49-.467 0-.01 1.015-.014 2.257-.012 1.857.003 2.262-.003 2.28-.033a.708.708 0 00.052-.143c.175-.664.384-1.273.594-1.733zm4.442 0l.108.235c.21.46.42 1.069.595 1.733a.696.696 0 00.051.143c.02.03.423.035 2.281.033a84.965 84.965 0 012.258.012c0 .115-.295.39-.5.468-.143.054-.194.055-2.178.055-1.968 0-2.034-.002-2.117-.053-.122-.074-.158-.16-.208-.51a9.6 9.6 0 00-.43-1.747l-.09-.258.116-.056zM4.192 19.8h4.232l.032.329c.018.18.04.355.047.389l.015.06H4.277l-.016-.074a6.92 6.92 0 01-.069-.63zm11.385 0h4.232v.074c0 .09-.049.53-.07.63l-.015.074h-4.241l.014-.06c.008-.034.03-.21.047-.39zm-9.158.912c1.678 0 2.12.007 2.12.034 0 .018.03.163.064.322l.063.288h-4.23l-.027-.1a6.58 6.58 0 01-.11-.52c0-.014.824-.024 2.12-.024zm11.163 0c1.296 0 2.12.01 2.12.025 0 .034-.076.393-.11.519l-.027.1h-4.23l.063-.288c.034-.16.063-.304.063-.322 0-.027.443-.034 2.12-.034z"/></svg>