<?xml version="1.0" encoding="UTF-8" standalone="no"?>
<!DOCTYPE svg PUBLIC "-//W3C//DTD SVG 1.1//EN" "http://www.w3.org/Graphics/SVG/1.1/DTD/svg11.dtd">
<svg width="100%" height="100%" viewBox="0 0 80 81" version="1.1" xmlns="http://www.w3.org/2000/svg" xmlns:xlink="http://www.w3.org/1999/xlink" xml:space="preserve" xmlns:serif="http://www.serif.com/" style="fill-rule:evenodd;clip-rule:evenodd;stroke-linejoin:round;stroke-miterlimit:2;">
    <g>
        <path d="M71.864,16.021L71.974,16.089L72.086,16.161L72.176,16.252L72.26,16.364L72.323,16.475L72.37,16.607L72.398,16.727L72.406,16.866L72.398,16.997L72.157,18.647L71.947,19.966L71.911,20.149L71.709,21.273L71.448,22.583L71.171,23.89L70.869,25.181L70.545,26.481L70.192,27.771L69.836,29.051L69.44,30.321L69.036,31.592L68.604,32.855L68.16,34.106L67.678,35.35L67.19,36.585L66.675,37.82L66.149,39.043L65.599,40.25L65.016,41.458L64.426,42.641L63.816,43.832L63.183,45L52.838,36.262L49.971,33.839L70.898,16.161L71.099,16.033L71.219,15.985L71.345,15.958L71.475,15.946L71.606,15.946L71.733,15.977L71.864,16.021ZM59.27,51.387L57.765,53.527L56.972,54.594L56.161,55.646L55.333,56.694L54.493,57.71L53.626,58.734L52.751,59.726L51.856,60.71L50.945,61.675L50.025,62.631L49.075,63.567L48.117,64.487L47.147,65.396L46.165,66.285L45.159,67.157L44.149,68.014L43.111,68.847L42.069,69.663L41.012,70.473L39.942,71.249L39.935,71.249L37.844,69.691L36.803,68.878L35.768,68.042L34.758,67.185L33.753,66.312L32.766,65.424L31.788,64.524L30.83,63.595L29.891,62.659L28.961,61.71L28.046,60.746L27.155,59.762L26.279,58.762L25.412,57.75L24.572,56.718L23.745,55.682L22.933,54.622L22.141,53.554L21.369,52.479L20.612,51.387L32.771,41.103L35.638,38.681L37.566,40.314L37.789,40.482L38.019,40.637L38.256,40.78L38.506,40.892L38.763,40.992L39.032,41.067L39.297,41.123L39.575,41.171L39.943,41.187L40.213,41.171L40.489,41.139L40.763,41.095L41.024,41.019L41.29,40.928L41.539,40.816L41.776,40.685L42.018,40.537L42.311,40.314L44.241,38.681L47.107,41.103L59.27,51.387ZM8.984,16.16L29.907,33.84L27.04,36.262L16.695,45L15.903,43.534L15.293,42.346L14.715,41.151L14.141,39.944L13.598,38.724L13.064,37.514L12.557,36.278L12.07,35.035L11.61,33.792L11.167,32.529L10.735,31.266L10.339,29.999L9.951,28.728L9.591,27.445L9.25,26.158L8.937,24.855L8.632,23.555L8.367,22.257L8.109,20.95L7.971,20.15L7.879,19.631L7.666,18.312L7.479,16.997L7.479,16.754L7.511,16.623L7.547,16.495L7.61,16.384L7.681,16.272L7.777,16.181L7.887,16.097L7.998,16.033L8.118,15.985L8.244,15.958L8.374,15.946L8.514,15.946L8.644,15.977L8.763,16.021L8.881,16.089L8.984,16.16ZM63.919,12.364L39.943,32.624L15.959,12.364L17.277,11.874L18.43,11.475L19.582,11.092L20.751,10.734L21.923,10.399L23.091,10.076L24.271,9.786L25.46,9.511L26.648,9.256L27.844,9.025L29.044,8.813L30.24,8.626L31.448,8.459L32.656,8.319L33.864,8.199L35.08,8.096L36.295,8.021L37.511,7.969L38.719,7.929L39.943,7.921L41.345,7.941L42.561,7.977L43.777,8.032L44.992,8.116L46.2,8.22L47.409,8.34L48.616,8.487L49.824,8.654L51.028,8.849L52.224,9.064L53.416,9.292L54.604,9.547L55.792,9.821L56.972,10.132L58.141,10.447L59.313,10.79L60.473,11.148L61.626,11.531L62.778,11.937L63.919,12.364Z" style="fill:white;"/>
        <path d="M27.04,36.262L29.907,33.839L8.984,16.161L8.881,16.089L8.763,16.021L8.644,15.977L8.514,15.945L8.374,15.945L8.244,15.957L8.117,15.985L7.998,16.033L7.888,16.097L7.776,16.181L7.681,16.272L7.611,16.384L7.547,16.495L7.511,16.623L7.479,16.754L7.479,16.997L7.666,18.312L7.879,19.632L7.971,20.149L8.109,20.949L8.367,22.257L8.632,23.556L8.937,24.855L9.25,26.157L9.59,27.444L9.951,28.727L10.339,29.998L10.735,31.265L11.167,32.529L11.61,33.792L12.07,35.035L12.557,36.278L13.064,37.513L13.599,38.724L14.141,39.944L14.715,41.151L15.293,42.346L15.903,43.533L16.695,45L27.04,36.262ZM57.765,53.526L59.27,51.386L47.107,41.103L44.24,38.68L42.311,40.314L42.018,40.537L41.776,40.685L41.539,40.816L41.289,40.928L41.024,41.019L40.763,41.095L40.489,41.139L40.212,41.171L39.942,41.187L39.574,41.171L39.297,41.123L39.032,41.067L38.763,40.991L38.505,40.891L38.255,40.781L38.018,40.637L37.788,40.481L37.567,40.314L35.637,38.68L32.771,41.103L20.612,51.387L21.369,52.478L22.141,53.554L22.933,54.622L23.745,55.682L24.573,56.718L25.413,57.75L26.279,58.762L27.155,59.762L28.045,60.746L28.961,61.71L29.891,62.659L30.83,63.595L31.788,64.523L32.767,65.423L33.753,66.313L34.759,67.185L35.769,68.041L36.802,68.878L37.844,69.691L39.935,71.249L39.943,71.249L41.013,70.472L42.07,69.663L43.111,68.846L44.149,68.014L45.159,67.157L46.165,66.284L47.147,65.396L48.117,64.487L49.076,63.567L50.026,62.631L50.945,61.674L51.855,60.71L52.751,59.726L53.626,58.734L54.493,57.71L55.333,56.694L56.161,55.646L56.972,54.594L57.765,53.526ZM39.943,32.624L63.919,12.364L62.779,11.937L61.626,11.531L60.473,11.148L59.313,10.79L58.141,10.447L56.972,10.132L55.792,9.822L54.605,9.547L53.416,9.292L52.224,9.064L51.028,8.849L49.824,8.654L48.616,8.487L47.409,8.339L46.2,8.219L44.992,8.116L43.777,8.032L42.561,7.977L41.345,7.941L39.943,7.921L38.719,7.929L37.511,7.969L36.295,8.021L35.08,8.096L33.864,8.2L32.656,8.32L31.448,8.459L30.24,8.626L29.044,8.813L27.844,9.025L26.648,9.255L25.46,9.511L24.272,9.786L23.092,10.076L21.923,10.399L20.751,10.734L19.582,11.092L18.43,11.475L17.278,11.873L15.959,12.363L39.943,32.624ZM72.407,16.866L72.398,16.726L72.37,16.606L72.323,16.476L72.26,16.364L72.177,16.252L72.085,16.161L71.975,16.089L71.864,16.021L71.734,15.977L71.606,15.945L71.476,15.945L71.345,15.957L71.218,15.985L71.099,16.033L70.897,16.161L49.97,33.839L52.838,36.262L63.183,45L63.816,43.832L64.426,42.641L65.016,41.458L65.598,40.25L66.148,39.043L66.675,37.82L67.19,36.585L67.677,35.35L68.161,34.106L68.604,32.856L69.036,31.592L69.44,30.322L69.836,29.05L70.192,27.771L70.545,26.481L70.87,25.181L71.17,23.891L71.448,22.583L71.709,21.273L71.911,20.149L71.947,19.966L72.157,18.646L72.398,16.997L72.407,16.866ZM79.78,16.718L79.78,17.145L79.749,17.571L79.705,17.989L79.373,20.261L79.135,21.639L78.885,23.009L78.608,24.38L78.303,25.747L77.99,27.11L77.65,28.464L77.281,29.811L76.893,31.154L76.489,32.493L76.066,33.819L75.614,35.146L75.154,36.466L74.656,37.772L74.149,39.071L73.614,40.361L73.06,41.641L72.49,42.92L71.9,44.183L71.281,45.434L70.656,46.681L70.002,47.912L69.329,49.14L68.639,50.355L67.927,51.55L67.198,52.741L66.454,53.917L65.689,55.088L64.897,56.236L64.094,57.376L63.274,58.499L62.434,59.614L61.578,60.718L60.703,61.802L59.813,62.87L58.905,63.93L57.975,64.977L57.035,65.997L56.077,67.01L55.103,68.014L54.117,68.986L53.111,69.95L52.089,70.906L51.056,71.835L50.006,72.755L48.936,73.644L47.856,74.524L46.77,75.389L45.666,76.233L44.541,77.058L43.408,77.867L42.268,78.664L41.104,79.437L39.943,80.186L38.03,78.931L36.877,78.154L35.733,77.357L34.608,76.532L33.5,75.696L32.407,74.831L31.317,73.962L30.252,73.07L29.198,72.161L28.157,71.241L27.127,70.293L26.121,69.336L25.127,68.364L24.141,67.372L23.183,66.36L22.232,65.34L21.302,64.308L20.39,63.252L19.488,62.184L18.612,61.109L17.745,60.013L16.9,58.9L16.069,57.777L15.269,56.645L14.473,55.494L13.7,54.334L12.944,53.167L12.208,51.975L11.49,50.78L10.79,49.573L10.116,48.35L9.451,47.122L8.817,45.879L8.2,44.629L7.59,43.365L7.019,42.095L6.457,40.815L5.914,39.532L5.396,38.233L4.901,36.926L4.421,35.619L3.969,34.293L3.534,32.966L3.122,31.631L2.726,30.292L2.358,28.95L2.005,27.59L1.685,26.236L1.371,24.874L1.094,23.499L0.829,22.129L0.587,20.754L0.366,19.371L0.171,17.988L0.108,17.192L0.097,16.773L0.117,16.343L0.152,15.929L0.207,15.51L0.295,15.096L0.385,14.673L0.5,14.287L0.504,14.275L0.651,13.877L0.809,13.487L0.991,13.096L1.186,12.726L1.407,12.363L1.637,12.023L1.895,11.677L2.164,11.354L2.449,11.048L2.754,10.748L3.067,10.47L3.4,10.203L3.74,9.963L4.089,9.729L4.461,9.518L6.691,8.354L7.84,7.79L8.993,7.253L10.161,6.735L11.333,6.221L12.521,5.751L13.709,5.284L14.909,4.842L16.113,4.424L17.333,4.025L18.545,3.647L19.772,3.292L21.009,2.957L22.244,2.643L23.487,2.343L24.731,2.077L25.982,1.826L27.238,1.591L28.498,1.391L29.761,1.204L31.024,1.037L32.296,0.897L33.566,0.777L34.838,0.674L36.113,0.599L37.393,0.547L38.664,0.507L39.943,0.499L42.458,0.547L43.729,0.599L45.004,0.674L46.275,0.766L47.547,0.889L48.818,1.029L50.082,1.196L51.345,1.38L52.605,1.587L53.86,1.814L55.111,2.069L56.367,2.336L57.598,2.635L58.842,2.949L60.07,3.284L61.293,3.634L62.521,4.017L63.725,4.416L64.933,4.83L66.133,5.276L67.329,5.73L68.509,6.217L69.689,6.719L70.849,7.233L72.01,7.783L73.151,8.34L74.295,8.922L75.42,9.52L76.101,9.934L76.441,10.177L76.774,10.437L77.087,10.715L77.393,11.014L77.677,11.317L77.955,11.643L78.205,11.974L78.442,12.329L78.664,12.691L78.866,13.061L79.048,13.444L79.207,13.831L79.357,14.233L79.377,14.297L79.377,14.301L79.472,14.631L79.578,15.046L79.658,15.456L79.725,15.875L79.761,16.301L79.781,16.719L79.78,16.718Z" style="fill:rgb(231,76,60);"/>
        <path d="M78.33,14.342L78.103,14.165L77.862,13.998L77.612,13.851L77.354,13.72L77.087,13.609L76.81,13.517L76.534,13.452L76.248,13.396L75.964,13.369L75.668,13.359L75.382,13.369L75.099,13.405L74.812,13.452L74.526,13.527L74.249,13.619L73.992,13.729L73.725,13.87L73.485,14.018L73.081,14.316L70.897,16.163L49.97,33.838L44.238,38.68L42.312,40.314L42.018,40.537L41.778,40.684L41.538,40.815L41.29,40.926L41.023,41.018L40.763,41.094L40.489,41.139L40.212,41.169L39.942,41.185L39.574,41.169L39.298,41.123L39.031,41.067L38.764,40.992L38.507,40.891L38.256,40.779L38.019,40.639L37.788,40.481L37.566,40.314L35.64,38.68L29.908,33.838L8.984,16.163L6.8,14.316L6.568,14.139L6.328,13.972L6.08,13.822L5.823,13.703L5.546,13.593L5.27,13.507L4.993,13.442L4.707,13.386L4.42,13.369L4.127,13.359L3.841,13.376L3.554,13.406L3.268,13.471L2.985,13.543L2.715,13.638L2.448,13.759L2.191,13.887L1.943,14.044L1.713,14.211L1.335,14.545L7.958,20.141L7.968,20.147L27.04,36.261L32.771,41.103L35.196,43.153L35.502,43.395L35.814,43.628L36.137,43.831L36.478,44.027L36.82,44.201L37.178,44.351L37.539,44.489L37.907,44.61L38.285,44.702L38.662,44.777L39.04,44.843L39.427,44.879L39.941,44.898L40.321,44.878L40.706,44.853L41.093,44.806L41.471,44.731L41.851,44.64L42.219,44.528L42.578,44.398L42.938,44.25L43.287,44.083L43.619,43.896L43.951,43.7L44.273,43.477L44.68,43.153L47.104,41.103L52.836,36.261L71.912,20.147L71.918,20.141L78.541,14.545L78.33,14.342Z" style="fill-opacity:0.12;"/>
        <path d="M71.864,16.021L71.974,16.089L72.086,16.161L72.176,16.252L72.26,16.364L72.323,16.475L72.37,16.607L72.398,16.727L72.406,16.866L72.398,16.997L72.157,18.647L71.947,19.966L71.911,20.149L71.709,21.273L71.448,22.583L71.171,23.89L70.869,25.181L70.545,26.481L70.192,27.771L69.836,29.051L69.44,30.321L69.036,31.592L68.604,32.855L68.16,34.106L67.678,35.35L67.19,36.585L66.675,37.82L66.149,39.043L65.599,40.25L65.016,41.458L64.426,42.641L63.816,43.832L63.183,45L52.838,36.262L49.971,33.839L70.898,16.161L71.099,16.033L71.219,15.985L71.345,15.958L71.475,15.946L71.606,15.946L71.733,15.977L71.864,16.021ZM59.27,51.387L57.765,53.527L56.972,54.594L56.161,55.646L55.333,56.694L54.493,57.71L53.626,58.734L52.751,59.726L51.856,60.71L50.945,61.675L50.025,62.631L49.075,63.567L48.117,64.487L47.147,65.396L46.165,66.285L45.159,67.157L44.149,68.014L43.111,68.847L42.069,69.663L41.012,70.473L39.942,71.249L39.935,71.249L37.844,69.691L36.803,68.878L35.768,68.042L34.758,67.185L33.753,66.312L32.766,65.424L31.788,64.524L30.83,63.595L29.891,62.659L28.961,61.71L28.046,60.746L27.155,59.762L26.279,58.762L25.412,57.75L24.572,56.718L23.745,55.682L22.933,54.622L22.141,53.554L21.369,52.479L20.612,51.387L32.771,41.103L35.638,38.681L37.566,40.314L37.789,40.482L38.019,40.637L38.256,40.78L38.506,40.892L38.763,40.992L39.032,41.067L39.297,41.123L39.575,41.171L39.943,41.187L40.213,41.171L40.489,41.139L40.763,41.095L41.024,41.019L41.29,40.928L41.539,40.816L41.776,40.685L42.018,40.537L42.311,40.314L44.241,38.681L47.107,41.103L59.27,51.387ZM8.984,16.16L29.907,33.84L27.04,36.262L16.695,45L15.903,43.534L15.293,42.346L14.715,41.151L14.141,39.944L13.598,38.724L13.064,37.514L12.557,36.278L12.07,35.035L11.61,33.792L11.167,32.529L10.735,31.266L10.339,29.999L9.951,28.728L9.591,27.445L9.25,26.158L8.937,24.855L8.632,23.555L8.367,22.257L8.109,20.95L7.971,20.15L7.879,19.631L7.666,18.312L7.479,16.997L7.479,16.754L7.511,16.623L7.547,16.495L7.61,16.384L7.681,16.272L7.777,16.181L7.887,16.097L7.998,16.033L8.118,15.985L8.244,15.958L8.374,15.946L8.514,15.946L8.644,15.977L8.763,16.021L8.881,16.089L8.984,16.16ZM63.919,12.364L39.943,32.624L15.959,12.364L17.277,11.874L18.43,11.475L19.582,11.092L20.751,10.734L21.923,10.399L23.091,10.076L24.271,9.786L25.46,9.511L26.648,9.256L27.844,9.025L29.044,8.813L30.24,8.626L31.448,8.459L32.656,8.319L33.864,8.199L35.08,8.096L36.295,8.021L37.511,7.969L38.719,7.929L39.943,7.921L41.345,7.941L42.561,7.977L43.777,8.032L44.992,8.116L46.2,8.22L47.409,8.34L48.616,8.487L49.824,8.654L51.028,8.849L52.224,9.064L53.416,9.292L54.604,9.547L55.792,9.821L56.972,10.132L58.141,10.447L59.313,10.79L60.473,11.148L61.626,11.531L62.778,11.937L63.919,12.364Z" style="fill:white;"/>
        <path d="M78.33,14.342L78.103,14.165L77.862,13.998L77.612,13.851L77.354,13.72L77.087,13.609L76.81,13.517L76.534,13.452L76.248,13.396L75.964,13.369L75.668,13.359L75.382,13.369L75.099,13.405L74.812,13.452L74.526,13.527L74.249,13.619L73.992,13.729L73.725,13.87L73.485,14.018L73.081,14.316L70.897,16.163L49.97,33.838L44.238,38.68L42.312,40.314L42.018,40.537L41.778,40.684L41.538,40.815L41.29,40.926L41.023,41.018L40.763,41.094L40.489,41.139L40.212,41.169L39.942,41.185L39.574,41.169L39.298,41.123L39.031,41.067L38.764,40.992L38.507,40.891L38.256,40.779L38.019,40.639L37.788,40.481L37.566,40.314L35.64,38.68L29.908,33.838L8.984,16.163L6.8,14.316L6.568,14.139L6.328,13.972L6.08,13.822L5.823,13.703L5.546,13.593L5.27,13.507L4.993,13.442L4.707,13.386L4.42,13.369L4.127,13.359L3.841,13.376L3.554,13.406L3.268,13.471L2.985,13.543L2.715,13.638L2.448,13.759L2.191,13.887L1.943,14.044L1.713,14.211L1.335,14.545L7.958,20.141L7.968,20.147L27.04,36.261L32.771,41.103L35.196,43.153L35.502,43.395L35.814,43.628L36.137,43.831L36.478,44.027L36.82,44.201L37.178,44.351L37.539,44.489L37.907,44.61L38.285,44.702L38.662,44.777L39.04,44.843L39.427,44.879L39.941,44.898L40.321,44.878L40.706,44.853L41.093,44.806L41.471,44.731L41.851,44.64L42.219,44.528L42.578,44.398L42.938,44.25L43.287,44.083L43.619,43.896L43.951,43.7L44.273,43.477L44.68,43.153L47.104,41.103L52.836,36.261L71.912,20.147L71.918,20.141L78.541,14.545L78.33,14.342Z" style="fill-opacity:0.12;"/>
        <path d="M71.864,16.021L71.974,16.089L72.086,16.161L72.176,16.252L72.26,16.364L72.323,16.475L72.37,16.607L72.398,16.727L72.406,16.866L72.398,16.997L72.157,18.647L71.947,19.966L71.911,20.149L71.709,21.273L71.448,22.583L71.171,23.89L70.869,25.181L70.545,26.481L70.192,27.771L69.836,29.051L69.44,30.321L69.036,31.592L68.604,32.855L68.16,34.106L67.678,35.35L67.19,36.585L66.675,37.82L66.149,39.043L65.599,40.25L65.016,41.458L64.426,42.641L63.816,43.832L63.183,45L52.838,36.262L49.971,33.839L70.898,16.161L71.099,16.033L71.219,15.985L71.345,15.958L71.475,15.946L71.606,15.946L71.733,15.977L71.864,16.021ZM59.27,51.387L57.765,53.527L56.972,54.594L56.161,55.646L55.333,56.694L54.493,57.71L53.626,58.734L52.751,59.726L51.856,60.71L50.945,61.675L50.025,62.631L49.075,63.567L48.117,64.487L47.147,65.396L46.165,66.285L45.159,67.157L44.149,68.014L43.111,68.847L42.069,69.663L41.012,70.473L39.942,71.249L39.935,71.249L37.844,69.691L36.803,68.878L35.768,68.042L34.758,67.185L33.753,66.312L32.766,65.424L31.788,64.524L30.83,63.595L29.891,62.659L28.961,61.71L28.046,60.746L27.155,59.762L26.279,58.762L25.412,57.75L24.572,56.718L23.745,55.682L22.933,54.622L22.141,53.554L21.369,52.479L20.612,51.387L32.771,41.103L35.638,38.681L37.566,40.314L37.789,40.482L38.019,40.637L38.256,40.78L38.506,40.892L38.763,40.992L39.032,41.067L39.297,41.123L39.575,41.171L39.943,41.187L40.213,41.171L40.489,41.139L40.763,41.095L41.024,41.019L41.29,40.928L41.539,40.816L41.776,40.685L42.018,40.537L42.311,40.314L44.241,38.681L47.107,41.103L59.27,51.387ZM8.984,16.16L29.907,33.84L27.04,36.262L16.695,45L15.903,43.534L15.293,42.346L14.715,41.151L14.141,39.944L13.598,38.724L13.064,37.514L12.557,36.278L12.07,35.035L11.61,33.792L11.167,32.529L10.735,31.266L10.339,29.999L9.951,28.728L9.591,27.445L9.25,26.158L8.937,24.855L8.632,23.555L8.367,22.257L8.109,20.95L7.971,20.15L7.879,19.631L7.666,18.312L7.479,16.997L7.479,16.754L7.511,16.623L7.547,16.495L7.61,16.384L7.681,16.272L7.777,16.181L7.887,16.097L7.998,16.033L8.118,15.985L8.244,15.958L8.374,15.946L8.514,15.946L8.644,15.977L8.763,16.021L8.881,16.089L8.984,16.16ZM63.919,12.364L39.943,32.624L15.959,12.364L17.277,11.874L18.43,11.475L19.582,11.092L20.751,10.734L21.923,10.399L23.091,10.076L24.271,9.786L25.46,9.511L26.648,9.256L27.844,9.025L29.044,8.813L30.24,8.626L31.448,8.459L32.656,8.319L33.864,8.199L35.08,8.096L36.295,8.021L37.511,7.969L38.719,7.929L39.943,7.921L41.345,7.941L42.561,7.977L43.777,8.032L44.992,8.116L46.2,8.22L47.409,8.34L48.616,8.487L49.824,8.654L51.028,8.849L52.224,9.064L53.416,9.292L54.604,9.547L55.792,9.821L56.972,10.132L58.141,10.447L59.313,10.79L60.473,11.148L61.626,11.531L62.778,11.937L63.919,12.364Z" style="fill:white;"/>
        <path d="M78.33,14.342L78.103,14.165L77.862,13.998L77.612,13.851L77.354,13.72L77.087,13.609L76.81,13.517L76.534,13.452L76.248,13.396L75.964,13.369L75.668,13.359L75.382,13.369L75.099,13.405L74.812,13.452L74.526,13.527L74.249,13.619L73.992,13.729L73.725,13.87L73.485,14.018L73.081,14.316L70.897,16.163L49.97,33.838L44.238,38.68L42.312,40.314L42.018,40.537L41.778,40.684L41.538,40.815L41.29,40.926L41.023,41.018L40.763,41.094L40.489,41.139L40.212,41.169L39.942,41.185L39.574,41.169L39.298,41.123L39.031,41.067L38.764,40.992L38.507,40.891L38.256,40.779L38.019,40.639L37.788,40.481L37.566,40.314L35.64,38.68L29.908,33.838L8.984,16.163L6.8,14.316L6.568,14.139L6.328,13.972L6.08,13.822L5.823,13.703L5.546,13.593L5.27,13.507L4.993,13.442L4.707,13.386L4.42,13.369L4.127,13.359L3.841,13.376L3.554,13.406L3.268,13.471L2.985,13.543L2.715,13.638L2.448,13.759L2.191,13.887L1.943,14.044L1.713,14.211L1.335,14.545L7.958,20.141L7.968,20.147L27.04,36.261L32.771,41.103L35.196,43.153L35.502,43.395L35.814,43.628L36.137,43.831L36.478,44.027L36.82,44.201L37.178,44.351L37.539,44.489L37.907,44.61L38.285,44.702L38.662,44.777L39.04,44.843L39.427,44.879L39.941,44.898L40.321,44.878L40.706,44.853L41.093,44.806L41.471,44.731L41.851,44.64L42.219,44.528L42.578,44.398L42.938,44.25L43.287,44.083L43.619,43.896L43.951,43.7L44.273,43.477L44.68,43.153L47.104,41.103L52.836,36.261L71.912,20.147L71.918,20.141L78.541,14.545L78.33,14.342Z" style="fill-opacity:0.12;"/>
        <path d="M71.864,16.021L71.974,16.089L72.086,16.161L72.176,16.252L72.26,16.364L72.323,16.475L72.37,16.607L72.398,16.727L72.406,16.866L72.398,16.997L72.157,18.647L71.947,19.966L71.911,20.149L71.709,21.273L71.448,22.583L71.171,23.89L70.869,25.181L70.545,26.481L70.192,27.771L69.836,29.051L69.44,30.321L69.036,31.592L68.604,32.855L68.16,34.106L67.678,35.35L67.19,36.585L66.675,37.82L66.149,39.043L65.599,40.25L65.016,41.458L64.426,42.641L63.816,43.832L63.183,45L52.838,36.262L49.971,33.839L70.898,16.161L71.099,16.033L71.219,15.985L71.345,15.958L71.475,15.946L71.606,15.946L71.733,15.977L71.864,16.021ZM59.27,51.387L57.765,53.527L56.972,54.594L56.161,55.646L55.333,56.694L54.493,57.71L53.626,58.734L52.751,59.726L51.856,60.71L50.945,61.675L50.025,62.631L49.075,63.567L48.117,64.487L47.147,65.396L46.165,66.285L45.159,67.157L44.149,68.014L43.111,68.847L42.069,69.663L41.012,70.473L39.942,71.249L39.935,71.249L37.844,69.691L36.803,68.878L35.768,68.042L34.758,67.185L33.753,66.312L32.766,65.424L31.788,64.524L30.83,63.595L29.891,62.659L28.961,61.71L28.046,60.746L27.155,59.762L26.279,58.762L25.412,57.75L24.572,56.718L23.745,55.682L22.933,54.622L22.141,53.554L21.369,52.479L20.612,51.387L32.771,41.103L35.638,38.681L37.566,40.314L37.789,40.482L38.019,40.637L38.256,40.78L38.506,40.892L38.763,40.992L39.032,41.067L39.297,41.123L39.575,41.171L39.943,41.187L40.213,41.171L40.489,41.139L40.763,41.095L41.024,41.019L41.29,40.928L41.539,40.816L41.776,40.685L42.018,40.537L42.311,40.314L44.241,38.681L47.107,41.103L59.27,51.387ZM8.984,16.16L29.907,33.84L27.04,36.262L16.695,45L15.903,43.534L15.293,42.346L14.715,41.151L14.141,39.944L13.598,38.724L13.064,37.514L12.557,36.278L12.07,35.035L11.61,33.792L11.167,32.529L10.735,31.266L10.339,29.999L9.951,28.728L9.591,27.445L9.25,26.158L8.937,24.855L8.632,23.555L8.367,22.257L8.109,20.95L7.971,20.15L7.879,19.631L7.666,18.312L7.479,16.997L7.479,16.754L7.511,16.623L7.547,16.495L7.61,16.384L7.681,16.272L7.777,16.181L7.887,16.097L7.998,16.033L8.118,15.985L8.244,15.958L8.374,15.946L8.514,15.946L8.644,15.977L8.763,16.021L8.881,16.089L8.984,16.16ZM63.919,12.364L39.943,32.624L15.959,12.364L17.277,11.874L18.43,11.475L19.582,11.092L20.751,10.734L21.923,10.399L23.091,10.076L24.271,9.786L25.46,9.511L26.648,9.256L27.844,9.025L29.044,8.813L30.24,8.626L31.448,8.459L32.656,8.319L33.864,8.199L35.08,8.096L36.295,8.021L37.511,7.969L38.719,7.929L39.943,7.921L41.345,7.941L42.561,7.977L43.777,8.032L44.992,8.116L46.2,8.22L47.409,8.34L48.616,8.487L49.824,8.654L51.028,8.849L52.224,9.064L53.416,9.292L54.604,9.547L55.792,9.821L56.972,10.132L58.141,10.447L59.313,10.79L60.473,11.148L61.626,11.531L62.778,11.937L63.919,12.364Z" style="fill:white;"/>
        <path d="M78.33,14.342L78.103,14.165L77.862,13.998L77.612,13.851L77.354,13.72L77.087,13.609L76.81,13.517L76.534,13.452L76.248,13.396L75.964,13.369L75.668,13.359L75.382,13.369L75.099,13.405L74.812,13.452L74.526,13.527L74.249,13.619L73.992,13.729L73.725,13.87L73.485,14.018L73.081,14.316L70.897,16.163L49.97,33.838L44.238,38.68L42.312,40.314L42.018,40.537L41.778,40.684L41.538,40.815L41.29,40.926L41.023,41.018L40.763,41.094L40.489,41.139L40.212,41.169L39.942,41.185L39.574,41.169L39.298,41.123L39.031,41.067L38.764,40.992L38.507,40.891L38.256,40.779L38.019,40.639L37.788,40.481L37.566,40.314L35.64,38.68L29.908,33.838L8.984,16.163L6.8,14.316L6.568,14.139L6.328,13.972L6.08,13.822L5.823,13.703L5.546,13.593L5.27,13.507L4.993,13.442L4.707,13.386L4.42,13.369L4.127,13.359L3.841,13.376L3.554,13.406L3.268,13.471L2.985,13.543L2.715,13.638L2.448,13.759L2.191,13.887L1.943,14.044L1.713,14.211L1.335,14.545L7.958,20.141L7.968,20.147L27.04,36.261L32.771,41.103L35.196,43.153L35.502,43.395L35.814,43.628L36.137,43.831L36.478,44.027L36.82,44.201L37.178,44.351L37.539,44.489L37.907,44.61L38.285,44.702L38.662,44.777L39.04,44.843L39.427,44.879L39.941,44.898L40.321,44.878L40.706,44.853L41.093,44.806L41.471,44.731L41.851,44.64L42.219,44.528L42.578,44.398L42.938,44.25L43.287,44.083L43.619,43.896L43.951,43.7L44.273,43.477L44.68,43.153L47.104,41.103L52.836,36.261L71.912,20.147L71.918,20.141L78.541,14.545L78.33,14.342Z" style="fill-opacity:0.12;"/>
        <g>
            <path d="M71.864,16.021L71.974,16.089L72.086,16.161L72.176,16.252L72.26,16.364L72.323,16.475L72.37,16.607L72.398,16.727L72.406,16.866L72.398,16.997L72.157,18.647L71.947,19.966L71.911,20.149L71.709,21.273L71.448,22.583L71.171,23.89L70.869,25.181L70.545,26.481L70.192,27.771L69.836,29.051L69.44,30.321L69.036,31.592L68.604,32.855L68.16,34.106L67.678,35.35L67.19,36.585L66.675,37.82L66.149,39.043L65.599,40.25L65.016,41.458L64.426,42.641L63.816,43.832L63.183,45L52.838,36.262L49.971,33.839L70.898,16.161L71.099,16.033L71.219,15.985L71.345,15.958L71.475,15.946L71.606,15.946L71.733,15.977L71.864,16.021ZM59.27,51.387L57.765,53.527L56.972,54.594L56.161,55.646L55.333,56.694L54.493,57.71L53.626,58.734L52.751,59.726L51.856,60.71L50.945,61.675L50.025,62.631L49.075,63.567L48.117,64.487L47.147,65.396L46.165,66.285L45.159,67.157L44.149,68.014L43.111,68.847L42.069,69.663L41.012,70.473L39.942,71.249L39.935,71.249L37.844,69.691L36.803,68.878L35.768,68.042L34.758,67.185L33.753,66.312L32.766,65.424L31.788,64.524L30.83,63.595L29.891,62.659L28.961,61.71L28.046,60.746L27.155,59.762L26.279,58.762L25.412,57.75L24.572,56.718L23.745,55.682L22.933,54.622L22.141,53.554L21.369,52.479L20.612,51.387L32.771,41.103L35.638,38.681L37.566,40.314L37.789,40.482L38.019,40.637L38.256,40.78L38.506,40.892L38.763,40.992L39.032,41.067L39.297,41.123L39.575,41.171L39.943,41.187L40.213,41.171L40.489,41.139L40.763,41.095L41.024,41.019L41.29,40.928L41.539,40.816L41.776,40.685L42.018,40.537L42.311,40.314L44.241,38.681L47.107,41.103L59.27,51.387ZM8.984,16.16L29.907,33.84L27.04,36.262L16.695,45L15.903,43.534L15.293,42.346L14.715,41.151L14.141,39.944L13.598,38.724L13.064,37.514L12.557,36.278L12.07,35.035L11.61,33.792L11.167,32.529L10.735,31.266L10.339,29.999L9.951,28.728L9.591,27.445L9.25,26.158L8.937,24.855L8.632,23.555L8.367,22.257L8.109,20.95L7.971,20.15L7.879,19.631L7.666,18.312L7.479,16.997L7.479,16.754L7.511,16.623L7.547,16.495L7.61,16.384L7.681,16.272L7.777,16.181L7.887,16.097L7.998,16.033L8.118,15.985L8.244,15.958L8.374,15.946L8.514,15.946L8.644,15.977L8.763,16.021L8.881,16.089L8.984,16.16ZM63.919,12.364L39.943,32.624L15.959,12.364L17.277,11.874L18.43,11.475L19.582,11.092L20.751,10.734L21.923,10.399L23.091,10.076L24.271,9.786L25.46,9.511L26.648,9.256L27.844,9.025L29.044,8.813L30.24,8.626L31.448,8.459L32.656,8.319L33.864,8.199L35.08,8.096L36.295,8.021L37.511,7.969L38.719,7.929L39.943,7.921L41.345,7.941L42.561,7.977L43.777,8.032L44.992,8.116L46.2,8.22L47.409,8.34L48.616,8.487L49.824,8.654L51.028,8.849L52.224,9.064L53.416,9.292L54.604,9.547L55.792,9.821L56.972,10.132L58.141,10.447L59.313,10.79L60.473,11.148L61.626,11.531L62.778,11.937L63.919,12.364Z" style="fill:white;"/>
            <path d="M27.04,36.262L29.907,33.839L8.984,16.161L8.881,16.089L8.763,16.021L8.644,15.977L8.514,15.945L8.374,15.945L8.244,15.957L8.117,15.985L7.998,16.033L7.888,16.097L7.776,16.181L7.681,16.272L7.611,16.384L7.547,16.495L7.511,16.623L7.479,16.754L7.479,16.997L7.666,18.312L7.879,19.632L7.971,20.149L8.109,20.949L8.367,22.257L8.632,23.556L8.937,24.855L9.25,26.157L9.59,27.444L9.951,28.727L10.339,29.998L10.735,31.265L11.167,32.529L11.61,33.792L12.07,35.035L12.557,36.278L13.064,37.513L13.599,38.724L14.141,39.944L14.715,41.151L15.293,42.346L15.903,43.533L16.695,45L27.04,36.262ZM57.765,53.526L59.27,51.386L47.107,41.103L44.24,38.68L42.311,40.314L42.018,40.537L41.776,40.685L41.539,40.816L41.289,40.928L41.024,41.019L40.763,41.095L40.489,41.139L40.212,41.171L39.942,41.187L39.574,41.171L39.297,41.123L39.032,41.067L38.763,40.991L38.505,40.891L38.255,40.781L38.018,40.637L37.788,40.481L37.567,40.314L35.637,38.68L32.771,41.103L20.612,51.387L21.369,52.478L22.141,53.554L22.933,54.622L23.745,55.682L24.573,56.718L25.413,57.75L26.279,58.762L27.155,59.762L28.045,60.746L28.961,61.71L29.891,62.659L30.83,63.595L31.788,64.523L32.767,65.423L33.753,66.313L34.759,67.185L35.769,68.041L36.802,68.878L37.844,69.691L39.935,71.249L39.943,71.249L41.013,70.472L42.07,69.663L43.111,68.846L44.149,68.014L45.159,67.157L46.165,66.284L47.147,65.396L48.117,64.487L49.076,63.567L50.026,62.631L50.945,61.674L51.855,60.71L52.751,59.726L53.626,58.734L54.493,57.71L55.333,56.694L56.161,55.646L56.972,54.594L57.765,53.526ZM39.943,32.624L63.919,12.364L62.779,11.937L61.626,11.531L60.473,11.148L59.313,10.79L58.141,10.447L56.972,10.132L55.792,9.822L54.605,9.547L53.416,9.292L52.224,9.064L51.028,8.849L49.824,8.654L48.616,8.487L47.409,8.339L46.2,8.219L44.992,8.116L43.777,8.032L42.561,7.977L41.345,7.941L39.943,7.921L38.719,7.929L37.511,7.969L36.295,8.021L35.08,8.096L33.864,8.2L32.656,8.32L31.448,8.459L30.24,8.626L29.044,8.813L27.844,9.025L26.648,9.255L25.46,9.511L24.272,9.786L23.092,10.076L21.923,10.399L20.751,10.734L19.582,11.092L18.43,11.475L17.278,11.873L15.959,12.363L39.943,32.624ZM72.407,16.866L72.398,16.726L72.37,16.606L72.323,16.476L72.26,16.364L72.177,16.252L72.085,16.161L71.975,16.089L71.864,16.021L71.734,15.977L71.606,15.945L71.476,15.945L71.345,15.957L71.218,15.985L71.099,16.033L70.897,16.161L49.97,33.839L52.838,36.262L63.183,45L63.816,43.832L64.426,42.641L65.016,41.458L65.598,40.25L66.148,39.043L66.675,37.82L67.19,36.585L67.677,35.35L68.161,34.106L68.604,32.856L69.036,31.592L69.44,30.322L69.836,29.05L70.192,27.771L70.545,26.481L70.87,25.181L71.17,23.891L71.448,22.583L71.709,21.273L71.911,20.149L71.947,19.966L72.157,18.646L72.398,16.997L72.407,16.866ZM79.78,16.718L79.78,17.145L79.749,17.571L79.705,17.989L79.373,20.261L79.135,21.639L78.885,23.009L78.608,24.38L78.303,25.747L77.99,27.11L77.65,28.464L77.281,29.811L76.893,31.154L76.489,32.493L76.066,33.819L75.614,35.146L75.154,36.466L74.656,37.772L74.149,39.071L73.614,40.361L73.06,41.641L72.49,42.92L71.9,44.183L71.281,45.434L70.656,46.681L70.002,47.912L69.329,49.14L68.639,50.355L67.927,51.55L67.198,52.741L66.454,53.917L65.689,55.088L64.897,56.236L64.094,57.376L63.274,58.499L62.434,59.614L61.578,60.718L60.703,61.802L59.813,62.87L58.905,63.93L57.975,64.977L57.035,65.997L56.077,67.01L55.103,68.014L54.117,68.986L53.111,69.95L52.089,70.906L51.056,71.835L50.006,72.755L48.936,73.644L47.856,74.524L46.77,75.389L45.666,76.233L44.541,77.058L43.408,77.867L42.268,78.664L41.104,79.437L39.943,80.186L38.03,78.931L36.877,78.154L35.733,77.357L34.608,76.532L33.5,75.696L32.407,74.831L31.317,73.962L30.252,73.07L29.198,72.161L28.157,71.241L27.127,70.293L26.121,69.336L25.127,68.364L24.141,67.372L23.183,66.36L22.232,65.34L21.302,64.308L20.39,63.252L19.488,62.184L18.612,61.109L17.745,60.013L16.9,58.9L16.069,57.777L15.269,56.645L14.473,55.494L13.7,54.334L12.944,53.167L12.208,51.975L11.49,50.78L10.79,49.573L10.116,48.35L9.451,47.122L8.817,45.879L8.2,44.629L7.59,43.365L7.019,42.095L6.457,40.815L5.914,39.532L5.396,38.233L4.901,36.926L4.421,35.619L3.969,34.293L3.534,32.966L3.122,31.631L2.726,30.292L2.358,28.95L2.005,27.59L1.685,26.236L1.371,24.874L1.094,23.499L0.829,22.129L0.587,20.754L0.366,19.371L0.171,17.988L0.108,17.192L0.097,16.773L0.117,16.343L0.152,15.929L0.207,15.51L0.295,15.096L0.385,14.673L0.5,14.287L0.504,14.275L0.651,13.877L0.809,13.487L0.991,13.096L1.186,12.726L1.407,12.363L1.637,12.023L1.895,11.677L2.164,11.354L2.449,11.048L2.754,10.748L3.067,10.47L3.4,10.203L3.74,9.963L4.089,9.729L4.461,9.518L6.691,8.354L7.84,7.79L8.993,7.253L10.161,6.735L11.333,6.221L12.521,5.751L13.709,5.284L14.909,4.842L16.113,4.424L17.333,4.025L18.545,3.647L19.772,3.292L21.009,2.957L22.244,2.643L23.487,2.343L24.731,2.077L25.982,1.826L27.238,1.591L28.498,1.391L29.761,1.204L31.024,1.037L32.296,0.897L33.566,0.777L34.838,0.674L36.113,0.599L37.393,0.547L38.664,0.507L39.943,0.499L42.458,0.547L43.729,0.599L45.004,0.674L46.275,0.766L47.547,0.889L48.818,1.029L50.082,1.196L51.345,1.38L52.605,1.587L53.86,1.814L55.111,2.069L56.367,2.336L57.598,2.635L58.842,2.949L60.07,3.284L61.293,3.634L62.521,4.017L63.725,4.416L64.933,4.83L66.133,5.276L67.329,5.73L68.509,6.217L69.689,6.719L70.849,7.233L72.01,7.783L73.151,8.34L74.295,8.922L75.42,9.52L76.101,9.934L76.441,10.177L76.774,10.437L77.087,10.715L77.393,11.014L77.677,11.317L77.955,11.643L78.205,11.974L78.442,12.329L78.664,12.691L78.866,13.061L79.048,13.444L79.207,13.831L79.357,14.233L79.377,14.297L79.377,14.301L79.472,14.631L79.578,15.046L79.658,15.456L79.725,15.875L79.761,16.301L79.781,16.719L79.78,16.718Z" style="fill:rgb(231,76,60);"/>
            <path d="M78.33,14.342L78.103,14.165L77.862,13.998L77.612,13.851L77.354,13.72L77.087,13.609L76.81,13.517L76.534,13.452L76.248,13.396L75.964,13.369L75.668,13.359L75.382,13.369L75.099,13.405L74.812,13.452L74.526,13.527L74.249,13.619L73.992,13.729L73.725,13.87L73.485,14.018L73.081,14.316L70.897,16.163L49.97,33.838L44.238,38.68L42.312,40.314L42.018,40.537L41.778,40.684L41.538,40.815L41.29,40.926L41.023,41.018L40.763,41.094L40.489,41.139L40.212,41.169L39.942,41.185L39.574,41.169L39.298,41.123L39.031,41.067L38.764,40.992L38.507,40.891L38.256,40.779L38.019,40.639L37.788,40.481L37.566,40.314L35.64,38.68L29.908,33.838L8.984,16.163L6.8,14.316L6.568,14.139L6.328,13.972L6.08,13.822L5.823,13.703L5.546,13.593L5.27,13.507L4.993,13.442L4.707,13.386L4.42,13.369L4.127,13.359L3.841,13.376L3.554,13.406L3.268,13.471L2.985,13.543L2.715,13.638L2.448,13.759L2.191,13.887L1.943,14.044L1.713,14.211L1.335,14.545L7.958,20.141L7.968,20.147L27.04,36.261L32.771,41.103L35.196,43.153L35.502,43.395L35.814,43.628L36.137,43.831L36.478,44.027L36.82,44.201L37.178,44.351L37.539,44.489L37.907,44.61L38.285,44.702L38.662,44.777L39.04,44.843L39.427,44.879L39.941,44.898L40.321,44.878L40.706,44.853L41.093,44.806L41.471,44.731L41.851,44.64L42.219,44.528L42.578,44.398L42.938,44.25L43.287,44.083L43.619,43.896L43.951,43.7L44.273,43.477L44.68,43.153L47.104,41.103L52.836,36.261L71.912,20.147L71.918,20.141L78.541,14.545L78.33,14.342Z" style="fill-opacity:0.12;"/>
            <path d="M71.864,16.021L71.974,16.089L72.086,16.161L72.176,16.252L72.26,16.364L72.323,16.475L72.37,16.607L72.398,16.727L72.406,16.866L72.398,16.997L72.157,18.647L71.947,19.966L71.911,20.149L71.709,21.273L71.448,22.583L71.171,23.89L70.869,25.181L70.545,26.481L70.192,27.771L69.836,29.051L69.44,30.321L69.036,31.592L68.604,32.855L68.16,34.106L67.678,35.35L67.19,36.585L66.675,37.82L66.149,39.043L65.599,40.25L65.016,41.458L64.426,42.641L63.816,43.832L63.183,45L52.838,36.262L49.971,33.839L70.898,16.161L71.099,16.033L71.219,15.985L71.345,15.958L71.475,15.946L71.606,15.946L71.733,15.977L71.864,16.021ZM59.27,51.387L57.765,53.527L56.972,54.594L56.161,55.646L55.333,56.694L54.493,57.71L53.626,58.734L52.751,59.726L51.856,60.71L50.945,61.675L50.025,62.631L49.075,63.567L48.117,64.487L47.147,65.396L46.165,66.285L45.159,67.157L44.149,68.014L43.111,68.847L42.069,69.663L41.012,70.473L39.942,71.249L39.935,71.249L37.844,69.691L36.803,68.878L35.768,68.042L34.758,67.185L33.753,66.312L32.766,65.424L31.788,64.524L30.83,63.595L29.891,62.659L28.961,61.71L28.046,60.746L27.155,59.762L26.279,58.762L25.412,57.75L24.572,56.718L23.745,55.682L22.933,54.622L22.141,53.554L21.369,52.479L20.612,51.387L32.771,41.103L35.638,38.681L37.566,40.314L37.789,40.482L38.019,40.637L38.256,40.78L38.506,40.892L38.763,40.992L39.032,41.067L39.297,41.123L39.575,41.171L39.943,41.187L40.213,41.171L40.489,41.139L40.763,41.095L41.024,41.019L41.29,40.928L41.539,40.816L41.776,40.685L42.018,40.537L42.311,40.314L44.241,38.681L47.107,41.103L59.27,51.387ZM8.984,16.16L29.907,33.84L27.04,36.262L16.695,45L15.903,43.534L15.293,42.346L14.715,41.151L14.141,39.944L13.598,38.724L13.064,37.514L12.557,36.278L12.07,35.035L11.61,33.792L11.167,32.529L10.735,31.266L10.339,29.999L9.951,28.728L9.591,27.445L9.25,26.158L8.937,24.855L8.632,23.555L8.367,22.257L8.109,20.95L7.971,20.15L7.879,19.631L7.666,18.312L7.479,16.997L7.479,16.754L7.511,16.623L7.547,16.495L7.61,16.384L7.681,16.272L7.777,16.181L7.887,16.097L7.998,16.033L8.118,15.985L8.244,15.958L8.374,15.946L8.514,15.946L8.644,15.977L8.763,16.021L8.881,16.089L8.984,16.16ZM63.919,12.364L39.943,32.624L15.959,12.364L17.277,11.874L18.43,11.475L19.582,11.092L20.751,10.734L21.923,10.399L23.091,10.076L24.271,9.786L25.46,9.511L26.648,9.256L27.844,9.025L29.044,8.813L30.24,8.626L31.448,8.459L32.656,8.319L33.864,8.199L35.08,8.096L36.295,8.021L37.511,7.969L38.719,7.929L39.943,7.921L41.345,7.941L42.561,7.977L43.777,8.032L44.992,8.116L46.2,8.22L47.409,8.34L48.616,8.487L49.824,8.654L51.028,8.849L52.224,9.064L53.416,9.292L54.604,9.547L55.792,9.821L56.972,10.132L58.141,10.447L59.313,10.79L60.473,11.148L61.626,11.531L62.778,11.937L63.919,12.364Z" style="fill:white;"/>
            <path d="M78.33,14.342L78.103,14.165L77.862,13.998L77.612,13.851L77.354,13.72L77.087,13.609L76.81,13.517L76.534,13.452L76.248,13.396L75.964,13.369L75.668,13.359L75.382,13.369L75.099,13.405L74.812,13.452L74.526,13.527L74.249,13.619L73.992,13.729L73.725,13.87L73.485,14.018L73.081,14.316L70.897,16.163L49.97,33.838L44.238,38.68L42.312,40.314L42.018,40.537L41.778,40.684L41.538,40.815L41.29,40.926L41.023,41.018L40.763,41.094L40.489,41.139L40.212,41.169L39.942,41.185L39.574,41.169L39.298,41.123L39.031,41.067L38.764,40.992L38.507,40.891L38.256,40.779L38.019,40.639L37.788,40.481L37.566,40.314L35.64,38.68L29.908,33.838L8.984,16.163L6.8,14.316L6.568,14.139L6.328,13.972L6.08,13.822L5.823,13.703L5.546,13.593L5.27,13.507L4.993,13.442L4.707,13.386L4.42,13.369L4.127,13.359L3.841,13.376L3.554,13.406L3.268,13.471L2.985,13.543L2.715,13.638L2.448,13.759L2.191,13.887L1.943,14.044L1.713,14.211L1.335,14.545L7.958,20.141L7.968,20.147L27.04,36.261L32.771,41.103L35.196,43.153L35.502,43.395L35.814,43.628L36.137,43.831L36.478,44.027L36.82,44.201L37.178,44.351L37.539,44.489L37.907,44.61L38.285,44.702L38.662,44.777L39.04,44.843L39.427,44.879L39.941,44.898L40.321,44.878L40.706,44.853L41.093,44.806L41.471,44.731L41.851,44.64L42.219,44.528L42.578,44.398L42.938,44.25L43.287,44.083L43.619,43.896L43.951,43.7L44.273,43.477L44.68,43.153L47.104,41.103L52.836,36.261L71.912,20.147L71.918,20.141L78.541,14.545L78.33,14.342Z" style="fill-opacity:0.12;"/>
            <path d="M71.864,16.021L71.974,16.089L72.086,16.161L72.176,16.252L72.26,16.364L72.323,16.475L72.37,16.607L72.398,16.727L72.406,16.866L72.398,16.997L72.157,18.647L71.947,19.966L71.911,20.149L71.709,21.273L71.448,22.583L71.171,23.89L70.869,25.181L70.545,26.481L70.192,27.771L69.836,29.051L69.44,30.321L69.036,31.592L68.604,32.855L68.16,34.106L67.678,35.35L67.19,36.585L66.675,37.82L66.149,39.043L65.599,40.25L65.016,41.458L64.426,42.641L63.816,43.832L63.183,45L52.838,36.262L49.971,33.839L70.898,16.161L71.099,16.033L71.219,15.985L71.345,15.958L71.475,15.946L71.606,15.946L71.733,15.977L71.864,16.021ZM59.27,51.387L57.765,53.527L56.972,54.594L56.161,55.646L55.333,56.694L54.493,57.71L53.626,58.734L52.751,59.726L51.856,60.71L50.945,61.675L50.025,62.631L49.075,63.567L48.117,64.487L47.147,65.396L46.165,66.285L45.159,67.157L44.149,68.014L43.111,68.847L42.069,69.663L41.012,70.473L39.942,71.249L39.935,71.249L37.844,69.691L36.803,68.878L35.768,68.042L34.758,67.185L33.753,66.312L32.766,65.424L31.788,64.524L30.83,63.595L29.891,62.659L28.961,61.71L28.046,60.746L27.155,59.762L26.279,58.762L25.412,57.75L24.572,56.718L23.745,55.682L22.933,54.622L22.141,53.554L21.369,52.479L20.612,51.387L32.771,41.103L35.638,38.681L37.566,40.314L37.789,40.482L38.019,40.637L38.256,40.78L38.506,40.892L38.763,40.992L39.032,41.067L39.297,41.123L39.575,41.171L39.943,41.187L40.213,41.171L40.489,41.139L40.763,41.095L41.024,41.019L41.29,40.928L41.539,40.816L41.776,40.685L42.018,40.537L42.311,40.314L44.241,38.681L47.107,41.103L59.27,51.387ZM8.984,16.16L29.907,33.84L27.04,36.262L16.695,45L15.903,43.534L15.293,42.346L14.715,41.151L14.141,39.944L13.598,38.724L13.064,37.514L12.557,36.278L12.07,35.035L11.61,33.792L11.167,32.529L10.735,31.266L10.339,29.999L9.951,28.728L9.591,27.445L9.25,26.158L8.937,24.855L8.632,23.555L8.367,22.257L8.109,20.95L7.971,20.15L7.879,19.631L7.666,18.312L7.479,16.997L7.479,16.754L7.511,16.623L7.547,16.495L7.61,16.384L7.681,16.272L7.777,16.181L7.887,16.097L7.998,16.033L8.118,15.985L8.244,15.958L8.374,15.946L8.514,15.946L8.644,15.977L8.763,16.021L8.881,16.089L8.984,16.16ZM63.919,12.364L39.943,32.624L15.959,12.364L17.277,11.874L18.43,11.475L19.582,11.092L20.751,10.734L21.923,10.399L23.091,10.076L24.271,9.786L25.46,9.511L26.648,9.256L27.844,9.025L29.044,8.813L30.24,8.626L31.448,8.459L32.656,8.319L33.864,8.199L35.08,8.096L36.295,8.021L37.511,7.969L38.719,7.929L39.943,7.921L41.345,7.941L42.561,7.977L43.777,8.032L44.992,8.116L46.2,8.22L47.409,8.34L48.616,8.487L49.824,8.654L51.028,8.849L52.224,9.064L53.416,9.292L54.604,9.547L55.792,9.821L56.972,10.132L58.141,10.447L59.313,10.79L60.473,11.148L61.626,11.531L62.778,11.937L63.919,12.364Z" style="fill:white;"/>
            <path d="M78.33,14.342L78.103,14.165L77.862,13.998L77.612,13.851L77.354,13.72L77.087,13.609L76.81,13.517L76.534,13.452L76.248,13.396L75.964,13.369L75.668,13.359L75.382,13.369L75.099,13.405L74.812,13.452L74.526,13.527L74.249,13.619L73.992,13.729L73.725,13.87L73.485,14.018L73.081,14.316L70.897,16.163L49.97,33.838L44.238,38.68L42.312,40.314L42.018,40.537L41.778,40.684L41.538,40.815L41.29,40.926L41.023,41.018L40.763,41.094L40.489,41.139L40.212,41.169L39.942,41.185L39.574,41.169L39.298,41.123L39.031,41.067L38.764,40.992L38.507,40.891L38.256,40.779L38.019,40.639L37.788,40.481L37.566,40.314L35.64,38.68L29.908,33.838L8.984,16.163L6.8,14.316L6.568,14.139L6.328,13.972L6.08,13.822L5.823,13.703L5.546,13.593L5.27,13.507L4.993,13.442L4.707,13.386L4.42,13.369L4.127,13.359L3.841,13.376L3.554,13.406L3.268,13.471L2.985,13.543L2.715,13.638L2.448,13.759L2.191,13.887L1.943,14.044L1.713,14.211L1.335,14.545L7.958,20.141L7.968,20.147L27.04,36.261L32.771,41.103L35.196,43.153L35.502,43.395L35.814,43.628L36.137,43.831L36.478,44.027L36.82,44.201L37.178,44.351L37.539,44.489L37.907,44.61L38.285,44.702L38.662,44.777L39.04,44.843L39.427,44.879L39.941,44.898L40.321,44.878L40.706,44.853L41.093,44.806L41.471,44.731L41.851,44.64L42.219,44.528L42.578,44.398L42.938,44.25L43.287,44.083L43.619,43.896L43.951,43.7L44.273,43.477L44.68,43.153L47.104,41.103L52.836,36.261L71.912,20.147L71.918,20.141L78.541,14.545L78.33,14.342Z" style="fill-opacity:0.12;"/>
            <path d="M71.864,16.021L71.974,16.089L72.086,16.161L72.176,16.252L72.26,16.364L72.323,16.475L72.37,16.607L72.398,16.727L72.406,16.866L72.398,16.997L72.157,18.647L71.947,19.966L71.911,20.149L71.709,21.273L71.448,22.583L71.171,23.89L70.869,25.181L70.545,26.481L70.192,27.771L69.836,29.051L69.44,30.321L69.036,31.592L68.604,32.855L68.16,34.106L67.678,35.35L67.19,36.585L66.675,37.82L66.149,39.043L65.599,40.25L65.016,41.458L64.426,42.641L63.816,43.832L63.183,45L52.838,36.262L49.971,33.839L70.898,16.161L71.099,16.033L71.219,15.985L71.345,15.958L71.475,15.946L71.606,15.946L71.733,15.977L71.864,16.021ZM59.27,51.387L57.765,53.527L56.972,54.594L56.161,55.646L55.333,56.694L54.493,57.71L53.626,58.734L52.751,59.726L51.856,60.71L50.945,61.675L50.025,62.631L49.075,63.567L48.117,64.487L47.147,65.396L46.165,66.285L45.159,67.157L44.149,68.014L43.111,68.847L42.069,69.663L41.012,70.473L39.942,71.249L39.935,71.249L37.844,69.691L36.803,68.878L35.768,68.042L34.758,67.185L33.753,66.312L32.766,65.424L31.788,64.524L30.83,63.595L29.891,62.659L28.961,61.71L28.046,60.746L27.155,59.762L26.279,58.762L25.412,57.75L24.572,56.718L23.745,55.682L22.933,54.622L22.141,53.554L21.369,52.479L20.612,51.387L32.771,41.103L35.638,38.681L37.566,40.314L37.789,40.482L38.019,40.637L38.256,40.78L38.506,40.892L38.763,40.992L39.032,41.067L39.297,41.123L39.575,41.171L39.943,41.187L40.213,41.171L40.489,41.139L40.763,41.095L41.024,41.019L41.29,40.928L41.539,40.816L41.776,40.685L42.018,40.537L42.311,40.314L44.241,38.681L47.107,41.103L59.27,51.387ZM8.984,16.16L29.907,33.84L27.04,36.262L16.695,45L15.903,43.534L15.293,42.346L14.715,41.151L14.141,39.944L13.598,38.724L13.064,37.514L12.557,36.278L12.07,35.035L11.61,33.792L11.167,32.529L10.735,31.266L10.339,29.999L9.951,28.728L9.591,27.445L9.25,26.158L8.937,24.855L8.632,23.555L8.367,22.257L8.109,20.95L7.971,20.15L7.879,19.631L7.666,18.312L7.479,16.997L7.479,16.754L7.511,16.623L7.547,16.495L7.61,16.384L7.681,16.272L7.777,16.181L7.887,16.097L7.998,16.033L8.118,15.985L8.244,15.958L8.374,15.946L8.514,15.946L8.644,15.977L8.763,16.021L8.881,16.089L8.984,16.16ZM63.919,12.364L39.943,32.624L15.959,12.364L17.277,11.874L18.43,11.475L19.582,11.092L20.751,10.734L21.923,10.399L23.091,10.076L24.271,9.786L25.46,9.511L26.648,9.256L27.844,9.025L29.044,8.813L30.24,8.626L31.448,8.459L32.656,8.319L33.864,8.199L35.08,8.096L36.295,8.021L37.511,7.969L38.719,7.929L39.943,7.921L41.345,7.941L42.561,7.977L43.777,8.032L44.992,8.116L46.2,8.22L47.409,8.34L48.616,8.487L49.824,8.654L51.028,8.849L52.224,9.064L53.416,9.292L54.604,9.547L55.792,9.821L56.972,10.132L58.141,10.447L59.313,10.79L60.473,11.148L61.626,11.531L62.778,11.937L63.919,12.364Z" style="fill:white;"/>
            <path d="M78.33,14.342L78.103,14.165L77.862,13.998L77.612,13.851L77.354,13.72L77.087,13.609L76.81,13.517L76.534,13.452L76.248,13.396L75.964,13.369L75.668,13.359L75.382,13.369L75.099,13.405L74.812,13.452L74.526,13.527L74.249,13.619L73.992,13.729L73.725,13.87L73.485,14.018L73.081,14.316L70.897,16.163L49.97,33.838L44.238,38.68L42.312,40.314L42.018,40.537L41.778,40.684L41.538,40.815L41.29,40.926L41.023,41.018L40.763,41.094L40.489,41.139L40.212,41.169L39.942,41.185L39.574,41.169L39.298,41.123L39.031,41.067L38.764,40.992L38.507,40.891L38.256,40.779L38.019,40.639L37.788,40.481L37.566,40.314L35.64,38.68L29.908,33.838L8.984,16.163L6.8,14.316L6.568,14.139L6.328,13.972L6.08,13.822L5.823,13.703L5.546,13.593L5.27,13.507L4.993,13.442L4.707,13.386L4.42,13.369L4.127,13.359L3.841,13.376L3.554,13.406L3.268,13.471L2.985,13.543L2.715,13.638L2.448,13.759L2.191,13.887L1.943,14.044L1.713,14.211L1.335,14.545L7.958,20.141L7.968,20.147L27.04,36.261L32.771,41.103L35.196,43.153L35.502,43.395L35.814,43.628L36.137,43.831L36.478,44.027L36.82,44.201L37.178,44.351L37.539,44.489L37.907,44.61L38.285,44.702L38.662,44.777L39.04,44.843L39.427,44.879L39.941,44.898L40.321,44.878L40.706,44.853L41.093,44.806L41.471,44.731L41.851,44.64L42.219,44.528L42.578,44.398L42.938,44.25L43.287,44.083L43.619,43.896L43.951,43.7L44.273,43.477L44.68,43.153L47.104,41.103L52.836,36.261L71.912,20.147L71.918,20.141L78.541,14.545L78.33,14.342Z" style="fill-opacity:0.12;"/>
        </g>
    </g>
</svg>
