<svg xmlns="http://www.w3.org/2000/svg" viewBox="0 0 24 24"><path d="M3.888 23.938a2.434 2.434 0 01-1.179-.755c-1.08-1.108-1.466-2.986-1.338-6.554.053-1.413.302-5.631.454-7.54.204-2.596.982-4.376 2.698-6.137C5.91 1.519 7.384.699 9.482.189 10.154.026 10.445 0 11.643 0c1.557 0 2.09.083 3.341.518 1.229.423 1.814.725 2.669 1.372 1.976 1.493 3.363 3.68 3.749 5.918.045.257.117.922.162 1.474.106 1.327.19 1.837.556 3.42.42 1.8.529 2.612.533 3.855 0 .798-.038 1.202-.152 1.656-.744 2.91-3.87 4.667-9.675 5.442-.812.106-1.965.23-2.57.276-1.22.087-6.009.094-6.368.008zm6.954-9.463c1.18-.68 1.943-1.97 2.177-3.674.242-1.753-.31-3.666-1.353-4.705a3.991 3.991 0 00-.941-.7c-.404-.192-.556-.226-1.164-.226-1.04-.004-1.41.151-2.143.885-1.02 1.02-1.485 2.248-1.485 3.93 0 1.092.17 1.856.604 2.74.333.688 1.134 1.527 1.754 1.837.39.2.469.212 1.27.189.794-.027.884-.046 1.285-.276zm8.122-1.534c.752-.37 1.432-1.308 1.7-2.351a6.236 6.236 0 00.005-2.396c-.65-2.544-2.873-3.458-4.46-1.83-.688.707-1.013 1.682-1.013 3.039 0 .93.113 1.485.465 2.177.718 1.425 2.048 1.973 3.303 1.36z" paint-order="markers fill stroke"/></svg>