<?xml version="1.0" encoding="UTF-8"?><svg id="Layer_1" width="511.98" height="426.74" version="1.1" viewBox="0 0 511.98 426.74" xml:space="preserve" xmlns="http://www.w3.org/2000/svg"><path id="path2" d="m506.23 195.34-102.79-53.357-5.562-17.171c-0.188-0.547-0.406-1.078-0.672-1.594-0.438-0.859-11.062-21.155-35.186-42.748-22.078-19.78-60.325-44.623-117.06-50.623-0.062-0.016-0.141-0.016-0.203-0.016l-66.403-5.672c-0.234-0.016-0.484-0.031-0.734-0.031l-166.78-2.688c-3.155-0.015-6.155 1.297-8.233 3.672-2.062 2.375-2.969 5.547-2.484 8.656l60.263 383.98c0.469 2.999 2.188 5.655 4.734 7.312 1.75 1.125 3.766 1.688 5.797 1.688 0.938 0 1.875-0.094 2.797-0.344 6.483-1.781 159.48-43.278 198.16-64.997 33.812-18.999 107.98-47.279 120.45-51.967h38.546c2.719 0 5.328-1.031 7.312-2.906l33.998-31.997c0.219-0.188 0.422-0.406 0.609-0.625l9.625-10.656c0.453-0.5 0.843-1.031 1.187-1.594l15.468-25.374c0.266-0.438 0.484-0.844 0.672-1.281l11.328-25.913c2.266-5.157 0.141-11.157-4.844-13.751z" fill="#ff5722"/><path id="path4" d="m351.99 138.78c0 5.891-4.781 10.656-10.672 10.656s-10.672-4.766-10.672-10.656 4.781-10.671 10.672-10.671 10.672 4.781 10.672 10.671z" fill="#212121"/><path id="path6" d="m296.91 10.578c-4.031-5.859-9.953-9.438-17.141-10.375-1.031-0.141-2.109-0.203-3.188-0.203-20.78 0-46.998 26.796-52.045 32.155-2.671 2.844-3.577 6.905-2.374 10.593 1.203 3.703 4.312 6.453 8.124 7.188l57.982 11.156c0.672 0.125 1.344 0.188 2.016 0.188 4.828 0 9.188-3.297 10.359-8.156 1.111-4.595 6.126-28.188-3.733-42.546z" fill="#ff5722"/><polygon id="polygon8" transform="translate(1.9382e-5 -42.62)" points="479.25 309.37 395.5 309.37 460.72 327.96" enable-background="new" opacity=".2"/><path id="path10" d="m506.23 195.34-15.843-8.219s-13.374 15.062-4.172 22.984c9.188 7.922 21.483 6.703 21.483 6.703l3.375-7.719c2.267-5.155 0.142-11.155-4.843-13.749z" fill="#212121"/><polygon id="polygon12" transform="translate(1.9382e-5 -42.62)" points="392.33 352.05 255.99 352.05 339.13 373.08" enable-background="new" opacity=".2"/><polygon id="polygon14" transform="translate(1.9382e-5 -42.62)" points="228.2 71.025 183.89 67.244 224.54 74.775" enable-background="new" opacity=".2"/></svg>
