<svg xmlns="http://www.w3.org/2000/svg" width="511.98" height="426.74" xmlns:v="https://vecta.io/nano"><path d="M506.23 195.34l-102.79-53.357-5.562-17.171c-.188-.547-.406-1.078-.672-1.594-.438-.859-11.062-21.155-35.186-42.748-22.078-19.78-60.325-44.623-117.06-50.623-.062-.016-.141-.016-.203-.016l-66.403-5.672a10.8 10.8 0 0 0-.734-.031L10.84 21.44c-3.155-.015-6.155 1.297-8.233 3.672C.545 27.487-.362 30.659.123 33.768l60.263 383.98a10.69 10.69 0 0 0 4.734 7.312c1.75 1.125 3.766 1.688 5.797 1.688.938 0 1.875-.094 2.797-.344 6.483-1.781 159.48-43.278 198.16-64.997 33.812-18.999 107.98-47.279 120.45-51.967h38.546c2.719 0 5.328-1.031 7.312-2.906l33.998-31.997c.219-.188.422-.406.609-.625l9.625-10.656a10.55 10.55 0 0 0 1.187-1.594l15.468-25.374c.266-.438.484-.844.672-1.281l11.328-25.913c2.266-5.157.141-11.157-4.844-13.751z" fill="#ff5722"/><path d="m351.99 138.78c0 5.891-4.781 10.656-10.672 10.656s-10.672-4.766-10.672-10.656 4.781-10.671 10.672-10.671 10.672 4.781 10.672 10.671z" fill="#212121"/><path d="M296.91 10.578c-4.031-5.859-9.953-9.438-17.141-10.375C278.738.062 277.66 0 276.581 0c-20.78 0-46.998 26.796-52.045 32.155-2.671 2.844-3.577 6.905-2.374 10.593 1.203 3.703 4.312 6.453 8.124 7.188l57.982 11.156c.672.125 1.344.188 2.016.188 4.828 0 9.188-3.297 10.359-8.156 1.111-4.595 6.126-28.188-3.733-42.546z" fill="#ff5722"/><path opacity=".2" d="M479.25 266.75H395.5l65.22 18.59z"/><path d="M506.23 195.34l-15.843-8.219s-13.374 15.062-4.172 22.984c9.188 7.922 21.483 6.703 21.483 6.703l3.375-7.719c2.267-5.155.142-11.155-4.843-13.749z" fill="#212121"/><path opacity=".2" d="M392.33 309.43H255.99l83.14 21.03zM228.2 28.405l-44.31-3.781 40.65 7.531z"/></svg>