<?xml version="1.0" encoding="UTF-8"?>
<svg version="1.1" xmlns="http://www.w3.org/2000/svg" width="819" height="819">
<path d="M0 0 C270.27 0 540.54 0 819 0 C819 270.27 819 540.54 819 819 C548.73 819 278.46 819 0 819 C0 548.73 0 278.46 0 0 Z " fill="#FEFEFE" transform="translate(0,0)"/>
<path d="M0 0 C17.82 0 35.64 0 54 0 C54.33 28.71 54.66 57.42 55 87 C58.96 84.03 62.92 81.06 67 78 C74.87552854 73.94972818 82.37407732 70.92111257 91 69 C91.81210937 68.79503906 92.62421875 68.59007812 93.4609375 68.37890625 C113.98935328 63.79949042 137.79688201 67.35709695 155.75 78.25 C170.66189871 88.46093357 179.50360671 100.83826569 185 118 C185.23332031 118.72703125 185.46664062 119.4540625 185.70703125 120.203125 C188.32910583 129.48413718 188.1461276 139.42684164 188.11352539 148.98901367 C188.11367142 150.13178772 188.11381744 151.27456177 188.1139679 152.45196533 C188.11327694 156.19065314 188.10552314 159.92928975 188.09765625 163.66796875 C188.09578916 166.27541578 188.09436663 168.88286316 188.09336853 171.49031067 C188.09027569 177.62754013 188.08209022 183.76475152 188.07201904 189.90197307 C188.05969021 197.58373377 188.05425907 205.26549748 188.04882812 212.94726562 C188.03912336 226.63152445 188.01908543 240.31574391 188 254 C170.51 254 153.02 254 135 254 C134.96261719 246.33136719 134.92523437 238.66273438 134.88671875 230.76171875 C134.85642615 225.88995191 134.82526972 221.01822104 134.79101562 216.14648438 C134.73678384 208.4218125 134.68566994 200.69721177 134.65356445 192.97241211 C134.62746607 186.74124707 134.58701709 180.51032222 134.53681374 174.27930641 C134.52018924 171.90763154 134.50864757 169.53591516 134.50238609 167.16419029 C134.49269706 163.83015413 134.46457973 160.49672642 134.43237305 157.1628418 C134.43380814 156.19251007 134.43524323 155.22217834 134.4367218 154.22244263 C134.29155682 143.52623194 131.80434378 132.42028529 124.5625 124.25 C123.716875 123.5075 122.87125 122.765 122 122 C121.236875 121.29875 120.47375 120.5975 119.6875 119.875 C109.60716025 112.84220482 95.54516978 113.42059888 83.83105469 115.35888672 C74.51731874 117.59856056 66.99839491 123.58530617 61.37890625 131.1953125 C56.04959547 140.01951254 54.55217728 149.74319592 54.56762695 159.88745117 C54.5574353 160.91318237 54.54724365 161.93891357 54.53674316 162.99572754 C54.50684393 166.34486517 54.49738262 169.69371573 54.48828125 173.04296875 C54.47141746 175.38138258 54.45326496 177.71978744 54.43388367 180.05818176 C54.38656235 186.18186642 54.35663752 192.30551468 54.33044434 198.42932129 C54.29528255 205.79344207 54.23832093 213.15742319 54.18505096 220.52143097 C54.10674683 231.68093578 54.05598209 242.84026039 54 254 C36.18 254 18.36 254 0 254 C0 170.18 0 86.36 0 0 Z " fill="#010101" transform="translate(614,279)"/>
<path d="M0 0 C13.70263283 12.95051576 20.72991201 31.05519997 21.36660957 49.77719116 C21.39992807 52.84671709 21.40105054 55.91468329 21.39086914 58.984375 C21.39101517 60.14621811 21.39116119 61.30806122 21.39131165 62.50511169 C21.39061794 66.32504172 21.38285097 70.14492229 21.375 73.96484375 C21.37313389 76.62142011 21.37166167 79.27799377 21.37071228 81.93457031 C21.36761309 88.19939695 21.35941885 94.46420598 21.34936279 100.72902489 C21.33815765 107.86571062 21.33268014 115.00239723 21.32766736 122.13908958 C21.31723497 136.81018465 21.29890716 151.4812607 21.27734375 166.15234375 C4.77734375 166.15234375 -11.72265625 166.15234375 -28.72265625 166.15234375 C-29.05265625 159.55234375 -29.38265625 152.95234375 -29.72265625 146.15234375 C-31.00140625 147.67859375 -32.28015625 149.20484375 -33.59765625 150.77734375 C-45.05683308 163.43241598 -61.35545791 168.404743 -78.04980469 169.2734375 C-98.01921847 170.06056457 -117.83065657 167.27939389 -133.72265625 154.15234375 C-134.56699219 153.45625 -135.41132813 152.76015625 -136.28125 152.04296875 C-144.37406449 144.7015419 -152.02938051 133.09512261 -152.8996582 121.86914062 C-153.44390181 99.68308245 -153.44390181 99.68308245 -148.72265625 90.15234375 C-148.29855469 89.27578125 -147.87445313 88.39921875 -147.4375 87.49609375 C-140.46384714 74.59774974 -127.56266823 66.74727546 -113.8125 62.57421875 C-101.66622392 59.18306099 -90.42930593 58.00347445 -77.81640625 58.0546875 C-76.48262587 58.05655603 -75.14884479 58.05797788 -73.81506348 58.05897522 C-70.32989558 58.06276615 -66.84477035 58.0725666 -63.35961914 58.0836792 C-59.79313738 58.09396752 -56.22664862 58.09848864 -52.66015625 58.10351562 C-45.68097222 58.11419245 -38.70181629 58.13122699 -31.72265625 58.15234375 C-32.01125041 56.07714251 -32.30850253 54.00314416 -32.609375 51.9296875 C-32.85627075 50.19706665 -32.85627075 50.19706665 -33.1081543 48.42944336 C-34.39126458 41.5866983 -37.76268309 36.0367301 -42.72265625 31.15234375 C-45.08214693 29.69677832 -47.23461804 28.49082724 -49.72265625 27.33984375 C-50.3259375 27.04142578 -50.92921875 26.74300781 -51.55078125 26.43554688 C-66.19276267 19.38511452 -87.27427217 21.71082795 -102.36328125 26.515625 C-108.28848909 28.62664636 -113.8804478 31.38659394 -119.40234375 34.3828125 C-122.15238796 35.8484243 -124.82604383 37.02855684 -127.72265625 38.15234375 C-129.80448893 34.13243763 -131.88576875 30.11224593 -133.96655273 26.09179688 C-134.6734347 24.7261597 -135.38046361 23.36059857 -136.08764648 21.99511719 C-137.10830375 20.02429201 -138.12841971 18.05318745 -139.1484375 16.08203125 C-139.46106033 15.47865936 -139.77368317 14.87528748 -140.09577942 14.25363159 C-140.9745067 12.55480308 -141.84866514 10.85361372 -142.72265625 9.15234375 C-143.29846436 8.06276367 -143.87427246 6.97318359 -144.4675293 5.85058594 C-145.72265625 3.15234375 -145.72265625 3.15234375 -145.37890625 1.05078125 C-142.82681975 -1.87448771 -139.6262683 -3.47487592 -136.22265625 -5.22265625 C-135.46509033 -5.61477295 -134.70752441 -6.00688965 -133.92700195 -6.41088867 C-94.48111159 -26.20893409 -35.35159676 -29.85118625 0 0 Z " fill="#010101" transform="translate(160.72265625,366.84765625)"/>
<path d="M0 0 C17.49 0 34.98 0 53 0 C53.02578125 7.63382812 53.0515625 15.26765625 53.078125 23.1328125 C53.10331393 27.99091823 53.12966277 32.84896297 53.16015625 37.70703125 C53.20836671 45.40511241 53.2524583 53.10305226 53.27099609 60.80126953 C53.28622445 67.01304623 53.32077966 73.22445132 53.36830902 79.43606186 C53.38305921 81.79688142 53.39103733 84.15775405 53.39188385 86.51861954 C53.07708107 110.41216777 53.07708107 110.41216777 64 131 C74.83657289 140.00777962 86.49739034 140.05592255 100 139 C110.43496306 137.09288318 118.59471681 131.94121845 124.6875 123.265625 C130.4543538 113.31093689 132.29201989 102.03391925 132.31884766 90.70678711 C132.32889328 89.72036224 132.3389389 88.73393738 132.34928894 87.71762085 C132.3799487 84.48753391 132.39710802 81.25752918 132.4140625 78.02734375 C132.432788 75.77575481 132.45236243 73.52417279 132.4727478 71.27259827 C132.52392896 65.3691924 132.56362956 59.46576381 132.60089111 53.56225586 C132.64808388 46.46685391 132.70962139 39.37156345 132.76873779 32.27625275 C132.85677903 21.51754718 132.92666606 10.75886113 133 0 C150.49 0 167.98 0 186 0 C186 60.72 186 121.44 186 184 C169.5 184 153 184 136 184 C136 177.07 136 170.14 136 163 C135.34 163 134.68 163 134 163 C133.76023437 163.58007812 133.52046875 164.16015625 133.2734375 164.7578125 C127.10410648 175.62037693 111.53966604 180.81706374 100.30078125 184.140625 C98.66689453 184.56601562 98.66689453 184.56601562 97 185 C96.32646484 185.17877686 95.65292969 185.35755371 94.95898438 185.54174805 C89.22222496 186.95764788 83.77295311 187.35029335 77.875 187.3125 C76.95847656 187.30758545 76.04195313 187.3026709 75.09765625 187.29760742 C54.06405303 186.93908009 34.31875577 179.5482858 19 165 C4.32430114 148.35067267 -0.18645129 126.95938319 -0.11352539 105.3515625 C-0.11367142 104.20922653 -0.11381744 103.06689056 -0.1139679 101.88993835 C-0.11327431 98.13493921 -0.1055079 94.37999042 -0.09765625 90.625 C-0.0957901 88.01326525 -0.09436713 85.40153015 -0.09336853 82.78979492 C-0.09026961 76.63121604 -0.08207575 70.47265507 -0.07201904 64.31408405 C-0.05971225 56.6091324 -0.05426394 48.90417779 -0.04882812 41.19921875 C-0.03910941 27.46613191 -0.01907373 13.7330841 0 0 Z " fill="#000000" transform="translate(230,349)"/>
<path d="M0 0 C17.49 0 34.98 0 53 0 C53 14.85 53 29.7 53 45 C68.18 45 83.36 45 99 45 C99 58.53 99 72.06 99 86 C83.82 86 68.64 86 53 86 C53.06183927 100.15253921 53.06183927 100.15253921 53.16015625 114.3046875 C53.20837887 120.08268468 53.25246567 125.86049322 53.27099609 131.63867188 C53.28621753 136.30084874 53.32075969 140.96252977 53.36830902 145.62448502 C53.38306646 147.39688922 53.39103776 149.16936424 53.39188385 150.94182968 C53.06233264 165.71530368 53.06233264 165.71530368 59.41143799 178.62619019 C64.62475922 183.31938864 69.86838329 184.38789667 76.6875 184.375 C77.39358398 184.37628906 78.09966797 184.37757813 78.82714844 184.37890625 C84.0804825 184.2733116 88.25150287 183.25798457 92.984375 180.875 C95 180 95 180 99 180 C100.8577973 184.78474023 102.70902823 189.57194866 104.55419922 194.36157227 C105.18292943 195.99085016 105.81345369 197.61943691 106.44580078 199.24731445 C107.35400505 201.58626123 108.25574486 203.92761131 109.15625 206.26953125 C109.5827887 207.36186821 109.5827887 207.36186821 110.01794434 208.47627258 C111.15963884 211.46124885 112 213.77510604 112 217 C89.82835841 228.55230335 65.49306932 232.2153695 41.13037109 224.73632812 C24.77961156 219.08495398 13.83673137 210.10190321 5.78515625 194.671875 C-0.50119815 180.72328485 -0.42830691 164.94664658 -0.29296875 149.96484375 C-0.28735547 148.10584358 -0.2830936 146.24683889 -0.28010559 144.38783264 C-0.26879289 139.55625592 -0.23944714 134.72496101 -0.20599365 129.89349365 C-0.17499549 124.93880014 -0.16153748 119.98405994 -0.14648438 115.02929688 C-0.11456066 105.35272248 -0.06190832 95.67642904 0 86 C-9.24 86 -18.48 86 -28 86 C-28 72.47 -28 58.94 -28 45 C-18.76 45 -9.52 45 0 45 C0 30.15 0 15.3 0 0 Z " fill="#000000" transform="translate(472,308)"/>
<path d="M0 0 C1.5747686 0.00636726 1.5747686 0.00636726 3.18135071 0.01286316 C6.49226952 0.02948357 9.80255043 0.06710375 13.11328125 0.10546875 C15.37564217 0.12053711 17.63801276 0.13422172 19.90039062 0.14648438 C25.40906708 0.17933224 30.91737857 0.22936199 36.42578125 0.29296875 C36.48599661 3.51554317 36.5224369 6.73797145 36.5546875 9.9609375 C36.57196899 10.87033081 36.58925049 11.77972412 36.60705566 12.7166748 C36.65738677 19.4198625 35.97092391 24.1217095 31.42578125 29.29296875 C30.69875 30.21722656 30.69875 30.21722656 29.95703125 31.16015625 C23.57925806 38.44457366 13.03765515 43.44710021 3.45507812 44.51196289 C-7.95838882 45.16466713 -17.96831198 44.35391571 -27.13671875 36.85546875 C-30.91956213 33.46585233 -32.33281271 30.27758047 -32.9453125 25.2421875 C-33.13039185 16.15152513 -31.50705454 11.57281946 -25.44921875 4.98046875 C-17.60458663 0.37601077 -8.89268116 -0.13864029 0 0 Z " fill="#FCFCFC" transform="translate(92.57421875,455.70703125)"/>
</svg>
