<svg xmlns="http://www.w3.org/2000/svg" xmlns:xlink="http://www.w3.org/1999/xlink" width="48" height="48" xmlns:v="https://vecta.io/nano"><style><![CDATA[.B{fill:#263238}.C{fill-opacity:.2}.D{fill:#fff}.E{fill-rule:evenodd}.F{fill:#8ab000}.G{fill-opacity:.298}.H{stroke-linecap:round}]]></style><defs><radialGradient id="A" cx="-98.234" cy="3.47" fx="-98.234" fy="3.47" r="22.671" gradientTransform="matrix(0,1.9747624,-2.117225,3.9784049e-8,8.677247,1199.588)" gradientUnits="userSpaceOnUse"><stop offset="0" stop-color="#fff" stop-opacity=".098"/><stop offset="1" stop-color="#fff" stop-opacity="0"/></radialGradient><filter id="B" x="-.024" width="1.048" y="-.024" height="1.048" color-interpolation-filters="sRGB"><feGaussianBlur stdDeviation=".451"/></filter><path id="C" d="M2.611 1005.609c-.453.012-.762.189-.981.449l5.135 6.221c1.02 1.319 2.082.637 1.062-.682l-4.25-5.5c-.229-.306-.585-.478-.967-.488z"/><path id="D" d="M1.622 1006.071a1.25 1.25 0 0 0-.022 1.556l4.25 5.5c1.02 1.319 1.15-.612 1.15-.612l-5.377-6.444z"/><path id="E" d="M2.338 1005.844c-.438 0-.96.142-.824.799.104.502 4.661 6.074 4.661 6.074 1.02 1.319 2.493.676 1.474-.643l-4.234-5.473c-.26-.29-.609-.744-1.076-.758z"/></defs><g transform="translate(0 -1004.362)"><path d="M2.613 1006.349a1.25 1.25 0 0 0-1.012 2.029l3.604 4.664c-.127.333-.203.692-.203 1.07v4 2.865.135c0 1.662 1.338 3 3 3h32c1.662 0 3-1.338 3-3v-4-2.865-.135a2.99 2.99 0 0 0-.205-1.074l3.602-4.66a1.25 1.25 0 0 0-1.979-1.529l-3.432 4.441c-.31-.108-.638-.178-.986-.178h-32c-.349 0-.678.069-.988.178l-3.434-4.441a1.25 1.25 0 0 0-.967-.5zm5.389 18.764c-.208 0-.41.021-.605.061-1.37.276-2.395 1.47-2.395 2.91v.029 19.779.029.191c0 1.662 1.338 3 3 3h32c1.662 0 3-1.338 3-3v-20-.029c0-1.44-1.025-2.634-2.395-2.91a3.09 3.09 0 0 0-.605-.061h-32z" fill-opacity=".4" filter="url(#B)" class="B E"/><g transform="matrix(-1 0 0 1 47.999779 0)" class="E"><path d="M2.589 1006.862l4.25 5.5" stroke="#769616" stroke-width="2.5" class="F H"/><use xlink:href="#C" class="D G"/><use xlink:href="#D" class="B C"/><use xlink:href="#E" class="F"/></g><g class="E"><path d="M2.589 1006.862l4.25 5.5" stroke="#769616" stroke-width="2.5" class="F H"/><use xlink:href="#C" class="D G"/><use xlink:href="#D" class="B C"/><use xlink:href="#E" class="F"/></g><rect width="38" height="13" x="5" y="1010.362" rx="3" fill="#aeea00"/><rect rx="3" y="1013.362" x="5" height="10" width="38" class="B C"/><rect rx="3" y="1010.362" x="5" height="10" width="38" class="D G"/><rect ry="2.538" rx="3" y="1011.362" x="5" height="11" width="38" fill="#aeea00"/><rect width="38" height="26" x="5" y="1024.362" rx="3" fill="#1976d2"/><rect rx="3" y="1037.362" x="5" height="13" width="38" class="B C"/><rect rx="3" y="1024.362" x="5" height="13" width="38" class="C D"/><rect ry="2.769" rx="3" y="1025.362" x="5" height="24" width="38" fill="#1976d2"/><path d="M24 1031.112c-2.881 0-5.32 1.985-6.033 4.65h3.213c.554-.985 1.595-1.65 2.82-1.65 1.813 0 3.25 1.437 3.25 3.25s-1.437 3.25-3.25 3.25a3.22 3.22 0 0 1-2.93-1.85h-3.154c.642 2.766 3.132 4.85 6.084 4.85 3.434 0 6.25-2.816 6.25-6.25s-2.816-6.25-6.25-6.25z" fill="#0d47a1"/><circle cx="24" cy="1037.362" r="9.55" fill="none" stroke="#0d47a1" stroke-width="1.9"/><ellipse cy="1016.987" cx="14.375" rx="3.375" ry="3.875" class="B C"/><circle cx="14.375" cy="1017.487" r="3.375" class="D"/><ellipse ry="3.875" rx="3.375" cx="33.875" cy="1016.987" class="B C"/><circle r="3.375" cy="1017.487" cx="33.875" class="D"/><path d="M2.613 1005.599a1.25 1.25 0 0 0-1.012 2.029l3.604 4.664c-.127.333-.203.692-.203 1.07v4 2.865.135c0 1.662 1.338 3 3 3h32c1.662 0 3-1.338 3-3v-4-2.865-.135a2.99 2.99 0 0 0-.205-1.074l3.602-4.66a1.25 1.25 0 0 0-1.979-1.529l-3.432 4.441c-.31-.108-.638-.178-.986-.178h-32c-.349 0-.678.069-.988.178l-3.434-4.441a1.25 1.25 0 0 0-.967-.5zm5.389 18.764c-.208 0-.41.021-.605.061-1.37.276-2.395 1.47-2.395 2.91v.029 19.779.029.191c0 1.662 1.338 3 3 3h32c1.662 0 3-1.338 3-3v-20-.029c0-1.44-1.025-2.634-2.395-2.91a3.09 3.09 0 0 0-.605-.061h-32z" fill="url(#A)" class="E"/></g></svg>