<svg xmlns="http://www.w3.org/2000/svg" width="100%" height="100%" viewBox="0 0 24 24" fill-rule="evenodd" stroke-linejoin="round" stroke-miterlimit="2" xmlns:v="https://vecta.io/nano"><path d="M12.004.001C7.487-.061 3.13 2.839 1.418 7.012.571 8.884.459 10.957.512 12.978l.014 7.665c.108 1.478 1.584 2.505 3.002 2.339l9.363-.034c4.589-.29 8.773-3.638 10.086-8.04 1.343-4.163.029-9.02-3.248-11.924A11.47 11.47 0 0 0 12.004.001zm3.373 2.724c.389-.01.773.031 1.147.112.534.274.906.792.864 1.325-.056.719-.563 1.195-1.322 1.194a2.79 2.79 0 0 0-.69-.086c-1.654-.051-3.036 1.543-2.846 3.167.022.763-.043 1.534.031 2.292.319.438.946.172 1.414.245l.815.008c.012.005.027.008.04.008.679 0 1.237.558 1.237 1.236v.01c0 .678-.558 1.236-1.236 1.236-.029 0-.048.004-.066.012-.745.003-1.488-.001-2.233.002-.063 1.549.189 3.139-.297 4.638-.828 2.592-3.805 4.155-6.405 3.469-.515-.273-.872-.758-.832-1.279.059-.763.629-1.253 1.468-1.188.072.006.108.011.161.019.686.134 1.415.033 2.019-.375 1.08-.618 1.439-1.895 1.338-3.059-.019-.658.041-1.326-.032-1.98-.319-.437-.943-.172-1.411-.245h-.768c-.019-.01-.04-.014-.062-.014-.686 0-1.244-.558-1.244-1.236 0-.695.55-1.241 1.236-1.246.021 0 .042-.006.06-.015h2.219c.057-1.444-.152-2.919.204-4.335.621-2.277 2.828-3.948 5.188-3.916h.001zm.676.05l.125.023-.125-.023zm1.173.268c1.384.52 2.526 1.635 3.115 2.99a78.53 78.53 0 0 1-2.782-2.484 1.69 1.69 0 0 0-.332-.505l-.001-.001zm.431.896c.929.851 1.876 1.68 2.842 2.488-.013-.042-.032-.083-.047-.125a4.9 4.9 0 0 1 .288 1.344c-1.11-.919-2.194-1.87-3.249-2.851l.014-.032c.084-.174.137-.37.153-.581a1.24 1.24 0 0 0 0-.189c0-.018-.002-.036-.004-.055h.001zm.019.188c-.056.494-.056.494 0 0zm-.301.857c1.101 1.008 2.229 1.986 3.383 2.932 0 .068.014.133.012.201.002.262-.017.522-.057.78a75.19 75.19 0 0 1-3.912-3.435 1.49 1.49 0 0 0 .575-.479h-.001zm.504 1.754a79.29 79.29 0 0 0 2.796 2.381c-.054.282-.131.559-.232.827-.749-.612-1.486-1.239-2.211-1.881l.002.053a2.69 2.69 0 0 1-.01.217c.674.586 1.38 1.185 2.147 1.806a5.4 5.4 0 0 1-.364.721c-.668-.547-1.326-1.107-1.974-1.679a3 3 0 0 0-.154-2.444v-.001zm.065 2.643c.617.537 1.264 1.084 1.958 1.648-.145.218-.305.427-.479.624a71.98 71.98 0 0 1-1.907-1.634c.177-.192.318-.407.428-.638zm-.578.782a78.06 78.06 0 0 0 1.921 1.639c-.182.191-.376.369-.582.533-.662-.554-1.316-1.12-1.958-1.697.195-.103.379-.236.548-.406.026-.021.045-.045.07-.067v-.001zm-.824.569a79.62 79.62 0 0 0 2.001 1.724c-.22.163-.46.299-.703.426a74.72 74.72 0 0 1-2.162-1.921c-.023.002-.048.001-.071.003l-.025-.014c.329-.025.653-.099.96-.218zm-9.626.238l-.02.013h-.011l.004.004c-.202.133-.371.314-.489.527l-.431-.409c.31-.072.628-.121.949-.134l-.001-.001zm-.953.134l-.122.031.122-.03v-.001zm-.259.072l.596.567c-.113.325-.111.678.008 1.001l-1.372-1.292c.249-.113.507-.201.77-.277h-.001zm-.986.383l2.044 1.945a2.56 2.56 0 0 0-.792.232l-1.915-1.787a5.73 5.73 0 0 1 .662-.389v-.001zm11.519.195l1.413 1.231a5.15 5.15 0 0 1-.87.328l-.591-.477a1.49 1.49 0 0 0 .048-1.083l.001.001zm-12.362.331l1.876 1.767c-.795.465-1.363 1.319-1.463 2.235a93.3 93.3 0 0 0-2.085-1.904 5.08 5.08 0 0 0-.087.21l2.158 2c.002.272.04.546.134.813a2.48 2.48 0 0 0 .211.511c-.898-.858-1.811-1.699-2.74-2.524.025-.103.038-.208.07-.31.131-.496.351-.956.623-1.381a100.81 100.81 0 0 1 1.919 1.783 2.74 2.74 0 0 1 .103-.222L2.69 13.319c.144-.205.298-.402.47-.587l1.846 1.728c.052-.057.105-.117.161-.171l-1.859-1.715c.178-.175.367-.338.567-.488l.001-.001zm12.188.147l-.026.254.026-.254zm1.661.723l-.049.022.048-.022h.001zm-1.648.087l.422.339a4.66 4.66 0 0 1-.843.099h-.015a1.49 1.49 0 0 0 .438-.438h-.001zM1.829 15.43c1.265 1.138 2.426 2.258 3.623 3.41l.167.159c-.227.103-.422.255-.569.446-1.082-1.047-2.183-2.075-3.303-3.081a5.01 5.01 0 0 1 .082-.934v.001zm-.067 1.235c1.067.978 2.119 1.972 3.157 2.981a1.6 1.6 0 0 0-.191.648 1.47 1.47 0 0 0 0 .159l-2.76-2.597c-.113-.388-.183-.788-.207-1.191h.001zm.362 1.643l2.662 2.53.02.019c.067.187.177.356.312.51-1.385-.537-2.455-1.693-2.995-3.059zm3.212.253a2.98 2.98 0 0 0 .556.343l-.024.005-.017-.014c-.183-.093-.356-.204-.515-.333zm1.003 3.116l.144.024-.144-.024zm.218.038l.263.024-.263-.025v.001z" fill="#fff" fill-rule="nonzero"/></svg>