<?xml version="1.0" encoding="UTF-8" standalone="no"?>
<!DOCTYPE svg PUBLIC "-//W3C//DTD SVG 1.1//EN" "http://www.w3.org/Graphics/SVG/1.1/DTD/svg11.dtd">
<svg width="100%" height="100%" viewBox="0 0 24 24" version="1.1" xmlns="http://www.w3.org/2000/svg" xmlns:xlink="http://www.w3.org/1999/xlink" xml:space="preserve" xmlns:serif="http://www.serif.com/" style="fill-rule:evenodd;clip-rule:evenodd;stroke-linejoin:round;stroke-miterlimit:2;">
    <g transform="matrix(0.958332,0,0,0.958332,0.500543,-0.000932255)">
        <path d="M12.004,0.002C7.29,-0.063 2.744,2.963 0.957,7.318C0.073,9.271 -0.043,11.434 0.012,13.543C0.022,16.209 -0.008,18.877 0.027,21.541C0.14,23.083 1.68,24.155 3.16,23.982C6.417,23.962 9.674,24.025 12.93,23.947C17.719,23.644 22.084,20.151 23.455,15.557C24.856,11.213 23.485,6.145 20.066,3.115C17.861,1.11 14.984,-0.001 12.004,0.002ZM15.524,2.844C15.93,2.834 16.331,2.876 16.721,2.961C17.278,3.247 17.666,3.787 17.623,4.344C17.565,5.094 17.036,5.591 16.244,5.59C16.009,5.53 15.767,5.5 15.524,5.5C13.798,5.447 12.356,7.11 12.554,8.805C12.577,9.601 12.509,10.406 12.586,11.197C12.919,11.654 13.573,11.377 14.061,11.453C14.337,11.452 14.623,11.46 14.911,11.461C14.924,11.466 14.939,11.469 14.953,11.469C14.953,11.469 14.954,11.469 14.954,11.469C15.662,11.469 16.244,12.051 16.244,12.759L16.244,12.769C16.244,13.477 15.662,14.059 14.954,14.059C14.951,14.059 14.948,14.059 14.945,14.059C14.924,14.059 14.904,14.063 14.885,14.072C14.108,14.075 13.332,14.071 12.555,14.074C12.489,15.69 12.752,17.349 12.245,18.914C11.381,21.619 8.275,23.25 5.561,22.534C5.024,22.249 4.651,21.743 4.693,21.199C4.755,20.403 5.349,19.891 6.225,19.959C6.3,19.965 6.338,19.971 6.393,19.979C7.109,20.119 7.87,20.013 8.5,19.588C9.627,18.943 10.002,17.611 9.896,16.396C9.876,15.709 9.939,15.012 9.863,14.33C9.53,13.874 8.879,14.15 8.391,14.074L7.59,14.074C7.57,14.064 7.548,14.059 7.525,14.059C7.522,14.059 7.52,14.059 7.517,14.059C6.809,14.059 6.227,13.477 6.227,12.769C6.227,12.767 6.227,12.766 6.227,12.764C6.227,12.044 6.801,11.474 7.517,11.469C7.539,11.469 7.561,11.463 7.58,11.453L9.896,11.453C9.955,9.946 9.737,8.407 10.109,6.93C10.757,4.554 13.06,2.81 15.523,2.844L15.524,2.844ZM16.229,2.896L16.359,2.92L16.229,2.896ZM17.453,3.176C18.897,3.719 20.089,4.882 20.703,6.296C19.715,5.455 18.747,4.591 17.8,3.704C17.717,3.509 17.6,3.33 17.454,3.177L17.453,3.176ZM17.903,4.111C18.872,4.999 19.861,5.864 20.869,6.707C20.855,6.663 20.836,6.62 20.82,6.577C20.986,7.025 21.085,7.495 21.121,7.979C19.963,7.02 18.832,6.028 17.731,5.004L17.746,4.971C17.834,4.789 17.889,4.585 17.906,4.365C17.911,4.299 17.911,4.234 17.906,4.168C17.906,4.149 17.904,4.13 17.902,4.111L17.903,4.111ZM17.923,4.307C17.865,4.823 17.865,4.823 17.923,4.307ZM17.609,5.201C18.758,6.253 19.935,7.273 21.139,8.261C21.139,8.332 21.154,8.4 21.152,8.471C21.154,8.744 21.134,9.016 21.092,9.285C19.69,8.138 18.329,6.942 17.01,5.701C17.249,5.588 17.456,5.416 17.61,5.201L17.609,5.201ZM18.135,7.031C19.033,7.831 19.991,8.654 21.053,9.516C20.997,9.81 20.916,10.099 20.811,10.379C20.029,9.74 19.26,9.086 18.504,8.416L18.506,8.471C18.506,8.547 18.502,8.623 18.496,8.697C19.199,9.309 19.936,9.934 20.736,10.582C20.627,10.842 20.502,11.094 20.356,11.334C19.659,10.763 18.972,10.179 18.296,9.582C18.607,8.748 18.549,7.82 18.135,7.032L18.135,7.031ZM18.203,9.789C18.847,10.349 19.522,10.92 20.246,11.509C20.095,11.737 19.928,11.955 19.746,12.16C19.073,11.603 18.409,11.035 17.756,10.455C17.941,10.255 18.088,10.03 18.203,9.789ZM17.6,10.605C18.259,11.186 18.928,11.756 19.605,12.315C19.415,12.514 19.213,12.7 18.998,12.871C18.307,12.293 17.625,11.702 16.955,11.1C17.158,10.993 17.351,10.854 17.527,10.676C17.554,10.654 17.574,10.629 17.6,10.606L17.6,10.605ZM16.74,11.199C17.426,11.81 18.122,12.41 18.828,12.998C18.598,13.168 18.348,13.31 18.094,13.443C17.329,12.789 16.577,12.121 15.838,11.438C15.814,11.44 15.788,11.439 15.764,11.441L15.738,11.426C16.081,11.4 16.419,11.323 16.74,11.199ZM6.695,11.447L6.674,11.461L6.662,11.461L6.666,11.465C6.455,11.604 6.279,11.793 6.156,12.015L5.706,11.588C6.029,11.513 6.361,11.462 6.696,11.448L6.695,11.447ZM5.701,11.587L5.574,11.619L5.701,11.588L5.701,11.587ZM5.431,11.662L6.053,12.254C5.935,12.593 5.937,12.962 6.061,13.299C5.593,12.855 5.121,12.406 4.629,11.951C4.889,11.833 5.158,11.741 5.432,11.662L5.431,11.662ZM4.402,12.062C5.122,12.736 5.826,13.409 6.535,14.092C6.248,14.128 5.969,14.209 5.709,14.334C5.069,13.723 4.409,13.104 3.711,12.469C3.931,12.317 4.164,12.184 4.402,12.063L4.402,12.062ZM16.422,12.266C16.895,12.686 17.38,13.112 17.896,13.551C17.604,13.692 17.3,13.807 16.988,13.893L16.371,13.395C16.529,13.038 16.547,12.634 16.421,12.265L16.422,12.266ZM3.522,12.611C4.187,13.225 4.838,13.839 5.48,14.455C4.65,14.94 4.058,15.831 3.953,16.787C3.238,16.114 2.512,15.451 1.777,14.8C1.745,14.872 1.715,14.945 1.686,15.019C2.463,15.718 3.208,16.411 3.938,17.106C3.94,17.39 3.98,17.676 4.078,17.954C4.131,18.144 4.208,18.32 4.298,18.487C3.361,17.592 2.408,16.714 1.439,15.853C1.465,15.745 1.479,15.636 1.512,15.53C1.649,15.012 1.878,14.532 2.162,14.089C2.852,14.711 3.512,15.331 4.164,15.95C4.196,15.871 4.232,15.794 4.271,15.718C3.617,15.103 2.955,14.496 2.285,13.899C2.435,13.685 2.596,13.479 2.775,13.286C3.437,13.888 4.071,14.488 4.701,15.089C4.755,15.029 4.811,14.967 4.869,14.911C4.251,14.326 3.609,13.731 2.929,13.121C3.115,12.938 3.312,12.768 3.521,12.612L3.522,12.611ZM16.24,12.764L16.213,13.029L16.24,12.764ZM17.973,13.518L17.922,13.541L17.972,13.518L17.973,13.518ZM16.253,13.609L16.693,13.963C16.406,14.023 16.111,14.059 15.813,14.066L15.797,14.066C15.98,13.947 16.135,13.792 16.254,13.609L16.253,13.609ZM1.386,16.102C2.706,17.29 3.918,18.458 5.167,19.66L5.341,19.826C5.104,19.933 4.901,20.092 4.747,20.291C3.618,19.198 2.469,18.126 1.3,17.076C1.298,16.749 1.327,16.423 1.386,16.101L1.386,16.102ZM1.316,17.391C2.429,18.412 3.527,19.449 4.61,20.502C4.501,20.702 4.43,20.929 4.411,21.178C4.408,21.233 4.408,21.289 4.411,21.344C3.491,20.46 2.554,19.565 1.531,18.634C1.413,18.229 1.34,17.812 1.315,17.391L1.316,17.391ZM1.694,19.105C2.637,19.981 3.546,20.853 4.472,21.745L4.493,21.765C4.563,21.96 4.678,22.137 4.819,22.297C3.374,21.737 2.257,20.53 1.694,19.105ZM5.046,19.369C5.225,19.509 5.42,19.629 5.626,19.727L5.601,19.732L5.583,19.717C5.392,19.62 5.212,19.504 5.046,19.369ZM6.093,22.621L6.243,22.646L6.093,22.621ZM6.321,22.661C6.321,22.661 6.411,22.668 6.595,22.686C6.504,22.677 6.412,22.668 6.321,22.66L6.321,22.661Z" style="fill:white;fill-rule:nonzero;"/>
    </g>
</svg>
