<svg xmlns="http://www.w3.org/2000/svg" viewBox="0 0 24 24"><path d="M11.753 22.49V21l-.075-.02a1.968 1.968 0 01-.603-.265 1.863 1.863 0 01-.603-.745 1.755 1.755 0 01-.064-1.088.57.57 0 00.031-.17c-.006-.005-.784-.45-1.729-.988l-1.717-.978-.109.103c-.24.228-.49.374-.763.447a2.039 2.039 0 01-.74.025 1.717 1.717 0 01-.864-.445l-.136-.13-1.294.747-1.294.747-.14-.247a2.651 2.651 0 01-.133-.251c.004-.003.586-.34 1.294-.748 1.154-.665 1.286-.746 1.276-.779-.134-.467-.12-.816.046-1.215a1.686 1.686 0 011.082-.955l.127-.038v-2.01c0-1.591-.005-2.01-.022-2.015-.373-.108-.622-.247-.84-.468a1.709 1.709 0 01-.48-1.055c-.015-.16.014-.431.063-.59.02-.062.029-.12.02-.128-.007-.007-.579-.34-1.27-.737a87.67 87.67 0 01-1.276-.743c-.017-.016.008-.073.112-.257l.138-.242c.003-.003.587.331 1.3.742l1.295.748.133-.13c.214-.206.42-.326.698-.407.594-.172 1.186-.023 1.648.415l.127.121 1.051-.599a643.868 643.868 0 002.39-1.364c.016-.01.01-.052-.025-.17-.041-.141-.047-.19-.048-.448-.002-.335.024-.454.155-.729.093-.194.166-.295.33-.462.212-.213.476-.367.768-.445l.141-.037V0h.561v2.998l.12.03c.526.132.996.55 1.179 1.049.081.221.096.313.096.584 0 .222-.007.286-.041.404-.023.077-.042.16-.043.182-.002.044-.076 0 2.734 1.597l.718.408.134-.128a1.59 1.59 0 011.179-.474c.447.002.829.158 1.16.474l.134.127 1.28-.739c.703-.406 1.286-.74 1.295-.742.009-.001.078.104.153.234.104.182.132.242.116.257-.012.01-.579.34-1.26.732-.68.393-1.252.724-1.269.736-.03.022-.03.029.005.154A1.68 1.68 0 0118.88 9.94l-.15.048-.004 2.01-.004 2.01.127.038a1.703 1.703 0 011.164 1.195 1.85 1.85 0 01-.01.872c-.02.073-.03.138-.023.145.008.008.588.344 1.288.747l1.279.738a.708.708 0 01-.066.13l-.142.245-.07.121-1.291-.746-1.292-.745-.14.133c-.246.23-.523.373-.86.441-.198.04-.567.027-.753-.027a1.747 1.747 0 01-.742-.436l-.117-.113-.34.193-2.947 1.676-.186.106.04.128a1.667 1.667 0 01-.605 1.832 1.95 1.95 0 01-.582.28l-.131.034-.005 1.494-.004 1.494h-.561zm-.89-4.373a1.65 1.65 0 011.076-.467c.497-.026.954.149 1.288.493.043.045.085.08.094.08.009 0 .794-.443 1.745-.985 1.552-.885 1.727-.99 1.718-1.023-.137-.476-.118-.852.061-1.236.103-.219.21-.37.383-.532.233-.221.495-.362.797-.428l.136-.03v-3.981l-.04-.009a12.413 12.413 0 00-.122-.027c-.465-.099-.903-.448-1.132-.904a1.707 1.707 0 01-.107-1.2c.035-.112.035-.116.003-.137-.018-.012-.799-.46-1.736-.995l-1.703-.973-.114.108a1.675 1.675 0 01-2.344.01l-.122-.118-1.696.968c-.932.532-1.713.98-1.735.994l-.04.026.039.132c.054.188.067.571.026.774a1.676 1.676 0 01-.456.852c-.264.265-.515.397-.927.488l-.048.011v3.98l.162.038c.592.137 1.07.6 1.246 1.206.035.12.04.179.04.437 0 .26-.005.317-.04.437a.583.583 0 00-.031.147c.017.017 3.442 1.97 3.455 1.97a.802.802 0 00.123-.106z"/></svg>