<?xml version="1.0" encoding="UTF-8" standalone="no"?>
<svg
   xmlns:dc="http://purl.org/dc/elements/1.1/"
   xmlns:cc="http://creativecommons.org/ns#"
   xmlns:rdf="http://www.w3.org/1999/02/22-rdf-syntax-ns#"
   xmlns:svg="http://www.w3.org/2000/svg"
   xmlns="http://www.w3.org/2000/svg"
   xmlns:sodipodi="http://sodipodi.sourceforge.net/DTD/sodipodi-0.dtd"
   xmlns:inkscape="http://www.inkscape.org/namespaces/inkscape"
   width="24"
   height="9.1339979"
   viewBox="0 0 6.3499763 2.4165781"
   version="1.1"
   id="svg835"
   sodipodi:docname="hma.svg"
   inkscape:version="1.0.1 (c497b03c, 2020-09-10)">
  <metadata
     id="metadata841">
    <rdf:RDF>
      <cc:Work
         rdf:about="">
        <dc:format>image/svg+xml</dc:format>
        <dc:type
           rdf:resource="http://purl.org/dc/dcmitype/StillImage" />
      </cc:Work>
    </rdf:RDF>
  </metadata>
  <defs
     id="defs839" />
  <sodipodi:namedview
     pagecolor="#ffffff"
     bordercolor="#666666"
     borderopacity="1"
     objecttolerance="10"
     gridtolerance="10"
     guidetolerance="10"
     inkscape:pageopacity="0"
     inkscape:pageshadow="2"
     inkscape:window-width="1792"
     inkscape:window-height="1016"
     id="namedview837"
     showgrid="false"
     inkscape:zoom="5.5820894"
     inkscape:cx="28.624797"
     inkscape:cy="21.899501"
     inkscape:window-x="0"
     inkscape:window-y="23"
     inkscape:window-maximized="0"
     inkscape:current-layer="svg835" />
  <path
     d="M 0,1.2078625 V 0.00136725 H 0.53339788 V 0.91549903 H 1.1178601 V 0.00110267 H 1.6509934 V 2.4146223 H 1.1178601 V 1.3967742 l -0.28574883,0.00714 -0.28574886,0.00714 -0.007144,0.501648 -0.006879,0.5019126 H 0 Z m 2.0830563,0 V 0.00136725 h 0.6839452 l 0.0254,0.09524962 c 0.013758,0.05212271 0.1015995,0.40163591 0.194997,0.77601983 0.093398,0.3746486 0.1780639,0.672039 0.188118,0.660662 0.010054,-0.011377 0.09525,-0.340782 0.1889118,-0.73183463 C 3.458355,0.41014688 3.5406401,0.07015865 3.5475192,0.04555249 3.5586317,0.00586515 3.5991128,0.00110267 3.9266656,0.00110267 H 4.2933767 V 2.4146223 H 3.7536288 l 0.010319,-0.8252322 c 0.00529,-0.4537586 0.00265,-0.8167655 -0.00661,-0.80644679 -0.009,0.0100541 -0.1047746,0.38179229 -0.2124596,0.82602589 L 3.3488179,2.4164743 3.1564666,2.4093306 2.9643799,2.4019223 2.7714994,1.5827756 2.5783543,0.76336422 2.5717398,1.588861 2.5651252,2.4143577 H 2.0830563 Z m 2.4386549,1.1747453 c 0,-0.017198 0.1283224,-0.5606498 0.2854842,-1.2072889 L 5.0926797,-2.2024053e-4 5.4347846,0.00692348 5.7768895,0.01380262 6.0626384,1.1951625 a 116.03071,116.03071 0 0 1 0.2873363,1.2004098 c 5.292e-4,0.010583 -0.1243537,0.01905 -0.2778114,0.01905 -0.268551,0 -0.2793989,-0.00212 -0.2923634,-0.05715 A 25.655221,25.655221 0 0 1 5.7329688,2.1479233 L 5.6993669,1.9952594 5.4197034,1.9881156 5.14004,1.9809719 5.0945318,2.1979294 5.0490236,2.4146223 H 4.7854997 c -0.1936742,0 -0.263524,-0.00847 -0.2637885,-0.03175 z M 5.614436,1.5187467 c 0,-0.0508 -0.1775347,-0.96678372 -0.1897055,-0.97895451 -0.00609,-0.006085 -0.017462,0.0158749 -0.0254,0.0489477 C 5.3829265,0.65753131 5.207773,1.5295945 5.207773,1.5422945 c 0,0.00476 0.091545,0.00847 0.2034638,0.00847 0.146314,0 0.2031992,-0.009 0.2031992,-0.03175 z"
     id="path833"
     style="stroke-width:0.999999" />
</svg>
