<svg xmlns="http://www.w3.org/2000/svg" viewBox="0 0 24 24"><path d="M1.028 0v.974H2.23V0H1.028zm4.298 1.318v1.318H6.93V1.317H5.326zm-2.465.057v.974h1.204v-.974H2.86zm-.057 1.948v1.319H4.41V3.323H2.804zm2.579.115v1.891h2.292V3.438H5.383zm3.667.057V5.33h2.178V3.495H9.05zm-.4 2.864v3.096H12.36l.04-1.275c.023-.701.032-1.391.021-1.533l-.02-.258-1.876-.015-1.877-.015zm-3.192.001l-.038.645c-.02.355-.037.755-.037.889v.243h2.16l.037-.559c.02-.307.037-.707.038-.888v-.33h-2.16zm9.683.013c-.592-.003-.966 0-.978.012-.023.023-.05.72-.06 1.547l-.02 1.505.874.037c.48.021 1.688.038 2.683.039 1.867 0 2.126.026 2.426.239.464.33.643 1.188.373 1.78-.158.344-.414.573-.738.661-.13.035-1.227.045-2.937.026l-2.729-.03v3.166l1.218.016c.67.01 2.12.022 3.223.03 2.29.013 2.52-.014 3.278-.388 1.004-.495 1.745-1.46 2.088-2.722.18-.66.18-2.087.002-2.743-.339-1.242-1.098-2.222-2.112-2.725-.699-.346-.783-.355-4.302-.42a184 184 0 00-2.29-.03zm-2.767 5.892l-.187.033c-2.079.362-3.318 1.592-3.537 3.509-.032.273-.057 1.61-.058 2.974v2.478h3.706l.038-2.106c.02-1.158.038-3.182.038-4.497v-2.39zm-8.285 6.263c-.017-.012-.155.008-.404.065-1.119.257-2.468.811-3.072 1.26-1.031.77-.747 1.72.741 2.482 1.643.84 4.167 1.37 7.581 1.588a30.34 30.34 0 003.856.029c3.517-.208 5.85-.66 7.52-1.461 1.883-.902 1.941-2.005.155-2.938-.626-.328-1.237-.558-2.157-.813-.752-.209-.913-.221-.32-.024.977.324 1.765.815 1.982 1.234.17.33.087.67-.244.992-1.016.987-4.068 1.643-8.06 1.732-4.31.097-8.477-.698-9.612-1.834-.486-.486-.462-.922.075-1.385.292-.252 1.138-.67 1.635-.809.236-.065.341-.107.324-.118z" stroke-width="4.617"/></svg>