<?xml version="1.0" encoding="UTF-8" standalone="no"?>
<svg
   xmlns:dc="http://purl.org/dc/elements/1.1/"
   xmlns:cc="http://creativecommons.org/ns#"
   xmlns:rdf="http://www.w3.org/1999/02/22-rdf-syntax-ns#"
   xmlns:svg="http://www.w3.org/2000/svg"
   xmlns="http://www.w3.org/2000/svg"
   xmlns:xlink="http://www.w3.org/1999/xlink"
   xmlns:sodipodi="http://sodipodi.sourceforge.net/DTD/sodipodi-0.dtd"
   xmlns:inkscape="http://www.inkscape.org/namespaces/inkscape"
   viewbox="0 0 24 24"
   version="1.1"
   id="svg841"
   sodipodi:docname="ivacy.svg"
   width="23.610098"
   height="24"
   inkscape:version="1.0.1 (c497b03c, 2020-09-10)">
  <metadata
     id="metadata845">
    <rdf:RDF>
      <cc:Work
         rdf:about="">
        <dc:format>image/svg+xml</dc:format>
        <dc:type
           rdf:resource="http://purl.org/dc/dcmitype/StillImage" />
      </cc:Work>
    </rdf:RDF>
  </metadata>
  <sodipodi:namedview
     pagecolor="#ffffff"
     bordercolor="#666666"
     borderopacity="1"
     objecttolerance="10"
     gridtolerance="10"
     guidetolerance="10"
     inkscape:pageopacity="0"
     inkscape:pageshadow="2"
     inkscape:window-width="1792"
     inkscape:window-height="1016"
     id="namedview843"
     showgrid="false"
     inkscape:zoom="1.5699113"
     inkscape:cx="124.74641"
     inkscape:cy="30.533638"
     inkscape:window-x="0"
     inkscape:window-y="23"
     inkscape:window-maximized="0"
     inkscape:current-layer="svg841" />
  <defs
     id="defs834">
    <path
       id="a"
       d="M 0,0 H 668.683 V 679.724 H 0 Z" />
  </defs>
  <clipPath
     id="b">
    <use
       xlink:href="#a"
       overflow="visible"
       width="100%"
       height="100%"
       id="use836"
       x="0"
       y="0" />
  </clipPath>
  <path
     clip-path="url(#b)"
     d="M 334.31,-0.002 C 158.91,-0.001 23.39,92.213 23.39,92.213 15.56,97.23 9.264,102.605 5.151,108.947 l -0.054,0.063 0.004,0.004 c -3.333,5.148 -5.232,10.904 -5.092,17.734 7.76,382.465 188.45,487.815 319.125,549.565 a 35.637,35.637 0 0 0 30.431,0 c 130.652,-61.75 311.352,-167.1 319.112,-549.565 0.14,-6.832 -1.762,-12.59 -5.08,-17.738 -39.452,35.627 -97.694,83.703 -179.469,113.121 1.763,2.517 2.811,5.393 2.74,8.719 -3.536,175.02 -85.962,223.245 -145.578,251.502 a 16.117,16.117 0 0 1 -6.947,1.535 16.24,16.24 0 0 1 -6.957,-1.535 C 267.779,454.095 185.366,405.871 181.829,230.85 c -0.079,-3.326 0.96,-6.2 2.727,-8.717 h 0.002 l 0.203,-0.328 c 1.932,-2.617 4.643,-4.838 7.728,-6.77 0,0 61.81,-42.18 141.823,-42.18 h 0.06 c 80.013,0 141.824,42.178 141.824,42.178 3.102,1.932 5.796,4.155 7.729,6.772 l 0.193,0.326 c 81.774,-29.418 140.026,-77.494 179.47,-113.121 l -0.038,-0.065 c -4.113,-6.342 -10.427,-11.717 -18.264,-16.734 0,0 -135.51,-92.213 -310.914,-92.213 h -0.03 z"
     id="path839"
     transform="matrix(0.03530845,0,0,0.03530845,-6.2351737e-5,0)"
     style="stroke-width:28.3218" />
</svg>
