<?xml version="1.0" encoding="UTF-8" standalone="no"?>
<!DOCTYPE svg PUBLIC "-//W3C//DTD SVG 1.1//EN" "http://www.w3.org/Graphics/SVG/1.1/DTD/svg11.dtd">
<svg width="100%" height="100%" viewBox="0 0 590 561" version="1.1" xmlns="http://www.w3.org/2000/svg" xmlns:xlink="http://www.w3.org/1999/xlink" xml:space="preserve" xmlns:serif="http://www.serif.com/" style="fill-rule:evenodd;clip-rule:evenodd;stroke-linejoin:round;stroke-miterlimit:2;">
    <path d="M184.914,559.372C181.845,558.362 135.95,529.298 96.586,503.438C83.384,494.764 81.532,492.667 78.754,483.256C77.152,477.832 76.827,453.62 78.233,444.527C80.326,431.007 85.357,410.42 90.006,396.383C91.136,392.966 91.952,390.071 91.82,389.954C91.695,389.829 87.443,388.646 82.379,387.32C64.358,382.595 48.677,376.737 33.974,369.253C22.08,363.195 15.817,358.89 8.81,351.966C-0.393,342.872 0.37,348.621 0.076,286.062C-0.193,228.084 0.121,219.969 2.797,215.396C6.939,208.328 21.404,197.084 35.074,190.3C47.611,184.083 65.885,177.48 83.414,172.838C88.086,171.599 91.907,170.287 91.907,169.921C91.907,169.554 90.539,164.901 88.872,159.587C79.658,130.22 75.946,107.551 77.295,88.902C78.089,77.889 80.183,71.433 84.726,65.946C86.117,64.267 95.036,57.94 109.248,48.56C133.784,32.364 171.406,8.168 179.248,3.538L184.245,0.59L191.248,0.665C188.176,-0.072 206.896,2.687 218.922,8.512C237.835,17.673 259.465,34.114 283.409,57.521L294.596,68.455L306.759,56.512C330.921,32.791 351.13,17.356 369.59,8.504C383.241,1.958 394.686,-0.99 401.459,0.295C405.404,1.043 415.598,7.113 454.924,32.141C484.952,51.254 499.42,60.779 502.032,63.149C505.6,66.388 508.608,71.116 510.082,75.799C511.47,80.213 511.587,81.82 511.572,96.257C511.553,113.277 510.865,119.381 507.214,134.794C505.351,142.666 500.777,158.333 497.973,166.455C496.99,169.305 496.85,170.385 497.447,170.582C497.893,170.726 503.204,172.207 509.255,173.87C532.367,180.22 550.917,187.692 565.086,196.355C575.151,202.508 583.534,210.309 586.44,216.224L588.255,219.924L588.799,267.591C589.396,319.583 588.912,339.24 586.936,344.085C585.45,347.725 576.58,356.172 568.741,361.418C561.023,366.581 549.129,372.576 537.484,377.179C528.905,380.569 508.911,386.836 500.048,388.915C497.277,389.561 496.593,389.973 496.907,390.789C498.192,394.145 504.133,413.848 505.592,419.604C512.543,447.025 513.941,472.306 509.259,485.909C507.331,491.518 504.447,495.123 498.419,499.455C488.354,506.692 412.96,555.033 407.124,557.988C392.698,565.302 363.754,553.075 330.861,525.779C321.393,517.925 303.845,501.59 298.364,495.535L294.611,491.389L282.758,502.992C250.697,534.374 224.444,552.383 202.254,558.223C195.3,560.048 188.365,560.509 184.914,559.375L184.914,559.372ZM203.105,547.681C223.843,540.716 246.683,524.418 276.125,495.592L288.042,483.924L279.531,474.925C268.117,462.854 259.545,451.98 245.095,431.257C232.154,412.699 224.833,402.683 220.124,397.112L217.187,393.635L210.652,401.478C197.364,417.442 169.588,445.551 153.256,459.569C145.561,466.168 131.396,476.898 124.589,481.283C119.018,484.869 106.167,491.623 102.622,492.829C100.649,493.502 100.46,493.74 101.288,494.519C102.289,495.456 130.98,514.165 162.252,534.272C186.176,549.654 187.794,550.486 192.923,550.078C195.122,549.904 199.703,548.827 203.105,547.681ZM406.958,546.725C411.803,543.853 451.515,518.447 482.564,498.347L488.876,494.265L485.897,493.131C474.366,488.766 453.045,475.806 439.239,464.774C425.432,453.737 403.696,432.326 383.842,410.212C369.299,394.013 366.94,390.986 317.285,324.757L286.421,283.59L275.672,283.59C258.225,283.601 223.325,285.503 202.587,287.581C179.43,289.902 163.507,291.784 163.004,292.268C162.324,292.914 161.662,291.777 178.145,318.256C193.183,342.415 217.04,378.755 225.139,389.84C248.746,422.144 265.664,444.122 278.609,459.286C294.105,477.439 313.845,497.837 328.99,511.341C354.736,534.306 382.243,550.036 396.957,550.21C400.672,550.255 401.462,549.979 406.958,546.725ZM97.316,484.99C102.762,483.074 107.641,480.757 114.032,477.061C134.763,465.057 153.491,448.934 182.351,418.255C192.137,407.858 194.348,405.17 193.418,404.823C192.775,404.584 187.903,404.044 182.589,403.621C161.927,401.973 123.761,396.421 108.374,392.83C105.143,392.074 102.403,391.564 102.289,391.692C101.715,392.324 95.717,411.686 93.646,419.589C86.06,448.495 84.537,471.974 89.473,483.758C90.709,486.706 91.896,486.895 97.316,484.99ZM500.07,481.422C501.42,477.125 501.586,475.262 501.563,464.592C501.548,457.989 501.148,450.192 500.671,447.255C497.168,425.621 489.658,396.326 485.512,388.117C484.642,386.39 482.004,382.04 479.657,378.449C472.378,367.318 457.018,339.867 441.59,310.436C437.924,303.444 434.741,297.831 434.518,297.968C434.291,298.107 432.062,301.603 429.552,305.738C421.649,318.778 400.487,351.905 388.359,370.225L376.688,387.856L379.473,391.182C393.571,408.039 425.685,441.019 437.587,450.861C457.203,467.087 475.798,478.83 490.557,484.321C498.169,487.156 498.279,487.118 500.07,481.422ZM207.421,391.303C209.53,388.945 211.253,386.692 211.253,386.292C211.253,385.895 206.503,378.449 200.697,369.748C188.225,351.059 169.981,322.391 163.688,311.589C162.005,308.69 160.306,305.801 158.589,302.922C157.695,301.455 156.812,299.981 155.94,298.5C154.825,296.618 153.54,294.789 153.083,294.43C150.569,292.465 88.033,305.156 63.617,312.587C42.036,319.152 23.327,328.098 12.291,337.131L10.326,338.737L12.495,341.474C15.216,344.913 21.706,350.567 26.922,354.052C40.403,363.059 59.584,370.845 86.589,378.268C93.37,380.135 99.791,382.092 100.857,382.625C101.923,383.154 103.571,383.593 104.523,383.597C105.476,383.597 110.242,384.345 115.11,385.248C136.097,389.149 185.991,395.226 199.253,395.498L203.589,395.589L207.421,391.303ZM507.255,376.892C529.041,370.164 552.383,360.05 564.145,352.242C569.746,348.523 577.929,341.258 577.914,340.015C577.906,339.221 567.085,331.307 558.589,325.887C545.387,317.462 515.884,307.945 481.248,300.938C466.894,298.036 443.842,294.116 443.445,294.513C443.306,294.649 447.217,301.774 452.131,310.342C463.073,329.513 473.776,348.819 484.238,368.256C491.582,381.968 490.947,381.144 493.819,380.679C495.161,380.463 501.204,378.759 507.255,376.892ZM382.98,361.759C397.275,339.406 413.818,312.859 423.592,296.592C427.56,289.989 431.283,283.991 431.869,283.258C432.458,282.524 433.426,281.024 434.016,279.924C434.609,278.824 438.449,271.806 442.553,264.326C461.765,229.312 479.567,191.131 486.944,169.104C498.298,135.224 502.244,116.27 502.251,95.592C502.255,85.399 502.07,83.331 500.781,79.257C498.808,73.006 496.71,70.965 482.923,61.905C463.435,49.093 411.716,16.256 411.036,16.256C410.904,16.256 410.609,22.33 410.378,29.756C409.895,45.328 408.666,53.741 404.323,71.256C394.361,111.444 374.745,157.252 344.69,210.501C340.48,217.959 334.72,226.92 330.547,232.502C325.973,238.629 321.417,244.77 316.88,250.924C312.095,257.326 307.154,263.612 302.064,269.776C296.576,276.375 294.052,279.916 294.399,280.502C295.987,283.159 370.179,380.256 370.618,380.256C370.909,380.256 376.476,371.933 382.977,361.759L382.98,361.759ZM579.138,275.982L578.851,222.373L576.912,219.576C569.33,208.634 548.445,196.597 522.207,188.047C512.199,184.789 493.173,179.453 492.818,179.808C492.697,179.925 490.535,185.099 488.01,191.305C478.882,213.737 464.154,243.981 449.073,271.258C445.218,278.223 442.145,284.01 442.24,284.112C442.334,284.214 448.676,285.34 456.334,286.614C500.048,293.878 538.917,304.483 553.608,313.157C556.181,314.681 559.334,316.457 560.607,317.111C561.881,317.765 566.371,320.826 570.589,323.914C574.807,326.994 578.519,329.538 578.84,329.557C579.176,329.576 579.305,306.555 579.142,275.982L579.138,275.982ZM28.256,316.438C55.272,302.828 94.235,292.801 155.672,283.651C200.331,276.999 243.387,273.642 273.389,274.466L287.184,274.848L290.435,271.053C306.044,252.798 320.01,233.455 331.919,213.589C343.53,194.219 359.313,164.093 358.353,163.133C357.843,162.622 255.765,162.346 233.254,162.792C221.779,163.019 187.949,165.514 167.921,167.611C151.895,169.316 135.926,171.522 120.038,174.225C101.806,177.242 105.064,177.219 86.922,182.023C50.653,191.589 24.155,204.666 12.729,218.639L9.921,222.074L9.921,327.531L15.421,323.835C18.444,321.797 24.219,318.468 28.256,316.438ZM141.022,161.98C161.288,159.024 179.77,157.097 208.502,154.935C213.037,154.595 216.858,154.209 216.987,154.077C217.119,153.948 215.12,148.91 212.55,142.882C195.451,102.822 184.528,70.262 180.25,46.591C179.653,43.291 178.991,35.101 178.78,28.388C178.489,19.11 178.201,16.264 177.574,16.502C176.553,16.895 108.348,60.39 100.555,65.62C94.651,69.581 91.401,72.752 89.526,76.377C86.861,81.525 85.879,95.743 87.285,108.783C88.857,123.372 94.938,151.416 101.874,167.604C115.079,165.548 129.615,163.654 141.022,161.98ZM368.437,143.396C379.118,120.129 390.558,89.333 395.234,71.26C400.23,51.954 402.328,30.72 400.82,14.755L400.397,10.258L397.267,10.258C386.254,10.258 365.901,20.236 345.744,35.528C316.668,57.578 280.941,95.66 245.613,142.254L237.778,152.591L288.016,152.932C315.648,153.117 343.991,153.34 351.009,153.43L363.762,153.589L368.437,143.396ZM241.452,133.191C254.907,115.223 266.072,101.307 277.244,88.593L285.85,78.785L288.012,76.313L277.135,65.707C246.067,35.426 224.497,19.998 203.316,12.907C199.423,11.603 195.508,10.764 192.998,10.696L188.954,10.59L188.391,14.589C187.56,20.531 188.323,36.117 189.907,45.589C193.731,68.448 203.161,97.331 217.762,130.923C224.777,147.062 227.207,151.919 227.891,151.17C228.186,150.853 234.286,142.761 241.452,133.187L241.452,133.191Z" style="fill:white;fill-rule:nonzero;"/>
</svg>
