<?xml version="1.0" encoding="UTF-8" standalone="no"?>
<!DOCTYPE svg PUBLIC "-//W3C//DTD SVG 1.1//EN" "http://www.w3.org/Graphics/SVG/1.1/DTD/svg11.dtd">
<svg width="100%" height="100%" viewBox="0 0 36 36" version="1.1" xmlns="http://www.w3.org/2000/svg" xmlns:xlink="http://www.w3.org/1999/xlink" xml:space="preserve" xmlns:serif="http://www.serif.com/" style="fill-rule:evenodd;clip-rule:evenodd;stroke-linejoin:round;stroke-miterlimit:2;">
    <g transform="matrix(1.34139,0,0,1.34139,48.5891,-596.996)">
        <g id="draw">
            <g id="g5083">
                <g id="path1717" transform="matrix(0.0759414,0,0,0.0759414,-20.8974,424.622)">
                    <path d="M-160.107,324.983L-160.107,355.125L65.537,580.778L95.679,580.778L95.679,550.635L-129.965,324.983L-160.107,324.983Z" style="fill:rgb(255,167,38);fill-rule:nonzero;"/>
                </g>
                <g id="path1719" transform="matrix(0.0759414,0,0,0.0759414,-20.8974,424.622)">
                    <path d="M38.808,310.826C21.529,311.466 5.131,318.614 -7.098,330.838C-33.864,357.601 -33.864,400.996 -7.098,427.759C19.664,454.525 63.057,454.525 89.819,427.759C116.585,400.996 116.585,357.601 89.819,330.838C76.338,317.363 57.855,310.112 38.808,310.826ZM68.672,358.344C80.243,358.347 89.623,367.727 89.626,379.299C89.623,390.871 80.243,400.251 68.672,400.254C57.1,400.251 47.721,390.871 47.718,379.299C47.721,367.727 57.1,358.347 68.672,358.344ZM-72.403,462.927L-160.107,550.634L-160.107,580.776L-129.965,580.776L-97.881,548.691L-97.881,548.801L-67.74,548.801L-67.74,518.66L-67.853,518.66L-67.74,518.55L-67.74,518.66L-37.488,518.66L-37.488,497.844L-72.403,462.927Z" style="fill:white;fill-rule:nonzero;"/>
                </g>
            </g>
        </g>
    </g>
</svg>
