<svg xmlns="http://www.w3.org/2000/svg" fill="#fff" width="24" height="5.625" preserveAspectRatio="xMidYMid"><path d="M0 5.534h.941V3.086c0-.483.318-.834.771-.834.439 0 .71.276.71.72v2.562h.915v-2.47c0-.48.31-.812.764-.812.46 0 .718.28.718.77v2.512h.94V2.792c0-.8-.517-1.332-1.307-1.332-.578 0-1.054.31-1.247.804h-.023c-.147-.514-.552-.804-1.118-.804-.545 0-.968.306-1.142.77H.903v-.695H0zm7.82-.645c-.408 0-.68-.207-.68-.535 0-.317.26-.521.714-.551l.926-.057v.306c0 .483-.427.837-.96.837zm-.284.71c.514 0 1.017-.268 1.248-.702h.018v.637h.908V2.78c0-.803-.647-1.328-1.64-1.328-1.021 0-1.66.536-1.701 1.283h.873c.06-.332.344-.547.79-.547.464 0 .748.242.748.66v.287l-1.058.06c-.976.06-1.524.487-1.524 1.196 0 .72.564 1.208 1.338 1.208zm6.305-2.638c-.065-.84-.719-1.509-1.777-1.509-1.164 0-1.92.804-1.92 2.083 0 1.298.756 2.079 1.928 2.079 1.005 0 1.697-.589 1.772-1.483h-.888c-.087.453-.397.724-.873.724-.597 0-.982-.483-.982-1.32 0-.823.381-1.32.975-1.32.502 0 .8.32.876.746h.889zM16.747 0c-1.591 0-2.589 1.083-2.589 2.814 0 1.732.998 2.811 2.59 2.811 1.586 0 2.584-1.079 2.584-2.81 0-1.732-.997-2.815-2.585-2.815zm0 .83c.971 0 1.591.77 1.591 1.984 0 1.211-.62 1.981-1.59 1.981-.976 0-1.592-.77-1.592-1.98 0-1.215.616-1.985 1.591-1.985zm2.982 3.173c.042 1.003.866 1.622 2.12 1.622 1.32 0 2.151-.649 2.151-1.683 0-.81-.469-1.267-1.576-1.52l-.627-.143c-.67-.159-.945-.37-.945-.732 0-.453.415-.755 1.032-.755.623 0 1.05.306 1.096.815h.93C23.886.65 23.092 0 21.89 0c-1.187 0-2.03.653-2.03 1.618 0 .778.477 1.26 1.482 1.49l.707.167c.688.162.967.388.967.78 0 .453-.457.778-1.115.778-.665 0-1.167-.328-1.228-.83h-.945z" stroke-width="21.333"/></svg>