<svg xmlns="http://www.w3.org/2000/svg" width="321.861" height="215" viewBox="0 0 85.159 56.885"><path d="M79.338 28.443V0h5.821V56.885h-5.82zm-73.633 6.1c-3.678-1.312-5.967-4.882-5.68-8.859.157-2.187 1.05-4.01 2.712-5.544 1.894-1.745 3.283-2.276 5.957-2.274 1.95 0 2.438.1 3.666.743 1.963 1.029 3.59 2.783 4.281 4.616.463 1.226.55 1.916.46 3.63-.18 3.362-1.752 5.76-4.767 7.267-1.377.688-1.895.801-3.616.791-1.104-.006-2.46-.172-3.013-.37zm27.933-.056c-1.37-.484-3.568-2.417-4.429-3.892-.35-.602-.78-1.868-.952-2.814-1.239-6.786 6.048-12.208 12.298-9.15 4.097 2.004 5.989 7.338 4.026 11.35-.902 1.843-3.15 3.945-4.836 4.52-1.547.526-4.6.52-6.107-.014zm27.532-.344c-1.79-.905-3.187-2.283-4.091-4.035-.873-1.692-.992-4.89-.254-6.846.681-1.805 2.39-3.654 4.306-4.658 1.217-.638 1.709-.737 3.655-.738 1.783-.001 2.523.124 3.572.604 1.665.762 3.409 2.438 4.32 4.152.61 1.148.703 1.638.705 3.704.003 2.809-.585 4.305-2.406 6.127-1.764 1.763-3.027 2.288-5.794 2.41-2.243.098-2.476.057-4.013-.72z"/></svg>