<svg xmlns="http://www.w3.org/2000/svg" fill="#fff" viewBox="0 0 24 24"><path d="M10.468 23.886a12.032 12.032 0 01-6.678-3.153c-1.113-1.046-1.868-2.076-2.543-3.463-1.623-3.337-1.663-7.045-.112-10.357C4.145.487 12.05-1.94 18.13 1.695c5.279 3.157 7.324 9.812 4.722 15.367-1.776 3.793-5.292 6.321-9.506 6.837-1.132.138-1.711.136-2.88-.013zm4.446-.617c4.186-1.08 7.369-4.339 8.44-8.64.35-1.41.35-3.874 0-5.283-.544-2.18-1.58-4.023-3.137-5.582-1.565-1.567-3.382-2.588-5.582-3.136-1.409-.35-3.873-.35-5.282 0-4.297 1.07-7.521 4.216-8.651 8.44-.27 1.008-.31 1.387-.31 2.92 0 1.517.041 1.915.3 2.877 1.212 4.528 4.693 7.747 9.325 8.624 1.344.254 3.42.161 4.897-.22zm-4.734-.9c-.995-.178-2.492-.733-3.495-1.298-1.252-.705-3.07-2.523-3.775-3.775-1.059-1.881-1.497-3.745-1.385-5.895.132-2.528 1.043-4.683 2.768-6.545C9.945-1.25 20.08 1.359 22.195 9.464c.11.42.23 1.344.267 2.054.256 4.909-2.897 9.246-7.73 10.63-.995.285-3.507.406-4.552.22zm3.731-1.94c.971-.248 2.029-.799 2.71-1.411.653-.587.726-.832.348-1.172-.314-.283-.89-1.114-1.034-1.494-.089-.232-.054-.366.176-.678.254-.344.267-.409.112-.564-.154-.155-.223-.151-.598.027-.68.325-1.892.284-2.712-.091-.37-.17-.86-.452-1.088-.627-.227-.175-.541-.345-.698-.377l-.285-.059.298-.159c.275-.147.36-.122 1.089.318 1.042.629 1.84.89 2.7.885.826-.005.991-.083 2.125-1.002a12.615 12.615 0 002.604-2.854c.506-.758.55-.796.626-.528.061.221.083.166.092-.24l.013-.528.233.352c.243.366.323.325.117-.06-.094-.175-.057-.283.176-.516.162-.161.294-.398.294-.526 0-.299-.56-.742-.83-.656-.137.043-.226-.006-.262-.145-.043-.164-.058-.152-.068.054-.016.316-.099.33-.391.065-.163-.147-.203-.155-.155-.03.056.145-.21.164-1.794.13L15.85 8.5l-.86.433c-.474.239-1.27.767-1.77 1.174-1.784 1.451-2.766 2.027-4.314 2.528-.946.306-1.52.725-1.167.853.097.035.027.18-.206.43l-.352.376.352-.088.352-.088-.329.431c-.315.414-.318.431-.08.431h.25l-.251.352c-.21.294-.22.352-.066.352.152 0 .132.086-.105.462-.201.318-.247.476-.148.51.089.03-.068.322-.415.772-.307.397-.558.768-.558.823 0 .056.258.342.572.636 1.642 1.536 4.642 2.182 7.156 1.54zM8.88 12.052c1.711-.61 2.252-.918 3.77-2.142a14.931 14.931 0 012.539-1.67c.697-.354 1.174-.646 1.061-.65-.172-.004-.205-.122-.208-.74-.003-.913-.27-1.527-.915-2.11-.758-.683-.943-.682-1.877.01l-.802.595-.52-.26c-.409-.204-.72-.258-1.46-.256-.804.002-1.05.055-1.722.371-.959.45-1.713 1.126-2.097 1.878-.242.473-.288.728-.283 1.563.005.9.05 1.095.453 1.98.246.541.475 1.189.509 1.439.034.25.104.455.158.455.053 0 .68-.208 1.394-.463z"/></svg>