<svg xmlns="http://www.w3.org/2000/svg" width="68.053" height="90.709" viewBox="0 0 18.006 24"><path d="M7.608 23.742c-.054-.142-.073-1.41-.043-2.819l.056-2.56 1.434-.059 1.434-.058V24H9.1c-.961 0-1.422-.08-1.49-.258zM.273 19.203c.15-.353 1.83-3.98 3.734-8.06s3.85-8.256 4.324-9.28L9.192 0l.379.873c.208.48 2.191 4.905 4.407 9.833 2.215 4.927 4.028 9 4.028 9.05 0 .05-.656.09-1.458.09H15.09l-.542-1.236a3636.46 3636.46 0 01-4.151-9.537C9.784 7.663 9.247 6.47 9.2 6.426c-.046-.046-.405.619-.798 1.476-1.482 3.23-4.603 10.1-4.998 11.004l-.41.94H0z"/></svg>