<svg xmlns="http://www.w3.org/2000/svg" viewBox="0 0 24 24" fill="#fff"><path d="M1.907 18.605c-.563-.874-1.157-2.26-1.5-3.503-.446-1.936-.564-3.36-.16-5.346.364-1.678 1.143-3.46 2.091-4.79 1.59-1.99 3.627-3.689 6.098-4.418.96-.266 2.016-.45 3.007-.527 1.756-.134 4.242.384 5.942 1.24.559.28 1.908 1.157 2.193 1.425 2.146 2.011 3.063 3.36 3.859 5.68.51 1.482.703 3.848.456 5.56-.215 1.486-.989 3.538-1.79 4.745-.356.536-.39.56-.529.374-.149-.202-1.282-2.074-1.695-2.8-.123-.217-.88-1.453-1.68-2.746a2524.82 2524.82 0 01-1.845-2.983l-.388-.63-.268.45-.268.45.231.982c.324 1.378.338 1.463.246 1.46-.045 0-.344-.47-.663-1.042-.59-1.058-1.488-2.6-2.549-4.382-.324-.544-.63-.989-.68-.989-.499.528-.826 1.265-1.144 1.783-.284.46-.679 1.136-.878 1.502-.36.66-.362.668-.224 1.283l.277 1.233c.076.339.106.615.067.615-.04 0-.247-.3-.461-.668l-.968-1.66-.577-.99-.728 1.151-.898 1.419a14.69 14.69 0 00-.292.48c-.067.118-.592.985-1.167 1.926-.574.94-1.402 2.3-1.838 3.02-.437.721-.813 1.31-.837 1.31-.024 0-.222-.276-.44-.614z"/></svg>