<?xml version="1.0" encoding="UTF-8"?>
<svg version="1.1" xmlns="http://www.w3.org/2000/svg" width="512" height="512">
<path d="M0 0 C1.39894938 -0.00374268 2.79789668 -0.00834665 4.1968407 -0.01373065 C8.01798616 -0.02590007 11.83904367 -0.02570737 15.66020405 -0.02334189 C19.79060328 -0.02293218 23.92097488 -0.0339877 28.05136108 -0.04345703 C36.13567742 -0.06003552 44.21996458 -0.06556518 52.3042965 -0.06668179 C58.88048021 -0.06763391 65.45665433 -0.07175239 72.03283501 -0.07808304 C90.70240177 -0.09568808 109.37194559 -0.10492325 128.04152072 -0.10342209 C129.54970797 -0.10330222 129.54970797 -0.10330222 131.08836365 -0.10317993 C132.09505838 -0.10309817 133.10175311 -0.10301641 134.13895374 -0.10293217 C150.44191938 -0.10211983 166.74479251 -0.12124627 183.04773141 -0.14945666 C199.81187062 -0.17823473 216.57596479 -0.1919942 233.34012932 -0.19026911 C242.74204698 -0.18960683 252.14386769 -0.1950276 261.54576302 -0.21662521 C269.55304257 -0.23490207 277.56018124 -0.23913135 285.5674727 -0.22560637 C289.64660863 -0.21910892 293.7254748 -0.21884152 297.8045845 -0.23631287 C329.30103399 -0.36268229 329.30103399 -0.36268229 343.00413513 4.26742554 C343.6555152 4.48652627 344.30689526 4.70562701 344.97801411 4.93136716 C370.76804537 13.71491898 390.82462238 31.97954936 403.08860779 56.27816772 C409.60463627 70.4361944 412.30901619 84.757241 412.27156067 100.26329041 C412.27530335 101.66223979 412.27990732 103.06118708 412.28529131 104.46013111 C412.29746074 108.28127657 412.29726804 112.10233407 412.29490256 115.92349446 C412.29449285 120.05389368 412.30554837 124.18426528 412.3150177 128.31465149 C412.33159619 136.39896783 412.33712585 144.48325499 412.33824246 152.56758691 C412.33919458 159.14377061 412.34331306 165.71994474 412.34964371 172.29612541 C412.36724875 190.96569218 412.37648392 209.635236 412.37498276 228.30481113 C412.37486289 229.81299838 412.37486289 229.81299838 412.3747406 231.35165405 C412.37465884 232.35834878 412.37457708 233.36504351 412.37449284 234.40224414 C412.3736805 250.70520979 412.39280694 267.00808291 412.42101733 283.31102181 C412.4497954 300.07516103 412.46355487 316.8392552 412.46182978 333.60341972 C412.4611675 343.00533738 412.46658827 352.4071581 412.48818588 361.80905342 C412.50646274 369.81633297 412.51069202 377.82347165 412.49716704 385.83076311 C412.49066959 389.90989904 412.49040219 393.98876521 412.50787354 398.06787491 C412.63424295 429.5643244 412.63424295 429.5643244 408.00413513 443.26742554 C407.7850344 443.9188056 407.56593366 444.57018566 407.34019351 445.24130452 C398.55664169 471.03133578 380.29201131 491.08791278 355.99339294 503.35189819 C341.83536627 509.86792667 327.51431967 512.5723066 312.00827026 512.53485107 C310.60932088 512.53859376 309.21037359 512.54319773 307.81142956 512.54858172 C303.9902841 512.56075114 300.1692266 512.56055844 296.34806621 512.55819297 C292.21766699 512.55778325 288.08729538 512.56883878 283.95690918 512.57830811 C275.87259284 512.59488659 267.78830568 512.60041625 259.70397376 512.60153286 C253.12779006 512.60248498 246.55161593 512.60660346 239.97543526 512.61293411 C221.30586849 512.63053915 202.63632467 512.63977432 183.96674954 512.63827316 C182.45856229 512.6381533 182.45856229 512.6381533 180.91990662 512.63803101 C179.91321189 512.63794924 178.90651716 512.63786748 177.86931653 512.63778324 C161.56635088 512.63697091 145.26347775 512.65609734 128.96053886 512.68430774 C112.19639964 512.71308581 95.43230547 512.72684528 78.66814095 512.72512019 C69.26622329 512.72445791 59.86440257 512.72987868 50.46250725 512.75147629 C42.45522769 512.76975315 34.44808902 512.77398242 26.44079756 512.76045744 C22.36166163 512.75395999 18.28279546 512.7536926 14.20368576 512.77116394 C-17.29276373 512.89753336 -17.29276373 512.89753336 -30.99586487 508.26742554 C-31.64724493 508.0483248 -32.29862499 507.82922407 -32.96974385 507.60348392 C-58.75977511 498.81993209 -78.81635211 480.55530172 -91.08033752 456.25668335 C-97.596366 442.09865667 -100.30074593 427.77761008 -100.26329041 412.27156067 C-100.26703309 410.87261129 -100.27163706 409.47366399 -100.27702105 408.07471997 C-100.28919047 404.25357451 -100.28899777 400.432517 -100.2866323 396.61135662 C-100.28622258 392.48095739 -100.29727811 388.35058579 -100.30674744 384.22019958 C-100.32332592 376.13588325 -100.32885559 368.05159609 -100.32997219 359.96726417 C-100.33092431 353.39108046 -100.3350428 346.81490634 -100.34137344 340.23872566 C-100.35897848 321.56915889 -100.36821365 302.89961507 -100.3667125 284.23003995 C-100.36663258 283.22458178 -100.36655267 282.21912362 -100.36647034 281.18319702 C-100.36638858 280.17650229 -100.36630681 279.16980756 -100.36622258 278.13260693 C-100.36541024 261.82964129 -100.38453667 245.52676816 -100.41274707 229.22382926 C-100.44152514 212.45969005 -100.45528461 195.69559588 -100.45355952 178.93143135 C-100.45289724 169.52951369 -100.45831801 160.12769298 -100.47991562 150.72579765 C-100.49819248 142.7185181 -100.50242175 134.71137943 -100.48889677 126.70408797 C-100.48239932 122.62495204 -100.48213193 118.54608586 -100.49960327 114.46697617 C-100.62597269 82.97052668 -100.62597269 82.97052668 -95.99586487 69.26742554 C-95.66721377 68.29035544 -95.66721377 68.29035544 -95.33192325 67.29354656 C-86.54837142 41.5035153 -68.28374105 21.44693829 -43.98512268 9.18295288 C-29.827096 2.6669244 -15.50604941 -0.03745552 0 0 Z " fill="#000000" transform="translate(99.99586486816406,-0.267425537109375)"/>
<path d="M0 0 C31.54384145 -0.20151517 31.54384145 -0.20151517 44.87890625 -0.24414062 C54.04490329 -0.27367705 63.21066863 -0.30817913 72.37646484 -0.37719727 C79.05530489 -0.42746418 85.73395489 -0.45939182 92.41297889 -0.47044247 C95.94060066 -0.4768892 99.46767939 -0.49173793 102.99512482 -0.52865028 C123.62605981 -0.73607658 142.24460747 0.79328557 161 10 C162.57974609 10.76957031 162.57974609 10.76957031 164.19140625 11.5546875 C190.61864007 25.09591475 210.55001881 48.15734569 220.3125 76.1875 C223.43328161 86.64072573 225.45220484 96.37200436 225.34057617 107.30786133 C225.34101425 108.460681 225.34145233 109.61350067 225.34190369 110.80125427 C225.3398357 114.56169361 225.31659908 118.32167108 225.29296875 122.08203125 C225.28736572 124.70903785 225.28309897 127.3360476 225.28010559 129.96305847 C225.27083846 136.13924796 225.24629827 142.3152752 225.21605712 148.49139374 C225.1823454 155.53144151 225.16598527 162.57149765 225.15097082 169.61160624 C225.11974288 184.07448726 225.06708803 198.53724135 225 213 C221.13936593 212.39529098 217.82255712 211.68620237 214.2421875 210.109375 C212.93121094 209.53896484 212.93121094 209.53896484 211.59375 208.95703125 C210.24796875 208.35955078 210.24796875 208.35955078 208.875 207.75 C207.10186305 206.97327187 205.32842275 206.19723588 203.5546875 205.421875 C202.71396698 205.05286072 201.87324646 204.68384644 201.00704956 204.3036499 C197.90029276 202.9567738 194.77980844 201.64782574 191.65283203 200.34863281 C190.58920441 199.90642395 189.52557678 199.46421509 188.42971802 199.00860596 C187.62791107 198.67576599 186.82610413 198.34292603 186 198 C185.99453156 196.24592079 185.99453156 196.24592079 185.98895264 194.45640564 C185.95184353 183.37965794 185.8938986 172.30318417 185.81609726 161.22664547 C185.77676362 155.53349168 185.74450628 149.84048931 185.72900391 144.1472168 C185.71374393 138.64215385 185.67913449 133.13750758 185.63169098 127.6326313 C185.6169729 125.54337775 185.60896455 123.45406467 185.60811615 121.36475945 C185.59572536 106.1366054 184.48012591 92.36739308 177.25 78.625 C176.74436523 77.63185791 176.74436523 77.63185791 176.22851562 76.61865234 C173.60252049 71.66396744 170.45380061 67.57128599 166.46875 63.6015625 C165 62 165 62 165 60 C164.41992188 59.73574219 163.83984375 59.47148437 163.2421875 59.19921875 C160.90821232 57.95090798 159.13892396 56.52472718 157.125 54.8125 C141.45788652 42.54461342 122.60903431 38.09108054 103 40 C85.61344984 42.39241588 67.6803813 51.99944334 56.60449219 65.72998047 C53.72549465 69.64182649 51.31768371 73.73526431 49 78 C48.23236328 79.40572266 48.23236328 79.40572266 47.44921875 80.83984375 C41.20300133 93.38755486 40.52221559 106.6574883 40.3125 120.375 C40.27921871 121.90106885 40.24471972 123.42711164 40.20898438 124.953125 C40.12534554 128.63522439 40.05797106 132.31739623 40 136 C32.88390192 134.03994018 26.1888605 131.53389231 19.4375 128.5625 C18.55642578 128.18029297 17.67535156 127.79808594 16.76757812 127.40429688 C11.16381365 124.96841697 5.58385508 122.48171337 0 120 C0 80.4 0 40.8 0 0 Z " fill="#FDFDFD" transform="translate(143,95)"/>
<path d="M0 0 C4.96357444 0.73981638 9.22193739 2.16304825 13.8046875 4.16015625 C14.5286673 4.46948593 15.25264709 4.77881561 15.99856567 5.09751892 C18.29341031 6.07968862 20.58420409 7.07092913 22.875 8.0625 C24.43724067 8.73302639 25.99973822 9.40295465 27.5625 10.07226562 C31.3780073 11.70793706 35.18991017 13.35175095 39 15 C39.00546844 15.87084984 39.00546844 15.87084984 39.01104736 16.7592926 C39.05330319 22.87694396 39.12293977 28.99387476 39.20751953 35.11108398 C39.23550839 37.38509872 39.25683108 39.65920675 39.27099609 41.93334961 C39.37740795 58.06184039 40.00840214 72.68932498 47.6875 87.25 C48.0292627 87.91128906 48.37102539 88.57257813 48.72314453 89.25390625 C57.87016388 106.32944758 72.79500074 117.27817166 90.91796875 123.390625 C110.16821527 129.20512338 129.39608689 126.47490618 147.14550781 117.4050293 C164.53978229 107.92945776 174.76642044 93.70073868 181 75 C189.09369833 77.51001526 196.80021546 80.81598274 204.5625 84.1875 C205.87029608 84.75229278 207.17823778 85.31674848 208.48632812 85.88085938 C211.65923901 87.25002748 214.83015975 88.62373526 218 90 C217.2690657 95.01369729 215.7962111 99.0722166 213.5 103.5625 C213.14325195 104.26286377 212.78650391 104.96322754 212.41894531 105.68481445 C199.36661182 130.70746685 179.16087731 148.54507995 153.125 159.25 C152.33536865 159.5795166 151.5457373 159.9090332 150.73217773 160.24853516 C138.3288266 165.15764569 125.96436148 166.55760633 112.75 166.4375 C111.66549561 166.43243942 111.66549561 166.43243942 110.55908203 166.42727661 C99.32572866 166.35147194 88.68428252 165.70501214 78 162 C77.29568848 161.75862305 76.59137695 161.51724609 75.86572266 161.26855469 C47.95783217 151.37478749 23.64941832 131.45949942 10.765625 104.48046875 C10.06179582 102.90857822 9.3688308 101.33177232 8.6875 99.75 C8.38642334 99.06172119 8.08534668 98.37344238 7.77514648 97.66430664 C6.7459342 95.1389325 5.8720047 92.58408812 5 90 C4.56099365 88.82783936 4.1219873 87.65567871 3.66967773 86.44799805 C-1.76273869 70.44549491 -0.57377719 53.44827102 -0.34332275 36.7824707 C-0.29144536 32.62529343 -0.26918512 28.46795704 -0.24414062 24.31054688 C-0.1911032 16.20660328 -0.10618737 8.10342101 0 0 Z " fill="#FDFDFD" transform="translate(144,251)"/>
</svg>
