<svg xmlns="http://www.w3.org/2000/svg" fill="#fff" viewBox="0 0 24 24"><path d="M10.83 23.926C5.684 23.444 1.366 19.6.259 14.516.192 14.209.094 13.459.04 12.85c-.288-3.353.94-6.72 3.366-9.222C6.592.343 11.457-.843 15.771.615c3.64 1.23 6.367 3.959 7.597 7.598.333.984.466 1.657.574 2.92.206 2.388-.368 4.833-1.634 6.969a12.105 12.105 0 01-4.2 4.202c-1.586.94-3.207 1.457-5.114 1.63-.978.09-1.126.089-2.164-.008zm2.046-2.96c1.982-.24 3.64-.968 5.111-2.241.362-.314.658-.583.658-.6 0-.016-.671-.7-1.491-1.519l-1.491-1.488-.406.364c-1.583 1.424-3.865 1.69-5.627.657-1.4-.82-2.171-2.028-2.406-3.766l-.051-.381h2.214L7.242 9.849 5.097 7.706 2.954 9.849.81 11.992h1.062c.807 0 1.061.024 1.061.102 0 .056.038.408.083.782.528 4.339 3.687 7.54 7.973 8.082.797.1 1.116.102 1.886.01zm8.173-6.85l2.123-2.124h-1.061c-.808 0-1.062-.025-1.062-.103 0-.056-.037-.407-.082-.781-.415-3.41-2.396-6.096-5.463-7.407-1.382-.59-2.98-.845-4.323-.69-2.039.238-3.687.952-5.184 2.248-.362.313-.658.58-.658.593 0 .013.67.697 1.49 1.52l1.49 1.496.406-.365c1.585-1.425 3.866-1.692 5.628-.659 1.4.821 2.172 2.029 2.407 3.767l.05.38h-2.207l2.12 2.125c1.165 1.168 2.138 2.124 2.161 2.124.023 0 .998-.956 2.165-2.124z"/></svg>