<svg xmlns="http://www.w3.org/2000/svg" width="24" height="23.747" viewBox="0 0 6.35 6.283"><path d="M2.979 6.1a2.863 2.863 0 01-.413-.093A2.683 2.683 0 01.731 4.082C.676 3.874.675 3.864.67 3.47c-.005-.4-.002-.437.044-.628.088-.367.223-.666.446-.987l.078-.114c.008-.013-.164-.088-.324-.141a7.935 7.935 0 00-.322-.096c-.22-.06-.29-.09-.34-.144-.045-.05-.057-.086-.056-.182 0-.07.003-.086.023-.128A.285.285 0 01.357.922C.4.9.407.9.496.905c.126.007.309.052.63.157.071.023.13.041.131.04l.076-.107c.078-.11.21-.253.314-.34.198-.165.44-.284.67-.327.064-.012.126-.015.37-.015.305 0 .368.005.584.042.14.024.262.054.32.08.12.05.134.147.04.27a.161.161 0 00-.028.043c.002.002.056.011.122.02.294.042.542.12.822.26.716.36 1.212.98 1.41 1.767.053.208.062.303.062.622 0 .368-.017.505-.092.767a2.659 2.659 0 01-1.11 1.5 2.738 2.738 0 01-1.01.4c-.083.015-.13.018-.427.02-.184.001-.365 0-.401-.005zm.778-.288a2.56 2.56 0 001.094-.502 2.52 2.52 0 00.44-.46c.229-.32.388-.711.438-1.073.02-.148.02-.53 0-.681a2.425 2.425 0 00-.504-1.166 3.394 3.394 0 00-.433-.422c-.375-.282-.757-.424-1.3-.484a7.799 7.799 0 00-.117-.013 1.06 1.06 0 00-.091.07c-.175.144-.391.288-.51.34-.137.06-.32.112-.464.134l-.067.01v.084c-.001.14-.04.217-.174.353-.13.129-.193.16-.336.168-.102.006-.132-.003-.181-.05-.041-.04-.057-.082-.064-.169l-.005-.058-.056.076c-.212.29-.363.615-.436.94a1.9 1.9 0 00-.053.467 2.368 2.368 0 00.846 1.886c.321.277.736.474 1.175.557.09.018.678.012.798-.007zM1.8 1.92a.755.755 0 00.19-.186c.02-.04.022-.084.005-.077a2.008 2.008 0 01-.072.022l-.06.018-.081-.054a.552.552 0 00-.253-.11 1.52 1.52 0 01-.158-.047c-.047-.02-.097-.069-.109-.104-.007-.021-.019-.032-.056-.05a4.218 4.218 0 00-.621-.188c-.111-.022-.136-.021-.157.006-.023.028-.022.033.005.06.02.02.047.03.174.06.421.1.864.29 1.08.462l.053.042-.006.087-.006.088.02-.007A.436.436 0 001.8 1.92zm.185-.617c.233-.017.439-.057.581-.112.223-.086.37-.19.637-.447.086-.083.097-.096.083-.102a3.702 3.702 0 00-.348-.05 3.516 3.516 0 00-.268-.009c-.263 0-.395.027-.56.11-.182.093-.371.24-.471.367a1.374 1.374 0 00-.142.22c0 .026.27.04.488.023z"/></svg>