<svg xmlns="http://www.w3.org/2000/svg" height="800" width="800" viewBox="0 0 109.997 109.997" xmlns:v="https://vecta.io/nano"><circle cx="54.999" cy="67.669" r="40.828" fill="#ff8400"/><path d="M54.999 109.997c-23.34 0-42.328-18.988-42.328-42.328S31.659 25.34 54.999 25.34s42.327 18.988 42.327 42.329-18.988 42.328-42.327 42.328zm0-81.657c-21.686 0-39.328 17.642-39.328 39.329s17.643 39.328 39.328 39.328 39.327-17.643 39.327-39.328S76.685 28.34 54.999 28.34zM22.88 68.113h-3c0-20 15.98-35.562 34.98-35.562v3c-18.001 0-31.98 14.562-31.98 32.562z"/><path d="M56.837 20.394S59.485-.142 81.115 1.606c0-.001-3.11 21.846-24.278 18.788z" fill="#a8d626"/><path d="M60.764 22.188c-1.329 0-2.722-.104-4.142-.31l-1.462-.211.189-1.465C55.375 20 58.189 0 78.56 0a33.53 33.53 0 0 1 2.677.11l1.589.128-.225 1.579c-.03.203-3.118 20.371-21.837 20.371zm-2.15-3.097c7.803.689 13.702-2.241 17.606-8.641 1.73-2.836 2.637-5.712 3.069-7.44-.245-.007-.488-.01-.729-.01-14.817 0-18.94 11.815-19.946 16.091z"/><path d="M53.159 20.394S50.513-.142 28.882 1.606c0-.001 3.111 21.846 24.277 18.788z" fill="#a8d626"/><path d="M49.233 22.188h0C30.515 22.187 27.426 2.02 27.397 1.817L27.172.238 28.761.11C29.668.037 30.568 0 31.438 0c20.37 0 23.184 20 23.209 20.202l.189 1.465-1.462.211a29.1 29.1 0 0 1-4.141.31zM30.708 3.01c.433 1.727 1.339 4.604 3.069 7.44 3.536 5.798 8.736 8.737 15.455 8.737h.001c.696 0 1.415-.032 2.149-.097C50.377 14.817 46.255 3 31.438 3l-.73.01z"/></svg>