<svg xmlns="http://www.w3.org/2000/svg" width="990" height="990" xmlns:v="https://vecta.io/nano"><circle cx="515" cy="515" r="475" fill-opacity=".1"/><circle cx="495" cy="495" r="475" fill="#4f3663"/><path fill-opacity=".2" d="M957.5 596c3.4-16.6 5.9-33.7 7.5-51.3L572.3 152l-31.2 30-68.7-68.7-33.3 81.8 51.4 51.4-217 586.6 127.3 127.3c21.5 4.1 43.1 6.7 65.2 7.9.4.1.8.1 1.2.1h.4c8.5.5 16.6.7 24.5.7q1.5 0 3 0c10.3 0 20.5-.3 30.1-.8 2.5-.1 4.8-.3 7-.4 20.2-1.4 39.9-4 58.7-7.7 8-1.5 15.8-3.3 23.4-5.1C695.1 934.8 766.5 893.5 829 831c6.1-6.1 12-12.2 17.5-18.3 39.9-43.8 69.8-91.6 89.9-143.5 9.1-23.4 16.2-47.7 21.3-73z"/><path fill="#fdfcdf" d="M416.1 235.1v13.4c-1.7 42.1-20 72.8-54.8 92.2-3 1.5-6.1 3-9.1 4.7-26.7 14.2-51.7 32.9-74.8 56-60.1 60.2-90.2 132.8-90.2 217.8 0 85.1 30.1 157.7 90.2 217.8 60.2 60.2 132.8 90.2 217.8 90.2h4.1 0v-64.4-614h0c-28.7-2.2-56.4-7.8-83.1-13.6z"/><circle fill="#eaeace" cx="495" cy="628" r="235"/><circle fill="#d1d1b8" cx="495" cy="631" r="162"/><circle fill="#bfbfa9" cx="495" cy="633" r="94"/><path fill="#735a93" d="M803.1 619.1q0-127.6-90.2-217.8c-23.8-23.8-49.7-43-77.8-57.5-38.1-17.6-58.4-50.5-61-98.6-25.7 4.9-50.6 5.4-74.9 3.6h0v144.5 75.9 70.4 187.3 66 70 64.4h0c83.5-1 154.6-31.1 213.7-90.2 60.2-60.1 90.2-132.7 90.2-217.8z"/><path fill="#78af52" d="M426.4 67.4l-.9 3.7q-31 121.9 65.2 161.7c18.8-62.2-.9-116-59.3-161.7l-4.8-3.7zm81 165.4c-5.4-40.8 16.3-67.9 64.9-80.8-5.3 44.9-26.9 71.8-64.9 80.8"/></svg>