<?xml version="1.0" encoding="utf-8"?>
<!DOCTYPE svg PUBLIC
  "-//W3C//DTD SVG 1.1//EN"
  "http://www.w3.org/Graphics/SVG/1.1/DTD/svg11.dtd">

<svg
    xmlns="http://www.w3.org/2000/svg"
    xmlns:xlink="http://www.w3.org/1999/xlink"
    version="1.1"
    x="0"
    y="0"
    width="990"
    height="990"
    viewBox="0 0 990 990"
    enable-background="new 0 0 990 990">

<circle id="main-circle-drop-shadow" cx="532" cy="532" r="475" fill="#000" fill-opacity=".1" transform="translate(-17,-17)" />
<circle id="main-circle" cx="512" cy="512" r="475" fill="#4f3663" transform="translate(-17,-17)" />

<path id="onion-drop-shadow" fill="#000" fill-opacity=".2" d="m957.5 596c3.4-16.6 5.9-33.7 7.5-51.3L572.3 152 541.1 182 472.4 113.3 439.1 195.1 490.5 246.5 273.5 833.1 400.8 960.4c21.5 4.1 43.1 6.7 65.2 7.9 0.4 0.1 0.8 0.1 1.2 0.1 0.2 0 0.3 0 0.4 0 8.5 0.5 16.6 0.7 24.5 0.7q1.5 0 3 0c10.3 0 20.5-0.3 30.1-0.8 2.5-0.1 4.8-0.3 7-0.4 20.2-1.4 39.9-4 58.7-7.7 8-1.5 15.8-3.3 23.4-5.1 80.8-20.3 152.2-61.6 214.7-124.1 6.1-6.1 12-12.2 17.5-18.3 39.9-43.8 69.8-91.6 89.9-143.5 9.1-23.4 16.2-47.7 21.3-73z" />

<g id="onion" transform="translate(-17,-17)">
    <path id="first-layer" fill="#fdfcdf" d="m433.1 252.1 0 13.4c-1.7 42.1-20 72.8-54.8 92.2-3 1.5-6.1 3-9.1 4.7-26.7 14.2-51.7 32.9-74.8 56-60.1 60.2-90.2 132.8-90.2 217.8 0 85.1 30.1 157.7 90.2 217.8 60.2 60.2 132.8 90.2 217.8 90.2 1.5 0 2.9 0 4.1 0l0 0 0-64.4c0-151.1 0-428.3 0-614l0 0c-28.7-2.2-56.4-7.8-83.1-13.6z" />
    <circle id="second-layer" fill="#eaeace" cx="512" cy="645" r="235" d="M 747,645 C 747,774.78692 641.78692,880 512,880 382.21308,880 277,774.78692 277,645 277,515.21308 382.21308,410 512,410 c 129.78692,0 235,105.21308 235,235 z" />
    <circle id="third-layer" fill="#d1d1b8" cx="512" cy="648" r="162" d="m 674,648 c 0,89.47013 -72.52987,162 -162,162 -89.47013,0 -162,-72.52987 -162,-162 0,-89.47013 72.52987,-162 162,-162 89.47013,0 162,72.52987 162,162 z" />
    <circle id="fourth-layer" fill="#bfbfa9" cx="512" cy="650" r="94" d="m 606,650 c 0,51.91477 -42.08523,94 -94,94 -51.91477,0 -94,-42.08523 -94,-94 0,-51.91477 42.08523,-94 94,-94 51.91477,0 94,42.08523 94,94 z" />

    <path id="half" fill="#735a93" d="m820.1 636.1q0-127.6-90.2-217.8c-23.8-23.8-49.7-43-77.8-57.5-38.1-17.6-58.4-50.5-61-98.6-25.7 4.9-50.6 5.4-74.9 3.6l0 0 0 144.5 0 75.9 0 70.4 0 187.3 0 66 0 70 0 64.4 0 0c83.5-1 154.6-31.1 213.7-90.2 60.2-60.1 90.2-132.7 90.2-217.8z" />

    <path id="leafs" fill="#78af52" d="m443.4 84.4c-0.3 1.3-0.7 2.6-0.9 3.7q-31 121.9 65.2 161.7c18.8-62.2-0.9-116-59.3-161.7-1.4-1.1-3.1-2.4-4.8-3.7zM524.4 249.8c-5.4-40.8 16.3-67.9 64.9-80.8-5.3 44.9-26.9 71.8-64.9 80.8" />
</g>
</svg>
