<?xml version="1.0" encoding="UTF-8" standalone="no"?>
<!DOCTYPE svg PUBLIC "-//W3C//DTD SVG 1.1//EN" "http://www.w3.org/Graphics/SVG/1.1/DTD/svg11.dtd">
<svg width="100%" height="100%" viewBox="0 0 1080 1080" version="1.1" xmlns="http://www.w3.org/2000/svg" xmlns:xlink="http://www.w3.org/1999/xlink" xml:space="preserve" xmlns:serif="http://www.serif.com/" style="fill-rule:evenodd;clip-rule:evenodd;stroke-linejoin:round;stroke-miterlimit:2;">
    <g transform="matrix(19.2677,0,0,19.2677,278.381,4.71875)">
        <path id="path2438" d="M4.531,0C2.04,0 0,2.041 0,4.531L0,51.031C0,53.523 2.04,55.562 4.531,55.563C7.021,55.563 9.063,53.523 9.063,51.031L9.063,4.531C9.063,2.041 7.021,0 4.531,0ZM22.625,0C20.134,0 18.094,2.041 18.094,4.531L18.094,51.031C18.094,53.523 20.134,55.562 22.625,55.563C25.115,55.563 27.156,53.523 27.156,51.031L27.156,4.531C27.156,2.041 25.115,0 22.625,0Z" style="fill:rgb(239,46,49);"/>
    </g>
</svg>
