<svg xmlns="http://www.w3.org/2000/svg" width="90.709" height="76.078" viewBox="0 0 24 20.129"><path d="M1.277 0A1.376 1.376 0 00.14.65a1.103 1.103 0 00-.131.382l-.001.008A.978.978 0 000 1.16v12.271c0 .62.658 1.278 1.277 1.278h9.562v3.097H7.722c-.657 0-1.16.102-1.16.76a1.14 1.14 0 001.16 1.162h8.555c.658 0 1.161-.504 1.2-1.162 0-.658-.503-.76-1.161-.76H13.16V14.71h9.562c.619 0 1.277-.62 1.277-1.278V1.162a.98.98 0 00-.002-.058l-.001-.017a.974.974 0 00-.004-.04l-.002-.019-.006-.037-.004-.019c-.002-.014-.006-.027-.009-.04L23.97.918a1.008 1.008 0 00-.045-.132l-.011-.029a1.06 1.06 0 00-.053-.104l-.008-.012A1.363 1.363 0 0022.723 0h-.04zm.72.8l20.064.001h.036a1.277 1.277 0 011.06.564l.008.011.023.038.027.054.011.024.022.057.02.06a.773.773 0 01.023.096.647.647 0 01.007.052v.014a.655.655 0 01.002.05v10.79c0 .578-.617 1.122-1.197 1.122H1.998c-.58 0-1.198-.578-1.198-1.123V1.822c0-.037.003-.072.008-.107v-.008a.88.88 0 01.184-.422 1.244 1.244 0 01.522-.387A1.238 1.238 0 011.998.8z" stroke-width="5.468"/></svg>