<svg xmlns="http://www.w3.org/2000/svg" viewBox="0 0 24 24"><g color="#000" font-weight="400" font-family="sans-serif" paint-order="stroke markers fill"><path style="line-height:normal;font-variant-ligatures:normal;font-variant-position:normal;font-variant-caps:normal;font-variant-numeric:normal;font-variant-alternates:normal;font-variant-east-asian:normal;font-feature-settings:normal;font-variation-settings:normal;text-indent:0;text-align:start;text-decoration-line:none;text-decoration-style:solid;text-decoration-color:#000;text-transform:none;text-orientation:mixed;white-space:normal;shape-padding:0;shape-margin:0;inline-size:0;isolation:auto;mix-blend-mode:normal;solid-color:#000;solid-opacity:1" d="M12.002-.094A7.993 7.993 0 006.391 2.23a9.665 9.665 0 00-.635.7v.002c-.775.972-1.401 2.514-1.635 4.023v.004c-.046.365-.074.73-.084 1.098l-.02.615h-.404a8.11 8.11 0 00-.79.037l-.003.002h-.002a1.857 1.857 0 00-1.511 1.271.882.882 0 00-.051.221c-.012.106-.02.261-.026.535-.01.548-.01 1.57-.01 3.588 0 1.31.006 2.344.012 3.06.004.36.007.638.012.835.002.098.005.176.008.232.003.057 0 .079.01.12l.002.001v.002c.073.236.228.439.437.57.051.037.1.053.147.077-.004.005-.015.004-.018.01a.218.218 0 00-.023.107v.181h.006c-.004.016-.011.033-.012.047a.596.596 0 00.002.09c.005.065.019.14.037.22.036.162.09.337.152.46.259.508.694.795 1.287.842l.457.035h.233l-.004-.037a.666.666 0 00.055.002c.023 0 .045 0 .076-.008.002.017.005.061.008.074.016.098.063.604.093 1.092v.002c.017.246.035.488.053.681.018.194.032.33.047.399v.004a.953.953 0 00.455.582l.002.002c.037.019.084.039.152.05.069.012.161.019.313.024.302.01.84.012 1.865.012h2.191l1.06-1.133 1.007-1.068.771.021.772.022.164.181.99 1.074.822.9 2.09-.007c1.134-.006 1.683-.008 1.996-.041.313-.033.41-.124.541-.252.134-.13.222-.31.282-.586.059-.276.092-.65.117-1.19.01-.256.03-.514.06-.769v-.004c.002-.01.003-.059.004-.072.025.007.047.01.065.01.023 0 .05.002.086-.014.007-.003.008-.014.015-.02a.2.2 0 00.106.065.379.379 0 00.113.006c.08-.005.176-.022.309-.037a1.57 1.57 0 001.408-1.405l.033-.337h-.068c.014-.025.036-.051.039-.065.002-.013.01-.038-.004-.078-.003-.008-.013-.009-.018-.016l.006-.002.24-.113a.798.798 0 00.475-.705c.003-.057.005-.134.008-.23.005-.193.009-.465.011-.82.005-.712.004-1.756 0-3.15v-.001l-.007-4.125-.094-.219v-.002a1.982 1.982 0 00-.934-1.02 1.396 1.396 0 00-.672-.183 10.906 10.906 0 00-.756-.037h-.001a3.07 3.07 0 01-.288-.01l-.035-.006a8.5 8.5 0 01-.052-.853 6.862 6.862 0 00-.229-1.875v-.002a8.002 8.002 0 00-1.518-3.055l-.002-.002h-.001a10.685 10.685 0 00-1.43-1.375h-.002v-.002a8.163 8.163 0 00-4.75-1.586h-.002zm0 .188c.05 0 .095.024.144.025-.075-.001-.13-.014-.205-.014.021 0 .04-.011.061-.011zm-.137.199h.041c.487-.002 1 .023 1.313.076 1.664.284 3.065 1.017 4.232 2.217a7.55 7.55 0 012.135 5.393v.001l.027 1.036h.479c.71 0 1.228.066 1.433.154.405.196.71.549.85.976.019.06.031.096.041.188.01.092.016.24.02.51.008.539.005 1.56 0 3.6-.006 1.997-.01 3.02-.02 3.558-.005.27-.013.417-.023.502-.01.085-.016.097-.034.13-.06.121-.094.166-.177.202-.084.035-.236.055-.508.072-.404.023-.807.035-1.211.035-.34 0-.523.001-.631.012a.332.332 0 00-.1.025l.012-4.668c.004-2.305.007-3.464-.002-4.048a4.917 4.917 0 00-.023-.524c-.006-.043-.01-.073-.037-.11a.13.13 0 00-.059-.042c-.021-.007-.035-.006-.041-.006a.145.145 0 00-.094.04.17.17 0 00-.043.099 3.24 3.24 0 00-.023.425c-.01.47-.01 1.396-.01 3.239 0 2.041-.011 4.097-.023 4.564l-.024.766H4.631v-3.592c0-2.026-.01-4.078-.022-4.566v-.002a12.57 12.57 0 00-.035-.754c-.007-.063-.01-.104-.035-.147-.006-.01-.019-.019-.03-.029v-.043h-.093a.125.125 0 00-.062.018.127.127 0 00-.045.052.307.307 0 00-.026.11 7.06 7.06 0 00-.02.55c-.008.6-.01 1.757-.01 3.989v4.695l.175.045v.002c.055.013.071.023.076.03.005.006.014.027.014.087v.201h7.306a1566.29 1566.29 0 006.762-.015c.195-.002.35-.002.46-.004l.132-.004c.032-.001.047-.001.068-.004.095-.012.151-.006.215-.055a.172.172 0 00.059-.097c.006-.032.005-.06.005-.092 0-.049.009-.059-.002-.045-.01.013-.016.007.024.002l.115-.014c-.004.007-.01.011-.014.018a.149.149 0 00-.011.058l-.004.143-.01.346c-.01.286-.024.672-.041 1.088-.041 1.12-.075 1.78-.123 2.185s-.105.54-.195.649a.378.378 0 01-.118.109.796.796 0 01-.265.058c-.287.031-.829.04-1.904.055l-1.92.028-.596-.65a95.11 95.11 0 00-1.041-1.104v-.002l-.443-.455h-1.793l-1.065 1.128-1.008 1.067H7.137c-.553-.002-1.073-.006-1.463-.012-.195-.003-.357-.008-.475-.012l-.142-.003-.053-.004a.463.463 0 01-.326-.274 1.38 1.38 0 01-.037-.203c-.015-.12-.03-.292-.05-.525-.037-.467-.086-1.176-.15-2.211a47.7 47.7 0 00-.093-1.387l-.002-.008v-.006a.19.19 0 00-.08-.107.411.411 0 00-.168-.037c-.152-.014-.424-.02-.965-.031-.483-.012-.764-.02-.936-.034-.172-.013-.228-.028-.29-.056v.002a.432.432 0 01-.214-.176.902.902 0 01-.097-.356h-.002a9.71 9.71 0 01-.012-.408 86.88 86.88 0 01-.01-.924c-.004-.758-.004-1.775-.002-2.89l.01-3.918.111-.236.002-.002c.16-.326.422-.59.748-.748.197-.095.415-.144.633-.143h.006c.226-.015.588-.025.799-.03h.476l.026-.285V8.73c.013-.126.03-.486.039-.83.008-.59.09-1.175.246-1.743v-.002a8.489 8.489 0 011.656-3.22 9.476 9.476 0 011.535-1.442l.002-.002C8.701.935 9.77.53 10.863.355a6.673 6.673 0 011.002-.062zm2.121.137zM9.932.51a7.91 7.91 0 00-1.444.547A7.54 7.54 0 019.932.51zm6.283.914c.135.087.295.125.426.22.173.138.312.311.476.46a7.762 7.762 0 00-.902-.68zm-9.238.64c-.267.25-.562.47-.8.748h-.001c-.725.88-1.21 1.92-1.543 3.006.307-1.065.725-2.084 1.27-2.767v-.002c.195-.238.402-.466.62-.684.131-.13.315-.18.454-.3zm10.777.649c.092.098.201.178.289.28.171.213.214.498.361.728-.218-.338-.379-.706-.65-1.008zm-5.813.012v.021a4.98 4.98 0 00-2.119.48H9.82a5.082 5.082 0 00-2.549 2.909H7.27c-.19.582-.216.768-.239 1.918l-.02 1.19h9.936V8.1c0-1.14-.025-1.363-.23-1.995l-.002-.001a5.048 5.048 0 00-3.13-3.125 4.995 4.995 0 00-1.548-.254h-.096zm.094.19c.507.001 1.01.084 1.49.243a4.855 4.855 0 013.012 3.006c.203.624.22.799.22 1.936v.953H7.204l.018-.996c.023-1.147.04-1.287.228-1.862v-.002a4.893 4.893 0 012.455-2.797 4.797 4.797 0 012.131-.482zm-1.693 1.587l-.026.02.05-.016c-.368.013-.702.22-.874.545l-.002.006-.002.005c-.1.26-.107.546-.017.81l.002.001v.004c.2.465.722.706 1.205.553l.002-.002h.002c.25-.095.456-.28.578-.518l.002-.006.002-.004a1.176 1.176 0 000-.822l-.002-.004v-.002a1.015 1.015 0 00-.889-.57h-.031zm3.244.008c-.095-.002-.19.01-.281.033H13.3l-.004.002a1.08 1.08 0 00-.664.705v.006a.979.979 0 00.281.955c.245.226.608.326.986.215l.006-.002.004-.002c.27-.113.485-.33.596-.6l.002-.004v-.004c.203-.673-.274-1.295-.916-1.3V4.51h-.002-.002-.002zm-3.213.185h.006c.274.004.593.207.707.453a.984.984 0 010 .682.888.888 0 01-.467.416.796.796 0 01-.969-.441.994.994 0 01.014-.666.838.838 0 01.709-.444zm3.213.004h.002c.523.001.907.489.74 1.055a.912.912 0 01-.484.488.824.824 0 01-.803-.17.783.783 0 01-.225-.771.889.889 0 01.545-.576v-.002a.883.883 0 01.225-.024zm5.758.912c.04.13.146.23.18.362l.001.002a6.68 6.68 0 01.223 1.826v.002l.002.045c0-.771-.185-1.512-.406-2.237zm-14.932.996c-.076.383-.15.767-.162 1.157.014-.26.026-.52.059-.78v-.002c.02-.127.078-.247.103-.375zm7.65.48c-.187 0-.37.007-.529.028a3.19 3.19 0 00-.527.094.382.382 0 00-.14.072.227.227 0 00-.071.123l-.04.178v.002a.336.336 0 00-.005.135.179.179 0 00.088.12c.09.046.18.026.312-.001a6.557 6.557 0 011.787-.002c.176.027.352.05.528.074h.004a.132.132 0 00.1-.035.139.139 0 00.038-.084.76.76 0 00-.005-.195v-.002a1.114 1.114 0 00-.04-.178c-.007-.026-.014-.049-.025-.07-.01-.022-.018-.045-.06-.069a.762.762 0 00-.227-.08 3.386 3.386 0 00-.34-.058 7.028 7.028 0 00-.848-.051zm0 .19c.28 0 .579.018.825.05.123.015.233.033.32.054.081.019.137.04.162.055.004.007.009.018.014.035a.976.976 0 01.031.148c.006.053.006.07.006.094-.152-.02-.304-.041-.455-.065h-.002a6.755 6.755 0 00-1.84.004h-.004c-.119.024-.176.017-.181.018 0-.01-.002-.022.003-.049l.04-.178c.002-.012 0-.014.01-.021a.224.224 0 01.072-.033c.084-.027.241-.054.494-.086.144-.02.323-.026.505-.026zM19.79 8.48c.007.084.006.17.016.253l.002.018.01.018c.023.042.054.05.081.058h-.1l-.009-.347zm.684.39c.195.006.39.013.586.03h.007c.086 0 .162.047.245.066a4.512 4.512 0 00-.838-.096zm-17.569.026c-.036.003-.07.019-.105.025.017-.003.029-.02.047-.022l.058-.003zm-.718.296c-.158.106-.28.248-.397.397.117-.156.234-.29.397-.397zm19.619.036c.289.198.562.43.695.757l.033.08c-.125-.363-.42-.616-.728-.837zm.761.916l.014.029v.031c-.004-.02-.009-.043-.014-.06zm-10.697 2.87c-.2 0-.308 0-.406.018a.887.887 0 00-.283.115 1.811 1.811 0 00-.897 1.11l-.004.012v.013l.008.04.016.025s.01.01.015.013l.014.008a.122.122 0 00.031.014c.018.005.036.006.055.008.038.004.085.006.137.006.089 0 .152.006.218-.036.066-.041.09-.1.131-.185v-.002a1.22 1.22 0 01.54-.543c.289-.122.617-.12.904.008.221.112.414.308.521.537l.002.002v.002c.042.081.066.139.131.18.065.04.13.037.219.037h.306l-.07-.237v-.002a1.776 1.776 0 00-.879-1.013h-.002c-.237-.116-.313-.13-.707-.13zm0 .19c.392 0 .394-.003.625.11.364.185.639.507.774.892h-.047a.445.445 0 01-.117-.008.497.497 0 01-.063-.103l-.002-.002a1.357 1.357 0 00-.61-.625l-.001-.002h-.002a1.324 1.324 0 00-1.059-.012l-.002.002-.002.002c-.272.137-.493.36-.629.633a.551.551 0 01-.062.11.486.486 0 01-.117.007h-.01c.138-.371.37-.706.723-.893l.002-.002a.69.69 0 01.226-.095c.07-.013.173-.014.373-.014zm.04 1.268a71.565 71.565 0 00-1.45.015 2.868 2.868 0 00-.104.006c-.013.001-.023 0-.033.002-.005 0-.01 0-.015.002-.003 0-.006.003-.01.004-.002 0-.006 0-.01.002l-.002.002a.141.141 0 00-.06.049.204.204 0 00-.028.066.993.993 0 00-.021.188c-.009.174-.01.47-.01.994v1.273l.264.024c.175.013.87.015 1.554.013.342 0 .678-.002.936-.006.13-.001.238-.005.32-.007l.102-.004c.026-.002.04-.001.062-.006l.188-.037.013-1.227c.002-.41.002-.704-.003-.9a2.994 2.994 0 00-.012-.229.527.527 0 00-.012-.072.136.136 0 00-.035-.066.142.142 0 00-.066-.043.393.393 0 00-.073-.016 2.703 2.703 0 00-.256-.018c-.234-.008-.618-.01-1.24-.01zm0 .19c.62 0 1.004.001 1.234.009.114.004.191.01.236.016l.02.003.003.028c.005.045.008.117.01.213.005.191.006.482.004.892l-.01 1.073-.039.007h-.002c.01-.002-.011.003-.035.004a3.872 3.872 0 01-.096.004c-.08.003-.19.004-.318.006-.257.004-.59.007-.932.008a42.96 42.96 0 01-1.539-.016h-.002l-.09-.008v-1.1c0-.523.004-.82.012-.984a.966.966 0 01.014-.136l.088-.004c.083-.003.2-.008.344-.01.287-.005.676-.006 1.097-.006zm-10.47 3.794c.007.037.02.067.03.1-.005-.012-.02-.017-.024-.03v-.002c.004.013-.003-.024-.006-.068zm3.116.45h14.87c-.016.009-.036.005-.05.023-.04.052-.04.104-.04.162l-.001.04c.002-.004-.026.006-.111.016h-.002c.007 0-.018.002-.05.002l-.128.004a336.384 336.384 0 01-2.07.014c-1.343.005-3.168.006-5.149.006H4.707v-.012c0-.076-.008-.143-.053-.201-.024-.031-.065-.039-.1-.055zm-2.682.122c.075.03.151.05.31.063.182.014.46.022.944.033h.002c.54.011.818.017.953.03.055.004.07.011.078.013.037.45.07.902.094 1.354v.001c.037.602.058.889.086 1.288-.019-.22-.038-.523-.05-.596v-.002a5.813 5.813 0 01-.044-.383c-.017-.189-.036-.422-.05-.652h.001a20.18 20.18 0 00-.062-.805c-.003-.025-.007-.044-.01-.06l-.004-.024c0-.004-.002-.008-.004-.014a.124.124 0 00-.012-.023v-.002h-.001c-.001 0-.014-.018-.02-.023-.006-.005-.013-.007-.018-.01-.01-.006-.016-.01-.023-.012a.316.316 0 00-.045-.012 1.245 1.245 0 00-.117-.013 4.314 4.314 0 00-.361-.014c-.262 0-.723-.013-1.024-.03a3.882 3.882 0 01-.49-.036c-.052-.012-.091-.043-.133-.07zm20.25.004l-.164.076c.027-.013.01-.003-.004-.002a6.561 6.561 0 01-.29.016c-.185.006-.432.01-.696.01-.366 0-.608.003-.766.01a1.687 1.687 0 00-.182.013.298.298 0 00-.06.016.121.121 0 00-.066.053c-.001 0-.002 0-.002.002-.002.002-.002.004-.002.005l-.006.01c-.003.006-.003.011-.004.016a.26.26 0 00-.006.025l-.008.065a21.492 21.492 0 00-.043.803 16 16 0 01-.064 1.07v.002c-.031.261-.051.524-.06.787-.002.036-.007.043-.009.078.026-.396.052-.683.079-1.393.017-.416.03-.803.04-1.09l.012-.345.002-.112c.008-.002.004-.001.028-.003.086-.01.271-.012.61-.012.409 0 .816-.01 1.224-.033.211-.014.322-.037.437-.067zm-1.998.385h.016c-.013.01-.01.02-.018.031l.002-.031zm-16.287.035l.039.002c.023.206.042.411.055.617-.008-.074-.018-.18-.026-.242a5.37 5.37 0 00-.035-.254.999.999 0 00-.027-.111l-.006-.012zm-.924.09c.204.004.403.01.545.016.084.003.154.007.201.011l.018.002.008.037c.01.058.02.142.033.245.013.103.027.27.04.408l-.288-.258h-.002a7.027 7.027 0 00-.518-.43l-.002-.002-.035-.029zm18.059 0v.066l-.024-.064.024-.002zm-.164.004c-.093.092-.186.19-.286.29a1.236 1.236 0 01-.293.22c.014-.163.012-.327.034-.489 0 .001.006-.003.047-.007.066-.008.301-.01.498-.014zm-18.448.047h.127c.063 0 .175.01.205.013l.141.114.002.002c.176.132.344.273.506.422l.342.302c.002.028.006.082.017.174.013.106.026.21.045.283l.014.123h-.018l-.449-.035c-.543-.043-.9-.278-1.133-.738a2.052 2.052 0 01-.168-.611v-.024c.122-.018.246-.033.37-.025zm18.65.015c.285-.004.573.014.868.018l-.014.13a1.38 1.38 0 01-1.238 1.237h-.002c-.138.016-.237.032-.299.035a.252.252 0 01-.06-.002l-.002.002c.001.002-.014-.035-.016-.123-.002-.086 0-.216.002-.392v-.004l.014-.256c.14-.063.272-.16.394-.283.134-.135.256-.273.354-.362zm-1.413 3.438c-.006.03-.006.094-.012.121-.02.094-.059.114-.084.18.034-.083.072-.167.096-.301zm-14.832.697c.051.038.081.098.142.12-.023-.007-.046-.012-.066-.022-.038-.021-.043-.071-.076-.098z" overflow="visible"/><path style="line-height:normal;font-variant-ligatures:normal;font-variant-position:normal;font-variant-caps:normal;font-variant-numeric:normal;font-variant-alternates:normal;font-variant-east-asian:normal;font-feature-settings:normal;font-variation-settings:normal;text-indent:0;text-align:start;text-decoration-line:none;text-decoration-style:solid;text-decoration-color:#000;text-transform:none;text-orientation:mixed;white-space:normal;shape-padding:0;shape-margin:0;inline-size:0;isolation:auto;mix-blend-mode:normal;solid-color:#000;solid-opacity:1" d="M12.002 0a7.9 7.9 0 00-5.545 2.298c-.22.22-.43.451-.628.692-.76.953-1.383 2.487-1.614 3.98a11.22 11.22 0 00-.083 1.09l-.022.706h-.496c-.261 0-.522.013-.782.038a1.765 1.765 0 00-1.437 1.21c-.079.223-.079.275-.079 4.313 0 2.62.015 4.131.038 4.222a.941.941 0 00.397.518c.189.136.189.136.74.162.303.016.764.03 1.029.03.283 0 .491.02.506.042.015.023.05.416.076.881.03.461.072.934.094 1.047.02.117.065.613.095 1.104.034.491.076.968.098 1.066.06.223.208.412.409.525.132.068.238.076 2.286.076h2.151l1.032-1.104 1.036-1.1.813.023.813.023.189.211.99 1.074.794.87 2.049-.008c2.268-.012 2.203-.004 2.472-.265.234-.227.321-.639.37-1.712.01-.26.03-.52.06-.78.02-.135.05-.623.065-1.08.015-.458.038-.855.057-.881.022-.038.264-.045.994-.045.53 0 .994-.015 1.032-.034l.242-.114a.703.703 0 00.408-.518c.03-.128.038-1.512.03-4.301l-.007-4.106-.087-.204a1.89 1.89 0 00-.892-.975 1.3 1.3 0 00-.628-.17 10.838 10.838 0 00-.756-.038c-.264 0-.393-.011-.412-.045a8.57 8.57 0 01-.057-.919 6.774 6.774 0 00-.226-1.852 7.908 7.908 0 00-1.501-3.02c-.43-.497-.904-.952-1.418-1.361A8.07 8.07 0 0012.002 0zm-.136.197c.503-.004 1.036.022 1.369.079 1.682.287 3.103 1.032 4.283 2.245A7.643 7.643 0 0119.68 7.98l.026.941h.386c.718 0 1.236.06 1.474.163.428.208.753.582.9 1.035.075.242.075.246.064 4.325-.011 3.995-.011 4.086-.087 4.234-.128.253-.215.29-.763.325-.406.023-.812.034-1.218.034-.68 0-.73.007-.73.072 0 .037-.022.748-.056 1.58-.083 2.241-.132 2.642-.34 2.891-.19.227-.208.227-2.359.257l-1.962.027-.624-.68c-.344-.37-.69-.739-1.04-1.104l-.415-.427h-1.712l-1.036 1.1-1.036 1.096H7.137c-1.107-.004-2.079-.02-2.154-.034a.56.56 0 01-.393-.33c-.053-.128-.114-.899-.242-2.97a47.614 47.614 0 00-.095-1.384c-.019-.08-.041-.08-1.123-.102-.967-.023-1.118-.034-1.262-.098-.234-.106-.325-.257-.367-.605-.022-.166-.03-2.003-.026-4.234l.011-3.939.121-.257c.169-.345.448-.625.794-.793.21-.101.44-.153.673-.152.23-.015.593-.026.805-.03h.39l.018-.2c.012-.114.03-.48.038-.824.008-.597.092-1.19.25-1.766a8.588 8.588 0 011.674-3.258 9.564 9.564 0 011.557-1.46C8.661.848 9.742.439 10.85.262a6.78 6.78 0 011.017-.064zm.17 2.623a4.891 4.891 0 00-2.173.491A4.99 4.99 0 007.36 6.165c-.189.579-.211.741-.234 1.89l-.019 1.093h9.745V8.1c0-1.138-.022-1.338-.226-1.966a4.952 4.952 0 00-3.07-3.066 4.903 4.903 0 00-1.52-.249zm-1.663 1.777c.321 0 .67.223.802.514.091.244.091.512 0 .756a.983.983 0 01-.526.472.892.892 0 01-1.089-.499 1.089 1.089 0 01.016-.744.934.934 0 01.793-.496zm3.213.007c.586 0 1.02.56.832 1.183a1.01 1.01 0 01-.544.548c-.696.205-1.312-.366-1.15-1.058a.983.983 0 01.605-.643.975.975 0 01.261-.03zm-1.523 2.578c.567 0 1.206.076 1.368.178.027.015.06.125.076.246.019.17.011.215-.03.211-.176-.023-.35-.048-.526-.075a6.66 6.66 0 00-1.814.003c-.265.053-.322.023-.288-.143l.038-.178c.023-.113.151-.151.658-.215a4.12 4.12 0 01.518-.027zM4.416 9.677c-.065 0-.068.159-.068 4.623v4.623l.102.027c.128.03.162.075.162.211v.106h7.213c3.961 0 7.295-.011 7.409-.026.189-.023.196-.027.196-.151 0-.106.015-.125.106-.136l.102-.012.012-4.63c.007-4.612.007-4.635-.068-4.635-.076 0-.076.023-.076 3.708 0 2.042-.011 4.094-.023 4.567l-.026.858H4.537v-3.686c0-2.026-.012-4.082-.023-4.566-.026-.82-.03-.88-.098-.88zm7.454 3.432c-.4 0-.427 0-.646.121-.415.22-.722.6-.85 1.051 0 .012.082.02.18.02.178 0 .182 0 .265-.17.126-.255.332-.462.586-.59.315-.134.671-.13.983.01.242.122.45.333.567.583.083.162.09.166.265.166h.181l-.034-.113a1.682 1.682 0 00-.832-.96c-.234-.114-.272-.118-.665-.118zm.038 1.456c-.843 0-1.557.011-1.588.026-.053.02-.06.163-.06 1.21v1.187l.177.015c.314.023 2.828.019 2.949-.008l.113-.022.012-1.15c.003-.82 0-1.168-.038-1.205-.03-.042-.321-.053-1.565-.053zm-9.96 4.69c-.031 0-.046.031-.046.084v.09l.91.016c.5.008.923.026.938.042.03.03.091.521.144 1.164l.038.423c0 .008.038.012.087.012.087 0 .09-.012.075-.163-.024-.286-.046-.572-.068-.858-.015-.235-.036-.47-.064-.703a26.48 26.48 0 00-.979-.05c-.346-.01-.691-.028-1.036-.052zm19.75.031h-.132l-.552.012c-.529.007-.964.022-.971.03-.012.007-.03.298-.05.65l-.045.87c-.015.226-.011.238.068.238.08 0 .083-.016.068-.239 0-.436.028-.872.087-1.304.02-.087.023-.087.9-.098.858-.008.88-.011.892-.087.008-.05.008-.068-.265-.068zm-19.331.212c-.154-.01-.31 0-.461.03-.046.076.06.548.17.767.246.484.642.745 1.21.79l.453.035h.125l-.023-.227c-.03-.102-.068-.495-.068-.495l-.367-.326a6.94 6.94 0 00-.514-.427l-.162-.132s-.159-.015-.242-.015h-.114zm18.606.015c-.22.189-.53.616-.802.696l-.015.298c-.004.71-.064.643.48.579.7-.068 1.253-.62 1.323-1.32l.023-.234c-.34 0-.673-.027-1.01-.019z" overflow="visible"/></g></svg>