<?xml version="1.0" encoding="UTF-8" standalone="no"?>
<svg
   xmlns:dc="http://purl.org/dc/elements/1.1/"
   xmlns:cc="http://creativecommons.org/ns#"
   xmlns:rdf="http://www.w3.org/1999/02/22-rdf-syntax-ns#"
   xmlns:svg="http://www.w3.org/2000/svg"
   xmlns="http://www.w3.org/2000/svg"
   xmlns:sodipodi="http://sodipodi.sourceforge.net/DTD/sodipodi-0.dtd"
   xmlns:inkscape="http://www.inkscape.org/namespaces/inkscape"
   width="39.134174"
   height="39.12608"
   viewBox="0 0 39.134174 39.12608"
   version="1.1"
   id="svg29"
   sodipodi:docname="pixelfed-full-color.svg"
   inkscape:version="0.92.4 (0.92.4+201904182354+e4480c5)">
  <metadata
     id="metadata33">
    <rdf:RDF>
      <cc:Work
         rdf:about="">
        <dc:format>image/svg+xml</dc:format>
        <dc:type
           rdf:resource="http://purl.org/dc/dcmitype/StillImage" />
        <dc:title>04/full/color/svg/pixelfed-full-color</dc:title>
      </cc:Work>
    </rdf:RDF>
  </metadata>
  <sodipodi:namedview
     pagecolor="#ffffff"
     bordercolor="#666666"
     borderopacity="1"
     objecttolerance="10"
     gridtolerance="10"
     guidetolerance="10"
     inkscape:pageopacity="0"
     inkscape:pageshadow="2"
     inkscape:window-width="1920"
     inkscape:window-height="1031"
     id="namedview31"
     showgrid="false"
     fit-margin-top="0"
     fit-margin-left="0"
     fit-margin-right="0"
     fit-margin-bottom="0"
     inkscape:zoom="3.845971"
     inkscape:cx="49.871682"
     inkscape:cy="8.0148367"
     inkscape:window-x="0"
     inkscape:window-y="25"
     inkscape:window-maximized="1"
     inkscape:current-layer="svg29" />
  <!-- Generator: Sketch 50.2 (55047) - http://www.bohemiancoding.com/sketch -->
  <title
     id="title2">04/full/color/svg/pixelfed-full-color</title>
  <desc
     id="desc4">Created with Sketch.</desc>
  <defs
     id="defs6" />
  <g
     id="photos"
     transform="translate(0,-0.00404746)"
     style="fill:none;fill-rule:nonzero;stroke:none;stroke-width:1">
    <g
       id="Group-3">
      <g
         id="Group-2">
        <path
           d="m 17.470167,18.705316 c 0.04048,0.282647 0.06881,0.568667 0.06881,0.862108 0,3.339151 -2.732032,6.071183 -6.071183,6.071183 H 6.0711833 C 2.7320325,25.638607 0,22.906575 0,19.567424 c 0,-3.014005 2.2281243,-5.526126 5.117333,-5.987536 0,0 6.745e-4,6.74e-4 6.745e-4,6.74e-4 0,-6.74e-4 -6.745e-4,-0.0013 -6.745e-4,-0.0013 0.311654,-0.04992 0.6287047,-0.08297 0.9538503,-0.08297 h 5.3966077 c 3.04571,0 5.579417,2.275344 6.002376,5.209075 z"
           id="Combined-Shape"
           inkscape:connector-curvature="0"
           style="fill:#bf3f8a" />
        <path
           d="M 25.558333,5.1132855 C 25.092875,2.2281243 22.582778,0.00404746 19.571471,0.00404746 c -3.011307,0 -5.521404,2.22407684 -5.986861,5.10923804 0.258363,0.186183 0.507956,0.3885557 0.74001,0.6206099 l 3.816076,3.816076 c 0.668504,0.6685046 1.141382,1.4597826 1.430775,2.3009786 0.443871,1.28844 0.443871,2.695605 0,3.984045 -0.199674,0.578786 -0.488393,1.131264 -0.86683,1.638545 0.283997,0.04115 0.572041,0.07016 0.86683,0.07016 0.29479,0 0.582834,-0.02833 0.86683,-0.07016 0.626681,-0.09107 1.221657,-0.277251 1.772111,-0.545732 1.22503,-0.596999 2.22003,-1.591999 2.817029,-2.817029 0.389905,-0.800047 0.615214,-1.693185 0.615214,-2.638941 V 6.0752308 c 0,-0.3278439 -0.03373,-0.6475929 -0.08432,-0.9619453 z"
           id="Shape"
           inkscape:connector-curvature="0"
           style="fill:#ed8611" />
        <path
           d="m 24.818323,33.400278 -3.816076,-3.816076 c -0.668505,-0.668505 -1.141383,-1.459783 -1.430776,-2.300979 -0.443871,-1.28844 -0.443871,-2.695605 0,-3.984045 0.199675,-0.578786 0.488393,-1.131264 0.86683,-1.638545 -0.283996,-0.04115 -0.57204,-0.07016 -0.86683,-0.07016 -0.294789,0 -0.582833,0.02833 -0.86683,0.07016 -0.626681,0.09107 -1.221657,0.277251 -1.772111,0.545732 -1.22503,0.597 -2.220029,1.591999 -2.817029,2.817029 -0.389905,0.800047 -0.615213,1.693186 -0.615213,2.638941 v 5.396607 c 0,0.327844 0.03373,0.647593 0.08432,0.961946 0.465457,2.885161 2.975554,5.109238 5.986861,5.109238 3.011307,0 5.521404,-2.224077 5.986862,-5.109238 -0.258363,-0.186858 -0.507956,-0.389231 -0.74001,-0.62061 z"
           id="path11"
           inkscape:connector-curvature="0"
           style="fill:#2e86dd" />
        <path
           d="m 34.024935,13.580562 c -0.186183,0.258363 -0.388556,0.507956 -0.62061,0.74001 l -3.816076,3.816076 c -0.668505,0.668505 -1.459782,1.140708 -2.300978,1.430776 -1.28844,0.443871 -2.695606,0.443871 -3.984046,0 -0.578786,-0.199675 -1.131264,-0.488393 -1.638545,-0.86683 -0.04115,0.283996 -0.06948,0.57204 -0.06948,0.86683 0,0.294789 0.02833,0.582833 0.06948,0.86683 0.09107,0.626681 0.277251,1.221657 0.545732,1.772111 0.597,1.22503 1.592,2.220029 2.817029,2.817029 0.800047,0.389905 1.693186,0.615213 2.638941,0.615213 h 5.396608 c 0.327844,0 0.647593,-0.03373 0.961945,-0.08432 2.885161,-0.465457 5.109238,-2.975554 5.109238,-5.986861 0,-3.011307 -2.224077,-5.522079 -5.109238,-5.986862 z"
           id="path13"
           inkscape:connector-curvature="0"
           style="fill:#9ee85d" />
        <path
           d="M 33.404325,5.7338954 C 31.275364,3.6049337 27.927443,3.402561 25.558333,5.1132855 c 0.05059,0.3143524 0.08432,0.6341014 0.08432,0.9619453 v 5.3966072 c 0,0.945756 -0.225309,1.838894 -0.615214,2.638941 -0.596999,1.22503 -1.591999,2.22003 -2.817029,2.817029 -0.550454,0.268481 -1.14543,0.454664 -1.772111,0.545732 0.172017,0.230031 0.355502,0.45399 0.563946,0.662434 0.208444,0.208444 0.432403,0.391928 0.662433,0.563945 0.507281,0.378437 1.059759,0.66783 1.638545,0.86683 1.28844,0.443871 2.695606,0.443871 3.984046,0 0.841196,-0.290067 1.632473,-0.762271 2.300978,-1.430775 l 3.816076,-3.816076 c 0.232054,-0.232054 0.434427,-0.481648 0.62061,-0.74001 1.711399,-2.369111 1.508352,-5.7163564 -0.62061,-7.8459926 z"
           id="path15"
           inkscape:connector-curvature="0"
           style="fill:#f0c51a" />
        <path
           d="m 34.024935,25.554285 c -0.314352,0.05059 -0.634101,0.08432 -0.961945,0.08432 h -5.396608 c -0.945755,0 -1.838894,-0.225308 -2.638941,-0.615213 -1.225029,-0.597 -2.220029,-1.591999 -2.817029,-2.817029 -0.268481,-0.550454 -0.454664,-1.14543 -0.545732,-1.772111 -0.23003,0.172017 -0.453989,0.355501 -0.662433,0.563945 -0.208444,0.208444 -0.391929,0.432404 -0.563946,0.662434 -0.378437,0.507281 -0.66783,1.059759 -0.86683,1.638545 -0.443871,1.28844 -0.443871,2.695605 0,3.984045 0.290068,0.841196 0.762271,1.632474 1.430776,2.300979 l 3.816076,3.816076 c 0.232054,0.232054 0.481647,0.434427 0.74001,0.62061 2.36911,1.710724 5.717031,1.508351 7.845992,-0.62061 2.128962,-2.128962 2.332009,-5.476882 0.62061,-7.845993 z"
           id="path17"
           inkscape:connector-curvature="0"
           style="fill:#49b85f" />
        <path
           d="M 19.571471,11.851624 C 19.281404,11.010428 18.8092,10.219151 18.140696,9.550646 L 14.32462,5.7338954 C 14.092566,5.5018412 13.842973,5.2994685 13.58461,5.1132855 11.215499,3.402561 7.867579,3.6049337 5.7386174,5.7338954 3.6096558,7.862857 3.407283,11.209428 5.117333,13.578539 c 0.311654,-0.04924 0.6287047,-0.0823 0.9538503,-0.0823 h 5.3966077 c 3.04571,0 5.579417,2.275344 6.002376,5.209075 0.0027,-0.002 0.0054,-0.0034 0.0081,-0.0054 0.230031,-0.172017 0.45399,-0.355501 0.662434,-0.563945 0.208444,-0.208444 0.391928,-0.432403 0.563945,-0.662434 0.378437,-0.507281 0.66783,-1.059759 0.86683,-1.638545 0.443871,-1.28844 0.443871,-2.695605 0,-3.983371 z"
           id="path19"
           inkscape:connector-curvature="0"
           style="fill:#ed5b47" />
        <path
           d="m 18.140696,20.998199 c -0.208444,-0.208444 -0.432403,-0.391928 -0.662434,-0.563945 -0.507281,-0.378437 -1.059759,-0.66783 -1.638545,-0.86683 -1.28844,-0.443871 -2.695605,-0.443871 -3.984045,0 -0.841196,0.290067 -1.632474,0.762271 -2.3009786,1.430775 l -3.816076,3.816076 c -0.2320541,0.232054 -0.4344269,0.481648 -0.6206099,0.74001 -1.7107245,2.369111 -1.5083517,5.717031 0.6206099,7.845993 2.1289616,2.128961 5.4768816,2.331334 7.8459926,0.62061 -0.05059,-0.314353 -0.08432,-0.634102 -0.08432,-0.961946 v -5.396607 c 0,-0.945755 0.225308,-1.838894 0.615213,-2.638941 0.597,-1.22503 1.591999,-2.220029 2.817029,-2.817029 0.550454,-0.268481 1.14543,-0.454664 1.772111,-0.545732 -0.172017,-0.23003 -0.355501,-0.45399 -0.563945,-0.662434 z"
           id="path21"
           inkscape:connector-curvature="0"
           style="fill:#8d59a8" />
      </g>
      <path
         d="m 18.383795,24.289386 h 3.427493 c 3.228836,0 5.846325,-2.568194 5.846325,-5.736222 0,-3.168028 -2.617489,-5.736221 -5.846325,-5.736221 h -4.94689 c -1.86279,0 -3.372879,1.48165 -3.372879,3.309358 v 12.880464 z"
         id="Path-6-Copy-2"
         inkscape:connector-curvature="0"
         style="fill:#ffffff" />
    </g>
  </g>
</svg>
