<?xml version="1.0" encoding="UTF-8" standalone="no"?>
<!DOCTYPE svg PUBLIC "-//W3C//DTD SVG 1.1//EN" "http://www.w3.org/Graphics/SVG/1.1/DTD/svg11.dtd">
<svg width="100%" height="100%" viewBox="0 0 979 785" version="1.1" xmlns="http://www.w3.org/2000/svg" xmlns:xlink="http://www.w3.org/1999/xlink" xml:space="preserve" xmlns:serif="http://www.serif.com/" style="fill-rule:evenodd;clip-rule:evenodd;stroke-linejoin:round;stroke-miterlimit:2;">
    <g transform="matrix(0.89987,0,0,0.89987,49.1385,39.3012)">
        <path d="M0,22.554C0,3.486 22.212,-6.946 36.874,5.236L424.677,327.46C462.177,358.619 516.546,358.619 554.046,327.46L941.85,5.236C956.511,-6.946 978.723,3.486 978.723,22.554L978.723,683.7C978.723,739.646 933.393,785 877.476,785L101.247,785C45.33,785 0,739.646 0,683.7L0,22.554Z" style="fill:rgb(109,74,255);fill-rule:nonzero;"/>
    </g>
    <g transform="matrix(0.89987,0,0,0.89987,49.1385,39.3012)">
        <path d="M621.492,271.42L621.546,271.464L426.244,444.071C392.975,473.475 343.246,474.216 309.116,445.817L0,188.604L0,22.554C0,3.486 22.212,-6.946 36.874,5.236L424.677,327.46C462.177,358.619 516.546,358.619 554.046,327.46L621.492,271.42Z" style="fill:url(#_Linear1);"/>
    </g>
    <g transform="matrix(0.89987,0,0,0.89987,49.1385,39.3012)">
        <path d="M770.604,147.526L770.604,785L877.476,785C933.393,785 978.723,739.642 978.723,683.699L978.723,22.555C978.723,3.487 956.51,-6.947 941.849,5.237L770.604,147.526Z" style="fill:url(#_Linear2);"/>
    </g>
    <defs>
        <linearGradient id="_Linear1" x1="0" y1="0" x2="1" y2="0" gradientUnits="userSpaceOnUse" gradientTransform="matrix(-223.311,-952.849,952.849,-223.311,738.261,384.02)"><stop offset="0" style="stop-color:rgb(226,219,255);stop-opacity:1"/><stop offset="1" style="stop-color:rgb(109,74,255);stop-opacity:1"/></linearGradient>
        <linearGradient id="_Linear2" x1="0" y1="0" x2="1" y2="0" gradientUnits="userSpaceOnUse" gradientTransform="matrix(-761.972,-1626.88,1626.88,-761.972,1276.84,1301.35)"><stop offset="0" style="stop-color:rgb(226,219,255);stop-opacity:1"/><stop offset="0.27" style="stop-color:rgb(226,219,255);stop-opacity:1"/><stop offset="1" style="stop-color:rgb(109,74,255);stop-opacity:1"/></linearGradient>
    </defs>
</svg>
