<svg xmlns="http://www.w3.org/2000/svg" width="100%" height="100%" viewBox="0 0 979 785" fill-rule="evenodd" stroke-linejoin="round" stroke-miterlimit="2" xmlns:v="https://vecta.io/nano"><path d="M71.138 76.228c0-16.301 18.989-25.22 31.524-14.805L434.2 336.896c32.059 26.638 78.54 26.638 110.599 0L876.338 61.423c12.534-10.415 31.523-1.496 31.523 14.805v565.222c0 47.829-38.753 86.603-86.557 86.603H157.696c-47.804 0-86.557-38.774-86.557-86.603V76.228z" fill="#6d4aff" fill-rule="nonzero"/><g transform="matrix(.854913 0 0 .854913 71.1383 56.9465)"><path d="M621.492 271.42l.054.044-195.302 172.607c-33.269 29.404-82.998 30.145-117.128 1.746L0 188.604V22.554C0 3.486 22.212-6.946 36.874 5.236L424.677 327.46c37.5 31.159 91.869 31.159 129.369 0l67.446-56.04z" fill="url(#A)"/><path d="M770.604 147.526V785h106.872c55.917 0 101.247-45.358 101.247-101.301V22.555c0-19.068-22.213-29.502-36.874-17.318L770.604 147.526z" fill="url(#B)"/></g><defs><linearGradient id="A" x1="738.261" y1="384.02" x2="514.95" y2="-568.829" gradientUnits="userSpaceOnUse"><stop offset="0" stop-color="#e2dbff"/><stop offset="1" stop-color="#6d4aff"/></linearGradient><linearGradient id="B" x1="1276.84" y1="1301.35" x2="514.868" y2="-325.53" gradientUnits="userSpaceOnUse"><stop offset="0" stop-color="#e2dbff"/><stop offset=".27" stop-color="#e2dbff"/><stop offset="1" stop-color="#6d4aff"/></linearGradient></defs></svg>