<svg width="552" height="552" viewBox="0 0 552 552" fill="none" xmlns="http://www.w3.org/2000/svg">
<path class="box" d="M0 130C0 58.203 58.203 0 130 0H422C493.797 0 552 58.203 552 130V422C552 493.797 493.797 552 422 552H130C58.203 552 0 493.797 0 422V130Z" fill="white"/>
<path fill-rule="evenodd" clip-rule="evenodd" d="M243.637 419.72C256.737 443.455 290.38 444.741 305.253 422.075L443.939 210.727C458.646 188.314 444.575 158.264 417.942 155.21L145.351 123.952C116.289 120.62 95.596 151.503 109.732 177.114L243.637 419.72Z" fill="url(#paint0_linear_5497_105466)"/>
<path fill-rule="evenodd" clip-rule="evenodd" d="M243.637 419.72C256.737 443.455 290.38 444.741 305.253 422.075L443.939 210.727C458.646 188.314 444.575 158.264 417.942 155.21L145.351 123.952C116.289 120.62 95.596 151.503 109.732 177.114L243.637 419.72Z" fill="url(#paint1_linear_5497_105466)"/>
<path d="M263.755 379.083L251.447 397.584C246.46 405.081 235.301 404.619 230.95 396.736L243.637 419.722C245.899 423.821 248.774 427.25 252.058 430.002L252.059 430C267.797 443.184 292.948 440.825 305.253 422.073L443.939 210.726C458.646 188.313 444.575 158.264 417.942 155.21L145.351 123.951C116.289 120.619 95.596 151.503 109.732 177.113L110.808 179.063L342.829 205.909C357.619 207.62 365.42 224.313 357.246 236.756L263.755 379.083Z" fill="url(#paint2_linear_5497_105466)"/>
<defs>
<linearGradient id="paint0_linear_5497_105466" x1="294.571" y1="-66.9807" x2="306.3" y2="331.785" gradientUnits="userSpaceOnUse">
<stop offset="0.988738" stop-color="#6D4AFF"/>
</linearGradient>
<linearGradient id="paint1_linear_5497_105466" x1="296.864" y1="-11.7772" x2="199.399" y2="407.86" gradientUnits="userSpaceOnUse">
<stop offset="0.47989" stop-color="#24ECC6" stop-opacity="0"/>
<stop offset="0.994421" stop-color="#24ECC6"/>
</linearGradient>
<linearGradient id="paint2_linear_5497_105466" x1="329.101" y1="453.838" x2="113.001" y2="84.2833" gradientUnits="userSpaceOnUse">
<stop offset="0.0660125" stop-color="#ABFFEF"/>
<stop offset="0.44988" stop-color="#CAC9FF"/>
<stop offset="1" stop-color="#6D4AFF"/>
</linearGradient>
</defs>
</svg>
