<svg xmlns="http://www.w3.org/2000/svg" fill="#fff" viewBox="0 0 24 24"><path d="M22.98 2.667C22.98 1.255 21.727 0 20.314 0c-1.412 0-2.667 1.255-2.667 2.667v.157L5.884 6.588c-.47-.784-1.255-1.255-2.196-1.255C2.275 5.333 1.02 6.588 1.02 8s1.255 2.667 2.667 2.667c.313 0 .627 0 .784-.157l7.686 9.725c-.157.314-.157.628-.157 1.098C12 22.745 13.255 24 14.667 24s2.667-1.255 2.667-2.667c0-.784-.314-1.568-.941-2.039l4.078-13.96c1.412-.158 2.51-1.256 2.51-2.667zm-8.313 16c-.47 0-.784.157-1.255.313l-7.53-9.568c.158-.314.314-.785.314-1.098l12.079-3.922c.157.157.314.314.47.314z" fill-rule="evenodd" clip-rule="evenodd"/></svg>