<svg xmlns="http://www.w3.org/2000/svg" width="79.351" height="90.709" viewBox="0 0 20.995 24"><path d="M9.699 23.595C5.662 21.484 2.9 18.054 1.313 13.182.3 10.074-.197 5.922.072 2.803l.03-.358.764-.322C3.052 1.203 6.052.505 9.515.112L10.499 0l.984.112c3.468.394 6.458 1.09 8.648 2.011l.764.322.03.358c.078.904.091 2.015.037 3.055-.407 7.78-3.255 13.638-8.21 16.886-.55.362-2.166 1.26-2.258 1.256-.012 0-.37-.183-.795-.405zm1.355-1.541c3.702-2.087 6.178-5.495 7.498-10.32.574-2.095.857-4.275.865-6.651l.005-1.476-.458-.186c-1.523-.617-4.392-1.262-7.144-1.607-1.323-.165-1.316-.165-2.642.002-2.789.35-5.631.99-7.144 1.608l-.458.187.002 1.42c.001.78.033 1.748.07 2.148.377 4.008 1.481 7.463 3.239 10.136l.301.458.027-6.493.027-6.493.813.706.814.706.413-.399c.94-.906 2.318-1.305 4.315-1.25 1.106.032 1.523.125 2.334.525a4.777 4.777 0 011.671 1.321c1.467 1.833 1.73 4.637.637 6.822-.68 1.362-1.819 2.3-3.27 2.693a5.124 5.124 0 01-2.713.03c-.616-.157-.993-.325-1.567-.7a6.335 6.335 0 00-.483-.298c-.014 0-.026 1.342-.026 2.983v2.983l.418.297c.603.429 1.753 1.108 1.894 1.118.04.003.293-.119.563-.27zM10.5 12.04c.212-.573.377-1.048.368-1.055l-.187-.13c-.18-.124-.344-.457-.342-.698.002-.25.187-.58.4-.712.577-.356 1.324.044 1.324.71 0 .318-.094.516-.345.724l-.187.155.403 1.022c.222.563.414 1.033.426 1.045.012.012.147-.07.3-.182 1.154-.848 1.515-2.581.824-3.961-.513-1.027-1.638-1.642-2.676-1.464-.983.168-1.747.846-2.13 1.889-.177.485-.222 1.295-.099 1.786.117.464.409 1.044.686 1.364.247.286.75.652.811.59.021-.022.212-.51.424-1.083z" fill="#00000d"/></svg>