<?xml version="1.0" encoding="UTF-8" standalone="no"?>
<!DOCTYPE svg PUBLIC "-//W3C//DTD SVG 1.1//EN" "http://www.w3.org/Graphics/SVG/1.1/DTD/svg11.dtd">
<svg width="100%" height="100%" viewBox="0 0 1080 1080" version="1.1" xmlns="http://www.w3.org/2000/svg" xmlns:xlink="http://www.w3.org/1999/xlink" xml:space="preserve" xmlns:serif="http://www.serif.com/" style="fill-rule:evenodd;clip-rule:evenodd;stroke-linejoin:round;stroke-miterlimit:2;">
    <g transform="matrix(15.0955,0,0,15.0955,-3301.81,-330.256)">
        <path d="M279.9,46C279.9,52.2 277.6,57.8 273.5,63.9L254.7,92.2L239.1,92.2L255.8,68.5C254.8,68.6 253.8,68.7 252.5,68.7C238.9,68.7 229.1,58.9 229.1,46.2C229.1,33 240,23.1 254.5,23.1C269,23.1 279.9,32.9 279.9,46ZM266.5,46.1C266.5,39.4 261.4,34.8 254.5,34.8C247.6,34.8 242.5,39.5 242.5,46.1C242.5,52.7 247.6,57.3 254.5,57.3C261.4,57.4 266.5,52.8 266.5,46.1Z" style="fill:rgb(230,0,74);fill-rule:nonzero;"/>
    </g>
</svg>
