<?xml version="1.0" encoding="UTF-8" standalone="no"?>
<!DOCTYPE svg PUBLIC "-//W3C//DTD SVG 1.1//EN" "http://www.w3.org/Graphics/SVG/1.1/DTD/svg11.dtd">
<svg width="100%" height="100%" viewBox="0 0 183 179" version="1.1" xmlns="http://www.w3.org/2000/svg" xmlns:xlink="http://www.w3.org/1999/xlink" xml:space="preserve" xmlns:serif="http://www.serif.com/" style="fill-rule:evenodd;clip-rule:evenodd;stroke-linejoin:round;stroke-miterlimit:2;">
    <g transform="matrix(1.3718,0,0,1.3718,-33.7813,13.8497)">
        <path d="M123.499,105.419C124.004,106.464 124.509,108.014 125.59,108.627C126.389,108.951 127.258,109.062 128.113,108.951L143.759,108.951C145.164,108.948 146.319,107.79 146.319,106.385C146.319,105.973 146.22,105.568 146.03,105.202C145.057,103.328 144.047,101.489 143.074,99.615L137.054,88.259C136.715,87.75 136.459,87.19 136.297,86.601C136.134,86.012 136.08,86.241 136.369,85.267C136.657,84.546 140.298,77.372 140.514,76.651C141.992,72.073 159.981,28.706 108.935,24.272C109.321,24.479 109.694,24.708 110.053,24.957C114.414,27.756 118.126,31.456 120.94,35.808C127.282,45.745 128.309,58.204 123.68,69.045C122.922,70.824 122.018,72.536 120.976,74.164C119.198,76.951 117.038,79.475 114.559,81.662C113.964,82.075 113.5,82.651 113.225,83.321C113.026,83.925 113.064,84.583 113.333,85.159L123.499,105.419Z" style="fill:white;fill-rule:nonzero;"/>
    </g>
    <g transform="matrix(1.3718,0,0,1.3718,-33.7813,13.8497)">
        <path d="M36.404,48.749C44.624,43.162 52.915,42.801 55.51,50.516C55.482,50.646 55.47,50.779 55.474,50.912C53.219,70.116 66.986,87.831 86.152,90.386C89.383,90.825 92.658,90.813 95.886,90.35C96.679,90.242 97.436,90.098 98.229,89.954C98.792,89.799 99.378,89.75 99.959,89.809C100.86,100.84 66.253,103.724 44.84,77.336C39.541,70.811 36.981,57.654 36.404,48.749" style="fill:white;fill-rule:nonzero;"/>
    </g>
    <g transform="matrix(1.3718,0,0,1.3718,-33.7813,13.8497)">
        <path d="M143.29,71.064C142.422,73.83 141.325,76.519 140.01,79.103C139.721,79.644 139.469,80.148 139.181,80.689C138.784,81.41 138.351,82.167 137.919,82.888C137.306,83.679 136.786,84.538 136.369,85.447L136.405,85.303C136.695,84.584 136.947,83.85 137.162,83.104C144.823,59.258 132.334,33.244 108.935,24.308C108.755,24.2 108.611,24.128 108.431,24.02C109.8,24.741 101.942,4.95 118.272,7.509C118.957,7.87 119.642,8.266 120.327,8.663C125.009,11.47 129.218,14.998 132.8,19.117C136.717,23.614 139.838,28.747 142.028,34.294C144.362,40.348 145.607,46.768 145.705,53.256C145.881,59.284 145.065,65.3 143.29,71.064Z" style="fill:white;fill-rule:nonzero;"/>
    </g>
    <g transform="matrix(1.3718,0,0,1.3718,-33.7813,13.8497)">
        <path d="M122.634,15.548C122.63,16.77 122.397,17.98 121.949,19.117C120.485,22.762 116.937,25.165 113.009,25.173C111.412,25.168 109.84,24.772 108.431,24.02C103.991,21.534 99.078,20.01 94.011,19.55C87.711,18.966 81.369,20.1 75.662,22.83C72.883,24.128 70.289,25.789 67.947,27.769C65.745,29.617 63.772,31.723 62.071,34.041C58.819,38.523 56.636,43.69 55.691,49.146C38.135,27.661 74.184,-6.947 114.631,6.067C115.316,6.247 116.037,6.464 116.722,6.68C117.227,6.932 117.767,7.185 118.272,7.473L118.308,7.473C121.01,9.267 122.637,12.305 122.634,15.548Z" style="fill:white;fill-rule:nonzero;"/>
    </g>
    <g transform="matrix(1.3718,0,0,1.3718,-33.7813,13.8497)">
        <path d="M116.506,6.572C115.897,6.349 115.27,6.18 114.631,6.067C111.567,5.236 108.427,4.717 105.258,4.517C104.321,4.445 103.384,4.445 102.41,4.445C77.576,4.559 56.9,24.341 55.691,49.146C55.652,49.312 55.627,49.481 55.619,49.651C55.583,49.939 55.547,50.227 55.511,50.48C54.656,55.021 50.651,58.342 46.03,58.338L45.741,58.338C40.568,58.19 36.396,53.889 36.404,48.713C36.404,48.281 36.441,47.884 36.477,47.488C37.195,41.796 38.826,36.258 41.307,31.085C43.997,25.416 47.698,20.285 52.23,15.945C56.749,11.627 61.965,8.104 67.659,5.527C73.421,2.976 79.58,1.439 85.864,0.984C89.476,0.702 93.106,0.726 96.715,1.056C99.251,1.274 101.769,1.671 104.249,2.246C108.491,3.199 112.605,4.651 116.506,6.572Z" style="fill:white;fill-rule:nonzero;"/>
    </g>
    <g transform="matrix(1.3718,0,0,1.3718,-33.7813,13.8497)">
        <path d="M107.89,105.347C107.385,106.789 105.907,107.041 104.573,107.365C102.987,107.762 101.401,108.05 99.779,108.303C96.859,108.735 93.903,108.915 90.983,109.06C87.907,109.156 84.83,108.963 81.79,108.483C78.578,108.015 75.407,107.291 72.309,106.32C64.834,103.938 57.994,99.896 52.302,94.496C49.308,91.652 46.669,88.457 44.443,84.979C41.114,79.775 38.723,74.029 37.378,68C36.051,61.722 35.71,55.276 36.368,48.894L36.368,48.749C37.683,72.028 56.266,90.921 79.519,92.621C80.781,92.729 82.043,92.765 83.34,92.765C89.003,92.779 94.622,91.765 99.923,89.773C100.01,89.785 100.095,89.809 100.175,89.845C100.873,90.064 101.44,90.579 101.726,91.251C102.915,93.595 104.105,95.938 105.258,98.317C105.294,98.389 105.33,98.497 105.366,98.569C105.979,99.759 106.556,100.985 107.169,102.174C107.71,103.184 108.323,104.157 107.89,105.347Z" style="fill:white;fill-rule:nonzero;"/>
    </g>
</svg>
