<svg xmlns="http://www.w3.org/2000/svg" viewBox="0 0 24 24"><path d="M22.559 22.951c-.322-.072-.758-.285-1.233-.6-.346-.232-.636-.46-1.182-.935l-1.375-1.194-3.1-2.69a201.618 201.618 0 00-2.14-1.846c-.015-.006-.153.068-.306.164a8.826 8.826 0 01-1.186.6 7.93 7.93 0 01-4.453.407 7.846 7.846 0 01-6.026-5.716 7.96 7.96 0 01-.174-2.999l.03-.222-.179-.264C-.012 5.826-.325 3.75.343 1.743c.084-.252.277-.73.29-.718.002.004.02.1.039.21.152.892.615 1.806 1.309 2.583.188.21.531.546.716.7l.108.09.073-.1c.288-.403.912-1.046 1.363-1.406A7.737 7.737 0 017.78 1.505c.524-.09.75-.108 1.372-.106.485 0 .655.01.946.048a7.79 7.79 0 013.942 1.678c.44.351 1.17 1.12 1.408 1.481.032.05.033.05.29-.185a6.064 6.064 0 001.387-1.82 4.92 4.92 0 00.445-1.396l.017-.108.114.277c.568 1.376.669 2.772.303 4.18a7.208 7.208 0 01-1.045 2.24l-.115.166.034.243c.054.374.066 1.361.022 1.773a7.758 7.758 0 01-1.179 3.412c-.104.165-.106.171-.066.204.374.307 6.95 6.037 7.14 6.222.595.58 1.039 1.182 1.163 1.577.048.153.055.356.015.424-.06.102-.948 1.102-1 1.126-.09.041-.26.045-.415.01zM9.757 14.807a5.672 5.672 0 004.853-4.256c.119-.468.158-.8.16-1.353.001-.502-.016-.7-.098-1.118a5.65 5.65 0 00-1.533-2.88 5.547 5.547 0 00-1.524-1.104 5.355 5.355 0 00-2.334-.576 5.538 5.538 0 00-2.905.692 5.67 5.67 0 00-2.879 4.14 6.889 6.889 0 00-.01 1.577c.193 1.32.76 2.434 1.699 3.336a5.667 5.667 0 003.257 1.542c.317.038.987.04 1.314 0zm-.766-3.535a2.01 2.01 0 01-1.218-.599 1.747 1.747 0 01-.362-.524 1.988 1.988 0 01.096-1.875 2.34 2.34 0 01.7-.683 1.985 1.985 0 012.907 1.22c.063.228.068.741.01.953-.163.592-.538 1.06-1.058 1.32a2.084 2.084 0 01-1.075.188zm1.165-2.28a.404.404 0 00.249-.374c0-.418-.569-.554-.759-.183-.074.146-.036.377.078.475a.45.45 0 00.432.082z"/></svg>