<svg xmlns="http://www.w3.org/2000/svg" viewBox="0 0 24 24"><path d="M13.946 16.284c0-.085.073-.194.162-.24.357-.193.367-.292.41-3.885l.041-3.433.352-.009.353-.009-.026 3.28c-.024 3.156-.032 3.291-.201 3.66-.186.4-.414.597-.836.718-.222.063-.255.053-.255-.082zM.408 14.087c-.43-.195-.5-.31-.306-.505.151-.15.163-.15.555.05.466.235.62.248.948.08.406-.21.528-.648.28-1.003-.07-.1-.42-.404-.776-.676-.357-.272-.705-.6-.773-.732a1.017 1.017 0 01.535-1.423c.424-.17 1.06-.166 1.424.007.321.154.334.18.185.382-.096.131-.127.132-.406.016-.413-.173-.735-.159-.991.043-.398.312-.242.643.61 1.298.772.591.973.884.973 1.413 0 .49-.203.813-.658 1.045-.412.21-1.143.212-1.6.005zm20.684.081c-.254-.108-.59-.543-.685-.888-.046-.167-.084-1.012-.085-1.877V9.83h.639l.029 1.574c.032 1.701.09 1.955.515 2.233.28.184.914.17 1.179-.028.482-.36.537-.576.566-2.246l.027-1.533H24v4.333h-.368c-.355 0-.368-.009-.368-.25v-.249l-.388.27c-.344.237-.458.27-1.001.288-.337.011-.69-.013-.783-.053zm-17.69-2.607c0-2.87.046-3.227.474-3.637.304-.29.74-.426.808-.248.03.077-.033.193-.165.302-.305.25-.38.53-.39 1.427-.009 1.006-.017.963.153.81.296-.269.87-.464 1.369-.466.634-.002.997.188 1.263.66.194.345.204.432.234 2.056l.032 1.697h-.754v-1.516c0-1.656-.053-1.92-.45-2.232-.295-.23-.954-.242-1.314-.023-.462.282-.525.552-.525 2.25v1.52h-.736zm4.723.435l.023-2.167h.648v4.333h-.694zm1.655 0l.007-2.167h.363c.349 0 .363.01.363.246 0 .295.02.298.353.052.575-.427 1.54-.52 2.018-.196.6.408.61.447.64 2.438l.027 1.793h-.655l-.027-1.574c-.022-1.317-.05-1.617-.171-1.838-.198-.363-.497-.54-.914-.54-.48 0-.864.24-1.087.68-.17.337-.184.472-.184 1.818v1.454h-.74l.007-2.167zm6.455 0V9.828h.735v4.333h-.735zm1.92 2.12c-.052-.023-.067-.654-.04-1.773.04-1.715.043-1.74.26-2.075.203-.31.547-.52.856-.52.17 0 .13.275-.057.391-.302.19-.356.494-.402 2.26l-.044 1.711-.245.02a.99.99 0 01-.327-.014z"/></svg>