<svg xmlns="http://www.w3.org/2000/svg" fill="#fff" viewBox="0 0 24 24" xmlns:v="https://vecta.io/nano"><path d="M12.012 2.598c-5.22 0-9.452 3.9-9.452 8.709 0 3.016 1.219 5.301 3.155 6.774H5.71l.234 3.042v.004c0 .017 0 .031.004.046v.006c.024.144.15.255.301.255.053 0 .1-.015.144-.035l.011-.008L9.3 19.717c.854.196 1.767.299 2.71.299 5.22 0 9.452-3.899 9.452-8.71s-4.233-8.709-9.454-8.709l.004.001zM10.39.72a13.06 13.06 0 0 1 1.605-.104c.38 0 .75.02 1.119.052l.057-.614A13.09 13.09 0 0 0 11.997 0a12.99 12.99 0 0 0-1.691.109l.083.612.001-.001zm3.797.094c.915.165 1.785.436 2.61.795l.252-.567-.397-.165a12.63 12.63 0 0 0-2.355-.671l-.11.608zm9.169 10.556a9.97 9.97 0 0 1-.405 2.655l.59.175a10.55 10.55 0 0 0 .431-2.831l-.616.001zM6.745 1.814A12.14 12.14 0 0 1 9.331.912L9.196.308a12.16 12.16 0 0 0-1.853.569 12.55 12.55 0 0 0-.867.381l.269.556zm13.65 1.399c-.706-.649-1.485-1.207-2.329-1.673l-.311.541c.811.445 1.561.981 2.224 1.596l.416-.462v-.002zm-5.244 18.838a12.41 12.41 0 0 0 2.686-1.03l-.315-.533c-.786.413-1.631.738-2.521.967l.15.596zM3.677 4.005a11.03 11.03 0 0 1 2.13-1.675l-.327-.529a11.61 11.61 0 0 0-1.945 1.473c-.102.094-.2.191-.3.289l.439.441.003.001zm19.48 11.28l-.568-.236a10.47 10.47 0 0 1-1.354 2.332l.495.369c.577-.758 1.061-1.586 1.424-2.465h.003zM20.726 4.433a10.54 10.54 0 0 1 1.534 2.228l.555-.275a11.05 11.05 0 0 0-1.627-2.366l-.465.413h.003zm2.554 3.003l-.568.244c.313.828.521 1.703.604 2.61l.615-.061c-.088-.956-.305-1.892-.651-2.793zM6.386 22.849l-.969.425-.332-1.025-.585.19.438 1.347a.33.33 0 0 0 .167.188c.041.017.083.026.126.026s.084-.009.123-.026l1.283-.563-.251-.562zm3.823-1.193c-.078-.016-.157-.027-.237-.041l-.465-.079a.31.31 0 0 0-.172.023l-1.951.853.271.554 1.845-.803.371.059c.068.017.139.026.209.038l.129-.604zm3.728.02c-.633.104-1.281.156-1.942.156a8.21 8.21 0 0 1-.772-.038l-.019.615a8.22 8.22 0 0 0 .791.04c.698 0 1.383-.058 2.048-.166l-.104-.606-.002-.001zM1.517 7.116c.37-.825.852-1.598 1.425-2.302l-.47-.407c-.61.745-1.116 1.557-1.508 2.427l-.01.021.563.261zM20.532 18.21c-.612.651-1.31 1.229-2.07 1.728l.339.515c.806-.524 1.541-1.14 2.19-1.829l-.459-.414zM.97 14.551c-.188-.796-.293-1.676-.323-2.671H.031c.03 1.071.145 2.005.345 2.843l.594-.172zM.538 7.925c-.297.91-.468 1.853-.51 2.813l.615.03a9.97 9.97 0 0 1 .487-2.662l-.592-.181zm4.199 13.26l-.59-1.815c-.02-.06-.056-.109-.105-.147a11.75 11.75 0 0 1-.66-.558l-.422.446c.194.184.408.362.629.541l.561 1.717.587-.184zm-2.105-3.292c-.591-.691-1.037-1.449-1.355-2.315l-.573.229.126.322c.33.796.771 1.509 1.342 2.175l.46-.411z"/></svg>