<?xml version="1.0" encoding="UTF-8" standalone="no"?>
<!DOCTYPE svg PUBLIC "-//W3C//DTD SVG 1.1//EN" "http://www.w3.org/Graphics/SVG/1.1/DTD/svg11.dtd">
<svg width="100%" height="100%" viewBox="0 0 33 45" version="1.1" xmlns="http://www.w3.org/2000/svg" xmlns:xlink="http://www.w3.org/1999/xlink" xml:space="preserve" xmlns:serif="http://www.serif.com/" style="fill-rule:evenodd;clip-rule:evenodd;stroke-linejoin:round;stroke-miterlimit:2;">
    <g id="path4706" transform="matrix(1,0,0,1,0.523,0)">
        <path d="M28.178,41.601C28.178,41.604 28.178,41.607 28.178,41.61C28.178,43.278 26.828,44.651 25.188,44.651C25.188,44.651 25.187,44.651 25.187,44.651L6.928,44.651C5.285,44.648 3.935,43.271 3.937,41.601L3.937,3.4C3.938,1.73 5.286,0.356 6.928,0.35L25.187,0.35C26.83,0.353 28.18,1.729 28.178,3.4L28.178,41.601Z" style="fill:none;fill-rule:nonzero;"/>
    </g>
    <g id="path4708" transform="matrix(1,0,0,1,0.523,0)">
        <path d="M25.187,0.35L6.928,0.35C5.286,0.356 3.938,1.73 3.937,3.4L3.937,41.601C3.935,43.272 5.285,44.648 6.928,44.651L25.187,44.651C25.187,44.651 25.188,44.651 25.188,44.651C26.828,44.651 28.178,43.278 28.178,41.61C28.178,41.607 28.178,41.604 28.178,41.601L28.178,3.4C28.18,1.729 26.83,0.353 25.187,0.35ZM26.358,36.415C26.349,36.638 26.166,36.817 25.947,36.817C25.94,36.817 25.934,36.817 25.928,36.816L6.196,36.816C6.188,36.817 6.179,36.817 6.171,36.817C5.951,36.817 5.767,36.639 5.757,36.415L5.757,3.176C5.767,2.952 5.951,2.774 6.171,2.774C6.179,2.774 6.188,2.774 6.196,2.775L11.465,2.775C11.831,2.777 12.173,2.962 12.38,3.269L13.423,4.836C13.726,5.299 14.239,5.577 14.786,5.573L17.119,5.573C17.594,5.573 18.047,5.365 18.363,5.004L19.945,3.167C20.152,2.918 20.457,2.774 20.778,2.775L25.928,2.775C25.934,2.775 25.941,2.774 25.947,2.774C26.166,2.774 26.349,2.953 26.358,3.176L26.358,36.415Z" style="fill:none;fill-rule:nonzero;"/>
    </g>
    <g id="path4710" transform="matrix(1,0,0,1,0.523,0)">
        <path d="M25.187,0.35L6.928,0.35C5.286,0.356 3.938,1.73 3.937,3.4L3.937,41.601C3.935,43.272 5.285,44.648 6.928,44.651L25.187,44.651C25.187,44.651 25.188,44.651 25.188,44.651C26.828,44.651 28.178,43.278 28.178,41.61C28.178,41.607 28.178,41.604 28.178,41.601L28.178,3.4C28.18,1.729 26.83,0.353 25.187,0.35Z" style="fill:white;fill-rule:nonzero;"/>
    </g>
    <g id="path4712" transform="matrix(1,0,0,1,0.523,0)">
        <path d="M25.928,2.542L20.778,2.542C20.391,2.541 20.024,2.714 19.773,3.012L18.192,4.848C17.919,5.16 17.529,5.339 17.118,5.34L14.786,5.34C14.315,5.343 13.873,5.104 13.612,4.705L12.568,3.136C12.318,2.767 11.906,2.545 11.465,2.542L6.196,2.542C6.187,2.541 6.178,2.541 6.168,2.541C5.823,2.541 5.537,2.825 5.528,3.176L5.528,36.416C5.537,36.767 5.823,37.05 6.168,37.05C6.178,37.05 6.187,37.05 6.197,37.05L25.928,37.05C26.279,37.059 26.576,36.773 26.586,36.416L26.587,3.176C26.576,2.818 26.279,2.533 25.928,2.542ZM20.995,3.297C20.998,3.198 21.018,3.1 21.052,3.008L22.792,3.008C22.827,3.1 22.846,3.198 22.85,3.297L22.85,5.369C22.85,5.372 22.85,5.376 22.85,5.379C22.85,5.896 22.431,6.322 21.922,6.322C21.413,6.322 20.994,5.896 20.994,5.379C20.994,5.376 20.994,5.372 20.994,5.369L20.995,3.297ZM14.786,5.806L16.328,5.806C16.175,6.117 15.86,6.315 15.518,6.315C15.171,6.315 14.854,6.113 14.703,5.796C14.731,5.797 14.757,5.806 14.786,5.806L14.786,5.806ZM8.188,3.297C8.191,3.198 8.211,3.1 8.245,3.008L9.985,3.008C10.02,3.1 10.039,3.198 10.043,3.297L10.043,5.369C10.043,5.372 10.043,5.376 10.043,5.379C10.043,5.896 9.624,6.322 9.115,6.322C8.606,6.322 8.187,5.896 8.187,5.379C8.187,5.376 8.187,5.372 8.187,5.369L8.188,3.297ZM26.13,36.415C26.118,36.517 26.028,36.592 25.928,36.583L6.196,36.583C6.093,36.595 5.999,36.52 5.986,36.415L5.986,3.176C5.999,3.071 6.093,2.996 6.196,3.008L7.53,3.008C7.512,3.103 7.503,3.2 7.502,3.297L7.502,5.369C7.502,5.373 7.501,5.378 7.501,5.382C7.501,6.282 8.23,7.023 9.115,7.023C10.001,7.023 10.729,6.282 10.729,5.382C10.729,5.378 10.729,5.373 10.729,5.369L10.729,3.297C10.728,3.2 10.718,3.103 10.7,3.008L11.465,3.008C11.5,3.01 11.534,3.014 11.567,3.021L11.567,6.665C11.567,6.667 11.567,6.669 11.567,6.671C11.567,6.862 11.722,7.02 11.91,7.02C12.098,7.02 12.253,6.862 12.253,6.671C12.253,6.669 12.253,6.667 12.253,6.665L12.253,3.494L13.231,4.964C13.406,5.231 13.646,5.448 13.927,5.593C14.031,6.402 14.716,7.014 15.518,7.014C16.242,7.014 16.88,6.516 17.068,5.805L17.118,5.806C17.415,5.803 17.707,5.729 17.971,5.59L17.971,6.665C17.971,6.667 17.971,6.669 17.971,6.671C17.971,6.862 18.125,7.02 18.314,7.02C18.502,7.02 18.657,6.862 18.657,6.671C18.657,6.669 18.657,6.667 18.657,6.665L18.657,5.016L20.119,3.318C20.179,3.255 20.247,3.202 20.322,3.161C20.318,3.206 20.308,3.25 20.308,3.297L20.308,5.369C20.308,5.373 20.308,5.378 20.308,5.382C20.308,6.282 21.037,7.023 21.922,7.023C22.808,7.023 23.536,6.282 23.536,5.382C23.536,5.378 23.536,5.373 23.536,5.369L23.536,3.297C23.535,3.2 23.525,3.103 23.508,3.008L24.375,3.008L24.375,6.665C24.375,6.667 24.374,6.669 24.374,6.671C24.374,6.862 24.529,7.02 24.718,7.02C24.906,7.02 25.061,6.862 25.061,6.671C25.061,6.669 25.061,6.667 25.061,6.665L25.061,3.008L25.928,3.008C26.028,2.999 26.119,3.074 26.13,3.176L26.13,36.415Z" style="fill-rule:nonzero;"/>
    </g>
    <g id="path4714" transform="matrix(1,0,0,1,0.523,0)">
        <path d="M7.844,30.564C7.656,30.564 7.501,30.722 7.501,30.913C7.501,30.913 7.501,30.913 7.501,30.914L7.501,35.577C7.501,35.579 7.501,35.581 7.501,35.583C7.501,35.774 7.656,35.932 7.844,35.932C8.033,35.932 8.187,35.774 8.187,35.583C8.187,35.581 8.187,35.579 8.187,35.577L8.187,30.913C8.188,30.722 8.033,30.564 7.844,30.564Z" style="fill-rule:nonzero;"/>
    </g>
    <g id="path4716" transform="matrix(1,0,0,1,0.523,0)">
        <path d="M10.991,30.564C10.105,30.566 9.377,31.308 9.377,32.209L9.377,34.281C9.377,35.181 10.106,35.922 10.991,35.922C11.876,35.922 12.604,35.181 12.604,34.281L12.604,32.209C12.604,31.308 11.877,30.566 10.991,30.564ZM11.918,32.208L11.918,34.281C11.918,34.798 11.499,35.224 10.991,35.224C10.482,35.224 10.063,34.798 10.063,34.281L10.063,32.208C10.063,31.691 10.482,31.265 10.991,31.265C11.499,31.265 11.918,31.691 11.918,32.208Z" style="fill-rule:nonzero;"/>
    </g>
    <g id="path4718" transform="matrix(1,0,0,1,0.523,0)">
        <path d="M14.248,30.564C14.06,30.564 13.905,30.722 13.905,30.913C13.905,30.913 13.905,30.913 13.905,30.914L13.905,35.577C13.905,35.579 13.905,35.581 13.905,35.583C13.905,35.774 14.06,35.932 14.248,35.932C14.436,35.932 14.591,35.774 14.591,35.583C14.591,35.581 14.591,35.579 14.591,35.577L14.591,30.913C14.591,30.722 14.436,30.564 14.248,30.564Z" style="fill-rule:nonzero;"/>
    </g>
    <g id="path4720" transform="matrix(1,0,0,1,0.523,0)">
        <path d="M17.394,30.564C16.508,30.566 15.78,31.308 15.781,32.209L15.781,34.281C15.781,35.181 16.509,35.922 17.394,35.922C18.279,35.922 19.007,35.181 19.007,34.281L19.007,32.209C19.008,31.308 18.28,30.566 17.394,30.564ZM18.321,34.281C18.321,34.798 17.903,35.224 17.394,35.224C16.885,35.224 16.467,34.798 16.467,34.281L16.467,32.209C16.467,31.691 16.885,31.265 17.394,31.265C17.903,31.265 18.321,31.691 18.321,32.209L18.321,34.281Z" style="fill-rule:nonzero;"/>
    </g>
    <g id="path4722" transform="matrix(1,0,0,1,0.523,0)">
        <path d="M20.652,30.564C20.463,30.564 20.308,30.722 20.308,30.914L20.308,35.577C20.308,35.579 20.308,35.581 20.308,35.583C20.308,35.774 20.463,35.932 20.652,35.932C20.84,35.932 20.995,35.774 20.995,35.583C20.995,35.581 20.995,35.579 20.995,35.577L20.995,30.913C20.995,30.722 20.84,30.564 20.652,30.564Z" style="fill-rule:nonzero;"/>
    </g>
    <g id="path4724" transform="matrix(1,0,0,1,0.523,0)">
        <path d="M23.798,30.564C22.912,30.566 22.184,31.308 22.184,32.209L22.184,34.281C22.184,34.285 22.184,34.29 22.184,34.294C22.184,35.194 22.912,35.935 23.798,35.935C24.683,35.935 25.411,35.194 25.411,34.294C25.411,34.29 25.411,34.285 25.411,34.281L25.411,32.209C25.411,31.308 24.683,30.566 23.798,30.564ZM24.725,34.281C24.725,34.284 24.725,34.287 24.725,34.291C24.725,34.808 24.306,35.234 23.798,35.234C23.289,35.234 22.87,34.808 22.87,34.291C22.87,34.287 22.87,34.284 22.87,34.281L22.87,32.209C22.87,32.205 22.87,32.202 22.87,32.199C22.87,31.681 23.289,31.256 23.798,31.256C24.306,31.256 24.725,31.681 24.725,32.199C24.725,32.202 24.725,32.205 24.725,32.209L24.725,34.281Z" style="fill-rule:nonzero;"/>
    </g>
    <g id="path4726" transform="matrix(1,0,0,1,0.523,0)">
        <path d="M7.844,21.937C8.033,21.936 8.187,21.779 8.187,21.587C8.187,21.587 8.187,21.587 8.187,21.587L8.187,16.924C8.187,16.922 8.187,16.92 8.187,16.918C8.187,16.726 8.033,16.569 7.844,16.569C7.656,16.569 7.501,16.726 7.501,16.918C7.501,16.92 7.501,16.922 7.501,16.924L7.501,21.587C7.501,21.779 7.656,21.936 7.844,21.937Z" style="fill-rule:nonzero;"/>
    </g>
    <g id="path4728" transform="matrix(1,0,0,1,0.523,0)">
        <path d="M10.991,16.574C10.105,16.576 9.377,17.318 9.377,18.219L9.377,20.291C9.377,21.191 10.106,21.932 10.991,21.932C11.876,21.932 12.604,21.191 12.604,20.291L12.604,18.219C12.604,17.318 11.877,16.576 10.991,16.574ZM11.918,18.219L11.918,20.292C11.918,20.809 11.499,21.235 10.991,21.235C10.482,21.235 10.063,20.809 10.063,20.292L10.063,18.219C10.063,17.701 10.482,17.276 10.991,17.276C11.499,17.276 11.918,17.701 11.918,18.219Z" style="fill-rule:nonzero;"/>
    </g>
    <g id="path4730" transform="matrix(1,0,0,1,0.523,0)">
        <path d="M14.248,21.937C14.436,21.936 14.591,21.779 14.591,21.587C14.591,21.587 14.591,21.587 14.591,21.587L14.591,16.924C14.591,16.922 14.591,16.92 14.591,16.918C14.591,16.726 14.436,16.569 14.248,16.569C14.06,16.569 13.905,16.726 13.905,16.918C13.905,16.92 13.905,16.922 13.905,16.924L13.905,21.587C13.905,21.779 14.06,21.936 14.248,21.937Z" style="fill-rule:nonzero;"/>
    </g>
    <g id="path4732" transform="matrix(1,0,0,1,0.523,0)">
        <path d="M17.394,16.574C16.508,16.576 15.78,17.318 15.781,18.219L15.781,20.291C15.781,21.191 16.509,21.932 17.394,21.932C18.279,21.932 19.007,21.191 19.007,20.291L19.007,18.219C19.008,17.318 18.28,16.576 17.394,16.574ZM18.321,20.291C18.321,20.809 17.903,21.234 17.394,21.234C16.885,21.234 16.467,20.809 16.467,20.291L16.467,18.219C16.467,17.702 16.885,17.276 17.394,17.276C17.903,17.276 18.321,17.702 18.321,18.219L18.321,20.291Z" style="fill-rule:nonzero;"/>
    </g>
    <g id="path4734" transform="matrix(1,0,0,1,0.523,0)">
        <path d="M20.652,21.937C20.84,21.936 20.995,21.779 20.995,21.587C20.995,21.587 20.995,21.587 20.995,21.587L20.995,16.924C20.995,16.922 20.995,16.92 20.995,16.918C20.995,16.726 20.84,16.569 20.652,16.569C20.463,16.569 20.308,16.726 20.308,16.918C20.308,16.92 20.308,16.922 20.308,16.924L20.308,21.587C20.308,21.779 20.463,21.936 20.652,21.937Z" style="fill-rule:nonzero;"/>
    </g>
    <g id="path4736" transform="matrix(1,0,0,1,0.523,0)">
        <path d="M23.71,16.574C22.824,16.576 22.096,17.318 22.097,18.219L22.097,20.291C22.096,20.296 22.096,20.3 22.096,20.304C22.096,21.204 22.825,21.945 23.71,21.945C24.595,21.945 25.323,21.204 25.323,20.304C25.323,20.3 25.323,20.296 25.323,20.291L25.323,18.219C25.323,17.318 24.596,16.576 23.71,16.574ZM24.637,20.291C24.637,20.295 24.637,20.298 24.637,20.301C24.637,20.818 24.219,21.244 23.71,21.244C23.201,21.244 22.783,20.818 22.783,20.301C22.783,20.298 22.783,20.295 22.783,20.291L22.783,18.219C22.783,18.216 22.783,18.212 22.783,18.209C22.783,17.692 23.201,17.266 23.71,17.266C24.219,17.266 24.637,17.692 24.637,18.209C24.637,18.212 24.637,18.216 24.637,18.219L24.637,20.291Z" style="fill-rule:nonzero;"/>
    </g>
    <g id="path4738" transform="matrix(1,0,0,1,0.523,0)">
        <path d="M18.314,9.113C18.125,9.113 17.971,9.271 17.971,9.462C17.971,9.462 17.971,9.463 17.971,9.463L17.971,14.126C17.971,14.128 17.971,14.13 17.971,14.132C17.971,14.323 18.125,14.481 18.314,14.481C18.502,14.481 18.657,14.323 18.657,14.132C18.657,14.13 18.657,14.128 18.657,14.126L18.657,9.463C18.657,9.271 18.502,9.113 18.314,9.113Z" style="fill-rule:nonzero;"/>
    </g>
    <g id="path4740" transform="matrix(1,0,0,1,0.523,0)">
        <path d="M15.518,14.476C16.405,14.473 17.133,13.731 17.133,12.83L17.133,10.758C17.133,9.857 16.404,9.117 15.519,9.117C14.634,9.117 13.905,9.857 13.905,10.758L13.905,12.83C13.905,13.731 14.632,14.473 15.518,14.476ZM14.591,10.758C14.591,10.24 15.01,9.814 15.519,9.814C16.028,9.814 16.447,10.24 16.447,10.758L16.447,12.83C16.447,13.348 16.028,13.773 15.519,13.773C15.01,13.773 14.591,13.348 14.591,12.83L14.591,10.758Z" style="fill-rule:nonzero;"/>
    </g>
    <g id="path4742" transform="matrix(1,0,0,1,0.523,0)">
        <path d="M18.314,24.035C18.125,24.035 17.971,24.193 17.971,24.384C17.971,24.385 17.971,24.385 17.971,24.385L17.971,29.048C17.971,29.05 17.971,29.052 17.971,29.054C17.971,29.246 18.125,29.403 18.314,29.403C18.502,29.403 18.657,29.246 18.657,29.054C18.657,29.052 18.657,29.05 18.657,29.048L18.657,24.385C18.657,24.193 18.502,24.036 18.314,24.035Z" style="fill-rule:nonzero;"/>
    </g>
    <g id="path4744" transform="matrix(1,0,0,1,0.523,0)">
        <path d="M15.168,29.398C16.054,29.396 16.782,28.654 16.782,27.753L16.782,25.68C16.782,24.78 16.053,24.039 15.168,24.039C14.283,24.039 13.554,24.78 13.554,25.68L13.554,27.752C13.554,28.653 14.282,29.396 15.168,29.398ZM14.24,25.68C14.24,25.162 14.659,24.737 15.168,24.737C15.677,24.737 16.096,25.162 16.096,25.68L16.096,27.752C16.096,28.27 15.677,28.696 15.168,28.696C14.659,28.696 14.24,28.27 14.24,27.753L14.24,25.68Z" style="fill-rule:nonzero;"/>
    </g>
    <g id="path4746" transform="matrix(1,0,0,1,0.523,0)">
        <path d="M11.91,24.035C11.722,24.035 11.567,24.193 11.567,24.384C11.567,24.385 11.567,24.385 11.567,24.385L11.567,29.048C11.567,29.05 11.567,29.052 11.567,29.054C11.567,29.246 11.722,29.403 11.91,29.403C12.098,29.403 12.253,29.246 12.253,29.054C12.253,29.052 12.253,29.05 12.253,29.048L12.253,24.385C12.253,24.193 12.099,24.036 11.91,24.035Z" style="fill-rule:nonzero;"/>
    </g>
    <g id="path4748" transform="matrix(1,0,0,1,0.523,0)">
        <path d="M8.764,29.398C9.65,29.396 10.378,28.654 10.378,27.753L10.378,25.68C10.378,25.676 10.378,25.671 10.378,25.667C10.378,24.767 9.65,24.026 8.765,24.026C7.879,24.026 7.151,24.767 7.151,25.667C7.151,25.671 7.151,25.676 7.151,25.68L7.151,27.752C7.15,28.653 7.878,29.396 8.764,29.398ZM7.837,25.68C7.837,25.677 7.837,25.674 7.837,25.67C7.837,25.153 8.256,24.727 8.765,24.727C9.274,24.727 9.692,25.153 9.692,25.67C9.692,25.674 9.692,25.677 9.692,25.68L9.692,27.752C9.692,27.756 9.692,27.759 9.692,27.762C9.692,28.28 9.274,28.706 8.765,28.706C8.256,28.706 7.837,28.28 7.837,27.762C7.837,27.759 7.837,27.756 7.837,27.752L7.837,25.68Z" style="fill-rule:nonzero;"/>
    </g>
    <g id="path4750" transform="matrix(1,0,0,1,0.523,0)">
        <path d="M24.717,24.035C24.529,24.036 24.374,24.194 24.374,24.385L24.374,29.048C24.374,29.05 24.374,29.052 24.374,29.054C24.374,29.246 24.529,29.403 24.717,29.403C24.905,29.403 25.06,29.246 25.06,29.054C25.06,29.052 25.06,29.05 25.06,29.048L25.06,24.385C25.06,24.193 24.906,24.035 24.717,24.035Z" style="fill-rule:nonzero;"/>
    </g>
    <g id="path4752" transform="matrix(1,0,0,1,0.523,0)">
        <path d="M21.571,29.398C22.457,29.396 23.185,28.654 23.185,27.753L23.185,25.68C23.185,25.676 23.185,25.671 23.185,25.667C23.185,24.767 22.457,24.026 21.572,24.026C20.686,24.026 19.958,24.767 19.958,25.667C19.958,25.671 19.958,25.676 19.958,25.68L19.958,27.752C19.957,28.653 20.685,29.396 21.571,29.398ZM20.644,25.68C20.644,25.677 20.644,25.674 20.644,25.67C20.644,25.153 21.063,24.727 21.572,24.727C22.081,24.727 22.499,25.153 22.499,25.67C22.499,25.674 22.499,25.677 22.499,25.68L22.499,27.752C22.499,27.756 22.499,27.759 22.499,27.762C22.499,28.28 22.081,28.706 21.572,28.706C21.063,28.706 20.644,28.28 20.644,27.762C20.644,27.759 20.644,27.756 20.644,27.752L20.644,25.68Z" style="fill-rule:nonzero;"/>
    </g>
    <g id="path4800" transform="matrix(1,0,0,1,0.523,0)">
        <path d="M25.187,45L6.928,45C5.097,44.995 3.593,43.462 3.593,41.6L3.593,3.4C3.593,1.538 5.097,0.005 6.928,0L25.187,0C27.018,0.005 28.521,1.538 28.521,3.4L28.521,41.601C28.521,43.462 27.017,44.995 25.187,45ZM6.928,0.7C5.474,0.704 4.279,1.921 4.279,3.4L4.279,41.601C4.279,43.08 5.474,44.297 6.928,44.301L25.187,44.301C26.641,44.297 27.835,43.079 27.835,41.601L27.835,3.4C27.835,1.922 26.641,0.704 25.187,0.7L6.928,0.7Z" style="fill-rule:nonzero;"/>
    </g>
    <g id="path4802" transform="matrix(1,0,0,1,0.523,0)">
        <path d="M16.288,43.138C16.286,43.138 16.284,43.138 16.282,43.138C15.087,43.138 14.104,42.138 14.104,40.923C14.104,39.708 15.087,38.708 16.282,38.708C17.477,38.708 18.46,39.708 18.46,40.923C18.46,42.136 17.48,43.135 16.288,43.138ZM16.288,38.942C16.286,38.941 16.284,38.941 16.283,38.941C15.213,38.941 14.334,39.836 14.334,40.923C14.334,42.011 15.213,42.905 16.283,42.905C17.352,42.905 18.232,42.011 18.232,40.923C18.232,40.923 18.232,40.923 18.232,40.923C18.232,39.838 17.355,38.944 16.288,38.942Z" style="fill-rule:nonzero;"/>
    </g>
    <g id="path4804" transform="matrix(1,0,0,1,0.523,0)">
        <path d="M16.059,4.293C16.058,4.293 16.057,4.293 16.056,4.293C15.49,4.293 15.024,3.819 15.024,3.243C15.024,2.668 15.49,2.194 16.056,2.194C16.622,2.194 17.088,2.668 17.088,3.243C17.088,3.818 16.624,4.291 16.059,4.293ZM16.059,2.427C16.058,2.427 16.058,2.427 16.057,2.427C15.617,2.427 15.254,2.796 15.254,3.243C15.254,3.691 15.617,4.059 16.057,4.059C16.497,4.059 16.859,3.691 16.859,3.243C16.859,2.796 16.498,2.428 16.059,2.427Z" style="fill-rule:nonzero;"/>
    </g>
    <g id="path4806" transform="matrix(1,0,0,1,0.523,0)">
        <path d="M31.244,9.311C30.57,8.626 29.328,8.684 28.438,8.589C26.305,8.494 24.167,8.533 22.039,8.705C20.999,8.791 20,9.148 19.142,9.74C18.565,10.154 17.916,10.455 17.228,10.629C16.402,10.792 15.553,10.792 14.727,10.629C14.036,10.464 13.385,10.162 12.813,9.74C11.954,9.148 10.956,8.791 9.916,8.705C7.787,8.533 5.65,8.494 3.517,8.589C2.627,8.684 1.385,8.626 0.711,9.311C0.381,9.677 0.188,10.146 0.163,10.638L0.163,11.564C0.163,12.075 0.583,12.496 1.094,12.496C1.605,12.497 2.026,12.918 2.026,13.429L2.026,14.364C2.026,17.974 4.944,20.446 8.545,20.446C12.145,20.446 15.064,17.973 15.064,14.364C15.063,14.358 15.063,14.353 15.063,14.347C15.063,13.846 15.476,13.433 15.977,13.433C16.479,13.433 16.892,13.846 16.892,14.347C16.892,14.353 16.891,14.358 16.891,14.364C16.891,17.974 19.81,20.446 23.41,20.446C27.011,20.446 29.929,17.973 29.929,14.364L29.929,13.429C29.929,12.918 30.35,12.497 30.861,12.496C31.372,12.496 31.792,12.075 31.792,11.564L31.792,10.638C31.767,10.146 31.574,9.677 31.244,9.311Z" style="fill:rgb(204,153,51);fill-rule:nonzero;"/>
    </g>
    <g id="path4808" transform="matrix(1,0,0,1,0.523,0)">
        <path d="M23.41,20.609C19.601,20.609 16.728,17.924 16.728,14.364C16.728,14.358 16.728,14.352 16.728,14.346C16.728,13.934 16.389,13.595 15.977,13.595C15.565,13.595 15.225,13.934 15.225,14.346C15.225,14.352 15.225,14.358 15.226,14.364C15.226,17.924 12.353,20.609 8.544,20.609C4.735,20.609 1.863,17.924 1.863,14.364L1.863,13.43C1.863,13.008 1.516,12.66 1.094,12.659C0.493,12.658 -0,12.163 0,11.562L0,10.638C0.023,10.103 0.234,9.592 0.596,9.197C1.28,8.678 2.128,8.419 2.985,8.469C3.164,8.456 3.338,8.444 3.499,8.427C5.647,8.329 7.798,8.369 9.94,8.544C11.005,8.634 12.029,9.001 12.908,9.608C13.463,10.017 14.095,10.311 14.765,10.47C15.564,10.627 16.386,10.628 17.185,10.471C17.854,10.302 18.485,10.009 19.047,9.608C19.926,9.001 20.949,8.634 22.014,8.544C24.156,8.369 26.308,8.329 28.456,8.427C28.617,8.444 28.791,8.456 28.97,8.469C29.827,8.42 30.675,8.678 31.36,9.197C31.719,9.588 31.93,10.095 31.954,10.626L31.954,11.562C31.954,12.163 31.461,12.658 30.86,12.659C30.438,12.661 30.092,13.008 30.092,13.43L30.092,14.364C30.092,17.924 27.219,20.609 23.41,20.609ZM15.974,13.268C16.568,13.279 17.051,13.77 17.054,14.364C17.054,17.738 19.786,20.284 23.41,20.284C27.034,20.284 29.767,17.738 29.767,14.364L29.767,13.43C29.766,12.829 30.26,12.335 30.86,12.333C31.282,12.332 31.629,11.984 31.629,11.562L31.629,10.638C31.604,10.189 31.428,9.762 31.128,9.426L31.127,9.426C30.495,8.972 29.725,8.748 28.947,8.794C28.764,8.781 28.587,8.769 28.421,8.751C26.302,8.658 24.178,8.697 22.063,8.867C21.05,8.951 20.076,9.298 19.238,9.872C18.645,10.297 17.978,10.607 17.271,10.786C16.419,10.958 15.541,10.958 14.689,10.787C13.977,10.618 13.306,10.307 12.718,9.872C11.879,9.298 10.905,8.951 9.891,8.867C7.777,8.697 5.653,8.658 3.534,8.751C3.369,8.769 3.191,8.781 3.007,8.794C2.23,8.748 1.46,8.971 0.828,9.426C0.522,9.763 0.345,10.197 0.325,10.651L0.325,11.562C0.325,11.984 0.672,12.332 1.094,12.333C1.695,12.334 2.189,12.829 2.189,13.43L2.189,14.364C2.189,17.738 4.921,20.284 8.544,20.284C12.167,20.284 14.901,17.738 14.901,14.364C14.903,13.771 15.383,13.282 15.974,13.268L15.974,13.268Z" style="fill-rule:nonzero;"/>
    </g>
    <g id="path4810" transform="matrix(1,0,0,1,0.523,0)">
        <path d="M3.388,14.49C3.504,15.395 3.79,16.269 4.229,17.065C4.756,17.88 5.516,18.513 6.405,18.879C8.48,19.799 10.893,19.487 12.676,18.068C14.201,16.746 15.368,13.853 14.092,12.003C13.028,10.46 10.86,9.969 9.124,9.884C8.148,9.837 7.159,9.868 6.178,9.84C5.369,9.754 4.557,9.989 3.913,10.494C3.279,11.213 3.015,12.195 3.202,13.141C3.253,13.566 3.31,14.026 3.388,14.49Z" style="fill:rgb(51,0,102);fill-rule:nonzero;"/>
    </g>
    <g id="path4812" transform="matrix(1,0,0,1,0.523,0)">
        <path d="M8.923,19.51C8.043,19.511 7.172,19.333 6.361,18.987C5.451,18.61 4.673,17.962 4.132,17.128C3.681,16.321 3.39,15.431 3.275,14.51C3.197,14.039 3.138,13.57 3.088,13.156C2.892,12.172 3.17,11.15 3.835,10.408C4.496,9.87 5.342,9.623 6.182,9.723C6.6,9.735 7.02,9.737 7.439,9.738C7.994,9.739 8.569,9.741 9.13,9.768C10.507,9.836 12.993,10.206 14.186,11.936C15.569,13.94 14.215,16.887 12.75,18.157C11.672,19.052 10.315,19.532 8.923,19.51ZM3.5,14.471C3.611,15.361 3.891,16.222 4.325,17.003C4.841,17.798 5.582,18.414 6.45,18.772C8.485,19.677 10.853,19.372 12.602,17.979C14.032,16.739 15.255,13.891 13.998,12.069C12.862,10.421 10.453,10.066 9.118,10.001C8.562,9.974 7.99,9.972 7.437,9.971C7.016,9.97 6.594,9.969 6.175,9.957C5.395,9.864 4.609,10.088 3.99,10.58C3.38,11.271 3.129,12.218 3.315,13.127C3.365,13.538 3.422,14.005 3.5,14.471L3.5,14.471Z" style="fill-rule:nonzero;"/>
    </g>
    <g id="path4814" transform="matrix(1,0,0,1,0.523,0)">
        <path d="M29.013,14.49C28.897,15.395 28.611,16.269 28.172,17.065C27.644,17.88 26.885,18.513 25.996,18.879C23.921,19.799 21.508,19.487 19.725,18.068C18.2,16.746 17.032,13.853 18.309,12.003C19.373,10.46 21.542,9.969 23.277,9.884C24.253,9.837 25.242,9.868 26.223,9.84C27.032,9.754 27.844,9.988 28.488,10.494C29.122,11.212 29.386,12.195 29.199,13.141C29.147,13.566 29.091,14.026 29.013,14.49Z" style="fill:rgb(51,0,102);fill-rule:nonzero;"/>
    </g>
    <g id="path4816" transform="matrix(1,0,0,1,0.523,0)">
        <path d="M23.478,19.51C22.086,19.532 20.73,19.052 19.651,18.157C18.186,16.887 16.832,13.942 18.215,11.936C19.409,10.206 21.895,9.836 23.272,9.768C23.832,9.741 24.407,9.739 24.963,9.738C25.382,9.737 25.802,9.736 26.219,9.724C27.059,9.627 27.904,9.873 28.566,10.408C29.221,11.155 29.498,12.172 29.313,13.156C29.262,13.57 29.204,14.039 29.125,14.51C29.011,15.432 28.72,16.321 28.268,17.128C27.728,17.963 26.951,18.611 26.04,18.987C25.229,19.333 24.358,19.511 23.478,19.51ZM26.406,9.954C26.347,9.954 26.287,9.955 26.226,9.957C25.806,9.969 25.384,9.97 24.964,9.971C24.411,9.972 23.839,9.974 23.282,10.001C21.948,10.066 19.539,10.421 18.403,12.069C17.146,13.891 18.369,16.739 19.799,17.979C21.548,19.372 23.916,19.677 25.951,18.772C26.818,18.414 27.559,17.798 28.075,17.003C28.51,16.222 28.79,15.361 28.899,14.471C28.978,14.006 29.035,13.539 29.085,13.127C29.271,12.218 29.02,11.271 28.41,10.58C27.845,10.12 27.128,9.896 26.406,9.954L26.406,9.954Z" style="fill-rule:nonzero;"/>
    </g>
    <g id="path4818" transform="matrix(1,0,0,1,0.523,0)">
        <path d="M9.615,17.718C9.51,17.718 9.405,17.713 9.3,17.702C9.093,17.68 8.935,17.5 8.935,17.289C8.935,17.062 9.119,16.874 9.343,16.874C9.355,16.874 9.367,16.875 9.379,16.876C10.181,16.938 10.971,16.637 11.535,16.054C12.226,15.429 12.621,14.532 12.618,13.593C12.616,13.579 12.616,13.565 12.616,13.551C12.616,13.339 12.775,13.16 12.982,13.139C12.998,13.137 13.013,13.136 13.028,13.136C13.236,13.136 13.411,13.301 13.427,13.512C13.474,14.706 12.987,15.86 12.103,16.648C11.443,17.321 10.55,17.705 9.615,17.717Z" style="fill:white;fill-rule:nonzero;"/>
    </g>
    <g id="path4820" transform="matrix(1,0,0,1,0.523,0)">
        <path d="M24.312,17.718C24.207,17.718 24.103,17.713 23.997,17.702C23.791,17.68 23.632,17.5 23.632,17.289C23.632,17.062 23.816,16.874 24.04,16.874C24.052,16.874 24.064,16.875 24.076,16.876C24.878,16.938 25.668,16.637 26.232,16.054C26.923,15.429 27.317,14.532 27.314,13.592C27.313,13.578 27.312,13.563 27.312,13.549C27.312,13.321 27.496,13.134 27.719,13.134C27.929,13.134 28.107,13.299 28.125,13.512C28.17,14.706 27.683,15.859 26.8,16.648C26.14,17.321 25.247,17.705 24.312,17.717Z" style="fill:white;fill-rule:nonzero;"/>
    </g>
</svg>
