<?xml version="1.0" encoding="UTF-8" standalone="no"?>
<!DOCTYPE svg PUBLIC "-//W3C//DTD SVG 1.1//EN" "http://www.w3.org/Graphics/SVG/1.1/DTD/svg11.dtd">
<svg width="100%" height="100%" viewBox="0 0 97 57" version="1.1" xmlns="http://www.w3.org/2000/svg" xmlns:xlink="http://www.w3.org/1999/xlink" xml:space="preserve" xmlns:serif="http://www.serif.com/" style="fill-rule:evenodd;clip-rule:evenodd;stroke-linejoin:round;stroke-miterlimit:2;">
    <g transform="matrix(0.875394,0,0,0.875394,-219.439,-317.845)">
        <path d="M320.99,367.09L352.22,367.09C353.87,368.6 353.73,370.59 353.73,372.56C353.76,389 353.79,405.44 353.83,421.88C353.29,423.14 352.2,423.19 351.04,423.18C341.03,423.13 331.01,423.1 321,423.06L321,419.36L345.59,419.36C345.66,419.05 345.74,418.74 345.81,418.42L328.39,402.86C329.42,402 330.45,401.13 331.48,400.27C337.49,405.39 343.5,410.51 349.88,415.95L349.88,374.08C343.42,379.67 337.46,384.84 331.5,390C330.03,389.53 329.45,388.37 329.17,386.98C334.75,382.02 340.34,377.06 346.7,371.4L321,371.4C320.99,369.97 320.99,368.53 320.99,367.09Z" style="fill:rgb(214,48,133);fill-rule:nonzero;"/>
    </g>
    <g transform="matrix(0.875394,0,0,0.875394,-219.439,-317.845)">
        <path d="M320.99,419.36L320.99,423.06C308.03,423.1 295.06,423.14 282.1,423.17C281.35,423.17 280.61,423.15 280.05,422.54L280.86,420.2C281.23,420.18 281.63,420.24 281.97,420.13C295.42,415.71 305.42,399.16 303.16,385.23C302.89,383.59 302.03,383.01 300.62,382.54C294.47,380.48 288.87,377.43 284,373.12C283.13,372.35 282.26,371.2 280.88,372.39L280.1,369.32C280.59,368.57 281.08,367.82 281.57,367.08L320.98,367.08L320.98,371.39L287.17,371.39C292.16,376.1 297.13,378.46 302.46,380.02C304.54,380.63 305.93,381.48 305.75,383.64C305.41,387.8 307.99,390.07 310.85,392.32C312.39,393.53 313.72,394.99 315.15,396.34C314.55,397.51 314.3,398.94 312.87,399.52C311.64,398.52 310.61,398.13 309.18,399.52C305.84,402.76 302.04,405.48 299.68,409.71C297.63,413.37 294.33,416.14 290.12,419.33C301.26,419.18 311.13,418.85 320.99,419.36Z" style="fill:rgb(225,50,130);fill-rule:nonzero;"/>
    </g>
    <g transform="matrix(0.875394,0,0,0.875394,-219.439,-317.845)">
        <path d="M331.49,390C329.8,391.71 326.93,393.31 326.74,395.17C326.53,397.23 330.13,398.23 331.47,400.27C330.44,401.13 329.41,402 328.38,402.86C327.79,402.43 327.08,402.1 326.64,401.55C324,398.19 321.66,397.98 318.62,401.4C315.97,404.39 314.59,400.87 312.88,399.54C314.31,398.96 314.56,397.53 315.16,396.36C316.74,397.22 317.88,396.5 319.08,395.46C322.39,392.59 325.79,389.81 329.15,386.99C329.45,388.37 330.02,389.53 331.49,390Z" style="fill:rgb(219,52,133);fill-rule:nonzero;"/>
    </g>
    <g transform="matrix(0.875394,0,0,0.875394,-219.439,-317.845)">
        <path d="M280.89,372.41C276.28,377.01 270.75,380.2 264.59,382.13C261.62,383.06 260.81,384.71 260.76,387.44C260.51,401.43 266.39,411.95 278.66,418.91C279.4,419.33 280.13,419.78 280.87,420.21L280.06,422.55C264.95,417.5 254.2,397.5 258.47,382.49C258.78,381.41 259.25,380.73 260.31,380.46C267.95,378.57 274.24,374.32 280.12,369.34C280.37,370.36 280.63,371.38 280.89,372.41Z" style="fill:rgb(234,58,132);fill-rule:nonzero;"/>
    </g>
    <g transform="matrix(0.875394,0,0,0.875394,-219.439,-317.845)">
        <path d="M264.89,390.1C264.54,387.61 265.5,385.38 269.29,384.27C273.45,383.05 277.02,380.42 280.21,377.49C281.58,376.24 282.48,376.14 283.86,377.4C287.63,380.84 291.92,383.51 296.81,385.07C298.38,385.57 298.8,386.52 299,387.99C300.42,398.48 293.28,410.93 283.54,415.1C281.77,415.86 280.49,415.38 279.08,414.55C270.07,409.26 265.39,401.4 264.89,390.1ZM294.84,391.16C294.1,390.39 293.44,389.68 292.76,389C291.84,388.09 291.21,388.83 290.61,389.44C289.138,390.918 287.681,392.412 286.24,393.92C281.12,399.27 281.13,399.28 275.69,394.14C275.598,394.058 275.512,393.972 275.43,393.88C274.43,392.71 273.54,392.17 272.19,393.64C271.07,394.86 270.72,395.67 272.09,396.94C274.52,399.19 276.89,401.52 279.14,403.95C280.42,405.33 281.28,405.02 282.43,403.85C286.05,400.17 289.74,396.57 293.39,392.93C293.88,392.4 294.3,391.8 294.84,391.16Z" style="fill:rgb(230,50,128);fill-rule:nonzero;"/>
    </g>
    <g transform="matrix(0.875394,0,0,0.875394,-219.439,-317.845)">
        <path d="M294.84,391.16C294.31,391.8 293.89,392.4 293.38,392.92C289.73,396.57 286.04,400.17 282.42,403.84C281.27,405.01 280.41,405.32 279.13,403.94C276.88,401.51 274.51,399.18 272.08,396.93C270.71,395.66 271.06,394.85 272.18,393.63C273.54,392.16 274.43,392.71 275.42,393.87C275.5,393.96 275.59,394.05 275.68,394.13C281.12,399.27 281.12,399.27 286.23,393.91C287.67,392.4 289.13,390.91 290.6,389.43C291.2,388.82 291.83,388.08 292.75,388.99C293.44,389.68 294.09,390.38 294.84,391.16Z" style="fill:rgb(253,245,249);fill-rule:nonzero;"/>
    </g>
</svg>
