<svg xmlns="http://www.w3.org/2000/svg" width="90.709" height="42.839" viewBox="0 0 24 11.334"><path d="M12.902 0c-.02 0-.04.001-.059.003-.326.032-.574.374-.642.887-.044.327-.062.353-.19.284-.187-.1-1.163-.01-1.38.127a.775.775 0 01-.348.103c-.101 0-.278.08-.394.176a1.403 1.403 0 01-.373.227.5.5 0 00-.252.252.76.76 0 01-.32.312.77.77 0 00-.315.284c-.047.095-.17.262-.275.372-.17.178-.274.453-.397 1.055-.07.345-.285.676-.532.822-.249.147-.53.639-.534.931-.004.332-.173.435-.719.439l-.51.003V9.848h.892l.021-.911c.022-.937.11-1.188.194-.553.06.453.396.989.78 1.242.292.194 1.012.35 1.286.278.078-.02.262.068.446.215.842.67 1.683 1.05 2.604 1.178.52.072 1.284.037 1.72-.079.363-.097.775-.462.836-.742.075-.341-.031-.795-.246-1.05-.235-.279-.7-.503-1.057-.509-.237-.004-.292-.05-.62-.526l-.36-.523.591-.646.593-.647h.8l.638 1.582c.35.87.673 1.617.715 1.66.043.042.238.067.435.054l.358-.023.281-.68c.155-.373.368-.806.474-.962.106-.156.174-.33.152-.388-.022-.058.052-.342.165-.631l.205-.526.037 1.593.037 1.594h.893l.022-.465.022-.465h.425c1.122-.002 1.684-.555 1.55-1.527-.066-.488-.233-.756-.588-.946-.283-.15-.434-.17-1.468-.186-.816-.013-1.235-.051-1.434-.13a1.666 1.666 0 00-.502-.112c-.258 0-.255.006-.11-.271.15-.288.142-.375-.083-.967a7.168 7.168 0 01-.3-1.253c-.093-.657-.131-.77-.333-.979a1.779 1.779 0 00-.538-.354c-.226-.087-.368-.213-.53-.472-.453-.719-1.076-1.482-1.316-1.61A1.024 1.024 0 0012.902 0zm.274.137l-.186.11c-.23.137-.32.144-.28.023.017-.052.129-.102.248-.113zm-.063.187c.055 0 .134.063.3.213.164.148.317.25.34.228.022-.022.065 0 .096.05.036.059.025.072-.03.038-.132-.082-.104-.003.136.388.122.198.273.483.336.634l.114.273-.206-.014-.635-.041c-.236-.015-.412-.055-.391-.09.02-.033-.003-.057-.054-.051-.05.005-.098-.02-.105-.056-.007-.036-.055-.093-.107-.125s-.098-.187-.102-.343c-.004-.157-.036-.332-.072-.39-.044-.07-.037-.086.022-.05.05.031.108-.003.137-.081a.528.528 0 01.13-.198c.048-.038.03-.047-.046-.023-.09.029-.122 0-.115-.101.006-.078.026-.127.044-.109.018.018.072-.021.121-.088.03-.04.054-.063.087-.064zm-.5.113c.044 0 .079.033.079.074 0 .041-.015.075-.033.075-.018 0-.053-.034-.079-.075-.025-.04-.01-.074.033-.074zM12.53.63c.075 0 .162.031.162.075 0 .016-.069.03-.153.03-.084 0-.134-.033-.11-.072.015-.024.056-.034.101-.033zm.677.027c-.055-.01.023.112.22.31.169.168.306.33.306.361 0 .031.07.144.155.252.158.201.27.269.17.103-.177-.296-.59-.85-.69-.928a.521.521 0 00-.16-.098zm-.744.384c.025.001.048.008.06.02.025.025-.02.043-.098.04-.086-.004-.104-.022-.045-.045a.205.205 0 01.083-.015zm-.7.365a.19.19 0 01.032 0c.047.006.066.032.034.084-.031.051-.02.066.028.036.138-.086.186.104.061.242-.16.178-.154.335.011.272.118-.044.12-.038.015.068a.6.6 0 01-.26.146l-.257.054a.31.31 0 00-.155.085c-.024.033-.09.005-.145-.062-.067-.08-.168-.108-.301-.081-.173.034-.207.012-.24-.161-.053-.267.126-.536.355-.536.267 0 .294.124.039.175-.18.036-.222.082-.222.24 0 .18.021.194.255.167.14-.017.239-.004.219.029-.057.09.07.065.214-.045.156-.118.172-.226.026-.17-.185.071-.203-.253-.022-.404.1-.083.23-.133.312-.139zm.586.147c.038 0 .013.061-.055.136-.068.075-.1.159-.073.186.027.027.033.05.012.05-.02 0-.057-.02-.082-.045-.057-.057.107-.327.198-.327zm.187 0c.04 0 .095.036.122.08.076.123.008.14-.1.024-.052-.057-.062-.104-.022-.104zm-.044.178c.041-.005.048.02.025.081-.024.062-.002.115.047.118.05.002.016.035-.076.072-.175.07-.224.251-.09.334.1.062.306-.108.247-.204-.025-.04.034-.022.13.041.202.131.959.251.959.152 0-.106.838-.08.874.028.02.06-.045.093-.18.094-.278.001-.43.104-.373.251.059.153.033.15-.302-.03a1.46 1.46 0 00-.64-.148c-.312 0-.396.035-.614.253-.221.22-.253.3-.253.627 0 .425.112.788.222.72.044-.027.054.006.025.082-.032.083-.02.11.032.077.045-.028.107-.011.136.037.034.054.022.067-.032.034-.18-.112-.075.1.14.282.363.304 1.039.423 1.039.182 0-.039.038-.047.085-.019.047.03.149-.027.23-.126.079-.097.12-.13.09-.073-.038.07-.027.086.032.05.048-.03.083-.094.077-.142-.021-.169.007-.281.062-.247.073.045.067-.758-.008-.974-.1-.294.018-.18.212.202.103.203.187.438.187.521 0 .137.124.425.225.523.02.02.13.148.241.284.112.136.204.221.204.188 0-.032.052.015.116.107.088.126.164.155.316.123.17-.036.18-.03.068.041-.072.047-.112.116-.088.154.023.038-.01.07-.073.07-.138 0-.157.268-.023.323.05.02-.1.04-.335.043-.235.003-.424-.02-.419-.05.022-.139-.016-.196-.072-.108-.05.077-.102.079-.257.008-.108-.05-.176-.121-.152-.16.024-.04-.05-.01-.167.066-.14.093-.189.103-.145.033.049-.08.034-.094-.063-.057-.086.033-.11.02-.074-.037.036-.058.011-.07-.075-.038-.07.027-.11.02-.087-.016.023-.036-.012-.086-.076-.111-.164-.063-.196-.056-.143.03.075.12-.01.084-.12-.052-.089-.108-.087-.118.008-.069.062.031.046.004-.035-.062-.08-.065-.188-.102-.24-.083a.123.123 0 01-.143-.047c-.033-.053-.014-.063.053-.028.058.03.04.001-.04-.063-.168-.137-.297-.155-.22-.031.033.053.02.065-.034.032-.048-.03-.069-.084-.047-.12.052-.083-.223-.235-.294-.163-.03.03-.042.003-.029-.059.015-.065-.028-.111-.104-.112-.11 0-.152-.044-.126-.13.066-.214.039-.278-.117-.278-.271 0-.41.078-.41.23 0 .078.027.142.06.142.032 0 .091.108.13.241.04.133.108.236.151.228.047-.008.066.076.047.205-.02.136 0 .218.055.218.049 0 .064-.04.034-.093-.029-.05.044-.002.163.108.376.349.898.538 1.518.552.884.018.847.011.718.14-.21.21-1.334.074-1.929-.234-.177-.091-.233-.093-.333-.012-.067.053-.098.06-.071.014.028-.046-.05-.188-.172-.316-.15-.156-.221-.307-.221-.465 0-.162-.08-.321-.26-.522-.17-.186-.261-.246-.261-.169 0 .066.1.213.223.328.13.122.223.284.223.391 0 .1.084.307.187.46.103.15.159.257.123.235-.035-.021-.157.058-.272.178-.114.119-.312.237-.439.263-.488.098-.508.112-.475.34.022.15 0 .216-.072.216-.06 0-.093.056-.079.13.018.088.098.131.248.133.122.002.298.03.392.062.138.048.155.08.084.165-.048.058-.058.104-.022.103.035 0 .264-.218.508-.483.284-.309.501-.482.605-.482a.36.36 0 00.246-.102c.067-.081.038-.121-.142-.196-.124-.051-.242-.12-.263-.153-.037-.06.173-.008.614.153l.239.087-.171.161c-.364.344-1.236 1.376-1.236 1.464 0 .117.621.991.965 1.357.144.153.328.279.409.279.275 0-.123.21-.45.237-.235.019-.297.056-.315.186-.031.22.317.46.495.341.068-.044.114-.12.103-.167-.012-.048.016-.065.06-.037.055.034.04.096-.047.191-.07.078-.093.142-.05.142.133 0 .262-.217.222-.372-.022-.082-.008-.168.03-.191.037-.023.045-.082.018-.13-.028-.049.04-.005.15.095.257.234.228.434-.095.651-.139.094-.212.17-.163.17.05 0 .071.03.049.067-.023.036.01.086.074.11.063.025.097.016.076-.018-.021-.035.042-.1.14-.145.212-.096.44-.415.394-.551-.019-.055-.085.006-.156.142-.068.13-.162.261-.21.291-.049.03-.032-.026.036-.123.169-.241.156-.434-.043-.66-.134-.154-.12-.149.075.027.133.12.241.18.241.133 0-.136-.316-.395-.535-.44-.204-.041-.489-.289-.416-.362.022-.022.192-.002.378.045.366.092.827.479.765.64-.021.055-.006.1.034.1s.072.153.072.34c0 .206-.029.32-.074.293-.041-.026-.079-.011-.084.032a16.05 16.05 0 01-.019.152c-.013.1-.343.325-.398.27-.024-.024-.09-.006-.146.04-.123.103-1.408.138-1.883.052-.463-.084-1.19-.363-1.19-.457 0-.042-.022-.055-.049-.029-.026.027-.096-.01-.154-.08-.07-.086-.09-.092-.058-.018.027.062-.004.047-.068-.033-.065-.079-.118-.12-.118-.089 0 .064-.64-.365-.707-.475-.07-.113.274-.211.474-.136.143.054.168.045.133-.046-.026-.068-.002-.113.06-.113.056 0 .114-.033.127-.072.015-.044.067-.046.133-.005.089.055.075.095-.075.226-.1.088-.14.138-.089.112.059-.03.093.005.093.094 0 .15.035.161.553.183.18.008.315.037.298.065-.017.028.02.07.085.095.074.029.1.096.072.185-.03.095-.002.152.088.178.072.02.196.064.274.096.098.04.126.032.091-.025-.029-.047.021-.122.114-.172.124-.066.174-.067.195-.003.016.047.055.069.088.049.033-.02.055.018.05.085-.015.175.407.286.518.136a.33.33 0 01.238-.111c.373 0 .235-.28-.163-.33-.244-.032-.27-.022-.191.074.077.092.07.102-.042.059-.103-.04-.12-.027-.071.054.054.09.045.09-.061.004-.07-.056-.108-.129-.088-.162.02-.034.004-.082-.038-.108-.092-.057-.102-.707-.01-.707.036 0 .107.05.158.111.064.077.067.112.009.112-.047 0-.08.106-.074.242.01.204.016.213.045.055.019-.102.072-.209.117-.237.183-.113-.68-1.474-.935-1.474-.075 0-.218.092-.317.205-.143.163-.18.289-.182.618-.003.458-.079.584-.323.537-.181-.034-.386-.368-.254-.412.043-.014.082-.148.087-.297.007-.222-.02-.278-.158-.312-.25-.063-.545-.617-.545-1.025 0-.28-.032-.36-.19-.463-.105-.068-.23-.111-.28-.095-.048.017-.124-.019-.167-.078-.053-.072-.217-.108-.482-.108-.326 0-.42.03-.506.157-.057.087-.166.157-.242.157-.181 0-.368.295-.417.656-.08.593.429 1.28.945 1.277.212 0 .496-.142.298-.148-.112-.003-.37-.303-.406-.47a2.563 2.563 0 00-.112-.31c-.223-.532-.26-.93-.085-.93.084 0 .24.371.19.452-.023.038.01.069.073.069.064 0 .121.058.128.13l.019.235c.004.058.049.12.1.137.05.017.094.087.095.155.002.068.085.224.185.347.157.192.201.21.314.13.255-.182.326-.184.504-.017.167.157.19.354.03.255-.04-.024-.063-.003-.052.048.012.05-.113.172-.277.27-.261.156-.363.173-.84.142-.999-.066-1.652-.69-1.652-1.579 0-.292-.038-.321-.353-.273l-.145.022.002-.008c0-.01.003-.021.004-.032.01.012.018.021.02.02l.02-.02c.01-.014.02-.029.026-.045a.29.29 0 00.009-.038c.012-.064.008-.059.008-.131-.033-.078-.054-.102-.044-.19.004-.037.028-.07.03-.107.002-.032-.012-.063-.019-.094l-.016-.058-.008-.131-.004-.055-.002-.018c.043.03.06.016.092-.006.047-.033.12-.104.192-.187l.015-.018c.017-.004.034-.008.05-.016a.078.078 0 00.032-.102c.035-.067.037-.118.007-.155-.047-.056-.041-.105.018-.141.057-.035.07-.024.036.03-.029.048-.013.086.035.086s.071-.061.051-.136c-.021-.083.004-.137.066-.137.056 0 .101.023.101.05 0 .027.05.055.112.062l.223.025c.062.007.112.057.112.111 0 .13.142.126.484-.017a1.47 1.47 0 01.564-.096c.156.011.308-.003.337-.032.03-.03-.028-.055-.127-.058-.167-.005-.169-.01-.03-.07.12-.051.125-.064.022-.069-.069-.002-.146.029-.171.07-.026.04-.18.074-.345.074-.244 0-.294-.024-.274-.13.018-.092.122-.143.359-.175.274-.037.294-.048.11-.066-.194-.019-.2-.025-.048-.054.139-.027.165-.067.129-.195-.133-.464-.142-.594-.036-.53.087.052.088.043.01-.055-.079-.096-.074-.125.025-.163.14-.054.466.177.425.302-.046.137.124.195.255.087.108-.09.112-.083.034.063-.12.224-.108.794.021 1.104.106.254.252.377.158.134-.06-.157.077-.245.385-.247.2 0 .243-.03.243-.168.001-.135.015-.146.074-.056.06.092.072.085.073-.04 0-.085.041-.193.09-.243.066-.065.066-.089.004-.089-.047 0-.12.059-.161.13-.042.072-.077.093-.078.047-.004-.13.189-.259.316-.21.062.024.242-.027.4-.114.175-.097.22-.145.118-.124-.092.019-.149.004-.126-.033.023-.037.099-.07.168-.072.09-.004.079-.024-.042-.073a.533.533 0 01-.246-.238c-.043-.094-.195-.251-.338-.349-.18-.123-.235-.201-.182-.255.117-.116.097-.164-.108-.257-.102-.047-.186-.136-.186-.198a.115.115 0 00-.117-.114c-.083 0-.11.059-.093.205.016.132.066.202.142.196.065-.004.118.036.118.09s-.028.08-.062.06c-.034-.021-.062.003-.062.055 0 .073-.02.074-.09.004-.231-.231-.556.038-.486.403.045.234-.028.224-.257-.032-.142-.16-.178-.268-.152-.449.028-.191.055-.221.137-.153a.243.243 0 00.218.04c.077-.03.1-.014.07.047-.026.05 0 .042.055-.02.056-.06.151-.158.21-.215.06-.057.067-.08.016-.051-.062.035-.093 0-.093-.103 0-.135-.037-.151-.28-.127-.153.016-.262.059-.241.095.02.037.065.058.098.047.034-.012.04.014.014.057-.026.042-.075.06-.109.04-.033-.021-.102.011-.152.072-.05.06-.122.09-.16.067-.102-.063-.286.115-.286.277 0 .151-.11.187-.189.06-.06-.097-.104-.461-.05-.406.023.021.101-.016.176-.083.113-.102.154-.106.253-.023.099.082.13.08.186-.009.118-.186.076-.273-.153-.319-.268-.053-.284-.188-.05-.408.196-.184.273-.147.274.13.001.156.016.172.08.081.06-.087.067-.075.03.056-.025.092-.026.168 0 .168.107 0 .484-.233.484-.3 0-.162.162-.058.235.15.042.124.11.224.148.224.043 0 .045-.047.005-.119-.12-.215-.014-.45.264-.582l.265-.127.167.21c.092.115.15.235.13.268-.02.032.05.04.156.018l.366-.076c.147-.03.176-.085.186-.35.007-.174.032-.377.056-.453.055-.172.358-.291.593-.232.148.037.195.007.267-.167.048-.117.082-.25.074-.297-.007-.047.042-.106.108-.131a.237.237 0 01.054-.015zm-2.026.307c.033 0 .072.069.09.167.046.233.046.231-.077.187-.107-.038-.126-.29-.027-.35a.025.025 0 01.014-.004zm-.814.024l.18.196c.23.247.232.312.006.164-.131-.086-.198-.094-.26-.031-.119.118-.105.203.031.203.069 0 .094-.035.063-.085-.033-.054-.02-.066.034-.033.048.03.068.086.044.124-.024.038.008.09.07.113.069.027.194-.04.315-.168.11-.116.18-.155.156-.087-.026.071-.001.14.058.163.056.022.115 0 .132-.05.022-.066.06-.063.152.013.096.079.105.133.04.251-.057.109-.096.126-.136.06-.043-.068-.16-.043-.474.1-.23.105-.472.17-.537.145-.096-.036-.1-.058-.02-.109.08-.05.077-.064-.013-.069-.075-.004-.063-.027.037-.07.142-.061.141-.064-.018-.07-.21-.006-.284.018-.262.084.01.028-.047.072-.126.097-.078.024-.154.102-.168.171-.02.097-.038.085-.075-.048-.035-.129 0-.224.13-.354.185-.185.333-.23.333-.103 0 .04.092.07.205.064.175-.009.18-.015.037-.042-.198-.038-.206-.103-.05-.403zm5.594.344c.028.003.016.028-.03.083-.102.123-.12.128-.175.04-.023-.037.027-.084.111-.106a.328.328 0 01.094-.017zm-3.023.118c-.09.004-.202.082-.164.144.026.041.103.073.172.07.103-.004.099-.017-.023-.07-.142-.06-.142-.063-.006-.068.079-.003.122-.026.097-.052-.019-.018-.046-.025-.076-.024zm-1.1.04c.068-.003.081.043.081.177 0 .114-.058.251-.13.306-.11.083-.116.083-.037-.006.134-.15.114-.357-.037-.388-.106-.022-.1-.036.037-.073a.4.4 0 01.087-.017zm3.278.03c.104 0 .15.077.19.317.068.41.15.505.398.455.168-.033.2-.014.2.12 0 .141-.01.146-.088.04-.077-.106-.096-.096-.158.087l-.07.209-.06-.185c-.063-.196-.288-.535-.506-.761-.15-.157-.11-.282.094-.282zm-1.198.01a.61.61 0 01.14.014c.072.018-.004.033-.167.032-.164 0-.222-.016-.13-.034a.848.848 0 01.157-.013zm2.116.056h.04c.087.01.16.073.16.167 0 .07-.199.078-.357.014-.073-.029-.063-.063.037-.136a.23.23 0 01.12-.045zm-2.627.083c.004.004-.019.034-.065.093-.056.072-.115.13-.13.13-.061 0-.022-.06.102-.158.059-.046.09-.069.093-.065zm.466.082a.99.99 0 01.52.18c.337.23.502.529.502.91 0 .158-.044.347-.097.42-.09.124-.111.116-.287-.115-.153-.2-.174-.275-.108-.38.146-.231-.088-.531-.453-.58-.169-.023-.36-.086-.426-.14-.108-.09-.107-.108.012-.198.09-.068.208-.1.337-.097zm-1.04.006c-.077-.002-.244.137-.244.219 0 .036.05.065.114.065.12 0 .233-.198.157-.274a.039.039 0 00-.027-.01zm1.802.098l.167.142a.825.825 0 01.167.167c0 .06-.06.016-.193-.141zm1.623.085c.018.002.047.049.086.138.112.254.075.383-.075.259-.083-.07-.087-.042-.02.164.043.136.109.306.144.377.036.072.057.128.046.124-.16-.048-.213-.127-.252-.373-.026-.162-.076-.312-.112-.334-.104-.064-.074-.18.047-.18.062 0 .115-.058.118-.13.001-.03.008-.046.018-.045zm-3.155.074c.024.013.034.126.023.275-.04.5-.073.562-.082.147-.005-.212.017-.402.048-.421.004-.003.008-.003.011-.001zm-.594.107c-.044.005-.07.05-.07.135a.214.214 0 01-.121.188c-.068.026-.101.068-.075.094.026.027.115-.013.197-.088.082-.074.17-.114.196-.088.026.026-.056.106-.182.178-.126.073-.264.208-.306.3-.049.107-.05.168-.004.168.04 0 .073-.033.073-.073 0-.04.134-.158.297-.261.329-.208.354-.269.181-.442-.078-.078-.142-.115-.186-.11zm-2.559.024a.02.02 0 01.02.006c.023.023 0 .083-.05.133-.074.073-.082.065-.042-.041.021-.055.05-.092.072-.098zm-.523.12c-.011 0-.037.066-.059.148-.024.093-.002.149.059.149.06 0 .083-.056.059-.149-.022-.082-.048-.149-.06-.149zm7.143.013c.004.003.01.017.014.043a.82.82 0 010 .298c-.02.07-.034-.005-.033-.169 0-.102.007-.163.015-.172h.004zm-5.37.135c-.034 0-.162.083-.285.184-.123.1-.195.184-.16.185.035.002.163-.08.285-.183.122-.102.193-.186.16-.186zm2.221.121a.213.213 0 01.067.008c.243.064.146.22-.109.174-.035-.006-.045.04-.02.103.046.121.008.157-.056.053-.02-.033-.02-.13.002-.214.021-.08.058-.12.116-.124zm.232.252c.06.001.057.021-.01.064-.08.05-.077.072.018.108.065.025.118.112.118.192 0 .081-.042.171-.093.2-.051.03-.071.03-.044 0 .026-.03.003-.142-.052-.249-.107-.204-.084-.317.063-.315zm2.209.001c.072 0 .083.02.03.055a.328.328 0 00-.112.145c-.02.062-.065.068-.141.019-.1-.064-.1-.08 0-.145a.487.487 0 01.223-.074zm-1.927.296c.037 0 .067.067.067.148 0 .082-.013.15-.028.15-.016 0-.046-.068-.068-.15-.021-.081-.009-.148.029-.148zm.245 0c.056 0 .157.083.224.186.121.184.12.186-.103.186-.19 0-.224-.029-.224-.186 0-.11.042-.186.103-.186zm-1.291.083c.021.002.041.01.057.026.022.022.002.04-.042.04-.045 0-.093.058-.107.13-.024.119-.031.12-.076.006-.038-.098.076-.21.168-.202zm3 .035c.022 0 .054.006.097.014.095.019.171.055.168.08-.003.027-.03.113-.061.193-.052.13-.067.123-.17-.08-.081-.166-.101-.21-.034-.207zm-4.659.04c-.052-.002-.133.038-.192.099-.115.117-.11.12.09.03.117-.053.172-.11.123-.126a.074.074 0 00-.02-.003zm.719.187c-.042-.004-.072.04-.072.11 0 .165.083.185.141.034.022-.058 0-.12-.05-.14a.072.072 0 00-.02-.004zm-1.714.064c.017-.002.042.028.087.09.053.072.08.157.061.188-.096.155-.246.023-.195-.173.018-.069.03-.104.047-.105zm4.056.046c.04.001.078.006.103.017.05.02-.009.035-.131.034-.123-.002-.164-.018-.092-.037a.472.472 0 01.12-.014zm-4.982.075c.026 0 .048.008.06.02.025.025-.019.042-.097.039-.087-.004-.104-.021-.045-.045a.205.205 0 01.082-.014zm1.559.014c.05.006.12.072.268.22.152.151.261.318.244.37a.187.187 0 01-.137.11c-.133.021-.715-.473-.643-.546.03-.03.054-.025.054.01s.047 0 .104-.077c.043-.06.07-.092.11-.087zm1.41.05c-.05 0-.044.044.015.114.051.063.11.098.128.08.051-.052-.054-.193-.143-.193zm3.108.15c-.037 0-.008.067.067.149a.727.727 0 00.16.148c.015 0-.015-.067-.066-.148-.05-.082-.123-.15-.16-.15zm1.495.028a.016.016 0 01.013.003c.035.022.049.12.03.219a.584.584 0 00.046.329c.07.13.06.145-.07.11-.098-.025-.144-.006-.13.054.012.052-.013.106-.055.122s-.082-.035-.088-.115c-.006-.079.037-.162.096-.184.065-.025.106-.145.106-.308 0-.129.022-.223.052-.23zm-3.596.072c.007 0 .015.012.024.034.022.054.019.118-.006.143-.025.025-.042-.02-.039-.098.002-.054.01-.081.021-.08zm-4.525.007a.07.07 0 01.023 0 .55.55 0 01.097.03c.162.061.262.258.28.55.004.082-.047.13-.138.13-.177 0-.197-.031-.263-.427-.033-.202-.043-.274.001-.283zm5.806 0c-.017.004-.02.019-.006.042.025.04.077.074.116.074.107 0 .083-.054-.046-.103a.207.207 0 00-.042-.012.065.065 0 00-.022 0zm-6.054.052c.044 0 .06.047.06.14 0 .084.046.262.102.398.094.225.09.253-.045.337-.081.051-.127.059-.101.017.026-.041-.027-.144-.116-.227-.159-.148-.16-.157-.028-.302.075-.083.1-.15.058-.15-.043 0-.1.056-.126.124-.035.092-.069.102-.13.04-.063-.062-.039-.123.094-.233.115-.096.187-.143.232-.144zm1.921.005c.029-.002.054.012.082.04.074.073.075.113.006.182-.05.05-.09.123-.09.163 0 .041.046.012.101-.064.063-.085.148-.12.225-.09.151.058.239.261.149.346-.036.034-.241.085-.456.114-.382.05-.39.047-.39-.138 0-.103.08-.282.18-.397.09-.105.146-.153.193-.156zm-2.433.488c.028-.006.074.047.175.167.22.261.16.464-.106.364-.174-.065-.195-.14-.121-.417.019-.07.03-.11.052-.114zm8.936.203c.014-.004-.02.038-.101.13-.1.113-.183.199-.186.192h-.002c-.016-.019-.039-.026-.069-.015-.038-.022-.068-.022-.091-.01a16.744 16.744 0 00-.364-.036l-.52-.049.551-.013c.402-.01.594-.048.707-.143a.429.429 0 01.076-.056zm-6.49.197c.131 0 .21.033.235.099.031.082-.003.11-.122.105-.452-.024-.581-.174-.174-.201a.982.982 0 01.06-.003zm2.484.108h.018c.028.004.052.025.082.061.077.093.033.181-.263.524-.195.227-.357.41-.36.409-.215-.147-.493-.45-.46-.501.023-.04.166-.091.317-.116.15-.024.363-.13.474-.236.095-.091.15-.136.192-.141zm2.97.027c.08-.002.132.006.105.03a1.588 1.588 0 01-.329.072c-.203.03-.262.023-.186-.026.064-.04.277-.073.41-.076zm.334.013c.034 0 .067.005.093.015.051.02.009.038-.093.038s-.144-.017-.093-.038a.259.259 0 01.093-.015zm-14.053.09c-.326-.004-.637.056-.837.18-.489.304-.658 1-.361 1.487.153.252.558.48 1.081.61.437.109.615.258.509.427-.128.205-.601.168-.96-.075-.16-.11-.332-.2-.38-.2-.049 0-.196.136-.327.3-.234.297-.236.304-.099.455.207.229.69.459 1.069.509.49.064.892.007 1.216-.173.367-.204.495-.459.495-.983 0-.377-.026-.446-.247-.667-.174-.174-.408-.295-.8-.41-.652-.195-.81-.307-.667-.478.138-.166.567-.142.91.051l.296.166.216-.259c.299-.357.257-.518-.192-.743-.257-.128-.597-.195-.922-.198zm15.092.038c.002.005.002.01.002.015 0 .041.033.054.074.032a.019.019 0 01-.005.012c-.009.012-.027.014-.04.021-.003.017 0 .037-.009.051-.01.016-.034.02-.047.034-.01.012-.015.03-.023.044l-.024.047c-.006-.058-.01-.053-.042-.1a.356.356 0 00.042-.037c.027-.032.031-.08.06-.112l.011-.007zM24 6.232l-.428.023-.428.022-.02.993-.021.992-.446-.583c-1.149-1.506-1.078-1.44-1.528-1.44h-.402v3.646h.892V7.87l.756 1.008.755 1.007H24V8.059zm-7.316.035h.003l.009.01-.017.032c-.002 0-.005 0-.007-.002-.005-.002-.014-.02-.02-.037a.116.116 0 01.032-.003zm-13.552.01l-.02 1.71c-.01.94-.003 1.752.017 1.805.029.075.303.092 1.21.076l1.174-.02v-.744l-.724-.021-.723-.022-.02-1.392-.021-1.392h-.446zm13.628.001c.175.036.487.149.609.233.015.01-.08.275-.21.588-.13.313-.217.62-.192.685.024.064-.02.184-.102.271-.08.086-.276.474-.433.863-.28.69-.293.707-.547.729l-.26.022-.647-1.617c-.355-.89-.635-1.628-.621-1.642.013-.013.252-.032.53-.042h.034c.023.028.056.047.086.068-.01.014-.01.032-.002.051.005.013.01.027.022.035.016.01.037.01.056.015l.009.001c.023.037.041.076.067.11.072.098.167.177.238.276l.029.031.004.048c-.015.389-.044.149.052.545.027.085.051.172.082.257l.003.009c-.03.013-.048.043-.048.09 0 .057.05.224.113.372.173.415.482.343.482-.113 0-.051-.012-.09-.03-.105-.007-.024-.018-.049-.014-.074.008-.05.039-.092.057-.139.072-.178.068-.175.133-.361 0-.002.107-.334.113-.346.025-.046.076-.075.099-.121.023-.047.018-.12.022-.18l.061-.16.024-.056.024-.048a4.257 4.257 0 00.058-.112.867.867 0 00.036-.083c.003-.001.007-.003.01-.006V6.35l.008-.025c.007-.005.018-.004.026-.009.003-.002.008-.01.004-.01a.09.09 0 00-.028.002l.004-.025c.011-.003.027-.002.039-.005zm-6.504.017c-.031-.01-.06.07-.063.177-.006.154.02.187.13.158.14-.037.197-.316.063-.316a.5.5 0 01-.13-.019zm3.692.029c.04 0 .078.005.103.016.05.02-.009.035-.131.034-.123-.002-.164-.018-.092-.037a.472.472 0 01.12-.013zm-12.461.058c.227.005.472.058.72.164.202.087.367.172.367.189 0 .017-.051.109-.114.205l-.114.174-.273-.14c-.273-.139-.715-.182-.949-.092-.068.026-.155.131-.194.233-.121.319.079.512.721.699.657.19.963.436 1.037.829.058.311-.1.65-.416.885-.225.167-.89.237-1.24.13C.785 9.582.268 9.3.268 9.243c0-.018.054-.115.12-.215l.119-.182.34.2c.376.22.958.27 1.163.1.157-.13.15-.474-.012-.618-.072-.064-.373-.188-.67-.275-.705-.209-.914-.391-.965-.843-.072-.635.443-1.044 1.124-1.028zm16.142.032c.007.001.015.013.024.035.021.054.019.118-.006.142-.025.025-.042-.019-.04-.097.003-.054.01-.082.022-.08zm.196.033l.925.027c.792.022.954.048 1.134.18.434.318.587.949.362 1.488-.148.354-.584.549-1.234.551-.278.001-.526.04-.577.09-.049.05-.089.268-.089.484v.395h-.52V8.055zm-2.497.005h.002l.006.013h-.001a.28.28 0 00-.008-.013zm-9.48.01h.26c.27 0 .301.05.268.435-.005 0-.004.01-.005.014a.32.32 0 000 .043v.026c-.003.034-.002.059.003.066.002.027.004.054.008.08.005.06.006.06.01.126.002.029-.002.059.005.087a3.253 3.253 0 01-.02.158c-.003.02-.012.039-.008.058.005.023.022.04.034.062-.003.022-.006.044-.007.067-.002.024.005.049-.002.072-.007.024-.033.038-.04.062-.006.017.002.035.003.053.004.032.005.035.01.062h.001v1.729h-.52v-1.6zm-2.53 0h.518l.02 1.359.02 1.357.73.022.73.021-.023.202-.023.202-.986.02-.986.021V8.065zm17.557 0h.289c.284 0 .3.016 1.06 1.037.754 1.013.9 1.165 1.039 1.08.037-.023.067-.509.067-1.079V6.463h.524l-.02 1.58-.02 1.582h-.294c-.29 0-.304-.014-1.059-1.005-.473-.621-.815-1.004-.896-1.004-.118 0-.134.103-.152 1.023-.02 1.003-.024 1.023-.186 1.017-.355-.013-.352.005-.352-1.637zm-4.432.108c-.093.153-.18.31-.255.473l.01-.033c.025-.094.04-.191.073-.282.02-.055.053-.106.08-.158.026.023.037.022.092 0zm-1.067.023l.006.004.001.002a.04.04 0 00-.007-.006zm-7.574.028c-.06.005-.067.042-.043.135.05.193.343.215.307.023-.014-.072-.098-.14-.186-.153a.367.367 0 00-.078-.005zm7.872.065v0zm-9.034.001l-.002.012-.006.01.004-.021h.004zm12.384.232c-.062 0-.13.001-.201.005l-.44.022-.022.551c-.012.303-.005.596.016.651.047.12.944.141 1.158.027.213-.114.328-.544.227-.849-.093-.281-.302-.401-.738-.407zM8.71 7.058c.285 0 .412.15.412.484a.83.83 0 00.07.327c.09.166-.015.17-.367.017-.233-.101-.243-.116-.092-.141.099-.017.147-.062.118-.11-.033-.052-.007-.065.07-.035.222.085.057-.134-.21-.277-.328-.177-.328-.265 0-.265zm9.897.037l.36.013c.611.021.843.428.462.809-.14.14-.26.183-.524.183h-.342l.022-.503zm-10.675.047a.258.258 0 00-.093.016c-.051.02-.01.037.093.037.102 0 .144-.017.093-.037a.259.259 0 00-.093-.016zm.404.089c.03 0 .096.064.158.158.07.107.109.213.086.236-.023.022-.099-.047-.169-.154s-.109-.213-.086-.236a.015.015 0 01.01-.004zm2.914.199c-.177 0-.307.175-.227.304.059.095.21.085.316-.021.145-.146.102-.283-.089-.283zm-.277.02c-.017-.004-.057.016-.103.054-.061.051-.111.125-.111.164 0 .038.05.02.111-.041.062-.062.112-.135.112-.164 0-.007-.003-.01-.009-.012zm-1.49.024c.006 0 .016.005.027.017.04.04.06.134.043.21-.022.102-.04.084-.072-.072-.02-.102-.02-.155.001-.155zm-1.679.165c.03-.003.055.067.08.213.026.156.132.465.235.686.103.22.176.414.16.429-.049.049-.437-.379-.505-.556-.082-.217-.083-.615 0-.745.01-.017.02-.026.03-.027zm8.088.209c.005.002.008.016.006.052l-.009-.015.002-.035v-.002zm-7.19.128c.008.001.016.013.025.035.021.054.018.118-.006.143-.025.024-.043-.02-.04-.098.003-.054.01-.081.022-.08zm.446.162c.035-.002.071.026.135.084.103.094.116.147.053.224-.046.055-.1.1-.12.1-.021 0 0-.045.045-.1.046-.055.061-.122.034-.149-.077-.077-.247-.057-.247.03 0 .043.038.055.086.026.052-.032.065-.02.034.03-.028.045-.101.063-.163.039-.098-.038-.096-.061.014-.184.06-.065.094-.098.129-.1zm-.272.347c.014.003.023.022.023.053 0 .05.038.067.086.038.053-.033.065-.02.032.033-.036.059.002.076.12.054a.737.737 0 00.171-.043.47.47 0 01.134-.037c.109-.02.118-.005.047.08-.048.059-.13.106-.184.106-.053 0-.107.029-.12.064-.015.035-.108-.015-.208-.11-.1-.095-.158-.196-.13-.224.01-.011.02-.015.029-.014zm2.593.183c.06.004.13.083.292.28.263.321.272.348.187.605-.049.148-.073.35-.054.45.041.216-.032.22-.429.028l-.297-.145.024-.515c.019-.38.06-.547.16-.637.047-.043.08-.068.117-.066zm-1.77.036c.006 0 .012 0 .02.004.053.018.146.106.206.196.153.23.008.2-.163-.035-.077-.106-.099-.165-.063-.165zm.318.077c.003-.007.045.019.128.07.092.056.167.128.167.16 0 .089-.041.067-.193-.104-.07-.08-.106-.119-.102-.126zm.519 1.114c.033 0 .067.005.093.015.05.02.009.038-.093.038-.103 0-.145-.017-.093-.038a.26.26 0 01.093-.015zm2.53.005c.046.005.045.041.022.127-.042.163-.277.213-.36.076-.063-.1-.041-.12.202-.181a.467.467 0 01.137-.022zm-1.869.326c.02 0 .062.018.128.048.147.067.161.1.084.195-.064.08-.066.098-.004.062.048-.03.108-.02.134.022.026.042-.003.076-.064.076-.06 0-.159-.098-.219-.218-.067-.135-.092-.186-.059-.185zm1.628.297c.054-.004.091.011.091.039 0 .037-.067.067-.149.067-.081 0-.148-.013-.148-.028 0-.016.067-.046.148-.068a.33.33 0 01.058-.01zm-.941.18c-.041 0-.096.034-.12.075-.026.04-.013.074.028.074.04 0 .095-.033.12-.074.025-.041.012-.074-.028-.074zm1.193.051a.662.662 0 00-.086.008c-.123.018-.224.046-.224.062 0 .015.1.028.224.028.122 0 .223-.027.223-.061 0-.025-.057-.04-.137-.037z"/></svg>