<svg xmlns="http://www.w3.org/2000/svg" viewBox="0 0 24 24" fill="#fff"><path d="M7.149 23.728c.022-.15.06-.435.082-.635.023-.2.071-.574.107-.834.036-.259.101-.749.146-1.088.116-.876.362-2.488.516-3.372.081-.47.216-1.191.39-2.082.06-.308.109-.577.109-.598 0-.021-.333-.257-.74-.524-2.094-1.377-3.266-3.166-3.65-5.572-.31-1.935.148-3.886 1.32-5.633.387-.577 1.479-1.65 2.083-2.049C8.532.67 9.74.202 10.848.053c.837-.113 2.41-.037 3.103.15 3.172.857 5.405 3.313 5.942 6.535.487 2.923-.993 6.182-3.523 7.76-.352.22-.738.492-.858.605l-.218.205.047 1.232c.025.677.083 1.45.127 1.717.22 1.308.765 3.611 1.187 5.012.102.336.185.638.185.671 0 .033-2.19.06-4.866.06H7.108zm8.288-.907c-.024-.13-.128-.545-.23-.924-.426-1.56-.822-4.276-.948-6.492-.052-.913-.158-.67.936-2.164.346-.472.63-.904.63-.96 0-.15-.268-.393-.43-.393-.076 0-.395.238-.707.529-.86.802-.997.921-1.054.921-.028 0 .03-.219.132-.487.178-.474.18-.507.098-1.25-.121-1.096-.303-1.983-.698-3.412-.018-.064.267-.421.696-.87.788-.827.892-1.013.69-1.236-.216-.24-.418-.168-1.13.401-.374.3-.703.544-.731.544-.028 0-.033-.157-.01-.35.039-.328.008-.418-.48-1.378-.546-1.078-.676-1.211-1.006-1.034-.208.111-.248.3-.164.783.04.23.112.931.16 1.556.096 1.243.029 2.604-.2 4.05-.12.755-.12.764.036 1.117.087.196.144.37.127.387-.04.039-1.076-.89-2.074-1.858-.659-.639-.79-.736-.978-.718-.161.015-.234.07-.285.218-.08.23.034.413 1.406 2.268.931 1.259.9 1.115.531 2.502-.122.459-.259 1.03-.303 1.27l-.261 1.378c-.099.518-.228 1.22-.287 1.559-.059.339-.158.894-.22 1.233-.23 1.236-.272 1.5-.356 2.234-.048.41-.072.761-.054.78.019.017 1.648.032 3.62.032h3.588z" stroke-width="3.648"/></svg>