<?xml version="1.0" encoding="UTF-8" standalone="no"?>
<svg
   xmlns:dc="http://purl.org/dc/elements/1.1/"
   xmlns:cc="http://creativecommons.org/ns#"
   xmlns:rdf="http://www.w3.org/1999/02/22-rdf-syntax-ns#"
   xmlns:svg="http://www.w3.org/2000/svg"
   xmlns="http://www.w3.org/2000/svg"
   xmlns:sodipodi="http://sodipodi.sourceforge.net/DTD/sodipodi-0.dtd"
   xmlns:inkscape="http://www.inkscape.org/namespaces/inkscape"
   width="23.999939"
   height="5.8896399"
   version="1.1"
   id="svg841"
   sodipodi:docname="startpage.svg"
   inkscape:version="1.0.1 (c497b03c, 2020-09-10)">
  <metadata
     id="metadata847">
    <rdf:RDF>
      <cc:Work
         rdf:about="">
        <dc:format>image/svg+xml</dc:format>
        <dc:type
           rdf:resource="http://purl.org/dc/dcmitype/StillImage" />
      </cc:Work>
    </rdf:RDF>
  </metadata>
  <defs
     id="defs845" />
  <sodipodi:namedview
     pagecolor="#ffffff"
     bordercolor="#666666"
     borderopacity="1"
     objecttolerance="10"
     gridtolerance="10"
     guidetolerance="10"
     inkscape:pageopacity="0"
     inkscape:pageshadow="2"
     inkscape:window-width="1792"
     inkscape:window-height="1016"
     id="namedview843"
     showgrid="false"
     inkscape:zoom="23.885653"
     inkscape:cx="19.922002"
     inkscape:cy="2.9855187"
     inkscape:window-x="0"
     inkscape:window-y="23"
     inkscape:window-maximized="0"
     inkscape:current-layer="svg841" />
  <path
     id="path833"
     d="M 1.5237345,1.8180189e-4 C 0.68942111,0.0108975 0.18089211,0.5137588 0.14823461,1.0596045 0.11837651,1.5502747 0.36614521,1.8669117 0.93842781,2.1734561 L 1.388245,2.3983648 C 1.8261657,2.6392212 2.085007,2.8353212 2.0571393,3.2513458 2.0292716,3.6673703 1.8262823,3.9817603 1.3087398,3.9280156 0.79119721,3.8742708 0.73943521,3.4155583 0.72848731,3.2433759 c -0.00149,-0.029529 -0.00149,-0.059113 0,-0.088642 0.00216,-0.090761 0.010812,-0.1812527 0.025853,-0.2707846 h -0.00194 C 0.76433941,2.8192558 0.76818571,2.6799411 0.70846841,2.6341585 0.67712361,2.6069069 0.63895491,2.5886969 0.59805191,2.5814797 0.12330611,2.517782 -0.20612959,3.359784 0.15017861,3.7260449 0.37710101,3.9599343 0.68555041,4.146105 1.2568378,4.1799444 2.252112,4.2396608 2.8294875,3.661321 2.8692985,2.9974731 2.9071189,2.3804032 2.4502415,2.0797759 1.8262046,1.7473544 L 1.4041849,1.5413015 C 1.0448911,1.3422468 0.85881371,1.178182 0.87175231,0.854718 0.90459631,0.415802 1.2698619,0.1937859 1.6679716,0.2355875 2.0242797,0.273408 2.0492315,0.4794218 2.0382835,0.7501364 L 2.0233152,1.0148948 C 2.0153343,1.1179694 2.0933289,1.2076012 2.1965164,1.2139497 2.4393632,1.2288787 2.7298665,1.1143833 2.7487768,0.8008721 2.7696776,0.4435686 2.5606855,0.0554118 1.694797,0.0046528 1.636325,8.5280189e-4 1.5793554,-5.3719811e-4 1.5237343,1.8280189e-4 Z M 21.611361,0.0604428 c -0.649915,0 -1.069033,0.6728207 -1.305908,1.1356232 0,0 -0.05663,0.1183444 -0.07057,0.1531789 -0.04479,0 -0.08969,-0.00486 -0.136461,-0.00486 -0.780295,0 -1.22621,0.4398413 -1.226209,0.9484263 -9e-5,0.3404398 0.196016,0.6504508 0.503668,0.7962209 -0.156258,0.14531 -0.39811,0.3423821 -0.39811,0.5553707 -0.0054,0.1721591 0.07661,0.3353738 0.217911,0.4338773 0.0813,0.056196 0.172031,0.097347 0.267869,0.1214934 0.127091,0.030792 0.256565,0.050758 0.387028,0.059678 l 0.450984,0.016912 c 0.353323,0.011939 0.590168,0.1045344 0.590168,0.4051076 0,0.3523271 -0.398235,0.5613968 -0.948621,0.5613968 -0.444887,0 -0.780279,-0.1682869 -0.780279,-0.4857793 10e-4,-0.1643048 0.09248,-0.3146809 0.237932,-0.3911115 -0.123408,-0.043792 -0.233796,-0.087646 -0.327351,-0.1135231 -0.278677,0.1283905 -0.39811,0.3135269 -0.39811,0.5384588 0,0.3821852 0.409967,0.6966918 1.156422,0.6966918 1.080868,0 1.705963,-0.5552307 1.705963,-1.133485 0,-0.5095803 -0.388149,-0.7235954 -0.937541,-0.7285717 l 0.0029,9.754e-4 -0.803216,-0.012056 c -0.191061,-0.00596 -0.312547,-0.075497 -0.312547,-0.2546466 0.006,-0.069435 0.03243,-0.1355493 0.07581,-0.1901128 0.171508,0.055952 0.351075,0.083209 0.53146,0.080672 0.786268,0 1.232042,-0.4341183 1.232042,-0.9546467 -0.0025,-0.3048753 -0.164951,-0.5860305 -0.42785,-0.7404298 l -0.05191,-0.029741 c -0.02873,-0.017879 -0.05859,-0.033852 -0.08941,-0.047819 l -0.04393,-0.020022 c -0.07627,-0.030923 -0.155196,-0.054866 -0.235796,-0.071535 l -0.03285,-0.00603 c 0.06967,-0.1114709 0.350407,-0.6408555 0.644012,-0.7423734 0.10649,-0.036824 0.180144,0.011768 0.298583,0.1152726 0.07763,0.069669 0.142231,0.1811709 0.327352,0.1811709 0.18512,0 0.41502,-0.1920879 0.41502,-0.3981096 0,-0.2060218 -0.05264,-0.4756711 -0.518435,-0.4756711 z M 3.8148089,0.7223386 C 3.7859461,1.0627224 3.4326081,1.5671787 2.9528859,1.5910652 v 0.220049 h 0.370312 v 1.7267617 c 0,0.312516 0.1990471,0.6420685 0.7633675,0.6420685 0.3809274,0.00987 0.7319492,-0.2054846 0.8957467,-0.5495391 L 4.8369088,3.514938 c -0.097592,0.1371934 -0.2537377,0.2208406 -0.4220195,0.2260749 -0.1851211,0 -0.3294903,-0.09959 -0.3294903,-0.3125783 V 1.8111142 H 4.8369088 V 1.533526 H 4.0815114 V 0.7223386 Z m 7.6875211,0 c -0.02886,0.3413791 -0.381206,0.8448401 -0.861923,0.8687266 v 0.220049 h 0.370118 v 1.7267617 c 0,0.312516 0.199046,0.6420685 0.763367,0.6420685 0.381066,0.010379 0.732347,-0.2051273 0.895747,-0.5495391 L 12.525402,3.5149375 c -0.0978,0.1369563 -0.253819,0.2205355 -0.42202,0.2260749 h -0.0048 c -0.185122,0 -0.329491,-0.09959 -0.329491,-0.3125784 V 1.8111142 h 0.751315 V 1.5323597 H 11.769035 V 0.7223386 Z m 3.206649,0.6090224 -0.0039,0.00194 C 14.406955,1.331091 14.11926,1.442907 13.90089,1.6458792 L 13.9178,1.333301 h -0.199009 c -0.156258,0.1214239 -0.50965,0.2200488 -0.942595,0.2200488 v 0.230939 h 0.173201 c 0.150286,0 0.199056,0.046716 0.199056,0.1850589 V 4.968194 c 0,0.242847 -0.04072,0.3292958 -0.277589,0.3292958 h -0.09953 v 0.2260744 h 1.578442 V 5.2945736 h -0.150299 c -0.230904,0 -0.288668,-0.099442 -0.288668,-0.3353219 V 2.0618766 c 0,-0.2368753 0.173193,-0.3701175 0.438931,-0.3701175 0.359293,0 0.688722,0.2836142 0.688722,1.1047154 0,0.7574035 -0.307469,1.1046221 -0.674726,1.1334849 -0.05773,0.00498 -0.104563,0.00603 -0.155317,0.00603 v 0.1990548 c 0.06805,0.0081 0.136542,0.012122 0.205081,0.012056 0.833044,0 1.423125,-0.5723525 1.423125,-1.5148772 0,-0.7962193 -0.485701,-1.3008543 -1.127653,-1.3008543 z m -8.1392824,0.00603 c -0.7116211,0 -1.2779165,0.333448 -1.2779165,0.7036899 0,0.1900974 0.1503099,0.2985823 0.347374,0.2985823 0.04177,-6.972e-4 0.0834,-0.00506 0.1244093,-0.013026 C 5.8866962,2.2970393 5.9732513,2.1865703 5.9725319,2.0599329 V 1.9425216 c 0,-0.2139837 0.092498,-0.324436 0.3592318,-0.324436 0.2368753,0 0.4280456,0.10441 0.4280456,0.4517612 v 0.323464 c 0,0.092561 -0.028933,0.1155137 -0.1214934,0.1384053 h 9.754e-4 L 5.8730047,2.7575966 c -0.4399112,0.1333667 -0.664812,0.3642469 -0.664812,0.7225456 0,0.3821853 0.2984579,0.6966919 0.7682272,0.6966919 0.4170198,0 0.6708148,-0.1850044 0.7962193,-0.3532057 0.040806,0.1731776 0.1742273,0.3582598 0.5036631,0.3582598 0.2657382,0 0.4478733,-0.074724 0.5971644,-0.2538726 L 7.8038754,3.7717264 c -0.029385,0.030457 -0.070248,0.047114 -0.112552,0.045876 -0.099527,0 -0.1671748,-0.051769 -0.1671748,-0.1901128 V 2.0698465 c 0,-0.497637 -0.3533068,-0.7324595 -0.9544524,-0.7324595 z m 10.8694824,0 c -0.711621,0 -1.278112,0.333448 -1.278112,0.7036899 0,0.1900974 0.150334,0.2985823 0.346403,0.2985823 0.04178,-6.032e-4 0.08341,-0.00497 0.124404,-0.013026 0.127025,-0.026532 0.217749,-0.1388895 0.216939,-0.2686463 v -0.115468 c 0,-0.2139838 0.09272,-0.324436 0.358454,-0.324436 0.23787,0 0.427852,0.10441 0.427852,0.4517612 v 0.323464 c 0,0.092561 -0.02874,0.1155137 -0.121298,0.1384053 l -0.763562,0.2258807 c -0.438916,0.1333668 -0.664812,0.364247 -0.664812,0.7225457 0,0.3821852 0.298628,0.6966918 0.769393,0.6966918 0.416024,0 0.670815,-0.1850043 0.796219,-0.3532056 0.04081,0.1731776 0.173178,0.3582597 0.497638,0.3582597 0.228721,0.018898 0.452076,-0.076056 0.597168,-0.2538723 l -0.0029,-0.00194 -0.06978,-0.1562891 c -0.02934,0.030407 -0.07012,0.047059 -0.112361,0.045876 -0.09953,0 -0.167176,-0.051769 -0.167176,-0.190113 V 2.0698467 c 0,-0.4976371 -0.353305,-0.7324596 -0.954451,-0.7324596 z m -7.4507544,0.00389 c -0.219956,0 -0.54943,0.1563436 -0.786306,0.4857793 v -0.015937 c 0,-0.2199556 -0.156219,-0.4459295 -0.532433,-0.4459295 -0.221422,0.00452 -0.440354,0.047672 -0.646928,0.127519 v 0.2138285 c 0.04935,-0.010929 0.09972,-0.016597 0.150263,-0.016912 0.199055,0 0.283809,0.1324804 0.283809,0.3355163 l -0.0041,-9.754e-4 v 1.5395647 c 0,0.2428468 -0.04083,0.3355162 -0.272728,0.3355162 h -0.09952 v 0.2309281 h 1.572611 V 3.9011898 h -0.11955 c -0.236875,0 -0.323464,-0.092475 -0.323464,-0.3353219 V 2.1096964 c 0.126919,-0.109665 0.262024,-0.209482 0.404136,-0.2985822 0.02242,0.2142098 0.207825,0.3738816 0.4229914,0.3642859 0.22725,-0.0016 0.411378,-0.1848656 0.41405,-0.4121058 0,-0.2249319 -0.162268,-0.4220195 -0.4628414,-0.4220195 z m 13.0281764,0 c -0.849963,0 -1.376471,0.6968008 -1.376471,1.5298453 0,0.810153 0.497714,1.306686 1.249146,1.306686 0.584226,0 0.96044,-0.2767017 1.094801,-0.4389314 l -0.05773,-0.2138353 c -0.18559,0.1330693 -0.407687,0.2056988 -0.636042,0.2079971 -0.43394,0 -0.861923,-0.2080513 -0.861923,-1.035124 0,-0.696692 0.219972,-1.0948015 0.53846,-1.0948015 0.213983,0 0.37031,0.1562891 0.37031,0.4797531 0,0.3931333 -0.185213,0.5781144 -0.468867,0.5781143 l -0.002,0.00214 c -0.0747,-3.273e-4 -0.148898,-0.012056 -0.220048,-0.034796 l 0.006,0.2079967 c 0.139978,0.055376 0.289379,0.083037 0.439905,0.081449 0.54342,0 0.907798,-0.3125084 0.907798,-0.7633675 0,-0.4339396 -0.364356,-0.8131311 -0.983417,-0.8131311 z m -2.919146,0.2369607 c 0.352326,0 0.462841,0.2825802 0.462841,0.7165197 0,0.4339395 -0.110513,0.723712 -0.462841,0.723712 -0.352327,0 -0.456815,-0.2838009 -0.456815,-0.723712 0,-0.4399111 0.104485,-0.7165197 0.456815,-0.7165197 z M 6.7588376,2.7008329 6.759813,3.416575 c 0,0.2318988 -0.1453256,0.3532057 -0.3642859,0.3532057 -0.2438421,0 -0.4169654,-0.1393385 -0.4169654,-0.3981096 0,-0.2259274 0.1273945,-0.4051233 0.3981097,-0.5205751 z m 10.8782304,0.00214 0.0012,0.7155477 c 0,0.2318989 -0.14433,0.3532056 -0.364287,0.3532056 -0.242846,0 -0.416188,-0.1393383 -0.416188,-0.3981095 0,-0.2259272 0.127392,-0.4049289 0.39811,-0.5203807 z M 5.453901,4.9153196 c -3.0515105,0 -3.1529817,0.074661 -4.95343259,0.2647585 -0.6160747,0.064693 -0.6110749,0.7813214 0.073674,0.70369 C 1.5933031,5.7693115 3.0176414,5.6230373 4.235857,5.54242 5.2430743,5.476732 6.7687829,5.394101 8.4428336,5.394101 c 1.471015,0 2.7718624,0.028871 3.5073704,0.082615 0.07454,0.018501 0.09176,-0.1348687 0.01497,-0.1333512 v -0.00194 C 11.149047,5.2418941 9.7755136,5.0874711 8.4010396,5.0078492 7.1569473,4.9371847 5.9903538,4.9153198 5.453901,4.9153196 Z"
     style="stroke-width:0.999997"
     sodipodi:nodetypes="ccccssccccccccccccccccccccsccscccccccsscccssscccccccccccccscssssccccsccccsccccccccccsccccsscccccccccccccssssccccsssssccccscccscccsssscccsscscccssccsscccssssccssccccccssssccsccccccssccccsscccccccsscccssscccccsccsssssccssccccssccscccsccccs" />
</svg>
