<?xml version="1.0" encoding="UTF-8" standalone="no"?>
<svg
   xmlns:dc="http://purl.org/dc/elements/1.1/"
   xmlns:cc="http://creativecommons.org/ns#"
   xmlns:rdf="http://www.w3.org/1999/02/22-rdf-syntax-ns#"
   xmlns:svg="http://www.w3.org/2000/svg"
   xmlns="http://www.w3.org/2000/svg"
   xmlns:sodipodi="http://sodipodi.sourceforge.net/DTD/sodipodi-0.dtd"
   xmlns:inkscape="http://www.inkscape.org/namespaces/inkscape"
   viewbox="0 0 24 24"
   width="19.958"
   height="24"
   version="1.1"
   id="svg835"
   sodipodi:docname="strongvpn.svg"
   inkscape:version="1.0.1 (c497b03c, 2020-09-10)">
  <metadata
     id="metadata841">
    <rdf:RDF>
      <cc:Work
         rdf:about="">
        <dc:format>image/svg+xml</dc:format>
        <dc:type
           rdf:resource="http://purl.org/dc/dcmitype/StillImage" />
      </cc:Work>
    </rdf:RDF>
  </metadata>
  <defs
     id="defs839" />
  <sodipodi:namedview
     pagecolor="#ffffff"
     bordercolor="#666666"
     borderopacity="1"
     objecttolerance="10"
     gridtolerance="10"
     guidetolerance="10"
     inkscape:pageopacity="0"
     inkscape:pageshadow="2"
     inkscape:window-width="1792"
     inkscape:window-height="1016"
     id="namedview837"
     showgrid="false"
     inkscape:zoom="15.140692"
     inkscape:cx="11.804511"
     inkscape:cy="2.8394455"
     inkscape:window-x="0"
     inkscape:window-y="23"
     inkscape:window-maximized="0"
     inkscape:current-layer="svg835" />
  <path
     id="path833"
     style="fill:#000000;fill-opacity:1"
     d="m 9.9644117,0 c -4.998,0 -8.3668125,0.99120312 -8.5078125,1.0332031 L 0.13433358,1.4316406 0.0737867,2.8105469 C 0.03854195,4.866807 -0.00914403,6.2628586 0.00152108,8.125 c 0.077,5.928 0.7245,7.553891 0.9375,8.087891 0.48500002,1.22 1.74928132,2.451031 3.11328132,3.707031 0.131,0.12 0.2495156,0.228172 0.3535156,0.326172 1.104,1.037 4.0168437,2.813203 4.5898437,3.158203 L 9.9819898,24 10.978084,23.419922 c 0.475,-0.279 2.506328,-1.476469 3.861328,-2.480469 l 0.002,-0.002 c 0.337,-0.25 0.63161,-0.487266 0.84961,-0.697266 l 0.335937,-0.316406 c 1.348,-1.262 2.598313,-2.497703 3.070313,-3.720703 0.208,-0.536 0.840515,-2.167656 0.853515,-8.0976562 0.007,-2.809 -0.125859,-5.2154063 -0.130859,-5.3164063 L 19.747615,1.4980469 18.528865,1.0664062 C 15.91108,0.32085558 13.055879,-0.00244635 9.9644117,0 Z m 0.00195,3.8867188 c 2.8129993,0 4.8344843,0.2941562 6.0214843,0.5351562 v -0.00195 c 0.0012,3.137e-4 0.0027,-2.959e-4 0.0039,0 v 0.00391 l 0.0078,0.00195 c 0.04373,1.2293233 0.06457,2.4593542 0.0625,3.6894532 -0.012,4.6869998 -0.416843,6.2405468 -0.589843,6.6855468 -0.22,0.522 -1.635563,1.850157 -2.101563,2.285157 -0.134,0.125 -0.256281,0.239796 -0.363281,0.341796 -0.439,0.42 -1.791281,1.300203 -2.988281,2.033204 l -0.0039,0.0039 c -1.1689991,-0.738 -2.4923116,-1.624781 -2.9453116,-2.050782 -0.112,-0.106 -0.2418125,-0.225468 -0.3828125,-0.355468 -0.473,-0.436 -1.9117656,-1.761203 -2.1347656,-2.283203 C 3.9146551,13.171309 3.8174663,8.142854 3.9097242,4.5039062 5.8985055,4.1531224 8.1101323,3.8975849 9.9663648,3.8867188 Z"
     sodipodi:nodetypes="cccccccccccccccccccccccccccccccccccccc" />
  <circle
     id="path847"
     style="fill:#000000;stroke:#000000"
     cx="3.7703614"
     cy="3.386935"
     r="0.0016085802" />
</svg>
