<svg xmlns="http://www.w3.org/2000/svg" viewBox="0 0 24 24" fill="#fff"><path fill-rule="evenodd" clip-rule="evenodd" d="M14.767.002L14.684 0H9.138c-3.63.196-5.156 2.305-5.566 3.428C1.982 8.198.992 14.374.277 18.833l-.042.259-.232 2.119c-.014.334.018.697.108 1.048.446 1.293 1.79 2.383 4.752 1.297v.002a210.89 210.89 0 009.522-4.438c1.946-1.125 4.797-3.712 4.943-6.98a135.425 135.425 0 00-.272-7.438l-.001.002v-.017c-.014-.203-.028-.438-.042-.683-.029-.47-.059-.975-.092-1.358a4.728 4.728 0 00-.186-.723C18.26.863 17.33.353 16.349.108 15.9.031 15.352.017 14.767.002zm-.211 4.932a.496.496 0 00-.497-.496 5.708 5.708 0 00-5.707 5.708v1.91a3.068 3.068 0 01-3.068 3.068.511.511 0 00-.512.511v1.562c0 .274.223.496.497.496a5.708 5.708 0 005.707-5.707v-1.91a3.068 3.068 0 013.068-3.069.511.511 0 00.512-.511z"/></svg>