<svg xmlns="http://www.w3.org/2000/svg" fill-rule="evenodd" stroke-linejoin="round" stroke-miterlimit="2" viewBox="0 0 6048 6048"><g transform="translate(-3328.71 -2910.519) scale(2.0272)"><circle cx="3133.55" cy="2927.26" r="1491.53" fill="#ee5128"/><clipPath id="a"><circle cx="3133.55" cy="2927.26" r="1491.53"/></clipPath><g clip-path="url(#a)"><path fill="#fab314" d="m1463.805 4601.59 3344.079-3344.078L6192.61 2642.24 2848.533 5986.318z"/><path fill="#7cbb41" d="M3133.551 1257.521v1422.41l4.59 247.33 1276.58-1276.58-727.08-393.16h-554.09z"/><path fill="#279ad5" d="M5030.341 2927.261h-1892.2l1363.48-1363.48 528.72 1363.48z"/></g></g><g transform="matrix(1.78754 0 0 1.78754 -2577.703 -2208.953)"><circle cx="3133.55" cy="2927.26" r="1491.53"/><clipPath id="b"><circle cx="3133.55" cy="2927.26" r="1491.53"/></clipPath><g clip-path="url(#b)"><circle cx="3305.85" cy="4518.47" r="1209.3" fill="#fff" transform="translate(-3918.18 -3725.29) scale(2.13311)"/><path fill="#fab314" d="M3152.177 3945.245a39.626 39.626 0 0 1-37.245 0c-52.229-28.929-204.381-123.192-328.011-299.375-92.13-131.308-133.949-279.825-150.927-358.496a54.55 54.55 0 0 1 7.854-41.48 54.585 54.585 0 0 1 35.097-23.47c59.236-11.619 157.68-35.489 240.671-77.469 85.092-43.043 151.359-100.446 186.386-134.272 15.361-14.853 39.74-14.853 55.109 0 35.02 33.826 101.293 91.229 186.378 134.272 82.998 41.98 181.435 65.85 240.678 77.469a54.6 54.6 0 0 1 35.097 23.47 54.585 54.585 0 0 1 7.854 41.48c-16.986 78.671-58.797 227.188-150.935 358.496-123.623 176.183-275.775 270.446-328.004 299.375z"/><path fill="#fff" d="M3098.964 2125.36a39.63 39.63 0 0 0 34.588 20.29 39.6 39.6 0 0 0 34.588-20.29c65.58-117.317 169.019-205.536 298.752-240.291 283.843-76.054 586.706 132.418 675.884 465.266 89.189 332.836-68.852 664.81-352.695 740.864-240.747 64.513-495.18-75.671-621.294-322.793-6.783-13.195-20.386-21.488-35.235-21.488a39.64 39.64 0 0 0-35.235 21.488c-126.114 247.122-380.535 387.306-621.282 322.793-283.855-76.054-441.884-408.028-352.707-740.864 89.189-332.848 392.04-541.32 675.884-465.266 129.733 34.755 233.184 122.974 298.752 240.291z"/><circle class="logo-eye logo-eye--left" cx="2728.54" cy="2896.83" r="108.215" transform="translate(-1330.46 -1816.92) scale(1.52514)"/><circle class="logo-eye logo-eye--right" cx="2728.54" cy="2896.83" r="108.215" transform="translate(-725.25 -1816.92) scale(1.52514)"/></g></g></svg>