<svg width="80" height="80" viewBox="0 0 80 80" fill="none" xmlns="http://www.w3.org/2000/svg">
<g clip-path="url(#clip0_495_515)">
<path d="M68.5001 51.7548C64.7574 48.0122 60.3142 45.0433 55.4242 43.0178C50.5341 40.9923 45.293 39.9497 40.0001 39.9497C34.7071 39.9497 29.466 40.9923 24.576 43.0178C19.6859 45.0433 15.2427 48.0122 11.5 51.7548L40.0001 80.2549L68.5001 51.7548Z" fill="black"/>
<circle cx="40.0001" cy="88.0001" r="40.3051" transform="rotate(-45 40.0001 88.0001)" fill="black"/>
<path d="M39.9976 59.9951C51.0419 59.9951 59.9951 51.0419 59.9951 39.9976C59.9951 28.9532 51.0419 20 39.9976 20C28.9532 20 20 28.9532 20 39.9976C20 51.0419 28.9532 59.9951 39.9976 59.9951Z" fill="#EE5128"/>
<mask id="mask0_495_515" style="mask-type:luminance" maskUnits="userSpaceOnUse" x="20" y="20" width="40" height="40">
<path d="M39.9976 59.9951C51.0419 59.9951 59.9951 51.0419 59.9951 39.9976C59.9951 28.9532 51.0419 20 39.9976 20C28.9532 20 20 28.9532 20 39.9976C20 51.0419 28.9532 59.9951 39.9976 59.9951Z" fill="white"/>
</mask>
<g mask="url(#mask0_495_515)">
<path fill-rule="evenodd" clip-rule="evenodd" d="M17.6106 62.446L62.446 17.6106L81.0116 36.1762L36.1762 81.0116L17.6106 62.446Z" fill="#FAB314"/>
<path fill-rule="evenodd" clip-rule="evenodd" d="M39.9976 17.6107V36.6815L40.0591 39.9976L57.1747 22.882L47.4265 17.6107H39.9976Z" fill="#7CBB41"/>
<path fill-rule="evenodd" clip-rule="evenodd" d="M65.4286 39.9977H40.0591L58.3398 21.7169L65.4286 39.9977Z" fill="#279AD5"/>
<path fill-rule="evenodd" clip-rule="evenodd" d="M26.944 20.128L23.376 33.6072L23.32 33.8463C16.452 34.972 12 36.778 12 38.815C12 42.2291 24.536 45 40 45C55.464 45 68 42.2291 68 38.815C68 36.778 63.548 34.972 56.68 33.8463L56.624 33.6072L53.056 20.1238C52.472 17.9261 50.264 16.6231 48.1 17.0973C45.644 17.6333 42.48 18.1982 40 18.1982C37.52 18.1982 34.356 17.6375 31.9 17.0973C29.736 16.6231 27.528 17.922 26.944 20.128ZM27.004 36.0729C27.017 35.9381 27.0557 35.8072 27.1178 35.6877C27.18 35.5682 27.2644 35.4626 27.3662 35.3768C27.468 35.291 27.5852 35.2268 27.7111 35.1877C27.837 35.1487 27.9692 35.1356 28.1 35.1493C31.7 35.5287 35.74 35.739 40 35.739C43.9737 35.7456 47.9453 35.5488 51.9 35.1493C52.1642 35.122 52.428 35.2039 52.6336 35.3771C52.8391 35.5504 52.9695 35.8006 52.996 36.0729C53.0225 36.3453 52.943 36.6173 52.775 36.8291C52.607 37.041 52.3642 37.1754 52.1 37.2027C48.428 37.5862 44.324 37.8006 40 37.8006C35.676 37.8006 31.572 37.5862 27.9 37.2027C27.7692 37.1893 27.6422 37.1495 27.5263 37.0854C27.4104 37.0213 27.3079 36.9344 27.2247 36.8294C27.1415 36.7245 27.0791 36.6036 27.0413 36.4738C27.0034 36.344 26.9907 36.2078 27.004 36.0729Z" fill="black" fill-opacity="0.5"/>
</g>
<path d="M39.9977 57.6311C49.7363 57.6311 57.6311 49.7363 57.6311 39.9977C57.6311 30.259 49.7363 22.3643 39.9977 22.3643C30.259 22.3643 22.3643 30.259 22.3643 39.9977C22.3643 49.7363 30.259 57.6311 39.9977 57.6311Z" fill="black"/>
<mask id="mask1_495_515" style="mask-type:luminance" maskUnits="userSpaceOnUse" x="22" y="22" width="36" height="36">
<path d="M39.9977 57.6311C49.7363 57.6311 57.6311 49.7363 57.6311 39.9977C57.6311 30.259 49.7363 22.3643 39.9977 22.3643C30.259 22.3643 22.3643 30.259 22.3643 39.9977C22.3643 49.7363 30.259 57.6311 39.9977 57.6311Z" fill="white"/>
</mask>
<g mask="url(#mask1_495_515)">
<path d="M39.9978 105.794C56.8406 105.794 70.4944 92.1402 70.4944 75.2974C70.4944 58.4546 56.8406 44.8008 39.9978 44.8008C23.155 44.8008 9.50122 58.4546 9.50122 75.2974C9.50122 92.1402 23.155 105.794 39.9978 105.794Z" fill="white"/>
<path fill-rule="evenodd" clip-rule="evenodd" d="M40.2179 52.0326C40.1501 52.0687 40.0745 52.0876 39.9977 52.0876C39.9209 52.0876 39.8453 52.0687 39.7776 52.0326C39.1601 51.6906 37.3613 50.5762 35.8997 48.4933C34.8105 46.9409 34.3161 45.1851 34.1154 44.255C34.0975 44.1712 34.0965 44.0847 34.1125 44.0005C34.1284 43.9163 34.161 43.8361 34.2082 43.7646C34.2555 43.6931 34.3166 43.6318 34.3878 43.5841C34.459 43.5365 34.5391 43.5035 34.6232 43.4871C35.3235 43.3498 36.4873 43.0676 37.4685 42.5713C38.4745 42.0624 39.2579 41.3838 39.672 40.9839C39.8536 40.8083 40.1418 40.8083 40.3235 40.9839C40.7375 41.3838 41.521 42.0624 42.5269 42.5713C43.5082 43.0676 44.6719 43.3498 45.3723 43.4871C45.4564 43.5035 45.5364 43.5365 45.6077 43.5842C45.6789 43.6318 45.74 43.6931 45.7872 43.7646C45.8345 43.8361 45.8671 43.9163 45.883 44.0005C45.8989 44.0847 45.898 44.1712 45.8801 44.255C45.6793 45.1851 45.185 46.9409 44.0957 48.4933C42.6342 50.5762 40.8354 51.6906 40.2179 52.0326Z" fill="#FAB314"/>
<path fill-rule="evenodd" clip-rule="evenodd" d="M39.5887 30.5173C39.6294 30.59 39.6887 30.6506 39.7606 30.6928C39.8325 30.735 39.9143 30.7572 39.9977 30.7572C40.081 30.7572 40.1628 30.735 40.2347 30.6928C40.3066 30.6507 40.3659 30.5901 40.4066 30.5173C41.1819 29.1304 42.4048 28.0874 43.9385 27.6765C47.2942 26.7774 50.8748 29.242 51.9291 33.177C52.9835 37.112 51.1151 41.0367 47.7594 41.9358C44.9132 42.6985 41.9052 41.0412 40.4142 38.1196C40.334 37.9636 40.1732 37.8656 39.9977 37.8656C39.9116 37.8656 39.8272 37.8893 39.7537 37.9341C39.6802 37.9789 39.6205 38.0431 39.5811 38.1196C38.0901 41.0412 35.0823 42.6985 32.2361 41.9358C28.8802 41.0367 27.012 37.112 28.0662 33.177C29.1207 29.242 32.7011 26.7774 36.0568 27.6765C37.5905 28.0874 38.8136 29.1304 39.5887 30.5173Z" fill="white"/>
<path d="M36.4202 38.0934C37.4978 38.0934 38.3714 37.2199 38.3714 36.1422C38.3714 35.0646 37.4978 34.191 36.4202 34.191C35.3426 34.191 34.469 35.0646 34.469 36.1422C34.469 37.2199 35.3426 38.0934 36.4202 38.0934Z" fill="black"/>
<path d="M43.5752 38.0934C44.6528 38.0934 45.5264 37.2199 45.5264 36.1422C45.5264 35.0646 44.6528 34.191 43.5752 34.191C42.4976 34.191 41.624 35.0646 41.624 36.1422C41.624 37.2199 42.4976 38.0934 43.5752 38.0934Z" fill="black"/>
<path fill-rule="evenodd" clip-rule="evenodd" d="M26.944 20.128L23.376 33.6072L23.32 33.8463C16.452 34.972 12 36.778 12 38.815C12 42.2291 24.536 45 40 45C55.464 45 68 42.2291 68 38.815C68 36.778 63.548 34.972 56.68 33.8463L56.624 33.6072L53.056 20.1238C52.472 17.9261 50.264 16.6231 48.1 17.0973C45.644 17.6333 42.48 18.1982 40 18.1982C37.52 18.1982 34.356 17.6375 31.9 17.0973C29.736 16.6231 27.528 17.922 26.944 20.128ZM27.004 36.0729C27.017 35.9381 27.0557 35.8072 27.1178 35.6877C27.18 35.5682 27.2644 35.4626 27.3662 35.3768C27.468 35.291 27.5852 35.2268 27.7111 35.1877C27.837 35.1487 27.9692 35.1356 28.1 35.1493C31.7 35.5287 35.74 35.739 40 35.739C43.9737 35.7456 47.9453 35.5488 51.9 35.1493C52.1642 35.122 52.428 35.2039 52.6336 35.3771C52.8391 35.5504 52.9695 35.8006 52.996 36.0729C53.0225 36.3453 52.943 36.6173 52.775 36.8291C52.607 37.041 52.3642 37.1754 52.1 37.2027C48.428 37.5862 44.324 37.8006 40 37.8006C35.676 37.8006 31.572 37.5862 27.9 37.2027C27.7692 37.1893 27.6422 37.1495 27.5263 37.0854C27.4104 37.0213 27.3079 36.9344 27.2247 36.8294C27.1415 36.7245 27.0791 36.6036 27.0413 36.4738C27.0034 36.344 26.9907 36.2078 27.004 36.0729Z" fill="black" fill-opacity="0.5"/>
</g>
<path fill-rule="evenodd" clip-rule="evenodd" d="M26.944 14.128L23.376 27.6072L23.32 27.8463C16.452 28.972 12 30.778 12 32.815C12 36.2291 24.536 39 40 39C55.464 39 68 36.2291 68 32.815C68 30.778 63.548 28.972 56.68 27.8463L56.624 27.6072L53.056 14.1238C52.472 11.9261 50.264 10.6231 48.1 11.0973C45.644 11.6333 42.48 12.1982 40 12.1982C37.52 12.1982 34.356 11.6375 31.9 11.0973C29.736 10.6231 27.528 11.922 26.944 14.128ZM27.004 30.0729C27.017 29.9381 27.0557 29.8072 27.1178 29.6877C27.18 29.5682 27.2644 29.4626 27.3662 29.3768C27.468 29.291 27.5852 29.2268 27.7111 29.1877C27.837 29.1487 27.9692 29.1356 28.1 29.1493C31.7 29.5287 35.74 29.739 40 29.739C43.9737 29.7456 47.9453 29.5488 51.9 29.1493C52.1642 29.122 52.428 29.2039 52.6336 29.3771C52.8391 29.5504 52.9695 29.8006 52.996 30.0729C53.0225 30.3453 52.943 30.6173 52.775 30.8291C52.607 31.041 52.3642 31.1754 52.1 31.2027C48.428 31.5862 44.324 31.8006 40 31.8006C35.676 31.8006 31.572 31.5862 27.9 31.2027C27.7692 31.1893 27.6422 31.1495 27.5263 31.0854C27.4104 31.0213 27.3079 30.9344 27.2247 30.8294C27.1415 30.7245 27.0791 30.6036 27.0413 30.4738C27.0034 30.344 26.9907 30.2078 27.004 30.0729Z" fill="black"/>
<rect x="25" y="28" width="31" height="6" fill="black"/>
</g>
<defs>
<clipPath id="clip0_495_515">
<rect width="80" height="80" fill="white"/>
</clipPath>
</defs>
</svg>
