<svg xmlns="http://www.w3.org/2000/svg" viewBox="0 0 260 260" fill="none"><g clip-path="url(#a)"><path fill="#fff" fill-rule="evenodd" d="M259.968 129.984c0 71.788-58.196 129.984-129.984 129.984C58.196 259.968 0 201.772 0 129.984 0 58.196 58.196 0 129.984 0c71.788 0 129.984 58.196 129.984 129.984Zm-15.366.001c0 63.301-51.316 114.617-114.617 114.617-63.302 0-114.617-51.316-114.617-114.617 0-63.302 51.315-114.617 114.617-114.617 63.301 0 114.617 51.315 114.617 114.617Z" clip-rule="evenodd"/><mask id="b" width="230" height="230" x="15" y="15" maskUnits="userSpaceOnUse" style="mask-type:luminance"><path fill="#fff" d="M129.985 244.602c63.301 0 114.617-51.316 114.617-114.617 0-63.302-51.316-114.617-114.617-114.617-63.302 0-114.617 51.315-114.617 114.617 0 63.301 51.315 114.617 114.617 114.617Z"/></mask><g fill="#fff" fill-rule="evenodd" clip-rule="evenodd" mask="url(#b)"><path d="M131.416 208.212a3.04 3.04 0 0 1-2.862 0c-4.014-2.223-15.706-9.467-25.206-23.006-7.08-10.09-10.294-21.503-11.598-27.548a4.193 4.193 0 0 1 3.3-4.991c4.552-.893 12.117-2.728 18.495-5.953 6.539-3.308 11.631-7.719 14.323-10.319a3.048 3.048 0 0 1 4.235 0c2.691 2.6 7.783 7.011 14.322 10.319 6.378 3.225 13.942 5.06 18.495 5.953a4.195 4.195 0 0 1 3.3 4.991c-1.305 6.045-4.518 17.458-11.598 27.548-9.5 13.539-21.192 20.783-25.206 23.006Z"/><path d="M127.327 68.362a3.044 3.044 0 0 0 5.316 0c5.039-9.015 12.988-15.794 22.957-18.465 21.812-5.844 45.086 10.176 51.939 35.754 6.854 25.577-5.291 51.087-27.103 56.932-18.5 4.957-38.052-5.815-47.744-24.806a3.042 3.042 0 0 0-4.293-1.205 3.04 3.04 0 0 0-1.122 1.205c-9.691 18.991-29.242 29.763-47.743 24.806-21.812-5.845-33.956-31.355-27.103-56.932 6.853-25.578 30.126-41.598 51.938-35.754 9.97 2.67 17.919 9.45 22.958 18.465Zm-20.596 49.245c7.004 0 12.683-5.678 12.683-12.682 0-7.005-5.679-12.683-12.683-12.683-7.005 0-12.683 5.678-12.683 12.683 0 7.004 5.678 12.682 12.683 12.682Zm59.19-12.682c0 7.004-5.678 12.682-12.683 12.682-7.004 0-12.682-5.678-12.682-12.682 0-7.005 5.678-12.683 12.682-12.683 7.005 0 12.683 5.678 12.683 12.683Z"/></g></g><defs><clipPath id="a"><path fill="#fff" d="M0 0h260v260H0z"/></clipPath></defs></svg>
