<?xml version="1.0" encoding="UTF-8" standalone="no"?>
<svg
   xmlns:dc="http://purl.org/dc/elements/1.1/"
   xmlns:cc="http://creativecommons.org/ns#"
   xmlns:rdf="http://www.w3.org/1999/02/22-rdf-syntax-ns#"
   xmlns:svg="http://www.w3.org/2000/svg"
   xmlns="http://www.w3.org/2000/svg"
   xmlns:sodipodi="http://sodipodi.sourceforge.net/DTD/sodipodi-0.dtd"
   xmlns:inkscape="http://www.inkscape.org/namespaces/inkscape"
   fill="#fff"
   role="img"
   viewBox="0 0 24 24"
   version="1.1"
   id="svg835"
   sodipodi:docname="tempmail.svg"
   inkscape:version="1.0.1 (c497b03c, 2020-09-10)">
  <metadata
     id="metadata841">
    <rdf:RDF>
      <cc:Work
         rdf:about="">
        <dc:format>image/svg+xml</dc:format>
        <dc:type
           rdf:resource="http://purl.org/dc/dcmitype/StillImage" />
      </cc:Work>
    </rdf:RDF>
  </metadata>
  <defs
     id="defs839" />
  <sodipodi:namedview
     pagecolor="#ffffff"
     bordercolor="#666666"
     borderopacity="1"
     objecttolerance="10"
     gridtolerance="10"
     guidetolerance="10"
     inkscape:pageopacity="0"
     inkscape:pageshadow="2"
     inkscape:window-width="1792"
     inkscape:window-height="1016"
     id="namedview837"
     showgrid="false"
     inkscape:zoom="4.0063371"
     inkscape:cx="12.520051"
     inkscape:cy="12.152835"
     inkscape:window-x="0"
     inkscape:window-y="23"
     inkscape:window-maximized="0"
     inkscape:current-layer="svg835" />
  <path
     d="M 10.455021,21.50648 A 1.124745,1.124745 0 0 1 9.7279448,21.01409 1.0974929,1.0974929 0 0 1 10.167948,19.429234 l 0.212725,-0.104775 5.11202,-0.02249 5.11202,-0.02249 0.214048,-0.09895 c 0.319088,-0.147373 0.675482,-0.507736 0.827618,-0.836878 l 0.129381,-0.280458 v -6.034892 c 0,-4.3791236 -0.01376,-6.0587006 -0.05053,-6.1206126 -0.04524,-0.07673 -0.303478,0.1651 -2.466449,2.306904 -1.329003,1.315775 -2.554026,2.5037546 -2.722565,2.6400156 -0.374651,0.302419 -0.917047,0.579703 -1.388535,0.709878 -0.287867,0.07938 -0.473869,0.0971 -1.006212,0.09657 -0.57785,-7.94e-4 -0.6985,-0.01455 -1.049603,-0.121444 -0.218281,-0.06615 -0.501915,-0.173302 -0.630503,-0.238125 -0.617014,-0.310354 -0.82286,-0.501119 -3.8303819,-3.5496506 L 5.6517695,4.7318784 3.2644315,4.7093894 C 1.1014604,4.6890164 0.86068932,4.6794914 0.69955789,4.6067304 0.24341573,4.4003554 -1.204045e-6,4.0444904 -1.204045e-6,3.5827924 -1.204045e-6,3.1216228 0.24341573,2.7654932 0.69955789,2.5596472 0.86809766,2.4837117 1.3808607,2.4786846 10.403162,2.4659846 c 6.460603,-0.009 9.687994,0.00212 10.029836,0.034396 0.56912,0.053975 0.973139,0.1651002 1.432721,0.3942296 0.960438,0.4791612 1.656293,1.3102182 1.990198,2.3772832 l 0.127,0.405343 0.01191,6.2018396 c 0.01191,6.020071 0.0095,6.213481 -0.0762,6.606653 -0.321734,1.473995 -1.443039,2.59874 -2.955664,2.964394 -0.282311,0.06826 -0.805392,0.07673 -5.312839,0.08573 -2.749288,0.0053 -5.087414,-0.0079 -5.195099,-0.02963 z M 14.836525,9.3112924 c 0.265642,-0.124355 0.510647,-0.351103 2.548735,-2.358499 l 2.254517,-2.221179 -2.700605,-0.01164 c -1.485373,-0.0064 -3.933036,-0.0064 -5.439046,0 l -2.7384406,0.01164 2.2045106,2.222502 c 1.353875,1.365252 2.274361,2.258486 2.386015,2.316165 0.480484,0.248709 1.009651,0.263261 1.484314,0.041011 z M 8.195741,17.45835 A 1.1353283,1.1353283 0 0 1 7.6427612,17.094283 C 7.213342,16.592633 7.3376963,15.800469 7.9009949,15.452277 l 0.2201335,-0.13626 1.602583,-0.01402 c 1.0173246,-0.0087 1.6607916,0.0032 1.7621276,0.03281 0.224366,0.06588 0.510381,0.324909 0.623094,0.564886 0.122767,0.261144 0.127794,0.692416 0.01111,0.949326 -0.111918,0.246592 -0.452438,0.538428 -0.701411,0.601134 -0.227542,0.05715 -3.0382136,0.06429 -3.2226284,0.0079 z M 5.2787066,13.421069 c -0.3833817,-0.191294 -0.5953131,-0.54319 -0.5953131,-0.987691 0,-0.426773 0.2116669,-0.769144 0.6077485,-0.983457 0.1730377,-0.09366 0.2413003,-0.0979 1.7118561,-0.111125 1.0911428,-0.0098 1.5867079,0.0019 1.7250852,0.04022 0.2606148,0.07276 0.6117173,0.393965 0.7090841,0.648229 0.1865314,0.488686 -0.010319,1.078708 -0.4503214,1.350964 l -0.2203981,0.136261 -1.6250726,0.0127 -1.624808,0.0127 z M 2.6114391,9.5774634 C 2.2828263,9.4742754 1.9904614,9.2200104 1.870605,8.9332024 1.784351,8.7257684 1.780117,8.2690974 1.862665,8.0711884 c 0.094192,-0.224896 0.3214691,-0.459052 0.5498047,-0.566209 0.1994961,-0.09393 0.2487086,-0.09631 1.8647854,-0.08387 l 1.659733,0.01296 0.1942044,0.136525 c 0.6924154,0.486834 0.6315611,1.527706 -0.1127126,1.92564 -0.1812398,0.09684 -0.2304523,0.100012 -1.740431,0.108214 -0.8546051,0.0048 -1.6046997,-0.0074 -1.6668769,-0.02699 z"
     stroke-width="0.999999"
     id="path833" />
</svg>
