<svg fill="#fff" xmlns="http://www.w3.org/2000/svg" width="85.625" height="90.708" viewBox="0 0 22.655 24"><path d="M4.419 23.948c-.405-.096-.717-.31-.998-.683-.51-.68-.447-1.56.155-2.186 1.422-1.478 3.681.137 2.784 1.99-.316.654-1.2 1.054-1.941.879zm6.492.002c-1.293-.316-1.74-1.98-.788-2.933 1.11-1.11 2.976-.319 2.956 1.254a1.756 1.756 0 01-2.168 1.679zm6.472-.02a1.755 1.755 0 01-1.056-2.494c.663-1.287 2.53-1.224 3.135.105.294.649.17 1.391-.322 1.918-.42.449-1.158.647-1.757.472zM1.1 18.64c0-.03.37-.744.824-1.586.752-1.399.823-1.577.823-2.053 0-.585-.023-.626-.943-1.69a8.046 8.046 0 01-1.565-2.823c-.317-1.015-.317-2.753 0-3.762C1.284 3.395 4.46.976 8.863.159c1.172-.218 3.717-.21 4.988.014 3.737.66 6.802 2.73 8.106 5.474 2.464 5.182-1.85 10.71-9 11.53-1.041.119-3.275.065-4.047-.098-.73-.155-2.163-.115-2.926.081-.602.155-4.265 1.297-4.723 1.473-.089.034-.162.037-.162.007zm13.733-5.373c.147-.075.293-.206.325-.29.032-.084.058-1.062.058-2.175V8.779l-.275-.275c-.15-.151-.337-.275-.413-.275-.113 0-.145-.248-.176-1.388-.035-1.278-.059-1.43-.296-1.921-.482-.998-1.385-1.582-2.564-1.658-.933-.06-1.582.143-2.186.687-.78.7-.904 1.06-.96 2.769L8.3 8.17l-.313.081c-.52.134-.581.424-.581 2.708 0 1.98 0 1.984.23 2.215l.232.23h3.35c2.755 0 3.396-.023 3.615-.137zM9.57 6.973c0-1.129.022-1.297.217-1.665.616-1.165 2.502-1.095 3.133.117.094.181.132.617.132 1.529v1.275H9.569z"/></svg>