<svg xmlns="http://www.w3.org/2000/svg" height="256" preserveAspectRatio="xMidYMid" width="256" xmlns:v="https://vecta.io/nano"><path d="M224.002 0H31.998C14.358.039.061 14.337 0 32v192c0 17.6 14.397 32 31.998 32h192.004C241.603 256 256 241.6 256 224V32c0-17.6-14.397-32-31.998-32" fill="#e44332"/><path d="M54.133 120.802l102.535-59.616c2.192-1.275 2.311-5.196-.159-6.615l-8.847-5.117c-2.469-1.359-5.47-1.322-7.906.096L53.87 99.411c-3.292 1.881-7.332 1.913-10.6 0L0 74.018v21.583l43.062 25.225c3.786 2.152 7.412 2.104 11.078-.024m-.007 40.807l102.535-59.616c2.192-1.275 2.311-5.196-.159-6.615l-8.847-5.117c-2.469-1.359-5.47-1.322-7.906.096L53.87 140.218c-3.292 1.881-7.332 1.913-10.6 0L0 114.825v21.583l43.062 25.225c3.786 2.152 7.412 2.104 11.078-.024m-.007 43.358l102.535-59.616c2.192-1.275 2.311-5.196-.159-6.615l-8.847-5.117c-2.469-1.359-5.47-1.322-7.906.096l-85.886 49.86c-3.292 1.881-7.332 1.913-10.6 0L0 158.182v21.583l43.062 25.225c3.786 2.152 7.412 2.104 11.078-.024" fill="#fff"/></svg>