<svg xmlns="http://www.w3.org/2000/svg"  viewBox="0 0 24 22.086"><path d="M12.016 0c-.975-.003-1.292.036-2.109.26C8.077.763 6.44 2 5.433 3.64c-.371.603-.734 1.446-.885 2.055-.218.88-.219.884-.241 3.85l-.022 2.888a5.223 5.223 0 00-.527 1.57l-.424.069c-1.519.245-2.779 1.39-3.217 2.922-.147.516-.157 1.577-.02 2.074.176.637.51 1.248.923 1.69.214.222.405.404.624.576.39.3.797.499 1.301.645.313.09.77.095 9.234.1l8.904.007.4-.13c.5-.164.701-.266 1.106-.565.581-.427 1.029-1.068 1.298-1.855.136-.742.184-1.54-.056-2.186-.23-.61-.434-.929-.889-1.386-.35-.35-.506-.464-.912-.66-.27-.13-.63-.261-.799-.292a1.992 1.992 0 01-.328-.075 3.277 3.277 0 01-.067-.455c-.097-.88-.394-1.579-.942-2.212l-.202-.233v-2.54c0-.76-.002-1.306-.01-1.742a.44.44 0 00-.004-.249c-.023-.882-.08-1.209-.226-1.811-.429-1.265-.985-2.38-1.83-3.282a7.586 7.586 0 00-3.194-2.05C13.573.077 13.088.004 12.016 0zm-.108 2.502c.598.003 1.253.094 1.748.26 1.393.466 2.633 1.65 3.17 3.027.336.909.342 2.123.353 3.054l.023 2.03-.511.006a4.357 4.357 0 00-.834.092 5.016 5.016 0 00-.547.179l-.223.094-.336-.36c-.85-.91-2.128-1.618-3.411-1.889-.57-.12-1.977-.122-2.53-.002-.656.141-1.128.311-1.784.641l-.254.129c.078-1.052-.063-2.296.171-3.236.512-2.011 1.976-3.453 3.993-3.931.273-.065.612-.095.972-.094zm1.004 9.464c.212-.002.234.004.244.075.013.095-.103.186-.567.444a13.88 13.88 0 00-1.54 1.022c-.423.336-1.403 1.325-1.72 1.735-1.25 1.619-1.917 3.307-2.22 5.62-.036.281-.076.522-.087.533-.027.027-.846.044-1.053.023l-.152-.016v-.204c.001-.738.312-2.107.706-3.107.805-2.044 2.147-3.697 4.06-4.997.573-.389 1.22-.754 1.695-.955.333-.141.44-.17.634-.173zm2.427 1.698c.071.003.123.02.15.052.088.107-.004.208-.378.413a10.467 10.467 0 00-2.63 1.997c-.871.89-1.355 1.57-1.883 2.646-.354.723-.54 1.219-.77 2.059-.078.285-.159.535-.179.555a.485.485 0 01-.162.028 3.989 3.989 0 00-.445.017c-.229.003-.446-.004-.493-.024-.114-.05-.105-.154.065-.716.295-.977.662-1.801 1.146-2.576 1.126-1.802 2.896-3.341 4.906-4.267.27-.124.517-.19.673-.184zm2.45 1.689c.07.003.122.02.155.053.081.082.022.168-.215.31-.639.38-1.496.921-1.682 1.061-1.374 1.038-2.551 2.529-3.266 4.137-.156.35-.227.471-.291.495-.062.024-.263.034-.468.032l-.048-.003a4.152 4.152 0 00-.465-.046c-.07-.036-.082-.066-.072-.166.018-.175.095-.353.357-.824.366-.655.942-1.495 1.267-1.845.525-.566 1.48-1.43 2.021-1.83.556-.411 1.658-1.034 2.243-1.268.19-.075.35-.111.465-.106zm2.935 6.425l.002.004-.015.001v-.002c.004-.002.009-.002.013-.003z"/><path d="M2.697 82.504a6.107 6.107 0 00-.346 1.246c-.028.174-.04.35-.059.525-.01.09 1.274.243 1.284.152h0c.03-.178.071-.355.091-.535.052-.463.054-.937-.073-1.388 0-.064-.897-.064-.897 0z" stroke="#000" stroke-width=".05" paint-order="stroke markers fill"/></svg>