<svg xmlns="http://www.w3.org/2000/svg" viewBox="0 0 24 24"><path d="M15.301 0c-.431-.013-.666.485-.979.754-.085.07-.259.02-.209-.061.02-.032.01-.04-.024-.02-.032.02-.122.021-.198.002-.104-.026-.121-.047-.069-.081.044-.028 0-.034-.113-.015-.139.023-.165.017-.106-.025.059-.041.025-.048-.132-.027-.118.017-.185.01-.15-.014.134.001-.933-.082-.786-.004.051.023-.012.03-.144.017-.169-.017-.214-.009-.159.03-.126.094-.547.027-.687.282-.031.018.088.312.285.706.185.37.362.767.392.882.03.115.062.684.07 1.265-.009.507.124.872-.131 1.307-.233.373-.558.387-.979.22-.105.064-.294-.53-.352-1.101-.014-.144-.052-.277-.084-.297-.25-.4-.502-.732-.788-1.113-.16 1.074.119 2.569.012 2.841-.022.036-.241.116-.489.193a.11.11 0 00.002-.017c-.612-.078-1.56.738-2.277.678-.115-.011-.131-.056-.165-.087l-.04-.037c-1.735-.79-3.236-3.026-4.622-3.06-.342.017-.434.045-.679.201-.312.2-.562.571-.562.835 0 .085.047.247.105.361 2.691 2.551 4.383 3.96 5.404 5.571.02.016.025.012.01-.007-.014-.019 0-.066.032-.104.273.027.759-.224 1.413-.31.207 0 .391-.021.304.366-.03.285-.033.302-.086.527-.022.09-.078.437-.125.77l-.222 1.576c-.073.516-.124.946-.116.983l-.366.226c-1.274-.223-2.466-.608-3.445-1.233-.812-1.142 3.175-1.575 4.053-1.755.025-.204.103-.41.104-.622l-.852.097c-2.908.33-5.12 1.05-5.501 1.787a.908.908 0 00-.079.35l.017.23c-.01 0-.017.823-.017 1.829 0 1.743.005 1.837.107 2.001.23.082.463.16.697.237.001.103-.009.206-.015.308l-.004.009c-.005.028-.018.054-.02.083a.235.235 0 00.02.091v.002a.41.41 0 00.009.086.537.537 0 00.044.112c-.094 1.78.032 4.154.062 6.175H22.16c.056-2.84.05-4.405.001-6.474l-.017-.17c.304-.161.62-.095.84-.577.059-.136.152-.583.147-2.172l-.071-1.644a1.075 1.075 0 00-.132-.472c-.187-.362-.73-.697-1.744-1.028-.504-.164-1.104-.327-1.205-.327-.077 0-.492.597-.445.64.021.018.17.076.33.127.62.199 1.109.558 1.109.816 0 .164-.258.42-.602.596-1.07.55-2.256.646-3.627.79a.106.106 0 00-.013-.076c-.012-.015-.014-.021-.031-.03a.169.169 0 00-.076-.019l-.032-.812c-.03-.741-.024-.894.034-.858.62.674.966.796 1.463 1.067.023.038.1-.035.202-.193.998-2.042 3.82-3.745 4.26-5.778.162-.496.627-.658.186-1.396-.38-.518-.748-.666-1.08-.708-.017-.03-.197-.053-.398-.053-.31 0-.385.018-.486.119-.672.711-.245.988-.459 1.728-2.297 1.871-2.733 1.761-3.298-.701.03-.077-.022-.11-.012-.174.02-.05.01-.066-.03-.042-.04.025-.05 0-.03-.077.019-.072.01-.101-.026-.08-.036.023-.046-.015-.03-.103.017-.085.007-.126-.025-.106-.033.02-.043-.021-.027-.106.016-.084.006-.125-.026-.105-.033.02-.043-.021-.027-.106-.23-1.555-.875-2.932-.778-4.006.042-.055.208-.568.063-.923-.027.036-.034.014-.019-.057.014-.064.01-.111-.011-.105-.304-.287-.54-.398-.737-.405zm-4.854.557c-.038 0-.08.004-.132.01-.617.072-.957.495-.697.867.095.136.241.15.409.04.064-.041.269-.111.454-.155.186-.043.361-.102.39-.13.089-.09-.01-.418-.162-.539a.359.359 0 00-.262-.093zm.428.044c-.112 0-.114.007-.042.145.53.746-.503.537-.722.772-.049.117-.4.069-.442.098-.044.105.247.845.409 1.12.09.1-.12-.203.117-.534.12-.17.41-.28.739-.28.48 0 .557.085.47.52-.043.218-.138.21-.247-.019-.101-.213-.2-.23-.582-.1-.298.101-.372.24-.22.528l-.107.065a.804.804 0 01.064.069c.189.22.362.493.494.784.06.094.044.217.075.313-.002.006-.002.01.004.006.025.02.052-.068.106-.055.067.206.125.37.204.37.353 0 .56-.186.56-.504 0-.204.145-.155.208.07.083.3.067.473-.056.587-.134.125-.578.24-.735.19a.446.446 0 00-.051-.013l-.001-.003-.003.002c-.04.01-.116-.206-.161-.182.014.034.075.312.092.345l.053.11c.008.015.016.029.028.04.018.019.04.033.06.048.046.03.095.054.147.072l.033.01a.714.714 0 00.355.01c.032-.006.039-.01.07-.02.032-.012.066-.023.096-.04.029-.016.113-.054.152-.094l.017-.02a.287.287 0 00.025-.045c.136-.224.147-.605.133-1.497-.01-.647-.082-1.062-.223-1.375-.176-.376-.459-.92-.536-1.318-.032.018-.15-.014-.262-.071A.945.945 0 0010.875.6zm1.1.211c.115 0 .307.18.307.287 0 .041-.037.113-.083.158-.104.105-.18.105-.327.001-.198-.139-.126-.446.104-.446zm.015.06a.299.299 0 00-.03.002c-.186.028-.247.175-.127.307.143.158.365.125.386-.057.018-.152-.083-.26-.229-.253zm.002.046c.043 0 .08.024.08.052 0 .03-.037.053-.08.053-.044 0-.08-.023-.08-.053 0-.028.036-.052.08-.052zM2.416 2.593c-.03.008-.058.107-.077.29-.025.244-.024.248.14.268.09.012.173.025.183.03.01.004-.017-.048-.062-.116a1.064 1.064 0 01-.118-.321c-.02-.108-.044-.157-.066-.15zm-.475.09a.024.024 0 00-.011.004c-.03.018-.053.147-.053.286 0 .243.006.253.132.229.151-.029.166-.078.053-.172-.044-.035-.08-.135-.08-.22 0-.079-.016-.128-.041-.127zm-.37.211a.03.03 0 00-.01.004c-.03.018-.054.139-.054.268 0 .238.024.268.151.187.055-.034.058-.07.013-.154a.561.561 0 01-.058-.22c0-.055-.018-.09-.042-.085zm-.35.286c-.013-.004-.025.105-.027.268-.004.33-.001.336.098.247.09-.082.093-.11.033-.26a10.795 10.795 0 01-.097-.246c-.002-.005-.004-.008-.006-.009zm1.243.186c.3-.01.704.365.704.696.025.324-.567.92-1.025.888-.183-.015-.25-.055-.43-.223-.272-.254-.31-.49-.076-.806.165-.224.534-.514.768-.547a.337.337 0 01.06-.008zm.025.034c-.333 0-.89.478-.959.823-.04.2.149.49.4.617.12.06.241.082.343.061.314-.063.746-.447.84-.747.088-.274-.31-.754-.624-.754zm-1.62.132l.022.29c.012.16.049.36.082.444.077.19.103.166.115-.102a.875.875 0 00-.105-.42zm20.017 1.053c-.024-.005-.03.07-.047.267-.015.175-.048.351-.075.393-.038.059-.026.066.053.033.056-.023.145-.054.198-.069.08-.023.091-.061.062-.219a1.024 1.024 0 00-.123-.322c-.033-.05-.054-.08-.068-.083zm.604.047c-.013 0-.014.051-.016.168a.731.731 0 01-.053.29c-.04.062-.019.087.093.113.08.018.15.036.16.04.037.015-.063-.404-.127-.522-.03-.057-.047-.089-.057-.089zm.494.115l-.042.264c-.036.22-.028.275.047.333.082.061.093.05.107-.109a.842.842 0 00-.048-.333zm.476.264l-.042.263c-.034.214-.025.281.048.363.086.095.09.091.105-.108a.951.951 0 00-.048-.363zm-10.552.072l-.017.007-.006.002.012-.008h.011zm10.996.377c-.076 0-.1.433-.038.647.032.109.077.198.099.198.038 0 .065-.28.048-.502-.014-.192-.062-.343-.11-.343zm-1.705.053c.74.114 1.15.246 1.294.99-.046.204-.193.495-.321.596-.358.282-1.292-.088-1.545-.611a.855.855 0 01-.075-.196l.004-.04c.021-.356.299-.727.643-.74zm-.643.74l-.002.038a.482.482 0 00.002-.038zm.718-.672c-.272 0-.4.06-.535.338-.102.211-.17.263-.118.437.09.298.24.456.603.633.46.222.784.222.993-.002a.66.66 0 00.13-.751c-.141-.3-.691-.655-1.073-.655z"/></svg>