<svg role="img" fill="#fff" viewBox="0 0 24 24" xmlns="http://www.w3.org/2000/svg"><path d="M.021 23.784c.018-.12.412-.298 2.592-1.174a256.41 256.41 0 002.965-1.205c2.145-.935 2.87-1.27 3.922-1.808 2.264-1.16 3.794-2.34 4.255-3.285.282-.576.307-1.254.066-1.764-.416-.88-1.548-1.617-4.024-2.62-2.227-.901-2.61-1.247-2.026-1.827.68-.677 1.609-.876 5.024-1.074 1.941-.113 2.649-.245 3.028-.564.231-.195.264-.436.092-.682-.126-.18-.025-.142.225.083.213.192.204.589-.017.81-.416.416-1.314.64-3.03.754-1.91.128-2.823.327-2.998.652-.253.474.371.724 3.458 1.388 3.542.76 5.761 1.44 7.377 2.255a8.17 8.17 0 012.705 2.26l.365.484v7.458H0z" fill="#f2f3f0"/><path d="M.104.102C.174.046.261 0 .296 0 .38 0 .343.03.141.127-.014.2-.016.199.104.103zm23.732.03c-.023-.037.003-.048.062-.025.114.043.135.09.04.09-.034 0-.08-.029-.102-.064z" /></svg>