<svg xmlns="http://www.w3.org/2000/svg" viewBox="0 0 24 24"><path d="M13.002 17.184l.99-1.698.992 1.698.992 1.699 4.001.024c2.2.013 4.001-.003 4.001-.037 0-.034-.446-.834-.99-1.778l-.992-1.717-2.017-.025-2.017-.026-.967-1.685-.966-1.686.194-.327c.106-.18.553-.95.992-1.71l.798-1.38h3.973l.873-1.522c.48-.837.933-1.617 1.007-1.733l.134-.21h-8.028l-2.24 3.862c-1.23 2.125-2.558 4.42-2.949 5.1-.39.68-.746 1.227-.79 1.214-.043-.012-.492-.737-.998-1.611L6.068 8.582 4.06 5.117l-2.03-.025L0 5.067l.167.315c.092.173 1.893 3.293 4.003 6.933l3.837 6.618 2.003-.025 2.003-.025z"/></svg>