<svg xmlns="http://www.w3.org/2000/svg" width="22.01" height="24"><path d="M8.85 23.975c.017-.015.197-.093.4-.173 2.57-1.012 4.635-2.516 5.607-4.082.144-.233.19-.334.154-.334-.006 0-.145.046-.31.102-3.718 1.262-8.092.927-9.748-.747-.621-.629-.746-1.257-.432-2.18.085-.252.11-.28.185-.213.107.096.69.386 1.013.506a8.79 8.79 0 001.606.395c.425.066.616.075 1.523.075.89 0 1.117-.01 1.606-.075 1.794-.24 3.46-.74 4.975-1.493.491-.244 1.3-.702 1.3-.737 0-.006-.05.003-.11.02a17.764 17.764 0 01-3.137.664 19.793 19.793 0 01-4.654.035c-2.162-.244-4.013-.836-5.32-1.702-1.612-1.068-2.18-2.388-1.64-3.82.064-.17.272-.54.413-.735l.058-.081.193.185c1.14 1.1 3.156 1.92 5.585 2.271 1.514.22 3.349.237 4.997.049 2.795-.32 5.28-1.221 6.85-2.486.352-.283.48-.413.276-.278-.18.118-.943.498-1.226.61-.956.38-2.11.654-3.407.809-.502.06-.794.072-1.757.074-1.13.002-1.438-.016-2.375-.135-2.602-.33-5.324-1.12-7.33-2.123C1.736 7.17.35 5.738.044 4.136c-.06-.312-.06-.984 0-1.314C.244 1.726.982.922 2.205.47 3.084.144 4.07 0 5.419 0c.879 0 1.47.04 2.47.167l.68.087.094-.09c.173-.166.41-.147.667.053.101.079.435.083.84.012.866-.153 1.87.037 2.596.49.668.417 1.194.419 1.814.007.251-.166.655-.336 1.04-.436.436-.114 1.134-.143 1.547-.065.158.03.396.054.53.054.216 0 .258-.01.394-.105.31-.213.566-.15.728.183.095.194.228.78.268 1.182l.024.24.121.022c.163.031.271.09.392.217.092.098.1.125.1.348 0 .212-.015.274-.125.496-.285.577-.922 1.026-1.892 1.336-1.096.35-1.286.416-1.623.57-.536.244-.651.285-.936.33-.368.06-.986.028-1.255-.063l-.209-.072-.209.075c-.184.066-.276.075-.761.075-.644.001-.714-.015-1.372-.316-.237-.109-.7-.283-1.027-.386-.912-.288-1.075-.346-1.38-.494-.758-.368-1.26-.947-1.3-1.498-.025-.348.073-.482.438-.601l.174-.057.036-.297c.047-.374.141-.843.187-.93.035-.063.026-.064-.445-.043-.608.028-1.55.135-2.131.242-1.102.204-1.957.533-2.393.92-.698.623-.456 1.323.73 2.111.166.11.633.364 1.037.565 2.434 1.207 5.119 1.906 7.972 2.077.716.043 2.315.023 2.92-.036 2.134-.21 3.814-.62 4.454-1.09.59-.434.366-.972-.622-1.497-.335-.178-.28-.188.2-.035 1.218.387 1.878 1.401 1.815 2.784-.032.706-.284 1.268-.834 1.86l-.216.233.164.202c.192.237.465.78.548 1.09.079.291.079.903 0 1.22-.122.5-.467 1.095-.887 1.533-.217.226-.218.228-.173.335.295.708.313 1.282.064 2.046-.183.56-.735 1.56-1.321 2.397-2.353 3.355-5.796 5.593-9.909 6.44-.604.125-.641.13-.592.087zm4.398-19.529c0-.074-.194-.161-.316-.141-.058.009-.165.044-.238.077l-.132.06.234.021c.424.037.452.036.452-.017zm1.389.014l.167-.003-.167-.083c-.19-.093-.38-.09-.487.006-.098.088-.043.126.148.103.094-.011.247-.022.339-.023zm-3.168-1.633c.058-.004.02-.036-.15-.125a5.99 5.99 0 01-.884-.583A11.285 11.285 0 019.233.917a1.808 1.808 0 00-.204-.235c-.045-.003-.14.366-.156.605-.047.712.484 1.254 1.422 1.454.234.05.86.107 1.03.095l.144-.01zm5.437-.057c.753-.13 1.257-.45 1.49-.946.076-.162.088-.231.085-.474-.003-.256-.09-.627-.15-.647-.01-.003-.132.13-.27.296-.618.736-1.395 1.385-2.06 1.72-.116.057-.21.11-.21.115 0 .03.857-.02 1.115-.064z"/></svg>