<svg xmlns="http://www.w3.org/2000/svg" viewBox="0 0 24 24"><path d="M12.123.001c-.537-.008-1.072.025-1.427.1-1.292.27-2.59 1.142-3.336 2.238-.788 1.157-.854 1.456-.896 4.03l-.038 2.244-.59.606c-4.483 4.6-2.69 12.225 3.36 14.298.496.17 1.18.348 1.52.396 4.074.574 8.01-1.76 9.403-5.575 1.174-3.216.43-6.668-1.967-9.127l-.598-.614-.002-1.998c0-1.425-.04-2.168-.14-2.593-.438-1.854-2.01-3.43-3.857-3.865C13.196.056 12.66.009 12.123 0zm-.3 1.914c.284 0 .573.034.863.108 1.033.265 1.73.855 2.196 1.86.22.476.248.667.282 1.943.035 1.35.028 1.412-.14 1.346-.616-.243-1.745-.457-2.647-.5a8.565 8.565 0 00-3.23.447 7.84 7.84 0 01-.594.189c-.023 0-.027-.653-.009-1.45.033-1.414.042-1.467.344-2.08.574-1.165 1.704-1.857 2.935-1.863zm.126 7.293c.13 0 3.624 3.736 3.952 4.226 1.706 2.55.46 6.07-2.5 7.067-.848.286-2.13.273-2.986-.028-2.48-.876-3.776-3.53-2.93-5.994a5.54 5.54 0 01.512-1.045c.324-.487 3.82-4.226 3.952-4.226zm.001 3.404c-1.343 0-2.447.668-3.068 1.857-.282.539-.303.646-.303 1.53 0 .846.028 1.008.263 1.487a3.638 3.638 0 002.324 1.882c.196.05.65.072 1.007.05 1.226-.073 2.34-.823 2.892-1.947.227-.463.257-.632.257-1.473 0-.883-.022-.99-.304-1.53-.62-1.188-1.725-1.856-3.068-1.856zm-.032 1.26c.31 0 .63.07.945.217.778.363 1.211 1.046 1.21 1.91a2.127 2.127 0 01-1.336 2.008c-.385.162-1.22.16-1.594-.004a2.457 2.457 0 01-1.113-1.043c-.235-.455-.277-1.391-.08-1.77.443-.846 1.175-1.315 1.968-1.317zm.051 1.205a.933.933 0 00-.69.297c-.466.464-.292 1.27.328 1.532.324.137.751.016 1.032-.291.615-.675.026-1.52-.67-1.538z"/></svg>