<svg xmlns="http://www.w3.org/2000/svg" fill="#fff" viewBox="0 0 24 24"><path d="M11.41 23.741c-.726-.244-7.505-3.054-7.718-3.2a1.755 1.755 0 01-.394-.39c-.083-.125-.859-1.924-1.724-3.999C.032 12.456 0 12.37 0 11.895c0-.477.024-.542 1.595-4.256 1.336-3.16 1.641-3.824 1.877-4.09.274-.31.394-.366 4.144-1.935C11.426.02 11.486-.002 11.963 0c.471.002.59.046 4.276 1.56 2.085.855 3.93 1.653 4.098 1.772.188.133.371.344.474.548.092.183.85 1.968 1.682 3.966 1.464 3.516 1.513 3.649 1.507 4.084-.007.423-.1.674-1.579 4.222-.864 2.075-1.64 3.871-1.726 3.993a2.067 2.067 0 01-.34.366c-.1.08-1.906.846-4.011 1.704-4.11 1.673-4.312 1.735-4.935 1.526zm4.363-2.637c2.298-.933 3.711-1.543 3.807-1.644.199-.209 3.146-7.276 3.146-7.544 0-.263-2.946-7.304-3.142-7.511-.087-.092-1.638-.77-3.843-1.68-3.525-1.455-3.708-1.523-3.935-1.448-.825.273-7.273 3-7.395 3.128-.183.193-3.164 7.29-3.16 7.525.004.249 2.984 7.34 3.164 7.53.171.18 7.23 3.11 7.522 3.121.1.005 1.826-.66 3.836-1.477zM5.423 11.93V6.254h2.42l.019 4.324.017 4.323 2.042-2.21c1.123-1.215 2.061-2.203 2.084-2.195.024.008.958 1.006 2.077 2.217l2.034 2.203.018-4.33.018-4.332h2.49V17.605h-1.278c-1.392 0-1.704-.057-2.198-.406-.141-.1-.885-.883-1.652-1.74l-1.444-1.61c-.027-.03-.694.662-1.482 1.538s-1.54 1.673-1.669 1.772c-.5.382-.82.446-2.217.446h-1.28z"/></svg>