<svg xmlns="http://www.w3.org/2000/svg" width="100%" height="100%" viewBox="0 0 24 24" fill-rule="evenodd" stroke-linejoin="round" stroke-miterlimit="2" xmlns:v="https://vecta.io/nano"><path d="M23.495 6.205a3.01 3.01 0 0 0-2.088-2.088c-1.87-.501-9.396-.501-9.396-.501s-7.507-.01-9.396.501A3.01 3.01 0 0 0 .527 6.205C.173 8.12-.002 10.063.005 12.01a31.24 31.24 0 0 0 .522 5.783 3.01 3.01 0 0 0 2.088 2.088c1.868.502 9.396.502 9.396.502s7.506 0 9.396-.502a3.01 3.01 0 0 0 2.088-2.088c.346-1.908.513-3.844.5-5.783a31.3 31.3 0 0 0-.5-5.805zM9.609 15.601V8.408l6.264 3.602-6.264 3.591z" fill="#fff" fill-rule="nonzero"/></svg>