<?xml version="1.0" encoding="UTF-8" standalone="no"?>
<!DOCTYPE svg PUBLIC "-//W3C//DTD SVG 1.1//EN" "http://www.w3.org/Graphics/SVG/1.1/DTD/svg11.dtd">
<svg width="100%" height="100%" viewBox="0 0 24 24" version="1.1" xmlns="http://www.w3.org/2000/svg" xmlns:xlink="http://www.w3.org/1999/xlink" xml:space="preserve" xmlns:serif="http://www.serif.com/" style="fill-rule:evenodd;clip-rule:evenodd;stroke-linejoin:round;stroke-miterlimit:2;">
    <path d="M23.495,6.205C23.213,5.193 22.419,4.399 21.407,4.117C19.537,3.616 12.011,3.616 12.011,3.616C12.011,3.616 4.504,3.606 2.615,4.117C1.603,4.399 0.809,5.193 0.527,6.205C0.173,8.12 -0.002,10.063 0.005,12.01C-0.001,13.95 0.174,15.886 0.527,17.793C0.809,18.805 1.603,19.599 2.615,19.881C4.483,20.383 12.011,20.383 12.011,20.383C12.011,20.383 19.517,20.383 21.407,19.881C22.419,19.599 23.213,18.805 23.495,17.793C23.841,15.885 24.008,13.949 23.995,12.01C24.009,10.064 23.842,8.12 23.495,6.205ZM9.609,15.601L9.609,8.408L15.873,12.01L9.609,15.601Z" style="fill:white;fill-rule:nonzero;"/>
</svg>
