<?xml version="1.0" encoding="utf-8"?>
<!-- Generator: Adobe Illustrator 23.0.1, SVG Export Plug-In . SVG Version: 6.00 Build 0)  -->
<svg version="1.1" id="svg1906" xmlns:svg="http://www.w3.org/2000/svg"
	 xmlns="http://www.w3.org/2000/svg" xmlns:xlink="http://www.w3.org/1999/xlink" x="0px" y="0px" width="566.929px"
	 height="566.929px" viewBox="0 0 566.929 566.929" enable-background="new 0 0 566.929 566.929" xml:space="preserve">
<g>
	<path fill="#141E8C" d="M566.929,566.929c-180.312-80.927-386.617-80.927-566.929,0V0h566.929V566.929z"/>
	<path fill="#FFFFFF" d="M67.233,172.985c-15.194,0.09-27.751,11.876-28.801,27.034H25.709v-40.022h99.215
		c0,0,0.795,30.922-28.536,63.699c0,0-27.918,32.424-28.625,46.648h16.079c23.059,0,25.444-27.034,25.444-27.034h13.252v40.11
		H21.115c0,0-3.711-30.392,31.452-67.233c0,0,21.645-24.207,26.681-43.291L67.233,172.985z"/>
	<path fill="#FFFFFF" d="M319.908,283.332v-13.075h-3.004c-5.456,0.009-9.886-4.407-9.895-9.862c0-0.011,0-0.022,0-0.033v-77.393
		c-0.009-5.456,4.407-9.886,9.862-9.895c0.011,0,0.022,0,0.033,0h3.004v-13.075h-65.819v13.076h3.004
		c5.466-0.047,9.936,4.346,9.983,9.813c0,0.027,0,0.055,0,0.082v77.393c-0.002,5.467-4.434,9.897-9.901,9.895
		c-0.027,0-0.055,0-0.082,0h-3.004v13.076L319.908,283.332z"/>
	<path fill="#FFFFFF" d="M240.483,283.42v-40.11h-13.252c0,0-2.474,27.034-25.533,27.034h-13.252v-42.054h4.682
		c5.477-0.037,9.947,4.374,9.983,9.851c0,0.044,0,0.089,0,0.133v4.947h13.076V200.02h-13.076v5.036
		c0.037,5.477-4.374,9.947-9.851,9.983c-0.044,0-0.089,0-0.133,0h-4.682v-42.054h13.252c23.059,0,25.533,27.034,25.533,27.034
		h13.252v-40.11H135.968v13.164h3.004c5.456-0.009,9.886,4.407,9.895,9.862c0,0.011,0,0.022,0,0.033v77.393
		c0.009,5.456-4.407,9.886-9.862,9.895c-0.011,0-0.022,0-0.033,0h-3.004v13.075L240.483,283.42z"/>
	<path fill="#FFFFFF" d="M388.996,172.985c15.199,0.038,27.761,11.865,28.713,27.034h12.81v-40.022h-94.797
		c0,0-15.019,19.613,24.207,63.699c0,0,27.83,32.424,28.536,46.648h-15.991c-23.059,0-25.533-27.034-25.533-27.034h-13.341v40.11
		h95.593c0,0,17.405-18.73-25.621-67.233c0,0-22.529-23.147-26.681-43.291L388.996,172.985z"/>
	<path fill="#FFFFFF" d="M499.873,172.985c15.182,0.08,27.72,11.884,28.713,27.034h12.722v-40.022h-94.709
		c0,0-15.019,19.613,24.207,63.699c0,0,27.83,32.424,28.536,46.648h-15.991c-23.059,0-25.533-27.034-25.533-27.034h-13.252v40.11
		h95.592c0,0,17.316-18.73-25.621-67.233c0,0-22.529-23.147-26.593-43.291L499.873,172.985z"/>
</g>
</svg>
