<svg xmlns="http://www.w3.org/2000/svg" width="80" height="80" viewBox="0 0 80 80" fill="none"><path fill="#9ACA3C" d="M12.213 20.168h55.668L39.421 68.49 12.212 20.168Z"/><path fill="#000" d="m10.41 36.563 13.956-6.198-.47 3.374 1.646-1.098-.235-3.295 3.528-2.51 1.255-.157 2.117-2.51 4.155-.864 2.51-1.255h4.86l1.099 1.726 1.097-.706 2.274-.079 3.136 1.883v5.491l.94.158.236 1.019 2.744.079-2.117-3.53 13.721-1.883 3.372 8.55-9.723-.862 2.43 4.157h-9.8v3.923l-7.448 7.609-.294 8.668L39.42 68.49l-7.664-13.65-.177-6.51-4.468-9.57-9.41-.08.785-2.43-8.076.313Z"/><path fill="#FFF200" d="m57.61 32.72-1.803-3.61 9.957-.549 1.882 4.237-9.017-.392 1.96 4.314-7.37-.079-.392-3.843 4.783-.079ZM16.369 35.072l5.802-2.353.078 2.746 4.155-1.491 2.51 1.883-.549 1.726H19.82l.47-2.59-3.92.08Z"/><path fill="#C4A43E" d="m41.772 34.994.706 3.922s.941.47 2.98-.392c2.038-.863 2.822-1.098 2.822-1.098s.079.47-.862 1.098c-.941.627-2.745.941-2.745.941s.784.628 1.96.157c1.176-.47 1.569-.706 1.569-.706s0 1.412-.941 1.648c-.941.235-3.293-.314-4.47-.236-1.175.079-1.724 1.098-1.803 1.883-.078.785.47 3.06.47 3.06s-1.254-1.648-1.254-2.825c0-1.177.236-1.961.236-1.961l-1.96-.235-.863-1.334-3.98.216s-.019 3.157 1.471 5.04a22.9 22.9 0 0 0 3.136 3.217l1.176 17.65 4.705-6.982.078-9.1-3.842-1.255s3.136.314 4.704-.392c1.568-.706 5.489-4.236 6.116-5.413.627-1.177-.157-9.727-.157-9.727s-2.587 1.176-5.175 1.96c-2.587.785-4.077.864-4.077.864ZM45.222 24.874s1.255-.784 2.823-.314c1.568.471 2.038.785 2.038.785v5.178s-.705.47-1.881 1.02c-1.176.549-1.96.549-1.96.549s-.236-3.609-.55-5.1a67.46 67.46 0 0 0-.47-2.118ZM39.577 23.07h2.98s1.254 1.412 1.567 3.06c.314 1.647.471 6.668.471 6.668s-1.02.392-2.352.549c-1.333.156-1.803.078-1.803.078s-.314-5.413-.55-7.217c-.234-1.804-.313-3.138-.313-3.138ZM33.697 25.188l2.587-.784s1.803 1.176 2.117 3.373c.314 2.196.157 5.57.157 5.57l-3.607.627s-.314-5.177-.706-6.668c-.392-1.49-.548-2.118-.548-2.118ZM28.208 29.424s.549-1.098 1.647-1.176c1.097-.079 1.725.157 1.725.157l1.41 5.49s-.156.315-1.175.707c-1.02.392-1.647.314-1.647.314s-1.02-2.51-1.332-3.53c-.314-1.02-.628-1.962-.628-1.962Z"/><path fill="#796621" d="m30.639 27.463 1.803-1.883s.94.863 1.097 1.883c.158 1.02.08 5.02.08 5.02s-.864-4.47-1.412-4.706c-.549-.235-1.568-.314-1.568-.314ZM27.503 29.189l-1.099 1.02.08 2.274 2.43 1.805-1.176-3.138-.235-1.961ZM38.715 23.384l-1.333.549 1.49 2.353-.157-2.902ZM38.165 35.603l2.57-.287.723 3.933-2.403.051-.89-3.697ZM37.303 34.602l-2.587.47-.549 2.746 2.823-.235-.157-2.51.47-.471ZM33.148 35.15s-.549.472-1.49.55c-.941.078-1.333.078-1.333.078l-.235 1.883 2.509.157.549-2.667ZM29.227 39.073l3.058-.118-.157 1.295-.862.235 1.098.236s.098.431.323 1.04c.035.093-.578.489-.578.489s.757-.038.792.044c.217.498.504 1.052.874 1.565 1.02 1.411 3.215 3.843 3.215 3.843l-1.412.314 1.49.471.784 14.277-4.704-7.845-.157-5.962 1.098-.627-1.333-.47-3.529-8.787Z"/><path fill="#9ACA3C" d="M15.905 12.295c.974 0 2.561.42 2.561 1.452v.565h-.643v-.38c0-.643-1.11-.994-1.898-.994-1.519 0-2.687 1.188-2.687 2.845 0 1.636 1.159 2.951 2.716 2.951 1.412 0 2.24-.964 2.24-.964l.389.497s-.944 1.11-2.638 1.11c-2.006 0-3.418-1.597-3.418-3.594 0-1.978 1.45-3.488 3.379-3.488Z"/><path fill="#9ACA3C" fill-rule="evenodd" d="M15.905 12.59c-1.755 0-3.082 1.369-3.082 3.193 0 1.854 1.299 3.298 3.121 3.298a3.388 3.388 0 0 0 2.244-.84l-.026-.033a3.506 3.506 0 0 1-.402.294 3.378 3.378 0 0 1-1.806.528c-1.747 0-3.012-1.475-3.012-3.247 0-1.807 1.289-3.14 2.983-3.14.43 0 .947.094 1.365.281.395.177.829.497.829 1.008v.085h.052v-.27c0-.337-.256-.625-.741-.844a3.97 3.97 0 0 0-1.524-.312Zm2.678 5.677.225.19.156-.183-.76-.97-.234.273c-.002 0-.003.003-.005.005a2.073 2.073 0 0 1-.121.12c-.09.08-.224.19-.398.3-.35.22-.855.437-1.492.437-1.369 0-2.421-1.156-2.421-2.656 0-1.506 1.048-2.55 2.392-2.55.358 0 .791.082 1.124.23.358.16.479.337.479.469v.675h1.233v-.86c0-.696-.538-1.134-1.089-1.382-.564-.255-1.247-.365-1.767-.365-2.1 0-3.673 1.652-3.673 3.783 0 2.14 1.524 3.89 3.713 3.89a3.979 3.979 0 0 0 2.662-1.014 2.883 2.883 0 0 0 .184-.182l.004-.005a.566.566 0 0 1 .007-.008l.004-.004v-.001h.002l-.225-.192Z" clip-rule="evenodd"/><path fill="#9ACA3C" d="M25.652 18.656h.126c.175 0 .282-.03.35-.214l2.24-6.03h.73l2.24 6.03c.068.185.165.214.35.214h.116v.604h-.311c-.487 0-.633-.097-.808-.565l-.594-1.617h-2.716l-.604 1.617c-.175.468-.311.565-.798.565h-.321v-.604Zm4.254-2.172-.905-2.445c-.117-.322-.263-.886-.263-.886h-.02s-.146.564-.263.886l-.895 2.445h2.346Z"/><path fill="#9ACA3C" fill-rule="evenodd" d="M28.163 12.117h1.14l2.312 6.223a.325.325 0 0 0 .007.018.699.699 0 0 0 .066.003h.412v1.195h-.607c-.25 0-.49-.021-.69-.16-.198-.139-.305-.357-.394-.597l-.524-1.425H27.58l-.532 1.425c-.089.237-.192.456-.388.595-.199.14-.438.162-.687.162h-.617V18.36h.422a.562.562 0 0 0 .066-.003.237.237 0 0 0 .008-.018v-.001l2.31-6.222Zm.41.591-.055.15h.43l-.055-.15h-.32Zm.435.31.016.06.001.006.005.018.018.067.062.226c.05.18.114.393.168.543l1.053 2.841h-3.194l1.04-2.84.001-.001c.055-.15.118-.362.169-.543l.061-.226.017-.06-2.02 5.435a.593.593 0 0 1-.273.335.597.597 0 0 1-.185.061v.025h.026c.238 0 .31-.028.345-.053.038-.026.09-.09.177-.32l.675-1.809h3.127l.665 1.809c.085.228.14.291.179.318.038.027.115.055.352.055h.016v-.026a.582.582 0 0 1-.181-.061.592.592 0 0 1-.267-.334l-2.053-5.525Zm-.28 1.135-.745 2.036h1.499l-.754-2.036Z" clip-rule="evenodd"/><path fill="#9ACA3C" d="M39.594 13.23c0-.146-.078-.214-.214-.214h-.419v-.604h.72c.42 0 .594.175.594.594v5.436c0 .146.078.214.215.214h2.268c.136 0 .214-.068.214-.214v-.458h.643v.682c0 .419-.175.594-.594.594h-2.833c-.419 0-.594-.175-.594-.594V13.23Z"/><path fill="#9ACA3C" fill-rule="evenodd" d="M38.666 12.117h1.016c.241 0 .485.049.662.226.178.178.227.422.227.663v5.355h2.106v-.672h1.233v.977c0 .242-.049.486-.226.663-.177.177-.421.226-.663.226h-2.833c-.242 0-.486-.049-.663-.226-.177-.177-.226-.421-.226-.663v-5.354h-.633v-1.195Zm4.1 6.243Zm-2.284 0Zm-1.225-5.652v.013h.123c.114 0 .253.028.363.135.113.109.146.251.146.374v5.436c0 .177.039.23.054.245.015.015.068.054.245.054h2.833c.177 0 .23-.039.245-.054.015-.015.054-.068.054-.245v-.387h-.052v.163a.509.509 0 0 1-.146.374.512.512 0 0 1-.364.136H40.49a.512.512 0 0 1-.364-.136.509.509 0 0 1-.146-.374v-5.436c0-.177-.038-.23-.053-.245-.015-.015-.068-.053-.245-.053h-.425Z" clip-rule="evenodd"/><path fill="#9ACA3C" d="m52.095 16.28-1.83-3.01c-.127-.205-.253-.254-.457-.254h-.156v-.604h.262c.468 0 .643.068.935.546l1.159 1.938c.214.36.418.77.418.77h.02s.204-.41.418-.77l1.16-1.938c.291-.478.466-.546.934-.546h.263v.604h-.156c-.195 0-.331.049-.448.254l-1.84 3.01v2.98h-.682v-2.98Z"/><path fill="#9ACA3C" fill-rule="evenodd" d="M49.357 12.117h.557c.239 0 .467.014.676.13.21.116.36.309.511.557l.001.001 1.16 1.94c.06.102.12.208.174.307.055-.1.114-.204.175-.306v-.001l1.16-1.94v-.001c.152-.248.302-.441.51-.556.21-.117.438-.131.677-.131h.558v1.195h-.451c-.075 0-.104.01-.118.017-.01.005-.035.02-.074.087l-.002.004-1.799 2.943v3.192H51.8v-3.193l-1.786-2.938c-.046-.073-.074-.09-.084-.095-.013-.007-.04-.017-.122-.017h-.451v-1.195Zm2.805 3.681-.002-.004-.006-.013-.026-.05a14.026 14.026 0 0 0-.374-.683l-1.157-1.937c-.14-.228-.224-.309-.292-.346-.065-.036-.152-.055-.358-.057v.02c.083.01.17.032.254.076.136.07.234.18.315.31v.001l1.712 2.814-.066-.131Zm.086.163.143.236v2.768h.09v-2.769l.145-.235h-.378Zm.394-.026 1.72-2.816a.775.775 0 0 1 .314-.315.736.736 0 0 1 .25-.075v-.021c-.206.002-.294.02-.358.057-.069.037-.152.118-.292.346l-1.158 1.936a12.193 12.193 0 0 0-.374.684l-.025.05-.007.013-.002.004-.068.137Z" clip-rule="evenodd"/><path fill="#9ACA3C" d="m64.266 15.685-1.48-2.415c-.136-.224-.292-.254-.487-.254h-.204v-.604h.36c.477 0 .672.088.944.546l.877 1.47c.204.351.438.78.438.78h.019s.205-.429.419-.78l.876-1.47c.273-.458.468-.546.944-.546h.36v.604h-.204c-.195 0-.35.03-.487.254l-1.49 2.415 2.191 3.575h-.778l-1.422-2.357a67.42 67.42 0 0 1-.438-.75h-.02s-.194.409-.408.76l-1.412 2.347h-.779l2.181-3.575Z"/><path fill="#9ACA3C" fill-rule="evenodd" d="M61.8 12.117h.655c.25 0 .481.02.693.138.211.118.36.309.505.552l.877 1.471v.002c.061.104.125.215.184.32a7.76 7.76 0 0 1 .185-.324l.876-1.47c.144-.242.294-.433.505-.55.212-.118.443-.14.692-.14h.656v1.196h-.5a.375.375 0 0 0-.146.017c-.014.007-.045.023-.089.095l-1.394 2.262 2.37 3.87h-1.472l-1.508-2.502-.18-.304c-.055.102-.117.21-.181.316l-1.497 2.49H61.56l2.361-3.87-1.386-2.263c-.044-.071-.074-.087-.088-.094a.377.377 0 0 0-.147-.017h-.5v-1.195Zm3.16 3.889.01.017a12.629 12.629 0 0 0 .128.221c.082.142.191.328.298.507l1.334 2.214h.085l-2.01-3.28.112-.182h-.378l-.084-.153-.01-.02-.03-.052-.102-.184c-.083-.15-.191-.343-.292-.515l-.875-1.47c-.128-.215-.212-.297-.285-.337-.074-.041-.178-.064-.406-.064h-.065v.015c.09.005.191.02.293.065a.785.785 0 0 1 .355.328l1.574 2.569-.105.172h.368l.085.149Zm-.494-.082-1.855 3.04h.086l1.326-2.205v-.001a8.093 8.093 0 0 0 .387-.715l.006-.013.002-.004.048-.102Zm.46-.436 1.463-2.372v-.001a.787.787 0 0 1 .355-.327.84.84 0 0 1 .293-.065v-.015h-.065c-.227 0-.331.023-.405.064-.073.04-.157.122-.285.337l-.877 1.472-.001.001a8.509 8.509 0 0 0-.37.684l-.026.052-.007.013-.001.004-.074.153Z" clip-rule="evenodd"/></svg>