<svg xmlns="http://www.w3.org/2000/svg" xml:space="preserve" style="fill-rule:evenodd;clip-rule:evenodd;stroke-linejoin:round;stroke-miterlimit:2" viewBox="0 0 300 39"><path d="M18.466 16.31c-.187.628-.082 1.363.128 2.831l2.659 18.614c.46 3.216.689 4.823 1.298 6.26a11.987 11.987 0 0 0 2.232 3.461c1.059 1.147 2.429 2.018 5.169 3.762l3.896 2.479c1.868 1.189 2.802 1.783 3.806 2.015.772.178 1.57.201 2.349.069a11.946 11.946 0 0 1-1.001-4.804c0-6.627 5.373-12 12-12 1.934 0 3.761.458 5.379 1.27.113-.717.231-1.541.37-2.512l2.659-18.614c.21-1.468.315-2.203.128-2.831a3.002 3.002 0 0 0-.923-1.425c-.498-.427-1.212-.63-2.638-1.038L40.321 9.374c-.491-.14-.736-.21-.986-.238a2.966 2.966 0 0 0-.666 0c-.249.028-.495.098-.985.238l-15.657 4.473c-1.426.408-2.14.611-2.637 1.038-.439.376-.76.871-.924 1.425Z" style="fill:#ffd06f" transform="matrix(.6892 0 0 .6892 -7.491 -6.284)"/><path d="M32.836 13.626c.11-.012.222-.012.333 0 .096.011.202.037.74.19l15.656 4.473c.735.211 1.206.346 1.558.476.335.125.455.207.515.259.22.188.38.435.462.712.023.077.049.22.026.577-.024.375-.092.859-.201 1.616L49.692 37.56c-6.841.659-12.19 6.423-12.19 13.437 0 1.385.209 2.721.596 3.979l-.747.476c-1.963 1.249-2.645 1.658-3.337 1.818a4.487 4.487 0 0 1-2.023 0c-.693-.16-1.375-.569-3.337-1.818l-3.896-2.479c-2.808-1.787-3.977-2.545-4.872-3.515a10.49 10.49 0 0 1-1.954-3.028c-.514-1.215-.723-2.593-1.194-5.887l-2.659-18.614c-.108-.757-.176-1.241-.201-1.616-.023-.357.003-.5.026-.577a1.5 1.5 0 0 1 .462-.712c.061-.052.181-.134.515-.259.353-.13.823-.265 1.558-.476l15.657-4.473c.537-.153.644-.179.74-.19Zm22.067 8.675-2.187 15.304c6.647.842 11.786 6.517 11.786 13.392 0 7.456-6.044 13.5-13.5 13.5-4.992 0-9.351-2.71-11.687-6.739l-.353.225-.223.141c-1.651 1.053-2.792 1.779-4.051 2.07a7.523 7.523 0 0 1-3.371 0c-1.259-.291-2.4-1.017-4.052-2.07l-.222-.141-4.089-2.602c-2.556-1.627-4.081-2.597-5.273-3.888A13.484 13.484 0 0 1 15.17 47.6c-.686-1.618-.941-3.407-1.369-6.406l-2.699-18.893c-.099-.69-.184-1.289-.217-1.793-.035-.535-.021-1.073.143-1.625a4.497 4.497 0 0 1 1.386-2.137c.437-.374.922-.607 1.425-.794.473-.175 1.056-.341 1.725-.533l.051-.014 15.656-4.473.083-.024c.41-.117.771-.221 1.148-.263a4.518 4.518 0 0 1 1 0c.378.042.739.146 1.148.263l.083.024 15.707 4.487c.67.192 1.252.358 1.726.533.502.187.988.42 1.425.794a4.504 4.504 0 0 1 1.386 2.137c.163.552.178 1.09.143 1.625-.033.504-.119 1.103-.217 1.792v.001Zm-3.901 18.196c-5.799 0-10.5 4.701-10.5 10.5s4.701 10.5 10.5 10.5 10.5-4.701 10.5-10.5-4.701-10.5-10.5-10.5Zm7.152 6.961a1.5 1.5 0 1 0-2.304-1.921l-6.449 7.738-3.338-3.339a1.501 1.501 0 0 0-2.121 2.122l4.5 4.5a1.5 1.5 0 0 0 2.212-.1l7.5-9ZM25.502 29.997a7.5 7.5 0 1 1 12 6.001v5.999a4.5 4.5 0 1 1-9 0v-5.999a7.492 7.492 0 0 1-3-6.001Zm9 7.5h-3v4.5a1.5 1.5 0 1 0 3 0v-4.5Zm-1.5-3a4.5 4.5 0 1 0 0-9 4.5 4.5 0 0 0 0 9Z" style="fill:#28323f" transform="matrix(.6892 0 0 .6892 -7.491 -6.284)"/><path d="M.025 0h.353L.269-.084v-.213c.016.002.051.004.119.004.164 0 .258-.108.258-.228 0-.104-.089-.198-.237-.198l-.202.001H.025l.104.081v.557L.025 0Zm.266-.667c.062 0 .109-.001.146.019.039.023.06.077.06.142 0 .16-.116.163-.228.163v-.324h.022Z" style="fill:#28323f;fill-rule:nonzero" transform="matrix(35.261 0 0 35.1102 50.775 30.679)"/><path d="M.024 0h.27L.216-.07v-.19C.22-.32.234-.363.271-.401a.074.074 0 0 0 .075.071c.036 0 .07-.034.07-.081a.075.075 0 0 0-.075-.078c-.058 0-.105.049-.128.115L.186-.501l-.09.06v.001l-.072.048.072.044v.278L.024 0Z" style="fill:#28323f;fill-rule:nonzero" transform="matrix(35.261 0 0 35.1102 73.8 30.679)"/><path d="M.024 0h.269L.216-.07v-.439l-.061.037-.059.036-.072.044.072.037v.285L.024 0Zm.062-.64a.076.076 0 1 0 .152 0 .077.077 0 0 0-.076-.076.077.077 0 0 0-.076.076Z" style="fill:#28323f;fill-rule:nonzero" transform="matrix(35.261 0 0 35.1102 88.47 30.679)"/><path d="M.572-.479H.439l-.001.003v-.003H.342l.066.071-.112.255-.114-.269.069-.057h-.3l.103.078.204.444.02-.045.001.001.182-.396.111-.082Z" style="fill:#28323f;fill-rule:nonzero" transform="matrix(35.261 0 0 35.1102 99.224 30.679)"/><path d="M.332-.341c.001.087-.094.098-.166.115C.104-.211.045-.17.045-.1c0 .045.029.114.122.114a.198.198 0 0 0 .166-.091L.358 0h.164L.446-.079.447-.32c0-.134-.092-.174-.179-.174H.252c-.103 0-.191.08-.191.139 0 .046.024.081.068.081a.07.07 0 0 0 .069-.07c0-.034-.011-.059-.054-.076.014-.02.061-.026.091-.026.05 0 .094.037.098.105H.332Zm-.117.28c-.026 0-.051-.018-.051-.048 0-.038.02-.061.074-.085a.217.217 0 0 0 .094-.063L.33-.136a.13.13 0 0 1-.115.075Z" style="fill:#28323f;fill-rule:nonzero" transform="matrix(35.261 0 0 35.1102 117.666 30.679)"/><path d="M.279.01c.1 0 .206-.082.206-.195a.181.181 0 0 1-.165.094C.223-.091.153-.158.153-.28c0-.096.062-.162.137-.162.06 0 .037.057.037.097 0 .05.034.073.071.073.046 0 .072-.037.072-.077 0-.081-.075-.14-.169-.14-.152 0-.261.105-.261.265 0 .133.095.234.239.234Z" style="fill:#28323f;fill-rule:nonzero" transform="matrix(35.261 0 0 35.1102 136.39 30.679)"/><path d="M.572-.479H.439l-.001.002v-.002H.342l.065.071-.113.254-.119-.263.076-.062h-.3l.103.078.177.387L.207.04C.194.062.169.122.127.122.095.122.056.102.066.028l-.112.129c.026.053.065.08.132.08.083 0 .131-.078.168-.166l.209-.469.109-.081Z" style="fill:#28323f;fill-rule:nonzero" transform="matrix(35.261 0 0 35.1102 154.549 30.679)"/><path d="M.724.032v-.294l.107-.08H.477l.097.071v.089c-.003.088-.055.134-.152.134-.157 0-.215-.148-.215-.32 0-.172.091-.297.223-.297.129 0 .191.111.279.247v-.325l-.101.079a.282.282 0 0 0-.173-.07c-.231 0-.385.145-.385.397 0 .202.128.355.347.355a.304.304 0 0 0 .228-.086l.099.1ZM.475-.342h.002L.475-.344v.002Z" style="fill:#28323f;fill-rule:nonzero" transform="matrix(35.261 0 0 35.1102 183.674 30.679)"/><path d="m.505-.509-.061.038v-.001l-.131.08.072.037v.217C.379-.11.36-.063.293-.063.219-.063.201-.115.2-.199l.001-.31-.061.038v-.001l-.131.08.071.036v.193c0 .114.065.174.16.174.077 0 .121-.031.152-.084l.023.096.162-.081-.072-.05v-.401Z" style="fill:#28323f;fill-rule:nonzero" transform="matrix(35.261 0 0 35.1102 213.505 30.679)"/><path d="M.024 0h.269L.216-.07v-.439l-.061.037-.059.036-.072.044.072.037v.285L.024 0Zm.062-.64a.076.076 0 1 0 .152 0 .077.077 0 0 0-.076-.076.077.077 0 0 0-.076.076Z" style="fill:#28323f;fill-rule:nonzero" transform="matrix(35.261 0 0 35.1102 234.556 30.679)"/><path d="M.259.013c.056 0 .12-.023.154-.076l.024.086.162-.081-.072-.05V-.75l-.036.025v-.001l-.156.104.072.035v.117a.242.242 0 0 0-.089-.017c-.164 0-.277.124-.277.258 0 .166.111.242.218.242Zm.067-.089C.237-.076.165-.14.165-.275c0-.091.051-.162.132-.162.064 0 .103.036.11.112v.226a.133.133 0 0 1-.081.023Z" style="fill:#28323f;fill-rule:nonzero" transform="matrix(35.261 0 0 35.1102 245.31 30.679)"/><path d="M.275.01C.38.01.486-.071.486-.184a.187.187 0 0 1-.167.093C.22-.091.157-.158.153-.259H.49v-.05H.489c-.01-.139-.125-.18-.208-.18C.135-.489.04-.37.04-.23c0 .123.08.24.235.24ZM.266-.442c.063 0 .096.054.096.133H.153c.001-.085.059-.133.113-.133Z" style="fill:#28323f;fill-rule:nonzero" transform="matrix(35.261 0 0 35.1102 267.137 30.679)"/><path d="M.218-.494c-.088 0-.164.053-.164.151s.058.138.152.158c.047.01.116.022.116.079 0 .041-.042.061-.075.061-.036 0-.063-.004-.091-.025C.111-.105.084-.156.052-.205l.001.223.075-.037A.228.228 0 0 0 .245.01a.158.158 0 0 0 .167-.154c0-.114-.067-.145-.171-.171C.181-.33.142-.349.142-.38c0-.039.035-.06.083-.06.027 0 .063.012.086.032a.324.324 0 0 1 .084.104L.394-.509l-.078.043a.211.211 0 0 0-.098-.028Z" style="fill:#28323f;fill-rule:nonzero" transform="matrix(35.261 0 0 35.1102 285.473 30.679)"/></svg>