<svg xmlns="http://www.w3.org/2000/svg" viewBox="0 0 151 92" fill="none"><path fill="#68B044" d="M82.244 16.976 80.42 24c2.584-4.976 6.764-8.707 11.552-12-3.496 3.878-6.688 7.756-8.588 11.707 3.268-4.463 7.676-6.878 12.616-8.56C89.388 20.78 84.144 26.926 80.192 33L77 31.683c.532-4.902 2.432-9.878 5.244-14.707Z"/><path fill="#F5F8DE" d="m74.183 30 5.682 2.476c0 1.501-.144 6.153.79 7.504C90.15 52.737 88.568 78.4 78.715 79 63.754 79 58 68.42 58 58.665c0-8.93 10.213-14.783 16.327-20.036 1.654-1.425 1.366-4.577-.144-8.629Z"/><path fill="#7E4798" d="m80 33 2.11 1.116c-.219 1.414.072 4.539 1.454 5.283 6.11 3.87 11.783 8.036 14.037 12.277 8.001 14.808-5.6 28.573-17.456 27.234 6.4-4.837 8.292-14.807 5.892-25.745-.946-4.242-2.473-8.11-5.164-12.501-1.164-2.009-.728-4.688-.873-7.664Z"/><path fill="#010101" d="M78 40c-.464 2.294-1.005 6.438-3.092 7.992a82.274 82.274 0 0 1-2.705 1.777c-3.787 2.442-7.497 4.736-9.197 10.582-.387 1.258-.078 2.59.232 3.848.927 3.626 3.555 7.475 5.642 9.769 0 .074.386.37.386.444 1.7 1.924 2.242 2.516 8.734 3.922l-.155.666c-3.941-.962-7.11-1.924-9.197-4.144 0-.074-.387-.37-.387-.37-2.164-2.368-4.869-6.365-5.796-10.139-.387-1.48-.696-2.664-.232-4.218 1.777-6.068 5.642-8.51 9.507-11.026.85-.519 1.932-1.037 2.782-1.703C76.3 46.29 77.15 42.812 78 40Z"/><path fill="#010101" d="M79.367 49c.075 2.658-.228 4.025.454 5.924.38 1.14 1.819 2.658 2.198 4.177.53 1.975 1.136 4.178 1.136 5.545 0 1.519-.076 4.405-.758 7.443-.53 2.506-1.666 4.709-3.637 5.924-2.045-.38-4.394-1.14-5.758-2.355-2.728-2.354-5.077-6.304-5.38-9.721-.227-2.81 2.35-6.988 5.986-9.038 3.03-1.823 3.789-3.798 4.47-7.14-.909 2.887-1.818 5.241-4.773 6.836-4.319 2.278-6.516 6-6.289 9.645.303 4.633 2.122 7.747 5.759 10.254 1.515 1.063 4.394 2.202 6.213 2.506v-.228c1.364-.228 3.106-2.506 4.016-5.468.757-2.734 1.06-6.152.985-8.355-.076-1.29-.607-4.025-1.667-6.531-.53-1.367-1.44-2.734-1.97-3.722-.682-1.139-.682-3.266-.985-5.696Z"/><path fill="#010101" d="M78.902 60c.078 1.735.778 3.904 1.09 6.145.233 1.662.155 3.325.077 4.77-.078 1.663-.623 4.7-1.478 6.217-.778-.36-1.09-.722-1.634-1.3-.623-.796-1.09-1.663-1.479-2.603-.31-.723-.7-1.59-.855-2.53-.234-1.446-.156-3.76 1.633-6.073 1.4-1.879 1.712-2.024 2.179-4.12-.622 1.88-1.09 2.096-2.568 3.687C74.233 65.928 74 68.53 74 70.626c0 .868.389 1.88.778 2.748.39.94.778 1.951 1.323 2.674.856 1.157 1.945 1.88 2.49 1.952v-.072c1.011-1.085 1.634-2.097 1.867-3.181.233-1.301.311-2.53.467-4.048.156-1.301.078-2.964-.311-4.699-.467-2.169-1.323-4.41-1.712-6Z"/><path fill="#010101" d="M79.08 38c.079 2.59.237 7.4 1.03 9.325.238.666 2.221 3.478 3.57 6.957.951 2.368 1.19 4.588 1.348 5.254.634 2.812-.159 7.623-1.19 12.137-.555 2.442-2.38 5.477-4.441 6.66L79 79c1.19-.074 4.045-2.664 5.076-5.995 1.745-5.55 2.38-8.14 1.586-14.357-.079-.592-.396-2.664-1.427-4.81-1.507-3.33-3.649-6.513-3.887-7.18-.555-1.035-1.19-5.624-1.269-8.658Z"/><path fill="#010101" d="M80.38 33c-.144 2.68-.144 4.764.292 6.773.508 2.159 3.27 5.285 4.433 8.858 2.18 6.848 1.6 15.78.073 22.702-.582 2.457-3.343 6.03-6.178 7.146l2.035.521c1.09-.074 3.998-2.829 5.16-5.955 1.817-4.987 2.18-10.867 1.454-17.12-.073-.595-1.017-5.954-1.962-8.187-1.309-3.35-3.416-5.731-4.143-7.816-.582-1.563-.8-5.731-.436-6.55L80.38 33Z"/><path fill="#7E4798" d="M22.8 18h39.875c1.474 0 2.801 1.265 2.801 2.827v11.902c0 1.563-1.327 2.827-2.8 2.827h-8.182c-1.843 0-2.654 1.042-2.654 2.232v38.906c0 1.339-1.031 2.306-2.284 2.306H35.994c-1.253 0-2.211-.967-2.211-2.306V37.416c0-1.19-1.106-1.934-1.917-1.934h-9.065c-1.548 0-2.801-1.265-2.801-2.827V20.752C20 19.265 21.253 18 22.8 18Zm102.303 15.77h3.538c1.327 0 2.359 1.042 2.359 2.307v12.72c0 1.637.073 2.307-1.917 2.307-3.906 0-5.675 2.083-5.675 4.389V76.99c0 .968-.958 1.86-2.064 1.86h-12.677c-1.106 0-2.064-.818-2.064-1.86V52.517c0-.446 0-1.041.074-1.413.663-9.076 7.739-16.292 16.657-17.259.221 0 1.253-.074 1.769-.074Z"/><path fill="#010101" d="M94.63 46.035c-2.147-1.917-4.813-3.54-7.628-5.088-1.259-.664-5.11-3.687-3.777-7.965L73.523 29l-.667.516c3.259 5.826 1.556 8.924-.074 9.956-3.259 2.212-7.999 5.015-10.295 7.448-4.518 4.646-5.85 9.071-5.406 14.823.444 7.449 5.85 13.643 13.183 16.077C73.449 78.853 76.41 79 79.67 79c5.258 0 10.739-1.401 14.664-4.646A18.329 18.329 0 0 0 101 60.268c0-5.383-2.296-10.545-6.37-14.233Zm-1.407 27.213c-3.629 2.95-10.146 5.014-13.627 4.867-3.851-.221-7.629-.811-10.961-2.434-5.851-2.802-9.703-8.923-9.999-13.864-.518-10.103 4.37-12.98 8.888-16.667 2.518-2.064 6.073-3.097 8.073-6.784.37-.811.592-2.581.148-4.425-.223-.664-1.111-2.876-1.482-3.392l7.258 3.17c-.888 3.32 1.852 6.785 4.074 8.04 2.222 1.253 5.703 3.613 7.85 5.53 3.778 3.319 5.703 8.038 5.703 12.98 0 4.94-2.073 9.808-5.925 12.979Z"/></svg>