<svg xmlns="http://www.w3.org/2000/svg" width="24" height="24" fill="none"><path fill="currentColor" d="M12.912 23c-2.38 0-4.475-.477-6.286-1.43-1.785-.953-3.169-2.25-4.152-3.891C1.491 16.01 1 14.118 1 12c0-2.144.479-4.037 1.436-5.679A10.376 10.376 0 0 1 6.432 2.43C8.113 1.477 10.015 1 12.136 1c2.043 0 3.88.45 5.51 1.35 1.655.874 2.961 2.145 3.918 3.812C22.521 7.804 23 9.776 23 12.08c0 .239-.013.517-.039.834-.026.291-.051.57-.077.834H5.928v-3.613h13.774l-2.328 1.072c0-1.112-.22-2.078-.66-2.9a4.74 4.74 0 0 0-1.823-1.905c-.776-.477-1.682-.715-2.716-.715-1.035 0-1.953.238-2.755.715-.776.45-1.384 1.098-1.824 1.946-.44.82-.66 1.8-.66 2.938v.953c0 1.165.246 2.198.738 3.098a5.301 5.301 0 0 0 2.134 2.025c.931.45 2.017.675 3.259.675 1.112 0 2.082-.172 2.91-.516a7.067 7.067 0 0 0 2.328-1.549l3.22 3.574c-.957 1.112-2.16 1.972-3.608 2.581-1.448.583-3.117.874-5.005.874Z"/></svg>
