<svg xmlns="http://www.w3.org/2000/svg" viewBox="0 0 24 24" fill="none"><path fill="currentColor" fill-rule="evenodd" d="M6.728 14.785 10.08 1l-3.738.575L3.28 14.282a9.706 9.706 0 0 0-.278 2.118c-.02.612.121 1.219.41 1.76.281.51.748.912 1.399 1.21.65.293 1.548.44 2.688.44l.723-2.944c-.417-.03-.744-.102-.976-.215a1.031 1.031 0 0 1-.493-.443 1.243 1.243 0 0 1-.133-.633c.012-.266.048-.53.108-.79Zm11.44-7.68c-.652-.271-1.427-.406-2.328-.406-.902-.006-1.802.07-2.69.227-.826.15-1.563.324-2.206.514L6.942 24h3.57l1.085-4.333a9.527 9.527 0 0 0 1.64.144c1.123 0 2.164-.195 3.121-.586a7.15 7.15 0 0 0 2.46-1.639 7.555 7.555 0 0 0 1.603-2.5c.387-.966.579-2.03.579-3.194 0-.717-.1-1.393-.301-2.023a4.506 4.506 0 0 0-.93-1.65c-.417-.472-.952-.843-1.602-1.114Zm-4.233 2.729a6.946 6.946 0 0 1 1.447-.144c.755 0 1.285.24 1.59.718.305.48.458 1.062.458 1.748a5.864 5.864 0 0 1-.3 1.927 4.48 4.48 0 0 1-.844 1.495c-.362.415-.81.745-1.314.969a4.124 4.124 0 0 1-1.713.347c-.402 0-.739-.03-1.012-.095l1.688-6.965Z" clip-rule="evenodd"/></svg>
