<?xml version="1.0" encoding="UTF-8" standalone="no"?>
<!DOCTYPE svg PUBLIC "-//W3C//DTD SVG 1.1//EN" "http://www.w3.org/Graphics/SVG/1.1/DTD/svg11.dtd">
<svg width="100%" height="100%" viewBox="0 0 72 72" version="1.1" xmlns="http://www.w3.org/2000/svg" xmlns:xlink="http://www.w3.org/1999/xlink" xml:space="preserve" xmlns:serif="http://www.serif.com/" style="fill-rule:evenodd;clip-rule:evenodd;stroke-linejoin:round;stroke-miterlimit:2;">
    <path d="M8,72C3.582,72 0,68.418 0,64L0,8C-0,3.582 3.582,0 8,0L64,0C68.418,-0 72,3.582 72,8L72,64C72,68.418 68.418,72 64,72L8,72ZM16.349,22.794C19.857,22.794 22.697,19.93 22.697,16.397C22.697,12.864 19.857,10 16.349,10C12.842,10 10,12.864 10,16.397C10,19.93 12.842,22.794 16.349,22.794ZM11.033,62L21.769,62L21.769,27.333L11.033,27.333L11.033,62ZM62,62L62,40.051C62,30.764 56.736,26.274 49.383,26.274C42.026,26.274 38.93,32.003 38.93,32.003L38.93,27.333L28.633,27.333L28.633,62L38.93,62L38.93,43.802C38.93,38.926 41.175,36.025 45.471,36.025C49.42,36.025 51.316,38.813 51.316,43.802L51.316,62L62,62Z"/>
</svg>
