<svg xmlns="http://www.w3.org/2000/svg" viewBox="0 0 24 24" fill="none"><g clip-path="url(#a)"><path fill="currentColor" d="M22 0H2a2 2 0 0 0-2 2v20a2 2 0 0 0 2 2h20a2 2 0 0 0 2-2V2a2 2 0 0 0-2-2ZM6 21H4a1 1 0 0 1-1-1V4a1 1 0 0 1 1-1h2a1 1 0 0 1 0 2H5v14h1a1 1 0 0 1 0 2Zm10-5a1 1 0 0 1-1-1v-4a1 1 0 0 0-2 0v4a1 1 0 0 1-2 0v-4a1 1 0 0 0-2 0v4a1 1 0 1 1-2 0V9a1 1 0 0 1 1.707-.706A2.992 2.992 0 0 1 12 8.766 3 3 0 0 1 17 11v4a1 1 0 0 1-1 1Zm5 4a1 1 0 0 1-1 1h-2a1 1 0 0 1 0-2h1V5h-1a1 1 0 1 1 0-2h2a1 1 0 0 1 1 1v16Z"/></g><defs><clipPath id="a"><path fill="#fff" d="M0 0h24v24H0z"/></clipPath></defs></svg>
