<svg xmlns="http://www.w3.org/2000/svg" viewBox="0 0 24 24" fill="none"><path stroke="currentColor" stroke-linecap="round" stroke-linejoin="round" stroke-width="1" d="M14.303 7.618c1.214.423 1.715-2.166 2.392-3.364 1-1.768 2.903-.812 2.965 1.047.066 1.972-1.888 4.31-3.588 5.781-.459.397-.438.74.125 1.072 2.086 1.232 2.663 4.54 3.115 6.18.705 2.564-3.702 3.235-3.614.324.037-1.207.295-2.732-2.044-3.165.712 5.38-2.704 5.745-5.333 5.757-2.28.01-2.06-3.55.4-3.39 1.126.074 1.853-.758 1.345-1.893a29.979 29.979 0 0 0-1.77-3.015c.051-.331-2.25.746-3.937 2.168-1.66 1.398-2.953-1.41-1.146-3.24 1.107-1.121 4.286-1.994 4.286-1.994-.145-2.025-2.16-4.31 1.146-6.48 3.306-2.168 5.652 1.504 5.657 4.212"/><path stroke="currentColor" stroke-linecap="round" stroke-linejoin="round" stroke-width="1.5" d="M10.49 4.13c-1.21.495-2.077.776-1.67 2.292.357 1.327 1.323 1.945 2.866 1.221 1.06-.497 1.467-1.084 1.222-2.068-.31-1.24-.967-2.04-2.418-1.445Z"/></svg>