<svg xmlns="http://www.w3.org/2000/svg" viewBox="0 0 48 48"><path fill="none" stroke="currentColor" stroke-width="2" stroke-linecap="round" stroke-linejoin="round" d="M9.156 33.457c-4.808-7.548-3.187-17.503 3.768-23.135s17.029-5.148 23.412 1.125s7.043 16.337 1.533 23.389s-15.435 8.847-23.065 4.17L7.52 40.51zm2.631 9.867l1.911-.448m-9.645-3.73l-.78 3.188c-.354 1.45.947 2.763 2.4 2.422l3.187-.746m-3.657-9.568l-.451 1.847m39.854-18.44a21.4 21.4 0 0 0-1.81-4.291M3.4 17.821a21.4 21.4 0 0 1 1.814-4.288m35.495-3.063a21.7 21.7 0 0 0-3.306-3.282M7.308 10.45a21.6 21.6 0 0 1 3.308-3.277m23.686-2.049a21.5 21.5 0 0 0-4.303-1.775M13.72 5.111a21.4 21.4 0 0 1 4.308-1.771m8.315-.713a21.8 21.8 0 0 0-4.656-.004M2.644 26.497a22 22 0 0 1 0-4.994m.75 8.648a21.4 21.4 0 0 0 1.81 4.291M44.6 30.179a21.4 21.4 0 0 1-1.814 4.288m-2.094 3.083a21.6 21.6 0 0 1-3.308 3.277m-23.686 2.049a21.5 21.5 0 0 0 4.303 1.775m16.279-1.762a21.4 21.4 0 0 1-4.308 1.771m15.384-18.163a22 22 0 0 0 0-4.994m-23.699 23.87a21.8 21.8 0 0 0 4.656.004"/></svg>
