<svg xmlns="http://www.w3.org/2000/svg" viewBox="0 0 24 24" fill="none"><path stroke="currentColor" d="M3 20.29V5a2 2 0 0 1 2-2h14a2 2 0 0 1 2 2v10a2 2 0 0 1-2 2H7.961a2 2 0 0 0-1.561.75l-2.331 2.914A.6.6 0 0 1 3 20.29Z"/><path stroke="currentColor" stroke-linecap="round" d="M14.562 14.592H7.566a.34.34 0 0 1-.34-.34v-5.54a.34.34 0 0 1 .34-.34h1.565c.397 0 .765-.208.97-.55l1.532-2.554a.922.922 0 0 1 1.675.74l-.578 1.927a.34.34 0 0 0 .325.437h2.587c.745 0 1.287.709 1.09 1.428l-1.079 3.959a1.131 1.131 0 0 1-1.09.833Z"/><path stroke="currentColor" stroke-linecap="round" stroke-linejoin="round" d="M9.206 14.592v-6.22"/></svg>
